<?xml version="1.0" encoding="utf-8"?>
<!-- Generator: Adobe Illustrator 21.1.0, SVG Export Plug-In . SVG Version: 6.00 Build 0)  -->
<svg version="1.1" id="Layer_1" xmlns="http://www.w3.org/2000/svg" xmlns:xlink="http://www.w3.org/1999/xlink" x="0px" y="0px"
	 viewBox="0 0 385.3 41.7" style="enable-background:new 0 0 385.3 41.7;" xml:space="preserve">
<style type="text/css">
	.st0{fill:#231F20;}
	.st1{fill:#FFCC1A;}
</style>
<g>
	<path class="st0" d="M34.9,37.9V26.1c0-4.5-1.1-6.8-4.6-6.8c-3.6,0-5.4,2.4-5.4,7.2v11.5h-4.6V26.1c0-4.5-1.1-6.8-4.6-6.8
		c-3.6,0-5.4,2.4-5.4,7.2v11.5H5.7V15.4h4.5v2.4c1.7-1.9,3.5-2.8,6.2-2.8c3.1,0,5.8,1.2,7.2,4.2c2.2-3.3,4.9-4.2,7.5-4.2
		c5,0,8.4,3.1,8.4,10.2v12.7H34.9z"/>
	<path class="st0" d="M48.6,37.9V15.4h4.6v22.5H48.6z M53.2,10.3h-4.6V5.6h4.6V10.3z"/>
	<path class="st0" d="M78.4,37.9V26.1c0-4.5-1.8-6.8-5.5-6.8c-3.9,0-5.7,2.5-5.7,7.2v11.5h-4.5V15.4h4.5v2.4
		c1.5-1.7,3.4-2.8,6.5-2.8c5.4,0,9.3,3.1,9.3,10.2v12.7H78.4z"/>
	<path class="st0" d="M109.9,37.9v-2.7c-1.9,2.2-4.5,3.3-7.5,3.3c-6.7,0-11.9-5.2-11.9-11.7c0-6.7,5.3-11.8,11.9-11.8
		c3,0,5.6,1.1,7.5,3.3V2.8h4.5v35.1H109.9z M102.3,19.2c-4.2,0-7.4,3.3-7.4,7.5c0,4.2,3.2,7.5,7.4,7.5c4.3,0,7.4-3.4,7.4-7.5
		S106.6,19.2,102.3,19.2z"/>
	<path class="st0" d="M124.5,32c2.3,1.8,4.7,2.3,6.3,2.3c2.4,0,3.7-1,3.7-2.6c0-4.5-11.7-1.7-11.7-9.8c0-4.1,3-7.1,7.7-7.1
		c1.9,0,5.1,0.5,7.6,2.6l-2.4,3.4c-2-1.5-4-1.8-5.2-1.8c-2.3,0-3.3,1.1-3.3,2.4c0,4.3,11.7,1.9,11.7,10c0,4.3-3.3,7-8.3,7
		c-3.4,0-6.3-1.2-8.6-2.9L124.5,32z"/>
	<path class="st0" d="M162.6,37.9V26.1c0-4.5-1.8-6.8-5.5-6.8c-3.9,0-5.7,2.5-5.7,7.2v11.5h-4.5V2.8h4.5v15c1.5-1.7,3.4-2.8,6.5-2.8
		c5.4,0,9.3,3.1,9.3,10.2v12.7H162.6z"/>
	<path class="st0" d="M194.1,37.9v-2.7c-1.9,2.2-4.5,3.3-7.5,3.3c-6.7,0-11.9-5.2-11.9-11.7c0-6.7,5.3-11.8,11.9-11.8
		c3,0,5.6,1.1,7.5,3.3v-2.9h4.5v22.5H194.1z M186.6,19.2c-4.2,0-7.4,3.3-7.4,7.5c0,4.2,3.2,7.5,7.4,7.5c4.3,0,7.4-3.4,7.4-7.5
		S190.9,19.2,186.6,19.2z"/>
	<path class="st0" d="M208.1,37.9V15.4h4.5v2.7c2.2-2.6,4.4-3.1,8.8-3.1v4.4c-7.4,0-8.8,3-8.8,6.9v11.7H208.1z"/>
	<path class="st0" d="M230.6,28.2c0.6,3.5,3.5,6.1,7.3,6.1c2.5,0,4.9-1.1,6.3-3.1l3.2,2.5c-2.1,2.9-5.6,4.7-9.5,4.7
		c-6.5,0-11.8-5.1-11.8-11.7c0-6.3,4.8-11.8,11.5-11.8c6.7,0,11.5,5.4,11.5,11.7c0,0.6,0,1.1-0.1,1.6H230.6z M244.5,24.6
		c-0.5-3.1-3.3-5.5-6.8-5.5c-3.5,0-6.1,2.4-6.9,5.5H244.5z"/>
	<path class="st0" d="M282.5,38.1c-0.8,0.2-1.6,0.3-2.5,0.3c-3.7,0-6-2.2-6-6.3V2.8h4.5v27.9c0,2.4,0.6,3.5,2.8,3.5
		c0.3,0,0.7,0,1.1,0V38.1z"/>
	<path class="st0" d="M306.4,37.9v-2.7c-1.9,2.2-4.5,3.3-7.5,3.3c-6.7,0-11.9-5.2-11.9-11.7c0-6.7,5.3-11.8,11.9-11.8
		c3,0,5.6,1.1,7.5,3.3v-2.9h4.5v22.5H306.4z M298.8,19.2c-4.2,0-7.4,3.3-7.4,7.5c0,4.2,3.2,7.5,7.4,7.5c4.3,0,7.4-3.4,7.4-7.5
		S303.1,19.2,298.8,19.2z"/>
	<path class="st0" d="M320.4,37.9V2.8h4.5v15.4c1.9-2.2,4.5-3.3,7.5-3.3c6.6,0,11.9,5.1,11.9,11.8c0,6.6-5.2,11.7-11.9,11.7
		c-3,0-5.6-1-7.5-3.3v2.7H320.4z M332.4,34.2c4.3,0,7.4-3.3,7.4-7.5c0-4.2-3.2-7.5-7.4-7.5c-4.2,0-7.4,3.3-7.4,7.5
		C325.1,30.8,328.1,34.2,332.4,34.2z"/>
	<path class="st0" d="M352.6,32c2.3,1.8,4.7,2.3,6.3,2.3c2.4,0,3.7-1,3.7-2.6c0-4.5-11.7-1.7-11.7-9.8c0-4.1,3-7.1,7.7-7.1
		c1.9,0,5.1,0.5,7.6,2.6l-2.4,3.4c-2-1.5-4-1.8-5.2-1.8c-2.3,0-3.3,1.1-3.3,2.4c0,4.3,11.7,1.9,11.7,10c0,4.3-3.3,7-8.3,7
		c-3.4,0-6.3-1.2-8.6-2.9L352.6,32z"/>
	<rect x="375.1" y="32" class="st1" width="5.8" height="5.8"/>
</g>
</svg>
