<?xml version="1.0" standalone="no"?>
<!DOCTYPE svg PUBLIC "-//W3C//DTD SVG 20010904//EN"
 "http://www.w3.org/TR/2001/REC-SVG-20010904/DTD/svg10.dtd">
<svg version="1.0" xmlns="http://www.w3.org/2000/svg"
 width="2084.000000pt" height="2084.000000pt" viewBox="0 0 2084.000000 2084.000000"
 preserveAspectRatio="xMidYMid meet">
<metadata>
Created by potrace 1.11, written by Peter Selinger 2001-2013
</metadata>
<g transform="translate(0.000000,2084.000000) scale(0.100000,-0.100000)"
fill="#000000" stroke="none">
<path d="M0 17315 l0 -3525 1768 0 1767 0 0 1751 c0 1161 3 1753 10 1757 5 4
1236 7 2735 7 l2725 0 1 1768 2 1767 -4504 0 -4504 0 0 -3525z"/>
<path d="M6146 14823 c-3 -16 -9 -55 -13 -88 -4 -33 -8 -62 -8 -65 -1 -3 -5
-32 -9 -65 -4 -33 -11 -85 -16 -115 -5 -30 -11 -75 -14 -100 -7 -58 -36 -288
-41 -320 -2 -14 -6 -52 -10 -85 -3 -33 -8 -71 -10 -85 -2 -14 -9 -70 -15 -125
-6 -55 -13 -116 -15 -135 -7 -56 -13 -110 -21 -185 -3 -38 -8 -77 -9 -85 -2
-8 -6 -46 -10 -85 -3 -38 -8 -86 -10 -105 -3 -19 -7 -62 -10 -95 -4 -33 -8
-76 -10 -95 -2 -19 -6 -64 -10 -100 -3 -36 -8 -83 -10 -105 -2 -22 -7 -69 -10
-105 -4 -36 -8 -78 -10 -95 -1 -16 -6 -66 -10 -110 -3 -44 -8 -91 -10 -105 -2
-14 -6 -63 -10 -110 -4 -47 -8 -96 -10 -110 -2 -14 -6 -63 -10 -110 -3 -47 -8
-101 -10 -120 -2 -19 -6 -71 -10 -115 -4 -44 -8 -100 -11 -125 -2 -25 -6 -76
-9 -115 -3 -38 -7 -95 -10 -125 -5 -54 -10 -117 -20 -255 -6 -85 -14 -191 -20
-265 -3 -30 -7 -91 -10 -135 -3 -44 -8 -109 -10 -145 -7 -90 -14 -191 -20
-280 -3 -41 -7 -104 -10 -140 -3 -36 -7 -103 -10 -150 -3 -47 -7 -112 -9 -145
-3 -33 -7 -103 -11 -155 -3 -52 -7 -124 -10 -160 -3 -36 -7 -108 -11 -160 -6
-98 -9 -152 -19 -305 -17 -269 -26 -404 -40 -645 -3 -52 -8 -129 -10 -170 -3
-41 -7 -113 -10 -160 -8 -144 -16 -272 -20 -340 -3 -36 -7 -112 -10 -170 -3
-58 -7 -139 -10 -180 -12 -227 -15 -292 -20 -365 -3 -44 -7 -129 -10 -190 -3
-60 -8 -141 -10 -180 -2 -38 -7 -128 -10 -200 -3 -71 -7 -157 -10 -190 -2 -33
-7 -127 -11 -210 l-6 -150 971 0 971 0 1 35 c2 48 5 158 13 405 4 116 9 255
11 310 2 55 7 186 10 290 4 105 8 233 10 285 2 52 7 169 10 260 3 91 7 215 10
275 2 61 7 171 10 245 9 229 15 390 20 500 2 58 7 164 10 235 5 123 12 275 20
445 2 41 6 134 10 205 3 72 8 159 10 195 8 143 18 319 29 520 4 69 9 141 11
160 2 19 7 87 10 150 4 63 8 138 10 165 3 28 7 93 10 145 4 52 8 113 10 135 2
22 6 83 10 135 3 52 8 115 10 140 2 25 7 86 10 135 3 50 8 110 10 135 17 203
24 285 25 330 l1 35 17 -35 c10 -19 55 -123 101 -230 45 -107 91 -213 101
-235 10 -22 39 -89 65 -150 26 -60 55 -128 65 -150 10 -22 30 -69 45 -105 15
-36 38 -87 50 -115 12 -27 42 -95 65 -150 23 -55 51 -118 60 -140 30 -65 301
-701 545 -1275 201 -475 314 -740 362 -850 9 -19 21 -48 28 -65 7 -16 61 -140
119 -275 58 -135 174 -407 259 -605 l154 -360 702 -3 c470 -1 701 1 701 8 0 6
9 29 19 53 11 23 36 80 56 127 20 47 43 99 50 115 7 17 45 107 85 200 39 94
79 188 89 210 10 22 53 121 96 220 104 243 106 247 115 270 5 11 20 45 33 75
14 30 43 100 67 155 23 55 53 124 66 153 13 29 24 55 24 57 0 3 10 27 21 53
26 57 35 80 89 207 23 55 48 114 55 130 19 42 60 140 155 365 45 107 95 223
111 258 16 35 29 69 29 76 0 6 4 16 8 22 5 5 37 77 72 159 34 83 71 168 81
190 9 22 75 173 144 335 70 162 135 313 145 335 11 22 30 68 44 102 15 35 37
86 50 115 13 29 43 98 66 153 23 55 53 125 67 155 14 30 34 78 45 105 11 28
29 70 40 95 11 25 24 54 29 65 43 104 79 177 79 165 2 -29 12 -147 25 -310 10
-120 21 -261 30 -395 3 -49 8 -112 10 -140 3 -27 8 -95 11 -150 3 -55 7 -120
9 -145 2 -25 6 -92 9 -150 4 -58 9 -127 11 -155 3 -27 7 -95 10 -150 3 -55 8
-138 11 -185 6 -106 11 -192 19 -340 3 -63 8 -144 10 -180 3 -36 7 -121 10
-190 2 -69 7 -165 10 -215 5 -88 9 -175 20 -460 3 -77 7 -189 10 -250 3 -60 7
-175 10 -255 3 -80 8 -194 10 -255 3 -60 7 -180 10 -265 3 -85 8 -204 10 -265
3 -60 7 -182 10 -270 3 -88 7 -221 10 -295 10 -265 14 -398 21 -610 3 -118 8
-217 10 -219 7 -7 1920 -5 1932 3 6 3 9 21 7 39 -2 18 -7 93 -10 167 -6 131
-8 169 -20 405 -13 237 -23 441 -30 560 -2 33 -6 112 -10 175 -3 63 -8 147
-10 185 -13 198 -17 284 -30 535 -4 74 -8 151 -10 170 -2 19 -7 87 -10 150 -7
139 -12 216 -20 335 -4 50 -8 117 -10 150 -6 109 -17 279 -20 330 -2 28 -6
102 -10 165 -4 63 -8 131 -10 150 -2 19 -6 87 -10 150 -3 63 -8 135 -10 160
-4 52 -13 179 -21 295 -2 44 -7 105 -9 135 -3 30 -7 100 -11 155 -3 55 -7 116
-9 135 -2 19 -6 83 -10 142 -3 58 -7 115 -9 125 -2 10 -7 68 -11 128 -3 61 -8
126 -10 145 -1 19 -6 81 -10 137 -3 56 -8 114 -10 130 -2 15 -6 71 -10 123 -3
52 -8 106 -10 120 -2 14 -6 68 -10 120 -3 52 -8 106 -10 120 -2 14 -7 68 -10
120 -4 52 -8 101 -10 110 -1 8 -6 56 -10 105 -3 50 -8 106 -10 125 -2 19 -7
67 -10 105 -3 39 -8 84 -10 100 -2 17 -7 64 -10 105 -3 41 -8 89 -10 105 -2
17 -6 64 -10 105 -3 41 -8 86 -10 100 -2 14 -6 57 -10 95 -3 39 -7 86 -10 105
-2 19 -7 62 -10 95 -3 33 -8 71 -10 85 -2 14 -6 57 -9 95 -4 39 -9 88 -12 110
-4 22 -8 53 -9 70 -10 108 -17 181 -21 199 -2 12 -7 44 -9 71 -3 28 -8 61 -10
75 -2 14 -7 56 -10 95 -4 38 -8 72 -10 75 -2 3 -6 35 -9 72 -4 37 -9 76 -11
88 -2 12 -7 48 -10 79 -4 31 -10 81 -15 111 -5 30 -14 98 -21 150 -6 52 -12
102 -14 110 -4 25 -19 124 -19 135 -1 7 -313 11 -911 13 l-911 2 -27 -52 c-14
-29 -54 -105 -87 -168 -74 -138 -380 -747 -443 -880 -25 -52 -77 -162 -117
-245 -40 -82 -88 -184 -107 -225 -19 -41 -53 -113 -75 -160 -54 -114 -250
-542 -303 -660 -23 -52 -91 -203 -150 -335 -59 -132 -113 -253 -120 -270 -7
-16 -27 -61 -45 -100 -18 -38 -40 -90 -50 -115 -10 -25 -29 -70 -43 -100 -36
-80 -327 -761 -327 -767 0 -2 -12 -30 -26 -61 -15 -31 -30 -66 -35 -77 -5 -11
-63 -148 -129 -305 -263 -621 -314 -740 -319 -740 -4 0 -52 109 -108 243 -78
185 -291 687 -408 962 -4 11 -9 22 -10 25 -1 3 -10 23 -19 45 -10 22 -56 130
-103 240 -46 110 -90 214 -98 230 -7 17 -51 118 -98 225 -114 261 -354 804
-406 913 -22 49 -41 91 -41 92 0 2 -21 48 -46 102 -26 54 -66 141 -89 193 -24
52 -66 145 -95 205 -29 61 -62 133 -75 160 -21 47 -76 163 -167 355 -112 236
-425 861 -526 1053 l-116 217 -952 0 -952 0 -6 -27z"/>
<path d="M17300 5298 l0 -1758 -2738 0 -2737 0 1 -1757 c1 -967 2 -1763 3
-1768 1 -11 8993 -15 9001 -4 3 4 5 1590 5 3526 l0 3518 -1767 1 -1768 1 0
-1759z"/>
</g>
</svg>
