<?xml version="1.0" standalone="no"?>
<!DOCTYPE svg PUBLIC "-//W3C//DTD SVG 20010904//EN"
 "http://www.w3.org/TR/2001/REC-SVG-20010904/DTD/svg10.dtd">
<svg version="1.0" xmlns="http://www.w3.org/2000/svg"
 width="2084.000000pt" height="2084.000000pt" viewBox="0 0 2084.000000 2084.000000"
 preserveAspectRatio="xMidYMid meet">
<metadata>
Created by potrace 1.11, written by Peter Selinger 2001-2013
</metadata>
<g transform="translate(0.000000,2084.000000) scale(0.100000,-0.100000)"
fill="#000000" stroke="none">
<path d="M0 17315 l0 -3525 1765 0 1765 0 2 1758 3 1757 2738 3 2737 2 0 1765
0 1765 -4505 0 -4505 0 0 -3525z"/>
<path d="M6146 14818 c-13 -76 -88 -648 -125 -963 -162 -1374 -294 -3000 -436
-5365 -54 -904 -135 -2384 -135 -2467 l0 -23 970 0 c917 0 970 1 970 18 0 39
31 954 50 1462 55 1502 93 2286 155 3205 28 406 84 1155 88 1169 3 10 368
-831 805 -1854 151 -355 490 -1147 753 -1760 l477 -1115 699 -2 698 -2 492
1152 c1096 2564 1536 3588 1541 3583 4 -5 46 -537 77 -976 54 -774 96 -1575
135 -2530 36 -911 80 -2149 80 -2277 l0 -73 970 0 970 0 0 58 c0 104 -81 1596
-135 2492 -136 2236 -256 3742 -401 5025 -53 470 -143 1182 -159 1253 l-5 22
-908 -2 -907 -3 -73 -135 c-103 -192 -455 -896 -607 -1215 -475 -999 -820
-1781 -1670 -3792 -27 -62 -51 -113 -54 -113 -3 0 -98 217 -210 483 -780 1843
-1153 2679 -1673 3752 -146 300 -407 814 -500 982 l-23 43 -951 0 -952 0 -6
-32z"/>
<path d="M17300 5300 l0 -1760 -2735 0 -2735 0 0 -1765 0 -1765 4500 0 4500 0
0 3525 0 3525 -1765 0 -1765 0 0 -1760z"/>
</g>
</svg>
