<?xml version="1.0" encoding="utf-8"?>
<!-- Generator: Adobe Illustrator 26.3.1, SVG Export Plug-In . SVG Version: 6.00 Build 0)  -->
<svg version="1.1" id="banner" xmlns="http://www.w3.org/2000/svg" xmlns:xlink="http://www.w3.org/1999/xlink" x="0px" y="0px"
	 viewBox="0 0 288 76.4" style="enable-background:new 0 0 288 76.4;" xml:space="preserve">
<style type="text/css">
	.st0{fill-rule:evenodd;clip-rule:evenodd;fill:#A8A9AC;stroke:#000000;stroke-width:0.1;stroke-miterlimit:10;}
	.st1{fill-rule:evenodd;clip-rule:evenodd;fill:none;stroke:#000000;stroke-width:0.1;stroke-miterlimit:10;}
	.st2{fill-rule:evenodd;clip-rule:evenodd;fill:#A8A9AC;}
</style>
<g>
	<path class="st0" d="M151.7,56.9c-0.2-0.3-0.2-0.5-0.2-0.8c0-0.3,0-1.1,0-1.5c0-0.3,0-0.4,0.4-0.6c0.4-0.2,0.4-0.3,0.4-0.4
		c0-0.2,0-0.4-0.3-0.4c-0.3,0-1.6,0-1.6,0s-1.3,0-1.6,0c-0.3,0-0.3,0.2-0.3,0.4c0,0.2,0,0.3,0.4,0.4c0.4,0.2,0.4,0.3,0.4,0.6
		c0,0.3,0,1.2,0,1.5c0,0.3,0,0.5-0.2,0.8c-0.2,0.3-4.9,6.7-5.5,7.4c-0.5,0.7-0.7,1.6-0.3,2.1s0.8,0.8,1.3,0.8c0.5,0,5.8,0,5.8,0
		s5.4,0,5.8,0s0.9-0.3,1.3-0.8c0.3-0.5,0.2-1.4-0.3-2.1S151.9,57.3,151.7,56.9z"/>
	<circle class="st0" cx="149.2" cy="51.4" r="0.6"/>
	<circle class="st0" cx="150.9" cy="52.3" r="0.4"/>
	<circle class="st0" cx="151" cy="50.2" r="0.9"/>
</g>
<g>
	<path class="st1" d="M155.9,65.6c-0.5-0.7-5.3-7.1-5.5-7.4c-0.2-0.3-0.2-0.5-0.2-0.8c0-0.3,0-1.1,0-1.5c0-0.3,0-0.4,0.4-0.6
		c0.4-0.2,0.4-0.3,0.4-0.4c0-0.2,0-0.4-0.3-0.4c-0.3,0-1.6,0-1.6,0s-1.3,0-1.6,0s-0.3,0.2-0.3,0.4c0,0.2,0,0.3,0.4,0.4
		c0.4,0.2,0.4,0.3,0.4,0.6c0,0.3,0,1.2,0,1.5c0,0.3,0,0.5-0.2,0.8c-0.2,0.3-4.9,6.7-5.5,7.4c-0.5,0.7-0.7,1.6-0.3,2.1
		c0.3,0.5,0.8,0.8,1.3,0.8c0.5,0,5.8,0,5.8,0s5.4,0,5.8,0c0.5,0,0.9-0.3,1.3-0.8S156.4,66.3,155.9,65.6z"/>
	<circle class="st1" cx="148" cy="52.6" r="0.6"/>
	<circle class="st1" cx="149.6" cy="53.6" r="0.4"/>
	<circle class="st1" cx="149.7" cy="51.4" r="0.9"/>
</g>
<path class="st2" d="M58.9,56.6c-0.8-0.8-7.8-2.5-9-1c-0.5,0.6-4.7,4.4-6.6,5c-1.8,0.6-8.6,1-9.6,2.2c-1,1.2-0.2,2.1,1.2,3.3
	c1.4,1.2,10.9,1.4,12.1,1c1.2-0.4,3.3-1,5.5-1c2.3,0,0.6,1.2,2.3,1.2s4.9,0.4,5.1-1.2C60.1,64.4,59.7,57.4,58.9,56.6z M54.6,59.9
	c-0.7,0-1.2-0.5-1.2-1.2c0-0.7,0.5-1.2,1.2-1.2c0.7,0,1.2,0.5,1.2,1.2C55.8,59.4,55.3,59.9,54.6,59.9z"/>
<path class="st1" d="M57.7,57.9c-0.8-0.8-7.8-2.5-9-1c-0.5,0.6-4.7,4.4-6.6,5c-1.8,0.6-8.6,1-9.6,2.2c-1,1.2-0.2,2.1,1.2,3.3
	c1.4,1.2,10.9,1.4,12.1,1c1.2-0.4,3.3-1,5.5-1c2.3,0,0.6,1.2,2.3,1.2s4.9,0.4,5.1-1.2C58.9,65.6,58.5,58.7,57.7,57.9z M53.4,61.2
	c-0.7,0-1.2-0.5-1.2-1.2s0.5-1.2,1.2-1.2s1.2,0.5,1.2,1.2S54,61.2,53.4,61.2z"/>
<g>
	<path class="st2" d="M203.4,54.6c0.1-0.1-0.2-0.4-0.3-0.5c-0.1-0.1-0.7-0.6-0.8-0.7c-0.1-0.1-0.3-0.2-0.4,0
		c-0.1,0.2-0.3,0.4-0.2,0.6c0,0.2,0.2,0.3,0.2,0.3s0.1-0.1,0.1-0.2c0-0.1,0.1-0.1,0.2,0c0.1,0.1,0.2,0.4,0.1,0.5
		c-0.1,0.1-0.5,0.2-0.5,0.1c-0.1-0.1-0.3-0.6-0.3-0.7c0.1-0.1,0.3-0.8,0.3-0.9c0-0.1,0.1-0.7,0.2-1c0.2-0.2,0.8-1.2,0.7-1.5
		c-0.1-0.3-0.1-1.1,0.1-1.3c0.1-0.2,0.8-1.2,0.9-1.2c0.1-0.1,0.6-0.6,0.7-0.7s0.7-0.8,0.7-0.9c0.1-0.1,0.4-0.4,0.6-0.6
		c0-0.1,0-0.4,0-0.5c0,0-0.3,0-0.4-0.1c-0.2-0.1-1.2-0.9-1.5-1.2c-0.3-0.3-1-1.1-1.1-1.3c-0.1-0.2-0.5-0.1-0.5-0.1
		c-0.2,0.2-1.5,1.7-1.6,1.8c-0.1,0.1-0.6,1-0.6,1.2c0,0.2-0.5,1.9-0.6,2.2c-0.1,0.3,0,1-0.3,1.3c-0.3,0.3-1,1.3-1.3,1.6
		c-0.3,0.3-0.5,0.5-0.6,0.7c-0.1,0.2-0.3,0.5-0.2,0.8c0.1,0.3,0.5,0.5,0.5,0.5c0.2,0.1,1.2,0.8,1.5,1.1c0.3,0.2,1.2,1.1,1.4,1.3
		c0.3,0.2,0.6,0.6,1,0.5s0.8-0.2,0.9-0.1c0.1,0,0.6-0.2,0.7-0.4C203.3,55,203.3,54.7,203.4,54.6z"/>
	<path class="st2" d="M204.1,43.9c0.2,0.2,1.2,1,1.3,1.1c0.1,0.1,0.4,0.1,0.4,0.1c0,0,0.1,0.1,0.1,0.1c-0.1-0.6-0.3-1.3-0.3-1.4
		c0-0.1-0.2-0.2-0.3-0.3c0,0,0,0,0,0c0,0,0,0,0,0c0.1,0,0.3,0.1,0.3,0.1c0,0,0.3-0.5,0.4-0.5c0,0,0-0.2-0.1-0.2c0,0,0.5,0.4,0.6,0.4
		c0.1,0.1,0.3-0.1,0.4-0.2c0.1-0.1,0.1-0.3,0-0.4c-0.1-0.2-1.7-1.4-2-1.5c-0.3-0.1-0.3,0-0.4,0.1c0,0.1-0.1,0.1-0.1,0.2
		s0,0.2,0.1,0.3c0.1,0.1,0.5,0.3,0.6,0.4c-0.1-0.1-0.3-0.2-0.4-0.2c-0.1,0-0.1,0-0.3,0.2c-0.2,0.2-0.2,0.2-0.2,0.3
		c0,0.1,0.1,0.2,0.1,0.2s0-0.1-0.1-0.1c-0.1,0-0.2,0-0.3,0c-0.1,0-0.5,0-0.8,0c0,0,0.1,0.1,0.1,0.1
		C203.1,42.8,203.9,43.7,204.1,43.9z"/>
</g>
<g>
	<path class="st1" d="M204.2,46.4c-0.2,0.3-0.5,0.6-0.6,0.6c-0.1,0.1-0.7,0.8-0.7,0.9s-0.6,0.6-0.7,0.7c-0.1,0.1-0.8,1-0.9,1.2
		c-0.1,0.2-0.1,0.9-0.1,1.3c0.1,0.3-0.5,1.3-0.7,1.5c-0.2,0.2-0.2,0.8-0.2,1c0,0.1-0.3,0.8-0.3,0.9c-0.1,0.1,0.2,0.6,0.3,0.7
		c0.1,0.1,0.4-0.1,0.5-0.1s0-0.4-0.1-0.5c-0.1-0.1-0.2-0.1-0.2,0c0,0.1-0.1,0.2-0.1,0.2s-0.1,0-0.2-0.3c0-0.2,0.1-0.4,0.2-0.6
		c0.1-0.2,0.2-0.1,0.4,0c0.1,0.1,0.7,0.6,0.8,0.7c0.1,0.1,0.3,0.4,0.3,0.5c-0.1,0.1-0.1,0.4-0.1,0.6c-0.1,0.2-0.5,0.4-0.7,0.4
		s-0.5,0-0.9,0.1c-0.3,0.1-0.7-0.3-1-0.5c-0.3-0.2-1.2-1.1-1.4-1.3c-0.3-0.2-1.3-1-1.5-1.1c0,0-0.4-0.3-0.5-0.5
		c-0.1-0.3,0.1-0.6,0.2-0.8s0.2-0.4,0.6-0.7c0.3-0.3,1-1.4,1.3-1.6s0.2-0.9,0.3-1.3c0.1-0.3,0.6-2,0.6-2.2c0-0.2,0.5-1,0.6-1.2
		c0.1-0.1,1.4-1.7,1.6-1.8c0,0,0.4-0.2,0.5,0.1c0.1,0.2,0.8,1,1.1,1.3s1.3,1.1,1.5,1.2c0.2,0.1,0.4,0.1,0.4,0.1
		C204.3,46,204.3,46.4,204.2,46.4z"/>
	<g>
		<path class="st1" d="M203.7,44.1c-0.1,0-0.6-0.4-0.8-0.5c-0.2-0.1-0.2-0.2-0.3-0.3c0,0,0-0.1-0.1-0.1c-0.1,0-0.2,0-0.3,0
			c-0.1,0-0.5,0-0.8,0c0,0,0.1,0.1,0.1,0.1c0,0.1,0.8,1,1,1.2c0.2,0.2,1.2,1,1.3,1.1c0.1,0.1,0.4,0.1,0.4,0.1c0,0,0.1,0.1,0.1,0.1
			c-0.1-0.6-0.3-1.3-0.3-1.4C203.9,44.3,203.8,44.2,203.7,44.1z"/>
		<path class="st1" d="M202.8,41.8c0,0.1-0.1,0.1-0.1,0.2c0,0.1,0,0.2,0.1,0.3c0.1,0.1,0.5,0.3,0.6,0.4c0.1,0.1,0.8,0.6,0.8,0.7
			c0,0,0.5,0.4,0.6,0.4c0.1,0.1,0.3-0.1,0.4-0.2s0.1-0.3,0-0.4c-0.1-0.2-1.7-1.4-2-1.5C202.9,41.6,202.9,41.8,202.8,41.8z"/>
	</g>
	<path class="st1" d="M202.5,43.3c0.1,0.1,0.2,0.2,0.3,0.3c0.2,0.1,0.7,0.5,0.8,0.5c0.1,0,0.3,0.1,0.3,0.1c0,0,0.3-0.5,0.4-0.5
		c0,0,0-0.2-0.1-0.2s-0.7-0.6-0.8-0.7c-0.1-0.1-0.3-0.2-0.4-0.2c-0.1,0-0.1,0-0.3,0.2c-0.2,0.2-0.2,0.2-0.2,0.3
		C202.5,43.2,202.5,43.3,202.5,43.3z"/>
</g>
<g>
	<path class="st2" d="M252.6,24.4h-28.5c-0.8,0-1.5,0.7-1.5,1.5v16.9c0,0.8,0.7,1.5,1.5,1.5h10.6c0,0-0.4,2.4-0.7,3.5
		c-0.3,1.1,0.2,1.4,0.7,1.4c0.4,0,6.9,0,7.3,0c0.5,0,1-0.2,0.7-1.4c-0.3-1.1-0.7-3.5-0.7-3.5h10.6c0.8,0,1.5-0.7,1.5-1.5V25.9
		C254.1,25.1,253.4,24.4,252.6,24.4z"/>
	<path class="st2" d="M246.9,52.6h-17.1c-0.1,0-0.1,0.1-0.1,0.1v7.1c0,0.1,0.1,0.1,0.1,0.1h17.1c0.1,0,0.1-0.1,0.1-0.1v-7.1
		C247,52.7,247,52.6,246.9,52.6z"/>
</g>
<g>
	<path class="st1" d="M251.2,45.6h-28.6c-0.8,0-1.5-0.6-1.5-1.5V27.2c0-0.8,0.6-1.5,1.5-1.5h28.6c0.8,0,1.5,0.6,1.5,1.5v16.9
		C252.7,45,252,45.6,251.2,45.6z"/>
	<rect x="222.8" y="27.4" class="st1" width="28.3" height="16.6"/>
	<path class="st1" d="M241.3,49.1c-0.3-1.1-0.7-3.5-0.7-3.5H237h-0.2h-3.5c0,0-0.4,2.4-0.7,3.5c-0.3,1.1,0.2,1.4,0.7,1.4
		c0.4,0,6.9,0,7.3,0C241.1,50.5,241.6,50.2,241.3,49.1z"/>
	<g>
		<path class="st1" d="M245.5,61.5h-17.1c-0.1,0-0.1-0.1-0.1-0.1v-7.1c0-0.1,0.1-0.1,0.1-0.1h17.1c0.1,0,0.1,0.1,0.1,0.1v7.1
			C245.6,61.4,245.6,61.5,245.5,61.5z"/>
		<path class="st1" d="M240.7,61h-7.1c-0.1,0-0.1-0.1-0.1-0.1v-0.7c0-0.1,0.1-0.1,0.1-0.1h7.1c0.1,0,0.1,0.1,0.1,0.1v0.7
			C240.8,60.9,240.7,61,240.7,61z"/>
		<path class="st1" d="M233.1,61H232c-0.1,0-0.1-0.1-0.1-0.1v-0.7c0-0.1,0.1-0.1,0.1-0.1h1.1c0.1,0,0.1,0.1,0.1,0.1v0.7
			C233.2,60.9,233.2,61,233.1,61z"/>
		<path class="st1" d="M230.3,61h-1.5c-0.1,0-0.1-0.1-0.1-0.1v-0.7c0-0.1,0.1-0.1,0.1-0.1h1.5c0.1,0,0.1,0.1,0.1,0.1v0.7
			C230.5,60.9,230.4,61,230.3,61z"/>
		<path class="st1" d="M231,59.8h-2.2c-0.1,0-0.1-0.1-0.1-0.1v-0.7c0-0.1,0.1-0.1,0.1-0.1h2.2c0.1,0,0.1,0.1,0.1,0.1v0.7
			C231.2,59.7,231.1,59.8,231,59.8z"/>
		<path class="st1" d="M245.1,59.8h-1.8c-0.1,0-0.1-0.1-0.1-0.1v-0.7c0-0.1,0.1-0.1,0.1-0.1h1.8c0.1,0,0.1,0.1,0.1,0.1v0.7
			C245.2,59.7,245.1,59.8,245.1,59.8z"/>
		<path class="st1" d="M231.5,61h-0.7c-0.1,0-0.1-0.1-0.1-0.1v-0.7c0-0.1,0.1-0.1,0.1-0.1h0.7c0.1,0,0.1,0.1,0.1,0.1v0.7
			C231.6,60.9,231.6,61,231.5,61z"/>
		<path class="st1" d="M232.2,59.8h-0.7c-0.1,0-0.1-0.1-0.1-0.1v-0.7c0-0.1,0.1-0.1,0.1-0.1h0.7c0.1,0,0.1,0.1,0.1,0.1v0.7
			C232.3,59.7,232.3,59.8,232.2,59.8z"/>
		<path class="st1" d="M233.4,59.8h-0.7c-0.1,0-0.1-0.1-0.1-0.1v-0.7c0-0.1,0.1-0.1,0.1-0.1h0.7c0.1,0,0.1,0.1,0.1,0.1v0.7
			C233.5,59.7,233.4,59.8,233.4,59.8z"/>
		<path class="st1" d="M234.5,59.8h-0.7c-0.1,0-0.1-0.1-0.1-0.1v-0.7c0-0.1,0.1-0.1,0.1-0.1h0.7c0.1,0,0.1,0.1,0.1,0.1v0.7
			C234.7,59.7,234.6,59.8,234.5,59.8z"/>
		<path class="st1" d="M235.7,59.8H235c-0.1,0-0.1-0.1-0.1-0.1v-0.7c0-0.1,0.1-0.1,0.1-0.1h0.7c0.1,0,0.1,0.1,0.1,0.1v0.7
			C235.8,59.7,235.8,59.8,235.7,59.8z"/>
		<path class="st1" d="M236.8,59.8h-0.7c-0.1,0-0.1-0.1-0.1-0.1v-0.7c0-0.1,0.1-0.1,0.1-0.1h0.7c0.1,0,0.1,0.1,0.1,0.1v0.7
			C237,59.7,236.9,59.8,236.8,59.8z"/>
		<path class="st1" d="M238,59.8h-0.7c-0.1,0-0.1-0.1-0.1-0.1v-0.7c0-0.1,0.1-0.1,0.1-0.1h0.7c0.1,0,0.1,0.1,0.1,0.1v0.7
			C238.2,59.7,238.1,59.8,238,59.8z"/>
		<path class="st1" d="M239.2,59.8h-0.7c-0.1,0-0.1-0.1-0.1-0.1v-0.7c0-0.1,0.1-0.1,0.1-0.1h0.7c0.1,0,0.1,0.1,0.1,0.1v0.7
			C239.3,59.7,239.3,59.8,239.2,59.8z"/>
		<path class="st1" d="M240.4,59.8h-0.7c-0.1,0-0.1-0.1-0.1-0.1v-0.7c0-0.1,0.1-0.1,0.1-0.1h0.7c0.1,0,0.1,0.1,0.1,0.1v0.7
			C240.5,59.7,240.4,59.8,240.4,59.8z"/>
		<path class="st1" d="M241.5,59.8h-0.7c-0.1,0-0.1-0.1-0.1-0.1v-0.7c0-0.1,0.1-0.1,0.1-0.1h0.7c0.1,0,0.1,0.1,0.1,0.1v0.7
			C241.7,59.7,241.6,59.8,241.5,59.8z"/>
		<path class="st1" d="M242.7,59.8H242c-0.1,0-0.1-0.1-0.1-0.1v-0.7c0-0.1,0.1-0.1,0.1-0.1h0.7c0.1,0,0.1,0.1,0.1,0.1v0.7
			C242.8,59.7,242.8,59.8,242.7,59.8z"/>
		<path class="st1" d="M231.6,58.6h-0.7c-0.1,0-0.1-0.1-0.1-0.1v-0.7c0-0.1,0.1-0.1,0.1-0.1h0.7c0.1,0,0.1,0.1,0.1,0.1v0.7
			C231.7,58.5,231.6,58.6,231.6,58.6z"/>
		<path class="st1" d="M230.4,58.6h-1.6c-0.1,0-0.1-0.1-0.1-0.1v-0.7c0-0.1,0.1-0.1,0.1-0.1h1.6c0.1,0,0.1,0.1,0.1,0.1v0.7
			C230.5,58.5,230.5,58.6,230.4,58.6z"/>
		<path class="st1" d="M232.7,58.6h-0.7c-0.1,0-0.1-0.1-0.1-0.1v-0.7c0-0.1,0.1-0.1,0.1-0.1h0.7c0.1,0,0.1,0.1,0.1,0.1v0.7
			C232.9,58.5,232.8,58.6,232.7,58.6z"/>
		<path class="st1" d="M233.9,58.6h-0.7c-0.1,0-0.1-0.1-0.1-0.1v-0.7c0-0.1,0.1-0.1,0.1-0.1h0.7c0.1,0,0.1,0.1,0.1,0.1v0.7
			C234,58.5,234,58.6,233.9,58.6z"/>
		<path class="st1" d="M235,58.6h-0.7c-0.1,0-0.1-0.1-0.1-0.1v-0.7c0-0.1,0.1-0.1,0.1-0.1h0.7c0.1,0,0.1,0.1,0.1,0.1v0.7
			C235.2,58.5,235.1,58.6,235,58.6z"/>
		<path class="st1" d="M236.2,58.6h-0.7c-0.1,0-0.1-0.1-0.1-0.1v-0.7c0-0.1,0.1-0.1,0.1-0.1h0.7c0.1,0,0.1,0.1,0.1,0.1v0.7
			C236.4,58.5,236.3,58.6,236.2,58.6z"/>
		<path class="st1" d="M237.4,58.6h-0.7c-0.1,0-0.1-0.1-0.1-0.1v-0.7c0-0.1,0.1-0.1,0.1-0.1h0.7c0.1,0,0.1,0.1,0.1,0.1v0.7
			C237.5,58.5,237.5,58.6,237.4,58.6z"/>
		<path class="st1" d="M238.6,58.6h-0.7c-0.1,0-0.1-0.1-0.1-0.1v-0.7c0-0.1,0.1-0.1,0.1-0.1h0.7c0.1,0,0.1,0.1,0.1,0.1v0.7
			C238.7,58.5,238.6,58.6,238.6,58.6z"/>
		<path class="st1" d="M239.7,58.6h-0.7c-0.1,0-0.1-0.1-0.1-0.1v-0.7c0-0.1,0.1-0.1,0.1-0.1h0.7c0.1,0,0.1,0.1,0.1,0.1v0.7
			C239.9,58.5,239.8,58.6,239.7,58.6z"/>
		<path class="st1" d="M240.9,58.6h-0.7c-0.1,0-0.1-0.1-0.1-0.1v-0.7c0-0.1,0.1-0.1,0.1-0.1h0.7c0.1,0,0.1,0.1,0.1,0.1v0.7
			C241.1,58.5,241,58.6,240.9,58.6z"/>
		<path class="st1" d="M242.1,58.6h-0.7c-0.1,0-0.1-0.1-0.1-0.1v-0.7c0-0.1,0.1-0.1,0.1-0.1h0.7c0.1,0,0.1,0.1,0.1,0.1v0.7
			C242.2,58.5,242.2,58.6,242.1,58.6z"/>
		<path class="st1" d="M243.3,58.6h-0.7c-0.1,0-0.1-0.1-0.1-0.1v-0.7c0-0.1,0.1-0.1,0.1-0.1h0.7c0.1,0,0.1,0.1,0.1,0.1v0.7
			C243.4,58.5,243.3,58.6,243.3,58.6z"/>
		<path class="st1" d="M230.9,57.4h-0.7c-0.1,0-0.1-0.1-0.1-0.1v-0.7c0-0.1,0.1-0.1,0.1-0.1h0.7c0.1,0,0.1,0.1,0.1,0.1v0.7
			C231.1,57.3,231,57.4,230.9,57.4z"/>
		<path class="st1" d="M229.8,57.4h-1c-0.1,0-0.1-0.1-0.1-0.1v-0.7c0-0.1,0.1-0.1,0.1-0.1h1c0.1,0,0.1,0.1,0.1,0.1v0.7
			C229.9,57.3,229.8,57.4,229.8,57.4z"/>
		<path class="st1" d="M232.1,57.4h-0.7c-0.1,0-0.1-0.1-0.1-0.1v-0.7c0-0.1,0.1-0.1,0.1-0.1h0.7c0.1,0,0.1,0.1,0.1,0.1v0.7
			C232.2,57.3,232.2,57.4,232.1,57.4z"/>
		<path class="st1" d="M233.3,57.4h-0.7c-0.1,0-0.1-0.1-0.1-0.1v-0.7c0-0.1,0.1-0.1,0.1-0.1h0.7c0.1,0,0.1,0.1,0.1,0.1v0.7
			C233.4,57.3,233.4,57.4,233.3,57.4z"/>
		<path class="st1" d="M234.4,57.4h-0.7c-0.1,0-0.1-0.1-0.1-0.1v-0.7c0-0.1,0.1-0.1,0.1-0.1h0.7c0.1,0,0.1,0.1,0.1,0.1v0.7
			C234.6,57.3,234.5,57.4,234.4,57.4z"/>
		<path class="st1" d="M235.6,57.4h-0.7c-0.1,0-0.1-0.1-0.1-0.1v-0.7c0-0.1,0.1-0.1,0.1-0.1h0.7c0.1,0,0.1,0.1,0.1,0.1v0.7
			C235.8,57.3,235.7,57.4,235.6,57.4z"/>
		<path class="st1" d="M236.8,57.4h-0.7c-0.1,0-0.1-0.1-0.1-0.1v-0.7c0-0.1,0.1-0.1,0.1-0.1h0.7c0.1,0,0.1,0.1,0.1,0.1v0.7
			C236.9,57.3,236.9,57.4,236.8,57.4z"/>
		<path class="st1" d="M238,57.4h-0.7c-0.1,0-0.1-0.1-0.1-0.1v-0.7c0-0.1,0.1-0.1,0.1-0.1h0.7c0.1,0,0.1,0.1,0.1,0.1v0.7
			C238.1,57.3,238,57.4,238,57.4z"/>
		<path class="st1" d="M239.1,57.4h-0.7c-0.1,0-0.1-0.1-0.1-0.1v-0.7c0-0.1,0.1-0.1,0.1-0.1h0.7c0.1,0,0.1,0.1,0.1,0.1v0.7
			C239.3,57.3,239.2,57.4,239.1,57.4z"/>
		<path class="st1" d="M240.3,57.4h-0.7c-0.1,0-0.1-0.1-0.1-0.1v-0.7c0-0.1,0.1-0.1,0.1-0.1h0.7c0.1,0,0.1,0.1,0.1,0.1v0.7
			C240.4,57.3,240.4,57.4,240.3,57.4z"/>
		<path class="st1" d="M241.5,57.4h-0.7c-0.1,0-0.1-0.1-0.1-0.1v-0.7c0-0.1,0.1-0.1,0.1-0.1h0.7c0.1,0,0.1,0.1,0.1,0.1v0.7
			C241.6,57.3,241.6,57.4,241.5,57.4z"/>
		<path class="st1" d="M242.6,57.4H242c-0.1,0-0.1-0.1-0.1-0.1v-0.7c0-0.1,0.1-0.1,0.1-0.1h0.7c0.1,0,0.1,0.1,0.1,0.1v0.7
			C242.8,57.3,242.7,57.4,242.6,57.4z"/>
		<path class="st1" d="M243.8,57.4h-0.7c-0.1,0-0.1-0.1-0.1-0.1v-0.7c0-0.1,0.1-0.1,0.1-0.1h0.7c0.1,0,0.1,0.1,0.1,0.1v0.7
			C244,57.3,243.9,57.4,243.8,57.4z"/>
		<path class="st1" d="M245,57.4h-0.7c-0.1,0-0.1-0.1-0.1-0.1v-0.7c0-0.1,0.1-0.1,0.1-0.1h0.7c0.1,0,0.1,0.1,0.1,0.1v0.7
			C245.1,57.3,245.1,57.4,245,57.4z"/>
		<path class="st1" d="M229.5,56.2h-0.7c-0.1,0-0.1-0.1-0.1-0.1v-0.7c0-0.1,0.1-0.1,0.1-0.1h0.7c0.1,0,0.1,0.1,0.1,0.1v0.7
			C229.6,56.1,229.6,56.2,229.5,56.2z"/>
		<path class="st1" d="M230.6,56.2H230c-0.1,0-0.1-0.1-0.1-0.1v-0.7c0-0.1,0.1-0.1,0.1-0.1h0.7c0.1,0,0.1,0.1,0.1,0.1v0.7
			C230.8,56.1,230.7,56.2,230.6,56.2z"/>
		<path class="st1" d="M231.8,56.2h-0.7c-0.1,0-0.1-0.1-0.1-0.1v-0.7c0-0.1,0.1-0.1,0.1-0.1h0.7c0.1,0,0.1,0.1,0.1,0.1v0.7
			C232,56.1,231.9,56.2,231.8,56.2z"/>
		<path class="st1" d="M233,56.2h-0.7c-0.1,0-0.1-0.1-0.1-0.1v-0.7c0-0.1,0.1-0.1,0.1-0.1h0.7c0.1,0,0.1,0.1,0.1,0.1v0.7
			C233.1,56.1,233.1,56.2,233,56.2z"/>
		<path class="st1" d="M234.2,56.2h-0.7c-0.1,0-0.1-0.1-0.1-0.1v-0.7c0-0.1,0.1-0.1,0.1-0.1h0.7c0.1,0,0.1,0.1,0.1,0.1v0.7
			C234.3,56.1,234.2,56.2,234.2,56.2z"/>
		<path class="st1" d="M235.3,56.2h-0.7c-0.1,0-0.1-0.1-0.1-0.1v-0.7c0-0.1,0.1-0.1,0.1-0.1h0.7c0.1,0,0.1,0.1,0.1,0.1v0.7
			C235.5,56.1,235.4,56.2,235.3,56.2z"/>
		<path class="st1" d="M236.5,56.2h-0.7c-0.1,0-0.1-0.1-0.1-0.1v-0.7c0-0.1,0.1-0.1,0.1-0.1h0.7c0.1,0,0.1,0.1,0.1,0.1v0.7
			C236.6,56.1,236.6,56.2,236.5,56.2z"/>
		<path class="st1" d="M237.7,56.2H237c-0.1,0-0.1-0.1-0.1-0.1v-0.7c0-0.1,0.1-0.1,0.1-0.1h0.7c0.1,0,0.1,0.1,0.1,0.1v0.7
			C237.8,56.1,237.8,56.2,237.7,56.2z"/>
		<path class="st1" d="M238.8,56.2h-0.7c-0.1,0-0.1-0.1-0.1-0.1v-0.7c0-0.1,0.1-0.1,0.1-0.1h0.7c0.1,0,0.1,0.1,0.1,0.1v0.7
			C239,56.1,238.9,56.2,238.8,56.2z"/>
		<path class="st1" d="M240,56.2h-0.7c-0.1,0-0.1-0.1-0.1-0.1v-0.7c0-0.1,0.1-0.1,0.1-0.1h0.7c0.1,0,0.1,0.1,0.1,0.1v0.7
			C240.2,56.1,240.1,56.2,240,56.2z"/>
		<path class="st1" d="M241.2,56.2h-0.7c-0.1,0-0.1-0.1-0.1-0.1v-0.7c0-0.1,0.1-0.1,0.1-0.1h0.7c0.1,0,0.1,0.1,0.1,0.1v0.7
			C241.3,56.1,241.3,56.2,241.2,56.2z"/>
		<path class="st1" d="M242.4,56.2h-0.7c-0.1,0-0.1-0.1-0.1-0.1v-0.7c0-0.1,0.1-0.1,0.1-0.1h0.7c0.1,0,0.1,0.1,0.1,0.1v0.7
			C242.5,56.1,242.4,56.2,242.4,56.2z"/>
		<path class="st1" d="M243.5,56.2h-0.7c-0.1,0-0.1-0.1-0.1-0.1v-0.7c0-0.1,0.1-0.1,0.1-0.1h0.7c0.1,0,0.1,0.1,0.1,0.1v0.7
			C243.7,56.1,243.6,56.2,243.5,56.2z"/>
		<path class="st1" d="M229.5,55h-0.7c-0.1,0-0.1-0.1-0.1-0.1v-0.2c0-0.1,0.1-0.1,0.1-0.1h0.7c0.1,0,0.1,0.1,0.1,0.1v0.2
			C229.7,55,229.6,55,229.5,55z"/>
		<path class="st1" d="M230.7,55H230c-0.1,0-0.1-0.1-0.1-0.1v-0.2c0-0.1,0.1-0.1,0.1-0.1h0.7c0.1,0,0.1,0.1,0.1,0.1v0.2
			C230.8,55,230.8,55,230.7,55z"/>
		<path class="st1" d="M231.9,55h-0.7c-0.1,0-0.1-0.1-0.1-0.1v-0.2c0-0.1,0.1-0.1,0.1-0.1h0.7c0.1,0,0.1,0.1,0.1,0.1v0.2
			C232,55,232,55,231.9,55z"/>
		<path class="st1" d="M233.1,55h-0.7c-0.1,0-0.1-0.1-0.1-0.1v-0.2c0-0.1,0.1-0.1,0.1-0.1h0.7c0.1,0,0.1,0.1,0.1,0.1v0.2
			C233.2,55,233.2,55,233.1,55z"/>
		<path class="st1" d="M234.3,55h-0.7c-0.1,0-0.1-0.1-0.1-0.1v-0.2c0-0.1,0.1-0.1,0.1-0.1h0.7c0.1,0,0.1,0.1,0.1,0.1v0.2
			C234.4,55,234.4,55,234.3,55z"/>
		<path class="st1" d="M235.5,55h-0.7c-0.1,0-0.1-0.1-0.1-0.1v-0.2c0-0.1,0.1-0.1,0.1-0.1h0.7c0.1,0,0.1,0.1,0.1,0.1v0.2
			C235.6,55,235.6,55,235.5,55z"/>
		<path class="st1" d="M236.7,55H236c-0.1,0-0.1-0.1-0.1-0.1v-0.2c0-0.1,0.1-0.1,0.1-0.1h0.7c0.1,0,0.1,0.1,0.1,0.1v0.2
			C236.8,55,236.7,55,236.7,55z"/>
		<path class="st1" d="M237.9,55h-0.7c-0.1,0-0.1-0.1-0.1-0.1v-0.2c0-0.1,0.1-0.1,0.1-0.1h0.7c0.1,0,0.1,0.1,0.1,0.1v0.2
			C238,55,238,55,237.9,55z"/>
		<path class="st1" d="M239.1,55h-0.7c-0.1,0-0.1-0.1-0.1-0.1v-0.2c0-0.1,0.1-0.1,0.1-0.1h0.7c0.1,0,0.1,0.1,0.1,0.1v0.2
			C239.2,55,239.2,55,239.1,55z"/>
		<path class="st1" d="M240.3,55h-0.7c-0.1,0-0.1-0.1-0.1-0.1v-0.2c0-0.1,0.1-0.1,0.1-0.1h0.7c0.1,0,0.1,0.1,0.1,0.1v0.2
			C240.4,55,240.3,55,240.3,55z"/>
		<path class="st1" d="M241.5,55h-0.7c-0.1,0-0.1-0.1-0.1-0.1v-0.2c0-0.1,0.1-0.1,0.1-0.1h0.7c0.1,0,0.1,0.1,0.1,0.1v0.2
			C241.6,55,241.5,55,241.5,55z"/>
		<path class="st1" d="M242.6,55H242c-0.1,0-0.1-0.1-0.1-0.1v-0.2c0-0.1,0.1-0.1,0.1-0.1h0.7c0.1,0,0.1,0.1,0.1,0.1v0.2
			C242.8,55,242.7,55,242.6,55z"/>
		<path class="st1" d="M243.8,55h-0.7c-0.1,0-0.1-0.1-0.1-0.1v-0.2c0-0.1,0.1-0.1,0.1-0.1h0.7c0.1,0,0.1,0.1,0.1,0.1v0.2
			C244,55,243.9,55,243.8,55z"/>
		<path class="st1" d="M245.1,55h-0.7c-0.1,0-0.1-0.1-0.1-0.1v-0.2c0-0.1,0.1-0.1,0.1-0.1h0.7c0.1,0,0.1,0.1,0.1,0.1v0.2
			C245.2,55,245.1,55,245.1,55z"/>
		<path class="st1" d="M245.1,56.2h-1c-0.1,0-0.1-0.1-0.1-0.1v-0.7c0-0.1,0.1-0.1,0.1-0.1h1c0.1,0,0.1,0.1,0.1,0.1v0.7
			C245.2,56.1,245.1,56.2,245.1,56.2z"/>
		<path class="st1" d="M245.1,58.6h-1.3c-0.1,0-0.1-0.1-0.1-0.1v-0.7c0-0.1,0.1-0.1,0.1-0.1h1.3c0.1,0,0.1,0.1,0.1,0.1v0.7
			C245.2,58.5,245.1,58.6,245.1,58.6z"/>
		<path class="st1" d="M245.1,61h-1.1c-0.1,0-0.1-0.1-0.1-0.1v-0.7c0-0.1,0.1-0.1,0.1-0.1h1.1c0.1,0,0.1,0.1,0.1,0.1v0.7
			C245.2,60.9,245.1,61,245.1,61z"/>
		<path class="st1" d="M242.3,61h-1.1c-0.1,0-0.1-0.1-0.1-0.1v-0.7c0-0.1,0.1-0.1,0.1-0.1h1.1c0.1,0,0.1,0.1,0.1,0.1v0.7
			C242.4,60.9,242.4,61,242.3,61z"/>
		<path class="st1" d="M243.4,61h-0.7c-0.1,0-0.1-0.1-0.1-0.1v-0.7c0-0.1,0.1-0.1,0.1-0.1h0.7c0.1,0,0.1,0.1,0.1,0.1v0.7
			C243.6,60.9,243.5,61,243.4,61z"/>
	</g>
</g>
<g>
	<path class="st2" d="M170.3,56.5c0,0-0.3-0.7-0.5-1.1c-0.2-0.4-0.6-1-1.1-1.2c-0.4-0.2-2.7-0.6-2.7-0.6c-0.3,0-0.3,0.3-0.4,0.6
		c-0.1,0.1,0,0.3,0.1,0.4l-0.1-0.1l-2.2,1.7c0,0,0.2,0.2,0.4,0.3c0.1,0.1,2.3-1.5,2.3-1.5c0.1,0.2,0.3,0.4,0.5,0.5l-0.4-0.4l-2,1.9
		c0,0,0.3,0.2,0.4,0.3c0.1,0.1,2.1-1.6,2.1-1.7c0,0,0.1,0.1,0.1,0.1c0.2,0.1,1.3,0.6,1.6,0.6c0.3,0,0.6,0,0.6,0l0.9,5.3h1.3
		L170.3,56.5z"/>
	<path class="st2" d="M163.2,56.5c-0.1,0.2,0,1.9,0,1.9c0,0.2,0.2,0.7,0.4,0.7s0.3,0,0.3-0.4s-0.1-2.3-0.1-2.3l-0.4-0.3
		C163.4,56.2,163.3,56.3,163.2,56.5z"/>
	<path class="st2" d="M164,57.5c-0.1,0.2,0.2,1.9,0.2,1.9c0,0.2,0.2,0.7,0.5,0.7c0.2,0,0.3,0,0.2-0.4c0-0.4-0.3-2.2-0.3-2.2
		l-0.4-0.3C164.1,57.1,164,57.3,164,57.5z"/>
	<path class="st2" d="M167.9,56.4l-0.8-0.3l-1.5,2.1c0,0,0.3,0.1,0.4,0.2C166.3,58.6,167.9,56.4,167.9,56.4z"/>
	<path class="st2" d="M165.6,58.6c0,0.2,0.5,1.8,0.5,1.8c0.1,0.2,0.4,0.7,0.6,0.6c0.2-0.1,0.3-0.1,0.2-0.4c-0.1-0.4-0.7-2.1-0.7-2.1
		l-0.4-0.2C165.7,58.3,165.6,58.4,165.6,58.6z"/>
	<path class="st2" d="M196.1,62.4L196.1,62.4l-1.9-0.7v0c-0.2,0-0.4-0.1-0.6-0.1c-0.1,0-0.2,0-0.4,0h-2c-0.2-0.8-1.1-1.5-2.1-1.5
		c-0.1,0-0.2,0-0.3,0c0-2.4,0-7.9,0-9.4c0.4-0.1,0.8-0.4,1-0.8c0.1-0.2,0.2-0.4,0.2-0.7c0,0,0,0,0-0.1c0,0.1,0,0.1,0,0.1
		c0,0,0.1,0,0.1,0c0.3,0,0.9-0.1,1.4-0.6c0.5-0.5,0.5-1.1,0.5-1.3l-0.2,0c0,0.2-0.1,0.7-0.5,1.1c-0.5,0.5-1.2,0.5-1.4,0.5
		c0,0,0,0,0,0c0-0.1,0-0.1,0-0.2v0c0.2,0,0.8-0.1,1.2-0.7c0.3-0.5,0.3-1,0.3-1.2l-0.2,0c0,0.2,0,0.6-0.2,1.1c-0.4,0.5-1,0.6-1.1,0.6
		c0,0,0,0.1,0,0.2c0-0.1-0.1-0.3-0.1-0.4l0,0.1c0.1,0,0.6-0.2,0.8-0.8c0.1-0.5,0-0.9-0.1-1.1l-0.2,0.1c0.1,0.1,0.2,0.5,0.1,0.9
		c-0.2,0.5-0.6,0.7-0.7,0.7l0,0l0,0c-0.3-0.5-0.8-0.8-1.4-0.8c-0.5,0-1,0.2-1.3,0.6c-0.2,0.3-0.4,0.6-0.4,1c0,0.7,0.5,1.4,1.2,1.6
		v8.8l-0.3-0.1v0c-0.2,0-0.4-0.1-0.6-0.1c-0.1,0-0.2,0-0.4,0h-6.1c-0.7-1.9-4.5-11.1-4.5-11.1l-2.2,1.3c0,0,0,0.2,0.1,0.4L171,61.8
		l0.9,0.4l2.8-9.2c0.6,2.2,1.4,5.1,1.8,6.7c-1.2,0.4-2,1.4-2,2.5c0,1.3,1,2.3,2.3,2.6l1.4,0.5c0,0,0,0,0,0c0.4,0.2,0.9,0.3,1.4,0.3
		c0.4,0,0.7-0.1,1.1-0.2l0.2,0c0.3,0.8,1.2,1.5,2.2,1.7l1.4,0.5c0,0,0,0,0,0c0.4,0.2,0.9,0.3,1.5,0.3c0.4,0,0.7-0.1,1.1-0.2l8.6-1.4
		c1.2,0,2.2-0.9,2.2-1.9C198,63.4,197.2,62.6,196.1,62.4z"/>
</g>
<g>
	<path class="st1" d="M167.6,57.8h1.4l0.8,5.3h-1.3L167.6,57.8z"/>
	<path class="st1" d="M164.7,54.9c0,0,2.3,0.4,2.7,0.6c0.4,0.2,0.8,0.8,1.1,1.2c0.2,0.4,0.5,1.1,0.5,1.1h-1.4c0,0-0.3,0-0.6,0
		c-0.3,0-1.4-0.5-1.6-0.6c-0.2-0.1-0.5-0.6-0.7-0.8c-0.2-0.2-0.6-0.7-0.4-0.9C164.4,55.2,164.4,54.9,164.7,54.9z"/>
	<path class="st1" d="M164.2,55.8l-2.2,1.7c0,0,0.2,0.2,0.4,0.3c0.1,0.1,2.3-1.5,2.3-1.5L164.2,55.8z"/>
	<path class="st1" d="M161.8,59.8c0,0.2,0.2,0.7,0.4,0.7c0.2,0,0.3,0,0.3-0.4c0-0.4-0.1-2.3-0.1-2.3l-0.4-0.3c0,0-0.1,0.1-0.2,0.3
		C161.7,58,161.8,59.8,161.8,59.8z"/>
	<path class="st1" d="M164.8,56.6l-2,1.9c0,0,0.3,0.2,0.4,0.3c0.1,0.1,2.1-1.7,2.1-1.7L164.8,56.6z"/>
	<path class="st1" d="M162.8,60.7c0,0.2,0.2,0.7,0.5,0.7c0.2,0,0.3,0,0.2-0.4s-0.3-2.2-0.3-2.2l-0.4-0.3c0,0-0.1,0.1-0.2,0.3
		C162.5,59,162.8,60.7,162.8,60.7z"/>
	<path class="st1" d="M165.8,57.5l-1.5,2.1c0,0,0.3,0.1,0.4,0.2s1.8-2,1.8-2L165.8,57.5z"/>
	<path class="st1" d="M164.8,61.8c0.1,0.2,0.4,0.7,0.6,0.6s0.3-0.1,0.2-0.4c-0.1-0.4-0.7-2.1-0.7-2.1l-0.4-0.2c0,0-0.1,0.2-0.1,0.4
		C164.2,60.1,164.8,61.8,164.8,61.8z"/>
	<circle class="st1" cx="184.5" cy="66.6" r="2"/>
	<circle class="st1" cx="194.6" cy="65.8" r="1.4"/>
	<path class="st1" d="M186.6,62.9l-7.4,0"/>
	<path class="st1" d="M186.4,50.4c0,0.1-0.1,0.2-0.1,0.3c0,0.4,0.3,0.7,0.7,0.7c0.2,0,0.4-0.1,0.6-0.3
		C187.2,51,186.8,50.7,186.4,50.4z"/>
	<path class="st1" d="M187.1,49.1c-0.5,0-1,0.2-1.3,0.6c0.6,0.9,1.6,1.5,2.7,1.7c0.1-0.2,0.2-0.4,0.2-0.7
		C188.7,49.8,188,49.1,187.1,49.1z"/>
	<path class="st1" d="M194.5,63.8c-0.1,0-0.2,0-0.4,0h-8.9c-0.1,0-0.3,0-0.4,0s-0.3,0-0.4,0c-1.5,0.2-2.6,1.3-2.6,2.7
		c0,1.5,1.4,2.7,3.1,2.7c0.4,0,0.7-0.1,1.1-0.2l8.6-1.4c1.2,0,2.2-0.9,2.2-1.9C196.6,64.6,195.7,63.8,194.5,63.8z"/>
	<path class="st1" d="M187.5,61.6c0,0.7,0,1.1,0,1.2c0,0.1-0.1,0.2-0.1,0.3h2.6c-0.2-0.8-1.1-1.5-2.1-1.5
		C187.7,61.6,187.6,61.6,187.5,61.6z"/>
	<path class="st1" d="M186.6,52.3v10.5c0,0.1,0,0.2,0.1,0.3h0.7c0.1-0.1,0.1-0.2,0.1-0.3c0-0.4,0-8.8,0-10.5c0.4-0.1,0.8-0.4,1-0.8
		c-1.1-0.2-2.1-0.8-2.7-1.7c-0.2,0.3-0.4,0.6-0.4,1C185.5,51.4,185.9,52.1,186.6,52.3z"/>
	<path class="st1" d="M181.7,66.5c0-1.4,1.2-2.5,2.6-2.7c0.1,0,0.3,0,0.4,0s0.3,0,0.4,0h8.9c0.1,0,0.2,0,0.4,0c0.1,0,0.2,0,0.3,0
		l-1.9-0.7v0c-0.2,0-0.4-0.1-0.6-0.1c-0.1,0-0.2,0-0.4,0H183c-0.1,0-0.3,0-0.4,0c-0.1,0-0.3,0-0.4,0c-1.5,0.2-2.6,1.3-2.6,2.7
		c0,1.3,1,2.4,2.3,2.6l1.4,0.5c0,0,0,0,0,0C182.4,68.4,181.7,67.5,181.7,66.5z"/>
	<path class="st1" d="M186.3,61c-0.2,0-0.4-0.1-0.6-0.1c-0.1,0-0.2,0-0.4,0h-6.1c0.1,0.2,0.1,0.3,0.1,0.3c0.1,0.2,0.1,0.3,0.1,0.4
		h7.1V61L186.3,61z"/>
	<path class="st1" d="M189,62.9h-1.5c0,0.1-0.1,0.1-0.1,0.2h2.2L189,62.9z"/>
	<g>
		<path class="st1" d="M177.2,63.9C177.2,63.9,177.2,63.9,177.2,63.9C177.3,63.9,177.2,63.9,177.2,63.9z"/>
		<path class="st1" d="M177.3,64.1C177.3,64.1,177.4,64.1,177.3,64.1C177.4,64.1,177.3,64.1,177.3,64.1z"/>
		<path class="st1" d="M177.3,64L177.3,64L177.3,64z"/>
		<path class="st1" d="M177.3,64L177.3,64L177.3,64z"/>
		<path class="st1" d="M177.3,63.9C177.3,63.9,177.3,63.9,177.3,63.9C177.3,63.9,177.3,63.9,177.3,63.9z"/>
		<path class="st1" d="M177.3,64C177.3,64,177.3,64,177.3,64L177.3,64z"/>
		<path class="st1" d="M177.6,64.4C177.6,64.5,177.6,64.5,177.6,64.4C177.6,64.5,177.6,64.5,177.6,64.4z"/>
		<path class="st1" d="M177.4,64.2C177.4,64.2,177.4,64.2,177.4,64.2C177.4,64.2,177.4,64.2,177.4,64.2z"/>
		<path class="st1" d="M176.6,62.3c0,0,0-0.1,0-0.1C176.6,62.2,176.6,62.2,176.6,62.3z"/>
		<path class="st1" d="M177.4,64.2C177.4,64.2,177.4,64.2,177.4,64.2C177.4,64.2,177.4,64.2,177.4,64.2z"/>
		<path class="st1" d="M177.7,64.5C177.7,64.5,177.7,64.5,177.7,64.5C177.7,64.5,177.7,64.5,177.7,64.5z"/>
		<path class="st1" d="M177,63.2C177,63.2,177,63.3,177,63.2C177,63.3,177,63.2,177,63.2z"/>
		<path class="st1" d="M176.9,63.1C176.9,63.1,177,63.1,176.9,63.1C177,63.1,176.9,63.1,176.9,63.1z"/>
		<path class="st1" d="M176.9,62.9C176.9,63,176.9,63,176.9,62.9C176.9,63,176.9,63,176.9,62.9z"/>
		<path class="st1" d="M177,63.1C177,63.2,177,63.2,177,63.1C177,63.2,177,63.2,177,63.1z"/>
		<path class="st1" d="M176.9,62.9C176.9,62.9,176.9,62.9,176.9,62.9C176.9,62.9,176.9,62.9,176.9,62.9z"/>
		<path class="st1" d="M177.2,63.8C177.2,63.8,177.2,63.8,177.2,63.8C177.2,63.8,177.2,63.8,177.2,63.8z"/>
		<path class="st1" d="M176.6,62.3c0.1,0.1,0.1,0.3,0.1,0.4C176.7,62.5,176.7,62.4,176.6,62.3z"/>
		<path class="st1" d="M176.8,62.7c0,0.1,0,0.1,0.1,0.2C176.8,62.8,176.8,62.7,176.8,62.7z"/>
		<path class="st1" d="M186.6,62.8v-1.2h-7.1c0,0.3,0,0.4-0.1,0.8c-0.1,0.4-0.6,1.1-1.1,1.8c-0.3,0.4-0.5,0.5-0.6,0.3
			c-0.2-0.1-1.1-0.7-1.4-1c-0.2-0.2-0.3-0.4-0.4-0.7c-0.3,0.4-0.4,0.9-0.4,1.4c0,1.5,1.4,2.7,3,2.7c0.4,0,0.7-0.1,1.1-0.2l0.2,0
			c-0.1-0.3-0.2-0.6-0.2-0.9c0-1.4,1.2-2.5,2.6-2.7c0.1,0,0.3,0,0.4,0s0.3,0,0.4,0h3.7C186.6,63,186.6,62.9,186.6,62.8z"/>
		<path class="st1" d="M177.1,63.6C177.1,63.6,177.2,63.6,177.1,63.6C177.2,63.6,177.2,63.6,177.1,63.6z"/>
		<path class="st1" d="M177.2,63.7C177.2,63.7,177.2,63.7,177.2,63.7C177.2,63.7,177.2,63.7,177.2,63.7z"/>
		<path class="st1" d="M177.2,63.7C177.2,63.8,177.2,63.8,177.2,63.7C177.2,63.8,177.2,63.7,177.2,63.7z"/>
		<path class="st1" d="M177.1,63.5C177.1,63.6,177.1,63.6,177.1,63.5C177.1,63.6,177.1,63.6,177.1,63.5z"/>
		<path class="st1" d="M177.1,63.4C177.1,63.4,177.1,63.4,177.1,63.4C177.1,63.4,177.1,63.4,177.1,63.4z"/>
		<path class="st1" d="M177.1,63.5C177.1,63.5,177.1,63.5,177.1,63.5C177.1,63.5,177.1,63.5,177.1,63.5z"/>
		<path class="st1" d="M177,63.3C177,63.3,177.1,63.4,177,63.3C177,63.3,177,63.3,177,63.3z"/>
	</g>
	<g>
		<path class="st1" d="M175.4,64.3c0-0.5,0.2-1,0.4-1.4c-0.1-0.2-0.1-0.3-0.2-0.5c0-0.1-0.2-0.6-0.4-1.3c-1.2,0.4-2,1.4-2,2.5
			c0,1.3,1,2.3,2.3,2.6l1.4,0.5c0,0,0,0,0,0C176.1,66.1,175.4,65.3,175.4,64.3z"/>
		<path class="st1" d="M176.6,62.1c-0.1-0.4-0.3-0.8-0.5-1.3C176.3,61.4,176.5,61.8,176.6,62.1z"/>
	</g>
	<g>
		<path class="st1" d="M177.7,64.5C177.7,64.5,177.7,64.5,177.7,64.5C177.7,64.5,177.7,64.5,177.7,64.5z"/>
		<path class="st1" d="M177.4,64.2C177.4,64.2,177.4,64.2,177.4,64.2C177.4,64.2,177.4,64.2,177.4,64.2z"/>
		<path class="st1" d="M177.4,64.2C177.4,64.2,177.4,64.2,177.4,64.2C177.4,64.2,177.4,64.2,177.4,64.2z"/>
		<path class="st1" d="M177.6,64.4C177.6,64.5,177.6,64.5,177.6,64.4C177.6,64.5,177.6,64.5,177.6,64.4z"/>
		<path class="st1" d="M177.2,63.8c-0.1-0.2-0.2-0.4-0.3-0.7C177.1,63.4,177.2,63.7,177.2,63.8z"/>
		<path class="st1" d="M177.2,63.8C177.2,63.9,177.3,63.9,177.2,63.8C177.3,63.9,177.2,63.9,177.2,63.8z"/>
		<path class="st1" d="M177.4,64.2C177.4,64.2,177.4,64.2,177.4,64.2C177.4,64.2,177.4,64.2,177.4,64.2z"/>
		<path class="st1" d="M177.3,63.9c0,0,0,0.1,0,0.1C177.3,64,177.3,63.9,177.3,63.9z"/>
		<path class="st1" d="M178.8,63.5c-0.1,0.2-0.3,0.4-0.4,0.7c-0.3,0.4-0.5,0.5-0.6,0.3c-0.1-0.1-0.4-0.2-0.7-0.5v0.5l2.5,0.9
			c0.1-0.5,0.3-1.1,0.7-1.5L178.8,63.5z"/>
		<path class="st1" d="M177.4,64.1C177.4,64.1,177.4,64.1,177.4,64.1C177.4,64.1,177.4,64.1,177.4,64.1z"/>
		<path class="st1" d="M177.3,64.1C177.3,64.1,177.3,64.1,177.3,64.1C177.3,64.1,177.3,64.1,177.3,64.1z"/>
		<path class="st1" d="M177.3,64C177.3,64,177.3,64,177.3,64C177.3,64.1,177.3,64,177.3,64z"/>
	</g>
	<g>
		<path class="st1" d="M172.7,51.5c-0.1-0.2-0.1-0.4-0.1-0.4S172.6,51.3,172.7,51.5L172.7,51.5z"/>
		<path class="st1" d="M177.4,64.2c-0.2-0.2-2.4-6.5-3.8-10.3l-0.1,0.4c0.9,3.2,2.1,7.7,2.2,8c0.2,0.5,0.2,0.9,0.6,1.2
			c0.3,0.3,1.3,0.9,1.4,1C177.6,64.5,177.5,64.4,177.4,64.2z"/>
	</g>
	<path class="st1" d="M172.7,51.5l-3,11.7l0.9,0.4l2.9-9.6C173.2,52.8,172.9,51.9,172.7,51.5z"/>
	<path class="st1" d="M172.6,51.1c0,0,4.6,12.8,4.8,13.1c0.2,0.4,0.5,0.7,0.9,0c0.4-0.7,0.9-1.4,1.1-1.8c0.1-0.4,0.2-0.6,0-1.2
		s-4.6-11.4-4.6-11.4L172.6,51.1z"/>
	<path class="st1" d="M188.8,50.7c0,0-0.1,0-0.1,0c0,0,0-0.1,0-0.2c0,0,0,0,0,0c0.1,0,0.8,0,1.4-0.5c0.4-0.4,0.5-0.9,0.5-1.1l0.2,0
		c0,0.2-0.1,0.8-0.5,1.3C189.7,50.7,189.1,50.7,188.8,50.7z"/>
	<path class="st1" d="M188.6,50.2c0.1,0,0.7-0.1,1.1-0.6c0.3-0.4,0.3-0.9,0.2-1.1l0.2,0c0,0.2,0,0.7-0.3,1.2c-0.4,0.6-1,0.7-1.2,0.7
		C188.6,50.4,188.6,50.2,188.6,50.2z"/>
	<path class="st1" d="M188.6,50.1l-0.1-0.2l0,0c0.1,0,0.5-0.2,0.7-0.7c0.1-0.4,0-0.8-0.1-0.9l0.2-0.1c0.1,0.2,0.2,0.6,0.1,1.1
		C189.2,49.8,188.7,50,188.6,50.1z"/>
</g>
<path class="st0" d="M94.4,67.6c0.1,0,0.4,0,0.5,0s0,0.2,0.2,0.2c0.2,0,0.2-0.1,0.3-0.1s1.8,0,1.9,0c0.1,0,0.2,0.1,0.3,0.1
	s0.2-0.2,0.3-0.2s0.5,0,0.5-0.1c0-0.1,0.1-0.2,0.3-0.2c0.2,0,0.3-0.2,0.4-0.4c0-0.2,0-0.3,0.1-0.6c0.1-0.3,0.4-0.8,0.9-1.3
	c0.5-0.5,2-0.6,2.8-0.8c0.9-0.2,2.4,0.3,4,0.6c1.6,0.3,3.2-0.1,4-0.4c0.9-0.3,1.3-1.2,1.3-1.4v0c0-0.3-0.4-1.1-1.3-1.4
	c-0.9-0.3-2.4-0.7-4-0.4c-1.6,0.3-3.2,0.8-4,0.6c-0.8-0.2-2.3-0.3-2.8-0.8c-0.5-0.5-0.8-1-0.9-1.3c-0.1-0.3,0-0.4-0.1-0.6
	c0-0.2-0.2-0.4-0.4-0.4c-0.2,0-0.3,0-0.3-0.2s-0.4-0.1-0.5-0.1s-0.2-0.2-0.3-0.2s-0.2,0.1-0.3,0.1c-0.1,0-1.9,0-1.9,0
	s-0.1-0.1-0.3-0.1c-0.2,0-0.2,0.2-0.2,0.2s-0.3,0-0.5,0c-0.1,0-0.1,0.1-0.1,0.1s-6.9-0.7-7.1-0.7c-0.3,0.1-0.3,0.3-0.3,0.6
	c0,0.3,0.1,0.4,0.1,0.6c0,0.2,0.1,0.6,0,0.7c-0.1,0.1-0.1,0.1-0.1,0.3c0,0.1,0,0.2-0.1,0.3c0,0.1,0,0.2,0,0.2c0,0.1,0.1,0.2,0.1,0.3
	c0,0,0.2,0.1,0.3,0.1c0.1,0-0.2,0.1-0.2,0.1c0,0-0.1,0.2-0.1,0.3c0,0.1-0.2,0.7-0.2,0.8c0,0.1,0,0.5,0,0.5s0,0.6,0,0.8
	c-0.1,0.2-0.1,0.4-0.1,0.4s0.3,0,0.3,0.1s-0.2,0.1-0.2,0.2c0,0.1,0,0.5,0.1,0.6c0,0.1,0,0.2,0,0.3s0.1,0.3,0,0.4
	c-0.1,0.1-0.2,0.2-0.2,0.3s0.2-0.1,0.3,0c0.1,0.1,0.1,0.7,0.1,0.9c0,0.2-0.1,0.3-0.1,0.6c0,0.3,0,0.5,0.3,0.6
	c0.3,0.1,7.1-0.7,7.1-0.7S94.2,67.6,94.4,67.6z M109.9,63.2c0-0.3,0.2-0.5,0.5-0.5c0.3,0,0.5,0.2,0.5,0.5c0,0.3-0.2,0.5-0.5,0.5
	C110.1,63.7,109.9,63.4,109.9,63.2z"/>
<path class="st1" d="M86.2,57.3c-0.3,0.1-0.3,0.3-0.3,0.6c0,0.3,0.1,0.4,0.1,0.6s0.1,0.6,0,0.7s-0.1,0.1-0.1,0.3
	c0,0.1,0,0.2-0.1,0.3c0,0.1,0,0.2,0,0.2c0,0.1,0.1,0.2,0.1,0.3s0.2,0.1,0.3,0.1c0.1,0-0.2,0.1-0.2,0.1c0,0-0.1,0.2-0.1,0.3
	c0,0.1-0.2,0.7-0.2,0.8c0,0.1,0,0.5,0,0.5c0,0,0,0.6,0,0.8c0,0.2-0.1,0.4-0.1,0.4c0.1,0,0.3,0,0.3,0.1c0,0.1-0.2,0.1-0.2,0.2
	c0,0.1,0,0.5,0.1,0.6c0,0.1,0,0.2,0,0.3c0,0.1,0.1,0.3,0,0.4c-0.1,0.1-0.2,0.2-0.2,0.3s0.2-0.1,0.3,0C86,65.2,86,65.8,86,66
	c0,0.2-0.1,0.3-0.1,0.6s0,0.5,0.3,0.6c0.3,0.1,7.1-0.7,7.1-0.7s0,0.1,0.1,0.1c0.1,0,0.4,0,0.5,0c0.1,0,0,0.2,0.2,0.2
	c0.2,0,0.2-0.1,0.3-0.1c0.1,0,1.8,0,1.9,0c0.1,0,0.2,0.1,0.3,0.1s0.2-0.2,0.3-0.2c0.1,0,0.5,0,0.5-0.1c0-0.1,0.1-0.2,0.3-0.2
	c0.2,0,0.3-0.2,0.4-0.4c0-0.2,0-0.3,0.1-0.6s0.4-0.8,0.9-1.3c0.5-0.5,2-0.6,2.8-0.8c0.8-0.2,2.4,0.3,4,0.6c1.6,0.3,3.2-0.1,4-0.4
	c0.9-0.3,1.3-1.2,1.3-1.4v0c0-0.3-0.4-1.1-1.3-1.4c-0.9-0.3-2.4-0.7-4-0.4c-1.6,0.3-3.2,0.8-4,0.6c-0.8-0.2-2.3-0.3-2.8-0.8
	c-0.5-0.5-0.8-1-0.9-1.3c-0.1-0.3,0-0.4-0.1-0.6c0-0.2-0.2-0.4-0.4-0.4c-0.2,0-0.3,0-0.3-0.2c0-0.1-0.4-0.1-0.5-0.1
	c-0.1,0-0.2-0.2-0.3-0.2c-0.1,0-0.2,0.1-0.3,0.1c-0.1,0-1.9,0-1.9,0c-0.1,0-0.1-0.1-0.3-0.1s-0.2,0.2-0.2,0.2c-0.1,0-0.3,0-0.5,0
	c-0.1,0-0.1,0.1-0.1,0.1S86.5,57.2,86.2,57.3z M109.5,61.7c0.3,0,0.5,0.2,0.5,0.5c0,0.3-0.2,0.5-0.5,0.5c-0.3,0-0.5-0.2-0.5-0.5
	C108.9,61.9,109.2,61.7,109.5,61.7z"/>
<path class="st2" d="M99.1,50v-3.5h0.6v0.2h0.2v-0.2h0.5V47h0.2v-0.4h0.5v0.2h0.2v-0.2h0.5v0.7h0.2v-0.7h0.5v0.2h0.2v-0.2h0.5V47
	h0.2v-0.4h0.5v0.2h0.2v-0.2h0.5v1.1h0.2v-1.1h0.5v0.2h0.2v-0.2h0.5V47h0.2v-0.4h0.5v0.2h0.2v-0.2h0.5v0.7h0.2v-0.7h0.5v0.2h0.2v-0.2
	h0.5V47h0.2v-0.4h0.5v0.2h0.2v-0.2h0.5v1.8h0.2v-1.8h0.5v0.2h0.2v-0.2h0.5V47h0.2v-0.4h0.5v0.2h0.2v-0.2h0.5v0.7h0.2v-0.7h0.5v0.2
	h0.2v-0.2h0.5V47h0.2v-0.4h0.5v0.2h0.2v-0.2h0.5v1.1h0.2v-1.1h0.5v0.2h0.2v-0.2h0.5V47h0.2v-0.4h0.5v0.2h0.2v-0.2h0.5v0.7h0.2v-0.7
	h0.5v0.2h0.2v-0.2h0.5V47h0.2v-0.4h0.5v0.2h0.2v-0.2h2.3v2.4h-0.2v0.2h0.2v0.5h-0.4v0.2h0.4v0.5h-0.2v0.2h0.2V51h-0.7v0.2h0.7v0.5
	h-0.2v0.2h0.2v0.5h-0.4v0.2h0.4v0.5h-0.2v0.2h0.2v0.5h-1.1V54h1.1v0.5h-0.2v0.2h0.2v0.5h-0.4v0.2h0.4v0.5h-0.2v0.2h0.2v0.5h-0.7v0.2
	h0.7v0.5h-0.2v0.2h0.2v0.5h-0.4v0.2h0.4v0.5h-0.2v0.2h0.2v0.6h-3.5V50H99.1z"/>
<path class="st1" d="M120.9,48.7v9.4h3.5v-0.6h-0.2v-0.2h0.2v-0.5H124v-0.2h0.4v-0.5h-0.2v-0.2h0.2v-0.5h-0.7v-0.2h0.7v-0.5h-0.2
	v-0.2h0.2V54H124v-0.2h0.4v-0.5h-0.2v-0.2h0.2v-0.5h-1.1v-0.2h1.1v-0.5h-0.2v-0.2h0.2v-0.5H124V51h0.4v-0.5h-0.2v-0.2h0.2v-0.5h-0.7
	v-0.2h0.7v-0.5h-0.2v-0.2h0.2v-0.2v-0.3H124v-0.2h0.4v-0.5h-0.2v-0.2h0.2v-2.4h-2.3v0.2H122v-0.2h-0.5v0.4h-0.2v-0.4h-0.4h-0.1v0.2
	h-0.2v-0.2h-0.5v0.7h-0.2v-0.7h-0.5v0.2h-0.2v-0.2h-0.5v0.4h-0.2v-0.4H118v0.2h-0.2v-0.2h-0.5v1.1h-0.2v-1.1h-0.5v0.2h-0.2v-0.2
	h-0.5v0.4h-0.2v-0.4h-0.5v0.2H115v-0.2h-0.5v0.7h-0.2v-0.7h-0.5v0.2h-0.2v-0.2h-0.5v0.4h-0.2v-0.4h-0.5v0.2h-0.2v-0.2h-0.5v1.8h-0.2
	v-1.8H111v0.2h-0.2v-0.2h-0.5v0.4h-0.2v-0.4h-0.5v0.2h-0.2v-0.2h-0.5v0.7h-0.2v-0.7h-0.5v0.2H108v-0.2h-0.5v0.4h-0.2v-0.4h-0.5v0.2
	h-0.2v-0.2h-0.5v1.1H106v-1.1h-0.5v0.2h-0.2v-0.2h-0.5v0.4h-0.2v-0.4h-0.5v0.2h-0.2v-0.2h-0.5v0.7h-0.2v-0.7h-0.5v0.2h-0.2v-0.2H102
	v0.4h-0.2v-0.4h-0.5v0.2h-0.2v-0.2h-0.6v3.5H120.9z"/>
<path class="st2" d="M173.3,27.5c-0.3-0.1-0.5,0.4-0.2,0.7l-5.5,3.4c-0.3-0.3-0.7-0.7-1.1-1l3.4-2.1c0,0,0,0.1,0.3,0.3
	c0.2,0.2,0.7,0,0.5-0.3c-0.1-0.3-0.8-1.2-1-1.2c-0.3-0.1-0.5,0.4-0.2,0.7l-3.5,2.1c-0.5-0.3-1-0.6-1.5-0.8c-0.2-0.1-0.3-0.2-0.4-0.3
	l0,0.1c-0.9-0.3-1.8-0.5-2.8-0.5c-0.1,0-0.1,0-0.2-0.1v0.1c-0.1,0-0.2,0-0.3,0c-0.2,0-0.5,0-0.7,0c0,0-0.1,0-0.1-0.1v0.1
	c0,0-0.1,0-0.1,0c0,0,0,0-0.1-0.1v0.1c-4.3,0.5-7.7,3.9-7.6,8c0,0.6,0.1,1.3,0.3,1.8l-2.4,1.5c0,0-0.8,0.6-0.9,0.8
	c-0.1,0.2,0,0.3,0.2,0.2c0.1-0.1,1-0.5,1-0.5l2.3-1.4c0.1,0.2,0.1,0.3,0.2,0.5c0,0,0,0,0,0h0c0.1,0.3,0.3,0.6,0.4,0.8
	c-0.2,0.2-0.4,0.4-0.5,0.5c-0.1,0.2,0,0.3,0.2,0.2c0.1,0,0.3-0.2,0.6-0.3c1.6,2.2,4.3,3.6,7.4,3.6c4.8-0.1,8.6-3.7,8.6-8
	c0-0.4,0-0.8-0.1-1.2c-0.1-0.3-0.2-0.7-0.3-1c-0.3-0.8-0.6-1.5-1.2-2.1l5.5-3.4c0,0,0,0.1,0.3,0.3c0.2,0.2,0.7,0,0.5-0.3
	C174.2,28.5,173.5,27.6,173.3,27.5z"/>
<g>
	<path class="st1" d="M157.5,38.5c-0.7,0-1.2-0.1-1.7,0c-0.4,0-0.8,0.1-1.2,0.2"/>
	<path class="st1" d="M162.1,38.4c-0.5,0-1.6,0.1-2.6,0.1c-0.4,0-0.7,0-1,0"/>
	<path class="st1" d="M157.1,39.4c0.3,0,0.6,0,0.9,0c0.9,0,2.5,0,4.2-0.2"/>
	<path class="st1" d="M151.5,41.1c0.5-0.5,1.3-1.3,2.4-1.6c0.8-0.2,1.4-0.3,2.2-0.2"/>
	<path class="st1" d="M156.2,40c0.5,0.1,1.1,0.1,1.8,0.2c0.9,0.1,2.4,0.1,4.1-0.3"/>
	<path class="st1" d="M151.8,41.5c0.4-0.4,1.1-1,2-1.4c0.5-0.2,1-0.2,1.5-0.2"/>
	<path class="st1" d="M154.9,40.8c1,0,1.9,0.3,3.1,0.3c0.9,0.1,2.2,0,3.9-0.5"/>
	<path class="st1" d="M154.1,31.9c0.8-0.3,2-0.6,3.3-0.7c0.7,0,1.3,0,1.8,0"/>
	<path class="st1" d="M153.3,32.7c0.8-0.3,2-0.6,3.4-0.7c1.1-0.1,2.1,0,2.9,0.1"/>
	<path class="st1" d="M152.6,33.3c1.1-0.3,2.5-0.6,4.1-0.7c1.4-0.1,2.6,0,3.5,0.2"/>
	<path class="st1" d="M152.2,33.9c1.2-0.3,2.6-0.5,4.3-0.6c1.5-0.1,2.9,0,4,0.1"/>
	<path class="st1" d="M151.7,34.6c1.3-0.3,2.9-0.5,4.5-0.6c1.7-0.1,3.2-0.1,4.5,0"/>
	<path class="st1" d="M151.2,35.9c0.3,0.1,0.7,0.2,1.1,0.4c0.6,0.3,0.9,0.7,1.1,1"/>
	<path class="st1" d="M151.5,35c0.2,0,1,0,1.7,0.6c0.6,0.5,0.8,1.2,0.8,1.4"/>
	<path class="st1" d="M152.9,34.5c0.2,0,0.7,0.1,1.2,0.5c0.7,0.6,0.6,2,0.7,1.7"/>
	<path class="st1" d="M154.4,34.2c0.2,0.2,0.5,0.4,0.7,0.8c0.4,0.6,0.5,1.6,0.5,1.9"/>
	<path class="st1" d="M155.9,34.1c0.1,0.2,0.4,0.5,0.5,0.8c0.2,0.7,0.1,1.3,0,1.5"/>
	<path class="st1" d="M158.1,30.3v0.9"/>
	<path class="st1" d="M157.3,30.4l0.1,0.8"/>
	<path class="st1" d="M156.7,30.7v0.5"/>
	<path class="st1" d="M155.7,31l0.4,0.4"/>
	<path class="st1" d="M161,41c0.1,0,0.3,0,0.6,0.2c0.2,0.1,0.3,0.2,0.3,0.3"/>
	<path class="st1" d="M159.8,41.1c0.3,0.1,0.7,0.2,1,0.4c0.3,0.1,0.6,0.3,0.9,0.4"/>
	<path class="st1" d="M158.6,41.2c0.4,0,1.2,0.1,2,0.6c0.4,0.3,0.7,0.6,0.9,0.8"/>
	<path class="st1" d="M156.8,41.1c0.7,0.3,1.5,0.6,2.4,1.2c0.8,0.5,1.4,1,1.9,1.5"/>
	<path class="st1" d="M155.4,40.9c0.8,0.4,1.8,0.9,2.8,1.7c0.9,0.7,1.7,1.4,2.3,2.1"/>
	<path class="st1" d="M154.2,41.2c0.5,0.3,1.1,0.7,1.8,1.3c0.5,0.4,0.8,0.7,1.6,1.4c0.5,0.4,1.2,1.1,2.2,1.9"/>
	<path class="st1" d="M153.4,43.7c0-0.2,0.2-0.9,0.9-1.3c0.4-0.3,0.8-0.3,1.1-0.3"/>
	<path class="st1" d="M152.7,42.7c0.2-0.2,0.4-0.5,0.8-0.7c0.4-0.3,0.8-0.4,1.1-0.5"/>
	<path class="st1" d="M154,44.2c0.1-0.3,0.4-0.7,0.9-1.1c0.4-0.3,0.8-0.4,1-0.5"/>
	<path class="st1" d="M154.9,44.7c0-0.2,0.2-0.7,0.6-1.1c0.4-0.4,0.9-0.5,1.1-0.6"/>
	<path class="st1" d="M155.8,45.1c0.1-0.2,0.2-0.5,0.5-0.8c0.4-0.4,0.9-0.5,1.1-0.6"/>
	<path class="st1" d="M156.8,45.5c0-0.1,0.1-0.5,0.4-0.8c0.3-0.3,0.6-0.3,0.8-0.4"/>
	<path class="st1" d="M157.7,45.8c0.3-0.3,0.6-0.7,0.9-1"/>
	<path class="st1" d="M158.7,45.8c0.2-0.2,0.3-0.4,0.5-0.6"/>
	<path class="st1" d="M160.9,34l0.9-0.5c-0.2-0.3-0.4-0.7-0.6-1c-0.8-1.2-1.8-1.8-2.5-2.2c-0.1,0-0.1,0-0.2,0
		c0.4,0.5,0.9,1.1,1.4,1.9C160.2,32.7,160.5,33.3,160.9,34z"/>
	<path class="st1" d="M161.2,31.4c0.1,0.1,0.6,0.6,1.1,1.7l0.7-0.5c-0.3-0.5-0.7-1-1.3-1.5c-0.7-0.5-1.4-0.8-1.9-0.9
		c-0.1,0-0.3,0-0.4,0l0,0C159.9,30.4,160.6,30.8,161.2,31.4z"/>
	<path class="st1" d="M163.4,32.4l0.5-0.3c-1.2-1.2-2.7-1.6-3.5-1.8C161.2,30.6,162.4,31.2,163.4,32.4z"/>
	<path class="st1" d="M164.6,31.7c-0.5-0.3-1-0.6-1.5-0.8c0.4,0.2,0.8,0.5,1.3,0.9L164.6,31.7z"/>
	<path class="st1" d="M162.5,35.4c-0.1-0.2-0.1-0.4-0.2-0.6c-0.1-0.2-0.2-0.5-0.3-0.7l-0.8,0.5c0.2,0.4,0.3,0.8,0.5,1.3L162.5,35.4z
		"/>
	<path class="st1" d="M163.1,35l0.9-0.6c-0.1-0.3-0.2-0.6-0.4-0.9c-0.1-0.1-0.1-0.2-0.2-0.4l-0.8,0.5c0.1,0.2,0.2,0.4,0.3,0.7
		C162.9,34.5,163,34.8,163.1,35z"/>
	<path class="st1" d="M164.5,34.1l0.6-0.4c-0.2-0.3-0.4-0.6-0.6-0.9c-0.1-0.1-0.1-0.2-0.2-0.2l-0.5,0.3c0.1,0.1,0.2,0.3,0.3,0.5
		C164.3,33.6,164.4,33.9,164.5,34.1z"/>
	<path class="st1" d="M165.8,33.3l0.4-0.3c-0.3-0.3-0.7-0.7-1.1-1l-0.3,0.2c0.1,0.1,0.2,0.2,0.3,0.3C165.4,32.8,165.6,33,165.8,33.3
		z"/>
	<g>
		<path class="st1" d="M156.7,36.5l7.9-4.9c-1.5-1-3.3-1.5-5.2-1.5c-4.8,0.1-8.6,3.7-8.6,8c0,0.2,0,0.4,0,0.6
			C153.1,37.3,155.2,36.7,156.7,36.5z"/>
		<path class="st1" d="M150.9,39.4c0,0.2,0.1,0.4,0.1,0.6l4.2-2.6C154,37.7,152.5,38.3,150.9,39.4z"/>
	</g>
	<g>
		<path class="st1" d="M160.7,36.5l5.6-3.5c-0.3-0.3-0.7-0.7-1.1-1l-7.1,4.4C158.9,36.4,159.7,36.5,160.7,36.5z"/>
		<path class="st1" d="M158,37.1c-0.3,0-0.7,0-1.1,0l-5.7,3.5c0.2,0.5,0.4,0.9,0.7,1.4c0.2-0.2,0.4-0.3,0.4-0.3l7.2-4.4
			C159,37.1,158.5,37.1,158,37.1z"/>
	</g>
	<g>
		<path class="st1" d="M155.3,37.4l-6.6,4.1c0,0-0.8,0.6-0.9,0.8c-0.1,0.2,0,0.3,0.2,0.2c0.1-0.1,1-0.5,1-0.5l8-4.9
			C156.4,37.2,155.9,37.3,155.3,37.4z"/>
		<path class="st1" d="M169.3,30c-0.1-0.3-0.8-1.2-1-1.2c-0.3-0.1-0.5,0.4-0.2,0.7l-11.3,7c0.2,0,0.3,0,0.4-0.1c0.3,0,0.6,0,0.9-0.1
			l10.4-6.4c0,0,0,0.1,0.3,0.3C169,30.5,169.5,30.3,169.3,30z"/>
	</g>
	<g>
		<path class="st1" d="M159.5,37.2l-7.2,4.4c0,0-0.8,0.6-0.9,0.8c-0.1,0.2,0,0.3,0.2,0.2s1-0.5,1-0.5l7.9-4.9
			C160.2,37.3,159.8,37.2,159.5,37.2z"/>
		<path class="st1" d="M173,30.1c-0.1-0.3-0.8-1.2-1-1.2c-0.3-0.1-0.5,0.4-0.2,0.7l-11.1,6.9c0.4,0,0.7,0,1.2,0l10.4-6.4
			c0,0,0,0.1,0.3,0.3C172.7,30.6,173.1,30.4,173,30.1z"/>
	</g>
	<path class="st1" d="M166.7,33.6l-4.9,3c0.9,0,2-0.1,3.4-0.2c1-0.1,1.7-0.3,2.3-0.4l0.3-0.2l0.3,1l-0.5,0.2c-0.4,0.1-1.2,0.3-2,0.4
		c-2,0.3-3.6,0.2-5,0l-7.9,4.9c0,0-0.2,0.1-0.4,0.2c1.6,2.2,4.3,3.6,7.4,3.6c4.8-0.1,8.6-3.7,8.6-8
		C168.2,36.3,167.6,34.8,166.7,33.6z"/>
	<g>
		<path class="st1" d="M162.7,36.5c0-0.2-0.1-0.3-0.1-0.5l-0.8,0.5v0C162.1,36.5,162.4,36.5,162.7,36.5z"/>
		<path class="st1" d="M162,37.5c0.2,1.2,0.4,3.5-0.7,6c-0.5,1.1-1.1,1.9-1.5,2.4l0,0.1c0.3,0,0.5,0,0.8-0.1v-0.1
			c0.3-0.4,0.8-0.9,1.2-1.6c1.1-1.9,1.2-3.6,1.2-4.7c0-0.4,0-1.1-0.1-2C162.6,37.5,162.3,37.5,162,37.5z"/>
	</g>
	<path class="st1" d="M150.9,39.4c3-2,5.5-2.3,7.2-2.3c2.1,0,4.1,0.7,7.4,0.2c0.9-0.1,1.6-0.3,2-0.4l0.5-0.2l-0.3-1l-0.3,0.2
		c-0.5,0.1-1.3,0.3-2.3,0.4c-3.8,0.5-5.6,0-8,0.2c-1.5,0.1-3.8,0.7-6.3,2.3L150.9,39.4z"/>
	<path class="st1" d="M150.9,39.4c3-2,5.5-2.3,7.2-2.3c2.1,0,4.1,0.7,7.4,0.2c0.9-0.1,1.6-0.3,2-0.4l0.5-0.2l-0.3-1l-0.3,0.2
		c-0.5,0.1-1.3,0.3-2.3,0.4c-3.8,0.5-5.6,0-8,0.2c-1.5,0.1-3.8,0.7-6.3,2.3L150.9,39.4z"/>
	<g>
		<path class="st1" d="M164.5,36.4c-0.1-0.4-0.2-0.8-0.3-1.3l-0.9,0.6c0.1,0.3,0.1,0.5,0.2,0.8C163.8,36.5,164.1,36.4,164.5,36.4z"
			/>
		<path class="st1" d="M164.6,37.4c-0.3,0-0.7,0.1-1,0.1c0.1,0.7,0.1,1.4,0.1,2.2c-0.1,1.1-0.1,2.3-0.8,3.7
			c-0.6,1.1-1.3,1.9-1.8,2.3v0c0.3,0,0.6-0.1,0.9-0.2c0.4-0.3,1-0.8,1.5-1.5c1.4-2,1.3-4.2,1.2-5.9
			C164.6,37.9,164.6,37.7,164.6,37.4z"/>
	</g>
	<g>
		<path class="st1" d="M165.2,36.3c0.3,0,0.6-0.1,0.9-0.2c-0.1-0.4-0.2-0.7-0.3-0.9c-0.1-0.3-0.2-0.6-0.4-0.9l-0.7,0.4
			c0.1,0.3,0.2,0.5,0.2,0.8C165.1,35.7,165.2,36,165.2,36.3z"/>
		<path class="st1" d="M165.5,37.3L165.5,37.3c0.2,1.3,0.2,3-0.4,4.7c-0.3,0.7-0.8,2-2,3.1c0,0,0,0,0,0c0.4-0.2,0.9-0.4,1.3-0.6l0,0
			c0.9-0.9,1.5-1.7,1.7-2.3c0.8-1.8,0.7-3.7,0.4-5.1C166.2,37.2,165.8,37.3,165.5,37.3z"/>
	</g>
	<path class="st1" d="M166.7,33.6l-0.5,0.3c0.2,0.3,0.3,0.5,0.5,0.9c0.1,0.3,0.3,0.7,0.5,1.2c0.1,0,0.2,0,0.2-0.1l0.3-0.2l0.3,1
		l-0.5,0.2c0.1,0.3,0.1,0.5,0.1,0.8c0.2,2.3-0.7,4.1-1.2,4.9l0.1,0.1c1.1-1.3,1.7-3,1.7-4.7C168.2,36.3,167.6,34.8,166.7,33.6z"/>
</g>
<path class="st2" d="M192.1,32.1v-0.3h-0.9v-0.1h-0.1v-0.9h-0.2v0.9h-0.6v-0.9H190v0.9h-0.6v-0.9h-0.3v0.9h-0.6v-0.9h-0.3v0.9h-0.6
	v-0.9h-0.2v0.9h-0.6v-0.9h-0.2v0.9h-0.6v-0.9h-0.3v0.9h-0.6v-0.9h-0.3v0.9h-0.6v-0.9H184v0.9h-0.6v-0.9h-0.2v0.9h-0.6v-0.9h-0.2v0.9
	h-0.1v0.1h-0.9v0.3h0.9v0.6h-0.9v0.2h0.9v0.6h-0.9v0.2h0.9v0.6h-0.9v0.3h0.9v0.6h-0.9v0.3h0.9v0.6h-0.9v0.2h0.9v0.6h-0.9v0.2h0.9
	v0.6h-0.9V38h0.9v0.6h-0.9v0.3h0.9v0.6h-0.9v0.3h0.9v0.6h-0.9v0.2h0.9v0.1h0.1v0.9h0.2v-0.9h0.6v0.9h0.2v-0.9h0.6v0.9h0.3v-0.9h0.6
	v0.9h0.3v-0.9h0.6v0.9h0.3v-0.9h0.6v0.9h0.2v-0.9h0.6v0.9h0.2v-0.9h0.6v0.9h0.3v-0.9h0.6v0.9h0.3v-0.9h0.6v0.9h0.2v-0.9h0.6v0.9h0.2
	v-0.9h0.1v-0.1h0.9v-0.2h-0.9v-0.6h0.9v-0.3h-0.9v-0.6h0.9v-0.3h-0.9V38h0.9v-0.2h-0.9v-0.6h0.9v-0.2h-0.9v-0.6h0.9v-0.2h-0.9v-0.6
	h0.9v-0.3h-0.9v-0.6h0.9v-0.3h-0.9v-0.6h0.9v-0.2h-0.9v-0.6h0.9v-0.2h-0.9v-0.6H192.1z"/>
<path class="st1" d="M190.7,33.5v-0.3h-0.9v-0.1h-0.1v-0.9h-0.2v0.9h-0.6v-0.9h-0.2v0.9H188v-0.9h-0.3v0.9h-0.6v-0.9h-0.3v0.9h-0.6
	v-0.9H186v0.9h-0.6v-0.9h-0.2v0.9h-0.6v-0.9h-0.3v0.9h-0.6v-0.9h-0.3v0.9h-0.6v-0.9h-0.3v0.9H182v-0.9h-0.2v0.9h-0.6v-0.9h-0.2v0.9
	h-0.1v0.1h-0.9v0.3h0.9v0.6h-0.9v0.2h0.9v0.6h-0.9v0.2h0.9v0.6h-0.9V36h0.9v0.6h-0.9v0.3h0.9v0.6h-0.9v0.2h0.9v0.6h-0.9v0.2h0.9v0.6
	h-0.9v0.2h0.9V40h-0.9v0.3h0.9v0.6h-0.9v0.3h0.9v0.6h-0.9V42h0.9v0.1h0.1V43h0.2v-0.9h0.6V43h0.2v-0.9h0.6V43h0.3v-0.9h0.6V43h0.3
	v-0.9h0.6V43h0.3v-0.9h0.6V43h0.2v-0.9h0.6V43h0.2v-0.9h0.6V43h0.3v-0.9h0.6V43h0.3v-0.9h0.6V43h0.2v-0.9h0.6V43h0.2v-0.9h0.1V42
	h0.9v-0.2h-0.9v-0.6h0.9v-0.3h-0.9v-0.6h0.9V40h-0.9v-0.6h0.9v-0.2h-0.9v-0.6h0.9v-0.2h-0.9v-0.6h0.9v-0.2h-0.9v-0.6h0.9v-0.3h-0.9
	V36h0.9v-0.3h-0.9v-0.6h0.9v-0.2h-0.9v-0.6h0.9v-0.2h-0.9v-0.6H190.7z"/>
</svg>
