<?xml version="1.0" encoding="utf-8"?>
<!-- Generator: Adobe Illustrator 26.3.1, SVG Export Plug-In . SVG Version: 6.00 Build 0)  -->
<svg version="1.1" id="header-flare" xmlns="http://www.w3.org/2000/svg" xmlns:xlink="http://www.w3.org/1999/xlink" x="0px"
	 y="0px" viewBox="0 0 288 18.2" style="enable-background:new 0 0 288 18.2;" xml:space="preserve">
<style type="text/css">
	.st0{fill:none;stroke:#E42637;stroke-width:0.2916;stroke-miterlimit:1.1664;}
</style>
<path class="st0" d="M0,7.6h278l3.3-3.3h4.3"/>
<path class="st0" d="M0,10.6h278l3.3,3.3h2.3"/>
<path class="st0" d="M0,9.1h282"/>
<path class="st0" d="M286.6,5.5c0.6,0,1.1-0.5,1.1-1.1s-0.5-1.1-1.1-1.1c-0.6,0-1.1,0.5-1.1,1.1S286,5.5,286.6,5.5"/>
<path class="st0" d="M284.6,15c0.6,0,1.1-0.5,1.1-1.1s-0.5-1.1-1.1-1.1c-0.6,0-1.1,0.5-1.1,1.1S284,15,284.6,15"/>
<path class="st0" d="M283.1,10.2c0.6,0,1.1-0.5,1.1-1.1S283.7,8,283.1,8c-0.6,0-1.1,0.5-1.1,1.1S282.5,10.2,283.1,10.2"/>
</svg>
