<svg version="1.1" id="_x2014_ÎÓÈ_x5F_1" xmlns="http://www.w3.org/2000/svg" xmlns:xlink="http://www.w3.org/1999/xlink"
	 x="0px" y="0px" viewBox="0 0 2000 2000" style="enable-background:new 0 0 2000 2000;" xml:space="preserve">
<style type="text/css">
	.st0{fill:#010101;}
	.st1{fill:#409606;}
</style>
<path class="st0" d="M1650.8,436.5L1511,618.4l-25.7,33.4l-558.8,727.3c-9.5,12.4-24.1,19.5-39.5,19.5c-1.3,0-2.6,0-3.9-0.2
	c-16.9-1.3-31.8-10.9-40-25.8l-237.5-433c-15.7-28.7-7.7-64.9,18.6-84.2c26.7-19.6,63.9-16.1,86.5,8l191,204l499.5-512.3l28.1-28.9
	L1581,371l0.8-0.6c19.1-16.1,46.1-15.2,64.1,2.1C1664,389.8,1666,416.7,1650.8,436.5z"/>
<path class="st1" d="M1584.3,747.7c-15.4-36.3-33.8-70.8-55.3-103.5l-26.1,34c58.5,93.4,92.3,203.7,92.3,321.8
	c0,335.3-272.8,608.1-608.1,608.1S379,1335.3,379,1000s272.8-608.1,608.1-608.1c149.1,0,285.9,54,391.8,143.4l28.2-28.9
	c-50.3-43-106.6-77.7-167.8-103.5c-79.9-33.8-164.8-50.9-252.3-50.9c-87.5,0-172.4,17.1-252.3,50.9c-77.2,32.6-146.5,79.4-206,138.9
	c-59.5,59.5-106.2,128.8-138.9,206C356.2,827.6,339,912.5,339,1000c0,87.5,17.1,172.4,50.9,252.3c32.6,77.2,79.4,146.5,138.9,206
	c59.5,59.5,128.8,106.2,206,138.9c79.9,33.8,164.8,50.9,252.3,50.9c87.5,0,172.4-17.1,252.3-50.9c77.2-32.6,146.5-79.4,206-138.9
	c59.5-59.5,106.2-128.8,138.9-206c33.8-79.9,50.9-164.8,50.9-252.3C1635.2,912.5,1618.1,827.6,1584.3,747.7z"/>
</svg>
