<svg version="1.1" id="circuits" xmlns="http://www.w3.org/2000/svg" xmlns:xlink="http://www.w3.org/1999/xlink" x="0px" y="0px" viewBox="0 0 3000 222.4"  xml:space="preserve">
<g id="lines" transform="matrix(2,0,0,2,-1500,-160)">
	<g id="left">

				<polyline class="lines" points="0,1 1129.5,1 1148.9,20.4 1211.1,20.4"/>
						<circle class="circle" cx="1210.9" cy="20.4" r="3.8"/>
						<path class="dot" d="M1210.9,24.7c-2.3,0-4.3-1.9-4.3-4.3s1.9-4.3,4.3-4.3c2.3,0,4.3,1.9,4.3,4.3S1213.3,24.7,1210.9,24.7
							C1208.6,24.7,1213.3,24.7,1210.9,24.7z M1210.9,17.2c-1.8,0-3.3,1.5-3.3,3.3s1.5,3.3,3.3,3.3c1.8,0,3.3-1.5,3.3-3.3
							S1212.7,17.2,1210.9,17.2C1209.1,17.2,1212.7,17.2,1210.9,17.2z"/>

				<polyline class="lines" points="0,9.6 1125.2,9.6 1144.6,29 1231.3,29"/>

						<circle class="circle" cx="1231.1" cy="29" r="3.8"/>
						<path class="dot" d="M1231.1,33.3c-2.3,0-4.3-1.9-4.3-4.3s1.9-4.3,4.3-4.3s4.3,1.9,4.3,4.3S1233.4,33.3,1231.1,33.3
							S1233.4,33.3,1231.1,33.3z M1231.1,25.7c-1.8,0-3.3,1.5-3.3,3.3s1.5,3.3,3.3,3.3s3.3-1.5,3.3-3.3S1232.9,25.7,1231.1,25.7
							S1232.9,25.7,1231.1,25.7z"/>

				<polyline class="lines" points="0,29.8 1115.1,29.8 1134.5,49.2 1231.3,49.2"/>

						<circle class="circle" cx="1231.1" cy="49.2" r="3.8"/>
						<path class="dot" d="M1231.1,53.4c-2.3,0-4.3-1.9-4.3-4.3s1.9-4.3,4.3-4.3s4.3,1.9,4.3,4.3S1233.4,53.4,1231.1,53.4
							S1233.4,53.4,1231.1,53.4z M1231.1,45.9c-1.8,0-3.3,1.5-3.3,3.3s1.5,3.3,3.3,3.3s3.3-1.5,3.3-3.3S1232.9,45.9,1231.1,45.9
							S1232.9,45.9,1231.1,45.9z"/>

				<polyline class="lines" points="0,90.2 1110.1,90.2 1129.5,70.8 1250.5,70.8 1260.9,60.4 1411.8,60.4 1467,115.6 1467,186
					1474.3,193.3"/>

							<ellipse transform="matrix(0.7071 -0.7071 0.7071 0.7071 295.1805 1098.9767)" class="circle" cx="1474.2" cy="193.2" rx="3.8" ry="3.8"/>
						<path class="dot" d="M1471.2,196.2c-1.7-1.7-1.7-4.4,0-6c1.7-1.7,4.4-1.7,6,0c1.7,1.7,1.7,4.4,0,6
							C1475.5,197.8,1472.8,197.8,1471.2,196.2C1469.5,194.5,1472.8,197.8,1471.2,196.2z M1476.5,190.9c-1.3-1.3-3.3-1.3-4.6,0
							c-1.3,1.3-1.3,3.3,0,4.6c1.3,1.3,3.3,1.3,4.6,0C1477.8,194.2,1477.8,192.1,1476.5,190.9
							C1475.2,189.6,1477.8,192.1,1476.5,190.9z"/>

				<polyline class="lines" points="0,99.9 1114.4,99.9 1133.8,80.5 1255.1,80.5 1265.6,70.1 1406.8,70.1 1452.1,115.4 1452.1,131.6"/>

						<circle class="circle" cx="1452.1" cy="131.3" r="3.8"/>
						<path class="dot" d="M1447.9,131.3c0-2.3,1.9-4.3,4.3-4.3s4.3,1.9,4.3,4.3c0,2.3-1.9,4.3-4.3,4.3S1447.9,133.7,1447.9,131.3
							C1447.9,129,1447.9,133.7,1447.9,131.3z M1455.4,131.3c0-1.8-1.5-3.3-3.3-3.3s-3.3,1.5-3.3,3.3c0,1.8,1.5,3.3,3.3,3.3
							S1455.4,133.1,1455.4,131.3C1455.4,129.5,1455.4,133.1,1455.4,131.3z"/>

				<polyline class="lines" points="0,39.8 1110.1,39.8 1129.5,59.2 1245.4,59.2 1255.1,49.5 1416.8,49.5 1477.5,110.2 1477.5,176.9"/>
						<circle class="circle" cx="1477.5" cy="176.7" r="3.8"/>
						<path class="dot" d="M1473.2,176.7c0-2.3,1.9-4.3,4.3-4.3s4.3,1.9,4.3,4.3c0,2.3-1.9,4.3-4.3,4.3S1473.2,179.1,1473.2,176.7
							C1473.2,174.4,1473.2,179.1,1473.2,176.7z M1480.7,176.7c0-1.8-1.5-3.3-3.3-3.3s-3.3,1.5-3.3,3.3c0,1.8,1.5,3.3,3.3,3.3
							S1480.7,178.5,1480.7,176.7C1480.7,174.9,1480.7,178.5,1480.7,176.7z"/>

				<polyline class="lines" points="0,19.7 1120.1,19.7 1139.6,39.1 1421.8,39.1 1487.7,105 1487.7,207.2"/>

						<circle class="circle" cx="1487.7" cy="207" r="3.8"/>
						<path class="dot" d="M1483.5,207c0-2.3,1.9-4.3,4.3-4.3s4.3,1.9,4.3,4.3c0,2.3-1.9,4.3-4.3,4.3S1483.5,209.3,1483.5,207
							C1483.5,204.6,1483.5,209.3,1483.5,207z M1491,207c0-1.8-1.5-3.3-3.3-3.3s-3.3,1.5-3.3,3.3c0,1.8,1.5,3.3,3.3,3.3
							S1491,208.8,1491,207C1491,205.2,1491,208.8,1491,207z"/>

				<polyline class="lines" points="0,110.4 1129.5,110.4 1148.9,129.8 1211.1,129.8"/>

						<circle class="circle" cx="1210.9" cy="129.8" r="3.8"/>
						<path class="dot" d="M1210.9,134.1c-2.3,0-4.3-1.9-4.3-4.3s1.9-4.3,4.3-4.3c2.3,0,4.3,1.9,4.3,4.3S1213.3,134.1,1210.9,134.1
							C1208.6,134.1,1213.3,134.1,1210.9,134.1z M1210.9,126.6c-1.8,0-3.3,1.5-3.3,3.3s1.5,3.3,3.3,3.3c1.8,0,3.3-1.5,3.3-3.3
							S1212.7,126.6,1210.9,126.6C1209.1,126.6,1212.7,126.6,1210.9,126.6z"/>

				<polyline class="lines" points="0,130.6 1120.1,130.6 1139.6,150 1246.4,150"/>

						<circle class="circle" cx="1246.2" cy="150" r="3.8"/>
						<path class="dot" d="M1246.2,154.2c-2.3,0-4.3-1.9-4.3-4.3s1.9-4.3,4.3-4.3s4.3,1.9,4.3,4.3S1248.5,154.2,1246.2,154.2
							S1248.5,154.2,1246.2,154.2z M1246.2,146.7c-1.8,0-3.3,1.5-3.3,3.3s1.5,3.3,3.3,3.3s3.3-1.5,3.3-3.3S1248,146.7,1246.2,146.7
							S1248,146.7,1246.2,146.7z"/>

				<polyline class="lines" points="0,140.6 1115.1,140.6 1134.5,160.1 1184.9,160.1 1197.6,172.7"/>


							<ellipse transform="matrix(0.7071 -0.7071 0.7071 0.7071 228.7083 897.2353)" class="circle" cx="1197.4" cy="172.5" rx="3.8" ry="3.8"/>
						<path class="dot" d="M1194.4,175.6c-1.7-1.7-1.7-4.4,0-6c1.7-1.7,4.4-1.7,6,0c1.7,1.7,1.7,4.4,0,6
							C1198.8,177.2,1196.1,177.2,1194.4,175.6C1192.7,173.9,1196.1,177.2,1194.4,175.6z M1199.7,170.2c-1.3-1.3-3.3-1.3-4.6,0
							s-1.3,3.3,0,4.6c1.3,1.3,3.3,1.3,4.6,0C1201,173.6,1201,171.5,1199.7,170.2C1198.4,169,1201,171.5,1199.7,170.2z"/>

				<polyline class="lines" points="0,150.7 1110.1,150.7 1129.5,170.1 1174.8,170.1 1187.5,182.8"/>

							<ellipse transform="matrix(0.7071 -0.7071 0.7071 0.7071 218.627 893.0594)" class="circle" cx="1187.3" cy="182.6" rx="3.8" ry="3.8"/>
						<path class="dot" d="M1184.3,185.6c-1.7-1.7-1.7-4.4,0-6c1.7-1.7,4.4-1.7,6,0c1.7,1.7,1.7,4.4,0,6
							C1188.7,187.3,1186,187.3,1184.3,185.6C1182.7,184,1186,187.3,1184.3,185.6z M1189.6,180.3c-1.3-1.3-3.3-1.3-4.6,0
							c-1.3,1.3-1.3,3.3,0,4.6c1.3,1.3,3.3,1.3,4.6,0C1190.9,183.7,1190.9,181.6,1189.6,180.3C1188.4,179,1190.9,181.6,1189.6,180.3
							z"/>

				<polyline class="lines" points="0,160.8 1105,160.8 1124.4,180.2 1164.8,180.2 1177.4,192.9"/>


							<ellipse transform="matrix(0.7071 -0.7071 0.7071 0.7071 208.5454 888.8833)" class="circle" cx="1177.2" cy="192.7" rx="3.8" ry="3.8"/>
						<path class="dot" d="M1174.2,195.7c-1.7-1.7-1.7-4.4,0-6c1.7-1.7,4.4-1.7,6,0c1.7,1.7,1.7,4.4,0,6
							C1178.6,197.4,1175.9,197.4,1174.2,195.7C1172.6,194.1,1175.9,197.4,1174.2,195.7z M1179.6,190.4c-1.3-1.3-3.3-1.3-4.6,0
							c-1.3,1.3-1.3,3.3,0,4.6c1.3,1.3,3.3,1.3,4.6,0C1180.8,193.7,1180.8,191.7,1179.6,190.4
							C1178.3,189.1,1180.8,191.7,1179.6,190.4z"/>

				<polyline class="lines" points="0,120.5 1125.2,120.5 1144.6,139.9 1230.3,139.9 1275.3,94.9 1396.6,94.9 1452.3,150.5
					1452.3,196.1 1474.5,218.3"/>


							<ellipse transform="matrix(0.7071 -0.7071 0.7071 0.7071 277.5485 1106.4392)" class="circle" cx="1474.4" cy="218.2" rx="3.8" ry="3.8"/>
						<path class="dot" d="M1471.4,221.2c-1.7-1.7-1.7-4.4,0-6c1.7-1.7,4.4-1.7,6,0c1.7,1.7,1.7,4.4,0,6
							C1475.7,222.9,1473,222.9,1471.4,221.2C1469.7,219.5,1473,222.9,1471.4,221.2z M1476.7,215.9c-1.3-1.3-3.3-1.3-4.6,0
							c-1.3,1.3-1.3,3.3,0,4.6c1.3,1.3,3.3,1.3,4.6,0C1477.9,219.2,1477.9,217.2,1476.7,215.9
							C1475.4,214.6,1477.9,217.2,1476.7,215.9z"/>
	</g>

	<g id="right">

				<polyline class="lines" points="3000,1 1887.5,1 1865.7,22.8 1693.9,22.8"/>
						<circle class="circle" cx="1694.1" cy="22.8" r="3.8"/>
						<path class="dot" d="M1694.1,18.6c2.3,0,4.3,1.9,4.3,4.3s-1.9,4.3-4.3,4.3s-4.3-1.9-4.3-4.3S1691.7,18.6,1694.1,18.6
							S1691.7,18.6,1694.1,18.6z M1694.1,26.1c1.8,0,3.3-1.5,3.3-3.3s-1.5-3.3-3.3-3.3s-3.3,1.5-3.3,3.3S1692.3,26.1,1694.1,26.1
							S1692.3,26.1,1694.1,26.1z"/>

				<polyline class="lines" points="3000,10.7 1891.5,10.7 1838.1,64.1 1838.1,180.8 1825.5,193.3 1825.5,216.4"/>

						<circle class="circle" cx="1825.5" cy="216.2" r="3.8"/>
						<path class="dot" d="M1821.3,216.2c0-2.3,1.9-4.3,4.3-4.3s4.3,1.9,4.3,4.3c0,2.3-1.9,4.3-4.3,4.3S1821.3,218.6,1821.3,216.2
							C1821.3,213.9,1821.3,218.6,1821.3,216.2z M1828.8,216.2c0-1.8-1.5-3.3-3.3-3.3s-3.3,1.5-3.3,3.3c0,1.8,1.5,3.3,3.3,3.3
							S1828.8,218,1828.8,216.2C1828.8,214.4,1828.8,218,1828.8,216.2z"/>

	</g>
</g>
</svg>
