<?xml version="1.0" encoding="utf-8"?>
<!-- Generator: Adobe Illustrator 27.0.0, SVG Export Plug-In . SVG Version: 6.00 Build 0)  -->
<svg version="1.1" id="circuits" xmlns="http://www.w3.org/2000/svg" xmlns:xlink="http://www.w3.org/1999/xlink" x="0px" y="0px"
	 viewBox="0 0 3000 827.1" style="enable-background:new 0 0 3000 827.1;" xml:space="preserve">
<style type="text/css">
	.st0{fill:none;stroke:#BE202E;stroke-width:3;stroke-miterlimit:10;}
	.st1{fill:#BE202E;stroke:#BE202E;stroke-width:6;stroke-miterlimit:10;}
</style>
<polyline class="st0" points="-1429.6,329.3 829.4,329.3 868.2,368.1 992.6,368.1 "/>
<circle class="st1" cx="992.2" cy="368.1" r="7.6"/>
<polyline class="st0" points="-1429.6,346.5 820.8,346.5 859.6,385.3 1033,385.3 "/>
<circle class="st1" cx="1032.6" cy="385.3" r="7.6"/>
<polyline class="st0" points="-1429.6,386.9 800.6,386.9 839.4,425.7 1033,425.7 "/>
<circle class="st1" cx="1032.6" cy="425.7" r="7.6"/>
<polyline class="st0" points="-1429.6,507.7 790.6,507.7 829.4,468.9 1071.4,468.9 1092.2,448.1 1394,448.1 1504.4,558.5 
	1504.4,699.3 1519,713.9 "/>
<ellipse transform="matrix(0.7071 -0.7071 0.7071 0.7071 -59.8168 1282.9705)" class="st1" cx="1518.8" cy="713.7" rx="7.6" ry="7.6"/>
<polyline class="st0" points="-1429.6,527.1 799.2,527.1 838,488.3 1080.6,488.3 1101.6,467.5 1384,467.5 1474.6,558.1 
	1474.6,590.5 "/>
<circle class="st1" cx="1474.6" cy="589.9" r="7.6"/>
<polyline class="st0" points="-1429.6,406.9 790.6,406.9 829.4,445.7 1061.2,445.7 1080.6,426.3 1404,426.3 1525.4,547.7 
	1525.4,681.1 "/>
<circle class="st1" cx="1525.4" cy="680.7" r="7.6"/>
<polyline class="st0" points="-1429.6,366.7 810.6,366.7 849.6,405.5 1414,405.5 1545.8,537.3 1545.8,741.7 "/>
<circle class="st1" cx="1545.8" cy="741.3" r="7.6"/>
<polyline class="st0" points="-1429.6,548.1 829.4,548.1 868.2,586.9 992.6,586.9 "/>
<circle class="st1" cx="992.2" cy="586.9" r="7.6"/>
<polyline class="st0" points="-1429.6,588.5 810.6,588.5 849.6,627.3 1063.2,627.3 "/>
<circle class="st1" cx="1062.8" cy="627.3" r="7.6"/>
<polyline class="st0" points="-1429.6,608.5 800.6,608.5 839.4,647.5 940.2,647.5 965.6,672.7 "/>
<ellipse transform="matrix(0.7071 -0.7071 0.7071 0.7071 -192.7747 879.3692)" class="st1" cx="965.1" cy="672.4" rx="7.6" ry="7.6"/>
<polyline class="st0" points="-1429.6,628.7 790.6,628.7 829.4,667.5 920,667.5 945.4,692.9 "/>
<ellipse transform="matrix(0.7071 -0.7071 0.7071 0.7071 -212.9743 871.033)" class="st1" cx="944.9" cy="692.6" rx="7.6" ry="7.6"/>
<polyline class="st0" points="-1429.6,648.9 780.4,648.9 819.2,687.7 900,687.7 925.2,713.1 "/>
<ellipse transform="matrix(0.7071 -0.7071 0.7071 0.7071 -233.1741 862.696)" class="st1" cx="924.8" cy="712.8" rx="7.6" ry="7.6"/>
<polyline class="st0" points="-1429.6,568.3 820.8,568.3 859.6,607.1 1031,607.1 1121,517.1 1363.6,517.1 1475,628.3 1475,719.5 
	1519.4,763.9 "/>
<ellipse transform="matrix(0.7071 -0.7071 0.7071 0.7071 -95.0606 1297.8787)" class="st1" cx="1519.1" cy="763.7" rx="7.6" ry="7.6"/>
<polyline class="st0" points="4570.4,329.3 2345.4,329.3 2301.8,372.9 1958.2,372.9 "/>
<circle class="st1" cx="1958.6" cy="372.9" r="7.6"/>
<polyline class="st0" points="4570.4,348.7 2353.4,348.7 2246.6,455.5 2246.6,688.9 2221.4,713.9 2221.4,760.1 "/>
<circle class="st1" cx="2221.4" cy="759.7" r="7.6"/>
</svg>
