<svg xmlns="http://www.w3.org/2000/svg" version="1.1" xmlns:xlink="http://www.w3.org/1999/xlink" xmlns:svgjs="http://svgjs.dev/svgjs" width="1000" height="1000"><g clip-path="url(#SvgjsClipPath1104)"><rect width="1000" height="1000" fill="#ffffff"></rect><g transform="matrix(1.5748031496062993,0,0,1.5748031496062993,100,240.70866141732282)"><svg xmlns="http://www.w3.org/2000/svg" version="1.1" xmlns:xlink="http://www.w3.org/1999/xlink" xmlns:svgjs="http://svgjs.dev/svgjs" width="508" height="329.3"><svg version="1.1" id="intro-logo" xmlns="http://www.w3.org/2000/svg" xmlns:xlink="http://www.w3.org/1999/xlink" x="0px" y="0px" viewBox="0 0 508 329.3" style="enable-background:new 0 0 508 329.3;" xml:space="preserve">
<style type="text/css">
	.st0{enable-background:new    ;} 
</style>
<g>
	<g id="top" transform="matrix(1,0,0,1,0,0)">
		<path d="M126,0H49.4H0v98.6h49.4V49.4H126V0z"></path>
	</g>
	<g id="bottom" transform="matrix(1,0,0,1,0,0)">
		<path d="M382,329.3h126v-49.4v-49.2h-49.4v49.2H382V329.3z"></path>
	</g>
</g>
<g class="st0">
	<path d="M105.4,79.1c1.5,2.7,3.2,6.1,5.1,10.1c1.9,4,4,8.3,6.1,13c2.1,4.7,4.2,9.4,6.3,14.3c2.1,4.9,4,9.4,5.8,13.7
		c1.8-4.3,3.8-8.9,5.8-13.7c2.1-4.9,4.1-9.6,6.3-14.3c2.1-4.7,4.1-9,6.1-13c1.9-4,3.7-7.4,5.1-10.1h17.5c0.8,5.7,1.6,12,2.3,19.1
		c0.7,7,1.3,14.4,1.9,22c0.5,7.6,1,15.3,1.5,22.9c0.5,7.7,0.8,14.9,1.2,21.6h-18.8c-0.2-8.3-0.6-17.4-1-27.2
		c-0.4-9.8-1-19.7-1.9-29.7c-1.5,3.5-3.1,7.3-5,11.5c-1.8,4.2-3.6,8.4-5.4,12.6c-1.8,4.2-3.5,8.2-5.1,12s-3.1,7.1-4.2,9.8h-13.5
		c-1.2-2.7-2.6-6-4.2-9.8s-3.4-7.8-5.1-12c-1.8-4.2-3.6-8.4-5.4-12.6c-1.8-4.2-3.5-8-5-11.5c-0.8,10-1.4,19.9-1.9,29.7
		c-0.4,9.8-0.7,18.9-1,27.2H80.2c0.3-6.8,0.7-14,1.2-21.6c0.5-7.7,0.9-15.3,1.5-22.9c0.5-7.6,1.2-15,1.9-22c0.7-7,1.5-13.4,2.3-19.1
		H105.4z"></path>
	<path d="M251,164.8c-1-3-2-6-3.1-9.2c-1.1-3.1-2.2-6.3-3.3-9.4h-33.4c-1.1,3.1-2.2,6.3-3.3,9.4c-1.1,3.1-2.1,6.2-3,9.1h-20
		c3.2-9.2,6.3-17.8,9.2-25.6c2.9-7.8,5.7-15.2,8.5-22.1c2.8-6.9,5.5-13.5,8.2-19.7c2.7-6.2,5.5-12.3,8.4-18.2h18.3
		c2.8,5.9,5.6,12,8.3,18.2c2.7,6.2,5.5,12.8,8.3,19.7c2.8,6.9,5.6,14.3,8.5,22.1c2.9,7.8,6,16.4,9.2,25.6H251z M227.8,98.5
		c-0.4,1.2-1.1,2.9-1.9,5.1c-0.8,2.1-1.8,4.6-2.8,7.4c-1.1,2.8-2.2,5.9-3.5,9.3s-2.6,6.9-4,10.6H240c-1.3-3.7-2.6-7.3-3.8-10.6
		c-1.2-3.4-2.4-6.5-3.5-9.3c-1.1-2.8-2.1-5.3-2.9-7.4C229,101.4,228.3,99.7,227.8,98.5z"></path>
	<path d="M333.1,164.8c-1.7-2.8-3.8-5.8-6.1-9c-2.4-3.2-4.9-6.5-7.6-9.8c-2.7-3.3-5.6-6.4-8.5-9.5c-3-3-5.9-5.7-8.9-8v36.3h-19.3
		V79.1h19.3v32.2c5-5.2,10-10.6,15.1-16.3c5.1-5.7,9.8-11,14.2-15.8H354c-5.8,6.9-11.7,13.6-17.6,20c-5.9,6.4-12.1,12.9-18.6,19.3
		c6.8,5.7,13.5,12.5,19.8,20.3c6.4,7.8,12.5,16.5,18.4,25.9H333.1z"></path>
	<path d="M367.1,164.8V79.1H425v16.2h-38.6v16.8h34.2v15.8h-34.2v20.6h41.4v16.2H367.1z"></path>
</g>
<g class="st0">
	<path d="M130,246.1c2.9,0,5.1-0.4,6.5-1.2c1.4-0.8,2.1-2,2.1-3.7c0-1.7-0.7-3.1-2.1-4.2c-1.4-1-3.7-2.2-6.8-3.5
		c-1.5-0.6-3-1.2-4.4-1.9c-1.4-0.6-2.6-1.4-3.7-2.3c-1-0.9-1.8-1.9-2.5-3.2c-0.6-1.2-0.9-2.7-0.9-4.5c0-3.5,1.3-6.3,3.9-8.4
		c2.6-2.1,6.2-3.1,10.7-3.1c1.1,0,2.3,0.1,3.4,0.2c1.1,0.1,2.2,0.3,3.2,0.5c1,0.2,1.8,0.4,2.6,0.6c0.7,0.2,1.3,0.4,1.7,0.5l-1.3,6.2
		c-0.8-0.4-2-0.8-3.6-1.3c-1.6-0.4-3.6-0.7-5.9-0.7c-2,0-3.7,0.4-5.2,1.2c-1.5,0.8-2.2,2-2.2,3.7c0,0.9,0.2,1.6,0.5,2.3
		c0.3,0.7,0.8,1.3,1.5,1.8s1.5,1,2.6,1.5c1,0.5,2.3,0.9,3.7,1.5c1.9,0.7,3.6,1.4,5.1,2.1c1.5,0.7,2.8,1.5,3.8,2.4
		c1.1,0.9,1.9,2,2.4,3.3c0.6,1.3,0.8,2.9,0.8,4.8c0,3.7-1.4,6.5-4.1,8.4c-2.7,1.9-6.7,2.8-11.7,2.8c-3.5,0-6.3-0.3-8.3-0.9
		c-2-0.6-3.4-1-4.1-1.3l1.3-6.2c0.8,0.3,2.1,0.8,3.9,1.4C124.6,245.8,127,246.1,130,246.1z"></path>
	<path d="M167.9,210.3c2.9,0,5.3,0.4,7.3,1.1c2,0.7,3.6,1.8,4.8,3.2c1.2,1.4,2.1,3,2.6,4.8c0.5,1.9,0.8,3.9,0.8,6.2v25
		c-0.6,0.1-1.5,0.2-2.6,0.4c-1.1,0.2-2.3,0.3-3.7,0.5c-1.4,0.2-2.9,0.3-4.5,0.4c-1.6,0.1-3.2,0.2-4.8,0.2c-2.3,0-4.3-0.2-6.2-0.7
		c-1.9-0.5-3.5-1.2-4.9-2.2c-1.4-1-2.5-2.3-3.2-4c-0.8-1.6-1.2-3.6-1.2-5.9c0-2.2,0.4-4.1,1.3-5.7c0.9-1.6,2.1-2.9,3.7-3.8
		c1.5-1,3.3-1.7,5.4-2.2c2-0.5,4.2-0.7,6.5-0.7c0.7,0,1.5,0,2.2,0.1c0.8,0.1,1.5,0.2,2.2,0.3c0.7,0.1,1.3,0.2,1.8,0.3
		c0.5,0.1,0.9,0.2,1.1,0.2v-2c0-1.2-0.1-2.3-0.4-3.5c-0.3-1.2-0.7-2.2-1.4-3.1c-0.7-0.9-1.6-1.6-2.7-2.2c-1.2-0.5-2.7-0.8-4.5-0.8
		c-2.4,0-4.4,0.2-6.2,0.5c-1.8,0.3-3.1,0.7-4,1l-0.8-5.9c0.9-0.4,2.5-0.8,4.6-1.2S165.4,210.3,167.9,210.3z M168.5,246.1
		c1.7,0,3.2,0,4.5-0.1c1.3-0.1,2.4-0.2,3.3-0.4v-11.9c-0.5-0.3-1.3-0.5-2.5-0.7c-1.2-0.2-2.6-0.3-4.2-0.3c-1.1,0-2.2,0.1-3.4,0.2
		c-1.2,0.2-2.3,0.5-3.3,1c-1,0.5-1.8,1.2-2.5,2c-0.7,0.8-1,2-1,3.3c0,2.6,0.8,4.3,2.5,5.3C163.5,245.6,165.7,246.1,168.5,246.1z"></path>
	<path d="M195.1,212.4c1.6-0.4,3.8-0.8,6.5-1.3c2.7-0.5,5.8-0.7,9.4-0.7c3.2,0,5.8,0.4,7.9,1.3c2.1,0.9,3.8,2.2,5,3.8
		c1.3,1.6,2.1,3.6,2.7,5.8c0.5,2.3,0.8,4.7,0.8,7.5v22.5h-7.2v-20.9c0-2.5-0.2-4.6-0.5-6.3c-0.3-1.7-0.9-3.2-1.7-4.2
		c-0.8-1.1-1.8-1.9-3.1-2.3c-1.3-0.5-2.9-0.7-4.8-0.7c-0.8,0-1.6,0-2.4,0.1c-0.8,0.1-1.6,0.1-2.3,0.2c-0.7,0.1-1.4,0.2-2,0.3
		c-0.6,0.1-1,0.2-1.3,0.2v33.8h-7.2V212.4z"></path>
	<path d="M245.9,211.3h15.1v6h-15.1v18.5c0,2,0.2,3.7,0.5,5c0.3,1.3,0.8,2.3,1.4,3.1c0.6,0.7,1.4,1.3,2.3,1.6c0.9,0.3,2,0.5,3.2,0.5
		c2.2,0,3.9-0.2,5.2-0.7c1.3-0.5,2.2-0.8,2.7-1l1.4,5.9c-0.7,0.4-2,0.8-3.8,1.3c-1.8,0.5-3.8,0.8-6.2,0.8c-2.7,0-5-0.3-6.7-1
		c-1.8-0.7-3.2-1.7-4.3-3.1s-1.8-3.1-2.3-5.1c-0.4-2-0.7-4.4-0.7-7v-35.7l7.2-1.2V211.3z"></path>
	<path d="M283.1,210.3c2.9,0,5.3,0.4,7.3,1.1c2,0.7,3.6,1.8,4.8,3.2c1.2,1.4,2.1,3,2.6,4.8c0.5,1.9,0.8,3.9,0.8,6.2v25
		c-0.6,0.1-1.5,0.2-2.6,0.4c-1.1,0.2-2.3,0.3-3.7,0.5s-2.9,0.3-4.5,0.4c-1.6,0.1-3.2,0.2-4.8,0.2c-2.3,0-4.3-0.2-6.2-0.7
		c-1.9-0.5-3.5-1.2-4.9-2.2s-2.5-2.3-3.2-4c-0.8-1.6-1.2-3.6-1.2-5.9c0-2.2,0.4-4.1,1.3-5.7c0.9-1.6,2.1-2.9,3.7-3.8
		c1.5-1,3.3-1.7,5.4-2.2c2-0.5,4.2-0.7,6.5-0.7c0.7,0,1.5,0,2.2,0.1c0.8,0.1,1.5,0.2,2.2,0.3c0.7,0.1,1.3,0.2,1.8,0.3
		c0.5,0.1,0.9,0.2,1.1,0.2v-2c0-1.2-0.1-2.3-0.4-3.5c-0.3-1.2-0.7-2.2-1.4-3.1c-0.7-0.9-1.6-1.6-2.7-2.2c-1.2-0.5-2.7-0.8-4.5-0.8
		c-2.4,0-4.4,0.2-6.2,0.5c-1.8,0.3-3.1,0.7-4,1l-0.8-5.9c0.9-0.4,2.5-0.8,4.6-1.2C278.2,210.5,280.6,210.3,283.1,210.3z
		 M283.7,246.1c1.7,0,3.2,0,4.5-0.1c1.3-0.1,2.4-0.2,3.3-0.4v-11.9c-0.5-0.3-1.3-0.5-2.5-0.7c-1.2-0.2-2.5-0.3-4.2-0.3
		c-1.1,0-2.2,0.1-3.4,0.2c-1.2,0.2-2.3,0.5-3.3,1c-1,0.5-1.8,1.2-2.5,2c-0.7,0.8-1,2-1,3.3c0,2.6,0.8,4.3,2.5,5.3
		C278.6,245.6,280.9,246.1,283.7,246.1z"></path>
	<path d="M343.6,191.6c2.1,0,3.9,0.2,5.4,0.5c1.5,0.3,2.6,0.6,3.2,0.8L351,199c-0.6-0.3-1.5-0.6-2.6-0.9c-1.1-0.3-2.5-0.4-4.2-0.4
		c-3.3,0-5.7,0.9-7,2.7c-1.3,1.8-2,4.3-2,7.3v3.5h15.4v6h-15.4v34H328v-43.6c0-5.1,1.3-9.1,3.8-11.9
		C334.3,193,338.3,191.6,343.6,191.6z"></path>
	<path d="M355.5,231.3c0-3.5,0.5-6.6,1.5-9.3c1-2.6,2.4-4.8,4.1-6.6c1.7-1.7,3.6-3,5.8-3.9c2.2-0.9,4.5-1.3,6.8-1.3
		c5.4,0,9.5,1.7,12.4,5c2.9,3.4,4.3,8.5,4.3,15.3c0,0.3,0,0.7,0,1.2c0,0.5,0,0.9-0.1,1.3h-27.4c0.3,4.2,1.5,7.3,3.6,9.5
		c2.1,2.2,5.4,3.2,9.8,3.2c2.5,0,4.6-0.2,6.3-0.7c1.7-0.4,3-0.9,3.9-1.3l1,6c-0.9,0.5-2.4,0.9-4.6,1.5c-2.2,0.5-4.7,0.8-7.4,0.8
		c-3.5,0-6.5-0.5-9-1.6c-2.5-1.1-4.6-2.5-6.3-4.3s-2.9-4-3.7-6.6C355.9,237.1,355.5,234.4,355.5,231.3z M382.9,227.4
		c0-3.2-0.8-5.9-2.4-8c-1.7-2.1-4-3.1-6.9-3.1c-1.6,0-3.1,0.3-4.3,1c-1.3,0.6-2.3,1.5-3.2,2.5c-0.9,1-1.6,2.2-2,3.5
		c-0.5,1.3-0.8,2.7-1,4.1H382.9z"></path>
</g>
</svg></svg></g></g><defs><clipPath id="SvgjsClipPath1104"><rect width="1000" height="1000" x="0" y="0" rx="500" ry="500"></rect></clipPath></defs></svg>