<?xml version="1.0" encoding="UTF-8"?>
<svg id="circuits" xmlns="http://www.w3.org/2000/svg" version="1.1" viewBox="0 0 3594.4 347">
  <!-- Generator: Adobe Illustrator 29.2.1, SVG Export Plug-In . SVG Version: 2.1.0 Build 116)  -->
  <defs>
    <style>
      .st0 {
        stroke-width: 3.8px;
      }

      .st0, .st1, .st2, .st3, .st4, .st5, .st6, .st7, .st8, .st9, .st10 {
        fill: none;
      }

      .st0, .st1, .st2, .st3, .st4, .st5, .st6, .st7, .st9, .st10 {
        stroke: #dcdcdc;
        stroke-linecap: round;
        stroke-linejoin: round;
      }

      .st1 {
        stroke-width: 3.8px;
      }

      .st2 {
        stroke-width: 3.5px;
      }

      .st3 {
        stroke-width: 2.5px;
      }

      .st4 {
        stroke-width: 3.2px;
      }

      .st5 {
        stroke-width: 2px;
      }

      .st6, .st7 {
        stroke-width: 2.2px;
      }

      .st7 {
        stroke-dasharray: 0 0 4.5 6.7;
      }

      .st11 {
        fill: #fff;
      }

      .st8 {
        stroke: #fff;
        stroke-miterlimit: 1.3;
        stroke-width: 6px;
      }

      .st12 {
        opacity: .8;
      }

      .st13 {
        opacity: .4;
      }

      .st14 {
        opacity: .6;
      }

      .st9 {
        stroke-width: 1.8px;
      }

      .st10 {
        stroke-width: 1.7px;
      }
      text {
        font-size: 6.2em;
        font-weight:700;
        fill: #fff;
        font-family: 'Montserrat', sans-serif;
      }
    </style>
  </defs>
  <g id="circut">
    <polyline class="st8" points="29.3 3748.5 29.3 649 82.5 595.8 82.5 212.6"/>
    <circle class="st11" cx="82.4" cy="214.7" r="14.6"/>
    <polyline class="st8" points="52.9 3748.5 52.9 660.8 106.1 607.6 106.1 369.7"/>
    <circle class="st11" cx="106" cy="370.1" r="14.6" transform="translate(-269.9 453.3) rotate(-86.5)"/>
    <polyline class="st8" points="108.3 3748.5 108.3 688.5 161.5 635.3 161.5 369.7"/>
    <circle class="st11" cx="161.1" cy="370.6" r="14.6"/>
    <polyline class="st8" points="274 3748.5 274 702.3 220.8 649 220.8 317 192.3 288.4 192.3 -125.7 343.7 -277.1 536.9 -277.1 557 -297.2"/>
    <polyline class="st8" points="300.7 3748.5 300.7 690.5 247.4 637.2 247.4 304.4 218.9 275.5 218.9 -111.9 343.2 -236.2 387.7 -236.2"/>
    <circle class="st11" cx="386.8" cy="-235.8" r="14.6"/>
    <polyline class="st8" points="135.7 3748.5 135.7 702.3 189 649 189 331 162.4 304.4 162.4 -139.4 328.9 -305.9 512 -305.9"/>
    <circle class="st11" cx="511.4" cy="-305.4" r="14.6"/>
    <polyline class="st8" points="80.6 3748.5 80.6 674.8 133.8 621.3 133.8 -153.1 314.7 -333.9 595.1 -333.9"/>
    <circle class="st11" cx="594.6" cy="-333.4" r="14.6" transform="translate(126.9 162.6) rotate(-17.4)"/>
    <polyline class="st8" points="329.5 3748.5 329.5 649 382.7 595.8 382.7 425.1"/>
    <circle class="st11" cx="382.2" cy="426.2" r="14.6"/>
    <polyline class="st8" points="384.9 3748.5 384.9 674.8 438.1 621.3 438.1 328.2"/>
    <circle class="st11" cx="437.7" cy="329.3" r="14.6"/>
    <circle class="st11" cx="499.9" cy="462.7" r="14.6"/>
    <circle class="st11" cx="527.7" cy="490.5" r="14.6"/>
    <circle class="st11" cx="555.3" cy="518.3" r="14.6"/>
    <circle class="st11" cx="557" cy="-296.7" r="14.6" transform="translate(114.2 153) rotate(-17.4)"/>
    <circle class="st11" cx="625.6" cy="-297.2" r="14.6" transform="translate(117.5 173.5) rotate(-17.4)"/>
    <polyline class="st8" points="412.4 3748.5 412.4 688.5 465.9 635.3 465.9 497 500.4 462.1"/>
    <polyline class="st8" points="440.1 3748.5 440.1 702.3 493.3 649 493.3 524.7 528.2 489.9"/>
    <polyline class="st8" points="467.8 3748.5 467.8 716.2 521 663 521 552.1 555.9 517.6"/>
    <circle class="st11" cx="3054.3" cy="160.8" r="14.6" transform="translate(91.7 920.7) rotate(-17.4)"/>
    <circle class="st11" cx="3082.1" cy="188.6" r="14.6" transform="translate(84.6 930.3) rotate(-17.4)"/>
    <circle class="st11" cx="3109.8" cy="216.2" r="14.6" transform="translate(77.6 939.8) rotate(-17.4)"/>
    <polyline class="st8" points="2966 3444.8 2966 384.9 3019.5 331.6 3019.5 193.3 3054.1 158.5"/>
    <polyline class="st8" points="2993.7 3444.8 2993.7 398.6 3046.9 345.3 3046.9 221 3081.8 186.2"/>
    <polyline class="st8" points="3021.4 3444.8 3021.4 412.6 3074.7 359.3 3074.7 248.5 3109.5 213.9"/>
    <polyline class="st8" points="357.2 3748.5 357.2 660.8 410.4 607.6 410.4 372.4 286.9 248.9 286.9 -83.9 439.5 -236.8 564.7 -236.8 625.6 -297.7"/>
    <polyline class="st8" points="3388.9 3264.2 3388.9 211.4 3329.1 151.6 3329.1 -319.9"/>
    <circle class="st11" cx="3331.6" cy="-319.3" r="14.6" transform="translate(3604.4 3016.4) rotate(-89.2)"/>
    <polyline class="st8" points="3362.3 3264.2 3362.3 222.4 3215.7 75.8 2895.5 75.8 2861.2 41.2 2797.8 41.2"/>
    <circle class="st11" cx="2797.9" cy="48.6" r="14.6"/>
  </g>
  <g id="objects">
    <g class="st12">
      <path class="st2" d="M517.3,232.5c-19.2-68.4,91.8-69.1,91.8-69.1v-16.6h-175.2v46.1s22.8,15.5,7.2,39.6"/>
      <line class="st2" x1="529" y1="232.5" x2="421.5" y2="232.5"/>
      <rect class="st2" x="421.5" y="232.5" width="107.5" height="27.3"/>
      <rect class="st2" x="419.8" y="150.9" width="13.9" height="42.1"/>
      <path class="st2" d="M336.3,153.7h83.6v36.4c-35,0-61.7-9.7-83.6-36.4h0Z"/>
      <path class="st2" d="M452.6,60.9l47.4,18.8-5.9,12-3.8,12.6-114.3-45.5c-6.8-2.7-10.1-10.4-7.4-17.1h0c2.7-6.8,10.4-10.1,17.1-7.4l38.1,15.1M430.1,51.9l7.2,2.9M527.1,90.5l3.9,1.6c2,.8,2.9,3.1,2.2,5l-6.9,17.3c-.8,2-3.1,2.9-5,2.2l-3.9-1.5,5.8-11.8,3.9-12.7h0Z"/>
      <polygon class="st2" points="522.6 62.5 510.9 57.9 494.1 91.7 483 127.9 494.7 132.5 506.4 137.1 523.1 103.2 534.3 67.1 522.6 62.5"/>
      <line class="st2" x1="575.3" y1="103.1" x2="547.4" y2="125.1"/>
      <line class="st2" x1="585.8" y1="134.6" x2="553.6" y2="134.6"/>
      <line class="st2" x1="457.8" y1="163.7" x2="517.3" y2="163.7"/>
      <line class="st2" x1="527.6" y1="163.7" x2="534.3" y2="163.7"/>
    </g>
    <g class="st13">
      <path class="st10" d="M2543.6-10.7c-2.2,0-4-1.8-4-4v-4.4c0-2.2,1.8-4,4-4h65.8c2.2,0,4,1.8,4,4v4.4c0,2.2-1.8,4-4,4h-37.2"/>
      <g>
        <g>
          <g>
            <path class="st10" d="M2553.9,89.6l-.3,1.2c-.6,2.7-3.9,4.7-7.6,4.7h-41.4c-3.8,0-7-2-7.6-4.7l-.3-1.2c1.3.5,2.9.9,4.4.9h48.3c1.6,0,3.1-.3,4.4-.9h.1Z"/>
            <path class="st10" d="M2563.7,61.5l-5.4,23.5c-.5,2-2.2,3.7-4.5,4.7-1.3.5-2.9.9-4.4.9h-48.3c-1.6,0-3.1-.3-4.4-.9-2.3-1-4-2.7-4.5-4.7l-15.3-67"/>
            <line class="st10" x1="2573.7" y1="17.9" x2="2564.8" y2="60"/>
          </g>
          <g>
            <path class="st10" d="M2572.4,24.4h10.1c3.1,0,5.4,2.3,4.7,4.7l-3.6,12.4c-.5,1.7-2.5,3-4.7,3h-10.5"/>
            <path class="st10" d="M2478.2,24.4h-10.1c-3.1,0-5.4,2.3-4.7,4.7l3.6,12.4c.5,1.7,2.5,3,4.7,3h10.5"/>
          </g>
        </g>
        <path class="st10" d="M2531.7,9.3c23.1.6,42,4.3,42,8.5s-21.7,8.4-48.4,8.4-48.4-3.8-48.4-8.4,19.5-7.9,43.5-8.4"/>
      </g>
      <path class="st10" d="M2498.4-9.5c-3.4-2.4-5.4-5.2-5.4-8.3,0-8.3,14.4-15,32.3-15s32.3,6.7,32.3,15h0c0,3.1-2,5.9-5.4,8.3"/>
      <g>
        <path class="st10" d="M2532.8-4.6s-.3.5-.6,1.5c8.3-.8,15.5-3.2,20-6.4-5.8-4-15.7-6.7-26.9-6.7s-21.1,2.7-26.9,6.7c4.8,3.4,12.6,5.8,21.6,6.5-.4-1-.7-1.6-.7-1.6h13.5,0Z"/>
        <path class="st10" d="M2525.3,3.2c-1.4,0-2.8,0-4.1,0,.2,3.2-.4,7.1-2.9,10.7-9.9.5-17.2,2.1-17.2,4s10.8,4.2,24.2,4.2,24.2-1.9,24.2-4.2-6.5-3.3-15.7-3.9c-2.6-3.7-3.2-7.6-3-10.9-1.8,0-3.7.2-5.6.2,0,0,.1,0,.1,0Z"/>
        <path class="st10" d="M2519.9-3c.5,1.4,1.1,3.6,1.3,6.2,1.4,0,2.7,0,4.1,0s3.7,0,5.6-.2c.2-2.6.8-4.8,1.3-6.2"/>
        <path class="st10" d="M2532.1-3.1c.3-.9.6-1.5.6-1.5h-13.5s.3.6.7,1.6"/>
      </g>
    </g>
    <g class="st13">
      <path class="st5" d="M3455,40.3c7.1,1.2,15.5,1.7,26.5,1.7,21.4,0,38.7-2.7,38.7-5.9l-2.2,31.8"/>
      <path class="st5" d="M3446.5,87.7l-2.7-37.9"/>
      <path class="st5" d="M3447.5,100.6l-.7-9"/>
      <path class="st5" d="M3517.5,76.1l-3.8,52.8c-.6,8-7.2,14.1-15.1,14.1h-34c-8,0-14.5-6.1-15.1-14.1l-1.2-16.9"/>
      <path class="st5" d="M3501.4,94.3s32.5,2.7,39.2-.9c7.9-4.3-7-10-14.5-9.3"/>
      <path class="st5" d="M3504.2,109s23.7,2,28.6-.7c5.8-3.2-5.1-7.3-10.6-6.7"/>
      <path class="st5" d="M3511.3,32.4c6.2,1.1,9,2.2,9,3.8,0,3.3-17.3,5.9-38.7,5.9s-19.7-.7-26.7-1.7"/>
      <line class="st5" x1="3467.9" y1="51.4" x2="3469" y2="85.9"/>
      <g>
        <path class="st5" d="M3423.7,147.9v9.8c0,2.7,26,4.8,57.9,4.8s57.9-2.2,57.9-4.8v-9.8"/>
        <ellipse class="st5" cx="3481.5" cy="147.9" rx="57.9" ry="4.8"/>
      </g>
      <path class="st5" d="M3390.6,132.6s1.5-.1,11.3,4.7,18,2.5,26.2-4.1c8.2-6.7,16.9-13.4,16.2-21,0-.3,20.3,0,21.2-4.8s-3.8-5.7-11-6.1-34.8-2.6-34.8-2.6c0,0,24.2-.9,26.3-5.5.6-1.3.9-2.3,1-3.1.2-1.2-.7-2.2-2-2.2h-32.1c-1.4,0-2.9.4-4.1,1.1l-17.8,9.8"/>
      <path class="st5" d="M3423.8,113.1s22.3-1.1,22.6-1.1"/>
      <path class="st5" d="M3417.8,123.2s14,.3,23.4-2.1"/>
      <path class="st5" d="M3410.5,131.1s13,.5,22.5-1.9"/>
      <path class="st5" d="M3455,12.7c6.3.7,46.4,14.7,55.2,18.7,3,1.3,1.4,7.3-.4,7.7-2,.4-25.3-3.1-25.3-2.8,2,1.7,3.2,3.5,3.9,5.6h-14.3c-4.4-4.8-11.5-7.8-14.8-7.1-4.6,1-6.1,7.5-1.2,13.7,5,6.1,6.4,12.3,5.9,14.7-.4,2.4-4.2,5.8-10.9.3-4.8-3.9-8.4-14.6-13-18.1-10.2-7.7-10.1-21.1-10.1-21.1"/>
      <path class="st5" d="M3474,30.1s8.5,3.5,12.1,8.1"/>
    </g>
    <g class="st13">
      <polygon class="st5" points="2696.2 110.1 2703.6 105.6 2703.6 194.8 2696.2 190.2 2696.2 138.5 2696.2 110.1"/>
      <path class="st5" d="M2773.3,100.8h25.5M2817.1,100.8h27.1v13.5h-18.5v22.2h18.5v6.8h-30.6v23.6h30.6v32.1h-140.6v-98.2h69.7"/>
      <rect class="st5" x="2709.2" y="115.7" width="71.4" height="13"/>
      <path class="st5" d="M2780.5,128.6v6.7h-7.3v-6.7h7.3ZM2768.2,135.3h-7.9v-6.7h7.9v6.7h0ZM2755.3,135.3h-7.9v-6.7h7.9v6.7h0ZM2742.4,135.3h-7.9v-6.7h7.9v6.7h0ZM2729.4,135.3h-7.9v-6.7h7.9v6.7h0ZM2716.5,135.3h-7.3v-6.7h7.3v6.7Z"/>
      <rect class="st5" x="2716.4" y="128.6" width="5.1" height="11.8"/>
      <rect class="st5" x="2729.4" y="128.6" width="5.1" height="11.8"/>
      <rect class="st5" x="2742.3" y="128.6" width="5.1" height="11.8"/>
      <rect class="st5" x="2755.3" y="128.6" width="5.1" height="11.8"/>
      <rect class="st5" x="2768.2" y="128.6" width="5.1" height="11.8"/>
      <rect class="st5" x="2716.4" y="108.7" width="5.1" height="6.9"/>
      <rect class="st5" x="2729.4" y="108.7" width="5.1" height="6.9"/>
      <rect class="st5" x="2742.3" y="108.7" width="5.1" height="6.9"/>
      <rect class="st5" x="2755.3" y="108.7" width="5.1" height="6.9"/>
      <rect class="st5" x="2768.2" y="108.7" width="5.1" height="6.9"/>
      <rect class="st5" x="2710.5" y="172.4" width="89.9" height="8.3"/>
      <rect class="st5" x="2710.5" y="180.7" width="89.9" height="11.9"/>
      <path class="st5" d="M2825.7,177.4c3.4,0,6.2-1.6,6.2-3.6s-2.8-3.6-6.2-3.6-6.2,1.6-6.2,3.6,2.8,3.6,6.2,3.6Z"/>
      <path class="st5" d="M2831.9,173.8v10.5h0c0,2-2.8,3.6-6.2,3.6s-6.2-1.6-6.2-3.6h0v-10.5c0,2,2.8,3.6,6.2,3.6s6.2-1.6,6.2-3.6Z"/>
      <path class="st5" d="M2813.7,175.4h5.8v8.9h0c0,2,2.8,3.6,6.2,3.6s6.2-1.6,6.2-3.6h0v-8.9h5.8v17.9h-23.9v-17.9h-.1Z"/>
      <g>
        <rect class="st5" x="2813.6" y="157" width="39.8" height="9.9"/>
        <line class="st5" x1="2813.6" y1="166.9" x2="2853.4" y2="166.9"/>
        <rect class="st5" x="2813.6" y="143.3" width="39.8" height="13.7"/>
      </g>
      <g>
        <rect class="st5" x="2825.6" y="126.9" width="27.8" height="9.6"/>
        <rect class="st5" x="2825.6" y="114.3" width="27.8" height="12.6"/>
      </g>
      <rect class="st5" x="2717.2" y="149.9" width="81.2" height="13.2"/>
      <line class="st5" x1="2799.2" y1="125" x2="2814.5" y2="125"/>
      <line class="st5" x1="2779.4" y1="158.2" x2="2787.3" y2="158.2"/>
      <path class="st5" d="M2807.2,82.3h0c4.8,0,8.7,3.9,8.7,8.7v12.9h-17.4v-12.9c0-4.8,3.9-8.7,8.7-8.7Z"/>
      <line class="st5" x1="2803.2" y1="103.8" x2="2803.2" y2="125"/>
      <line class="st5" x1="2811.1" y1="103.8" x2="2811.1" y2="125"/>
      <path class="st5" d="M2811.1,90.9v6.3"/>
      <g>
        <line class="st5" x1="2824.8" y1="95.3" x2="2834.3" y2="95.3"/>
        <line class="st5" x1="2822.9" y1="89.9" x2="2829.6" y2="83.2"/>
      </g>
      <g>
        <line class="st5" x1="2790.7" y1="95.3" x2="2781.2" y2="95.3"/>
        <line class="st5" x1="2792.7" y1="89.9" x2="2786" y2="83.2"/>
      </g>
      <line class="st5" x1="2803.6" y1="131" x2="2810.9" y2="131"/>
    </g>
    <g class="st14">
      <path class="st4" d="M2679.1,417.5c-9,3.3-18.7,5.1-28.9,5.1-46.6,0-84.4-37.8-84.4-84.4s5.2-33.2,14-46.5M2650.1,253.8c46.6,0,84.4,37.8,84.4,84.4s-13.7,52.8-34.6,68.1M2584.5,285.1c1.9-2.4,4-4.7,6.2-6.9M2606.3,266c12.8-7.7,27.8-12.2,43.8-12.2"/>
      <path class="st4" d="M2650.1,269.2c-38,0-69,31-69,69s31,69,69,69,69-31,69-69-16.4-51.6-40.1-62.6"/>
      <path class="st4" d="M2624.9,385.6c7.5,4,16.1,6.3,25.2,6.3,29.6,0,53.7-24.1,53.7-53.7s-24.1-53.7-53.7-53.7-53.7,24.1-53.7,53.7,5.8,27.8,15.3,37.5"/>
      <path class="st4" d="M2674.6,308.8c-6.7-5.6-15.3-9-24.6-9-21.1,0-38.4,17.3-38.4,38.4s17.3,38.4,38.4,38.4,38.4-17.3,38.4-38.4"/>
      <path class="st4" d="M2650.1,361.3c12.7,0,23.1-10.3,23.1-23.1s-10.3-23.1-23.1-23.1-23.1,10.3-23.1,23.1,10.3,23.1,23.1,23.1Z"/>
      <path class="st4" d="M2650.1,345.9c4.3,0,7.7-3.5,7.7-7.7s-3.5-7.7-7.7-7.7-7.7,3.5-7.7,7.7,3.5,7.7,7.7,7.7Z"/>
      <path class="st4" d="M2617.7,240.4s8.8-7.1,17.1-7.3"/>
      <path class="st4" d="M2637.1,223.9s16.3-4.1,26.7,3.5"/>
      <line class="st4" x1="2600" y1="229.2" x2="2610.2" y2="225.5"/>
      <path class="st4" d="M2602.6,216.9s.6-8.4,10-7.7c9.4.6,21,7.7,27.9.4"/>
      <polyline class="st4" points="2491 233 2533.4 233 2601.2 254.6 2491 254.6"/>
      <path class="st4" d="M2712.5,257.4l6.5,16.7"/>
    </g>
    <g class="st13">
      <polygon class="st6" points="944.6 27.4 962.6 37.1 962.6 56.7 962.6 56.7 979.4 65.8 979.4 86.9 944.6 68 944.6 27.4"/>
      <polygon class="st6" points="1014.3 27.4 996.3 37.1 996.3 56.7 996.3 56.7 979.4 65.8 979.4 86.9 1014.3 68 1014.3 27.4"/>
      <polygon class="st6" points="944.6 27.4 962.6 37.1 979.4 28 996.3 37.1 1014.3 27.4 979.4 8.6 944.6 27.4"/>
      <polygon class="st6" points="996.3 56.7 979.4 47.7 962.6 56.7 979.4 65.8 996.3 56.7"/>
      <line class="st6" x1="979.4" y1="28" x2="979.4" y2="47.7"/>
      <polygon class="st6" points="916.7 12.4 944.6 27.4 944.6 68 979.4 86.9 979.4 119.3 916.7 85.5 916.7 12.4"/>
      <polygon class="st6" points="1042.2 12.4 1014.3 27.4 1014.3 68 979.4 86.9 979.4 119.3 1042.2 85.5 1042.2 12.4"/>
      <path class="st6" d="M979.4-21.4l-21.2,11.5M946.9-3.8l-5.3,2.8M937,1.5l-20.3,11,27.9,15h0l34.9-18.8,34.9,18.8h0l27.9-15-62.7-33.8"/>
      <line class="st7" x1="979.4" y1="8.6" x2="979.4" y2="-45.6"/>
      <line class="st7" x1="1060.1" y1="96.6" x2="1014.3" y2="68"/>
      <line class="st7" x1="898.8" y1="96.6" x2="944.6" y2="68"/>
    </g>
    <g class="st14">
      <g>
        <path class="st9" d="M3171,306.7h5.6M3202.3,306.7h17.6v7.3h-49M3180.5,306.7h4.6M3195.1,306.7h7.2M3275.3,314h-49v-7.3h49"/>
        <path class="st9" d="M3210,235v-12.9h26.3v42.8h-26.3v-10.3M3210,250.6v-4.6M3210,236.1v-1.1"/>
        <polygon class="st9" points="3210 264.9 3223.1 264.9 3236.3 264.9 3228.9 275.5 3223.1 275.5 3217.3 275.5 3210 264.9"/>
        <polygon class="st9" points="3217.3 275.5 3222.3 275.5 3223.9 275.5 3228.9 275.5 3228.9 283.6 3223.9 283.6 3222.3 283.6 3217.3 283.6 3217.3 275.5"/>
        <line class="st9" x1="3223.1" y1="301" x2="3223.1" y2="283.6"/>
        <g>
          <line class="st9" x1="3210" y1="294.4" x2="3216.5" y2="300.8"/>
          <line class="st9" x1="3236.2" y1="294.4" x2="3229.8" y2="300.8"/>
        </g>
        <g>
          <polyline class="st9" points="3180 210.9 3167.3 210.9 3167.3 202.1"/>
          <line class="st9" x1="3193.1" y1="210.9" x2="3180" y2="210.9"/>
          <line class="st9" x1="3206.1" y1="210.9" x2="3193.1" y2="210.9"/>
          <line class="st9" x1="3219.2" y1="210.9" x2="3206.1" y2="210.9"/>
          <line class="st9" x1="3232.3" y1="210.9" x2="3219.2" y2="210.9"/>
          <line class="st9" x1="3245.4" y1="210.9" x2="3232.3" y2="210.9"/>
          <line class="st9" x1="3258.5" y1="210.9" x2="3245.4" y2="210.9"/>
          <line class="st9" x1="3271.6" y1="210.9" x2="3258.5" y2="210.9"/>
          <polyline class="st9" points="3279 202.1 3279 210.9 3271.6 210.9"/>
        </g>
      </g>
      <rect class="st9" x="3197.2" y="210.9" width="54.7" height="11.2"/>
    </g>
    <g class="st14">
      <path class="st0" d="M743,329.1h-26.1l-13.2-13.2v-148.4l13.2-13.2h26.1M752.2,154.3h10.7M785.7,154.3h10.9M796.6,154.3h35.5l13.2,13.2v108.2"/>
      <rect class="st0" x="725.6" y="191.9" width="97.7" height="51.9"/>
      <g>
        <path class="st0" d="M721.6,169.6c2.7,0,4.8,2.2,4.8,4.8s-2.2,4.8-4.8,4.8-4.8-2.2-4.8-4.8,2.2-4.8,4.8-4.8Z"/>
        <path class="st0" d="M827.3,169.6c2.7,0,4.8,2.2,4.8,4.8s-2.2,4.8-4.8,4.8-4.8-2.2-4.8-4.8,2.2-4.8,4.8-4.8Z"/>
        <path class="st0" d="M721.6,304.1c2.7,0,4.8,2.2,4.8,4.8s-2.2,4.8-4.8,4.8-4.8-2.2-4.8-4.8,2.2-4.8,4.8-4.8Z"/>
      </g>
      <g>
        <line class="st0" x1="759.6" y1="227.7" x2="781.5" y2="205.6"/>
        <line class="st0" x1="776.3" y1="234.9" x2="789.2" y2="221.8"/>
      </g>
      <g>
        <path class="st0" d="M803,414.4l170.1-170.1c4.1-4.1,10.9-4.1,15,0h0c4.1,4.1,4.1,10.9,0,15l-170.1,170.1c-4.1,4.1-10.9,4.1-15,0h0c-4.1-4.1-4.1-10.9,0-15h0Z"/>
        <path class="st0" d="M863.9,323.4l15,15-36.8,36.8-7.3-7.3c-4.2-4.3-4.2-11.2,0-15.5l29.1-29Z"/>
        <path class="st0" d="M934,283.3l-36.9,37-15-15,29.2-29.2c4.2-4.2,11.2-4.2,15.5,0l7.3,7.3h0Z"/>
        <path class="st0" d="M858.2,303.1c4.7.2,8.6-3.4,8.8-8.1s-3.4-8.6-8.1-8.8l-32.2-1.3c-2.5,0-4.7.8-6.3,2.5h0l-15,15,12,12,12.4-12.4,28.4,1.1h0Z"/>
        <rect class="st1" x="794.9" y="301.2" width="19.1" height="27.9" transform="translate(12.8 661.2) rotate(-45)"/>
        <polyline class="st0" points="688.1 400 774.4 313.7 788 312 807.7 331.7 715.3 424.1"/>
        <line class="st0" x1="918.9" y1="247.2" x2="884.8" y2="281.4"/>
      </g>
      <line class="st0" x1="869.7" y1="272.9" x2="869.7" y2="243.8"/>
    </g>
    <g class="st13">
      <path class="st3" d="M1200.5,200.9v34.2h-35.6c-2.5,0-4.5,2-4.5,4.5v55.4c0,2.5,2,4.5,4.5,4.5h35.6v33h-88.8v-70.1c0-11.5,4.4-22.5,12.2-30.9l12.6-13.5v-31.1c0-6.2,5-11.2,11.2-11.2h52.8v7.1"/>
      <line class="st3" x1="1200.5" y1="190.6" x2="1200.5" y2="194.8"/>
      <path class="st3" d="M1120.8,306.2v-43.9c0-9.2,3.5-18,9.7-24.7"/>
      <line class="st3" x1="1120.8" y1="323.3" x2="1120.8" y2="317.5"/>
      <rect class="st3" x="1135.3" y="288.1" width="17.2" height="25.9" rx="3.8" ry="3.8"/>
      <path class="st3" d="M1170.3,288.1h21.8c.7,0,1.3.6,1.3,1.3v10.1h-24.4v-10.1c0-.7.6-1.3,1.3-1.3h0Z"/>
      <rect class="st3" x="1174.8" y="278.4" width="12.7" height="9.7"/>
      <path class="st3" d="M1192.1,246.6h-21.8c-.7,0-1.3-.6-1.3-1.3v-10.1h24.4v10.1c0,.7-.6,1.3-1.3,1.3h0Z"/>
      <rect class="st3" x="1174.9" y="246.5" width="12.7" height="9.7"/>
      <circle class="st3" cx="1167" cy="190.6" r="7.9"/>
      <line class="st3" x1="1171.1" y1="190.6" x2="1170.3" y2="190.6"/>
      <line class="st3" x1="1163.6" y1="190.6" x2="1162.8" y2="190.6"/>
      <circle class="st3" cx="1167" cy="216.8" r="7.9"/>
      <line class="st3" x1="1171.1" y1="216.8" x2="1170.3" y2="216.8"/>
      <line class="st3" x1="1163.6" y1="216.8" x2="1162.8" y2="216.8"/>
      <polygon class="st3" points="1099.9 332.4 1099.9 384.4 1124.6 384.4 1124.6 371.8 1187.6 371.8 1187.6 384.4 1212.3 384.4 1212.3 332.4 1099.9 332.4"/>
      <line class="st3" x1="1212.3" y1="340.5" x2="1099.9" y2="340.5"/>
      <path class="st3" d="M1218.4,262.8h-12.1c-1.4,0-2.7-.8-3.4-2l-1.4-2.6c-.7-1.3-2-2-3.4-2h-25c-2.3,0-4.1,1.9-4.1,4.1v13.8c0,2.3,1.9,4.1,4.1,4.1h25c1.4,0,2.7-.8,3.4-2l1.4-2.6c.7-1.3,2-2,3.4-2h12.1v-8.8Z"/>
      <path class="st3" d="M1296.6,281.6h-43.9c-3.1,0-6-1.5-7.8-4.1l-11.8-16.9c-.6-.8-1.6-1.3-2.6-1.3h-8.1c-1.1,0-2.1.6-2.7,1.5l-1.3,2h-8.5l5.4-7.5c1.1-1.5,2.7-2.3,4.6-2.3h14.6c1.8,0,3.5.9,4.6,2.4l10.8,15.8c.9,1.3,2.3,2,3.8,2h42.9v8.4h0Z"/>
      <path class="st3" d="M1296.6,252.9h-43.9c-3.1,0-6,1.5-7.8,4.1l-11.8,16.9c-.6.8-1.6,1.3-2.6,1.3h-8.1c-1.1,0-2.1-.6-2.7-1.5l-1.3-2h-8.5l5.4,7.5c1.1,1.5,2.7,2.3,4.6,2.3h14.6c1.8,0,3.5-.9,4.6-2.4l10.8-15.8c.9-1.3,2.3-2,3.8-2h42.9v-8.4h0Z"/>
      <line class="st3" x1="1208.3" y1="242.7" x2="1208.3" y2="232.8"/>
      <line class="st3" x1="1215.7" y1="246" x2="1225.6" y2="236"/>
      <line class="st3" x1="1208.3" y1="292" x2="1208.3" y2="301.9"/>
      <line class="st3" x1="1215.7" y1="288.7" x2="1225.6" y2="298.6"/>
    </g>
  </g>
  <g id="title">
  </g>
</svg>