<?xml version="1.0" encoding="utf-8"?>
<!-- Generator: Adobe Illustrator 27.0.0, SVG Export Plug-In . SVG Version: 6.00 Build 0)  -->
<svg version="1.1" id="circuits" xmlns="http://www.w3.org/2000/svg" xmlns:xlink="http://www.w3.org/1999/xlink" x="0px" y="0px"
	 viewBox="0 0 3000 888" style="enable-background:new 0 0 3000 888;" xml:space="preserve">
<style type="text/css">
	.st0{fill-rule:evenodd;clip-rule:evenodd;fill:#EAEAEA;stroke:#B1B3B6;stroke-width:3;stroke-miterlimit:10;}
	.st1{fill:none;stroke:#B1B3B6;stroke-width:3;stroke-miterlimit:10;}
</style>
<g>
	<g>
		<path class="st0" d="M1557.2,591.2c-2.4-4.9-2.4-7.3-2.4-11c0-3.7,0-15.9,0-19.6c0-4.9,0-6.1,6.1-8.6c4.9-2.4,4.9-3.7,4.9-6.1
			c0-2.4,0-4.9-4.9-4.9c-4.9,0-20.8,0-20.8,0s-17.1,0-20.8,0c-4.9,0-4.9,3.7-4.9,4.9c0,2.4,0,3.7,4.9,6.1c4.9,2.4,6.1,3.7,6.1,8.6
			c0,4.9,0,15.9,0,19.6c0,3.7,0,6.1-2.4,11c-2.4,4.9-67.3,90.6-73.4,100.4c-7.3,9.8-9.8,22-4.9,28.2c4.9,7.3,11,11,17.1,11
			s79.6,0,79.6,0s72.2,0,79.6,0c6.1,0,13.5-4.9,17.1-11c4.9-7.3,2.4-18.4-4.9-28.2C1624.5,681.8,1560.8,596.1,1557.2,591.2z"/>
		<circle class="st1" cx="1524.1" cy="516.5" r="8.6"/>
		<circle class="st1" cx="1546.1" cy="528.8" r="6.1"/>
		<circle class="st1" cx="1547.4" cy="500.6" r="12.2"/>
		<path class="st1" d="M1614.7,708.7c-7.3-9.8-71-95.5-73.4-100.4c-2.4-4.9-2.4-7.3-2.4-11c0-3.7,0-15.9,0-19.6c0-4.9,0-6.1,6.1-8.6
			c4.9-2.4,4.9-3.7,4.9-6.1c0-2.4,0-4.9-4.9-4.9s-20.8,0-20.8,0s-17.1,0-20.8,0c-4.9,0-4.9,3.7-4.9,4.9c0,1.2,0,3.7,4.9,6.1
			c4.9,2.4,6.1,3.7,6.1,8.6c0,4.9,0,15.9,0,19.6s0,6.1-2.4,11c-2.4,4.9-67.3,90.6-73.4,100.4c-7.3,9.8-9.8,22-4.9,28.2
			c4.9,7.3,11,11,17.1,11s79.6,0,79.6,0s72.2,0,79.6,0c6.1,0,13.5-4.9,17.1-11C1624.5,730.7,1622,719.7,1614.7,708.7z"/>
		<circle class="st1" cx="1507" cy="533.7" r="8.6"/>
		<circle class="st1" cx="1529" cy="545.9" r="6.1"/>
		<circle class="st1" cx="1531.5" cy="517.8" r="12.2"/>
	</g>
	<g>
		<path class="st0" d="M509.4,538.6c-11-11-105.3-34.3-122.4-13.5c-7.3,8.6-63.6,60-89.4,67.3c-24.5,7.3-116.3,13.5-131,29.4
			c-13.5,17.1-2.4,28.2,17.1,44.1c19.6,15.9,148.1,19.6,164,13.5c15.9-4.9,44.1-13.5,74.7-13.5s7.3,15.9,31.8,15.9
			c23.3,0,66.1,6.1,68.5-15.9C525.3,643.8,520.4,549.6,509.4,538.6z M450.7,582.6c-9.8,0-17.1-7.3-17.1-17.1
			c0-9.8,7.3-17.1,17.1-17.1c9.8,0,17.1,7.3,17.1,17.1C467.8,575.3,459.2,582.6,450.7,582.6z"/>
		<path class="st1" d="M492.3,555.7c-11-11-105.3-34.3-122.4-13.5c-7.3,8.6-63.6,60-89.4,67.3c-24.5,7.3-116.3,13.5-131,29.4
			c-13.5,17.1-2.4,28.2,17.1,44.1c19.6,15.9,148.1,19.6,164,13.5c15.9-4.9,44.1-13.5,74.7-13.5s7.3,15.9,31.8,15.9
			c23.3,0,66.1,6.1,68.5-15.9C508.2,661,503.3,566.7,492.3,555.7z M433.5,599.8c-9.8,0-17.1-7.3-17.1-17.1c0-9.8,7.3-17.1,17.1-17.1
			s17.1,7.3,17.1,17.1C450.7,592.4,443.3,599.8,433.5,599.8z"/>
	</g>
	<g>
		<path class="st0" d="M2257.3,559.4c1.2-1.2-2.4-4.9-3.7-7.3c-1.2-1.2-9.8-8.6-11-9.8c-1.2-1.2-3.7-3.7-4.9,0
			c-1.2,2.4-3.7,4.9-2.4,8.6c1.2,3.7,2.4,3.7,2.4,3.7s1.2-1.2,2.4-2.4c0-1.2,2.4-2.4,2.4,0c1.2,1.2,2.4,6.1,1.2,7.3
			c-2.4,1.2-6.1,2.4-7.3,2.4c-1.2-1.2-4.9-8.6-3.7-9.8c1.2-1.2,4.9-11,4.9-12.2c0-2.4,1.2-9.8,3.7-13.5c2.4-3.7,9.8-15.9,9.8-20.8
			c0-4.9-1.2-14.7,1.2-17.1c1.2-2.4,11-15.9,12.2-17.1c1.2-1.2,8.6-8.6,9.8-8.6s8.6-9.8,9.8-12.2c1.2-1.2,4.9-4.9,8.6-8.6
			c0-1.2,0-6.1,0-6.1s-3.7,0-6.1-1.2c-2.4-1.2-15.9-12.2-20.8-15.9c-3.7-3.7-13.5-14.7-14.7-17.1c-1.2-2.4-6.1-1.2-6.1-1.2
			c-2.4,2.4-19.6,23.3-20.8,24.5c-1.2,1.2-7.3,13.5-8.6,15.9c0,2.4-7.3,25.7-8.6,29.4c-1.2,4.9,0,13.5-3.7,17.1s-13.5,17.1-17.1,22
			c-4.9,4.9-6.1,7.3-7.3,9.8c-1.2,2.4-3.7,6.1-2.4,11c1.2,4.9,7.3,7.3,7.3,7.3c2.4,1.2,15.9,11,19.6,14.7
			c3.7,2.4,15.9,14.7,19.6,17.1c3.7,2.4,8.6,7.3,13.5,6.1c4.9-1.2,11-2.4,12.2-1.2c1.2,1.2,8.6-2.4,8.6-4.9
			C2256.1,565.5,2256.1,560.6,2257.3,559.4z"/>
		<path class="st0" d="M2267.1,416.2c2.4,2.4,15.9,13.5,18.4,14.7c2.4,1.2,4.9,1.2,4.9,1.2l1.2,1.2c-1.2-8.6-3.7-17.1-4.9-19.6
			c0-1.2-2.4-3.7-3.7-3.7l0,0l0,0c1.2,0,3.7,1.2,4.9,1.2c0,0,4.9-6.1,4.9-7.3c0,0,0-2.4-1.2-2.4c0,0,6.1,4.9,7.3,6.1
			c1.2,1.2,3.7-1.2,4.9-2.4s1.2-3.7,0-6.1s-23.3-18.4-26.9-19.6c-3.7-1.2-4.9,0-4.9,1.2c0,1.2-1.2,2.4-1.2,2.4c0,1.2,0,2.4,2.4,3.7
			c2.4,1.2,6.1,4.9,7.3,4.9c-1.2-1.2-3.7-2.4-4.9-2.4c-1.2,0-2.4,0-4.9,2.4c-2.4,2.4-3.7,2.4-3.7,3.7c0,1.2,1.2,2.4,1.2,2.4
			s0-1.2-1.2-1.2s-2.4,0-3.7,0s-7.3,0-11,0l1.2,1.2C2253.6,400.3,2264.6,412.5,2267.1,416.2z"/>
		<path class="st1" d="M2269.5,449.2c-3.7,3.7-7.3,7.3-8.6,8.6c-1.2,1.2-8.6,11-9.8,12.2c-1.2,0-8.6,8.6-9.8,8.6
			s-9.8,13.5-12.2,17.1s-2.4,12.2-1.2,17.1c1.2,4.9-7.3,17.1-9.8,20.8c-2.4,3.7-2.4,11-3.7,13.5c0,2.4-3.7,11-4.9,12.2
			c-1.2,1.2,2.4,8.6,3.7,9.8c1.2,1.2,4.9-1.2,7.3-2.4c2.4-1.2,0-6.1-1.2-7.3c-1.2-1.2-2.4-1.2-2.4,0c0,1.2-2.4,2.4-2.4,2.4
			s-2.4,0-2.4-3.7c0-2.4,2.4-6.1,2.4-8.6c1.2-2.4,3.7-1.2,4.9,0c1.2,1.2,9.8,8.6,11,9.8c1.2,1.2,4.9,6.1,3.7,7.3
			c-1.2,1.2-1.2,4.9-2.4,7.3c-1.2,2.4-7.3,4.9-8.6,4.9c-1.2,0-7.3,0-12.2,1.2c-4.9,1.2-9.8-3.7-13.5-6.1
			c-3.7-2.4-15.9-14.7-19.6-17.1c-3.7-3.7-17.1-13.5-19.6-14.7c0,0-4.9-3.7-7.3-7.3c-2.4-3.7,1.2-7.3,2.4-11
			c1.2-3.7,3.7-4.9,7.3-9.8c4.9-4.9,13.5-18.4,17.1-22c3.7-3.7,3.7-12.2,3.7-17.1c1.2-4.9,7.3-26.9,8.6-29.4s6.1-13.5,8.6-15.9
			c2.4-2.4,18.4-22,20.8-24.5c0,0,4.9-2.4,6.1,1.2c1.2,2.4,11,13.5,14.7,17.1c3.7,3.7,18.4,15.9,20.8,15.9c2.4,1.2,4.9,1.2,6.1,1.2
			C2269.5,443.1,2269.5,449.2,2269.5,449.2z"/>
		<path class="st1" d="M2261,418.6c-1.2,0-8.6-4.9-11-7.3c-2.4-1.2-3.7-2.4-4.9-4.9c0,0,0-1.2-1.2-1.2c-1.2,0-2.4,0-3.7,0
			s-7.3,0-11,0l1.2,1.2c0,1.2,11,13.5,13.5,17.1c2.4,2.4,15.9,13.5,18.4,14.7c2.4,1.2,4.9,1.2,4.9,1.2l1.2,1.2
			c-1.2-8.6-3.7-17.1-4.9-19.6C2264.6,421.1,2262.2,418.6,2261,418.6z"/>
		<path class="st1" d="M2249.9,386.8c0,1.2-1.2,2.4-1.2,2.4c0,1.2,0,2.4,2.4,3.7c2.4,1.2,6.1,4.9,7.3,4.9c1.2,1.2,11,8.6,11,8.6
			s6.1,4.9,7.3,6.1s3.7-1.2,4.9-2.4c1.2-1.2,1.2-3.7,0-6.1c-1.2-2.4-23.3-18.4-26.9-19.6C2251.2,384.3,2249.9,386.8,2249.9,386.8z"
			/>
		<path class="st1" d="M2246.3,406.4c1.2,1.2,2.4,2.4,4.9,4.9c2.4,2.4,9.8,6.1,11,7.3c1.2,0,3.7,1.2,4.9,1.2c0,0,4.9-6.1,4.9-7.3
			c0,0,0-2.4-1.2-2.4c0,0-9.8-8.6-11-8.6c-1.2-1.2-3.7-2.4-4.9-2.4c-1.2,0-2.4,0-4.9,2.4c-2.4,2.4-3.7,2.4-3.7,3.7
			C2245.1,405.2,2246.3,406.4,2246.3,406.4z"/>
	</g>
	<g>
		<path class="st0" d="M2802,150.6h-386.8c-11,0-20.8,8.6-20.8,20.8v228.9c0,11,8.6,20.8,20.8,20.8h143.2c0,0-6.1,31.8-9.8,47.7
			c-3.7,15.9,2.4,18.4,9.8,18.4c6.1,0,93,0,99.1,0c7.3,0,13.5-3.7,9.8-18.4c-3.7-15.9-9.8-47.7-9.8-47.7h143.2
			c11,0,20.8-8.6,20.8-20.8V171.4C2821.6,160.4,2813,150.6,2802,150.6z"/>
		<path class="st1" d="M2782.4,438.2h-386.8c-11,0-19.6-8.6-19.6-19.6V189.7c0-11,8.6-19.6,19.6-19.6h386.8c11,0,19.6,8.6,19.6,19.6
			v228.9C2802,429.6,2793.4,438.2,2782.4,438.2z"/>
		<rect x="2398" y="191" class="st1" width="383.1" height="225.2"/>
		<path class="st1" d="M2649,485.9c-3.7-15.9-9.8-47.7-9.8-47.7h-47.7h-3.7H2540c0,0-6.1,31.8-9.8,47.7c-3.7,15.9,2.4,18.4,9.8,18.4
			c6.1,0,93,0,99.1,0C2646.5,504.3,2652.6,500.6,2649,485.9z"/>
	</g>
	<g>
		<path class="st0" d="M2724.9,533.7h-231.3c-1.2,0-2.4,1.2-2.4,2.4v96.7c0,1.2,1.2,2.4,2.4,2.4h231.3c1.2,0,2.4-1.2,2.4-2.4v-96.7
			C2726.1,534.9,2724.9,533.7,2724.9,533.7z"/>
		<path class="st1" d="M2705.3,653.6h-231.3c-1.2,0-2.4-1.2-2.4-2.4v-96.7c0-1.2,1.2-2.4,2.4-2.4h231.3c1.2,0,2.4,1.2,2.4,2.4v96.7
			C2707.7,652.4,2706.5,653.6,2705.3,653.6z"/>
		<path class="st1" d="M2640.4,646.3h-95.5c-1.2,0-2.4-1.2-2.4-2.4V634c0-1.2,1.2-2.4,2.4-2.4h95.5c1.2,0,2.4,1.2,2.4,2.4v9.8
			C2641.6,645.1,2641.6,646.3,2640.4,646.3z"/>
		<path class="st1" d="M2537.6,646.3h-14.7c-1.2,0-2.4-1.2-2.4-2.4V634c0-1.2,1.2-2.4,2.4-2.4h14.7c1.2,0,2.4,1.2,2.4,2.4v9.8
			C2540,645.1,2538.8,646.3,2537.6,646.3z"/>
		<path class="st1" d="M2622,646.3h-20.8c-1.2,0-2.4-1.2-2.4-2.4V634c0-1.2,1.2-2.4,2.4-2.4h20.8c1.2,0,2.4,1.2,2.4,2.4v9.8
			C2624.5,645.1,2623.3,646.3,2622,646.3z"/>
		<path class="st1" d="M2631.8,630.4h-29.4c-1.2,0-2.4-1.2-2.4-2.4v-9.8c0-1.2,1.2-2.4,2.4-2.4h29.4c1.2,0,2.4,1.2,2.4,2.4v9.8
			C2634.3,629.1,2633.1,630.4,2631.8,630.4z"/>
		<path class="st1" d="M2699.2,630.4h-24.5c-1.2,0-2.4-1.2-2.4-2.4v-9.8c0-1.2,1.2-2.4,2.4-2.4h24.5c1.2,0,2.4,1.2,2.4,2.4v9.8
			C2701.6,629.1,2700.4,630.4,2699.2,630.4z"/>
		<path class="st1" d="M2638,646.3h-8.6c-1.2,0-2.4-1.2-2.4-2.4V634c0-1.2,1.2-2.4,2.4-2.4h8.6c1.2,0,2.4,1.2,2.4,2.4v9.8
			C2640.4,645.1,2639.2,646.3,2638,646.3z"/>
		<path class="st1" d="M2525.3,630.4h-9.8c-1.2,0-2.4-1.2-2.4-2.4v-9.8c0-1.2,1.2-2.4,2.4-2.4h8.6c1.2,0,2.4,1.2,2.4,2.4v9.8
			C2526.6,629.1,2526.6,630.4,2525.3,630.4z"/>
		<path class="st1" d="M2541.3,630.4h-8.6c-1.2,0-2.4-1.2-2.4-2.4v-9.8c0-1.2,1.2-2.4,2.4-2.4h8.6c1.2,0,2.4,1.2,2.4,2.4v9.8
			C2542.5,629.1,2541.3,630.4,2541.3,630.4z"/>
		<path class="st1" d="M2555.9,630.4h-8.6c-1.2,0-2.4-1.2-2.4-2.4v-9.8c0-1.2,1.2-2.4,2.4-2.4h8.6c1.2,0,2.4,1.2,2.4,2.4v9.8
			C2558.4,629.1,2557.2,630.4,2555.9,630.4z"/>
		<path class="st1" d="M2571.9,630.4h-8.6c-1.2,0-2.4-1.2-2.4-2.4v-9.8c0-1.2,1.2-2.4,2.4-2.4h8.6c1.2,0,2.4,1.2,2.4,2.4v9.8
			C2574.3,629.1,2573.1,630.4,2571.9,630.4z"/>
		<path class="st1" d="M2587.8,630.4h-8.6c-1.2,0-2.4-1.2-2.4-2.4v-9.8c0-1.2,1.2-2.4,2.4-2.4h8.6c1.2,0,2.4,1.2,2.4,2.4v9.8
			C2590.2,629.1,2589,630.4,2587.8,630.4z"/>
		<path class="st1" d="M2603.7,630.4h-8.6c-1.2,0-2.4-1.2-2.4-2.4v-9.8c0-1.2,1.2-2.4,2.4-2.4h8.6c1.2,0,2.4,1.2,2.4,2.4v9.8
			C2606.1,629.1,2604.9,630.4,2603.7,630.4z"/>
		<path class="st1" d="M2619.6,630.4h-8.6c-1.2,0-2.4-1.2-2.4-2.4v-9.8c0-1.2,1.2-2.4,2.4-2.4h8.6c1.2,0,2.4,1.2,2.4,2.4v9.8
			C2622,629.1,2620.8,630.4,2619.6,630.4z"/>
		<path class="st1" d="M2635.5,630.4h-8.6c-1.2,0-2.4-1.2-2.4-2.4v-9.8c0-1.2,1.2-2.4,2.4-2.4h8.6c1.2,0,2.4,1.2,2.4,2.4v9.8
			C2638,629.1,2636.7,630.4,2635.5,630.4z"/>
		<path class="st1" d="M2651.4,630.4h-8.6c-1.2,0-2.4-1.2-2.4-2.4v-9.8c0-1.2,1.2-2.4,2.4-2.4h8.6c1.2,0,2.4,1.2,2.4,2.4v9.8
			C2653.9,629.1,2652.6,630.4,2651.4,630.4z"/>
		<path class="st1" d="M2667.3,630.4h-8.6c-1.2,0-2.4-1.2-2.4-2.4v-9.8c0-1.2,1.2-2.4,2.4-2.4h8.6c1.2,0,2.4,1.2,2.4,2.4v9.8
			C2669.8,629.1,2668.6,630.4,2667.3,630.4z"/>
		<path class="st1" d="M2639.2,613.2h-8.6c-1.2,0-2.4-1.2-2.4-2.4V601c0-1.2,1.2-2.4,2.4-2.4h8.6c1.2,0,2.4,1.2,2.4,2.4v9.8
			C2640.4,613.2,2640.4,613.2,2639.2,613.2z"/>
		<path class="st1" d="M2623.3,613.2h-20.8c-1.2,0-2.4-1.2-2.4-2.4V601c0-1.2,1.2-2.4,2.4-2.4h20.8c1.2,0,2.4,1.2,2.4,2.4v9.8
			C2624.5,613.2,2624.5,613.2,2623.3,613.2z"/>
		<path class="st1" d="M2532.7,613.2h-8.6c-1.2,0-2.4-1.2-2.4-2.4V601c0-1.2,1.2-2.4,2.4-2.4h8.6c1.2,0,2.4,1.2,2.4,2.4v9.8
			C2533.9,613.2,2532.7,613.2,2532.7,613.2z"/>
		<path class="st1" d="M2547.4,613.2h-8.6c-1.2,0-2.4-1.2-2.4-2.4V601c0-1.2,1.2-2.4,2.4-2.4h8.6c1.2,0,2.4,1.2,2.4,2.4v9.8
			C2549.8,613.2,2548.6,613.2,2547.4,613.2z"/>
		<path class="st1" d="M2563.3,613.2h-8.6c-1.2,0-2.4-1.2-2.4-2.4V601c0-1.2,1.2-2.4,2.4-2.4h8.6c1.2,0,2.4,1.2,2.4,2.4v9.8
			C2565.7,613.2,2564.5,613.2,2563.3,613.2z"/>
		<path class="st1" d="M2579.2,613.2h-8.6c-1.2,0-2.4-1.2-2.4-2.4V601c0-1.2,1.2-2.4,2.4-2.4h8.6c1.2,0,2.4,1.2,2.4,2.4v9.8
			C2581.6,613.2,2580.4,613.2,2579.2,613.2z"/>
		<path class="st1" d="M2595.1,613.2h-8.6c-1.2,0-2.4-1.2-2.4-2.4V601c0-1.2,1.2-2.4,2.4-2.4h8.6c1.2,0,2.4,1.2,2.4,2.4v9.8
			C2597.6,613.2,2596.3,613.2,2595.1,613.2z"/>
		<path class="st1" d="M2611,613.2h-8.6c-1.2,0-2.4-1.2-2.4-2.4V601c0-1.2,1.2-2.4,2.4-2.4h8.6c1.2,0,2.4,1.2,2.4,2.4v9.8
			C2613.5,613.2,2612.2,613.2,2611,613.2z"/>
		<path class="st1" d="M2626.9,613.2h-8.6c-1.2,0-2.4-1.2-2.4-2.4V601c0-1.2,1.2-2.4,2.4-2.4h8.6c1.2,0,2.4,1.2,2.4,2.4v9.8
			C2629.4,613.2,2628.2,613.2,2626.9,613.2z"/>
		<path class="st1" d="M2642.8,613.2h-8.6c-1.2,0-2.4-1.2-2.4-2.4V601c0-1.2,1.2-2.4,2.4-2.4h8.6c1.2,0,2.4,1.2,2.4,2.4v9.8
			C2645.3,613.2,2644.1,613.2,2642.8,613.2z"/>
		<path class="st1" d="M2658.8,613.2h-8.6c-1.2,0-2.4-1.2-2.4-2.4V601c0-1.2,1.2-2.4,2.4-2.4h8.6c1.2,0,2.4,1.2,2.4,2.4v9.8
			C2661.2,613.2,2660,613.2,2658.8,613.2z"/>
		<path class="st1" d="M2674.7,613.2h-8.6c-1.2,0-2.4-1.2-2.4-2.4V601c0-1.2,1.2-2.4,2.4-2.4h8.6c1.2,0,2.4,1.2,2.4,2.4v9.8
			C2677.1,613.2,2675.9,613.2,2674.7,613.2z"/>
		<path class="st1" d="M2630.6,597.3h-8.6c-1.2,0-2.4-1.2-2.4-2.4v-9.8c0-1.2,1.2-2.4,2.4-2.4h8.6c1.2,0,2.4,1.2,2.4,2.4v9.8
			C2631.8,597.3,2631.8,597.3,2630.6,597.3z"/>
		<path class="st1" d="M2614.7,597.3h-13.5c-1.2,0-2.4-1.2-2.4-2.4v-9.8c0-1.2,1.2-2.4,2.4-2.4h13.5c1.2,0,2.4,1.2,2.4,2.4v9.8
			C2615.9,597.3,2615.9,597.3,2614.7,597.3z"/>
		<path class="st1" d="M2524.1,597.3h-8.6c-1.2,0-2.4-1.2-2.4-2.4v-9.8c0-1.2,1.2-2.4,2.4-2.4h8.6c1.2,0,2.4,1.2,2.4,2.4v9.8
			C2525.3,597.3,2525.3,597.3,2524.1,597.3z"/>
		<path class="st1" d="M2540,597.3h-8.6c-1.2,0-2.4-1.2-2.4-2.4v-9.8c0-1.2,1.2-2.4,2.4-2.4h8.6c1.2,0,2.4,1.2,2.4,2.4v9.8
			C2541.3,597.3,2541.3,597.3,2540,597.3z"/>
		<path class="st1" d="M2555.9,597.3h-8.6c-1.2,0-2.4-1.2-2.4-2.4v-9.8c0-1.2,1.2-2.4,2.4-2.4h8.6c1.2,0,2.4,1.2,2.4,2.4v9.8
			C2557.2,597.3,2557.2,597.3,2555.9,597.3z"/>
		<path class="st1" d="M2571.9,597.3h-8.6c-1.2,0-2.4-1.2-2.4-2.4v-9.8c0-1.2,1.2-2.4,2.4-2.4h8.6c1.2,0,2.4,1.2,2.4,2.4v9.8
			C2573.1,597.3,2573.1,597.3,2571.9,597.3z"/>
		<path class="st1" d="M2587.8,597.3h-8.6c-1.2,0-2.4-1.2-2.4-2.4v-9.8c0-1.2,1.2-2.4,2.4-2.4h8.6c1.2,0,2.4,1.2,2.4,2.4v9.8
			C2589,597.3,2589,597.3,2587.8,597.3z"/>
		<path class="st1" d="M2603.7,597.3h-8.6c-1.2,0-2.4-1.2-2.4-2.4v-9.8c0-1.2,1.2-2.4,2.4-2.4h8.6c1.2,0,2.4,1.2,2.4,2.4v9.8
			C2604.9,597.3,2604.9,597.3,2603.7,597.3z"/>
		<path class="st1" d="M2619.6,597.3h-8.6c-1.2,0-2.4-1.2-2.4-2.4v-9.8c0-1.2,1.2-2.4,2.4-2.4h8.6c1.2,0,2.4,1.2,2.4,2.4v9.8
			C2620.8,597.3,2620.8,597.3,2619.6,597.3z"/>
		<path class="st1" d="M2635.5,597.3h-9.8c-1.2,0-2.4-1.2-2.4-2.4v-9.8c0-1.2,1.2-2.4,2.4-2.4h8.6c1.2,0,2.4,1.2,2.4,2.4v9.8
			C2636.7,597.3,2636.7,597.3,2635.5,597.3z"/>
		<path class="st1" d="M2651.4,597.3h-8.6c-1.2,0-2.4-1.2-2.4-2.4v-9.8c0-1.2,1.2-2.4,2.4-2.4h8.6c1.2,0,2.4,1.2,2.4,2.4v9.8
			C2652.6,597.3,2651.4,597.3,2651.4,597.3z"/>
		<path class="st1" d="M2666.1,597.3h-8.6c-1.2,0-2.4-1.2-2.4-2.4v-9.8c0-1.2,1.2-2.4,2.4-2.4h8.6c1.2,0,2.4,1.2,2.4,2.4v9.8
			C2668.6,597.3,2667.3,597.3,2666.1,597.3z"/>
		<path class="st1" d="M2682,597.3h-8.6c-1.2,0-2.4-1.2-2.4-2.4v-9.8c0-1.2,1.2-2.4,2.4-2.4h8.6c1.2,0,2.4,1.2,2.4,2.4v9.8
			C2684.5,597.3,2683.2,597.3,2682,597.3z"/>
		<path class="st1" d="M2697.9,597.3h-8.6c-1.2,0-2.4-1.2-2.4-2.4v-9.8c0-1.2,1.2-2.4,2.4-2.4h8.6c1.2,0,2.4,1.2,2.4,2.4v9.8
			C2700.4,597.3,2699.2,597.3,2697.9,597.3z"/>
		<path class="st1" d="M2611,581.4h-8.6c-1.2,0-2.4-1.2-2.4-2.4v-9.8c0-1.2,1.2-2.4,2.4-2.4h8.6c1.2,0,2.4,1.2,2.4,2.4v9.8
			C2613.5,581.4,2612.2,581.4,2611,581.4z"/>
		<path class="st1" d="M2626.9,581.4h-8.6c-1.2,0-2.4-1.2-2.4-2.4v-9.8c0-1.2,1.2-2.4,2.4-2.4h8.6c1.2,0,2.4,1.2,2.4,2.4v9.8
			C2629.4,581.4,2628.2,581.4,2626.9,581.4z"/>
		<path class="st1" d="M2642.8,581.4h-8.6c-1.2,0-2.4-1.2-2.4-2.4v-9.8c0-1.2,1.2-2.4,2.4-2.4h8.6c1.2,0,2.4,1.2,2.4,2.4v9.8
			C2644.1,581.4,2644.1,581.4,2642.8,581.4z"/>
		<path class="st1" d="M2536.4,581.4h-8.6c-1.2,0-2.4-1.2-2.4-2.4v-9.8c0-1.2,1.2-2.4,2.4-2.4h8.6c1.2,0,2.4,1.2,2.4,2.4v9.8
			C2537.6,581.4,2537.6,581.4,2536.4,581.4z"/>
		<path class="st1" d="M2552.3,581.4h-8.6c-1.2,0-2.4-1.2-2.4-2.4v-9.8c0-1.2,1.2-2.4,2.4-2.4h8.6c1.2,0,2.4,1.2,2.4,2.4v9.8
			C2553.5,581.4,2553.5,581.4,2552.3,581.4z"/>
		<path class="st1" d="M2568.2,581.4h-8.6c-1.2,0-2.4-1.2-2.4-2.4v-9.8c0-1.2,1.2-2.4,2.4-2.4h8.6c1.2,0,2.4,1.2,2.4,2.4v9.8
			C2569.4,581.4,2568.2,581.4,2568.2,581.4z"/>
		<path class="st1" d="M2584.1,581.4h-8.6c-1.2,0-2.4-1.2-2.4-2.4v-9.8c0-1.2,1.2-2.4,2.4-2.4h8.6c1.2,0,2.4,1.2,2.4,2.4v9.8
			C2585.3,581.4,2584.1,581.4,2584.1,581.4z"/>
		<path class="st1" d="M2600,581.4h-8.6c-1.2,0-2.4-1.2-2.4-2.4v-9.8c0-1.2,1.2-2.4,2.4-2.4h8.6c1.2,0,2.4,1.2,2.4,2.4v9.8
			C2601.2,581.4,2600,581.4,2600,581.4z"/>
		<path class="st1" d="M2615.9,581.4h-8.6c-1.2,0-2.4-1.2-2.4-2.4v-9.8c0-1.2,1.2-2.4,2.4-2.4h8.6c1.2,0,2.4,1.2,2.4,2.4v9.8
			C2617.1,581.4,2615.9,581.4,2615.9,581.4z"/>
		<path class="st1" d="M2630.6,581.4h-8.6c-1.2,0-2.4-1.2-2.4-2.4v-9.8c0-1.2,1.2-2.4,2.4-2.4h8.6c1.2,0,2.4,1.2,2.4,2.4v9.8
			C2633.1,581.4,2631.8,581.4,2630.6,581.4z"/>
		<path class="st1" d="M2646.5,581.4h-8.6c-1.2,0-2.4-1.2-2.4-2.4v-9.8c0-1.2,1.2-2.4,2.4-2.4h8.6c1.2,0,2.4,1.2,2.4,2.4v9.8
			C2649,581.4,2647.7,581.4,2646.5,581.4z"/>
		<path class="st1" d="M2662.4,581.4h-8.6c-1.2,0-2.4-1.2-2.4-2.4v-9.8c0-1.2,1.2-2.4,2.4-2.4h8.6c1.2,0,2.4,1.2,2.4,2.4v9.8
			C2664.9,581.4,2663.7,581.4,2662.4,581.4z"/>
		<path class="st1" d="M2678.3,581.4h-8.6c-1.2,0-2.4-1.2-2.4-2.4v-9.8c0-1.2,1.2-2.4,2.4-2.4h8.6c1.2,0,2.4,1.2,2.4,2.4v9.8
			C2680.8,581.4,2679.6,581.4,2678.3,581.4z"/>
		<path class="st1" d="M2611,566.7h-9.8c-1.2,0-2.4-1.2-2.4-2.4v-2.4c0-1.2,1.2-2.4,2.4-2.4h9.8c1.2,0,2.4,1.2,2.4,2.4v2.4
			C2613.5,565.5,2612.2,566.7,2611,566.7z"/>
		<path class="st1" d="M2626.9,566.7h-9.8c-1.2,0-2.4-1.2-2.4-2.4v-2.4c0-1.2,1.2-2.4,2.4-2.4h9.8c1.2,0,2.4,1.2,2.4,2.4v2.4
			C2629.4,565.5,2628.2,566.7,2626.9,566.7z"/>
		<path class="st1" d="M2644.1,566.7h-9.8c-1.2,0-2.4-1.2-2.4-2.4v-2.4c0-1.2,1.2-2.4,2.4-2.4h9.8c1.2,0,2.4,1.2,2.4,2.4v2.4
			C2645.3,565.5,2644.1,566.7,2644.1,566.7z"/>
		<path class="st1" d="M2537.6,566.7h-9.8c-1.2,0-2.4-1.2-2.4-2.4v-2.4c0-1.2,1.2-2.4,2.4-2.4h9.8c1.2,0,2.4,1.2,2.4,2.4v2.4
			C2538.8,565.5,2538.8,566.7,2537.6,566.7z"/>
		<path class="st1" d="M2553.5,566.7h-9.8c-1.2,0-2.4-1.2-2.4-2.4v-2.4c0-1.2,1.2-2.4,2.4-2.4h9.8c1.2,0,2.4,1.2,2.4,2.4v2.4
			C2555.9,565.5,2554.7,566.7,2553.5,566.7z"/>
		<path class="st1" d="M2569.4,566.7h-9.8c-1.2,0-2.4-1.2-2.4-2.4v-2.4c0-1.2,1.2-2.4,2.4-2.4h9.8c1.2,0,2.4,1.2,2.4,2.4v2.4
			C2571.9,565.5,2570.6,566.7,2569.4,566.7z"/>
		<path class="st1" d="M2585.3,566.7h-8.6c-1.2,0-2.4-1.2-2.4-2.4v-2.4c0-1.2,1.2-2.4,2.4-2.4h9.8c1.2,0,2.4,1.2,2.4,2.4v2.4
			C2587.8,565.5,2586.5,566.7,2585.3,566.7z"/>
		<path class="st1" d="M2602.5,566.7h-9.8c-1.2,0-2.4-1.2-2.4-2.4v-2.4c0-1.2,1.2-2.4,2.4-2.4h9.8c1.2,0,2.4,1.2,2.4,2.4v2.4
			C2603.7,565.5,2603.7,566.7,2602.5,566.7z"/>
		<path class="st1" d="M2618.4,566.7h-9.8c-1.2,0-2.4-1.2-2.4-2.4v-2.4c0-1.2,1.2-2.4,2.4-2.4h9.8c1.2,0,2.4,1.2,2.4,2.4v2.4
			C2620.8,565.5,2619.6,566.7,2618.4,566.7z"/>
		<path class="st1" d="M2634.3,566.7h-8.6c-1.2,0-2.4-1.2-2.4-2.4v-2.4c0-1.2,1.2-2.4,2.4-2.4h9.8c1.2,0,2.4,1.2,2.4,2.4v2.4
			C2636.7,565.5,2635.5,566.7,2634.3,566.7z"/>
		<path class="st1" d="M2650.2,566.7h-9.8c-1.2,0-2.4-1.2-2.4-2.4v-2.4c0-1.2,1.2-2.4,2.4-2.4h9.8c1.2,0,2.4,1.2,2.4,2.4v2.4
			C2652.6,565.5,2651.4,566.7,2650.2,566.7z"/>
		<path class="st1" d="M2667.3,566.7h-9.8c-1.2,0-2.4-1.2-2.4-2.4v-2.4c0-1.2,1.2-2.4,2.4-2.4h9.8c1.2,0,2.4,1.2,2.4,2.4v2.4
			C2668.6,565.5,2667.3,566.7,2667.3,566.7z"/>
		<path class="st1" d="M2683.2,566.7h-9.8c-1.2,0-2.4-1.2-2.4-2.4v-2.4c0-1.2,1.2-2.4,2.4-2.4h9.8c1.2,0,2.4,1.2,2.4,2.4v2.4
			C2685.7,565.5,2684.5,566.7,2683.2,566.7z"/>
		<path class="st1" d="M2699.2,566.7h-9.8c-1.2,0-2.4-1.2-2.4-2.4v-2.4c0-1.2,1.2-2.4,2.4-2.4h9.8c1.2,0,2.4,1.2,2.4,2.4v2.4
			C2701.6,565.5,2700.4,566.7,2699.2,566.7z"/>
		<path class="st1" d="M2699.2,581.4h-13.5c-1.2,0-2.4-1.2-2.4-2.4v-9.8c0-1.2,1.2-2.4,2.4-2.4h13.5c1.2,0,2.4,1.2,2.4,2.4v9.8
			C2701.6,581.4,2700.4,581.4,2699.2,581.4z"/>
		<path class="st1" d="M2699.2,613.2H2682c-1.2,0-2.4-1.2-2.4-2.4V601c0-1.2,1.2-2.4,2.4-2.4h17.1c1.2,0,2.4,1.2,2.4,2.4v9.8
			C2701.6,613.2,2700.4,613.2,2699.2,613.2z"/>
		<path class="st1" d="M2699.2,646.3h-14.7c-1.2,0-2.4-1.2-2.4-2.4V634c0-1.2,1.2-2.4,2.4-2.4h14.7c1.2,0,2.4,1.2,2.4,2.4v9.8
			C2701.6,645.1,2700.4,646.3,2699.2,646.3z"/>
		<path class="st1" d="M2662.4,646.3h-14.7c-1.2,0-2.4-1.2-2.4-2.4V634c0-1.2,1.2-2.4,2.4-2.4h14.7c1.2,0,2.4,1.2,2.4,2.4v9.8
			C2663.7,645.1,2662.4,646.3,2662.4,646.3z"/>
		<path class="st1" d="M2677.1,646.3h-8.6c-1.2,0-2.4-1.2-2.4-2.4V634c0-1.2,1.2-2.4,2.4-2.4h8.6c1.2,0,2.4,1.2,2.4,2.4v9.8
			C2679.6,645.1,2678.3,646.3,2677.1,646.3z"/>
	</g>
	<path class="st1" d="M1712.6,586.3c-1.2,2.4,0,25.7,0,25.7c0,2.4,2.4,9.8,4.9,9.8c3.7,0,3.7,0,3.7-4.9c0-4.9-1.2-30.6-1.2-30.6
		l-4.9-4.9C1715.1,581.4,1713.8,582.6,1712.6,586.3z"/>
	<path class="st1" d="M1723.6,599.8c-1.2,2.4,2.4,25.7,2.4,25.7c0,2.4,2.4,9.8,6.1,9.8s3.7,0,3.7-4.9s-4.9-30.6-4.9-30.6l-4.9-3.7
		C1726.1,594.9,1724.9,596.1,1723.6,599.8z"/>
	<path class="st1" d="M1745.7,614.5c0,2.4,7.3,24.5,7.3,24.5c1.2,2.4,4.9,9.8,7.3,8.6c3.7-1.2,3.7-1.2,2.4-6.1
		c-1.2-4.9-9.8-29.4-9.8-29.4l-6.1-3.7C1746.9,609.6,1745.7,612,1745.7,614.5z"/>
	<path class="st1" d="M1726.1,576.5l-29.4,23.3c0,0,3.7,2.4,4.9,4.9c1.2,2.4,30.6-19.6,30.6-19.6L1726.1,576.5z"/>
	<path class="st1" d="M1694.3,630.4c0,2.4,2.4,9.8,4.9,9.8c3.7,0,3.7,0,3.7-4.9c0-4.9-1.2-30.6-1.2-30.6l-4.9-4.9
		c0,0-1.2,1.2-2.4,4.9C1693,607.1,1694.3,630.4,1694.3,630.4z"/>
	<path class="st1" d="M1734.6,586.3l-26.9,25.7c0,0,3.7,2.4,4.9,3.7c2.4,2.4,28.2-23.3,28.2-23.3L1734.6,586.3z"/>
	<path class="st1" d="M1707.7,643.8c0,2.4,2.4,9.8,6.1,9.8c3.7,0,3.7,0,3.7-4.9c0-4.9-4.9-30.6-4.9-30.6l-4.9-3.7
		c0,0-1.2,2.4-2.4,4.9C1704,621.8,1707.7,643.8,1707.7,643.8z"/>
	<path class="st1" d="M1748.1,599.8l-19.6,28.2c0,0,3.7,1.2,6.1,3.7c2.4,1.2,24.5-28.2,24.5-28.2L1748.1,599.8z"/>
	<path class="st1" d="M1734.6,657.3c1.2,2.4,4.9,9.8,7.3,8.6c2.4-1.2,3.7-1.2,2.4-6.1s-9.8-29.4-9.8-29.4l-6.1-3.7
		c0,0-1.2,2.4-1.2,4.9C1727.3,635.3,1734.6,657.3,1734.6,657.3z"/>
	<circle class="st1" cx="2138.6" cy="711.2" r="19.6"/>
	<path class="st1" d="M2027.2,503.1c0,1.2-1.2,2.4-1.2,4.9c0,4.9,4.9,9.8,9.8,9.8c3.7,0,6.1-1.2,7.3-3.7
		C2038.2,510.4,2032.1,506.7,2027.2,503.1z"/>
	<path class="st1" d="M2037,485.9c-7.3,0-13.5,3.7-17.1,8.6c8.6,12.2,22,20.8,36.7,23.3c1.2-2.4,2.4-6.1,2.4-9.8
		C2057.8,495.7,2048,485.9,2037,485.9z"/>
	<path class="st1" d="M1842.4,517.8c-1.2-3.7-2.4-4.9-2.4-4.9S1841.1,515.3,1842.4,517.8L1842.4,517.8z"/>
	<g>
		<path class="st1" d="M1809.3,586.3c0,0-4.9-9.8-7.3-14.7c-2.4-4.9-8.6-13.5-14.7-15.9c-6.1-3.7-36.7-8.6-36.7-8.6
			c-3.7,0-3.7,4.9-6.1,7.3c-1.2,1.2,0,3.7,1.2,6.1l-1.2-2.4l-29.4,23.3c0,0,3.7,2.4,4.9,4.9c1.2,2.4,30.6-19.6,30.6-19.6
			c1.2,2.4,3.7,4.9,6.1,7.3l-4.9-4.9l-26.9,25.7c0,0,3.7,2.4,4.9,3.7c2.4,1.2,28.2-22,28.2-23.3l1.2,1.2c2.4,2.4,17.1,7.3,20.8,8.6
			c4.9,0,8.6,0,8.6,0l12.2,72.2h17.1L1809.3,586.3z"/>
		<path class="st1" d="M1777.5,585.1l-9.8-3.7l-19.6,28.2c0,0,3.7,1.2,6.1,3.7C1754.2,614.5,1777.5,585.1,1777.5,585.1z"/>
		<path class="st0" d="M2158.1,665.9L2158.1,665.9l-25.7-9.8l0,0c-2.4,0-4.9-1.2-7.3-1.2c-1.2,0-3.7,0-4.9,0h-26.9
			c-2.4-11-14.7-19.6-28.2-19.6c-1.2,0-2.4,0-4.9,0c0-33,0-107.7,0-127.3c6.1-1.2,11-6.1,13.5-11c1.2-2.4,2.4-6.1,2.4-9.8
			c0,0,0,0,0-1.2c0,1.2,0,1.2,0,1.2h1.2c3.7,0,12.2-1.2,19.6-7.3c6.1-6.1,7.3-14.7,7.3-17.1h-2.4c0,2.4-1.2,9.8-6.1,15.9
			c-7.3,7.3-17.1,7.3-18.4,7.3l0,0c0-1.2,0-1.2,0-2.4l0,0c2.4,0,11-1.2,17.1-9.8c4.9-6.1,3.7-13.5,3.7-15.9h-2.4
			c0,2.4,0,8.6-3.7,14.7c-4.9,7.3-13.5,8.6-14.7,8.6c0,0,0,1.2,0,2.4c0-2.4-1.2-3.7-2.4-4.9v1.2c1.2,0,8.6-3.7,11-11
			c2.4-6.1,0-12.2-1.2-14.7l-2.4,1.2c1.2,2.4,2.4,7.3,1.2,12.2c-2.4,7.3-8.6,9.8-9.8,9.8l0,0l0,0c-3.7-6.1-11-11-19.6-11
			c-7.3,0-13.5,3.7-17.1,8.6c-2.4,3.7-4.9,8.6-4.9,13.5c0,9.8,7.3,18.4,15.9,20.8v118.7l-4.9-1.2l0,0c-2.4,0-4.9-1.2-7.3-1.2
			c-1.2,0-3.7,0-4.9,0h-83.2c-9.8-25.7-60-150.6-60-150.6l-30.6,17.1c0,0,0,2.4,1.2,6.1l-39.2,157.9l12.2,4.9l37.9-124.8
			c8.6,30.6,18.4,68.5,24.5,90.6c-15.9,4.9-28.2,18.4-28.2,34.3c0,17.1,13.5,30.6,30.6,35.5l18.4,7.3l0,0c6.1,2.4,12.2,4.9,19.6,4.9
			c4.9,0,9.8-1.2,14.7-2.4h2.4c4.9,11,15.9,20.8,29.4,23.3l19.6,7.3l0,0c6.1,2.4,12.2,4.9,19.6,4.9c4.9,0,9.8-1.2,14.7-2.4
			l116.3-18.4c15.9,0,29.4-12.2,29.4-25.7C2183.9,679.3,2172.8,668.3,2158.1,665.9z"/>
		<path class="st1" d="M1772.6,603.4h18.4l11,72.2h-17.1L1772.6,603.4z"/>
		<path class="st1" d="M1733.4,564.3c0,0,30.6,4.9,36.7,8.6c6.1,3.7,11,11,14.7,15.9c2.4,4.9,7.3,14.7,7.3,14.7h-18.4
			c0,0-3.7,0-8.6,0s-19.6-6.1-20.8-8.6c-2.4-2.4-7.3-7.3-9.8-11c-2.4-3.7-8.6-8.6-6.1-12.2C1729.7,569.2,1729.7,564.3,1733.4,564.3z
			"/>
		<circle class="st1" cx="2001.5" cy="722.2" r="26.9"/>
		<path class="st1" d="M2030.9,672h-100.4"/>
		<path class="st1" d="M2136.1,684.2c-1.2,0-3.7,0-4.9,0h-120c-2.4,0-3.7,0-6.1,0c-2.4,0-3.7,0-6.1,0c-20.8,2.4-35.5,18.4-35.5,36.7
			c0,20.8,18.4,36.7,41.6,36.7c4.9,0,9.8-1.2,14.7-2.4l116.3-18.4c15.9,0,29.4-12.2,29.4-25.7
			C2166.7,696.5,2153.3,684.2,2136.1,684.2z"/>
		<path class="st1" d="M2041.9,654.9c0,8.6,0,14.7,0,15.9s-1.2,2.4-2.4,3.7h34.3c-2.4-11-14.7-19.6-28.2-19.6
			C2045.5,654.9,2044.3,654.9,2041.9,654.9z"/>
		<path class="st1" d="M2030.9,528.8v142c0,1.2,0,2.4,1.2,3.7h8.6c1.2-1.2,2.4-2.4,2.4-3.7c0-4.9,0-118.7,0-143.2
			c6.1-1.2,11-6.1,13.5-11c-14.7-2.4-28.2-11-36.7-23.3c-2.4,3.7-4.9,8.6-4.9,13.5C2014.9,517.8,2021.1,526.3,2030.9,528.8z"/>
		<path class="st1" d="M1963.5,720.9c0-18.4,15.9-34.3,35.5-36.7c2.4,0,3.7,0,6.1,0c2.4,0,3.7,0,6.1,0h120c1.2,0,3.7,0,4.9,0
			c1.2,0,2.4,0,3.7,0l-25.7-9.8l0,0c-2.4,0-4.9-1.2-7.3-1.2c-1.2,0-3.7,0-4.9,0h-120c-2.4,0-3.7,0-6.1,0s-3.7,0-6.1,0
			c-20.8,2.4-35.5,18.4-35.5,36.7c0,17.1,13.5,31.8,31.8,35.5l19.6,7.3l0,0C1972.1,747.9,1963.5,735.6,1963.5,720.9z"/>
		<path class="st1" d="M2026,646.3c-2.4,0-4.9-1.2-7.3-1.2c-1.2,0-3.7,0-4.9,0h-83.2c1.2,2.4,1.2,3.7,1.2,3.7
			c1.2,2.4,1.2,3.7,1.2,4.9h96.7v-7.3L2026,646.3z"/>
		<path class="st1" d="M2062.7,672h-20.8c0,1.2-1.2,2.4-1.2,2.4h29.4L2062.7,672z"/>
		<path class="st1" d="M1903.6,685.5L1903.6,685.5L1903.6,685.5z"/>
		<path class="st1" d="M1904.8,689.1L1904.8,689.1L1904.8,689.1z"/>
		<path class="st1" d="M1904.8,687.9L1904.8,687.9L1904.8,687.9z"/>
		<path class="st1" d="M1904.8,687.9L1904.8,687.9L1904.8,687.9z"/>
		<path class="st1" d="M1903.6,685.5C1903.6,686.7,1903.6,686.7,1903.6,685.5C1903.6,686.7,1903.6,686.7,1903.6,685.5z"/>
		<path class="st1" d="M1903.6,686.7L1903.6,686.7L1903.6,686.7z"/>
		<path class="st1" d="M1908.5,694L1908.5,694L1908.5,694z"/>
		<path class="st1" d="M1904.8,690.3L1904.8,690.3L1904.8,690.3z"/>
		<path class="st1" d="M1895,663.4v-1.2V663.4z"/>
		<path class="st1" d="M1904.8,689.1C1904.8,689.1,1904.8,690.3,1904.8,689.1C1904.8,690.3,1904.8,689.1,1904.8,689.1z"/>
		<path class="st1" d="M1908.5,694C1908.5,694,1909.7,694,1908.5,694C1909.7,694,1908.5,694,1908.5,694z"/>
		<path class="st1" d="M1899.9,676.9L1899.9,676.9L1899.9,676.9z"/>
		<path class="st1" d="M1899.9,674.4C1899.9,674.4,1899.9,675.7,1899.9,674.4C1899.9,675.7,1899.9,674.4,1899.9,674.4z"/>
		<path class="st1" d="M1898.7,673.2L1898.7,673.2C1898.7,674.4,1898.7,673.2,1898.7,673.2z"/>
		<path class="st1" d="M1899.9,675.7L1899.9,675.7C1899.9,676.9,1899.9,675.7,1899.9,675.7z"/>
		<path class="st1" d="M1898.7,672C1898.7,672,1898.7,673.2,1898.7,672C1898.7,673.2,1898.7,672,1898.7,672z"/>
		<path class="st1" d="M1903.6,684.2C1903.6,685.5,1903.6,685.5,1903.6,684.2C1903.6,685.5,1903.6,684.2,1903.6,684.2z"/>
		<path class="st1" d="M1895,663.4c1.2,2.4,1.2,3.7,2.4,4.9C1896.2,667.1,1896.2,665.9,1895,663.4z"/>
		<path class="st1" d="M1897.4,669.5c0,1.2,0,1.2,1.2,2.4C1897.4,670.8,1897.4,669.5,1897.4,669.5z"/>
		<path class="st1" d="M2030.9,670.8v-15.9h-96.7c0,3.7,0,6.1-1.2,9.8c-1.2,6.1-8.6,15.9-14.7,24.5c-3.7,6.1-6.1,6.1-8.6,4.9
			c-2.4-1.2-15.9-9.8-19.6-13.5c-2.4-2.4-3.7-6.1-4.9-9.8c-3.7,4.9-6.1,12.2-6.1,18.4c0,19.6,18.4,36.7,40.4,36.7
			c4.9,0,9.8-1.2,14.7-2.4h2.4c-1.2-3.7-2.4-8.6-2.4-12.2c0-18.4,15.9-34.3,35.5-36.7c2.4,0,3.7,0,6.1,0c2.4,0,3.7,0,6.1,0h50.2
			C2030.9,674.4,2030.9,673.2,2030.9,670.8z"/>
		<path class="st1" d="M1902.3,681.8L1902.3,681.8C1902.3,683,1902.3,681.8,1902.3,681.8z"/>
		<path class="st1" d="M1902.3,683L1902.3,683L1902.3,683z"/>
		<path class="st1" d="M1902.3,684.2L1902.3,684.2L1902.3,684.2z"/>
		<path class="st1" d="M1902.3,680.6C1902.3,681.8,1902.3,681.8,1902.3,680.6C1902.3,681.8,1902.3,681.8,1902.3,680.6z"/>
		<path class="st1" d="M1901.1,679.3L1901.1,679.3L1901.1,679.3z"/>
		<path class="st1" d="M1901.1,680.6C1901.1,680.6,1902.3,680.6,1901.1,680.6L1901.1,680.6z"/>
		<path class="st1" d="M1901.1,678.1L1901.1,678.1L1901.1,678.1z"/>
		<path class="st1" d="M1879.1,690.3c0-7.3,2.4-13.5,6.1-18.4c-1.2-2.4-1.2-4.9-2.4-7.3c0-1.2-2.4-7.3-4.9-18.4
			c-15.9,4.9-28.2,18.4-28.2,34.3c0,17.1,13.5,30.6,30.6,35.5l18.4,7.3l0,0C1887.6,716.1,1879.1,705,1879.1,690.3z"/>
		<path class="st1" d="M1895,662.2c-2.4-4.9-3.7-11-6.1-17.1C1890.1,651.2,1892.5,657.3,1895,662.2z"/>
		<path class="st1" d="M1908.5,694C1908.5,694,1909.7,694,1908.5,694C1909.7,694,1908.5,694,1908.5,694z"/>
		<path class="st1" d="M1906,690.3L1906,690.3L1906,690.3z"/>
		<path class="st1" d="M1904.8,690.3L1904.8,690.3L1904.8,690.3z"/>
		<path class="st1" d="M1908.5,694L1908.5,694L1908.5,694z"/>
		<path class="st1" d="M1903.6,685.5c-1.2-2.4-2.4-4.9-3.7-8.6C1901.1,679.3,1902.3,683,1903.6,685.5z"/>
		<path class="st1" d="M1903.6,685.5L1903.6,685.5L1903.6,685.5z"/>
		<path class="st1" d="M1904.8,689.1C1904.8,689.1,1904.8,690.3,1904.8,689.1C1904.8,690.3,1904.8,689.1,1904.8,689.1z"/>
		<path class="st1" d="M1903.6,685.5v1.2C1904.8,686.7,1903.6,686.7,1903.6,685.5z"/>
		<path class="st1" d="M1924.4,680.6c-2.4,2.4-3.7,6.1-6.1,9.8c-3.7,6.1-6.1,6.1-8.6,4.9c-1.2-1.2-4.9-3.7-9.8-6.1v6.1l34.3,12.2
			c1.2-7.3,3.7-14.7,8.6-19.6L1924.4,680.6z"/>
		<path class="st1" d="M1904.8,689.1L1904.8,689.1L1904.8,689.1z"/>
		<path class="st1" d="M1904.8,687.9C1904.8,689.1,1904.8,689.1,1904.8,687.9C1904.8,689.1,1904.8,687.9,1904.8,687.9z"/>
		<path class="st1" d="M1904.8,687.9L1904.8,687.9L1904.8,687.9z"/>
		<path class="st1" d="M1906,690.3c-2.4-3.7-33-88.1-51.4-139.5l-1.2,4.9c12.2,44.1,28.2,104,30.6,108.9c2.4,7.3,3.7,12.2,7.3,15.9
			c3.7,3.7,17.1,12.2,19.6,13.5C1908.5,694,1907.2,692.8,1906,690.3z"/>
		<path class="st1" d="M1842.4,517.8L1802,675.7l12.2,4.9l39.2-129.7C1848.5,536.1,1844.8,523.9,1842.4,517.8z"/>
		<path class="st1" d="M1839.9,512.9c0,0,62.4,172.6,64.9,177.5c3.7,4.9,7.3,9.8,12.2,0c6.1-9.8,12.2-18.4,14.7-24.5
			c1.2-6.1,2.4-8.6,0-15.9c-2.4-7.3-62.4-154.2-62.4-154.2L1839.9,512.9z"/>
	</g>
	<path class="st1" d="M2060.2,508h-1.2v-2.4l0,0c2.4,0,11,0,18.4-7.3c6.1-6.1,6.1-12.2,6.1-15.9h2.4c0,2.4-1.2,11-7.3,17.1
		C2072.5,506.7,2063.9,508,2060.2,508z"/>
	<path class="st1" d="M2057.8,500.6c1.2,0,9.8-1.2,14.7-8.6c3.7-6.1,3.7-12.2,3.7-14.7h2.4c0,2.4,0,9.8-3.7,15.9
		c-4.9,7.3-13.5,9.8-17.1,9.8C2057.8,503.1,2057.8,500.6,2057.8,500.6z"/>
	<path class="st1" d="M2056.6,499.4l-1.2-2.4l0,0c1.2,0,7.3-2.4,9.8-9.8c1.2-4.9,0-11-1.2-12.2l2.4-1.2c1.2,2.4,2.4,8.6,1.2,14.7
		C2065.1,495.7,2057.8,498.2,2056.6,499.4z"/>
	<g>
		<path class="st0" d="M669.8,596.1c-3.7,1.2-3.7,3.7-3.7,7.3c0,4.9,1.2,4.9,1.2,7.3c0,2.4,1.2,8.6,0,9.8c-1.2,1.2-1.2,2.4-1.2,3.7
			c0,1.2,0,2.4-1.2,3.7c0,1.2,0,2.4,0,2.4c0,1.2,1.2,3.7,1.2,3.7s2.4,1.2,3.7,1.2c1.2,0-2.4,1.2-2.4,2.4c0,0-1.2,2.4-1.2,3.7
			s-3.7,8.6-3.7,11s0,6.1,0,7.3c0,0,0,8.6,0,11c0,2.4-2.4,4.9-1.2,6.1c1.2,0,4.9,0,4.9,1.2c0,1.2-2.4,1.2-3.7,2.4
			c0,1.2,0,6.1,1.2,7.3c0,1.2,0,2.4,0,4.9c0,2.4,1.2,4.9,0,4.9c-1.2,1.2-2.4,2.4-2.4,3.7c0,1.2,2.4-1.2,4.9,0
			c2.4,1.2,2.4,9.8,2.4,12.2s-1.2,3.7-1.2,7.3c0,4.9,0,7.3,3.7,7.3c3.7,1.2,96.7-8.6,96.7-8.6s0,1.2,1.2,1.2c1.2,0,4.9,0,6.1,0
			s0,2.4,3.7,2.4c2.4,0,2.4-2.4,3.7-2.4c1.2,0,24.5,0,25.7,0s2.4,2.4,4.9,2.4s2.4-2.4,3.7-2.4s6.1,0,6.1-1.2s2.4-2.4,3.7-2.4
			c2.4,0,4.9-2.4,4.9-4.9c0-2.4,0-4.9,1.2-7.3c1.2-3.7,4.9-9.8,12.2-17.1c6.1-6.1,26.9-7.3,37.9-9.8c11-2.4,33,3.7,55.1,8.6
			c22,4.9,42.8-1.2,55.1-4.9c12.2-4.9,18.4-15.9,18.4-19.6l0,0c0-3.7-6.1-14.7-18.4-19.6c-12.2-4.9-33-9.8-55.1-4.9
			c-22,4.9-42.8,11-55.1,8.6c-11-2.4-31.8-3.7-37.9-9.8c-7.3-6.1-11-13.5-12.2-17.1c-1.2-3.7,0-4.9-1.2-7.3c0-2.4-2.4-4.9-4.9-4.9
			c-2.4,0-3.7,0-3.7-2.4c0-1.2-4.9-1.2-6.1-1.2c-1.2,0-2.4-2.4-3.7-2.4s-2.4,2.4-4.9,2.4c-1.2,0-25.7,0-25.7,0
			c-1.2,0-1.2-2.4-3.7-2.4s-2.4,2.4-3.7,2.4s-4.9,0-6.1,0s-1.2,1.2-1.2,1.2S674.7,594.9,669.8,596.1z M985.6,656.1
			c3.7,0,7.3,3.7,7.3,7.3c0,3.7-3.7,7.3-7.3,7.3c-3.7,0-7.3-3.7-7.3-7.3C978.2,659.7,981.9,656.1,985.6,656.1z"/>
		<path class="st1" d="M781.1,735.6c1.2,0,4.9,0,6.1,0c1.2,0,0,2.4,3.7,2.4s2.4-2.4,3.7-2.4s24.5,0,25.7,0c1.2,0,2.4,2.4,4.9,2.4
			c2.4,0,2.4-2.4,3.7-2.4c1.2,0,6.1,0,6.1-1.2s2.4-2.4,3.7-2.4c1.2,0,4.9-2.4,4.9-4.9c0-2.4,0-4.9,1.2-7.3
			c1.2-3.7,4.9-9.8,12.2-17.1c6.1-6.1,26.9-7.3,37.9-9.8c12.2-2.4,33,3.7,55.1,8.6c22,4.9,42.8-1.2,55.1-4.9
			c12.2-3.7,18.4-15.9,18.4-19.6l0,0c0-3.7-6.1-14.7-18.4-19.6c-12.2-4.9-33-9.8-55.1-4.9c-22,4.9-42.8,11-55.1,8.6
			c-11-2.4-31.8-3.7-37.9-9.8s-11-13.5-12.2-17.1c-1.2-3.7,0-4.9-1.2-7.3c0-2.4-2.4-4.9-4.9-4.9c-2.4,0-3.7,0-3.7-2.4
			s-4.9-1.2-6.1-1.2c-1.2,0-2.4-2.4-3.7-2.4c-1.2,0-2.4,2.4-4.9,2.4c-1.2,0-25.7,0-25.7,0c-1.2,0-1.2-2.4-3.7-2.4s-2.4,2.4-3.7,2.4
			c-1.2,0-4.9,0-6.1,0c-1.2,0-1.2,1.2-1.2,1.2s-93-9.8-96.7-8.6c-3.7,1.2-3.7,3.7-3.7,7.3c0,4.9,1.2,4.9,1.2,7.3s1.2,8.6,0,9.8
			c-1.2,1.2-1.2,2.4-1.2,3.7c0,1.2,0,2.4-1.2,3.7c0,1.2,0,2.4,0,2.4c0,1.2,1.2,3.7,1.2,3.7s2.4,1.2,3.7,1.2s-2.4,1.2-2.4,2.4
			c0,0-1.2,2.4-1.2,3.7s-3.7,8.6-3.7,11c0,1.2,0,6.1,0,7.3c0,0,0,8.6,0,11c-1.2,3.7-2.4,4.9-1.2,6.1c1.2,0,4.9,0,4.9,1.2
			c0,1.2-2.4,1.2-3.7,2.4c0,1.2,0,6.1,1.2,7.3c0,1.2,0,2.4,0,4.9c0,2.4,1.2,4.9,0,4.9c-1.2,1.2-2.4,2.4-2.4,3.7c0,1.2,2.4-1.2,4.9,0
			c2.4,1.2,2.4,9.8,2.4,12.2s-1.2,3.7-1.2,7.3c0,4.9,0,7.3,3.7,7.3c3.7,1.2,96.7-8.6,96.7-8.6S778.7,735.6,781.1,735.6z
			 M990.5,675.7c0-3.7,3.7-7.3,7.3-7.3c3.7,0,7.3,3.7,7.3,7.3c0,3.7-3.7,7.3-7.3,7.3C994.1,683,990.5,679.3,990.5,675.7z"/>
	</g>
	<g>
		<path class="st1" d="M846,498.2v-47.7h7.3v2.4h2.4v-2.4h7.3v6.1h2.4v-6.1h7.3v2.4h2.4v-2.4h6.1v8.6h2.4v-8.6h7.3v2.4h2.4v-2.4h6.1
			v6.1h2.4v-6.1h6.1v2.4h3.7v-2.4h7.3v14.7h2.4v-14.7h6.1v2.4h2.4v-2.4h7.3v6.1h2.4v-6.1h6.1v2.4h2.4v-2.4h6.1v8.6h2.4v-8.6h7.3v2.4
			h2.4v-2.4h6.1v6.1h2.4v-6.1h9.8v2.4h2.4v-2.4h6.1v24.5h3.7v-24.5h6.1v2.4h2.4v-2.4h7.3v6.1h2.4v-6.1h6.1v2.4h2.4v-2.4h7.3v8.6h2.4
			v-8.6h6.1v2.4h2.4v-2.4h6.1v6.1h2.4v-6.1h7.3v2.4h2.4v-2.4h6.1v14.7h2.4v-14.7h7.3v2.4h2.4v-2.4h6.1v6.1h2.4v-6.1h6.1v2.4h2.4
			v-2.4h11v8.6h2.4v-8.6h6.1v2.4h3.7v-2.4h7.3v6.1h2.4v-6.1h6.1v2.4h2.4v-2.4h30.6v31.8h-2.4v2.4h2.4v6.1h-6.1v2.4h6.1v7.3h-2.4v2.4
			h2.4v8.6h-8.6v2.4h8.6v6.1h-2.4v2.4h2.4v7.3h-6.1v2.4h6.1v6.1h-2.4v2.4h2.4v7.3h-14.7v2.4h14.7v6.1h-2.4v2.4h2.4v6.1h-6.1v2.4h6.1
			v7.3h-2.4v2.4h2.4v6.1h-8.6v2.4h8.6v7.3h-2.4v2.4h2.4v6.1h-6.1v2.4h6.1v6.1h-2.4v2.4h2.4v8.6h-47.7V498.2H846z"/>
		<path class="st0" d="M1139.8,479.8v127.3h47.7v-7.3h-2.4v-2.4h2.4V590h-6.1v-2.4h6.1v-6.1h-2.4V579h2.4v-7.3h-8.6v-2.4h8.6v-8.6
			h-2.4v-2.4h2.4V552h-6.1v-2.4h6.1v-7.3h-2.4v-2.4h2.4v-6.1h-14.7v-2.4h14.7v-7.3h-2.4v-2.4h2.4v-6.1h-6.1v-3.7h6.1v-6.1h-2.4v-2.4
			h2.4V497h-8.6v-2.4h8.6v-6.1h-2.4v-2.4h2.4v-3.7v-3.7h-6.1v-2.4h6.1V470h-2.4v-2.4h2.4v-31.8h-30.6v2.4h-2.4v-2.4h-6.1v2.4h-3.7
			v-6.1h-4.9h-2.4v2.4h-2.4v-2.4h-6.1v8.6h-2.4v-8.6h-7.3v2.4h-2.4v-2.4h-6.1v6.1h-2.4v-6.1h-6.1v2.4h-2.4v-2.4h-6.1v14.7h-2.4
			v-14.7h-6.1v2.4h-2.4v-2.4h-7.3v6.1h-2.4v-6.1h-6.1v2.4h-2.4v-2.4h-6.1v8.6h-2.4v-8.6h-6.1v2.4h-2.4v-2.4h-12.2v6.1h-2.4v-6.1
			h-7.3v2.4h-2.4v-2.4h-6.1v24.5h-2.4v-24.5h-7.3v2.4h-2.4v-2.4h-6.1v6.1h-2.4v-6.1h-6.1v2.4h-3.7v-2.4h-7.3v8.6h-2.4v-8.6h-6.1v2.4
			h-2.4v-2.4h-7.3v6.1h-2.4v-6.1h-6.1v2.4h-2.4v-2.4h-6.1v14.7h-2.4v-14.7h-7.3v2.4h-2.4v-2.4h-6.1v6.1h-2.4v-6.1h-9.8v2.4h-2.4
			v-2.4h-6.1v8.6h-3.7v-8.6h-6.1v2.4h-2.4v-2.4H884v6.1h-2.4v-6.1h-6.1v2.4h-2.4v-2.4h-8.6v47.7H1139.8z"/>
	</g>
	<path class="st1" d="M1667.3,378.2c4.9,1.2,8.6,3.7,13.5,4.9c4.9,2.4,8.6,3.7,12.2,6.1"/>
	<path class="st1" d="M1650.2,379.5c4.9,0,17.1,1.2,28.2,8.6c4.9,3.7,9.8,7.3,12.2,11"/>
	<path class="st1" d="M1625.7,377c9.8,3.7,20.8,8.6,33,15.9c9.8,6.1,18.4,13.5,25.7,19.6"/>
	<path class="st1" d="M1591.4,378.2c6.1,3.7,14.7,9.8,24.5,17.1c7.3,6.1,11,9.8,22,19.6c7.3,6.1,17.1,14.7,29.4,25.7"/>
	<path class="st1" d="M1580.4,412.5c0-2.4,3.7-12.2,12.2-17.1c6.1-3.7,11-4.9,14.7-4.9"/>
	<path class="st1" d="M1570.6,399c2.4-2.4,6.1-6.1,11-9.8c6.1-3.7,11-6.1,15.9-6.1"/>
	<path class="st1" d="M1589,418.6c1.2-3.7,4.9-9.8,12.2-15.9c4.9-3.7,9.8-6.1,13.5-7.3"/>
	<path class="st1" d="M1601.2,426c0-2.4,2.4-9.8,8.6-14.7c6.1-6.1,13.5-7.3,15.9-7.3"/>
	<path class="st1" d="M1612.2,432.1c1.2-2.4,2.4-7.3,7.3-11c6.1-6.1,13.5-7.3,15.9-7.3"/>
	<path class="st1" d="M1626.9,437c0-1.2,1.2-7.3,4.9-11c3.7-3.7,8.6-4.9,9.8-4.9"/>
	<path class="st1" d="M1637.9,441.9c3.7-4.9,8.6-9.8,12.2-13.5"/>
	<path class="st1" d="M1651.4,441.9c2.4-2.4,4.9-4.9,6.1-8.6"/>
	<g>
		<path class="st0" d="M1849.7,193.4c-3.7-1.2-7.3,4.9-3.7,9.8l-74.7,46.5c-4.9-4.9-8.6-9.8-14.7-13.5l45.3-28.2c0,0,0,1.2,3.7,3.7
			c2.4,2.4,9.8,0,7.3-3.7s-9.8-15.9-13.5-15.9c-3.7-1.2-7.3,4.9-3.7,9.8l-46.5,29.4c-6.1-3.7-13.5-7.3-20.8-11
			c-2.4-1.2-3.7-2.4-6.1-3.7v1.2c-12.2-3.7-24.5-6.1-37.9-7.3c-1.2,0-2.4,0-2.4-1.2v1.2c-1.2,0-2.4,0-4.9,0c-3.7,0-6.1,0-9.8,0
			c0,0-1.2,0-1.2-1.2v1.2h-1.2c0,0,0,0-1.2-1.2v1.2c-58.8,7.3-104,52.6-102.8,107.7c0,8.6,1.2,17.1,3.7,24.5l-31.8,19.6
			c0,0-11,7.3-12.2,11s0,3.7,2.4,2.4c2.4-1.2,13.5-6.1,13.5-6.1l31.8-19.6c1.2,2.4,2.4,4.9,2.4,7.3l0,0l0,0c2.4,3.7,3.7,7.3,6.1,11
			c-2.4,2.4-6.1,4.9-7.3,6.1c-2.4,2.4,0,3.7,2.4,2.4c1.2,0,4.9-2.4,7.3-3.7c20.8,29.4,58.8,49,100.4,49
			c64.9-1.2,116.3-50.2,116.3-108.9c0-4.9,0-11-1.2-15.9c-1.2-4.9-2.4-9.8-3.7-13.5c-3.7-9.8-8.6-19.6-15.9-28.2l74.7-46.5
			c0,0,0,1.2,3.7,3.7c2.4,2.4,9.8,0,7.3-3.7C1861.9,205.6,1853.4,194.6,1849.7,193.4z"/>
		<path class="st1" d="M1635.5,341.5c-9.8,0-15.9-1.2-22,0c-4.9,0-9.8,1.2-15.9,2.4"/>
		<path class="st1" d="M1699.1,340.3c-7.3,0-22,2.4-35.5,1.2c-4.9,0-9.8,0-13.5,0"/>
		<path class="st1" d="M1630.6,353.7c3.7,0,7.3,0,12.2,0c12.2,0,34.3,0,56.3-2.4"/>
		<path class="st1" d="M1554.7,378.2c6.1-7.3,17.1-17.1,33-22c9.8-3.7,19.6-3.7,30.6-2.4"/>
		<path class="st1" d="M1618.4,362.3c7.3,1.2,14.7,2.4,24.5,2.4c13.5,1.2,31.8,1.2,56.3-3.7"/>
		<path class="st1" d="M1558.4,383.1c4.9-6.1,14.7-13.5,26.9-18.4c7.3-2.4,13.5-3.7,19.6-3.7"/>
		<path class="st1" d="M1601.2,373.3c13.5,0,25.7,3.7,41.6,4.9c12.2,1.2,30.6,0,53.9-7.3"/>
		<path class="st1" d="M1589,253.4c11-4.9,26.9-8.6,45.3-9.8c8.6,0,17.1,0,24.5,0"/>
		<path class="st1" d="M1579.2,263.2c11-3.7,26.9-8.6,46.5-9.8c15.9-1.2,28.2,0,39.2,1.2"/>
		<path class="st1" d="M1569.4,271.7c14.7-3.7,33-8.6,55.1-9.8c18.4-1.2,34.3,0,47.7,2.4"/>
		<path class="st1" d="M1564.5,280.3c15.9-3.7,35.5-7.3,57.5-8.6c20.8-1.2,39.2,0,55.1,1.2"/>
		<path class="st1" d="M1557.2,288.9c18.4-3.7,39.2-6.1,61.2-8.6c22-1.2,42.8-1.2,61.2,0"/>
		<path class="st1" d="M1551,307.2c3.7,1.2,9.8,2.4,14.7,6.1c7.3,4.9,12.2,9.8,15.9,13.5"/>
		<path class="st1" d="M1554.7,295c2.4,0,13.5,0,23.3,8.6c8.6,7.3,11,15.9,11,19.6"/>
		<path class="st1" d="M1573.1,287.7c2.4,0,9.8,1.2,15.9,7.3c9.8,8.6,8.6,26.9,9.8,23.3"/>
		<path class="st1" d="M1593.9,284c2.4,2.4,6.1,4.9,9.8,9.8c4.9,8.6,6.1,20.8,6.1,25.7"/>
		<path class="st1" d="M1613.5,282.8c2.4,2.4,4.9,6.1,6.1,11c3.7,9.8,1.2,17.1,0,20.8"/>
		<path class="st1" d="M1644.1,231.3v12.2"/>
		<path class="st1" d="M1633.1,232.6l1.2,11"/>
		<path class="st1" d="M1624.5,236.2v6.1"/>
		<path class="st1" d="M1612.2,239.9l6.1,4.9"/>
		<path class="st1" d="M1683.2,375.8c1.2,0,4.9,0,7.3,2.4c2.4,1.2,3.7,3.7,4.9,4.9"/>
		<path class="st1" d="M1607.3,374.6c11,4.9,24.5,13.5,37.9,23.3c13.5,9.8,23.3,19.6,30.6,28.2"/>
		<path class="st1" d="M1682,280.3l12.2-7.3c-2.4-4.9-4.9-8.6-8.6-13.5c-11-15.9-24.5-24.5-34.3-29.4c-1.2,0-2.4,0-2.4,0
			c4.9,6.1,12.2,14.7,18.4,25.7C1672.2,263.2,1677.1,270.5,1682,280.3z"/>
		<path class="st1" d="M1685.7,246c2.4,2.4,8.6,8.6,15.9,23.3l9.8-6.1c-3.7-6.1-9.8-13.5-18.4-19.6c-9.8-7.3-18.4-11-25.7-13.5
			c-2.4,0-3.7,0-6.1,0l0,0C1668.5,232.6,1677.1,237.5,1685.7,246z"/>
		<path class="st1" d="M1716.3,259.5l6.1-3.7c-17.1-15.9-36.7-22-47.7-24.5C1685.7,235,1702.8,243.6,1716.3,259.5z"/>
		<path class="st1" d="M1732.2,249.7c-6.1-3.7-13.5-7.3-20.8-11c4.9,3.7,11,7.3,17.1,12.2L1732.2,249.7z"/>
		<path class="st1" d="M1702.8,299.9c-1.2-2.4-1.2-4.9-2.4-8.6c-1.2-3.7-2.4-6.1-3.7-9.8l-11,7.3c2.4,4.9,4.9,11,6.1,18.4
			L1702.8,299.9z"/>
		<path class="st1" d="M1711.4,295l12.2-7.3c-1.2-3.7-3.7-8.6-4.9-12.2c-1.2-1.2-1.2-3.7-2.4-4.9l-11,7.3c1.2,2.4,2.4,6.1,3.7,9.8
			C1708.9,288.9,1710.2,291.3,1711.4,295z"/>
		<path class="st1" d="M1731,282.8l8.6-4.9c-2.4-3.7-4.9-7.3-8.6-12.2c-1.2-1.2-1.2-2.4-2.4-2.4l-7.3,4.9c1.2,2.4,2.4,3.7,4.9,6.1
			C1728.5,275.4,1729.7,279.1,1731,282.8z"/>
		<path class="st1" d="M1748.1,271.7l6.1-3.7c-4.9-4.9-8.6-9.8-14.7-13.5l-3.7,2.4c1.2,1.2,2.4,2.4,4.9,4.9
			C1742,264.4,1745.7,268.1,1748.1,271.7z"/>
		<path class="st1" d="M1625.7,315.8l106.5-66.1c-19.6-13.5-44.1-20.8-71-19.6c-64.9,1.2-116.3,50.2-116.3,108.9c0,2.4,0,4.9,0,8.6
			C1576.7,325.6,1604.9,318.3,1625.7,315.8z"/>
		<path class="st1" d="M1547.4,353.7c0,2.4,1.2,6.1,2.4,8.6l57.5-35.5C1589,331.7,1569.4,339.1,1547.4,353.7z"/>
		<path class="st1" d="M1678.3,314.6l75.9-46.5c-4.9-4.9-8.6-9.8-14.7-13.5l-96.7,58.8C1655.1,313.4,1666.1,314.6,1678.3,314.6z"/>
		<path class="st1" d="M1642.8,323.1c-4.9,0-9.8,0-14.7,0l-77.1,47.7c2.4,6.1,4.9,12.2,8.6,18.4c2.4-2.4,6.1-4.9,6.1-4.9l96.7-60
			C1656.3,323.1,1650.2,323.1,1642.8,323.1z"/>
		<path class="st1" d="M1606.1,326.8l-89.4,55.1c0,0-11,7.3-12.2,11c-2.4,2.4,0,3.7,2.4,2.4c2.4-1.2,13.5-6.1,13.5-6.1l108.9-66.1
			C1622,324.4,1614.7,325.6,1606.1,326.8z"/>
		<path class="st1" d="M1795.8,226.5c-2.4-3.7-9.8-15.9-13.5-15.9s-7.3,4.9-3.7,9.8l-153,95.5c2.4,0,3.7,0,6.1-1.2
			c4.9,0,8.6,0,12.2-1.2l142-86.9c0,0,0,1.2,3.7,3.7C1792.2,233.8,1798.3,231.3,1795.8,226.5z"/>
		<path class="st1" d="M1663.7,324.4l-96.7,60c0,0-11,7.3-12.2,11c-2.4,2.4,0,3.7,2.4,2.4c2.4-1.2,13.5-6.1,13.5-6.1l106.5-66.1
			C1672.2,325.6,1667.3,324.4,1663.7,324.4z"/>
		<path class="st1" d="M1846,228.9c-2.4-3.7-9.8-15.9-13.5-15.9c-3.7-1.2-7.3,4.9-3.7,9.8l-150.6,93c4.9,0,9.8,0,15.9,0l140.8-86.9
			c0,0,0,1.2,3.7,3.7C1841.1,235,1847.3,232.6,1846,228.9z"/>
		<path class="st1" d="M1760.3,275.4l-66.1,40.4c13.5,0,28.2-1.2,45.3-3.7c13.5-2.4,23.3-3.7,30.6-6.1l3.7-2.4l3.7,13.5l-7.3,2.4
			c-6.1,1.2-15.9,3.7-26.9,6.1c-28.2,3.7-49,2.4-67.3,0l-106.5,66.1c0,0-2.4,1.2-4.9,2.4c20.8,29.4,58.8,49,100.4,49
			c64.9-1.2,116.3-50.2,116.3-108.9C1779.9,312.1,1772.6,291.3,1760.3,275.4z"/>
		<path class="st1" d="M1706.5,314.6c0-2.4-1.2-4.9-1.2-6.1l-11,7.3l0,0C1699.1,315.8,1702.8,315.8,1706.5,314.6z"/>
		<path class="st1" d="M1696.7,328c2.4,15.9,6.1,47.7-9.8,82c-6.1,14.7-14.7,25.7-20.8,31.8v1.2c3.7,0,7.3,0,11-1.2v-1.2
			c4.9-4.9,9.8-12.2,15.9-22c14.7-25.7,15.9-49,15.9-63.6c0-6.1,0-14.7-1.2-26.9C1705.3,328,1701.6,328,1696.7,328z"/>
		<path class="st1" d="M1546.1,353.7c40.4-26.9,74.7-31.8,96.7-31.8c28.2,0,55.1,9.8,100.4,3.7c12.2-2.4,20.8-3.7,26.9-6.1l7.3-2.4
			l-3.7-13.5l-3.7,2.4c-7.3,1.2-18.4,3.7-30.6,6.1c-51.4,7.3-75.9,0-108.9,2.4c-20.8,2.4-51.4,8.6-85.7,31.8L1546.1,353.7z"/>
		<path class="st1" d="M1546.1,353.7c40.4-26.9,74.7-31.8,96.7-31.8c28.2,0,55.1,9.8,100.4,3.7c12.2-2.4,20.8-3.7,26.9-6.1l7.3-2.4
			l-3.7-13.5l-3.7,2.4c-7.3,1.2-18.4,3.7-30.6,6.1c-51.4,7.3-75.9,0-108.9,2.4c-20.8,2.4-51.4,8.6-85.7,31.8L1546.1,353.7z"/>
		<path class="st1" d="M1731,313.4c-1.2-4.9-2.4-11-3.7-17.1l-12.2,7.3c1.2,3.7,2.4,7.3,2.4,11
			C1721.2,314.6,1726.1,313.4,1731,313.4z"/>
		<path class="st1" d="M1732.2,328c-4.9,0-8.6,1.2-13.5,1.2c1.2,8.6,1.2,19.6,1.2,30.6c-1.2,14.7-2.4,31.8-11,50.2
			c-7.3,14.7-18.4,25.7-24.5,31.8l0,0c3.7,0,8.6-1.2,12.2-2.4c4.9-3.7,13.5-11,20.8-20.8c18.4-26.9,17.1-57.5,15.9-80.8
			C1732.2,334.2,1732.2,330.5,1732.2,328z"/>
		<path class="st1" d="M1740.8,312.1c4.9,0,8.6-1.2,12.2-2.4c-1.2-4.9-2.4-8.6-4.9-12.2c-1.2-3.7-2.4-8.6-4.9-12.2l-9.8,6.1
			c1.2,3.7,2.4,7.3,3.7,9.8C1738.3,303.6,1739.5,307.2,1740.8,312.1z"/>
		<path class="st1" d="M1744.4,325.6L1744.4,325.6c2.4,17.1,3.7,40.4-6.1,64.9c-3.7,9.8-11,26.9-26.9,41.6l0,0
			c6.1-2.4,12.2-4.9,17.1-8.6l0,0c13.5-12.2,19.6-23.3,23.3-30.6c11-24.5,9.8-50.2,4.9-69.8C1753,324.4,1749.3,325.6,1744.4,325.6z"
			/>
		<path class="st1" d="M1760.3,275.4l-6.1,3.7c2.4,3.7,4.9,7.3,7.3,12.2c2.4,3.7,4.9,8.6,7.3,15.9c1.2,0,2.4,0,2.4-1.2l3.7-2.4
			l3.7,13.5l-6.1,2.4c1.2,3.7,1.2,7.3,2.4,11c3.7,30.6-9.8,56.3-15.9,66.1l1.2,1.2c14.7-18.4,23.3-40.4,22-64.9
			C1779.9,312.1,1772.6,291.3,1760.3,275.4z"/>
	</g>
	<g>
		<path class="st0" d="M2104.3,254.6v-3.7h-12.2v-1.2h-1.2v-12.2h-3.7v12.2h-8.6v-12.2h-3.7v12.2h-8.6v-12.2h-3.7v12.2h-7.3v-12.2
			h-3.7v12.2h-8.6v-12.2h-3.7v12.2h-8.6v-12.2h-3.7v12.2h-8.6v-12.2h-3.7v12.2h-7.3v-12.2h-3.7v12.2h-7.3v-12.2h-3.7v12.2h-8.6
			v-12.2h-3.7v12.2h-8.6v-12.2h-3.7v12.2h-1.2v1.2H1955v3.7h12.2v8.6H1955v3.7h12.2v8.6H1955v3.7h12.2v8.6H1955v3.7h12.2v7.3H1955
			v3.7h12.2v8.6H1955v3.7h12.2v8.6H1955v3.7h12.2v8.6H1955v3.7h12.2v8.6H1955v3.7h12.2v7.3H1955v3.7h12.2v8.6H1955v3.7h12.2v1.2h1.2
			V388h3.7v-12.2h8.6V388h3.7v-12.2h8.6V388h3.7v-12.2h7.3V388h3.7v-12.2h7.3V388h3.7v-12.2h8.6V388h3.7v-12.2h8.6V388h3.7v-12.2
			h8.6V388h3.7v-12.2h7.3V388h3.7v-12.2h8.6V388h3.7v-12.2h8.6V388h3.7v-12.2h1.2v-1.2h12.2v-3.7h-12.2v-8.6h12.2v-3.7h-12.2v-7.3
			h12.2v-3.7h-12.2v-8.6h12.2v-3.7h-12.2v-8.6h12.2v-3.7h-12.2v-8.6h12.2v-3.7h-12.2v-8.6h12.2v-3.7h-12.2v-7.3h12.2v-3.7h-12.2
			v-8.6h12.2v-3.7h-12.2v-8.6h12.2v-3.7h-12.2v-8.6H2104.3z"/>
		<path class="st1" d="M2085.9,274.2v-3.7h-12.2v-1.2h-1.2v-12.2h-3.7v12.2h-8.6v-12.2h-3.7v12.2h-8.6v-12.2h-3.7v12.2h-7.3v-12.2
			h-3.7v12.2h-8.6v-12.2h-3.7v12.2h-7.3v-12.2h-3.7v12.2h-8.6v-12.2h-3.7v12.2h-7.3v-12.2h-3.7v12.2h-7.3v-12.2h-3.7v12.2h-8.6
			v-12.2h-2.4v12.2h-8.6v-12.2h-3.7v12.2h-1.2v1.2h-12.2v3.7h12.2v8.6h-12.2v3.7h12.2v8.6h-12.2v3.7h12.2v8.6h-12.2v3.7h12.2v7.3
			h-12.2v3.7h12.2v6.1h-12.2v3.7h12.2v8.6h-12.2v3.7h12.2v8.6h-12.2v3.7h12.2v8.6h-12.2v3.7h12.2v7.3h-12.2v3.7h12.2v8.6h-12.2v1.2
			h12.2v1.2h1.2v12.2h3.7v-12.2h8.6v12.2h3.7v-12.2h8.6v12.2h3.7v-12.2h7.3v12.2h3.7v-12.2h7.3v12.2h3.7v-12.2h8.6v12.2h3.7v-12.2
			h8.6v12.2h3.7v-12.2h8.6v12.2h3.7v-12.2h7.3v12.2h3.7v-12.2h8.6v12.2h3.7v-12.2h8.6v12.2h3.7v-12.2h1.2v-1.2h12.2v-3.7h-12.2V377
			h12.2v-3.7h-12.2V366h12.2v-3.7h-12.2v-8.6h12.2v-3.7h-12.2v-8.6h12.2v-1.2h-12.2v-8.6h12.2V328h-12.2v-8.6h12.2v-3.7h-12.2v-7.3
			h12.2v-3.7h-12.2v-8.6h12.2v-3.7h-12.2V284h12.2v-3.7h-12.2v-8.6h9.8V274.2z"/>
	</g>
</g>
</svg>
