<svg version="1.1" id="circuits" xmlns="http://www.w3.org/2000/svg" xmlns:xlink="http://www.w3.org/1999/xlink" x="0px" y="0px"
	 viewBox="0 0 3000 1014.2" style="enable-background:new 0 0 3000 1014.2;" xml:space="preserve">
<style type="text/css">
	.st0{opacity:9.000000e-02;enable-background:new    ;}
	.st1{fill:none;stroke:#B1B1B1;stroke-width:3;}
	.st2{fill:none;stroke:#BE202E;stroke-width:3;stroke-miterlimit:10;}
	.st3{fill:#BE202E;stroke:#BE202E;stroke-width:6;stroke-miterlimit:10;}
	.st4{enable-background:new    ;}
</style>
<g id="objects">
	<g>
		<path class="st0" d="M214.7,267.1c-2-4.1-2-6.1-2-9.2s0-13.2,0-16.3c0-4.1,0-5.1,5.1-7.2c4.1-2,4.1-3.1,4.1-5.1s0-4.1-4.1-4.1
			s-17.3,0-17.3,0s-14.2,0-17.3,0c-4.1,0-4.1,3.1-4.1,4.1c0,2,0,3.1,4.1,5.1s5.1,3.1,5.1,7.2c0,4.1,0,13.2,0,16.3s0,5.1-2,9.2
			s-56,75.5-61.1,83.6c-6.1,8.2-8.2,18.3-4.1,23.5c4.1,6.1,9.2,9.2,14.2,9.2c5.1,0,66.3,0,66.3,0s60.1,0,66.3,0
			c5.1,0,11.2-4.1,14.2-9.2c4.1-6.1,2-15.3-4.1-23.5C270.7,342.6,217.7,271.2,214.7,267.1z"/>
		<circle class="st1" cx="187.1" cy="204.9" r="7.2"/>
		<circle class="st1" cx="205.4" cy="215.2" r="5.1"/>
		<circle class="st1" cx="206.5" cy="191.7" r="10.2"/>
		<path class="st1" d="M262.6,365c-6.1-8.2-59.1-79.5-61.1-83.6s-2-6.1-2-9.2s0-13.2,0-16.3c0-4.1,0-5.1,5.1-7.2
			c4.1-2,4.1-3.1,4.1-5.1s0-4.1-4.1-4.1s-17.3,0-17.3,0s-14.2,0-17.3,0c-4.1,0-4.1,3.1-4.1,4.1s0,3.1,4.1,5.1s5.1,3.1,5.1,7.2
			s0,13.2,0,16.3s0,5.1-2,9.2s-56,75.5-61.1,83.6c-6.1,8.2-8.2,18.3-4.1,23.5c4.1,6.1,9.2,9.2,14.2,9.2s66.3,0,66.3,0s60.1,0,66.3,0
			c5.1,0,11.2-4.1,14.2-9.2C270.7,383.3,268.6,374.1,262.6,365z"/>
		<circle class="st1" cx="172.9" cy="219.2" r="7.2"/>
		<circle class="st1" cx="191.2" cy="229.4" r="5.1"/>
		<circle class="st1" cx="193.3" cy="206" r="10.2"/>
	</g>
	<g>
		<path class="st0" d="M1321.4,383.8c-7.1-7.1-67.9-22.1-78.9-8.7c-4.7,5.5-41,38.7-57.6,43.4c-15.8,4.7-75,8.7-84.5,19
			c-8.7,11-1.5,18.2,11,28.4c12.6,10.3,95.5,12.6,105.7,8.7c10.3-3.2,28.4-8.7,48.2-8.7c19.7,0,4.7,10.3,20.5,10.3
			c15,0,42.6,3.9,44.2-10.3C1331.6,451.6,1328.5,390.9,1321.4,383.8z M1283.5,412.2c-6.3,0-11-4.7-11-11s4.7-11,11-11s11,4.7,11,11
			C1294.6,407.5,1289,412.2,1283.5,412.2z"/>
		<path class="st1" d="M1310.4,394.8c-7.1-7.1-67.9-22.1-78.9-8.7c-4.7,5.5-41,38.7-57.6,43.4c-15.8,4.7-75,8.7-84.5,19
			c-8.7,11-1.5,18.2,11,28.4c12.6,10.3,95.5,12.6,105.7,8.7c10.3-3.2,28.4-8.7,48.2-8.7s4.7,10.3,20.5,10.3c15,0,42.6,3.9,44.2-10.3
			C1320.6,462.7,1317.5,401.9,1310.4,394.8z M1272.4,423.3c-6.3,0-11-4.7-11-11s4.7-11,11-11s11,4.7,11,11
			C1283.5,418.5,1278.8,423.3,1272.4,423.3z"/>
	</g>
	<g>
		<path class="st0" d="M2379.4,623.1c1-1-2-4.1-3.1-6.1c-1-1-8.2-7.2-9.2-8.2s-3.1-3.1-4.1,0c-1,2-3.1,4.1-2,7.2c1,3.1,2,3.1,2,3.1
			s1-1,2-2c0-1,2-2,2,0c1,1,2,5.1,1,6.1c-2,1-5.1,2-6.1,2c-1-1-4.1-7.2-3.1-8.2s4.1-9.2,4.1-10.2c0-2,1-8.2,3.1-11.2
			c2-3.1,8.2-13.2,8.2-17.3s-1-12.2,1-14.2c1-2,9.2-13.2,10.2-14.2s7.2-7.2,8.2-7.2s7.2-8.2,8.2-10.2c1-1,4.1-4.1,7.2-7.2
			c0-1,0-5.1,0-5.1s-3.1,0-5.1-1s-13.2-10.2-17.3-13.2c-3.1-3.1-11.2-12.2-12.2-14.2s-5.1-1-5.1-1c-2,2-16.3,19.4-17.3,20.4
			c-1,1-6.1,11.2-7.2,13.2c0,2-6.1,21.4-7.2,24.5c-1,4.1,0,11.2-3.1,14.2s-11.2,14.2-14.2,18.3c-4.1,4.1-5.1,6.1-6.1,8.2
			c-1,2-3.1,5.1-2,9.2c1,4.1,6.1,6.1,6.1,6.1c2,1,13.2,9.2,16.3,12.2c3.1,2,13.2,12.2,16.3,14.2s7.2,6.1,11.2,5.1
			c4.1-1,9.2-2,10.2-1s7.2-2,7.2-4.1C2378.4,628.2,2378.4,624.1,2379.4,623.1z"/>
		<path class="st0" d="M2387.6,503.8c2,2,13.2,11.2,15.3,12.2c2,1,4.1,1,4.1,1l1,1c-1-7.2-3.1-14.2-4.1-16.3c0-1-2-3.1-3.1-3.1l0,0
			l0,0c1,0,3.1,1,4.1,1c0,0,4.1-5.1,4.1-6.1c0,0,0-2-1-2c0,0,5.1,4.1,6.1,5.1s3.1-1,4.1-2s1-3.1,0-5.1s-19.4-15.3-22.4-16.3
			c-3.1-1-4.1,0-4.1,1s-1,2-1,2c0,1,0,2,2,3.1c2,1,5.1,4.1,6.1,4.1c-1-1-3.1-2-4.1-2s-2,0-4.1,2c-2,2-3.1,2-3.1,3.1c0,1,1,2,1,2
			s0-1-1-1s-2,0-3.1,0s-6.1,0-9.2,0l1,1C2376.3,490.6,2385.5,500.7,2387.6,503.8z"/>
		<path class="st1" d="M2389.6,531.3c-3.1,3.1-6.1,6.1-7.2,7.2c-1,1-7.2,9.2-8.2,10.2c-1,0-7.2,7.2-8.2,7.2s-8.2,11.2-10.2,14.2
			s-2,10.2-1,14.2c1,4.1-6.1,14.2-8.2,17.3c-2,3.1-2,9.2-3.1,11.2c0,2-3.1,9.2-4.1,10.2s2,7.2,3.1,8.2c1,1,4.1-1,6.1-2s0-5.1-1-6.1
			s-2-1-2,0s-2,2-2,2s-2,0-2-3.1c0-2,2-5.1,2-7.2c1-2,3.1-1,4.1,0s8.2,7.2,9.2,8.2s4.1,5.1,3.1,6.1s-1,4.1-2,6.1s-6.1,4.1-7.2,4.1
			c-1,0-6.1,0-10.2,1c-4.1,1-8.2-3.1-11.2-5.1c-3.1-2-13.2-12.2-16.3-14.2c-3.1-3.1-14.2-11.2-16.3-12.2c0,0-4.1-3.1-6.1-6.1
			c-2-3.1,1-6.1,2-9.2c1-3.1,3.1-4.1,6.1-8.2c4.1-4.1,11.2-15.3,14.2-18.3c3.1-3.1,3.1-10.2,3.1-14.2c1-4.1,6.1-22.4,7.2-24.5
			c1.1-2.1,5.1-11.2,7.2-13.2c2-2,15.3-18.3,17.3-20.4c0,0,4.1-2,5.1,1c1,2,9.2,11.2,12.2,14.2c3.1,3.1,15.3,13.2,17.3,13.2
			c2,1,4.1,1,5.1,1C2389.6,526.2,2389.6,531.3,2389.6,531.3z"/>
		<path class="st1" d="M2382.5,505.8c-1,0-7.2-4.1-9.2-6.1c-2-1-3.1-2-4.1-4.1c0,0,0-1-1-1s-2,0-3.1,0s-6.1,0-9.2,0l1,1
			c0,1,9.2,11.2,11.2,14.2c2,2,13.2,11.2,15.3,12.2c2,1,4.1,1,4.1,1l1,1c-1-7.2-3.1-14.2-4.1-16.3
			C2385.5,507.9,2383.5,505.8,2382.5,505.8z"/>
		<path class="st1" d="M2373.2,479.3c0,1-1,2-1,2c0,1,0,2,2,3.1c2,1,5.1,4.1,6.1,4.1c1,1,9.2,7.2,9.2,7.2s5.1,4.1,6.1,5.1
			s3.1-1,4.1-2s1-3.1,0-5.1s-19.4-15.3-22.4-16.3C2374.3,477.3,2373.2,479.3,2373.2,479.3z"/>
		<path class="st1" d="M2370.2,495.7c1,1,2,2,4.1,4.1c2,2,8.2,5.1,9.2,6.1c1,0,3.1,1,4.1,1c0,0,4.1-5.1,4.1-6.1c0,0,0-2-1-2
			c0,0-8.2-7.2-9.2-7.2c-1-1-3.1-2-4.1-2s-2,0-4.1,2c-2,2-3.1,2-3.1,3.1C2369.2,494.7,2370.2,495.7,2370.2,495.7z"/>
	</g>
	<g>
		<path class="st0" d="M2882.4,481.4h-251.3c-7.1,0-13.5,5.6-13.5,13.5v148.7c0,7.1,5.6,13.5,13.5,13.5h93c0,0-4,20.7-6.4,31
			s1.6,12,6.4,12c4,0,60.4,0,64.4,0c4.7,0,8.8-2.4,6.4-12c-2.4-10.3-6.4-31-6.4-31h93c7.1,0,13.5-5.6,13.5-13.5V494.9
			C2895.1,487.8,2889.5,481.4,2882.4,481.4z"/>
		<path class="st1" d="M2869.7,668.3h-251.3c-7.1,0-12.7-5.6-12.7-12.7V506.8c0-7.1,5.6-12.7,12.7-12.7h251.3
			c7.1,0,12.7,5.6,12.7,12.7v148.7C2882.4,662.7,2876.8,668.3,2869.7,668.3z"/>
		<rect x="2620" y="507.7" class="st1" width="248.9" height="146.3"/>
		<path class="st1" d="M2783,699.2c-2.4-10.3-6.4-31-6.4-31h-31h-2.4h-31.1c0,0-4,20.7-6.4,31s1.6,12,6.4,12c4,0,60.4,0,64.4,0
			C2781.4,711.2,2785.4,708.8,2783,699.2z"/>
	</g>
	<g>
		<path class="st0" d="M2832.3,730.3H2682c-0.8,0-1.6,0.8-1.6,1.6v62.8c0,0.8,0.8,1.6,1.6,1.6h150.3c0.8,0,1.6-0.8,1.6-1.6v-62.8
			C2833.1,731.1,2832.3,730.3,2832.3,730.3z"/>
		<path class="st1" d="M2819.6,808.2h-150.3c-0.8,0-1.6-0.8-1.6-1.6v-62.8c0-0.8,0.8-1.6,1.6-1.6h150.3c0.8,0,1.6,0.8,1.6,1.6v62.8
			C2821.1,807.4,2820.4,808.2,2819.6,808.2z"/>
		<path class="st1" d="M2777.4,803.4h-62c-0.8,0-1.6-0.8-1.6-1.6v-6.4c0-0.8,0.8-1.6,1.6-1.6h62c0.8,0,1.6,0.8,1.6,1.6v6.4
			C2778.2,802.7,2778.2,803.4,2777.4,803.4z"/>
		<path class="st1" d="M2710.6,803.4h-9.5c-0.8,0-1.6-0.8-1.6-1.6v-6.4c0-0.8,0.8-1.6,1.6-1.6h9.5c0.8,0,1.6,0.8,1.6,1.6v6.4
			C2712.2,802.7,2711.4,803.4,2710.6,803.4z"/>
		<path class="st1" d="M2765.5,803.4H2752c-0.8,0-1.6-0.8-1.6-1.6v-6.4c0-0.8,0.8-1.6,1.6-1.6h13.5c0.8,0,1.6,0.8,1.6,1.6v6.4
			C2767.1,802.7,2766.3,803.4,2765.5,803.4z"/>
		<path class="st1" d="M2771.8,793.1h-19.1c-0.8,0-1.6-0.8-1.6-1.6v-6.4c0-0.8,0.8-1.6,1.6-1.6h19.1c0.8,0,1.6,0.8,1.6,1.6v6.4
			C2773.5,792.3,2772.7,793.1,2771.8,793.1z"/>
		<path class="st1" d="M2815.6,793.1h-15.9c-0.8,0-1.6-0.8-1.6-1.6v-6.4c0-0.8,0.8-1.6,1.6-1.6h15.9c0.8,0,1.6,0.8,1.6,1.6v6.4
			C2817.2,792.3,2816.4,793.1,2815.6,793.1z"/>
		<path class="st1" d="M2775.9,803.4h-5.6c-0.8,0-1.6-0.8-1.6-1.6v-6.4c0-0.8,0.8-1.6,1.6-1.6h5.6c0.8,0,1.6,0.8,1.6,1.6v6.4
			C2777.4,802.7,2776.6,803.4,2775.9,803.4z"/>
		<path class="st1" d="M2702.7,793.1h-6.4c-0.8,0-1.6-0.8-1.6-1.6v-6.4c0-0.8,0.8-1.6,1.6-1.6h5.6c0.8,0,1.6,0.8,1.6,1.6v6.4
			C2703.5,792.3,2703.5,793.1,2702.7,793.1z"/>
		<path class="st1" d="M2713.1,793.1h-5.6c-0.8,0-1.6-0.8-1.6-1.6v-6.4c0-0.8,0.8-1.6,1.6-1.6h5.6c0.8,0,1.6,0.8,1.6,1.6v6.4
			C2713.8,792.3,2713.1,793.1,2713.1,793.1z"/>
		<path class="st1" d="M2722.5,793.1h-5.6c-0.8,0-1.6-0.8-1.6-1.6v-6.4c0-0.8,0.8-1.6,1.6-1.6h5.6c0.8,0,1.6,0.8,1.6,1.6v6.4
			C2724.2,792.3,2723.4,793.1,2722.5,793.1z"/>
		<path class="st1" d="M2732.9,793.1h-5.6c-0.8,0-1.6-0.8-1.6-1.6v-6.4c0-0.8,0.8-1.6,1.6-1.6h5.6c0.8,0,1.6,0.8,1.6,1.6v6.4
			C2734.5,792.3,2733.7,793.1,2732.9,793.1z"/>
		<path class="st1" d="M2743.3,793.1h-5.6c-0.8,0-1.6-0.8-1.6-1.6v-6.4c0-0.8,0.8-1.6,1.6-1.6h5.6c0.8,0,1.6,0.8,1.6,1.6v6.4
			C2744.8,792.3,2744,793.1,2743.3,793.1z"/>
		<path class="st1" d="M2753.6,793.1h-5.6c-0.8,0-1.6-0.8-1.6-1.6v-6.4c0-0.8,0.8-1.6,1.6-1.6h5.6c0.8,0,1.6,0.8,1.6,1.6v6.4
			C2755.1,792.3,2754.4,793.1,2753.6,793.1z"/>
		<path class="st1" d="M2763.9,793.1h-5.6c-0.8,0-1.6-0.8-1.6-1.6v-6.4c0-0.8,0.8-1.6,1.6-1.6h5.6c0.8,0,1.6,0.8,1.6,1.6v6.4
			C2765.5,792.3,2764.7,793.1,2763.9,793.1z"/>
		<path class="st1" d="M2774.2,793.1h-5.6c-0.8,0-1.6-0.8-1.6-1.6v-6.4c0-0.8,0.8-1.6,1.6-1.6h5.6c0.8,0,1.6,0.8,1.6,1.6v6.4
			C2775.9,792.3,2775,793.1,2774.2,793.1z"/>
		<path class="st1" d="M2784.6,793.1h-5.6c-0.8,0-1.6-0.8-1.6-1.6v-6.4c0-0.8,0.8-1.6,1.6-1.6h5.6c0.8,0,1.6,0.8,1.6,1.6v6.4
			C2786.2,792.3,2785.4,793.1,2784.6,793.1z"/>
		<path class="st1" d="M2794.9,793.1h-5.6c-0.8,0-1.6-0.8-1.6-1.6v-6.4c0-0.8,0.8-1.6,1.6-1.6h5.6c0.8,0,1.6,0.8,1.6,1.6v6.4
			C2796.5,792.3,2795.7,793.1,2794.9,793.1z"/>
		<path class="st1" d="M2776.6,781.9h-5.6c-0.8,0-1.6-0.8-1.6-1.6V774c0-0.8,0.8-1.6,1.6-1.6h5.6c0.8,0,1.6,0.8,1.6,1.6v6.4
			C2777.4,781.9,2777.4,781.9,2776.6,781.9z"/>
		<path class="st1" d="M2766.3,781.9h-13.5c-0.8,0-1.6-0.8-1.6-1.6V774c0-0.8,0.8-1.6,1.6-1.6h13.5c0.8,0,1.6,0.8,1.6,1.6v6.4
			C2767.1,781.9,2767.1,781.9,2766.3,781.9z"/>
		<path class="st1" d="M2707.5,781.9h-5.6c-0.8,0-1.6-0.8-1.6-1.6V774c0-0.8,0.8-1.6,1.6-1.6h5.6c0.8,0,1.6,0.8,1.6,1.6v6.4
			C2708.2,781.9,2707.5,781.9,2707.5,781.9z"/>
		<path class="st1" d="M2717,781.9h-5.6c-0.8,0-1.6-0.8-1.6-1.6V774c0-0.8,0.8-1.6,1.6-1.6h5.6c0.8,0,1.6,0.8,1.6,1.6v6.4
			C2718.6,781.9,2717.8,781.9,2717,781.9z"/>
		<path class="st1" d="M2727.3,781.9h-5.6c-0.8,0-1.6-0.8-1.6-1.6V774c0-0.8,0.8-1.6,1.6-1.6h5.6c0.8,0,1.6,0.8,1.6,1.6v6.4
			C2728.9,781.9,2728.1,781.9,2727.3,781.9z"/>
		<path class="st1" d="M2737.7,781.9h-5.6c-0.8,0-1.6-0.8-1.6-1.6V774c0-0.8,0.8-1.6,1.6-1.6h5.6c0.8,0,1.6,0.8,1.6,1.6v6.4
			C2739.2,781.9,2738.4,781.9,2737.7,781.9z"/>
		<path class="st1" d="M2748,781.9h-5.6c-0.8,0-1.6-0.8-1.6-1.6V774c0-0.8,0.8-1.6,1.6-1.6h5.6c0.8,0,1.6,0.8,1.6,1.6v6.4
			C2749.6,781.9,2748.8,781.9,2748,781.9z"/>
		<path class="st1" d="M2758.3,781.9h-5.6c-0.8,0-1.6-0.8-1.6-1.6V774c0-0.8,0.8-1.6,1.6-1.6h5.6c0.8,0,1.6,0.8,1.6,1.6v6.4
			C2760,781.9,2759.1,781.9,2758.3,781.9z"/>
		<path class="st1" d="M2768.7,781.9h-5.6c-0.8,0-1.6-0.8-1.6-1.6V774c0-0.8,0.8-1.6,1.6-1.6h5.6c0.8,0,1.6,0.8,1.6,1.6v6.4
			C2770.3,781.9,2769.5,781.9,2768.7,781.9z"/>
		<path class="st1" d="M2779,781.9h-5.6c-0.8,0-1.6-0.8-1.6-1.6V774c0-0.8,0.8-1.6,1.6-1.6h5.6c0.8,0,1.6,0.8,1.6,1.6v6.4
			C2780.6,781.9,2779.8,781.9,2779,781.9z"/>
		<path class="st1" d="M2789.4,781.9h-5.6c-0.8,0-1.6-0.8-1.6-1.6V774c0-0.8,0.8-1.6,1.6-1.6h5.6c0.8,0,1.6,0.8,1.6,1.6v6.4
			C2790.9,781.9,2790.2,781.9,2789.4,781.9z"/>
		<path class="st1" d="M2799.7,781.9h-5.6c-0.8,0-1.6-0.8-1.6-1.6V774c0-0.8,0.8-1.6,1.6-1.6h5.6c0.8,0,1.6,0.8,1.6,1.6v6.4
			C2801.3,781.9,2800.5,781.9,2799.7,781.9z"/>
		<path class="st1" d="M2771.1,771.6h-5.6c-0.8,0-1.6-0.8-1.6-1.6v-6.4c0-0.8,0.8-1.6,1.6-1.6h5.6c0.8,0,1.6,0.8,1.6,1.6v6.4
			C2771.8,771.6,2771.8,771.6,2771.1,771.6z"/>
		<path class="st1" d="M2760.7,771.6h-8.8c-0.8,0-1.6-0.8-1.6-1.6v-6.4c0-0.8,0.8-1.6,1.6-1.6h8.8c0.8,0,1.6,0.8,1.6,1.6v6.4
			C2761.5,771.6,2761.5,771.6,2760.7,771.6z"/>
		<path class="st1" d="M2701.9,771.6h-5.6c-0.8,0-1.6-0.8-1.6-1.6v-6.4c0-0.8,0.8-1.6,1.6-1.6h5.6c0.8,0,1.6,0.8,1.6,1.6v6.4
			C2702.7,771.6,2702.7,771.6,2701.9,771.6z"/>
		<path class="st1" d="M2712.2,771.6h-5.6c-0.8,0-1.6-0.8-1.6-1.6v-6.4c0-0.8,0.8-1.6,1.6-1.6h5.6c0.8,0,1.6,0.8,1.6,1.6v6.4
			C2713.1,771.6,2713.1,771.6,2712.2,771.6z"/>
		<path class="st1" d="M2722.5,771.6h-5.6c-0.8,0-1.6-0.8-1.6-1.6v-6.4c0-0.8,0.8-1.6,1.6-1.6h5.6c0.8,0,1.6,0.8,1.6,1.6v6.4
			C2723.4,771.6,2723.4,771.6,2722.5,771.6z"/>
		<path class="st1" d="M2732.9,771.6h-5.6c-0.8,0-1.6-0.8-1.6-1.6v-6.4c0-0.8,0.8-1.6,1.6-1.6h5.6c0.8,0,1.6,0.8,1.6,1.6v6.4
			C2733.7,771.6,2733.7,771.6,2732.9,771.6z"/>
		<path class="st1" d="M2743.3,771.6h-5.6c-0.8,0-1.6-0.8-1.6-1.6v-6.4c0-0.8,0.8-1.6,1.6-1.6h5.6c0.8,0,1.6,0.8,1.6,1.6v6.4
			C2744,771.6,2744,771.6,2743.3,771.6z"/>
		<path class="st1" d="M2753.6,771.6h-5.6c-0.8,0-1.6-0.8-1.6-1.6v-6.4c0-0.8,0.8-1.6,1.6-1.6h5.6c0.8,0,1.6,0.8,1.6,1.6v6.4
			C2754.4,771.6,2754.4,771.6,2753.6,771.6z"/>
		<path class="st1" d="M2763.9,771.6h-5.6c-0.8,0-1.6-0.8-1.6-1.6v-6.4c0-0.8,0.8-1.6,1.6-1.6h5.6c0.8,0,1.6,0.8,1.6,1.6v6.4
			C2764.7,771.6,2764.7,771.6,2763.9,771.6z"/>
		<path class="st1" d="M2774.2,771.6h-6.4c-0.8,0-1.6-0.8-1.6-1.6v-6.4c0-0.8,0.8-1.6,1.6-1.6h5.6c0.8,0,1.6,0.8,1.6,1.6v6.4
			C2775,771.6,2775,771.6,2774.2,771.6z"/>
		<path class="st1" d="M2784.6,771.6h-5.6c-0.8,0-1.6-0.8-1.6-1.6v-6.4c0-0.8,0.8-1.6,1.6-1.6h5.6c0.8,0,1.6,0.8,1.6,1.6v6.4
			C2785.4,771.6,2784.6,771.6,2784.6,771.6z"/>
		<path class="st1" d="M2794.1,771.6h-5.6c-0.8,0-1.6-0.8-1.6-1.6v-6.4c0-0.8,0.8-1.6,1.6-1.6h5.6c0.8,0,1.6,0.8,1.6,1.6v6.4
			C2795.7,771.6,2794.9,771.6,2794.1,771.6z"/>
		<path class="st1" d="M2804.4,771.6h-5.6c-0.8,0-1.6-0.8-1.6-1.6v-6.4c0-0.8,0.8-1.6,1.6-1.6h5.6c0.8,0,1.6,0.8,1.6,1.6v6.4
			C2806.1,771.6,2805.2,771.6,2804.4,771.6z"/>
		<path class="st1" d="M2814.8,771.6h-5.6c-0.8,0-1.6-0.8-1.6-1.6v-6.4c0-0.8,0.8-1.6,1.6-1.6h5.6c0.8,0,1.6,0.8,1.6,1.6v6.4
			C2816.4,771.6,2815.6,771.6,2814.8,771.6z"/>
		<path class="st1" d="M2758.3,761.3h-5.6c-0.8,0-1.6-0.8-1.6-1.6v-6.4c0-0.8,0.8-1.6,1.6-1.6h5.6c0.8,0,1.6,0.8,1.6,1.6v6.4
			C2760,761.3,2759.1,761.3,2758.3,761.3z"/>
		<path class="st1" d="M2768.7,761.3h-5.6c-0.8,0-1.6-0.8-1.6-1.6v-6.4c0-0.8,0.8-1.6,1.6-1.6h5.6c0.8,0,1.6,0.8,1.6,1.6v6.4
			C2770.3,761.3,2769.5,761.3,2768.7,761.3z"/>
		<path class="st1" d="M2779,761.3h-5.6c-0.8,0-1.6-0.8-1.6-1.6v-6.4c0-0.8,0.8-1.6,1.6-1.6h5.6c0.8,0,1.6,0.8,1.6,1.6v6.4
			C2779.8,761.3,2779.8,761.3,2779,761.3z"/>
		<path class="st1" d="M2709.9,761.3h-5.6c-0.8,0-1.6-0.8-1.6-1.6v-6.4c0-0.8,0.8-1.6,1.6-1.6h5.6c0.8,0,1.6,0.8,1.6,1.6v6.4
			C2710.6,761.3,2710.6,761.3,2709.9,761.3z"/>
		<path class="st1" d="M2720.2,761.3h-5.6c-0.8,0-1.6-0.8-1.6-1.6v-6.4c0-0.8,0.8-1.6,1.6-1.6h5.6c0.8,0,1.6,0.8,1.6,1.6v6.4
			C2721,761.3,2721,761.3,2720.2,761.3z"/>
		<path class="st1" d="M2730.5,761.3h-5.6c-0.8,0-1.6-0.8-1.6-1.6v-6.4c0-0.8,0.8-1.6,1.6-1.6h5.6c0.8,0,1.6,0.8,1.6,1.6v6.4
			C2731.3,761.3,2730.5,761.3,2730.5,761.3z"/>
		<path class="st1" d="M2740.9,761.3h-5.6c-0.8,0-1.6-0.8-1.6-1.6v-6.4c0-0.8,0.8-1.6,1.6-1.6h5.6c0.8,0,1.6,0.8,1.6,1.6v6.4
			C2741.6,761.3,2740.9,761.3,2740.9,761.3z"/>
		<path class="st1" d="M2751.2,761.3h-5.6c-0.8,0-1.6-0.8-1.6-1.6v-6.4c0-0.8,0.8-1.6,1.6-1.6h5.6c0.8,0,1.6,0.8,1.6,1.6v6.4
			C2752,761.3,2751.2,761.3,2751.2,761.3z"/>
		<path class="st1" d="M2761.5,761.3h-5.6c-0.8,0-1.6-0.8-1.6-1.6v-6.4c0-0.8,0.8-1.6,1.6-1.6h5.6c0.8,0,1.6,0.8,1.6,1.6v6.4
			C2762.3,761.3,2761.5,761.3,2761.5,761.3z"/>
		<path class="st1" d="M2771.1,761.3h-5.6c-0.8,0-1.6-0.8-1.6-1.6v-6.4c0-0.8,0.8-1.6,1.6-1.6h5.6c0.8,0,1.6,0.8,1.6,1.6v6.4
			C2772.7,761.3,2771.8,761.3,2771.1,761.3z"/>
		<path class="st1" d="M2781.4,761.3h-5.6c-0.8,0-1.6-0.8-1.6-1.6v-6.4c0-0.8,0.8-1.6,1.6-1.6h5.6c0.8,0,1.6,0.8,1.6,1.6v6.4
			C2783,761.3,2782.2,761.3,2781.4,761.3z"/>
		<path class="st1" d="M2791.7,761.3h-5.6c-0.8,0-1.6-0.8-1.6-1.6v-6.4c0-0.8,0.8-1.6,1.6-1.6h5.6c0.8,0,1.6,0.8,1.6,1.6v6.4
			C2793.3,761.3,2792.6,761.3,2791.7,761.3z"/>
		<path class="st1" d="M2802,761.3h-5.6c-0.8,0-1.6-0.8-1.6-1.6v-6.4c0-0.8,0.8-1.6,1.6-1.6h5.6c0.8,0,1.6,0.8,1.6,1.6v6.4
			C2803.7,761.3,2802.9,761.3,2802,761.3z"/>
		<path class="st1" d="M2758.3,751.7h-6.4c-0.8,0-1.6-0.8-1.6-1.6v-1.6c0-0.8,0.8-1.6,1.6-1.6h6.4c0.8,0,1.6,0.8,1.6,1.6v1.6
			C2760,750.9,2759.1,751.7,2758.3,751.7z"/>
		<path class="st1" d="M2768.7,751.7h-6.4c-0.8,0-1.6-0.8-1.6-1.6v-1.6c0-0.8,0.8-1.6,1.6-1.6h6.4c0.8,0,1.6,0.8,1.6,1.6v1.6
			C2770.3,750.9,2769.5,751.7,2768.7,751.7z"/>
		<path class="st1" d="M2779.8,751.7h-6.4c-0.8,0-1.6-0.8-1.6-1.6v-1.6c0-0.8,0.8-1.6,1.6-1.6h6.4c0.8,0,1.6,0.8,1.6,1.6v1.6
			C2780.6,750.9,2779.8,751.7,2779.8,751.7z"/>
		<path class="st1" d="M2710.6,751.7h-6.4c-0.8,0-1.6-0.8-1.6-1.6v-1.6c0-0.8,0.8-1.6,1.6-1.6h6.4c0.8,0,1.6,0.8,1.6,1.6v1.6
			C2711.4,750.9,2711.4,751.7,2710.6,751.7z"/>
		<path class="st1" d="M2721,751.7h-6.4c-0.8,0-1.6-0.8-1.6-1.6v-1.6c0-0.8,0.8-1.6,1.6-1.6h6.4c0.8,0,1.6,0.8,1.6,1.6v1.6
			C2722.5,750.9,2721.8,751.7,2721,751.7z"/>
		<path class="st1" d="M2731.3,751.7h-6.4c-0.8,0-1.6-0.8-1.6-1.6v-1.6c0-0.8,0.8-1.6,1.6-1.6h6.4c0.8,0,1.6,0.8,1.6,1.6v1.6
			C2732.9,750.9,2732.1,751.7,2731.3,751.7z"/>
		<path class="st1" d="M2741.6,751.7h-5.6c-0.8,0-1.6-0.8-1.6-1.6v-1.6c0-0.8,0.8-1.6,1.6-1.6h6.4c0.8,0,1.6,0.8,1.6,1.6v1.6
			C2743.3,750.9,2742.4,751.7,2741.6,751.7z"/>
		<path class="st1" d="M2752.8,751.7h-6.4c-0.8,0-1.6-0.8-1.6-1.6v-1.6c0-0.8,0.8-1.6,1.6-1.6h6.4c0.8,0,1.6,0.8,1.6,1.6v1.6
			C2753.6,750.9,2753.6,751.7,2752.8,751.7z"/>
		<path class="st1" d="M2763.1,751.7h-6.4c-0.8,0-1.6-0.8-1.6-1.6v-1.6c0-0.8,0.8-1.6,1.6-1.6h6.4c0.8,0,1.6,0.8,1.6,1.6v1.6
			C2764.7,750.9,2763.9,751.7,2763.1,751.7z"/>
		<path class="st1" d="M2773.5,751.7h-5.6c-0.8,0-1.6-0.8-1.6-1.6v-1.6c0-0.8,0.8-1.6,1.6-1.6h6.4c0.8,0,1.6,0.8,1.6,1.6v1.6
			C2775,750.9,2774.2,751.7,2773.5,751.7z"/>
		<path class="st1" d="M2783.8,751.7h-6.4c-0.8,0-1.6-0.8-1.6-1.6v-1.6c0-0.8,0.8-1.6,1.6-1.6h6.4c0.8,0,1.6,0.8,1.6,1.6v1.6
			C2785.4,750.9,2784.6,751.7,2783.8,751.7z"/>
		<path class="st1" d="M2794.9,751.7h-6.4c-0.8,0-1.6-0.8-1.6-1.6v-1.6c0-0.8,0.8-1.6,1.6-1.6h6.4c0.8,0,1.6,0.8,1.6,1.6v1.6
			C2795.7,750.9,2794.9,751.7,2794.9,751.7z"/>
		<path class="st1" d="M2805.2,751.7h-6.4c-0.8,0-1.6-0.8-1.6-1.6v-1.6c0-0.8,0.8-1.6,1.6-1.6h6.4c0.8,0,1.6,0.8,1.6,1.6v1.6
			C2806.9,750.9,2806.1,751.7,2805.2,751.7z"/>
		<path class="st1" d="M2815.6,751.7h-6.4c-0.8,0-1.6-0.8-1.6-1.6v-1.6c0-0.8,0.8-1.6,1.6-1.6h6.4c0.8,0,1.6,0.8,1.6,1.6v1.6
			C2817.2,750.9,2816.4,751.7,2815.6,751.7z"/>
		<path class="st1" d="M2815.6,761.3h-8.8c-0.8,0-1.6-0.8-1.6-1.6v-6.4c0-0.8,0.8-1.6,1.6-1.6h8.8c0.8,0,1.6,0.8,1.6,1.6v6.4
			C2817.2,761.3,2816.4,761.3,2815.6,761.3z"/>
		<path class="st1" d="M2815.6,781.9h-11.2c-0.8,0-1.6-0.8-1.6-1.6V774c0-0.8,0.8-1.6,1.6-1.6h11.1c0.8,0,1.6,0.8,1.6,1.6v6.4
			C2817.2,781.9,2816.4,781.9,2815.6,781.9z"/>
		<path class="st1" d="M2815.6,803.4h-9.5c-0.8,0-1.6-0.8-1.6-1.6v-6.4c0-0.8,0.8-1.6,1.6-1.6h9.5c0.8,0,1.6,0.8,1.6,1.6v6.4
			C2817.2,802.7,2816.4,803.4,2815.6,803.4z"/>
		<path class="st1" d="M2791.7,803.4h-9.5c-0.8,0-1.6-0.8-1.6-1.6v-6.4c0-0.8,0.8-1.6,1.6-1.6h9.5c0.8,0,1.6,0.8,1.6,1.6v6.4
			C2792.6,802.7,2791.7,803.4,2791.7,803.4z"/>
		<path class="st1" d="M2801.3,803.4h-5.6c-0.8,0-1.6-0.8-1.6-1.6v-6.4c0-0.8,0.8-1.6,1.6-1.6h5.6c0.8,0,1.6,0.8,1.6,1.6v6.4
			C2802.9,802.7,2802,803.4,2801.3,803.4z"/>
	</g>
	<g>
		<path class="st1" d="M1748.6,240.1c0,2,2,8.2,4.1,8.2c3.1,0,3.1,0,3.1-4.1s-1-25.5-1-25.5l-4.1-4.1c0,0-1,1-2,4.1
			C1747.5,220.7,1748.6,240.1,1748.6,240.1z"/>
		<path class="st1" d="M1763.8,203.4c-1,2,0,21.4,0,21.4c0,2,2,8.2,4.1,8.2c3.1,0,3.1,0,3.1-4.1s-1-25.5-1-25.5l-4.1-4.1
			C1765.9,199.3,1764.8,200.3,1763.8,203.4z"/>
		<path class="st1" d="M1773,214.7c-1,2,2,21.4,2,21.4c0,2,2,8.2,5.1,8.2s3.1,0,3.1-4.1s-4.1-25.5-4.1-25.5l-4.1-3.1
			C1775.1,210.6,1774.1,211.6,1773,214.7z"/>
		<path class="st1" d="M1791.4,226.9c0,2,6.1,20.4,6.1,20.4c1,2,4.1,8.2,6.1,7.2c3.1-1,3.1-1,2-5.1c-1-4.1-8.2-24.5-8.2-24.5
			l-5.1-3.1C1792.4,222.8,1791.4,224.8,1791.4,226.9z"/>
		<path class="st1" d="M1775.1,195.3l-24.5,19.4c0,0,3.1,2,4.1,4.1c1,2,25.5-16.3,25.5-16.3L1775.1,195.3z"/>
		<path class="st1" d="M1782.2,203.4l-22.4,21.4c0,0,3.1,2,4.1,3.1c2,2,23.5-19.4,23.5-19.4L1782.2,203.4z"/>
		<path class="st1" d="M1759.8,251.3c0,2,2,8.2,5.1,8.2s3.1,0,3.1-4.1s-4.1-25.5-4.1-25.5l-4.1-3.1c0,0-1,2-2,4.1
			C1756.7,233,1759.8,251.3,1759.8,251.3z"/>
		<path class="st1" d="M1793.4,214.7l-16.3,23.5c0,0,3.1,1,5.1,3.1c2,1,20.4-23.5,20.4-23.5L1793.4,214.7z"/>
		<path class="st1" d="M1782.2,262.5c1,2,4.1,8.2,6.1,7.2s3.1-1,2-5.1s-8.2-24.5-8.2-24.5l-5.1-3.1c0,0-1,2-1,4.1
			C1776.1,244.2,1782.2,262.5,1782.2,262.5z"/>
		<circle class="st1" cx="2118.6" cy="307.4" r="16.3"/>
		<path class="st1" d="M2025.8,134.1c0,1-1,2-1,4.1c0,4.1,4.1,8.2,8.2,8.2c3.1,0,5.1-1,6.1-3.1
			C2035,140.2,2029.9,137.1,2025.8,134.1z"/>
		<path class="st1" d="M2034,119.8c-6.1,0-11.2,3.1-14.2,7.2c7.2,10.2,18.3,17.3,30.6,19.4c1-2,2-5.1,2-8.2
			C2051.3,128,2043.2,119.8,2034,119.8z"/>
		<path class="st1" d="M1871.9,146.4c-1-3.1-2-4.1-2-4.1S1870.9,144.3,1871.9,146.4L1871.9,146.4z"/>
		<g>
			<path class="st1" d="M1844.4,203.4c0,0-4.1-8.2-6.1-12.2c-2-4.1-7.2-11.2-12.2-13.2c-5.1-3.1-30.6-7.2-30.6-7.2
				c-3.1,0-3.1,4.1-5.1,6.1c-1,1,0,3.1,1,5.1l-1-2l-24.5,19.4c0,0,3.1,2,4.1,4.1c1,2,25.5-16.3,25.5-16.3c1,2,3.1,4.1,5.1,6.1
				l-4.1-4.1l-22.4,21.4c0,0,3.1,2,4.1,3.1c2,1,23.5-18.3,23.5-19.4l1,1c2,2,14.2,6.1,17.3,7.2c4.1,0,7.2,0,7.2,0l10.2,60.1h14.2
				L1844.4,203.4z"/>
			<path class="st1" d="M1817.9,202.4l-8.2-3.1l-16.3,23.5c0,0,3.1,1,5.1,3.1C1798.5,226.9,1817.9,202.4,1817.9,202.4z"/>
			<path class="st0" d="M2134.9,269.7L2134.9,269.7l-21.4-8.2l0,0c-2,0-4.1-1-6.1-1c-1,0-3.1,0-4.1,0h-22.4
				c-2-9.2-12.2-16.3-23.5-16.3c-1,0-2,0-4.1,0c0-27.5,0-89.7,0-106c5.1-1,9.2-5.1,11.2-9.2c1-2,2-5.1,2-8.2c0,0,0,0,0-1
				c0,1,0,1,0,1h1c3.1,0,10.2-1,16.3-6.1c5.1-5.1,6.1-12.2,6.1-14.2h-2c0,2-1,8.2-5.1,13.2c-6.1,6.1-14.2,6.1-15.3,6.1l0,0
				c0-1,0-1,0-2l0,0c2,0,9.2-1,14.2-8.2c4.1-5.1,3.1-11.2,3.1-13.2h-2c0,2,0,7.2-3.1,12.2c-4.1,6.1-11.2,7.2-12.2,7.2c0,0,0,1,0,2
				c0-2-1-3.1-2-4.1v1c1,0,7.2-3.1,9.2-9.2c2-5.1,0-10.2-1-12.2l-2,1c1,2,2,6.1,1,10.2c-2,6.1-7.2,8.2-8.2,8.2l0,0l0,0
				c-3.1-5.1-9.2-9.2-16.3-9.2c-6.1,0-11.2,3.1-14.2,7.2c-2,3.1-4.1,7.2-4.1,11.2c0,8.2,6.1,15.3,13.2,17.3v98.9l-4.1-1l0,0
				c-2,0-4.1-1-6.1-1c-1,0-3.1,0-4.1,0h-69.3c-8.2-21.4-50-125.4-50-125.4l-25.5,14.2c0,0,0,2,1,5.1l-32.6,131.5l10.2,4.1
				l31.6-103.9c7.2,25.5,15.3,57,20.4,75.5c-13.2,4.1-23.5,15.3-23.5,28.6c0,14.2,11.2,25.5,25.5,29.6l15.3,6.1l0,0
				c5.1,2,10.2,4.1,16.3,4.1c4.1,0,8.2-1,12.2-2h2c4.1,9.2,13.2,17.3,24.5,19.4l16.3,6.1l0,0c5.1,2,10.2,4.1,16.3,4.1
				c4.1,0,8.2-1,12.2-2l96.9-15.3c13.2,0,24.5-10.2,24.5-21.4C2156.3,280.9,2147.1,271.7,2134.9,269.7z"/>
			<path class="st1" d="M1813.8,217.7h15.3l9.2,60.1h-14.2L1813.8,217.7z"/>
			<path class="st1" d="M1781.2,185.1c0,0,25.5,4.1,30.6,7.2c5.1,3.1,9.2,9.2,12.2,13.2c2,4.1,6.1,12.2,6.1,12.2h-15.3
				c0,0-3.1,0-7.2,0s-16.3-5.1-17.3-7.2c-2-2-6.1-6.1-8.2-9.2c-2-3.1-7.2-7.2-5.1-10.2C1778.1,189.2,1778.1,185.1,1781.2,185.1z"/>
			<circle class="st1" cx="2004.4" cy="316.6" r="22.4"/>
			<path class="st1" d="M2028.9,274.8h-83.6"/>
			<path class="st1" d="M2116.5,284.9c-1,0-3.1,0-4.1,0h-99.9c-2,0-3.1,0-5.1,0s-3.1,0-5.1,0c-17.3,2-29.6,15.3-29.6,30.6
				c0,17.3,15.3,30.6,34.6,30.6c4.1,0,8.2-1,12.2-2l96.9-15.3c13.2,0,24.5-10.2,24.5-21.4C2142,295.2,2130.9,284.9,2116.5,284.9z"/>
			<path class="st1" d="M2038.1,260.5c0,7.2,0,12.2,0,13.2s-1,2-2,3.1h28.6c-2-9.2-12.2-16.3-23.5-16.3
				C2041.1,260.5,2040.1,260.5,2038.1,260.5z"/>
			<path class="st1" d="M2028.9,155.5v118.3c0,1,0,2,1,3.1h7.2c1-1,2-2,2-3.1c0-4.1,0-98.9,0-119.3c5.1-1,9.2-5.1,11.2-9.2
				c-12.2-2-23.5-9.2-30.6-19.4c-2,3.1-4.1,7.2-4.1,11.2C2015.6,146.4,2020.8,153.4,2028.9,155.5z"/>
			<path class="st1" d="M1972.8,315.5c0-15.3,13.2-28.6,29.6-30.6c2,0,3.1,0,5.1,0s3.1,0,5.1,0h99.9c1,0,3.1,0,4.1,0s2,0,3.1,0
				l-21.4-8.2l0,0c-2,0-4.1-1-6.1-1c-1,0-3.1,0-4.1,0h-99.9c-2,0-3.1,0-5.1,0s-3.1,0-5.1,0c-17.3,2-29.6,15.3-29.6,30.6
				c0,14.2,11.2,26.5,26.5,29.6l16.3,6.1l0,0C1980,338,1972.8,327.7,1972.8,315.5z"/>
			<path class="st1" d="M2024.8,253.4c-2,0-4.1-1-6.1-1c-1,0-3.1,0-4.1,0h-69.3c1,2,1,3.1,1,3.1c1,2,1,3.1,1,4.1h80.5v-6.1
				L2024.8,253.4z"/>
			<path class="st1" d="M2055.4,274.8h-17.3c0,1-1,2-1,2h24.5L2055.4,274.8z"/>
			<path class="st1" d="M1922.9,286L1922.9,286L1922.9,286z"/>
			<path class="st1" d="M1923.9,289L1923.9,289L1923.9,289z"/>
			<path class="st1" d="M1923.9,288L1923.9,288L1923.9,288z"/>
			<path class="st1" d="M1923.9,288L1923.9,288L1923.9,288z"/>
			<path class="st1" d="M1922.9,286C1922.9,287,1922.9,287,1922.9,286C1922.9,287,1922.9,287,1922.9,286z"/>
			<path class="st1" d="M1922.9,287L1922.9,287L1922.9,287z"/>
			<path class="st1" d="M1927,293.1L1927,293.1L1927,293.1z"/>
			<path class="st1" d="M1923.9,290L1923.9,290L1923.9,290z"/>
			<path class="st1" d="M1915.7,267.6v-1V267.6z"/>
			<path class="st1" d="M1923.9,289C1923.9,289,1923.9,290,1923.9,289C1923.9,290,1923.9,289,1923.9,289z"/>
			<path class="st1" d="M1927,293.1C1927,293.1,1928,293.1,1927,293.1C1928,293.1,1927,293.1,1927,293.1z"/>
			<path class="st1" d="M1919.8,278.9L1919.8,278.9L1919.8,278.9z"/>
			<path class="st1" d="M1919.8,276.8C1919.8,276.8,1919.8,277.9,1919.8,276.8C1919.8,277.9,1919.8,276.8,1919.8,276.8z"/>
			<path class="st1" d="M1918.8,275.8L1918.8,275.8C1918.8,276.8,1918.8,275.8,1918.8,275.8z"/>
			<path class="st1" d="M1919.8,277.9L1919.8,277.9C1919.8,278.9,1919.8,277.9,1919.8,277.9z"/>
			<path class="st1" d="M1918.8,274.8C1918.8,274.8,1918.8,275.8,1918.8,274.8C1918.8,275.8,1918.8,274.8,1918.8,274.8z"/>
			<path class="st1" d="M1922.9,284.9C1922.9,286,1922.9,286,1922.9,284.9C1922.9,286,1922.9,284.9,1922.9,284.9z"/>
			<path class="st1" d="M1915.7,267.6c1,2,1,3.1,2,4.1C1916.7,270.7,1916.7,269.7,1915.7,267.6z"/>
			<path class="st1" d="M1917.7,272.7c0,1,0,1,1,2C1917.7,273.8,1917.7,272.7,1917.7,272.7z"/>
			<path class="st1" d="M2028.9,273.8v-13.2h-80.5c0,3.1,0,5.1-1,8.2c-1,5.1-7.2,13.2-12.2,20.4c-3.1,5.1-5.1,5.1-7.2,4.1
				c-2-1-13.2-8.2-16.3-11.2c-2-2-3.1-5.1-4.1-8.2c-3.1,4.1-5.1,10.2-5.1,15.3c0,16.3,15.3,30.6,33.6,30.6c4.1,0,8.2-1,12.2-2h2
				c-1-3.1-2-7.2-2-10.2c0-15.3,13.2-28.6,29.6-30.6c2,0,3.1,0,5.1,0s3.1,0,5.1,0h41.8C2028.9,276.8,2028.9,275.8,2028.9,273.8z"/>
			<path class="st1" d="M1921.8,282.9L1921.8,282.9C1921.8,283.9,1921.8,282.9,1921.8,282.9z"/>
			<path class="st1" d="M1921.8,283.9L1921.8,283.9L1921.8,283.9z"/>
			<path class="st1" d="M1921.8,284.9L1921.8,284.9L1921.8,284.9z"/>
			<path class="st1" d="M1921.8,281.9C1921.8,282.9,1921.8,282.9,1921.8,281.9C1921.8,282.9,1921.8,282.9,1921.8,281.9z"/>
			<path class="st1" d="M1920.8,280.9L1920.8,280.9L1920.8,280.9z"/>
			<path class="st1" d="M1920.8,281.9C1920.8,281.9,1921.8,281.9,1920.8,281.9L1920.8,281.9z"/>
			<path class="st1" d="M1920.8,279.9L1920.8,279.9L1920.8,279.9z"/>
			<path class="st1" d="M1902.5,290c0-6.1,2-11.2,5.1-15.3c-1-2-1-4.1-2-6.1c0-1-2-6.1-4.1-15.3c-13.2,4.1-23.5,15.3-23.5,28.6
				c0,14.2,11.2,25.5,25.5,29.6l15.3,6.1l0,0C1909.6,311.5,1902.5,302.3,1902.5,290z"/>
			<path class="st1" d="M1915.7,266.6c-2-4.1-3.1-9.2-5.1-14.2C1911.7,257.5,1913.7,262.5,1915.7,266.6z"/>
			<path class="st1" d="M1927,293.1C1927,293.1,1928,293.1,1927,293.1C1928,293.1,1927,293.1,1927,293.1z"/>
			<path class="st1" d="M1924.9,290L1924.9,290L1924.9,290z"/>
			<path class="st1" d="M1923.9,290L1923.9,290L1923.9,290z"/>
			<path class="st1" d="M1927,293.1L1927,293.1L1927,293.1z"/>
			<path class="st1" d="M1922.9,286c-1-2-2-4.1-3.1-7.2C1920.8,280.9,1921.8,283.9,1922.9,286z"/>
			<path class="st1" d="M1922.9,286L1922.9,286L1922.9,286z"/>
			<path class="st1" d="M1923.9,289C1923.9,289,1923.9,290,1923.9,289C1923.9,290,1923.9,289,1923.9,289z"/>
			<path class="st1" d="M1922.9,286v1C1923.9,287,1922.9,287,1922.9,286z"/>
			<path class="st1" d="M1940.2,281.9c-2,2-3.1,5.1-5.1,8.2c-3.1,5.1-5.1,5.1-7.2,4.1c-1-1-4.1-3.1-8.2-5.1v5.1l28.6,10.2
				c1-6.1,3.1-12.2,7.2-16.3L1940.2,281.9z"/>
			<path class="st1" d="M1923.9,289L1923.9,289L1923.9,289z"/>
			<path class="st1" d="M1923.9,288C1923.9,289,1923.9,289,1923.9,288C1923.9,289,1923.9,288,1923.9,288z"/>
			<path class="st1" d="M1923.9,288L1923.9,288L1923.9,288z"/>
			<path class="st1" d="M1924.9,290c-2-3.1-27.5-73.4-42.8-116.2l-1,4.1c10.2,36.7,23.5,86.6,25.5,90.7c2,6.1,3.1,10.2,6.1,13.2
				c3.1,3.1,14.2,10.2,16.3,11.2C1927,293.1,1925.9,292.1,1924.9,290z"/>
			<path class="st1" d="M1871.9,146.4l-33.6,131.5l10.2,4.1l32.6-108C1877,161.6,1873.9,151.4,1871.9,146.4z"/>
			<path class="st1" d="M1869.9,142.3c0,0,52,143.7,54,147.8c3.1,4.1,6.1,8.2,10.2,0c5.1-8.2,10.2-15.3,12.2-20.4
				c1-5.1,2-7.2,0-13.2c-2-6.1-52-128.4-52-128.4L1869.9,142.3z"/>
		</g>
		<path class="st1" d="M2053.3,138.2h-1v-2l0,0c2,0,9.2,0,15.3-6.1c5.1-5.1,5.1-10.2,5.1-13.2h2c0,2-1,9.2-6.1,14.2
			C2063.6,137.1,2056.4,138.2,2053.3,138.2z"/>
		<path class="st1" d="M2051.3,132c1,0,8.2-1,12.2-7.2c3.1-5.1,3.1-10.2,3.1-12.2h2c0,2,0,8.2-3.1,13.2c-4.1,6.1-11.2,8.2-14.2,8.2
			C2051.3,134.1,2051.3,132,2051.3,132z"/>
		<path class="st1" d="M2050.3,131l-1-2l0,0c1,0,6.1-2,8.2-8.2c1-4.1,0-9.2-1-10.2l2-1c1,2,2,7.2,1,12.2
			C2057.4,128,2051.3,130,2050.3,131z"/>
	</g>
	<g>
		<path class="st0" d="M1545.3,761.6c-1.8,2.7-0.6,4.3,1.3,6.7c2.5,3.2,3.3,2.6,4.5,4.2c1.2,1.6,5.2,5.1,5,6.5s0.4,2.2,1.1,3.1
			c0.6,0.8,1.2,1.6,1.1,3.1c0.6,0.8,1.2,1.6,1.2,1.6c0.6,0.8,2.7,1.8,2.7,1.8s2.2-0.4,3.1-1.1c0.8-0.6-1,2-0.4,2.8
			c0,0,0.4,2.2,1.1,3.1c0.7,0.9,1.9,7.6,3.1,9.1c1.2,1.6,3.1,4,3.7,4.8c0,0,4.4,5.7,5.6,7.3s0.9,4.5,2.3,4.6
			c0.8-0.6,3.2-2.5,3.8-1.7c0.6,0.8-1,2-1.2,3.5c0.6,0.8,3.1,4,4.5,4.2c0.6,0.8,1.2,1.6,2.5,3.2c1.2,1.6,3.3,2.6,2.5,3.2
			c-0.2,1.4-0.4,2.8,0.3,3.7c0.6,0.8,1-2,3.2-2.5c2.2-0.4,6.6,5.3,7.8,6.8c1.2,1.6,1.1,3.1,2.9,5.4c2.5,3.2,3.7,4.8,6.1,2.9
			c3.1-1.1,59.5-54.7,59.5-54.7s0.6,0.8,1.4,0.2s3.2-2.5,4-3.1s1.2,1.6,3.7-0.3c1.6-1.2,0.4-2.8,1.2-3.5c0.8-0.6,16.2-12.4,17-13
			s2.8,0.4,4.5-0.9s0.4-2.8,1.2-3.5c0.9-0.7,4-3.1,3.4-3.9c-0.6-0.8,0.4-2.8,1.2-3.5c1.6-1.2,2-4.1,0.8-5.7
			c-1.2-1.6-2.5-3.2-2.9-5.4c-1.1-3.1-1.7-9-0.6-17.5c0.9-7.1,14.1-18.5,20.1-25.7c6.1-7.2,23.7-14.3,40.8-22.3
			c17-7.9,27.7-22.5,33.9-31.2c5.6-9.4,4.1-19.8,2.2-22.3l0,0c-1.9-2.4-11.5-6.6-22.1-3.6c-10.5,2.9-26.8,10.3-38.9,24.7
			c-12,14.4-22.7,29-32,33.6c-8.5,4-22.9,13.7-30,12.7c-7.9-0.3-14.1-3.3-16.7-5.1c-2.7-1.8-2.5-3.2-4.5-4.2c-1.2-1.6-4.1-2-5.7-0.8
			s-2.4,1.9-3.7,0.3c-0.6-0.8-3.8,1.7-4.6,2.3c-0.8,0.6-2.8-0.4-3.7,0.3c-0.9,0.7-0.4,2.8-2,4.1c-0.8,0.6-17,13-17,13
			c-0.8,0.6-2-1-3.7,0.3s-0.4,2.8-1.2,3.5c-0.9,0.7-3.2,2.5-4,3.1s-0.2,1.4-0.2,1.4S1547.9,758.3,1545.3,761.6z M1784.4,641.1
			c2.4-1.9,6.7-1.3,8.5,1.1c1.9,2.4,1.3,6.7-1.1,8.5c-2.4,1.9-6.7,1.3-8.5-1.1C1781.3,647.3,1781.9,643,1784.4,641.1z"/>
		<path class="st1" d="M1689.6,797.3c0.8-0.6,3.2-2.5,4-3.1s1.2,1.6,3.7-0.3c2.4-1.9,0.4-2.8,1.2-3.5c0.9-0.7,16.2-12.4,17-13
			s2.8,0.4,4.5-0.9c1.6-1.2,0.4-2.8,1.2-3.5c0.8-0.6,4-3.1,3.4-3.9c-0.6-0.8,0.4-2.8,1.2-3.5c0.8-0.6,2-4.1,0.8-5.7
			c-1.2-1.6-2.5-3.2-2.9-5.4c-1.1-3.1-1.7-9-0.6-17.5c0.9-7.1,14.1-18.5,20.1-25.7c6.8-7.8,23.7-14.3,40.8-22.3
			c17-7.9,27.7-22.5,33.9-31.2c6.2-8.6,4.1-19.8,2.2-22.3l0,0c-1.9-2.4-11.5-6.6-22.1-3.6c-10.5,2.9-26.8,10.3-38.9,24.7
			c-12,14.4-22.7,29-32,33.6c-8.5,4-22.9,13.7-30,12.7c-7.1-0.9-14.1-3.3-16.7-5.1c-2.7-1.8-2.5-3.2-4.5-4.2c-1.2-1.6-4.1-2-5.7-0.8
			s-2.4,1.9-3.7,0.3c-1.2-1.6-3.8,1.7-4.6,2.3c-0.8,0.6-2.8-0.4-3.7,0.3c-0.8,0.6-0.4,2.8-2,4.1c-0.8,0.6-17,13-17,13
			c-0.8,0.6-2-1-3.7,0.3s-0.4,2.8-1.2,3.5c-0.8,0.6-3.2,2.5-4,3.1s-0.2,1.4-0.2,1.4s-66.4,40.7-68.2,43.3c-1.8,2.7-0.6,4.3,1.3,6.7
			c2.5,3.2,3.3,2.6,4.5,4.2s5.2,5.1,5,6.5s0.4,2.2,1.1,3.1c0.6,0.8,1.2,1.6,1.1,3.1c0.6,0.8,1.2,1.6,1.2,1.6
			c0.6,0.8,2.7,1.8,2.7,1.8s2.2-0.4,3.1-1.1c0.9-0.7-1,2-0.4,2.8c0,0,0.4,2.2,1.1,3.1c0.7,0.9,1.9,7.6,3.1,9.1
			c0.6,0.8,3.1,4,3.7,4.8c0,0,4.4,5.7,5.6,7.3c1.1,3.1,0.9,4.5,2.3,4.6c0.8-0.6,3.2-2.5,3.8-1.7c0.6,0.8-1,2-1.2,3.5
			c0.6,0.8,3.1,4,4.5,4.2c0.6,0.8,1.2,1.6,2.5,3.2c1.2,1.6,3.3,2.6,2.5,3.2c-0.2,1.4-0.4,2.8,0.3,3.7c0.6,0.8,1-2,3.2-2.5
			c2.2-0.4,6.6,5.3,7.8,6.8s1.1,3.1,2.9,5.4c2.5,3.2,3.7,4.8,6.1,2.9c3.1-1.1,59.5-54.7,59.5-54.7S1688,798.6,1689.6,797.3z
			 M1797.5,651.6c-1.9-2.4-1.3-6.7,1.1-8.5c2.4-1.9,6.7-1.3,8.5,1.1c1.9,2.4,1.3,6.7-1.1,8.5C1803.6,654.6,1799.4,654,1797.5,651.6z
			"/>
	</g>
	<g>
		<path class="st0" d="M1358.2,691v106h39.7v-6h-2v-2h2v-6.2h-5.1v-2h5.1v-5.1h-2v-2.1h2v-6.1h-7.2v-2h7.2v-7.2h-2v-2h2v-5.2h-5.1
			v-2h5.1V743h-2v-2h2v-5h-12.2v-2h12.2v-6.1h-2v-2h2v-5.1h-5.1v-3.1h5.1v-5.1h-2v-2h2v-5.3h-7.2v-2h7.2v-5.1h-2v-2h2v-3.1V690h-5.1
			v-2h5.1v-5.2h-2v-2h2v-26.5h-25.5v2h-2v-2h-5.1v2h-3.1v-5.1h-4.1h-2v2h-2v-2h-5.1v7.2h-2v-7.2h-6.1v2h-2v-2h-5.1v5.1h-2v-5.1h-5.1
			v2h-2v-2h-5.1v12.2h-2v-12.2h-5.1v2h-2v-2h-6.1v5.1h-2v-5.1h-5.1v2h-2v-2h-5.1v7.2h-2v-7.2h-5.1v2h-2v-2h-10.2v5.1h-2v-5.1h-6.1v2
			h-2v-2h-5.1v20.4h-2v-20.4h-6.1v2h-2v-2h-5.1v5.1h-2v-5.1h-5.1v2h-3.1v-2h-6.1v7.2h-2v-7.2h-5.1v2h-2v-2h-6.1v5.1h-2v-5.1h-5.1v2
			h-2v-2h-5.1v12.2h-2v-12.2h-6.1v2h-2v-2h-5.1v5.1h-2v-5.1h-8.2v2h-2v-2h-5.1v7.2h-3.1v-7.2h-5.1v2h-2v-2h-7.7v5.1h-2v-5.1h-5.1v2
			h-2v-2h-7.2V691H1358.2L1358.2,691z"/>
		<path class="st1" d="M1113.5,706.3v-39.7h6.1v2h2v-2h6.1v5.1h2v-5.1h6.1v2h2v-2h5.1v7.2h2v-7.2h6.1v2h2v-2h5.1v5.1h2v-5.1h5.1v2
			h3.1v-2h6.1v12.2h2v-12.2h5.1v2h2v-2h6.1v5.1h2v-5.1h5.1v2h2v-2h5.1v7.2h2v-7.2h6.1v2h2v-2h5.1v5.1h2v-5.1h8.2v2h2v-2h5.1V687h3.1
			v-20.4h5.1v2h2v-2h6.1v5.1h2v-5.1h5.1v2h2v-2h6.1v7.2h2v-7.2h5.1v2h2v-2h5.1v5.1h2v-5.1h6.1v2h2v-2h5.1v12.2h2v-12.2h6.1v2h2v-2
			h5.1v5.1h2v-5.1h5.1v2h2v-2h9.2v7.2h2v-7.2h5.1v2h3.1v-2h6.1v5.1h2v-5.1h5.1v2h2v-2h25.5v26.5h-2v2h2v5.1h-5.1v2h5.1v6.1h-2v2h2
			v7.2h-7.2v2h7.2v5.1h-2v2h2v6.1h-5.1v2h5.1v5.1h-2v2h2v6.1h-12.2v2h12.2v5.1h-2v2h2v5.1h-5.1v2h5.1v6.1h-2v2h2v5.1h-7.2v2h7.2v6.1
			h-2v2h2v5.1h-5.1v2h5.1v5.1h-2v2h2v7.2h-39.7V706.3H1113.5z"/>
	</g>
	<g>
		<path class="st1" d="M2819.7,330.8c4.1,1,7.2,3.1,11.2,4.1c4.1,2,7.2,3.1,10.2,5.1"/>
		<path class="st1" d="M2805.5,331.9c4.1,0,14.2,1,23.5,7.2c4.1,3.1,8.2,6.1,10.2,9.2"/>
		<path class="st1" d="M2785.1,329.8c8.2,3.1,17.3,7.2,27.5,13.2c8.2,5.1,15.3,11.2,21.4,16.3"/>
		<path class="st1" d="M2756.5,330.8c5.1,3.1,12.2,8.2,20.4,14.2c6.1,5.1,9.2,8.2,18.3,16.3c6.1,5.1,14.2,12.2,24.5,21.4"/>
		<path class="st1" d="M2747.3,359.4c0-2,3.1-10.2,10.2-14.2c5.1-3.1,9.2-4.1,12.2-4.1"/>
		<path class="st1" d="M2739.2,348.2c2-2,5.1-5.1,9.2-8.2c5.1-3.1,9.2-5.1,13.2-5.1"/>
		<path class="st1" d="M2754.5,364.5c1-3.1,4.1-8.2,10.2-13.2c4.1-3.1,8.2-5.1,11.2-6.1"/>
		<path class="st1" d="M2764.7,370.6c0-2,2-8.2,7.2-12.2c5.1-5.1,11.2-6.1,13.2-6.1"/>
		<path class="st1" d="M2773.8,375.7c1-2,2-6.1,6.1-9.2c5.1-5.1,11.2-6.1,13.2-6.1"/>
		<path class="st1" d="M2786.1,379.8c0-1,1-6.1,4.1-9.2s7.2-4.1,8.2-4.1"/>
		<path class="st1" d="M2795.2,383.9c3.1-4.1,7.2-8.2,10.2-11.2"/>
		<path class="st1" d="M2806.5,383.9c2-2,4.1-4.1,5.1-7.2"/>
		<g>
			<path class="st0" d="M2971.6,176.9c-3.1-1-6.1,4.1-3.1,8.2l-62.2,38.7c-4.1-4.1-7.2-8.2-12.2-11.2l37.7-23.5c0,0,0,1,3.1,3.1
				c2,2,8.2,0,6.1-3.1c-2.1-3.1-8.2-13.2-11.2-13.2c-3.1-1-6.1,4.1-3.1,8.2l-38.7,24.5c-5.1-3.1-11.2-6.1-17.3-9.2
				c-2-1-3.1-2-5.1-3.1v1c-10.2-3.1-20.4-5.1-31.6-6.1c-1,0-2,0-2-1v1c-1,0-2,0-4.1,0c-3.1,0-5.1,0-8.2,0c0,0-1,0-1-1v1h-1
				c0,0,0,0-1-1v1c-49,6.1-86.6,43.8-85.6,89.7c0,7.2,1,14.2,3.1,20.4l-26.5,16.3c0,0-9.2,6.1-10.2,9.2s0,3.1,2,2
				c2-1,11.2-5.1,11.2-5.1l26.5-16.3c1,2,2,4.1,2,6.1l0,0l0,0c2,3.1,3.1,6.1,5.1,9.2c-2,2-5.1,4.1-6.1,5.1c-2,2,0,3.1,2,2
				c1,0,4.1-2,6.1-3.1c17.3,24.5,49,40.8,83.6,40.8c54-1,96.9-41.8,96.9-90.7c0-4.1,0-9.2-1-13.2c-1-4.1-2-8.2-3.1-11.2
				c-3.1-8.2-7.2-16.3-13.2-23.5l62.2-38.7c0,0,0,1,3.1,3.1c2,2,8.2,0,6.1-3.1C2981.8,187.1,2974.7,177.9,2971.6,176.9z"/>
			<path class="st1" d="M2793.2,300.3c-8.2,0-13.2-1-18.3,0c-4.1,0-8.2,1-13.2,2"/>
			<path class="st1" d="M2846.2,299.3c-6.1,0-18.3,2-29.6,1c-4.1,0-8.2,0-11.2,0"/>
			<path class="st1" d="M2789.1,310.4c3.1,0,6.1,0,10.2,0c10.2,0,28.6,0,46.9-2"/>
			<path class="st1" d="M2725.9,330.8c5.1-6.1,14.2-14.2,27.5-18.3c8.2-3.1,16.3-3.1,25.5-2"/>
			<path class="st1" d="M2779,317.6c6.1,1,12.2,2,20.4,2c11.2,1,26.5,1,46.9-3.1"/>
			<path class="st1" d="M2729,334.9c4.1-5.1,12.2-11.2,22.4-15.3c6.1-2,11.2-3.1,16.3-3.1"/>
			<path class="st1" d="M2764.7,326.7c11.2,0,21.4,3.1,34.6,4.1c10.2,1,25.5,0,44.9-6.1"/>
			<path class="st1" d="M2754.5,226.9c9.2-4.1,22.4-7.2,37.7-8.2c7.2,0,14.2,0,20.4,0"/>
			<path class="st1" d="M2746.3,235.1c9.2-3.1,22.4-7.2,38.7-8.2c13.2-1,23.5,0,32.6,1"/>
			<path class="st1" d="M2738.2,242.1c12.2-3.1,27.5-7.2,45.9-8.2c15.3-1,28.6,0,39.7,2"/>
			<path class="st1" d="M2734.1,249.3c13.2-3.1,29.6-6.1,47.9-7.2c17.3-1,32.6,0,45.9,1"/>
			<path class="st1" d="M2728,256.5c15.3-3.1,32.6-5.1,51-7.2c18.3-1,35.6-1,51,0"/>
			<path class="st1" d="M2722.8,271.7c3.1,1,8.2,2,12.2,5.1c6.1,4.1,10.2,8.2,13.2,11.2"/>
			<path class="st1" d="M2725.9,261.5c2,0,11.2,0,19.4,7.2c7.2,6.1,9.2,13.2,9.2,16.3"/>
			<path class="st1" d="M2741.3,255.5c2,0,8.2,1,13.2,6.1c8.2,7.2,7.2,22.4,8.2,19.4"/>
			<path class="st1" d="M2758.6,252.4c2,2,5.1,4.1,8.2,8.2c4.1,7.2,5.1,17.3,5.1,21.4"/>
			<path class="st1" d="M2774.9,251.4c2,2,4.1,5.1,5.1,9.2c3.1,8.2,1,14.2,0,17.3"/>
			<path class="st1" d="M2800.4,208.5v10.2"/>
			<path class="st1" d="M2791.2,209.6l1,9.2"/>
			<path class="st1" d="M2784.1,212.6v5.1"/>
			<path class="st1" d="M2773.8,215.7l5.1,4.1"/>
			<path class="st1" d="M2832.9,328.8c1,0,4.1,0,6.1,2c2,1,3.1,3.1,4.1,4.1"/>
			<path class="st1" d="M2769.7,327.8c9.2,4.1,20.4,11.2,31.6,19.4c11.2,8.2,19.4,16.3,25.5,23.5"/>
			<path class="st1" d="M2831.9,249.3l10.2-6.1c-2-4.1-4.1-7.2-7.2-11.2c-9.2-13.2-20.4-20.4-28.6-24.5c-1,0-2,0-2,0
				c4.1,5.1,10.2,12.2,15.3,21.4C2823.8,235.1,2827.9,241.1,2831.9,249.3z"/>
			<path class="st1" d="M2835,220.7c2,2,7.2,7.2,13.2,19.4l8.2-5.1c-3.1-5.1-8.2-11.2-15.3-16.3c-8.2-6.1-15.3-9.2-21.4-11.2
				c-2,0-3.1,0-5.1,0l0,0C2820.7,209.6,2827.9,213.7,2835,220.7z"/>
			<path class="st1" d="M2860.5,232l5.1-3.1c-14.2-13.2-30.6-18.3-39.7-20.4C2835,211.6,2849.3,218.7,2860.5,232z"/>
			<path class="st1" d="M2873.7,223.8c-5.1-3.1-11.2-6.1-17.3-9.2c4.1,3.1,9.2,6.1,14.2,10.2L2873.7,223.8z"/>
			<path class="st1" d="M2849.3,265.6c-1-2-1-4.1-2-7.2s-2-5.1-3.1-8.2l-9.2,6.1c2,4.1,4.1,9.2,5.1,15.3L2849.3,265.6z"/>
			<path class="st1" d="M2856.4,261.5l10.2-6.1c-1-3.1-3.1-7.2-4.1-10.2c-1-1-1-3.1-2-4.1l-9.2,6.1c1,2,2,5.1,3.1,8.2
				C2854.3,256.5,2855.4,258.5,2856.4,261.5z"/>
			<path class="st1" d="M2872.7,251.4l7.2-4.1c-2-3.1-4.1-6.1-7.2-10.2c-1-1-1-2-2-2l-6.1,4.1c1,2,2,3.1,4.1,5.1
				C2870.7,245.2,2871.7,248.3,2872.7,251.4z"/>
			<path class="st1" d="M2887,242.1l5.1-3.1c-4.1-4.1-7.2-8.2-12.2-11.2l-3.1,2c1,1,2,2,4.1,4.1C2881.9,236.1,2885,239.1,2887,242.1
				z"/>
			<path class="st1" d="M2785.1,278.9l88.7-55c-16.3-11.2-36.7-17.3-59.1-16.3c-54,1-96.9,41.8-96.9,90.7c0,2,0,4.1,0,7.2
				C2744.2,287,2767.7,280.9,2785.1,278.9z"/>
			<path class="st1" d="M2719.8,310.4c0,2,1,5.1,2,7.2l47.9-29.6C2754.5,292.1,2738.2,298.3,2719.8,310.4z"/>
			<path class="st1" d="M2828.9,277.9l63.2-38.7c-4.1-4.1-7.2-8.2-12.2-11.2l-80.5,49C2809.5,276.9,2818.7,277.9,2828.9,277.9z"/>
			<path class="st1" d="M2799.3,284.9c-4.1,0-8.2,0-12.2,0l-64.2,39.7c2,5.1,4.1,10.2,7.2,15.3c2-2,5.1-4.1,5.1-4.1l80.5-50
				C2810.5,284.9,2805.5,284.9,2799.3,284.9z"/>
			<path class="st1" d="M2768.7,288l-74.5,45.9c0,0-9.2,6.1-10.2,9.2c-2,2,0,3.1,2,2c2-1,11.2-5.1,11.2-5.1l90.7-55
				C2782,286,2775.9,287,2768.7,288z"/>
			<path class="st1" d="M2926.7,204.5c-2-3.1-8.2-13.2-11.2-13.2s-6.1,4.1-3.1,8.2L2785,278.9c2,0,3.1,0,5.1-1c4.1,0,7.2,0,10.2-1
				l118.3-72.4c0,0,0,1,3.1,3.1C2923.7,210.6,2928.8,208.5,2926.7,204.5z"/>
			<path class="st1" d="M2816.7,286l-80.5,50c0,0-9.2,6.1-10.2,9.2c-2,2,0,3.1,2,2c2-1,11.2-5.1,11.2-5.1l88.7-55
				C2823.8,287,2819.7,286,2816.7,286z"/>
			<path class="st1" d="M2968.5,206.5c-2-3.1-8.2-13.2-11.2-13.2c-3.1-1-6.1,4.1-3.1,8.2l-125.4,77.4c4.1,0,8.2,0,13.2,0l117.3-72.4
				c0,0,0,1,3.1,3.1C2964.4,211.6,2969.6,209.6,2968.5,206.5z"/>
			<path class="st1" d="M2897.1,245.2l-55,33.6c11.2,0,23.5-1,37.7-3.1c11.2-2,19.4-3.1,25.5-5.1l3.1-2l3.1,11.2l-6.1,2
				c-5.1,1-13.2,3.1-22.4,5.1c-23.5,3.1-40.8,2-56,0l-88.7,55c0,0-2,1-4.1,2c17.3,24.5,49,40.8,83.6,40.8c54-1,96.9-41.8,96.9-90.7
				C2913.5,275.8,2907.4,258.5,2897.1,245.2z"/>
			<path class="st1" d="M2852.3,277.9c0-2-1-4.1-1-5.1l-9.2,6.1l0,0C2846.2,278.9,2849.3,278.9,2852.3,277.9z"/>
			<path class="st1" d="M2844.2,289c2,13.2,5.1,39.7-8.2,68.3c-5.1,12.2-12.2,21.4-17.3,26.5v1c3.1,0,6.1,0,9.2-1v-1
				c4.1-4.1,8.2-10.2,13.2-18.3c12.2-21.4,13.2-40.8,13.2-53c0-5.1,0-12.2-1-22.4C2851.3,289,2848.3,289,2844.2,289z"/>
			<path class="st1" d="M2718.8,310.4c33.6-22.4,62.2-26.5,80.5-26.5c23.5,0,45.9,8.2,83.6,3.1c10.2-2,17.3-3.1,22.4-5.1l6.1-2
				l-3.1-11.2l-3.1,2c-6.1,1-15.3,3.1-25.5,5.1c-42.8,6.1-63.2,0-90.7,2c-17.3,2-42.8,7.2-71.4,26.5L2718.8,310.4z"/>
			<path class="st1" d="M2718.8,310.4c33.6-22.4,62.2-26.5,80.5-26.5c23.5,0,45.9,8.2,83.6,3.1c10.2-2,17.3-3.1,22.4-5.1l6.1-2
				l-3.1-11.2l-3.1,2c-6.1,1-15.3,3.1-25.5,5.1c-42.8,6.1-63.2,0-90.7,2c-17.3,2-42.8,7.2-71.4,26.5L2718.8,310.4z"/>
			<path class="st1" d="M2872.7,276.9c-1-4.1-2-9.2-3.1-14.2l-10.2,6.1c1,3.1,2,6.1,2,9.2C2864.6,277.9,2868.7,276.9,2872.7,276.9z"
				/>
			<path class="st1" d="M2873.7,289c-4.1,0-7.2,1-11.2,1c1,7.2,1,16.3,1,25.5c-1,12.2-2,26.5-9.2,41.8
				c-6.1,12.2-15.3,21.4-20.4,26.5l0,0c3.1,0,7.2-1,10.2-2c4.1-3.1,11.2-9.2,17.3-17.3c15.3-22.4,14.2-47.9,13.2-67.3
				C2873.7,294.2,2873.7,291.1,2873.7,289z"/>
			<path class="st1" d="M2880.9,275.8c4.1,0,7.2-1,10.2-2c-1-4.1-2-7.2-4.1-10.2c-1-3.1-2-7.2-4.1-10.2l-8.2,5.1
				c1,3.1,2,6.1,3.1,8.2C2878.8,268.7,2879.8,271.7,2880.9,275.8z"/>
			<path class="st1" d="M2883.9,287L2883.9,287c2,14.2,3.1,33.6-5.1,54c-3.1,8.2-9.2,22.4-22.4,34.6l0,0c5.1-2,10.2-4.1,14.2-7.2
				l0,0c11.2-10.2,16.3-19.4,19.4-25.5c9.2-20.4,8.2-41.8,4.1-58.1C2891.1,286,2888,287,2883.9,287z"/>
			<path class="st1" d="M2897.1,245.2l-5.1,3.1c2,3.1,4.1,6.1,6.1,10.2c2,3.1,4.1,7.2,6.1,13.2c1,0,2,0,2-1l3.1-2l3.1,11.2l-5.1,2
				c1,3.1,1,6.1,2,9.2c3.1,25.5-8.2,46.9-13.2,55l1,1c12.2-15.3,19.4-33.6,18.3-54C2913.5,275.8,2907.4,258.5,2897.1,245.2z"/>
		</g>
	</g>
	<g>
		<path class="st0" d="M2222.6,509.7v-3.3h-10.7v-1.1h-1.1v-10.7h-3.3v10.7h-7.6v-10.7h-3.3v10.7h-7.6v-10.7h-3.3v10.7h-6.4v-10.7
			h-3.3v10.7h-7.6v-10.7h-3.3v10.7h-7.6v-10.7h-3.3v10.7h-7.6v-10.7h-3.3v10.7h-6.4v-10.7h-3.3v10.7h-6.4v-10.7h-3.3v10.7h-7.6
			v-10.7h-3.3v10.7h-7.6v-10.7h-3.3v10.7h-1.1v1.1h-10.5v3.3h10.7v7.6h-10.7v3.3h10.7v7.6h-10.7v3.3h10.7v7.6h-10.7v3.3h10.7v6.4
			h-10.7v3.3h10.7v7.6h-10.7v3.3h10.7v7.6h-10.7v3.3h10.7v7.6h-10.7v3.3h10.7v7.6h-10.7v3.3h10.7v6.4h-10.7v3.3h10.7v7.6h-10.7v3.3
			h10.7v1.1h1.1v10.4h3.3v-10.7h7.6v10.7h3.3v-10.7h7.6v10.7h3.3v-10.7h6.4v10.7h3.3v-10.7h6.4v10.7h3.3v-10.7h7.6v10.7h3.3v-10.7
			h7.6v10.7h3.3v-10.7h7.6v10.7h3.3v-10.7h6.4v10.7h3.3v-10.7h7.6v10.7h3.3v-10.7h7.6v10.7h3.3v-10.7h1.1V616h10.7v-3.3h-10.7v-7.6
			h10.7v-3.3h-10.7v-6.4h10.7v-3.3h-10.7V584h10.7v-3.3h-10.7v-7.6h10.7v-3.3h-10.7v-7.6h10.7v-3.3h-10.7v-7.6h10.7V548h-10.7v-6.4
			h10.7v-3.3h-10.7V531h10.7v-3.3h-10.7v-7.6h10.7v-3.3h-10.7v-7.6h10.5V509.7z"/>
		<path class="st1" d="M2206.4,526.9v-3.3h-10.7v-1.1h-1.1v-10.7h-3.3v10.7h-7.6v-10.7h-3.3v10.7h-7.6v-10.7h-3.3v10.7h-6.4v-10.7
			h-3.3v10.7h-7.6v-10.7h-3.3v10.7h-6.4v-10.7h-3.3v10.7h-7.6v-10.7h-3.3v10.7h-6.4v-10.7h-3.3v10.7h-6.4v-10.7h-3.3v10.7h-7.6
			v-10.7h-2.1v10.7h-7.6v-10.7h-3.3v10.7h-1.1v1.1h-10.7v3.3h10.7v7.6h-10.7v3.3h10.7v7.6h-10.7v3.3h10.7v7.6h-10.7v3.3h10.7v6.4
			h-10.7v3.3h10.7v5.4h-10.7v3.3h10.7v7.6h-10.7v3.3h10.7v7.6h-10.7v3.3h10.7v7.6h-10.7v3.3h10.7v6.4h-10.7v3.3h10.7v7.6h-10.7v1.1
			h10.7v1.1h1.1v10.7h3.3v-10.7h7.6v10.7h3.3v-10.7h7.6v10.7h3.3v-10.7h6.4v10.7h3.3v-10.7h6.4v10.7h3.3v-10.7h7.6v10.7h3.3v-10.7
			h7.6v10.7h3.3v-10.7h7.6v10.7h3.3v-10.7h6.4v10.7h3.3v-10.7h7.6v10.7h3.3v-10.7h7.6v10.7h3.3v-10.7h1.1v-1.1h10.7v-3.3h-10.7V618
			h10.7v-3.3h-10.7v-6.4h10.7V605h-10.7v-8h10.7v-3.3h-10.7v-7.6h10.7V585h-10.7v-7.6h10.7v-3.2h-10.7v-7.6h10.7v-3.3h-10.7v-6.4
			h10.7v-3.3h-10.7V546h10.7v-3h-10.7v-7.4h10.7v-3.3h-10.7v-7.6h8.6v2.2H2206.4z"/>
	</g>
</g>
<g id="circut">
	<polyline class="st2" points="-1429.6,430.1 829.4,430.1 868.2,468.9 992.6,468.9 	"/>
	<circle class="st3" cx="992.2" cy="468.9" r="7.6"/>
	<polyline class="st2" points="-1429.6,447.3 820.8,447.3 859.6,486.1 1033,486.1 	"/>
	<circle class="st3" cx="1032.6" cy="486.1" r="7.6"/>
	<polyline class="st2" points="-1429.6,487.7 800.6,487.7 839.4,526.5 1033,526.5 	"/>
	<circle class="st3" cx="1032.6" cy="526.5" r="7.6"/>
	<polyline class="st2" points="-1429.6,608.5 790.6,608.5 829.4,569.7 1071.4,569.7 1092.2,548.9 1394,548.9 1504.4,659.3 
		1504.4,800.1 1519,814.7 	"/>
	<polyline class="st2" points="-1429.6,627.9 799.2,627.9 838,589.1 1080.6,589.1 1101.6,568.3 1384,568.3 1474.6,658.9 
		1474.6,691.3 	"/>
	<circle class="st3" cx="1474.6" cy="690.7" r="7.6"/>
	<polyline class="st2" points="-1429.6,507.7 790.6,507.7 829.4,546.5 1061.2,546.5 1080.6,527.1 1404,527.1 1525.4,648.5 
		1525.4,781.9 	"/>
	<circle class="st3" cx="1525.4" cy="781.5" r="7.6"/>
	<polyline class="st2" points="-1429.6,467.5 810.6,467.5 849.6,506.3 1414,506.3 1545.8,638.1 1545.8,842.5 	"/>
	<circle class="st3" cx="1545.8" cy="842.1" r="7.6"/>
	<polyline class="st2" points="-1429.6,648.9 829.4,648.9 868.2,687.7 992.6,687.7 	"/>
	<circle class="st3" cx="992.2" cy="687.7" r="7.6"/>
	<polyline class="st2" points="-1429.6,689.3 810.6,689.3 849.6,728.1 1063.2,728.1 	"/>
	<circle class="st3" cx="1062.8" cy="728.1" r="7.6"/>
	<circle class="st3" cx="965.6" cy="773.5" r="7.6"/>
	<circle class="st3" cx="945.4" cy="793.7" r="7.6"/>
	<circle class="st3" cx="925.2" cy="813.9" r="7.6"/>
	<circle class="st3" cx="1519" cy="814.7" r="7.6"/>
	<circle class="st3" cx="1519.4" cy="864.7" r="7.6"/>
	<polyline class="st2" points="-1429.6,709.3 800.6,709.3 839.4,748.3 940.2,748.3 965.6,773.5 	"/>
	<polyline class="st2" points="-1429.6,729.5 790.6,729.5 829.4,768.3 920,768.3 945.4,793.7 	"/>
	<polyline class="st2" points="-1429.6,749.7 780.4,749.7 819.2,788.5 900,788.5 925.2,813.9 	"/>
	<polyline class="st2" points="-1429.6,669.1 820.8,669.1 859.6,707.9 1031,707.9 1121,617.9 1363.6,617.9 1475,729.1 1475,820.3 
		1519.4,864.7 	"/>
	<polyline class="st2" points="4570.4,430.1 2345.4,430.1 2301.8,473.7 1958.2,473.7 	"/>
	<circle class="st3" cx="1958.6" cy="473.7" r="7.6"/>
	<polyline class="st2" points="4570.4,449.5 2353.4,449.5 2246.6,556.3 2246.6,789.7 2221.4,814.7 2221.4,860.9 	"/>
	<circle class="st3" cx="2221.4" cy="860.5" r="7.6"/>
</g>
<g id="make-logo">
	<g>
		<g id="top" transform="matrix(1,0,0,1,0,0)">
			<path d="M1340.8,19.1h-95.3h-61.4v122.6h61.4V80.6h95.3V19.1z"/>
		</g>
		<g id="bottom" transform="matrix(1,0,0,1,0,0)">
			<path d="M1659.2,428.7h156.7v-61.4V306h-61.4v61.2h-95.3L1659.2,428.7L1659.2,428.7z"/>
		</g>
	</g>
	<g id="make" class="st4">
		<path d="M1315.2,117.5c1.9,3.4,4,7.6,6.3,12.6c2.4,5,5,10.3,7.6,16.2c2.6,5.8,5.2,11.7,7.8,17.8s5,11.7,7.2,17
			c2.2-5.3,4.7-11.1,7.2-17c2.6-6.1,5.1-11.9,7.8-17.8c2.6-5.8,5.1-11.2,7.6-16.2c2.4-5,4.6-9.2,6.3-12.6h21.8
			c1,7.1,2,14.9,2.9,23.8c0.9,8.7,1.6,17.9,2.4,27.4c0.6,9.5,1.2,19,1.9,28.5c0.6,9.6,1,18.5,1.5,26.9h-23.4
			c-0.2-10.3-0.7-21.6-1.2-33.8s-1.2-24.5-2.4-36.9c-1.9,4.4-3.9,9.1-6.2,14.3c-2.2,5.2-4.5,10.4-6.7,15.7
			c-2.2,5.2-4.4,10.2-6.3,14.9c-2,4.7-3.9,8.8-5.2,12.2h-16.8c-1.5-3.4-3.2-7.5-5.2-12.2s-4.2-9.7-6.3-14.9
			c-2.2-5.2-4.5-10.4-6.7-15.7c-2.2-5.2-4.4-9.9-6.2-14.3c-1,12.4-1.7,24.7-2.4,36.9c-0.5,12.2-0.9,23.5-1.2,33.8H1284
			c0.4-8.5,0.9-17.4,1.5-26.9c0.6-9.6,1.1-19,1.9-28.5c0.6-9.5,1.5-18.7,2.4-27.4s1.9-16.7,2.9-23.8
			C1292.4,117.5,1315.2,117.5,1315.2,117.5z"/>
		<path d="M1496.3,224.1c-1.2-3.7-2.5-7.5-3.9-11.4s-2.7-7.8-4.1-11.7h-41.5c-1.4,3.9-2.7,7.8-4.1,11.7s-2.6,7.7-3.7,11.3h-24.9
			c4-11.4,7.8-22.1,11.4-31.8s7.1-18.9,10.6-27.5s6.8-16.8,10.2-24.5c3.4-7.7,6.8-15.3,10.4-22.6h22.8c3.5,7.3,7,14.9,10.3,22.6
			c3.4,7.7,6.8,15.9,10.3,24.5s7,17.8,10.6,27.5s7.5,20.4,11.4,31.8L1496.3,224.1L1496.3,224.1L1496.3,224.1z M1467.4,141.6
			c-0.5,1.5-1.4,3.6-2.4,6.3c-1,2.6-2.2,5.7-3.5,9.2c-1.4,3.5-2.7,7.3-4.4,11.6c-1.6,4.2-3.2,8.6-5,13.2h30.3
			c-1.6-4.6-3.2-9.1-4.7-13.2c-1.5-4.2-3-8.1-4.4-11.6s-2.6-6.6-3.6-9.2C1468.9,145.2,1468,143.1,1467.4,141.6z"/>
		<path d="M1598.4,224.1c-2.1-3.5-4.7-7.2-7.6-11.2c-3-4-6.1-8.1-9.5-12.2c-3.4-4.1-7-8-10.6-11.8c-3.7-3.7-7.3-7.1-11.1-9.9v45.1
			h-24V117.5h24v40c6.2-6.5,12.4-13.2,18.8-20.3c6.3-7.1,12.2-13.7,17.7-19.6h28.2c-7.2,8.6-14.6,16.9-21.9,24.9s-15,16-23.1,24
			c8.5,7.1,16.8,15.5,24.6,25.2c8,9.7,15.5,20.5,22.9,32.2h-28.5L1598.4,224.1L1598.4,224.1z"/>
		<path d="M1640.7,224.1V117.5h72v20.1h-48v20.9h42.5v19.6h-42.5v25.6h51.5V224h-75.5V224.1z"/>
	</g>
	<g id="santafe" class="st4">
		<path d="M1345.8,325.2c3.6,0,6.3-0.5,8.1-1.5c1.7-1,2.6-2.5,2.6-4.6s-0.9-3.9-2.6-5.2c-1.7-1.2-4.6-2.7-8.5-4.4
			c-1.9-0.7-3.7-1.5-5.5-2.4c-1.7-0.7-3.2-1.7-4.6-2.9c-1.2-1.1-2.2-2.4-3.1-4c-0.7-1.5-1.1-3.4-1.1-5.6c0-4.4,1.6-7.8,4.8-10.4
			c3.2-2.6,7.7-3.9,13.3-3.9c1.4,0,2.9,0.1,4.2,0.2c1.4,0.1,2.7,0.4,4,0.6c1.2,0.2,2.2,0.5,3.2,0.7c0.9,0.2,1.6,0.5,2.1,0.6
			l-1.6,7.7c-1-0.5-2.5-1-4.5-1.6c-2-0.5-4.5-0.9-7.3-0.9c-2.5,0-4.6,0.5-6.5,1.5s-2.7,2.5-2.7,4.6c0,1.1,0.2,2,0.6,2.9
			s1,1.6,1.9,2.2s1.9,1.2,3.2,1.9c1.2,0.6,2.9,1.1,4.6,1.9c2.4,0.9,4.5,1.7,6.3,2.6c1.9,0.9,3.5,1.9,4.7,3c1.4,1.1,2.4,2.5,3,4.1
			c0.7,1.6,1,3.6,1,6c0,4.6-1.7,8.1-5.1,10.4c-3.4,2.4-8.3,3.5-14.5,3.5c-4.4,0-7.8-0.4-10.3-1.1s-4.2-1.2-5.1-1.6l1.6-7.7
			c1,0.4,2.6,1,4.8,1.7C1339.1,324.8,1342.1,325.2,1345.8,325.2z"/>
		<path d="M1392.9,280.7c3.6,0,6.6,0.5,9.1,1.4s4.5,2.2,6,4s2.6,3.7,3.2,6c0.6,2.4,1,4.9,1,7.7v31.1c-0.7,0.1-1.9,0.2-3.2,0.5
			c-1.4,0.2-2.9,0.4-4.6,0.6s-3.6,0.4-5.6,0.5s-4,0.2-6,0.2c-2.9,0-5.3-0.2-7.7-0.9c-2.4-0.6-4.4-1.5-6.1-2.7s-3.1-2.9-4-5
			c-1-2-1.5-4.5-1.5-7.3c0-2.7,0.5-5.1,1.6-7.1s2.6-3.6,4.6-4.7c1.9-1.2,4.1-2.1,6.7-2.7c2.5-0.6,5.2-0.9,8.1-0.9
			c0.9,0,1.9,0,2.7,0.1c1,0.1,1.9,0.2,2.7,0.4c0.9,0.1,1.6,0.2,2.2,0.4c0.6,0.1,1.1,0.2,1.4,0.2V300c0-1.5-0.1-2.9-0.5-4.4
			s-0.9-2.7-1.7-3.9s-2-2-3.4-2.7c-1.5-0.6-3.4-1-5.6-1c-3,0-5.5,0.2-7.7,0.6s-3.9,0.9-5,1.2l-1-7.3c1.1-0.5,3.1-1,5.7-1.5
			S1389.8,280.7,1392.9,280.7z M1393.7,325.2c2.1,0,4,0,5.6-0.1s3-0.2,4.1-0.5v-14.8c-0.6-0.4-1.6-0.6-3.1-0.9s-3.2-0.4-5.2-0.4
			c-1.4,0-2.7,0.1-4.2,0.2c-1.5,0.2-2.9,0.6-4.1,1.2s-2.2,1.5-3.1,2.5s-1.2,2.5-1.2,4.1c0,3.2,1,5.3,3.1,6.6
			C1387.5,324.6,1390.2,325.2,1393.7,325.2z"/>
		<path d="M1426.8,283.3c2-0.5,4.7-1,8.1-1.6s7.2-0.9,11.7-0.9c4,0,7.2,0.5,9.8,1.6s4.7,2.7,6.2,4.7c1.6,2,2.6,4.5,3.4,7.2
			c0.6,2.9,1,5.8,1,9.3v28h-9v-26c0-3.1-0.2-5.7-0.6-7.8s-1.1-4-2.1-5.2c-1-1.4-2.2-2.4-3.9-2.9c-1.6-0.6-3.6-0.9-6-0.9
			c-1,0-2,0-3,0.1s-2,0.1-2.9,0.2s-1.7,0.2-2.5,0.4c-0.7,0.1-1.2,0.2-1.6,0.2v42h-9v-48.6h0.4V283.3z"/>
		<path d="M1489.9,281.9h18.8v7.5h-18.8v23c0,2.5,0.2,4.6,0.6,6.2s1,2.9,1.7,3.9c0.7,0.9,1.7,1.6,2.9,2c1.1,0.4,2.5,0.6,4,0.6
			c2.7,0,4.8-0.2,6.5-0.9c1.6-0.6,2.7-1,3.4-1.2l1.7,7.3c-0.9,0.5-2.5,1-4.7,1.6s-4.7,1-7.7,1c-3.4,0-6.2-0.4-8.3-1.2
			c-2.2-0.9-4-2.1-5.3-3.9c-1.4-1.7-2.2-3.9-2.9-6.3c-0.5-2.5-0.9-5.5-0.9-8.7v-44.4l9-1.5L1489.9,281.9L1489.9,281.9z"/>
		<path d="M1536.2,280.7c3.6,0,6.6,0.5,9.1,1.4s4.5,2.2,6,4s2.6,3.7,3.2,6c0.6,2.4,1,4.9,1,7.7v31.1c-0.7,0.1-1.9,0.2-3.2,0.5
			c-1.4,0.2-2.9,0.4-4.6,0.6s-3.6,0.4-5.6,0.5s-4,0.2-6,0.2c-2.9,0-5.3-0.2-7.7-0.9c-2.4-0.6-4.4-1.5-6.1-2.7s-3.1-2.9-4-5
			c-1-2-1.5-4.5-1.5-7.3c0-2.7,0.5-5.1,1.6-7.1s2.6-3.6,4.6-4.7c1.9-1.2,4.1-2.1,6.7-2.7c2.5-0.6,5.2-0.9,8.1-0.9
			c0.9,0,1.9,0,2.7,0.1c1,0.1,1.9,0.2,2.7,0.4c0.9,0.1,1.6,0.2,2.2,0.4c0.6,0.1,1.1,0.2,1.4,0.2V300c0-1.5-0.1-2.9-0.5-4.4
			s-0.9-2.7-1.7-3.9c-0.9-1.1-2-2-3.4-2.7c-1.5-0.6-3.4-1-5.6-1c-3,0-5.5,0.2-7.7,0.6s-3.9,0.9-5,1.2l-1-7.3c1.1-0.5,3.1-1,5.7-1.5
			C1530.1,280.9,1533.1,280.7,1536.2,280.7z M1536.9,325.2c2.1,0,4,0,5.6-0.1s3-0.2,4.1-0.5v-14.8c-0.6-0.4-1.6-0.6-3.1-0.9
			s-3.1-0.4-5.2-0.4c-1.4,0-2.7,0.1-4.2,0.2c-1.5,0.2-2.9,0.6-4.1,1.2s-2.2,1.5-3.1,2.5s-1.2,2.5-1.2,4.1c0,3.2,1,5.3,3.1,6.6
			C1530.6,324.6,1533.5,325.2,1536.9,325.2z"/>
		<path d="M1611.4,257.4c2.6,0,4.8,0.2,6.7,0.6c1.9,0.4,3.2,0.7,4,1l-1.5,7.6c-0.7-0.4-1.9-0.7-3.2-1.1c-1.4-0.4-3.1-0.5-5.2-0.5
			c-4.1,0-7.1,1.1-8.7,3.4c-1.6,2.2-2.5,5.3-2.5,9.1v4.4h19.2v7.5H1601v42.3h-9v-54.2c0-6.3,1.6-11.3,4.7-14.8
			C1599.9,259.2,1604.8,257.4,1611.4,257.4z"/>
		<path d="M1626.2,306.8c0-4.4,0.6-8.2,1.9-11.6c1.2-3.2,3-6,5.1-8.2c2.1-2.1,4.5-3.7,7.2-4.9c2.7-1.1,5.6-1.6,8.5-1.6
			c6.7,0,11.8,2.1,15.4,6.2c3.6,4.2,5.3,10.6,5.3,19c0,0.4,0,0.9,0,1.5s0,1.1-0.1,1.6h-34.1c0.4,5.2,1.9,9.1,4.5,11.8
			c2.6,2.7,6.7,4,12.2,4c3.1,0,5.7-0.2,7.8-0.9c2.1-0.5,3.7-1.1,4.9-1.6l1.2,7.5c-1.1,0.6-3,1.1-5.7,1.9c-2.7,0.6-5.8,1-9.2,1
			c-4.4,0-8.1-0.6-11.2-2s-5.7-3.1-7.8-5.3c-2.1-2.2-3.6-5-4.6-8.2C1626.7,314,1626.2,310.6,1626.2,306.8z M1660.3,301.9
			c0-4-1-7.3-3-9.9c-2.1-2.6-5-3.9-8.6-3.9c-2,0-3.9,0.4-5.3,1.2c-1.6,0.7-2.9,1.9-4,3.1s-2,2.7-2.5,4.4c-0.6,1.6-1,3.4-1.2,5.1
			L1660.3,301.9L1660.3,301.9z"/>
	</g>
</g>
<g id="lbt">
	<g>
		<path class="st4" d="M1067,959.3v8.1h-32.5v-51.5h9.4v43.3L1067,959.3L1067,959.3z"/>
		<path class="st4" d="M1077.9,967.4v-51.5h33v7.9h-23.7v12.7h21.1v7.8h-21.1v15.1h25.5v7.9h-34.8V967.4z"/>
		<path class="st4" d="M1159.3,967.4c-0.7-2-1.4-4-2.2-6c-0.7-2-1.5-4-2.2-6.1h-21.7c-0.7,2.1-1.4,4.1-2.1,6.1c-0.7,2-1.4,4-2.1,6
			h-9.7c1.9-5.5,3.8-10.6,5.5-15.2c1.7-4.6,3.4-9.1,5.1-13.2c1.7-4.2,3.3-8.1,4.9-11.9s3.3-7.5,5-11.1h8.9c1.7,3.7,3.4,7.4,5,11.1
			c1.6,3.8,3.3,7.7,4.9,11.9c1.7,4.1,3.4,8.6,5.1,13.2c1.8,4.6,3.6,9.7,5.5,15.2H1159.3z M1144.1,925.9c-1.1,2.6-2.4,5.8-3.9,9.6
			s-3,7.8-4.6,12.2h16.9c-1.6-4.4-3.1-8.5-4.6-12.3C1146.5,931.6,1145.2,928.4,1144.1,925.9z"/>
		<path class="st4" d="M1193.7,915.4c7.4,0,13.1,1.4,17,4.1c3.9,2.7,5.9,6.9,5.9,12.5c0,7-3.4,11.7-10.3,14.2c0.9,1.1,2,2.5,3.2,4.2
			c1.2,1.6,2.4,3.4,3.6,5.3c1.2,1.9,2.4,3.9,3.6,5.9c1.1,2,2.2,4,3,5.9h-10.5c-0.9-1.8-2-3.6-3-5.4c-1.1-1.8-2.2-3.6-3.3-5.3
			c-1.1-1.7-2.2-3.3-3.3-4.8s-2.1-2.9-3-4c-0.7,0.1-1.3,0.1-1.8,0.1s-1,0-1.4,0h-4.5v19.4h-9.4v-50.8c2.3-0.5,4.7-0.8,7.3-1
			C1189.4,915.5,1191.7,915.4,1193.7,915.4z M1194.4,923.5c-2,0-3.8,0.1-5.5,0.2v16.6h4.1c2.3,0,4.3-0.1,6-0.4
			c1.7-0.2,3.2-0.7,4.3-1.3c1.2-0.6,2-1.5,2.6-2.6c0.6-1.1,0.9-2.5,0.9-4.2c0-1.6-0.3-2.9-0.9-4c-0.6-1.1-1.4-2-2.6-2.6
			c-1.1-0.6-2.4-1.1-4-1.4C1197.9,923.6,1196.2,923.5,1194.4,923.5z"/>
		<path class="st4" d="M1265.4,967.4c-1.7-2.8-3.6-5.9-5.6-9.1c-2.1-3.2-4.2-6.5-6.5-9.8c-2.3-3.3-4.5-6.5-6.8-9.6
			c-2.3-3.1-4.5-5.9-6.6-8.4v36.8h-9.2v-51.4h7.6c2,2.1,4.1,4.5,6.4,7.4c2.3,2.9,4.6,5.8,6.9,8.9c2.3,3.1,4.5,6.1,6.7,9.2
			c2.2,3.1,4.1,6,5.8,8.7v-34.2h9.3v51.4h-8V967.4z"/>
		<path class="st4" d="M1299,962.4c0,1.7-0.6,3.1-1.8,4.2c-1.2,1.1-2.6,1.6-4.2,1.6c-1.7,0-3.1-0.5-4.2-1.6
			c-1.1-1.1-1.7-2.5-1.7-4.2s0.6-3.1,1.7-4.3c1.1-1.1,2.5-1.7,4.2-1.7c1.6,0,3,0.6,4.2,1.7C1298.5,959.3,1299,960.7,1299,962.4z"/>
	</g>
	<g>
		<path class="st4" d="M1385.3,967.9c-2.7,0-5.5-0.1-8.2-0.3c-2.8-0.2-5.2-0.5-7.3-1.1v-50c1.1-0.2,2.3-0.4,3.5-0.6
			c1.2-0.2,2.5-0.3,3.8-0.4c1.3-0.1,2.6-0.2,3.8-0.2c1.3-0.1,2.5-0.1,3.6-0.1c3.1,0,6,0.2,8.7,0.7c2.7,0.5,5,1.2,6.9,2.3
			c2,1.1,3.5,2.5,4.6,4.3c1.1,1.8,1.6,4,1.6,6.6c0,2.4-0.6,4.5-1.7,6.2c-1.2,1.7-2.8,3.1-4.9,4.2c3.1,1,5.4,2.6,6.9,4.6
			s2.2,4.6,2.2,7.7c0,5.3-1.9,9.3-5.8,11.9C1399.2,966.5,1393.3,967.9,1385.3,967.9z M1379,936.8h6.6c3.6,0,6.4-0.5,8.4-1.5
			s3-2.8,3-5.5c0-2.5-1-4.2-3.2-5.3c-2.1-1-4.8-1.5-8.2-1.5c-1.4,0-2.7,0-3.8,0.1c-1.1,0.1-2.1,0.1-2.9,0.2L1379,936.8L1379,936.8z
			 M1379,944.1v15.7c1,0.1,2.2,0.2,3.3,0.2c1.2,0,2.3,0.1,3.3,0.1c1.9,0,3.7-0.1,5.4-0.4c1.7-0.2,3.1-0.7,4.3-1.3
			c1.2-0.6,2.2-1.4,2.9-2.5c0.7-1,1.1-2.4,1.1-4c0-2.9-1.1-4.9-3.2-6.1c-2.1-1.1-5.1-1.7-8.8-1.7L1379,944.1L1379,944.1z"/>
		<path class="st4" d="M1442.1,968.4c-3.5,0-6.5-0.5-9.1-1.5c-2.5-1-4.6-2.4-6.3-4.3c-1.7-1.9-2.9-4-3.7-6.5s-1.2-5.2-1.2-8.2v-32
			h9.4v31.2c0,2.3,0.3,4.3,0.8,6c0.5,1.7,1.3,3,2.2,4c1,1,2.1,1.8,3.4,2.3c1.3,0.5,2.8,0.7,4.4,0.7c1.6,0,3.1-0.2,4.5-0.7
			c1.3-0.5,2.5-1.3,3.4-2.3c1-1,1.7-2.4,2.2-4c0.5-1.7,0.8-3.7,0.8-6v-31.2h9.4V948c0,3-0.4,5.7-1.2,8.2c-0.8,2.5-2.1,4.6-3.7,6.5
			c-1.7,1.8-3.8,3.3-6.3,4.3C1448.7,967.9,1445.6,968.4,1442.1,968.4z"/>
		<path class="st4" d="M1478.2,915.9h9.4v51.4h-9.4V915.9z"/>
		<path class="st4" d="M1536.1,959.2v8.1h-32.5v-51.4h9.4v43.3H1536.1z"/>
		<path class="st4" d="M1590.5,941.5c0,4.4-0.7,8.3-2.1,11.6c-1.4,3.3-3.4,6-5.9,8.2c-2.6,2.2-5.6,3.8-9.2,4.9
			c-3.6,1.1-7.6,1.6-11.9,1.6c-2.1,0-4.4-0.1-7-0.3s-5.1-0.5-7.5-1.1v-50c2.4-0.5,4.9-0.9,7.6-1c2.7-0.1,5.1-0.2,7.1-0.2
			c4.3,0,8.2,0.5,11.8,1.5s6.6,2.6,9.2,4.7c2.5,2.2,4.5,4.9,5.9,8.2C1589.9,932.9,1590.5,937,1590.5,941.5z M1556.2,959.6
			c0.5,0,1.3,0.1,2.2,0.1s2.1,0,3.6,0c6.3,0,11-1.6,14.1-4.8s4.6-7.7,4.6-13.4c0-5.8-1.5-10.3-4.5-13.4c-3-3.1-7.7-4.7-14-4.7
			c-2.8,0-4.7,0.1-5.9,0.2L1556.2,959.6L1556.2,959.6z"/>
		<path class="st4" d="M1614.1,962.4c0,1.7-0.6,3.1-1.8,4.2c-1.2,1.1-2.6,1.6-4.2,1.6c-1.7,0-3.1-0.5-4.2-1.6
			c-1.1-1.1-1.7-2.5-1.7-4.2s0.6-3.2,1.7-4.3c1.1-1.1,2.5-1.7,4.2-1.7c1.6,0,3,0.6,4.2,1.7C1613.5,959.2,1614.1,960.7,1614.1,962.4z
			"/>
	</g>
	<g>
		<path class="st4" d="M1709.8,915.9v8.1H1694v43.3h-9.4V924h-15.8v-8.1C1668.8,915.9,1709.8,915.9,1709.8,915.9z"/>
		<path class="st4" d="M1752.3,915.9h9.3v51.4h-9.3v-22.7H1730v22.8h-9.4v-51.5h9.4v20.6h22.3V915.9z"/>
		<path class="st4" d="M1791.9,915.4c7.4,0,13.1,1.4,17,4.1s5.9,6.9,5.9,12.5c0,7-3.4,11.7-10.3,14.2c0.9,1.1,2,2.5,3.2,4.2
			c1.2,1.6,2.4,3.4,3.6,5.3s2.4,3.9,3.6,5.9c1.1,2,2.2,4,3,5.9h-10.5c-0.9-1.8-2-3.6-3-5.4c-1.1-1.8-2.2-3.6-3.3-5.3
			c-1.1-1.7-2.2-3.3-3.3-4.8s-2.1-2.9-3-4c-0.7,0.1-1.3,0.1-1.8,0.1s-1,0-1.4,0h-4.5v19.4h-9.4v-50.8c2.3-0.5,4.7-0.8,7.3-1
			S1789.9,915.4,1791.9,915.4z M1792.6,923.5c-2,0-3.8,0.1-5.5,0.2v16.6h4.1c2.3,0,4.3-0.1,6-0.4c1.7-0.2,3.2-0.7,4.3-1.3
			c1.2-0.6,2-1.5,2.6-2.6c0.6-1.1,0.9-2.5,0.9-4.2c0-1.6-0.3-2.9-0.9-4c-0.6-1.1-1.4-2-2.6-2.6c-1.1-0.6-2.4-1.1-4-1.4
			C1796.1,923.6,1794.4,923.5,1792.6,923.5z"/>
		<path class="st4" d="M1828.9,915.9h9.4v51.4h-9.4V915.9z"/>
		<path class="st4" d="M1869,967.4c-3.7-8-7.3-16.4-10.7-25.2s-6.6-17.5-9.6-26.3h10.3c1.2,3.5,2.4,7,3.6,10.6
			c1.2,3.6,2.5,7.2,3.7,10.6c1.2,3.5,2.5,6.9,3.7,10.1c1.2,3.3,2.5,6.3,3.6,9c1.1-2.7,2.3-5.7,3.6-8.9c1.2-3.2,2.5-6.6,3.8-10.1
			c1.3-3.5,2.5-7.1,3.8-10.7c1.3-3.6,2.4-7.1,3.6-10.6h10c-3,8.8-6.3,17.5-9.7,26.3s-7,17.1-10.7,25.2
			C1878,967.4,1869,967.4,1869,967.4z"/>
		<path class="st4" d="M1908.7,967.4v-51.5h33v7.9H1918v12.7h21.1v7.8H1918v15.1h25.5v7.9h-34.8V967.4z"/>
		<path class="st4" d="M1965.5,962.4c0,1.7-0.6,3.1-1.8,4.2c-1.2,1.1-2.6,1.6-4.2,1.6c-1.7,0-3.1-0.5-4.2-1.6
			c-1.1-1.1-1.7-2.5-1.7-4.2s0.6-3.1,1.7-4.3c1.1-1.2,2.5-1.7,4.2-1.7c1.6,0,3,0.6,4.2,1.7C1965,959.3,1965.5,960.7,1965.5,962.4z"
			/>
	</g>
</g>
</svg>
