<?xml version="1.0" encoding="utf-8"?>
<!-- Generator: Adobe Illustrator 23.0.1, SVG Export Plug-In . SVG Version: 6.00 Build 0)  -->
<svg version="1.1" id="circuits" xmlns="http://www.w3.org/2000/svg" xmlns:xlink="http://www.w3.org/1999/xlink" x="0px" y="0px"
	 viewBox="0 0 230.4 144" style="enable-background:new 0 0 230.4 144;" xml:space="preserve">
<style type="text/css">
	.st0{fill-rule:evenodd;clip-rule:evenodd;fill:#DBDBDB;stroke:#000000;stroke-width:0.3688;stroke-miterlimit:10;}
	.st1{enable-background:new    ;} 
	.st2{fill:#555555;}
	.st3{fill-rule:evenodd;clip-rule:evenodd;fill:none;stroke:#000000;stroke-width:0.3688;stroke-miterlimit:10;}
	.st4{fill:none;stroke:#000000;stroke-width:0.3688;stroke-miterlimit:10;}
</style>
<path class="st0" d="M51.2,102.9c-0.3,0.1-0.3,0.3-0.3,0.6c0,0.4,0.1,0.4,0.1,0.6s0.1,0.7,0,0.8c-0.1,0.1-0.1,0.2-0.1,0.3
	c0,0.1,0,0.2-0.1,0.3c0,0.1,0,0.2,0,0.2c0,0.1,0.1,0.3,0.1,0.3c0,0,0.2,0.1,0.3,0.1c0.1,0-0.2,0.1-0.2,0.2c0,0-0.1,0.2-0.1,0.3
	s-0.3,0.7-0.3,0.9s0,0.5,0,0.6c0,0,0,0.7,0,0.9c0,0.2-0.2,0.4-0.1,0.5c0.1,0,0.4,0,0.4,0.1s-0.2,0.1-0.3,0.2c0,0.1,0,0.5,0.1,0.6
	c0,0.1,0,0.2,0,0.4c0,0.2,0.1,0.4,0,0.4c-0.1,0.1-0.2,0.2-0.2,0.3c0,0.1,0.2-0.1,0.4,0c0.2,0.1,0.2,0.8,0.2,1c0,0.2-0.1,0.3-0.1,0.6
	c0,0.4,0,0.6,0.3,0.6c0.3,0.1,7.9-0.7,7.9-0.7s0,0.1,0.1,0.1c0.1,0,0.4,0,0.5,0c0.1,0,0,0.2,0.3,0.2c0.2,0,0.2-0.2,0.3-0.2
	c0.1,0,2,0,2.1,0c0.1,0,0.2,0.2,0.4,0.2s0.2-0.2,0.3-0.2c0.1,0,0.5,0,0.5-0.1c0-0.1,0.2-0.2,0.3-0.2c0.2,0,0.4-0.2,0.4-0.4
	c0-0.2,0-0.4,0.1-0.6c0.1-0.3,0.4-0.8,1-1.4c0.5-0.5,2.2-0.6,3.1-0.8c0.9-0.2,2.7,0.3,4.5,0.7c1.8,0.4,3.5-0.1,4.5-0.4
	c1-0.4,1.5-1.3,1.5-1.6v0c0-0.3-0.5-1.2-1.5-1.6c-1-0.4-2.7-0.8-4.5-0.4c-1.8,0.4-3.5,0.9-4.5,0.7c-0.9-0.2-2.6-0.3-3.1-0.8
	c-0.6-0.5-0.9-1.1-1-1.4c-0.1-0.3,0-0.4-0.1-0.6c0-0.2-0.2-0.4-0.4-0.4c-0.2,0-0.3,0-0.3-0.2c0-0.1-0.4-0.1-0.5-0.1
	c-0.1,0-0.2-0.2-0.3-0.2c-0.1,0-0.2,0.2-0.4,0.2c-0.1,0-2.1,0-2.1,0c-0.1,0-0.1-0.2-0.3-0.2s-0.2,0.2-0.3,0.2c-0.1,0-0.4,0-0.5,0
	c-0.1,0-0.1,0.1-0.1,0.1S51.6,102.8,51.2,102.9z M77,107.8c0.3,0,0.6,0.3,0.6,0.6c0,0.3-0.3,0.6-0.6,0.6c-0.3,0-0.6-0.3-0.6-0.6
	C76.4,108.1,76.7,107.8,77,107.8z"/>
<desc>Created with Snap</desc>
<desc>Created with Snap</desc>
<g class="st1">
	<path class="st2" d="M37.6,39.8c-0.6,0-1.1,0-1.7-0.1c-0.6,0-1.1-0.1-1.5-0.2V29.4c0.2,0,0.5-0.1,0.7-0.1c0.3,0,0.5-0.1,0.8-0.1
		s0.5,0,0.8,0c0.3,0,0.5,0,0.7,0c0.6,0,1.2,0,1.8,0.1c0.5,0.1,1,0.3,1.4,0.5c0.4,0.2,0.7,0.5,0.9,0.9s0.3,0.8,0.3,1.3
		c0,0.5-0.1,0.9-0.4,1.3c-0.2,0.4-0.6,0.6-1,0.8c0.6,0.2,1.1,0.5,1.4,0.9c0.3,0.4,0.5,0.9,0.5,1.6c0,1.1-0.4,1.9-1.2,2.4
		C40.5,39.6,39.3,39.8,37.6,39.8z M36.4,33.5h1.3c0.7,0,1.3-0.1,1.7-0.3c0.4-0.2,0.6-0.6,0.6-1.1c0-0.5-0.2-0.9-0.6-1.1
		s-1-0.3-1.7-0.3c-0.3,0-0.5,0-0.8,0c-0.2,0-0.4,0-0.6,0V33.5z M36.4,35v3.2c0.2,0,0.4,0,0.7,0c0.2,0,0.5,0,0.7,0
		c0.4,0,0.8,0,1.1-0.1c0.3-0.1,0.6-0.1,0.9-0.3s0.4-0.3,0.6-0.5s0.2-0.5,0.2-0.8c0-0.6-0.2-1-0.6-1.2S38.8,35,38,35H36.4z"/>
	<path class="st2" d="M48.4,39.9c-0.7,0-1.3-0.1-1.8-0.3c-0.5-0.2-0.9-0.5-1.3-0.9c-0.3-0.4-0.6-0.8-0.7-1.3
		c-0.2-0.5-0.2-1.1-0.2-1.7v-6.5h1.9v6.3c0,0.5,0.1,0.9,0.2,1.2c0.1,0.3,0.3,0.6,0.5,0.8c0.2,0.2,0.4,0.4,0.7,0.5
		c0.3,0.1,0.6,0.2,0.9,0.2c0.3,0,0.6-0.1,0.9-0.2c0.3-0.1,0.5-0.3,0.7-0.5c0.2-0.2,0.3-0.5,0.5-0.8c0.1-0.3,0.2-0.7,0.2-1.2v-6.3
		h1.9v6.5c0,0.6-0.1,1.2-0.2,1.7s-0.4,0.9-0.8,1.3c-0.3,0.4-0.8,0.7-1.3,0.9C49.7,39.8,49.1,39.9,48.4,39.9z"/>
	<path class="st2" d="M55,29.3h1.9v10.4H55V29.3z"/>
	<path class="st2" d="M66,38.1v1.6h-6.6V29.3h1.9v8.8H66z"/>
	<path class="st2" d="M76.3,34.5c0,0.9-0.1,1.7-0.4,2.4c-0.3,0.7-0.7,1.2-1.2,1.7c-0.5,0.4-1.1,0.8-1.9,1c-0.7,0.2-1.5,0.3-2.4,0.3
		c-0.4,0-0.9,0-1.4-0.1c-0.5,0-1-0.1-1.5-0.2V29.4c0.5-0.1,1-0.2,1.5-0.2c0.5,0,1,0,1.4,0c0.9,0,1.7,0.1,2.4,0.3
		c0.7,0.2,1.3,0.5,1.9,1c0.5,0.4,0.9,1,1.2,1.7C76.1,32.8,76.3,33.6,76.3,34.5z M69.3,38.2c0.1,0,0.3,0,0.4,0c0.2,0,0.4,0,0.7,0
		c1.3,0,2.2-0.3,2.9-1s0.9-1.6,0.9-2.7c0-1.2-0.3-2.1-0.9-2.7s-1.6-0.9-2.8-0.9c-0.6,0-1,0-1.2,0V38.2z"/>
	<path class="st2" d="M79.9,38.7c0,0.4-0.1,0.6-0.4,0.9c-0.2,0.2-0.5,0.3-0.9,0.3c-0.3,0-0.6-0.1-0.9-0.3c-0.2-0.2-0.3-0.5-0.3-0.9
		c0-0.4,0.1-0.6,0.3-0.9c0.2-0.2,0.5-0.3,0.9-0.3c0.3,0,0.6,0.1,0.9,0.3C79.7,38.1,79.9,38.4,79.9,38.7z"/>
	<path class="st2" d="M90.1,39.9c-0.8,0-1.5-0.1-2.1-0.4c-0.6-0.2-1.1-0.6-1.6-1.1c-0.4-0.5-0.8-1-1-1.7c-0.2-0.7-0.3-1.4-0.3-2.3
		c0-0.9,0.1-1.6,0.4-2.3c0.3-0.7,0.6-1.2,1.1-1.7c0.5-0.5,1-0.8,1.6-1.1c0.6-0.2,1.3-0.4,2-0.4c0.4,0,0.8,0,1.2,0.1
		c0.4,0.1,0.7,0.1,0.9,0.2c0.3,0.1,0.5,0.2,0.6,0.3c0.2,0.1,0.3,0.2,0.4,0.2l-0.6,1.6c-0.2-0.2-0.6-0.3-1-0.4
		c-0.4-0.1-0.9-0.2-1.5-0.2c-0.5,0-0.9,0.1-1.3,0.2c-0.4,0.2-0.7,0.4-1,0.7c-0.3,0.3-0.5,0.7-0.7,1.2c-0.2,0.5-0.2,1-0.2,1.6
		c0,0.6,0.1,1.1,0.2,1.5c0.1,0.5,0.3,0.9,0.6,1.2c0.3,0.3,0.6,0.6,1,0.8c0.4,0.2,0.9,0.3,1.4,0.3c0.7,0,1.2-0.1,1.6-0.2
		c0.4-0.1,0.7-0.3,1-0.4l0.5,1.6c-0.1,0.1-0.3,0.2-0.5,0.2c-0.2,0.1-0.4,0.2-0.7,0.2c-0.3,0.1-0.6,0.1-0.9,0.2
		C90.8,39.9,90.5,39.9,90.1,39.9z"/>
	<path class="st2" d="M97.9,29.2c1.5,0,2.7,0.3,3.5,0.8c0.8,0.6,1.2,1.4,1.2,2.5c0,1.4-0.7,2.4-2.1,2.9c0.2,0.2,0.4,0.5,0.6,0.8
		c0.2,0.3,0.5,0.7,0.7,1.1c0.3,0.4,0.5,0.8,0.7,1.2c0.2,0.4,0.4,0.8,0.6,1.2h-2.1c-0.2-0.4-0.4-0.7-0.6-1.1
		c-0.2-0.4-0.4-0.7-0.7-1.1c-0.2-0.3-0.4-0.7-0.7-1c-0.2-0.3-0.4-0.6-0.6-0.8c-0.1,0-0.3,0-0.4,0c-0.1,0-0.2,0-0.3,0h-0.9v3.9H95
		V29.4c0.5-0.1,1-0.2,1.5-0.2S97.5,29.2,97.9,29.2z M98,30.8c-0.4,0-0.8,0-1.1,0v3.4h0.8c0.5,0,0.9,0,1.2-0.1s0.6-0.1,0.9-0.3
		s0.4-0.3,0.5-0.5c0.1-0.2,0.2-0.5,0.2-0.8c0-0.3-0.1-0.6-0.2-0.8c-0.1-0.2-0.3-0.4-0.5-0.5c-0.2-0.1-0.5-0.2-0.8-0.3
		S98.4,30.8,98,30.8z"/>
	<path class="st2" d="M104.7,39.7V29.3h6.7v1.6h-4.8v2.6h4.3v1.6h-4.3v3.1h5.2v1.6H104.7z"/>
	<path class="st2" d="M120.7,39.7c-0.1-0.4-0.3-0.8-0.4-1.2c-0.2-0.4-0.3-0.8-0.4-1.2h-4.4c-0.1,0.4-0.3,0.8-0.4,1.2
		c-0.1,0.4-0.3,0.8-0.4,1.2h-2c0.4-1.1,0.8-2.1,1.1-3.1s0.7-1.8,1-2.7s0.7-1.6,1-2.4c0.3-0.8,0.7-1.5,1-2.3h1.8
		c0.4,0.7,0.7,1.5,1,2.3c0.3,0.8,0.7,1.6,1,2.4s0.7,1.7,1,2.7c0.4,0.9,0.7,2,1.1,3.1H120.7z M117.6,31.3c-0.2,0.5-0.5,1.2-0.8,1.9
		c-0.3,0.8-0.6,1.6-0.9,2.5h3.4c-0.3-0.9-0.6-1.7-0.9-2.5S117.8,31.8,117.6,31.3z"/>
	<path class="st2" d="M130.4,29.3v1.6h-3.2v8.8h-1.9v-8.8h-3.2v-1.6H130.4z"/>
	<path class="st2" d="M131.9,39.7V29.3h6.7v1.6h-4.8v2.6h4.3v1.6h-4.3v3.1h5.2v1.6H131.9z"/>
	<path class="st2" d="M142.8,38.7c0,0.4-0.1,0.6-0.4,0.9c-0.2,0.2-0.5,0.3-0.9,0.3c-0.3,0-0.6-0.1-0.9-0.3c-0.2-0.2-0.3-0.5-0.3-0.9
		c0-0.4,0.1-0.6,0.3-0.9c0.2-0.2,0.5-0.3,0.9-0.3c0.3,0,0.6,0.1,0.9,0.3C142.7,38.1,142.8,38.4,142.8,38.7z"/>
	<path class="st2" d="M148.3,29.3h1.9v10.4h-1.9V29.3z"/>
	<path class="st2" d="M159.8,39.7c-0.3-0.6-0.7-1.2-1.1-1.8s-0.9-1.3-1.3-2c-0.5-0.7-0.9-1.3-1.4-1.9s-0.9-1.2-1.3-1.7v7.5h-1.9
		V29.3h1.6c0.4,0.4,0.8,0.9,1.3,1.5c0.5,0.6,0.9,1.2,1.4,1.8c0.5,0.6,0.9,1.2,1.4,1.9c0.4,0.6,0.8,1.2,1.2,1.8v-6.9h1.9v10.4H159.8z
		"/>
	<path class="st2" d="M166.9,39.7c-0.8-1.6-1.5-3.3-2.2-5.1c-0.7-1.8-1.3-3.6-2-5.3h2.1c0.2,0.7,0.5,1.4,0.7,2.2
		c0.3,0.7,0.5,1.5,0.8,2.2c0.3,0.7,0.5,1.4,0.8,2.1c0.3,0.7,0.5,1.3,0.7,1.8c0.2-0.6,0.5-1.2,0.7-1.8c0.3-0.7,0.5-1.3,0.8-2.1
		c0.3-0.7,0.5-1.4,0.8-2.2c0.3-0.7,0.5-1.5,0.7-2.2h2c-0.6,1.8-1.3,3.6-2,5.3c-0.7,1.8-1.4,3.5-2.2,5.1H166.9z"/>
	<path class="st2" d="M174.2,39.7V29.3h6.7v1.6h-4.8v2.6h4.3v1.6h-4.3v3.1h5.2v1.6H174.2z"/>
	<path class="st2" d="M190,39.7c-0.3-0.6-0.7-1.2-1.1-1.8s-0.9-1.3-1.3-2c-0.5-0.7-0.9-1.3-1.4-1.9s-0.9-1.2-1.3-1.7v7.5H183V29.3
		h1.6c0.4,0.4,0.8,0.9,1.3,1.5c0.5,0.6,0.9,1.2,1.4,1.8c0.5,0.6,0.9,1.2,1.4,1.9c0.4,0.6,0.8,1.2,1.2,1.8v-6.9h1.9v10.4H190z"/>
	<path class="st2" d="M201.4,29.3v1.6h-3.2v8.8h-1.9v-8.8h-3.2v-1.6H201.4z"/>
	<path class="st2" d="M203.7,38.7c0,0.4-0.1,0.6-0.4,0.9c-0.2,0.2-0.5,0.3-0.9,0.3c-0.3,0-0.6-0.1-0.9-0.3c-0.2-0.2-0.3-0.5-0.3-0.9
		c0-0.4,0.1-0.6,0.3-0.9c0.2-0.2,0.5-0.3,0.9-0.3c0.3,0,0.6,0.1,0.9,0.3C203.6,38.1,203.7,38.4,203.7,38.7z"/>
</g>
<desc>Created with Snap</desc>
<path class="st0" d="M123.7,102.5c-0.2-0.4-0.2-0.6-0.2-0.9s0-1.3,0-1.6c0-0.4,0-0.5,0.5-0.7c0.4-0.2,0.4-0.3,0.4-0.5
	c0-0.2,0-0.4-0.4-0.4c-0.4,0-1.7,0-1.7,0s-1.4,0-1.7,0c-0.4,0-0.4,0.3-0.4,0.4c0,0.2,0,0.3,0.4,0.5c0.4,0.2,0.5,0.3,0.5,0.7
	c0,0.4,0,1.3,0,1.6c0,0.3,0,0.5-0.2,0.9c-0.2,0.4-5.5,7.4-6,8.2c-0.6,0.8-0.8,1.8-0.4,2.3c0.4,0.6,0.9,0.9,1.4,0.9
	c0.5,0,6.5,0,6.5,0s5.9,0,6.5,0c0.5,0,1.1-0.4,1.4-0.9c0.4-0.6,0.2-1.5-0.4-2.3C129.2,109.9,124,102.9,123.7,102.5z"/>
<circle class="st3" cx="121" cy="96.4" r="0.7"/>
<circle class="st3" cx="122.8" cy="97.4" r="0.5"/>
<circle class="st3" cx="122.9" cy="95.1" r="1"/>
<path class="st3" d="M128.4,112.1c-0.6-0.8-5.8-7.8-6-8.2c-0.2-0.4-0.2-0.6-0.2-0.9c0-0.3,0-1.3,0-1.6c0-0.4,0-0.5,0.5-0.7
	c0.4-0.2,0.4-0.3,0.4-0.5c0-0.2,0-0.4-0.4-0.4c-0.4,0-1.7,0-1.7,0s-1.4,0-1.7,0c-0.4,0-0.4,0.3-0.4,0.4s0,0.3,0.4,0.5
	c0.4,0.2,0.5,0.3,0.5,0.7c0,0.4,0,1.3,0,1.6s0,0.5-0.2,0.9c-0.2,0.4-5.5,7.4-6,8.2c-0.6,0.8-0.8,1.8-0.4,2.3
	c0.4,0.6,0.9,0.9,1.4,0.9c0.5,0,6.5,0,6.5,0s5.9,0,6.5,0c0.5,0,1.1-0.4,1.4-0.9C129.2,113.9,129,113,128.4,112.1z"/>
<circle class="st3" cx="119.6" cy="97.8" r="0.7"/>
<circle class="st3" cx="121.4" cy="98.8" r="0.5"/>
<circle class="st3" cx="121.6" cy="96.5" r="1"/>
<path class="st0" d="M38.1,98.2c-0.9-0.9-8.6-2.8-10-1.1c-0.6,0.7-5.2,4.9-7.3,5.5c-2,0.6-9.5,1.1-10.7,2.4
	c-1.1,1.4-0.2,2.3,1.4,3.6c1.6,1.3,12.1,1.6,13.4,1.1c1.3-0.4,3.6-1.1,6.1-1.1c2.5,0,0.6,1.3,2.6,1.3c1.9,0,5.4,0.5,5.6-1.3
	C39.4,106.8,39,99.1,38.1,98.2z M33.3,101.8c-0.8,0-1.4-0.6-1.4-1.4s0.6-1.4,1.4-1.4c0.8,0,1.4,0.6,1.4,1.4
	C34.7,101.2,34,101.8,33.3,101.8z"/>
<path class="st3" d="M36.7,99.6c-0.9-0.9-8.6-2.8-10-1.1c-0.6,0.7-5.2,4.9-7.3,5.5c-2,0.6-9.5,1.1-10.7,2.4
	c-1.1,1.4-0.2,2.3,1.4,3.6c1.6,1.3,12.1,1.6,13.4,1.1c1.3-0.4,3.6-1.1,6.1-1.1c2.5,0,0.6,1.3,2.6,1.3c1.9,0,5.4,0.5,5.6-1.3
	C38,108.2,37.6,100.5,36.7,99.6z M31.9,103.2c-0.8,0-1.4-0.6-1.4-1.4c0-0.8,0.6-1.4,1.4-1.4s1.4,0.6,1.4,1.4
	C33.3,102.6,32.7,103.2,31.9,103.2z"/>
<path class="st0" d="M180.9,99.9c0.1-0.1-0.2-0.4-0.3-0.6c-0.1-0.1-0.8-0.7-0.9-0.8c-0.1-0.1-0.3-0.3-0.4,0
	c-0.1,0.2-0.3,0.4-0.2,0.7s0.2,0.3,0.2,0.3s0.1-0.1,0.2-0.2c0-0.1,0.2-0.2,0.2,0c0.1,0.1,0.2,0.5,0.1,0.6c-0.2,0.1-0.5,0.2-0.6,0.2
	c-0.1-0.1-0.4-0.7-0.3-0.8c0.1-0.1,0.4-0.9,0.4-1c0-0.2,0.1-0.8,0.3-1.1c0.2-0.3,0.8-1.3,0.8-1.7s-0.1-1.2,0.1-1.4
	c0.1-0.2,0.9-1.3,1-1.4c0.1-0.1,0.7-0.7,0.8-0.7s0.7-0.8,0.8-1c0.1-0.1,0.4-0.4,0.7-0.7c0-0.1,0-0.5,0-0.5c0,0-0.3,0-0.5-0.1
	c-0.2-0.1-1.3-1-1.7-1.3c-0.3-0.3-1.1-1.2-1.2-1.4c-0.1-0.2-0.5-0.1-0.5-0.1c-0.2,0.2-1.6,1.9-1.7,2s-0.6,1.1-0.7,1.3
	c0,0.2-0.6,2.1-0.7,2.4c-0.1,0.4,0,1.1-0.3,1.4c-0.3,0.3-1.1,1.4-1.4,1.8c-0.4,0.4-0.5,0.6-0.6,0.8c-0.1,0.2-0.3,0.5-0.2,0.9
	s0.6,0.6,0.6,0.6c0.2,0.1,1.3,0.9,1.6,1.2c0.3,0.2,1.3,1.2,1.6,1.4c0.3,0.2,0.7,0.6,1.1,0.5s0.9-0.2,1-0.1s0.7-0.2,0.7-0.4
	C180.8,100.4,180.8,100,180.9,99.9z"/>
<path class="st0" d="M181.7,88.2c0.2,0.2,1.3,1.1,1.5,1.2s0.4,0.1,0.4,0.1c0,0,0.1,0.1,0.1,0.1c-0.1-0.7-0.3-1.4-0.4-1.6
	c0-0.1-0.2-0.3-0.3-0.3c0,0,0,0,0,0c0,0,0,0,0,0c0.1,0,0.3,0.1,0.4,0.1c0,0,0.4-0.5,0.4-0.6c0,0,0-0.2-0.1-0.2c0,0,0.5,0.4,0.6,0.5
	c0.1,0.1,0.3-0.1,0.4-0.2s0.1-0.3,0-0.5c-0.1-0.2-1.9-1.5-2.2-1.6c-0.3-0.1-0.4,0-0.4,0.1c0,0.1-0.1,0.2-0.1,0.2
	c0,0.1,0,0.2,0.2,0.3s0.5,0.4,0.6,0.4c-0.1-0.1-0.3-0.2-0.4-0.2c-0.1,0-0.2,0-0.4,0.2c-0.2,0.2-0.3,0.2-0.3,0.3
	c0,0.1,0.1,0.2,0.1,0.2s0-0.1-0.1-0.1c-0.1,0-0.2,0-0.3,0s-0.6,0-0.9,0c0,0,0.1,0.1,0.1,0.1C180.6,86.9,181.5,87.9,181.7,88.2z"/>
<path class="st3" d="M181.9,90.9c-0.3,0.3-0.6,0.6-0.7,0.7c-0.1,0.1-0.7,0.9-0.8,1c-0.1,0-0.7,0.7-0.8,0.7s-0.8,1.1-1,1.4
	s-0.2,1-0.1,1.4c0.1,0.4-0.6,1.4-0.8,1.7c-0.2,0.3-0.2,0.9-0.3,1.1c0,0.2-0.3,0.9-0.4,1c-0.1,0.1,0.2,0.7,0.3,0.8
	c0.1,0.1,0.4-0.1,0.6-0.2s0-0.5-0.1-0.6c-0.1-0.1-0.2-0.1-0.2,0c0,0.1-0.2,0.2-0.2,0.2s-0.2,0-0.2-0.3c0-0.2,0.2-0.5,0.2-0.7
	c0.1-0.2,0.3-0.1,0.4,0c0.1,0.1,0.8,0.7,0.9,0.8c0.1,0.1,0.4,0.5,0.3,0.6s-0.1,0.4-0.2,0.6c-0.1,0.2-0.6,0.4-0.7,0.4
	c-0.1,0-0.6,0-1,0.1c-0.4,0.1-0.8-0.3-1.1-0.5c-0.3-0.2-1.3-1.2-1.6-1.4c-0.3-0.3-1.4-1.1-1.6-1.2c0,0-0.4-0.3-0.6-0.6
	c-0.2-0.3,0.1-0.6,0.2-0.9s0.3-0.4,0.6-0.8c0.4-0.4,1.1-1.5,1.4-1.8c0.3-0.3,0.3-1,0.3-1.4c0.1-0.4,0.6-2.2,0.7-2.4s0.5-1.1,0.7-1.3
	c0.2-0.2,1.5-1.8,1.7-2c0,0,0.4-0.2,0.5,0.1c0.1,0.2,0.9,1.1,1.2,1.4c0.3,0.3,1.5,1.3,1.7,1.3c0.2,0.1,0.4,0.1,0.5,0.1
	C181.9,90.4,181.9,90.9,181.9,90.9z"/>
<path class="st3" d="M181.2,88.4c-0.1,0-0.7-0.4-0.9-0.6c-0.2-0.1-0.3-0.2-0.4-0.4c0,0,0-0.1-0.1-0.1c-0.1,0-0.2,0-0.3,0
	s-0.6,0-0.9,0c0,0,0.1,0.1,0.1,0.1c0,0.1,0.9,1.1,1.1,1.4c0.2,0.2,1.3,1.1,1.5,1.2s0.4,0.1,0.4,0.1c0,0,0.1,0.1,0.1,0.1
	c-0.1-0.7-0.3-1.4-0.4-1.6C181.5,88.6,181.3,88.4,181.2,88.4z"/>
<path class="st3" d="M180.3,85.8c0,0.1-0.1,0.2-0.1,0.2c0,0.1,0,0.2,0.2,0.3s0.5,0.4,0.6,0.4c0.1,0.1,0.9,0.7,0.9,0.7
	c0,0,0.5,0.4,0.6,0.5c0.1,0.1,0.3-0.1,0.4-0.2s0.1-0.3,0-0.5c-0.1-0.2-1.9-1.5-2.2-1.6C180.4,85.6,180.3,85.8,180.3,85.8z"/>
<path class="st3" d="M180,87.4c0.1,0.1,0.2,0.2,0.4,0.4c0.2,0.2,0.8,0.5,0.9,0.6c0.1,0,0.3,0.1,0.4,0.1c0,0,0.4-0.5,0.4-0.6
	c0,0,0-0.2-0.1-0.2c0,0-0.8-0.7-0.9-0.7c-0.1-0.1-0.3-0.2-0.4-0.2c-0.1,0-0.2,0-0.4,0.2c-0.2,0.2-0.3,0.2-0.3,0.3
	C179.9,87.3,180,87.4,180,87.4z"/>
<path class="st0" d="M225.4,66.5h-31.6c-0.9,0-1.7,0.7-1.7,1.7v18.7c0,0.9,0.7,1.7,1.7,1.7h11.7c0,0-0.5,2.6-0.8,3.9
	s0.2,1.5,0.8,1.5c0.5,0,7.6,0,8.1,0c0.6,0,1.1-0.3,0.8-1.5c-0.3-1.3-0.8-3.9-0.8-3.9h11.7c0.9,0,1.7-0.7,1.7-1.7V68.2
	C227,67.3,226.3,66.5,225.4,66.5z"/>
<path class="st0" d="M219.1,97.8h-18.9c-0.1,0-0.2,0.1-0.2,0.2v7.9c0,0.1,0.1,0.2,0.2,0.2h18.9c0.1,0,0.2-0.1,0.2-0.2v-7.9
	C219.2,97.9,219.1,97.8,219.1,97.8z"/>
<path class="st3" d="M223.8,90h-31.6c-0.9,0-1.6-0.7-1.6-1.6V69.7c0-0.9,0.7-1.6,1.6-1.6h31.6c0.9,0,1.6,0.7,1.6,1.6v18.7
	C225.4,89.3,224.7,90,223.8,90z"/>
<rect x="192.4" y="69.8" class="st3" width="31.3" height="18.4"/>
<path class="st3" d="M212.9,93.9c-0.3-1.3-0.8-3.9-0.8-3.9h-3.9h-0.3H204c0,0-0.5,2.6-0.8,3.9c-0.3,1.3,0.2,1.5,0.8,1.5
	c0.5,0,7.6,0,8.1,0C212.7,95.4,213.2,95.1,212.9,93.9z"/>
<path class="st3" d="M217.5,107.6h-18.9c-0.1,0-0.2-0.1-0.2-0.2v-7.9c0-0.1,0.1-0.2,0.2-0.2h18.9c0.1,0,0.2,0.1,0.2,0.2v7.9
	C217.7,107.5,217.6,107.6,217.5,107.6z"/>
<path class="st3" d="M212.2,107h-7.8c-0.1,0-0.2-0.1-0.2-0.2v-0.8c0-0.1,0.1-0.2,0.2-0.2h7.8c0.1,0,0.2,0.1,0.2,0.2v0.8
	C212.3,106.9,212.3,107,212.2,107z"/>
<path class="st3" d="M203.8,107h-1.2c-0.1,0-0.2-0.1-0.2-0.2v-0.8c0-0.1,0.1-0.2,0.2-0.2h1.2c0.1,0,0.2,0.1,0.2,0.2v0.8
	C204,106.9,203.9,107,203.8,107z"/>
<path class="st3" d="M210.7,107h-1.7c-0.1,0-0.2-0.1-0.2-0.2v-0.8c0-0.1,0.1-0.2,0.2-0.2h1.7c0.1,0,0.2,0.1,0.2,0.2v0.8
	C210.9,106.9,210.8,107,210.7,107z"/>
<path class="st3" d="M211.5,105.7h-2.4c-0.1,0-0.2-0.1-0.2-0.2v-0.8c0-0.1,0.1-0.2,0.2-0.2h2.4c0.1,0,0.2,0.1,0.2,0.2v0.8
	C211.7,105.6,211.6,105.7,211.5,105.7z"/>
<path class="st3" d="M217,105.7h-2c-0.1,0-0.2-0.1-0.2-0.2v-0.8c0-0.1,0.1-0.2,0.2-0.2h2c0.1,0,0.2,0.1,0.2,0.2v0.8
	C217.2,105.6,217.1,105.7,217,105.7z"/>
<path class="st3" d="M212,107h-0.7c-0.1,0-0.2-0.1-0.2-0.2v-0.8c0-0.1,0.1-0.2,0.2-0.2h0.7c0.1,0,0.2,0.1,0.2,0.2v0.8
	C212.2,106.9,212.1,107,212,107z"/>
<path class="st3" d="M202.8,105.7H202c-0.1,0-0.2-0.1-0.2-0.2v-0.8c0-0.1,0.1-0.2,0.2-0.2h0.7c0.1,0,0.2,0.1,0.2,0.2v0.8
	C202.9,105.6,202.9,105.7,202.8,105.7z"/>
<path class="st3" d="M204.1,105.7h-0.7c-0.1,0-0.2-0.1-0.2-0.2v-0.8c0-0.1,0.1-0.2,0.2-0.2h0.7c0.1,0,0.2,0.1,0.2,0.2v0.8
	C204.2,105.6,204.1,105.7,204.1,105.7z"/>
<path class="st3" d="M205.3,105.7h-0.7c-0.1,0-0.2-0.1-0.2-0.2v-0.8c0-0.1,0.1-0.2,0.2-0.2h0.7c0.1,0,0.2,0.1,0.2,0.2v0.8
	C205.5,105.6,205.4,105.7,205.3,105.7z"/>
<path class="st3" d="M206.6,105.7h-0.7c-0.1,0-0.2-0.1-0.2-0.2v-0.8c0-0.1,0.1-0.2,0.2-0.2h0.7c0.1,0,0.2,0.1,0.2,0.2v0.8
	C206.8,105.6,206.7,105.7,206.6,105.7z"/>
<path class="st3" d="M207.9,105.7h-0.7c-0.1,0-0.2-0.1-0.2-0.2v-0.8c0-0.1,0.1-0.2,0.2-0.2h0.7c0.1,0,0.2,0.1,0.2,0.2v0.8
	C208.1,105.6,208,105.7,207.9,105.7z"/>
<path class="st3" d="M209.2,105.7h-0.7c-0.1,0-0.2-0.1-0.2-0.2v-0.8c0-0.1,0.1-0.2,0.2-0.2h0.7c0.1,0,0.2,0.1,0.2,0.2v0.8
	C209.4,105.6,209.3,105.7,209.2,105.7z"/>
<path class="st3" d="M210.5,105.7h-0.7c-0.1,0-0.2-0.1-0.2-0.2v-0.8c0-0.1,0.1-0.2,0.2-0.2h0.7c0.1,0,0.2,0.1,0.2,0.2v0.8
	C210.7,105.6,210.6,105.7,210.5,105.7z"/>
<path class="st3" d="M211.8,105.7h-0.7c-0.1,0-0.2-0.1-0.2-0.2v-0.8c0-0.1,0.1-0.2,0.2-0.2h0.7c0.1,0,0.2,0.1,0.2,0.2v0.8
	C212,105.6,211.9,105.7,211.8,105.7z"/>
<path class="st3" d="M213.1,105.7h-0.7c-0.1,0-0.2-0.1-0.2-0.2v-0.8c0-0.1,0.1-0.2,0.2-0.2h0.7c0.1,0,0.2,0.1,0.2,0.2v0.8
	C213.3,105.6,213.2,105.7,213.1,105.7z"/>
<path class="st3" d="M214.4,105.7h-0.7c-0.1,0-0.2-0.1-0.2-0.2v-0.8c0-0.1,0.1-0.2,0.2-0.2h0.7c0.1,0,0.2,0.1,0.2,0.2v0.8
	C214.6,105.6,214.5,105.7,214.4,105.7z"/>
<path class="st3" d="M212.1,104.3h-0.7c-0.1,0-0.2-0.1-0.2-0.2v-0.8c0-0.1,0.1-0.2,0.2-0.2h0.7c0.1,0,0.2,0.1,0.2,0.2v0.8
	C212.2,104.3,212.2,104.3,212.1,104.3z"/>
<path class="st3" d="M210.8,104.3h-1.7c-0.1,0-0.2-0.1-0.2-0.2v-0.8c0-0.1,0.1-0.2,0.2-0.2h1.7c0.1,0,0.2,0.1,0.2,0.2v0.8
	C210.9,104.3,210.9,104.3,210.8,104.3z"/>
<path class="st3" d="M203.4,104.3h-0.7c-0.1,0-0.2-0.1-0.2-0.2v-0.8c0-0.1,0.1-0.2,0.2-0.2h0.7c0.1,0,0.2,0.1,0.2,0.2v0.8
	C203.5,104.3,203.4,104.3,203.4,104.3z"/>
<path class="st3" d="M204.6,104.3h-0.7c-0.1,0-0.2-0.1-0.2-0.2v-0.8c0-0.1,0.1-0.2,0.2-0.2h0.7c0.1,0,0.2,0.1,0.2,0.2v0.8
	C204.8,104.3,204.7,104.3,204.6,104.3z"/>
<path class="st3" d="M205.9,104.3h-0.7c-0.1,0-0.2-0.1-0.2-0.2v-0.8c0-0.1,0.1-0.2,0.2-0.2h0.7c0.1,0,0.2,0.1,0.2,0.2v0.8
	C206.1,104.3,206,104.3,205.9,104.3z"/>
<path class="st3" d="M207.2,104.3h-0.7c-0.1,0-0.2-0.1-0.2-0.2v-0.8c0-0.1,0.1-0.2,0.2-0.2h0.7c0.1,0,0.2,0.1,0.2,0.2v0.8
	C207.4,104.3,207.3,104.3,207.2,104.3z"/>
<path class="st3" d="M208.5,104.3h-0.7c-0.1,0-0.2-0.1-0.2-0.2v-0.8c0-0.1,0.1-0.2,0.2-0.2h0.7c0.1,0,0.2,0.1,0.2,0.2v0.8
	C208.7,104.3,208.6,104.3,208.5,104.3z"/>
<path class="st3" d="M209.8,104.3h-0.7c-0.1,0-0.2-0.1-0.2-0.2v-0.8c0-0.1,0.1-0.2,0.2-0.2h0.7c0.1,0,0.2,0.1,0.2,0.2v0.8
	C210,104.3,209.9,104.3,209.8,104.3z"/>
<path class="st3" d="M211.1,104.3h-0.7c-0.1,0-0.2-0.1-0.2-0.2v-0.8c0-0.1,0.1-0.2,0.2-0.2h0.7c0.1,0,0.2,0.1,0.2,0.2v0.8
	C211.3,104.3,211.2,104.3,211.1,104.3z"/>
<path class="st3" d="M212.4,104.3h-0.7c-0.1,0-0.2-0.1-0.2-0.2v-0.8c0-0.1,0.1-0.2,0.2-0.2h0.7c0.1,0,0.2,0.1,0.2,0.2v0.8
	C212.6,104.3,212.5,104.3,212.4,104.3z"/>
<path class="st3" d="M213.7,104.3H213c-0.1,0-0.2-0.1-0.2-0.2v-0.8c0-0.1,0.1-0.2,0.2-0.2h0.7c0.1,0,0.2,0.1,0.2,0.2v0.8
	C213.9,104.3,213.8,104.3,213.7,104.3z"/>
<path class="st3" d="M215,104.3h-0.7c-0.1,0-0.2-0.1-0.2-0.2v-0.8c0-0.1,0.1-0.2,0.2-0.2h0.7c0.1,0,0.2,0.1,0.2,0.2v0.8
	C215.2,104.3,215.1,104.3,215,104.3z"/>
<path class="st3" d="M211.4,103h-0.7c-0.1,0-0.2-0.1-0.2-0.2v-0.8c0-0.1,0.1-0.2,0.2-0.2h0.7c0.1,0,0.2,0.1,0.2,0.2v0.8
	C211.5,103,211.5,103,211.4,103z"/>
<path class="st3" d="M210.1,103H209c-0.1,0-0.2-0.1-0.2-0.2v-0.8c0-0.1,0.1-0.2,0.2-0.2h1.1c0.1,0,0.2,0.1,0.2,0.2v0.8
	C210.2,103,210.2,103,210.1,103z"/>
<path class="st3" d="M202.7,103h-0.7c-0.1,0-0.2-0.1-0.2-0.2v-0.8c0-0.1,0.1-0.2,0.2-0.2h0.7c0.1,0,0.2,0.1,0.2,0.2v0.8
	C202.8,103,202.8,103,202.7,103z"/>
<path class="st3" d="M204,103h-0.7c-0.1,0-0.2-0.1-0.2-0.2v-0.8c0-0.1,0.1-0.2,0.2-0.2h0.7c0.1,0,0.2,0.1,0.2,0.2v0.8
	C204.1,103,204.1,103,204,103z"/>
<path class="st3" d="M205.3,103h-0.7c-0.1,0-0.2-0.1-0.2-0.2v-0.8c0-0.1,0.1-0.2,0.2-0.2h0.7c0.1,0,0.2,0.1,0.2,0.2v0.8
	C205.4,103,205.4,103,205.3,103z"/>
<path class="st3" d="M206.6,103h-0.7c-0.1,0-0.2-0.1-0.2-0.2v-0.8c0-0.1,0.1-0.2,0.2-0.2h0.7c0.1,0,0.2,0.1,0.2,0.2v0.8
	C206.7,103,206.7,103,206.6,103z"/>
<path class="st3" d="M207.9,103h-0.7c-0.1,0-0.2-0.1-0.2-0.2v-0.8c0-0.1,0.1-0.2,0.2-0.2h0.7c0.1,0,0.2,0.1,0.2,0.2v0.8
	C208,103,208,103,207.9,103z"/>
<path class="st3" d="M209.2,103h-0.7c-0.1,0-0.2-0.1-0.2-0.2v-0.8c0-0.1,0.1-0.2,0.2-0.2h0.7c0.1,0,0.2,0.1,0.2,0.2v0.8
	C209.3,103,209.3,103,209.2,103z"/>
<path class="st3" d="M210.5,103h-0.7c-0.1,0-0.2-0.1-0.2-0.2v-0.8c0-0.1,0.1-0.2,0.2-0.2h0.7c0.1,0,0.2,0.1,0.2,0.2v0.8
	C210.6,103,210.6,103,210.5,103z"/>
<path class="st3" d="M211.8,103H211c-0.1,0-0.2-0.1-0.2-0.2v-0.8c0-0.1,0.1-0.2,0.2-0.2h0.7c0.1,0,0.2,0.1,0.2,0.2v0.8
	C211.9,103,211.9,103,211.8,103z"/>
<path class="st3" d="M213.1,103h-0.7c-0.1,0-0.2-0.1-0.2-0.2v-0.8c0-0.1,0.1-0.2,0.2-0.2h0.7c0.1,0,0.2,0.1,0.2,0.2v0.8
	C213.2,103,213.1,103,213.1,103z"/>
<path class="st3" d="M214.3,103h-0.7c-0.1,0-0.2-0.1-0.2-0.2v-0.8c0-0.1,0.1-0.2,0.2-0.2h0.7c0.1,0,0.2,0.1,0.2,0.2v0.8
	C214.5,103,214.4,103,214.3,103z"/>
<path class="st3" d="M215.6,103h-0.7c-0.1,0-0.2-0.1-0.2-0.2v-0.8c0-0.1,0.1-0.2,0.2-0.2h0.7c0.1,0,0.2,0.1,0.2,0.2v0.8
	C215.8,103,215.7,103,215.6,103z"/>
<path class="st3" d="M216.9,103h-0.7c-0.1,0-0.2-0.1-0.2-0.2v-0.8c0-0.1,0.1-0.2,0.2-0.2h0.7c0.1,0,0.2,0.1,0.2,0.2v0.8
	C217.1,103,217,103,216.9,103z"/>
<path class="st3" d="M209.8,101.7h-0.7c-0.1,0-0.2-0.1-0.2-0.2v-0.8c0-0.1,0.1-0.2,0.2-0.2h0.7c0.1,0,0.2,0.1,0.2,0.2v0.8
	C210,101.7,209.9,101.7,209.8,101.7z"/>
<path class="st3" d="M211.1,101.7h-0.7c-0.1,0-0.2-0.1-0.2-0.2v-0.8c0-0.1,0.1-0.2,0.2-0.2h0.7c0.1,0,0.2,0.1,0.2,0.2v0.8
	C211.3,101.7,211.2,101.7,211.1,101.7z"/>
<path class="st3" d="M212.4,101.7h-0.7c-0.1,0-0.2-0.1-0.2-0.2v-0.8c0-0.1,0.1-0.2,0.2-0.2h0.7c0.1,0,0.2,0.1,0.2,0.2v0.8
	C212.5,101.7,212.5,101.7,212.4,101.7z"/>
<path class="st3" d="M203.7,101.7h-0.7c-0.1,0-0.2-0.1-0.2-0.2v-0.8c0-0.1,0.1-0.2,0.2-0.2h0.7c0.1,0,0.2,0.1,0.2,0.2v0.8
	C203.8,101.7,203.8,101.7,203.7,101.7z"/>
<path class="st3" d="M205,101.7h-0.7c-0.1,0-0.2-0.1-0.2-0.2v-0.8c0-0.1,0.1-0.2,0.2-0.2h0.7c0.1,0,0.2,0.1,0.2,0.2v0.8
	C205.1,101.7,205.1,101.7,205,101.7z"/>
<path class="st3" d="M206.3,101.7h-0.7c-0.1,0-0.2-0.1-0.2-0.2v-0.8c0-0.1,0.1-0.2,0.2-0.2h0.7c0.1,0,0.2,0.1,0.2,0.2v0.8
	C206.4,101.7,206.3,101.7,206.3,101.7z"/>
<path class="st3" d="M207.6,101.7h-0.7c-0.1,0-0.2-0.1-0.2-0.2v-0.8c0-0.1,0.1-0.2,0.2-0.2h0.7c0.1,0,0.2,0.1,0.2,0.2v0.8
	C207.7,101.7,207.6,101.7,207.6,101.7z"/>
<path class="st3" d="M208.9,101.7h-0.7c-0.1,0-0.2-0.1-0.2-0.2v-0.8c0-0.1,0.1-0.2,0.2-0.2h0.7c0.1,0,0.2,0.1,0.2,0.2v0.8
	C209,101.7,208.9,101.7,208.9,101.7z"/>
<path class="st3" d="M210.2,101.7h-0.7c-0.1,0-0.2-0.1-0.2-0.2v-0.8c0-0.1,0.1-0.2,0.2-0.2h0.7c0.1,0,0.2,0.1,0.2,0.2v0.8
	C210.3,101.7,210.2,101.7,210.2,101.7z"/>
<path class="st3" d="M211.4,101.7h-0.7c-0.1,0-0.2-0.1-0.2-0.2v-0.8c0-0.1,0.1-0.2,0.2-0.2h0.7c0.1,0,0.2,0.1,0.2,0.2v0.8
	C211.6,101.7,211.5,101.7,211.4,101.7z"/>
<path class="st3" d="M212.7,101.7H212c-0.1,0-0.2-0.1-0.2-0.2v-0.8c0-0.1,0.1-0.2,0.2-0.2h0.7c0.1,0,0.2,0.1,0.2,0.2v0.8
	C212.9,101.7,212.8,101.7,212.7,101.7z"/>
<path class="st3" d="M214,101.7h-0.7c-0.1,0-0.2-0.1-0.2-0.2v-0.8c0-0.1,0.1-0.2,0.2-0.2h0.7c0.1,0,0.2,0.1,0.2,0.2v0.8
	C214.2,101.7,214.1,101.7,214,101.7z"/>
<path class="st3" d="M215.3,101.7h-0.7c-0.1,0-0.2-0.1-0.2-0.2v-0.8c0-0.1,0.1-0.2,0.2-0.2h0.7c0.1,0,0.2,0.1,0.2,0.2v0.8
	C215.5,101.7,215.4,101.7,215.3,101.7z"/>
<path class="st3" d="M209.8,100.5h-0.8c-0.1,0-0.2-0.1-0.2-0.2v-0.2c0-0.1,0.1-0.2,0.2-0.2h0.8c0.1,0,0.2,0.1,0.2,0.2v0.2
	C210,100.4,209.9,100.5,209.8,100.5z"/>
<path class="st3" d="M211.1,100.5h-0.8c-0.1,0-0.2-0.1-0.2-0.2v-0.2c0-0.1,0.1-0.2,0.2-0.2h0.8c0.1,0,0.2,0.1,0.2,0.2v0.2
	C211.3,100.4,211.2,100.5,211.1,100.5z"/>
<path class="st3" d="M212.5,100.5h-0.8c-0.1,0-0.2-0.1-0.2-0.2v-0.2c0-0.1,0.1-0.2,0.2-0.2h0.8c0.1,0,0.2,0.1,0.2,0.2v0.2
	C212.6,100.4,212.5,100.5,212.5,100.5z"/>
<path class="st3" d="M203.8,100.5H203c-0.1,0-0.2-0.1-0.2-0.2v-0.2c0-0.1,0.1-0.2,0.2-0.2h0.8c0.1,0,0.2,0.1,0.2,0.2v0.2
	C203.9,100.4,203.9,100.5,203.8,100.5z"/>
<path class="st3" d="M205.1,100.5h-0.8c-0.1,0-0.2-0.1-0.2-0.2v-0.2c0-0.1,0.1-0.2,0.2-0.2h0.8c0.1,0,0.2,0.1,0.2,0.2v0.2
	C205.3,100.4,205.2,100.5,205.1,100.5z"/>
<path class="st3" d="M206.4,100.5h-0.8c-0.1,0-0.2-0.1-0.2-0.2v-0.2c0-0.1,0.1-0.2,0.2-0.2h0.8c0.1,0,0.2,0.1,0.2,0.2v0.2
	C206.6,100.4,206.5,100.5,206.4,100.5z"/>
<path class="st3" d="M207.7,100.5H207c-0.1,0-0.2-0.1-0.2-0.2v-0.2c0-0.1,0.1-0.2,0.2-0.2h0.8c0.1,0,0.2,0.1,0.2,0.2v0.2
	C207.9,100.4,207.8,100.5,207.7,100.5z"/>
<path class="st3" d="M209.1,100.5h-0.8c-0.1,0-0.2-0.1-0.2-0.2v-0.2c0-0.1,0.1-0.2,0.2-0.2h0.8c0.1,0,0.2,0.1,0.2,0.2v0.2
	C209.2,100.4,209.2,100.5,209.1,100.5z"/>
<path class="st3" d="M210.4,100.5h-0.8c-0.1,0-0.2-0.1-0.2-0.2v-0.2c0-0.1,0.1-0.2,0.2-0.2h0.8c0.1,0,0.2,0.1,0.2,0.2v0.2
	C210.6,100.4,210.5,100.5,210.4,100.5z"/>
<path class="st3" d="M211.7,100.5H211c-0.1,0-0.2-0.1-0.2-0.2v-0.2c0-0.1,0.1-0.2,0.2-0.2h0.8c0.1,0,0.2,0.1,0.2,0.2v0.2
	C211.9,100.4,211.8,100.5,211.7,100.5z"/>
<path class="st3" d="M213,100.5h-0.8c-0.1,0-0.2-0.1-0.2-0.2v-0.2c0-0.1,0.1-0.2,0.2-0.2h0.8c0.1,0,0.2,0.1,0.2,0.2v0.2
	C213.2,100.4,213.1,100.5,213,100.5z"/>
<path class="st3" d="M214.4,100.5h-0.8c-0.1,0-0.2-0.1-0.2-0.2v-0.2c0-0.1,0.1-0.2,0.2-0.2h0.8c0.1,0,0.2,0.1,0.2,0.2v0.2
	C214.5,100.4,214.4,100.5,214.4,100.5z"/>
<path class="st3" d="M215.7,100.5h-0.8c-0.1,0-0.2-0.1-0.2-0.2v-0.2c0-0.1,0.1-0.2,0.2-0.2h0.8c0.1,0,0.2,0.1,0.2,0.2v0.2
	C215.9,100.4,215.8,100.5,215.7,100.5z"/>
<path class="st3" d="M217,100.5h-0.8c-0.1,0-0.2-0.1-0.2-0.2v-0.2c0-0.1,0.1-0.2,0.2-0.2h0.8c0.1,0,0.2,0.1,0.2,0.2v0.2
	C217.2,100.4,217.1,100.5,217,100.5z"/>
<path class="st3" d="M217,101.7h-1.1c-0.1,0-0.2-0.1-0.2-0.2v-0.8c0-0.1,0.1-0.2,0.2-0.2h1.1c0.1,0,0.2,0.1,0.2,0.2v0.8
	C217.2,101.7,217.1,101.7,217,101.7z"/>
<path class="st3" d="M217,104.3h-1.4c-0.1,0-0.2-0.1-0.2-0.2v-0.8c0-0.1,0.1-0.2,0.2-0.2h1.4c0.1,0,0.2,0.1,0.2,0.2v0.8
	C217.2,104.3,217.1,104.3,217,104.3z"/>
<path class="st3" d="M217,107h-1.2c-0.1,0-0.2-0.1-0.2-0.2v-0.8c0-0.1,0.1-0.2,0.2-0.2h1.2c0.1,0,0.2,0.1,0.2,0.2v0.8
	C217.2,106.9,217.1,107,217,107z"/>
<path class="st3" d="M214,107h-1.2c-0.1,0-0.2-0.1-0.2-0.2v-0.8c0-0.1,0.1-0.2,0.2-0.2h1.2c0.1,0,0.2,0.1,0.2,0.2v0.8
	C214.1,106.9,214,107,214,107z"/>
<path class="st3" d="M215.2,107h-0.7c-0.1,0-0.2-0.1-0.2-0.2v-0.8c0-0.1,0.1-0.2,0.2-0.2h0.7c0.1,0,0.2,0.1,0.2,0.2v0.8
	C215.4,106.9,215.3,107,215.2,107z"/>
<path class="st3" d="M144.3,102.1c0,0-0.4-0.8-0.6-1.2c-0.2-0.4-0.7-1.1-1.2-1.3c-0.5-0.3-3-0.7-3-0.7c-0.3,0-0.3,0.4-0.5,0.6
	c-0.1,0.1,0,0.3,0.1,0.5l-0.1-0.2l-2.4,1.9c0,0,0.3,0.2,0.4,0.4c0.1,0.2,2.5-1.6,2.5-1.6c0.1,0.2,0.3,0.4,0.5,0.6l-0.4-0.4l-2.2,2.1
	c0,0,0.3,0.2,0.4,0.3c0.2,0.1,2.3-1.8,2.3-1.9c0,0,0.1,0.1,0.1,0.1c0.2,0.2,1.4,0.6,1.7,0.7c0.4,0,0.7,0,0.7,0l1,5.9h1.4
	L144.3,102.1z"/>
<path class="st3" d="M136.4,102.1c-0.1,0.2,0,2.1,0,2.1c0,0.2,0.2,0.8,0.4,0.8c0.3,0,0.3,0,0.3-0.4c0-0.4-0.1-2.5-0.1-2.5l-0.4-0.4
	C136.6,101.7,136.5,101.8,136.4,102.1z"/>
<path class="st3" d="M137.3,103.2c-0.1,0.2,0.2,2.1,0.2,2.1c0,0.2,0.2,0.8,0.5,0.8c0.3,0,0.3,0,0.3-0.4c0-0.4-0.4-2.5-0.4-2.5
	l-0.4-0.3C137.5,102.8,137.4,102.9,137.3,103.2z"/>
<path class="st3" d="M141.7,102l-0.8-0.3l-1.6,2.3c0,0,0.3,0.1,0.5,0.3C139.8,104.4,141.7,102,141.7,102z"/>
<path class="st3" d="M139.1,104.4c0,0.2,0.6,2,0.6,2c0.1,0.2,0.4,0.8,0.6,0.7c0.3-0.1,0.3-0.1,0.2-0.5c-0.1-0.4-0.8-2.4-0.8-2.4
	l-0.5-0.3C139.2,104,139.1,104.2,139.1,104.4z"/>
<path class="st0" d="M172.8,108.6L172.8,108.6l-2.1-0.8v0c-0.2,0-0.4-0.1-0.6-0.1c-0.1,0-0.3,0-0.4,0h-2.2c-0.2-0.9-1.2-1.6-2.3-1.6
	c-0.1,0-0.2,0-0.4,0c0-2.7,0-8.8,0-10.4c0.5-0.1,0.9-0.5,1.1-0.9c0.1-0.2,0.2-0.5,0.2-0.8c0,0,0,0,0-0.1c0,0.1,0,0.1,0,0.1
	c0,0,0.1,0,0.1,0c0.3,0,1-0.1,1.6-0.6c0.5-0.5,0.6-1.2,0.6-1.4l-0.2,0c0,0.2-0.1,0.8-0.5,1.3c-0.6,0.6-1.4,0.6-1.5,0.6c0,0,0,0,0,0
	c0-0.1,0-0.1,0-0.2v0c0.2,0,0.9-0.1,1.4-0.8c0.4-0.5,0.3-1.1,0.3-1.3l-0.2,0c0,0.2,0,0.7-0.3,1.2c-0.4,0.6-1.1,0.7-1.2,0.7
	c0,0,0,0.1,0,0.2c0-0.2-0.1-0.3-0.2-0.4l0,0.1c0.1,0,0.7-0.3,0.9-0.9c0.2-0.5,0-1-0.1-1.2l-0.2,0.1c0.1,0.2,0.2,0.6,0.1,1
	c-0.2,0.6-0.7,0.8-0.8,0.8l0,0l0,0c-0.3-0.5-0.9-0.9-1.6-0.9c-0.6,0-1.1,0.3-1.4,0.7c-0.2,0.3-0.4,0.7-0.4,1.1
	c0,0.8,0.6,1.5,1.3,1.7v9.7l-0.4-0.1v0c-0.2,0-0.4-0.1-0.6-0.1c-0.1,0-0.3,0-0.4,0h-6.8c-0.8-2.1-4.9-12.3-4.9-12.3l-2.5,1.4
	c0,0,0,0.2,0.1,0.5l-3.2,12.9l1,0.4l3.1-10.2c0.7,2.5,1.5,5.6,2,7.4c-1.3,0.4-2.3,1.5-2.3,2.8c0,1.4,1.1,2.5,2.5,2.9l1.5,0.6
	c0,0,0,0,0,0c0.5,0.2,1,0.4,1.6,0.4c0.4,0,0.8-0.1,1.2-0.2l0.2,0c0.4,0.9,1.3,1.7,2.4,1.9l1.6,0.6c0,0,0,0,0,0
	c0.5,0.2,1,0.4,1.6,0.4c0.4,0,0.8-0.1,1.2-0.2l9.5-1.5c1.3,0,2.4-1,2.4-2.1C174.9,109.7,174,108.8,172.8,108.6z"/>
<path class="st3" d="M141.3,103.5h1.5l0.9,5.9h-1.4L141.3,103.5z"/>
<path class="st3" d="M138.1,100.3c0,0,2.5,0.4,3,0.7c0.5,0.3,0.9,0.9,1.2,1.3c0.2,0.4,0.6,1.2,0.6,1.2h-1.5c0,0-0.3,0-0.7,0
	c-0.4,0-1.6-0.5-1.7-0.7c-0.2-0.2-0.6-0.6-0.8-0.9c-0.2-0.3-0.7-0.7-0.5-1C137.8,100.7,137.8,100.3,138.1,100.3z"/>
<path class="st3" d="M137.5,101.3l-2.4,1.9c0,0,0.3,0.2,0.4,0.4c0.1,0.2,2.5-1.6,2.5-1.6L137.5,101.3z"/>
<path class="st3" d="M134.9,105.7c0,0.2,0.2,0.8,0.4,0.8c0.3,0,0.3,0,0.3-0.4c0-0.4-0.1-2.5-0.1-2.5l-0.4-0.4c0,0-0.1,0.1-0.2,0.4
	C134.8,103.8,134.9,105.7,134.9,105.7z"/>
<path class="st3" d="M138.2,102.1l-2.2,2.1c0,0,0.3,0.2,0.4,0.3c0.2,0.2,2.3-1.9,2.3-1.9L138.2,102.1z"/>
<path class="st3" d="M136,106.8c0,0.2,0.2,0.8,0.5,0.8c0.3,0,0.3,0,0.3-0.4c0-0.4-0.4-2.5-0.4-2.5l-0.4-0.3c0,0-0.1,0.2-0.2,0.4
	S136,106.8,136,106.8z"/>
<path class="st3" d="M139.3,103.2l-1.6,2.3c0,0,0.3,0.1,0.5,0.3c0.2,0.1,2-2.3,2-2.3L139.3,103.2z"/>
<path class="st3" d="M138.2,107.9c0.1,0.2,0.4,0.8,0.6,0.7c0.2-0.1,0.3-0.1,0.2-0.5c-0.1-0.4-0.8-2.4-0.8-2.4l-0.5-0.3
	c0,0-0.1,0.2-0.1,0.4C137.6,106.1,138.2,107.9,138.2,107.9z"/>
<circle class="st3" cx="160" cy="113.2" r="2.2"/>
<circle class="st3" cx="171.2" cy="112.3" r="1.6"/>
<path class="st3" d="M162.4,109.1l-8.2,0"/>
<path class="st3" d="M162.1,95.3c0,0.1-0.1,0.2-0.1,0.4c0,0.4,0.4,0.8,0.8,0.8c0.3,0,0.5-0.1,0.6-0.3
	C163,95.9,162.5,95.6,162.1,95.3z"/>
<path class="st3" d="M162.9,93.9c-0.6,0-1.1,0.3-1.4,0.7c0.7,1,1.8,1.7,3,1.9c0.1-0.2,0.2-0.5,0.2-0.8
	C164.6,94.7,163.8,93.9,162.9,93.9z"/>
<path class="st3" d="M171,110.1c-0.1,0-0.3,0-0.4,0h-9.8c-0.2,0-0.3,0-0.5,0c-0.2,0-0.3,0-0.5,0c-1.7,0.2-2.9,1.5-2.9,3
	c0,1.7,1.5,3,3.4,3c0.4,0,0.8-0.1,1.2-0.2l9.5-1.5c1.3,0,2.4-1,2.4-2.1C173.5,111.1,172.4,110.1,171,110.1z"/>
<path class="st3" d="M163.3,107.7c0,0.7,0,1.2,0,1.3s-0.1,0.2-0.2,0.3h2.8c-0.2-0.9-1.2-1.6-2.3-1.6
	C163.6,107.7,163.5,107.7,163.3,107.7z"/>
<path class="st3" d="M162.4,97.4V109c0,0.1,0,0.2,0.1,0.3h0.7c0.1-0.1,0.2-0.2,0.2-0.3c0-0.4,0-9.7,0-11.7c0.5-0.1,0.9-0.5,1.1-0.9
	c-1.2-0.2-2.3-0.9-3-1.9c-0.2,0.3-0.4,0.7-0.4,1.1C161.1,96.5,161.6,97.2,162.4,97.4z"/>
<path class="st3" d="M156.9,113.1c0-1.5,1.3-2.8,2.9-3c0.2,0,0.3,0,0.5,0c0.2,0,0.3,0,0.5,0h9.8c0.1,0,0.3,0,0.4,0
	c0.1,0,0.2,0,0.3,0l-2.1-0.8v0c-0.2,0-0.4-0.1-0.6-0.1c-0.1,0-0.3,0-0.4,0h-9.8c-0.2,0-0.3,0-0.5,0c-0.2,0-0.3,0-0.5,0
	c-1.7,0.2-2.9,1.5-2.9,3c0,1.4,1.1,2.6,2.6,2.9l1.6,0.6c0,0,0,0,0,0C157.6,115.3,156.9,114.3,156.9,113.1z"/>
<path class="st3" d="M162,107c-0.2,0-0.4-0.1-0.6-0.1c-0.1,0-0.3,0-0.4,0h-6.8c0.1,0.2,0.1,0.3,0.1,0.3c0.1,0.2,0.1,0.3,0.1,0.4h7.9
	v-0.6L162,107z"/>
<path class="st3" d="M165,109.1h-1.7c0,0.1-0.1,0.2-0.1,0.2h2.4L165,109.1z"/>
<path class="st3" d="M152,110.2C152,110.2,152,110.2,152,110.2C152,110.2,152,110.2,152,110.2z"/>
<path class="st3" d="M152.1,110.5C152.1,110.5,152.1,110.5,152.1,110.5C152.1,110.5,152.1,110.5,152.1,110.5z"/>
<path class="st3" d="M152.1,110.4L152.1,110.4L152.1,110.4z"/>
<path class="st3" d="M152.1,110.4L152.1,110.4L152.1,110.4z"/>
<path class="st3" d="M152,110.2C152,110.3,152,110.3,152,110.2C152,110.3,152,110.3,152,110.2z"/>
<path class="st3" d="M152,110.3C152,110.3,152,110.3,152,110.3L152,110.3z"/>
<path class="st3" d="M152.4,110.9C152.4,110.9,152.4,110.9,152.4,110.9C152.4,110.9,152.4,110.9,152.4,110.9z"/>
<path class="st3" d="M152.1,110.6C152.1,110.6,152.1,110.6,152.1,110.6C152.1,110.6,152.1,110.6,152.1,110.6z"/>
<path class="st3" d="M151.3,108.4c0,0,0-0.1,0-0.1C151.3,108.3,151.3,108.4,151.3,108.4z"/>
<path class="st3" d="M152.1,110.5C152.1,110.5,152.1,110.6,152.1,110.5C152.1,110.6,152.1,110.5,152.1,110.5z"/>
<path class="st3" d="M152.4,110.9C152.4,110.9,152.5,110.9,152.4,110.9C152.5,110.9,152.4,110.9,152.4,110.9z"/>
<path class="st3" d="M151.7,109.5C151.7,109.5,151.7,109.5,151.7,109.5C151.7,109.5,151.7,109.5,151.7,109.5z"/>
<path class="st3" d="M151.7,109.3C151.7,109.3,151.7,109.4,151.7,109.3C151.7,109.4,151.7,109.3,151.7,109.3z"/>
<path class="st3" d="M151.6,109.2C151.6,109.2,151.6,109.2,151.6,109.2C151.6,109.3,151.6,109.2,151.6,109.2z"/>
<path class="st3" d="M151.7,109.4C151.7,109.4,151.7,109.4,151.7,109.4C151.7,109.5,151.7,109.4,151.7,109.4z"/>
<path class="st3" d="M151.6,109.1C151.6,109.1,151.6,109.2,151.6,109.1C151.6,109.2,151.6,109.1,151.6,109.1z"/>
<path class="st3" d="M152,110.1C152,110.2,152,110.2,152,110.1C152,110.2,152,110.1,152,110.1z"/>
<path class="st3" d="M151.3,108.4c0.1,0.2,0.1,0.3,0.2,0.4C151.4,108.7,151.4,108.6,151.3,108.4z"/>
<path class="st3" d="M151.5,108.9c0,0.1,0,0.1,0.1,0.2C151.5,109,151.5,108.9,151.5,108.9z"/>
<path class="st3" d="M162.4,109v-1.3h-7.9c0,0.3,0,0.5-0.1,0.8c-0.1,0.5-0.7,1.3-1.2,2c-0.3,0.5-0.5,0.5-0.7,0.4
	c-0.2-0.1-1.3-0.8-1.6-1.1c-0.2-0.2-0.3-0.5-0.4-0.8c-0.3,0.4-0.5,1-0.5,1.5c0,1.6,1.5,3,3.3,3c0.4,0,0.8-0.1,1.2-0.2l0.2,0
	c-0.1-0.3-0.2-0.7-0.2-1c0-1.5,1.3-2.8,2.9-3c0.2,0,0.3,0,0.5,0c0.2,0,0.3,0,0.5,0h4.1C162.4,109.3,162.4,109.2,162.4,109z"/>
<path class="st3" d="M151.9,109.9C151.9,109.9,151.9,109.9,151.9,109.9C151.9,110,151.9,109.9,151.9,109.9z"/>
<path class="st3" d="M151.9,110C151.9,110,151.9,110,151.9,110C151.9,110,151.9,110,151.9,110z"/>
<path class="st3" d="M151.9,110.1C151.9,110.1,151.9,110.1,151.9,110.1C151.9,110.1,151.9,110.1,151.9,110.1z"/>
<path class="st3" d="M151.9,109.8C151.9,109.9,151.9,109.9,151.9,109.8C151.9,109.9,151.9,109.9,151.9,109.8z"/>
<path class="st3" d="M151.8,109.7C151.8,109.7,151.8,109.7,151.8,109.7C151.8,109.7,151.8,109.7,151.8,109.7z"/>
<path class="st3" d="M151.8,109.8C151.8,109.8,151.9,109.8,151.8,109.8C151.8,109.8,151.8,109.8,151.8,109.8z"/>
<path class="st3" d="M151.8,109.6C151.8,109.6,151.8,109.6,151.8,109.6C151.8,109.6,151.8,109.6,151.8,109.6z"/>
<path class="st3" d="M150,110.6c0-0.6,0.2-1.1,0.5-1.5c-0.1-0.2-0.1-0.4-0.2-0.6c0-0.1-0.2-0.6-0.4-1.5c-1.3,0.4-2.3,1.5-2.3,2.8
	c0,1.4,1.1,2.5,2.5,2.9l1.5,0.6c0,0,0,0,0,0C150.7,112.7,150,111.8,150,110.6z"/>
<path class="st3" d="M151.3,108.3c-0.2-0.4-0.3-0.9-0.5-1.4C150.9,107.4,151.1,107.9,151.3,108.3z"/>
<path class="st3" d="M152.4,110.9C152.4,110.9,152.5,110.9,152.4,110.9C152.5,110.9,152.4,110.9,152.4,110.9z"/>
<path class="st3" d="M152.2,110.6C152.2,110.6,152.2,110.6,152.2,110.6C152.2,110.6,152.2,110.6,152.2,110.6z"/>
<path class="st3" d="M152.1,110.6C152.1,110.6,152.1,110.6,152.1,110.6C152.1,110.6,152.1,110.6,152.1,110.6z"/>
<path class="st3" d="M152.4,110.9C152.4,110.9,152.4,110.9,152.4,110.9C152.4,110.9,152.4,110.9,152.4,110.9z"/>
<path class="st3" d="M152,110.2c-0.1-0.2-0.2-0.4-0.3-0.7C151.8,109.7,151.9,110,152,110.2z"/>
<path class="st3" d="M152,110.2C152,110.2,152,110.2,152,110.2C152,110.2,152,110.2,152,110.2z"/>
<path class="st3" d="M152.1,110.5C152.1,110.5,152.1,110.6,152.1,110.5C152.1,110.6,152.1,110.5,152.1,110.5z"/>
<path class="st3" d="M152,110.2c0,0,0,0.1,0,0.1C152.1,110.3,152,110.3,152,110.2z"/>
<path class="st3" d="M153.7,109.8c-0.2,0.2-0.3,0.5-0.5,0.8c-0.3,0.5-0.5,0.5-0.7,0.4c-0.1-0.1-0.4-0.3-0.8-0.5v0.5l2.8,1
	c0.1-0.6,0.3-1.2,0.7-1.6L153.7,109.8z"/>
<path class="st3" d="M152.1,110.5C152.1,110.5,152.1,110.5,152.1,110.5C152.1,110.5,152.1,110.5,152.1,110.5z"/>
<path class="st3" d="M152.1,110.4C152.1,110.5,152.1,110.5,152.1,110.4C152.1,110.5,152.1,110.4,152.1,110.4z"/>
<path class="st3" d="M152.1,110.4C152.1,110.4,152.1,110.4,152.1,110.4C152.1,110.4,152.1,110.4,152.1,110.4z"/>
<path class="st3" d="M147,96.5c-0.1-0.3-0.2-0.4-0.2-0.4S146.9,96.3,147,96.5L147,96.5z"/>
<path class="st3" d="M152.2,110.6c-0.2-0.3-2.7-7.2-4.2-11.4l-0.1,0.4c1,3.6,2.3,8.5,2.5,8.9c0.2,0.6,0.3,1,0.6,1.3
	c0.3,0.3,1.4,1,1.6,1.1C152.4,110.9,152.3,110.8,152.2,110.6z"/>
<path class="st3" d="M147,96.5l-3.3,12.9l1,0.4l3.2-10.6C147.5,98,147.2,97,147,96.5z"/>
<path class="st3" d="M146.8,96.1c0,0,5.1,14.1,5.3,14.5c0.3,0.4,0.6,0.8,1,0c0.5-0.8,1-1.5,1.2-2c0.1-0.5,0.2-0.7,0-1.3
	s-5.1-12.6-5.1-12.6L146.8,96.1z"/>
<path class="st3" d="M164.8,95.7c0,0-0.1,0-0.1,0c0,0,0-0.2,0-0.2c0,0,0,0,0,0c0.2,0,0.9,0,1.5-0.6c0.5-0.5,0.5-1,0.5-1.3l0.2,0
	c0,0.2-0.1,0.9-0.6,1.4C165.8,95.6,165.1,95.7,164.8,95.7z"/>
<path class="st3" d="M164.6,95.1c0.1,0,0.8-0.1,1.2-0.7c0.3-0.5,0.3-1,0.3-1.2l0.2,0c0,0.2,0,0.8-0.3,1.3c-0.4,0.6-1.1,0.8-1.4,0.8
	C164.6,95.3,164.6,95.1,164.6,95.1z"/>
<path class="st3" d="M164.5,95l-0.1-0.2l0,0c0.1,0,0.6-0.2,0.8-0.8c0.1-0.4,0-0.9-0.1-1l0.2-0.1c0.1,0.2,0.2,0.7,0.1,1.2
	C165.2,94.7,164.6,94.9,164.5,95z"/>
<path class="st3" d="M60.3,114.3c0.1,0,0.4,0,0.5,0c0.1,0,0,0.2,0.3,0.2s0.2-0.2,0.3-0.2c0.1,0,2,0,2.1,0c0.1,0,0.2,0.2,0.4,0.2
	s0.2-0.2,0.3-0.2s0.5,0,0.5-0.1c0-0.1,0.2-0.2,0.3-0.2s0.4-0.2,0.4-0.4c0-0.2,0-0.4,0.1-0.6c0.1-0.3,0.4-0.8,1-1.4
	c0.5-0.5,2.2-0.6,3.1-0.8c1-0.2,2.7,0.3,4.5,0.7c1.8,0.4,3.5-0.1,4.5-0.4s1.5-1.3,1.5-1.6v0c0-0.3-0.5-1.2-1.5-1.6s-2.7-0.8-4.5-0.4
	c-1.8,0.4-3.5,0.9-4.5,0.7c-0.9-0.2-2.6-0.3-3.1-0.8c-0.5-0.5-0.9-1.1-1-1.4c-0.1-0.3,0-0.4-0.1-0.6c0-0.2-0.2-0.4-0.4-0.4
	c-0.2,0-0.3,0-0.3-0.2s-0.4-0.1-0.5-0.1s-0.2-0.2-0.3-0.2c-0.1,0-0.2,0.2-0.4,0.2c-0.1,0-2.1,0-2.1,0c-0.1,0-0.1-0.2-0.3-0.2
	s-0.2,0.2-0.3,0.2c-0.1,0-0.4,0-0.5,0c-0.1,0-0.1,0.1-0.1,0.1s-7.6-0.8-7.9-0.7c-0.3,0.1-0.3,0.3-0.3,0.6c0,0.4,0.1,0.4,0.1,0.6
	c0,0.2,0.1,0.7,0,0.8c-0.1,0.1-0.1,0.2-0.1,0.3c0,0.1,0,0.2-0.1,0.3c0,0.1,0,0.2,0,0.2c0,0.1,0.1,0.3,0.1,0.3c0,0,0.2,0.1,0.3,0.1
	c0.1,0-0.2,0.1-0.2,0.2c0,0-0.1,0.2-0.1,0.3s-0.3,0.7-0.3,0.9c0,0.1,0,0.5,0,0.6c0,0,0,0.7,0,0.9c-0.1,0.3-0.2,0.4-0.1,0.5
	c0.1,0,0.4,0,0.4,0.1c0,0.1-0.2,0.1-0.3,0.2c0,0.1,0,0.5,0.1,0.6c0,0.1,0,0.2,0,0.4c0,0.2,0.1,0.4,0,0.4c-0.1,0.1-0.2,0.2-0.2,0.3
	c0,0.1,0.2-0.1,0.4,0c0.2,0.1,0.2,0.8,0.2,1c0,0.2-0.1,0.3-0.1,0.6c0,0.4,0,0.6,0.3,0.6c0.3,0.1,7.9-0.7,7.9-0.7
	S60.1,114.3,60.3,114.3z M77.4,109.4c0-0.3,0.3-0.6,0.6-0.6c0.3,0,0.6,0.3,0.6,0.6c0,0.3-0.3,0.6-0.6,0.6
	C77.7,110,77.4,109.7,77.4,109.4z"/>
<path class="st3" d="M65.6,94.9V91h0.6v0.2h0.2V91H67v0.5h0.2V91h0.6v0.2H68V91h0.5v0.7h0.2V91h0.6v0.2h0.2V91H70v0.5h0.2V91h0.5
	v0.2H71V91h0.6v1.2h0.2V91h0.5v0.2h0.2V91h0.6v0.5h0.2V91h0.5v0.2h0.2V91h0.5v0.7h0.2V91h0.6v0.2h0.2V91h0.5v0.5h0.2V91H77v0.2h0.2
	V91h0.5v2H78v-2h0.5v0.2h0.2V91h0.6v0.5h0.2V91H80v0.2h0.2V91h0.6v0.7h0.2V91h0.5v0.2h0.2V91h0.5v0.5h0.2V91h0.6v0.2h0.2V91h0.5v1.2
	h0.2V91h0.6v0.2h0.2V91h0.5v0.5h0.2V91h0.5v0.2h0.2V91H87v0.7h0.2V91h0.5v0.2H88V91h0.6v0.5h0.2V91h0.5v0.2h0.2V91H92v2.6h-0.2v0.2
	H92v0.5h-0.5v0.2H92v0.6h-0.2v0.2H92V96h-0.7v0.2H92v0.5h-0.2v0.2H92v0.6h-0.5v0.2H92v0.5h-0.2v0.2H92V99h-1.2v0.2H92v0.5h-0.2v0.2
	H92v0.5h-0.5v0.2H92v0.6h-0.2v0.2H92v0.5h-0.7v0.2H92v0.6h-0.2v0.2H92v0.5h-0.5v0.2H92v0.5h-0.2v0.2H92v0.7h-3.9V94.9H65.6z"/>
<path class="st0" d="M89.6,93.4v10.4h3.9v-0.6h-0.2v-0.2h0.2v-0.6H93v-0.2h0.5v-0.5h-0.2v-0.2h0.2v-0.6h-0.7v-0.2h0.7V100h-0.2v-0.2
	h0.2v-0.5H93v-0.2h0.5v-0.6h-0.2v-0.2h0.2v-0.5h-1.2v-0.2h1.2V97h-0.2v-0.2h0.2v-0.5H93V96h0.5v-0.5h-0.2v-0.2h0.2v-0.5h-0.7v-0.2
	h0.7v-0.5h-0.2v-0.2h0.2v-0.3v-0.3H93v-0.2h0.5v-0.5h-0.2v-0.2h0.2v-2.6H91v0.2h-0.2v-0.2h-0.5V90H90v-0.5h-0.4h-0.2v0.2h-0.2v-0.2
	h-0.5v0.7h-0.2v-0.7h-0.6v0.2h-0.2v-0.2h-0.5V90H87v-0.5h-0.5v0.2h-0.2v-0.2h-0.5v1.2h-0.2v-1.2h-0.5v0.2h-0.2v-0.2h-0.6V90h-0.2
	v-0.5h-0.5v0.2h-0.2v-0.2h-0.5v0.7h-0.2v-0.7h-0.5v0.2h-0.2v-0.2H81V90h-0.2v-0.5h-0.6v0.2H80v-0.2h-0.5v2h-0.2v-2h-0.6v0.2h-0.2
	v-0.2h-0.5V90h-0.2v-0.5h-0.5v0.2H77v-0.2h-0.6v0.7h-0.2v-0.7h-0.5v0.2h-0.2v-0.2h-0.6V90h-0.2v-0.5h-0.5v0.2h-0.2v-0.2h-0.5v1.2
	h-0.2v-1.2h-0.6v0.2h-0.2v-0.2h-0.5V90h-0.2v-0.5H71v0.2h-0.2v-0.2h-0.5v0.7H70v-0.7h-0.5v0.2h-0.2v-0.2h-0.6V90h-0.2v-0.5h-0.5v0.2
	h-0.2v-0.2h-0.7v3.9H89.6z"/>
<path class="st0" d="M147.6,70c-0.3-0.1-0.6,0.4-0.3,0.8l-6.1,3.8c-0.4-0.4-0.7-0.8-1.2-1.1l3.7-2.3c0,0,0,0.1,0.3,0.3
	c0.2,0.2,0.8,0,0.6-0.3s-0.8-1.3-1.1-1.3c-0.3-0.1-0.6,0.4-0.3,0.8l-3.8,2.4c-0.5-0.3-1.1-0.6-1.7-0.9c-0.2-0.1-0.3-0.2-0.5-0.3
	l0,0.1c-1-0.3-2-0.5-3.1-0.6c-0.1,0-0.2,0-0.2-0.1v0.1c-0.1,0-0.2,0-0.4,0c-0.3,0-0.5,0-0.8,0c0,0-0.1,0-0.1-0.1v0.1
	c0,0-0.1,0-0.1,0c0,0,0,0-0.1-0.1v0.1c-4.8,0.6-8.5,4.3-8.4,8.8c0,0.7,0.1,1.4,0.3,2l-2.6,1.6c0,0-0.9,0.6-1,0.9s0,0.3,0.2,0.2
	c0.2-0.1,1.1-0.5,1.1-0.5l2.6-1.6c0.1,0.2,0.2,0.4,0.2,0.6c0,0,0,0,0,0h0c0.2,0.3,0.3,0.6,0.5,0.9c-0.2,0.2-0.5,0.4-0.6,0.5
	c-0.2,0.2,0,0.3,0.2,0.2c0.1,0,0.4-0.2,0.6-0.3c1.7,2.4,4.8,4,8.2,4c5.3-0.1,9.5-4.1,9.5-8.9c0-0.4,0-0.9-0.1-1.3
	c-0.1-0.4-0.2-0.8-0.3-1.1c-0.3-0.8-0.7-1.6-1.3-2.3l6.1-3.8c0,0,0,0.1,0.3,0.3c0.2,0.2,0.8,0,0.6-0.3C148.6,71,147.9,70.1,147.6,70
	z"/>
<path class="st3" d="M130.1,82.1c-0.8,0-1.3-0.1-1.8,0c-0.4,0-0.8,0.1-1.3,0.2"/>
<path class="st3" d="M135.3,82c-0.6,0-1.8,0.2-2.9,0.1c-0.4,0-0.8,0-1.1,0"/>
<path class="st3" d="M129.7,83.1c0.3,0,0.6,0,1,0c1,0,2.8,0,4.6-0.2"/>
<path class="st3" d="M123.5,85.1c0.5-0.6,1.4-1.4,2.7-1.8c0.8-0.3,1.6-0.3,2.5-0.2"/>
<path class="st3" d="M128.7,83.8c0.6,0.1,1.2,0.2,2,0.2c1.1,0.1,2.6,0.1,4.6-0.3"/>
<path class="st3" d="M123.8,85.5c0.4-0.5,1.2-1.1,2.2-1.5c0.6-0.2,1.1-0.3,1.6-0.3"/>
<path class="st3" d="M127.3,84.7c1.1,0,2.1,0.3,3.4,0.4c1,0.1,2.5,0,4.4-0.6"/>
<path class="st3" d="M126.3,74.9c0.9-0.4,2.2-0.7,3.7-0.8c0.7,0,1.4,0,2,0"/>
<path class="st3" d="M125.5,75.7c0.9-0.3,2.2-0.7,3.8-0.8c1.3-0.1,2.3,0,3.2,0.1"/>
<path class="st3" d="M124.7,76.4c1.2-0.3,2.7-0.7,4.5-0.8c1.5-0.1,2.8,0,3.9,0.2"/>
<path class="st3" d="M124.3,77.1c1.3-0.3,2.9-0.6,4.7-0.7c1.7-0.1,3.2,0,4.5,0.1"/>
<path class="st3" d="M123.7,77.8c1.5-0.3,3.2-0.5,5-0.7c1.8-0.1,3.5-0.1,5,0"/>
<path class="st3" d="M123.2,79.3c0.3,0.1,0.8,0.2,1.2,0.5c0.6,0.4,1,0.8,1.3,1.1"/>
<path class="st3" d="M123.5,78.3c0.2,0,1.1,0,1.9,0.7c0.7,0.6,0.9,1.3,0.9,1.6"/>
<path class="st3" d="M125,77.7c0.2,0,0.8,0.1,1.3,0.6c0.8,0.7,0.7,2.2,0.8,1.9"/>
<path class="st3" d="M126.7,77.4c0.2,0.2,0.5,0.4,0.8,0.8c0.4,0.7,0.5,1.7,0.5,2.1"/>
<path class="st3" d="M128.3,77.3c0.2,0.2,0.4,0.5,0.5,0.9c0.3,0.8,0.1,1.4,0,1.7"/>
<path class="st3" d="M130.8,73.1v1"/>
<path class="st3" d="M129.9,73.2l0.1,0.9"/>
<path class="st3" d="M129.2,73.5v0.5"/>
<path class="st3" d="M128.2,73.8l0.5,0.4"/>
<path class="st3" d="M134,84.9c0.1,0,0.4,0,0.6,0.2c0.2,0.1,0.3,0.3,0.4,0.4"/>
<path class="st3" d="M132.7,85.1c0.4,0.1,0.7,0.3,1.1,0.4c0.4,0.2,0.7,0.3,1,0.5"/>
<path class="st3" d="M131.3,85.2c0.4,0,1.4,0.1,2.3,0.7c0.4,0.3,0.8,0.6,1,0.9"/>
<path class="st3" d="M129.3,85c0.8,0.3,1.7,0.7,2.7,1.3c0.8,0.5,1.5,1.1,2.1,1.6"/>
<path class="st3" d="M127.8,84.8c0.9,0.4,2,1.1,3.1,1.9c1.1,0.8,1.9,1.6,2.5,2.3"/>
<path class="st3" d="M126.5,85.1c0.5,0.3,1.2,0.8,2,1.4c0.6,0.5,0.9,0.8,1.8,1.6c0.6,0.5,1.4,1.2,2.4,2.1"/>
<path class="st3" d="M125.6,87.9c0-0.2,0.3-1,1-1.4c0.5-0.3,0.9-0.4,1.2-0.4"/>
<path class="st3" d="M124.8,86.8c0.2-0.2,0.5-0.5,0.9-0.8c0.5-0.3,0.9-0.5,1.3-0.5"/>
<path class="st3" d="M126.3,88.4c0.1-0.3,0.4-0.8,1-1.3c0.4-0.3,0.8-0.5,1.1-0.6"/>
<path class="st3" d="M127.3,89c0-0.2,0.2-0.8,0.7-1.2c0.5-0.5,1.1-0.6,1.3-0.6"/>
<path class="st3" d="M128.2,89.5c0.1-0.2,0.2-0.6,0.6-0.9c0.5-0.5,1.1-0.6,1.3-0.6"/>
<path class="st3" d="M129.4,89.9c0-0.1,0.1-0.6,0.4-0.9c0.3-0.3,0.7-0.4,0.8-0.4"/>
<path class="st3" d="M130.3,90.3c0.3-0.4,0.7-0.8,1-1.1"/>
<path class="st3" d="M131.4,90.3c0.2-0.2,0.4-0.4,0.5-0.7"/>
<path class="st3" d="M133.9,77.1l1-0.6c-0.2-0.4-0.4-0.7-0.7-1.1c-0.9-1.3-2-2-2.8-2.4c-0.1,0-0.2,0-0.2,0c0.4,0.5,1,1.2,1.5,2.1
	C133.1,75.7,133.5,76.3,133.9,77.1z"/>
<path class="st3" d="M134.2,74.3c0.2,0.2,0.7,0.7,1.3,1.9l0.8-0.5c-0.3-0.5-0.8-1.1-1.5-1.6c-0.8-0.6-1.5-0.9-2.1-1.1
	c-0.2,0-0.3,0-0.5,0l0,0C132.8,73.2,133.5,73.6,134.2,74.3z"/>
<path class="st3" d="M136.7,75.4l0.5-0.3c-1.4-1.3-3-1.8-3.9-2C134.2,73.4,135.6,74.1,136.7,75.4z"/>
<path class="st3" d="M138,74.6c-0.5-0.3-1.1-0.6-1.7-0.9c0.4,0.3,0.9,0.6,1.4,1L138,74.6z"/>
<path class="st3" d="M135.6,78.7c-0.1-0.2-0.1-0.4-0.2-0.7c-0.1-0.3-0.2-0.5-0.3-0.8l-0.9,0.6c0.2,0.4,0.4,0.9,0.5,1.5L135.6,78.7z"
	/>
<path class="st3" d="M136.3,78.3l1-0.6c-0.1-0.3-0.3-0.7-0.4-1c-0.1-0.1-0.1-0.3-0.2-0.4l-0.9,0.6c0.1,0.2,0.2,0.5,0.3,0.8
	C136.1,77.8,136.2,78,136.3,78.3z"/>
<path class="st3" d="M137.9,77.3l0.7-0.4c-0.2-0.3-0.4-0.6-0.7-1c-0.1-0.1-0.1-0.2-0.2-0.2l-0.6,0.4c0.1,0.2,0.2,0.3,0.4,0.5
	C137.7,76.7,137.8,77,137.9,77.3z"/>
<path class="st3" d="M139.3,76.4l0.5-0.3c-0.4-0.4-0.7-0.8-1.2-1.1l-0.3,0.2c0.1,0.1,0.2,0.2,0.4,0.4
	C138.8,75.8,139.1,76.1,139.3,76.4z"/>
<path class="st3" d="M129.3,80l8.7-5.4c-1.6-1.1-3.6-1.7-5.8-1.6c-5.3,0.1-9.5,4.1-9.5,8.9c0,0.2,0,0.4,0,0.7
	C125.3,80.8,127.6,80.2,129.3,80z"/>
<path class="st3" d="M122.9,83.1c0,0.2,0.1,0.5,0.2,0.7l4.7-2.9C126.3,81.3,124.7,81.9,122.9,83.1z"/>
<path class="st3" d="M133.6,79.9l6.2-3.8c-0.4-0.4-0.7-0.8-1.2-1.1l-7.9,4.8C131.7,79.8,132.6,79.9,133.6,79.9z"/>
<path class="st3" d="M130.7,80.6c-0.4,0-0.8,0-1.2,0l-6.3,3.9c0.2,0.5,0.4,1,0.7,1.5c0.2-0.2,0.5-0.4,0.5-0.4l7.9-4.9
	C131.8,80.6,131.3,80.6,130.7,80.6z"/>
<path class="st3" d="M127.7,80.9l-7.3,4.5c0,0-0.9,0.6-1,0.9c-0.2,0.2,0,0.3,0.2,0.2c0.2-0.1,1.1-0.5,1.1-0.5l8.9-5.4
	C129,80.7,128.4,80.8,127.7,80.9z"/>
<path class="st3" d="M143.2,72.7c-0.2-0.3-0.8-1.3-1.1-1.3s-0.6,0.4-0.3,0.8L129.3,80c0.2,0,0.3,0,0.5-0.1c0.4,0,0.7,0,1-0.1
	l11.6-7.1c0,0,0,0.1,0.3,0.3C142.9,73.3,143.4,73.1,143.2,72.7z"/>
<path class="st3" d="M132.4,80.7l-7.9,4.9c0,0-0.9,0.6-1,0.9c-0.2,0.2,0,0.3,0.2,0.2c0.2-0.1,1.1-0.5,1.1-0.5l8.7-5.4
	C133.1,80.8,132.7,80.7,132.4,80.7z"/>
<path class="st3" d="M147.3,72.9c-0.2-0.3-0.8-1.3-1.1-1.3c-0.3-0.1-0.6,0.4-0.3,0.8l-12.3,7.6c0.4,0,0.8,0,1.3,0l11.5-7.1
	c0,0,0,0.1,0.3,0.3C146.9,73.4,147.4,73.2,147.3,72.9z"/>
<path class="st3" d="M140.3,76.7l-5.4,3.3c1.1,0,2.3-0.1,3.7-0.3c1.1-0.2,1.9-0.3,2.5-0.5l0.3-0.2l0.3,1.1l-0.6,0.2
	c-0.5,0.1-1.3,0.3-2.2,0.5c-2.3,0.3-4,0.2-5.5,0l-8.7,5.4c0,0-0.2,0.1-0.4,0.2c1.7,2.4,4.8,4,8.2,4c5.3-0.1,9.5-4.1,9.5-8.9
	C141.9,79.7,141.3,78,140.3,76.7z"/>
<path class="st3" d="M135.9,79.9c0-0.2-0.1-0.4-0.1-0.5l-0.9,0.6v0C135.3,80,135.6,80,135.9,79.9z"/>
<path class="st3" d="M135.1,81c0.2,1.3,0.5,3.9-0.8,6.7c-0.5,1.2-1.2,2.1-1.7,2.6l0,0.1c0.3,0,0.6,0,0.9-0.1v-0.1
	c0.4-0.4,0.8-1,1.3-1.8c1.2-2.1,1.3-4,1.3-5.2c0-0.5,0-1.2-0.1-2.2C135.8,81,135.5,81,135.1,81z"/>
<path class="st3" d="M122.8,83.1c3.3-2.2,6.1-2.6,7.9-2.6c2.3,0,4.5,0.8,8.2,0.3c1-0.2,1.7-0.3,2.2-0.5l0.6-0.2l-0.3-1.1l-0.3,0.2
	c-0.6,0.1-1.5,0.3-2.5,0.5c-4.2,0.6-6.2,0-8.9,0.2c-1.7,0.2-4.2,0.7-7,2.6L122.8,83.1z"/>
<path class="st3" d="M122.8,83.1c3.3-2.2,6.1-2.6,7.9-2.6c2.3,0,4.5,0.8,8.2,0.3c1-0.2,1.7-0.3,2.2-0.5l0.6-0.2l-0.3-1.1l-0.3,0.2
	c-0.6,0.1-1.5,0.3-2.5,0.5c-4.2,0.6-6.2,0-8.9,0.2c-1.7,0.2-4.2,0.7-7,2.6L122.8,83.1z"/>
<path class="st3" d="M137.9,79.8c-0.1-0.4-0.2-0.9-0.3-1.4l-1,0.6c0.1,0.3,0.2,0.6,0.2,0.9C137.1,79.9,137.5,79.8,137.9,79.8z"/>
<path class="st3" d="M138,81c-0.4,0-0.7,0.1-1.1,0.1c0.1,0.7,0.1,1.6,0.1,2.5c-0.1,1.2-0.2,2.6-0.9,4.1c-0.6,1.2-1.5,2.1-2,2.6v0
	c0.3,0,0.7-0.1,1-0.2c0.4-0.3,1.1-0.9,1.7-1.7c1.5-2.2,1.4-4.7,1.3-6.6C138,81.5,138,81.2,138,81z"/>
<path class="st3" d="M138.7,79.7c0.4,0,0.7-0.1,1-0.2c-0.1-0.4-0.2-0.7-0.4-1c-0.1-0.3-0.2-0.7-0.4-1l-0.8,0.5
	c0.1,0.3,0.2,0.6,0.3,0.8C138.5,79,138.6,79.3,138.7,79.7z"/>
<path class="st3" d="M139,80.8L139,80.8c0.2,1.4,0.3,3.3-0.5,5.3c-0.3,0.8-0.9,2.2-2.2,3.4c0,0,0,0,0,0c0.5-0.2,1-0.4,1.4-0.7l0,0
	c1.1-1,1.6-1.9,1.9-2.5c0.9-2,0.8-4.1,0.4-5.7C139.7,80.7,139.4,80.8,139,80.8z"/>
<path class="st3" d="M140.3,76.7l-0.5,0.3c0.2,0.3,0.4,0.6,0.6,1c0.2,0.3,0.4,0.7,0.6,1.3c0.1,0,0.2,0,0.2-0.1l0.3-0.2l0.3,1.1
	l-0.5,0.2c0.1,0.3,0.1,0.6,0.2,0.9c0.3,2.5-0.8,4.6-1.3,5.4l0.1,0.1c1.2-1.5,1.9-3.3,1.8-5.3C141.9,79.7,141.3,78,140.3,76.7z"/>
<path class="st0" d="M168.4,75v-0.3h-1v-0.1h-0.1v-1H167v1h-0.7v-1h-0.3v1h-0.7v-1h-0.3v1h-0.6v-1h-0.3v1h-0.7v-1h-0.3v1h-0.7v-1
	h-0.3v1h-0.7v-1h-0.3v1h-0.6v-1h-0.3v1h-0.6v-1h-0.3v1h-0.7v-1h-0.3v1h-0.7v-1h-0.3v1h-0.1v0.1h-1V75h1v0.7h-1V76h1v0.7h-1v0.3h1
	v0.7h-1v0.3h1v0.6h-1v0.3h1v0.7h-1v0.3h1v0.7h-1v0.3h1v0.7h-1v0.3h1v0.7h-1v0.3h1v0.6h-1v0.3h1v0.7h-1v0.3h1v0.1h0.1v1h0.3v-1h0.7v1
	h0.3v-1h0.7v1h0.3v-1h0.6v1h0.3v-1h0.6v1h0.3v-1h0.7v1h0.3v-1h0.7v1h0.3v-1h0.7v1h0.3v-1h0.6v1h0.3v-1h0.7v1h0.3v-1h0.7v1h0.3v-1
	h0.1v-0.1h1v-0.3h-1v-0.7h1v-0.3h-1v-0.6h1v-0.3h-1v-0.7h1v-0.3h-1v-0.7h1v-0.3h-1v-0.7h1v-0.3h-1v-0.7h1v-0.3h-1v-0.6h1v-0.3h-1
	v-0.7h1v-0.3h-1V76h1v-0.3h-1V75H168.4z"/>
<path class="st3" d="M166.9,76.6v-0.3h-1v-0.1h-0.1v-1h-0.3v1h-0.7v-1h-0.3v1h-0.7v-1h-0.3v1h-0.6v-1h-0.3v1h-0.7v-1h-0.3v1H161v-1
	h-0.3v1h-0.7v-1h-0.3v1h-0.6v-1h-0.3v1h-0.6v-1h-0.3v1h-0.7v-1H157v1h-0.7v-1H156v1h-0.1v0.1h-1v0.3h1v0.7h-1v0.3h1v0.7h-1v0.3h1
	v0.7h-1v0.3h1v0.6h-1v0.3h1V81h-1v0.3h1V82h-1v0.3h1v0.7h-1v0.3h1v0.7h-1v0.3h1v0.6h-1v0.3h1v0.7h-1V86h1v0.1h0.1v1h0.3v-1h0.7v1
	h0.3v-1h0.7v1h0.3v-1h0.6v1h0.3v-1h0.6v1h0.3v-1h0.7v1h0.3v-1h0.7v1h0.3v-1h0.7v1h0.3v-1h0.6v1h0.3v-1h0.7v1h0.3v-1h0.7v1h0.3v-1
	h0.1V86h1v-0.3h-1v-0.7h1v-0.3h-1v-0.6h1v-0.3h-1v-0.7h1v-0.3h-1v-0.7h1V82h-1v-0.7h1V81h-1v-0.7h1v-0.3h-1v-0.6h1v-0.3h-1v-0.7h1
	v-0.3h-1v-0.7h1v-0.3h-1v-0.7H166.9z"/>
<polyline class="st4" points="-44.1,53.2 36.5,53.2 40.6,57.3 53.8,57.3 "/>
<circle class="st4" cx="53.8" cy="57.3" r="0.8"/>
<path class="st4" d="M53.8,58.2c-0.5,0-0.9-0.4-0.9-0.9c0-0.5,0.4-0.9,0.9-0.9c0.5,0,0.9,0.4,0.9,0.9C54.7,57.8,54.3,58.2,53.8,58.2
	C53.3,58.2,54.3,58.2,53.8,58.2z M53.8,56.6c-0.4,0-0.7,0.3-0.7,0.7c0,0.4,0.3,0.7,0.7,0.7c0.4,0,0.7-0.3,0.7-0.7
	C54.5,57,54.2,56.6,53.8,56.6C53.4,56.6,54.2,56.6,53.8,56.6z"/>
<polyline class="st4" points="-44.1,55 35.6,55 39.7,59.1 58.1,59.1 "/>
<circle class="st4" cx="58.1" cy="59.1" r="0.8"/>
<path class="st4" d="M58.1,60.1c-0.5,0-0.9-0.4-0.9-0.9c0-0.5,0.4-0.9,0.9-0.9s0.9,0.4,0.9,0.9C59,59.7,58.6,60.1,58.1,60.1
	S58.6,60.1,58.1,60.1z M58.1,58.4c-0.4,0-0.7,0.3-0.7,0.7s0.3,0.7,0.7,0.7c0.4,0,0.7-0.3,0.7-0.7S58.5,58.4,58.1,58.4
	C57.7,58.4,58.5,58.4,58.1,58.4z"/>
<polyline class="st4" points="-44.1,59.3 33.4,59.3 37.5,63.4 58.1,63.4 "/>
<circle class="st4" cx="58.1" cy="63.4" r="0.8"/>
<path class="st4" d="M58.1,64.3c-0.5,0-0.9-0.4-0.9-0.9c0-0.5,0.4-0.9,0.9-0.9s0.9,0.4,0.9,0.9C59,63.9,58.6,64.3,58.1,64.3
	S58.6,64.3,58.1,64.3z M58.1,62.7c-0.4,0-0.7,0.3-0.7,0.7s0.3,0.7,0.7,0.7c0.4,0,0.7-0.3,0.7-0.7S58.5,62.7,58.1,62.7
	C57.7,62.7,58.5,62.7,58.1,62.7z"/>
<polyline class="st4" points="-44.1,72.1 32.4,72.1 36.5,68 62.2,68 64.4,65.8 96.5,65.8 108.2,77.5 108.2,92.5 109.7,94 "/>
<ellipse transform="matrix(0.7165 -0.6975 0.6975 0.7165 -34.4843 103.186)" class="st4" cx="109.7" cy="94" rx="0.8" ry="0.8"/>
<path class="st4" d="M109.1,94.7c-0.4-0.4-0.4-0.9,0-1.3c0.4-0.4,0.9-0.4,1.3,0c0.4,0.4,0.4,0.9,0,1.3C110,95,109.4,95,109.1,94.7
	C108.7,94.3,109.4,95,109.1,94.7z M110.2,93.5c-0.3-0.3-0.7-0.3-1,0c-0.3,0.3-0.3,0.7,0,1c0.3,0.3,0.7,0.3,1,0
	C110.5,94.2,110.5,93.8,110.2,93.5C109.9,93.3,110.5,93.8,110.2,93.5z"/>
<polyline class="st4" points="-44.1,74.2 33.3,74.2 37.4,70.1 63.2,70.1 65.4,67.9 95.4,67.9 105,77.5 105,80.9 "/>
<circle class="st4" cx="105" cy="80.9" r="0.8"/>
<path class="st4" d="M104.1,80.9c0-0.5,0.4-0.9,0.9-0.9s0.9,0.4,0.9,0.9c0,0.5-0.4,0.9-0.9,0.9S104.1,81.4,104.1,80.9
	C104.1,80.4,104.1,81.4,104.1,80.9z M105.7,80.9c0-0.4-0.3-0.7-0.7-0.7s-0.7,0.3-0.7,0.7c0,0.4,0.3,0.7,0.7,0.7
	S105.7,81.3,105.7,80.9C105.7,80.5,105.7,81.3,105.7,80.9z"/>
<polyline class="st4" points="-44.1,61.4 32.4,61.4 36.5,65.6 61.1,65.6 63.2,63.5 97.5,63.5 110.4,76.4 110.4,90.6 "/>
<circle class="st4" cx="110.4" cy="90.5" r="0.8"/>
<path class="st4" d="M109.5,90.5c0-0.5,0.4-0.9,0.9-0.9s0.9,0.4,0.9,0.9c0,0.5-0.4,0.9-0.9,0.9S109.5,91,109.5,90.5
	C109.5,90,109.5,91,109.5,90.5z M111.1,90.5c0-0.4-0.3-0.7-0.7-0.7s-0.7,0.3-0.7,0.7c0,0.4,0.3,0.7,0.7,0.7S111.1,90.9,111.1,90.5
	C111.1,90.1,111.1,90.9,111.1,90.5z"/>
<polyline class="st4" points="-44.1,57.2 34.5,57.2 38.6,61.3 98.6,61.3 112.6,75.3 112.6,97 "/>
<circle class="st4" cx="112.6" cy="97" r="0.8"/>
<path class="st4" d="M111.7,97c0-0.5,0.4-0.9,0.9-0.9s0.9,0.4,0.9,0.9c0,0.5-0.4,0.9-0.9,0.9S111.7,97.4,111.7,97
	C111.7,96.4,111.7,97.4,111.7,97z M113.3,97c0-0.4-0.3-0.7-0.7-0.7s-0.7,0.3-0.7,0.7c0,0.4,0.3,0.7,0.7,0.7S113.3,97.3,113.3,97
	C113.3,96.6,113.3,97.3,113.3,97z"/>
<polyline class="st4" points="-44.1,76.4 36.5,76.4 40.6,80.6 53.8,80.6 "/>
<circle class="st4" cx="53.8" cy="80.6" r="0.8"/>
<path class="st4" d="M53.8,81.5c-0.5,0-0.9-0.4-0.9-0.9c0-0.5,0.4-0.9,0.9-0.9c0.5,0,0.9,0.4,0.9,0.9C54.7,81.1,54.3,81.5,53.8,81.5
	C53.3,81.5,54.3,81.5,53.8,81.5z M53.8,79.9c-0.4,0-0.7,0.3-0.7,0.7s0.3,0.7,0.7,0.7c0.4,0,0.7-0.3,0.7-0.7
	C54.5,80.2,54.2,79.9,53.8,79.9C53.4,79.9,54.2,79.9,53.8,79.9z"/>
<polyline class="st4" points="-44.1,80.7 34.5,80.7 38.6,84.8 61.3,84.8 "/>
<circle class="st4" cx="61.3" cy="84.8" r="0.8"/>
<path class="st4" d="M61.3,85.7c-0.5,0-0.9-0.4-0.9-0.9c0-0.5,0.4-0.9,0.9-0.9s0.9,0.4,0.9,0.9C62.2,85.3,61.8,85.7,61.3,85.7
	S61.8,85.7,61.3,85.7z M61.3,84.1c-0.4,0-0.7,0.3-0.7,0.7c0,0.4,0.3,0.7,0.7,0.7c0.4,0,0.7-0.3,0.7-0.7C62,84.5,61.7,84.1,61.3,84.1
	C60.9,84.1,61.7,84.1,61.3,84.1z"/>
<polyline class="st4" points="-44.1,82.9 33.4,82.9 37.5,87 48.3,87 51,89.7 "/>
<ellipse transform="matrix(0.7165 -0.6975 0.6975 0.7165 -48.0951 60.9168)" class="st4" cx="50.9" cy="89.6" rx="0.8" ry="0.8"/>
<path class="st4" d="M50.3,90.3c-0.4-0.4-0.4-0.9,0-1.3c0.4-0.4,0.9-0.4,1.3,0c0.4,0.4,0.4,0.9,0,1.3C51.2,90.6,50.6,90.6,50.3,90.3
	C49.9,89.9,50.6,90.6,50.3,90.3z M51.4,89.1c-0.3-0.3-0.7-0.3-1,0c-0.3,0.3-0.3,0.7,0,1c0.3,0.3,0.7,0.3,1,0
	C51.7,89.9,51.7,89.4,51.4,89.1C51.1,88.9,51.7,89.4,51.4,89.1z"/>
<polyline class="st4" points="-44.1,85 32.4,85 36.5,89.1 46.1,89.1 48.8,91.8 "/>
<ellipse transform="matrix(0.7165 -0.6975 0.6975 0.7165 -50.2001 60.0315)" class="st4" cx="48.8" cy="91.8" rx="0.8" ry="0.8"/>
<path class="st4" d="M48.1,92.4c-0.4-0.4-0.4-0.9,0-1.3c0.4-0.4,0.9-0.4,1.3,0c0.4,0.4,0.4,0.9,0,1.3C49.1,92.8,48.5,92.8,48.1,92.4
	C47.8,92.1,48.5,92.8,48.1,92.4z M49.3,91.3c-0.3-0.3-0.7-0.3-1,0c-0.3,0.3-0.3,0.7,0,1c0.3,0.3,0.7,0.3,1,0
	C49.5,92,49.5,91.6,49.3,91.3C49,91,49.5,91.6,49.3,91.3z"/>
<polyline class="st4" points="-44.1,87.1 31.3,87.1 35.4,91.3 44,91.3 46.7,94 "/>
<ellipse transform="matrix(0.7165 -0.6975 0.6975 0.7165 -52.3051 59.1461)" class="st4" cx="46.6" cy="93.9" rx="0.8" ry="0.8"/>
<path class="st4" d="M46,94.6c-0.4-0.4-0.4-0.9,0-1.3c0.4-0.4,0.9-0.4,1.3,0c0.4,0.4,0.4,0.9,0,1.3C46.9,94.9,46.3,94.9,46,94.6
	C45.6,94.2,46.3,94.9,46,94.6z M47.1,93.4c-0.3-0.3-0.7-0.3-1,0c-0.3,0.3-0.3,0.7,0,1c0.3,0.3,0.7,0.3,1,0
	C47.4,94.1,47.4,93.7,47.1,93.4C46.9,93.2,47.4,93.7,47.1,93.4z"/>
<polyline class="st4" points="-44.1,78.6 35.6,78.6 39.7,82.7 57.9,82.7 67.5,73.1 93.2,73.1 105.1,85 105.1,94.6 109.8,99.4 "/>
<ellipse transform="matrix(0.7165 -0.6975 0.6975 0.7165 -38.1777 104.7191)" class="st4" cx="109.8" cy="99.3" rx="0.8" ry="0.8"/>
<path class="st4" d="M109.1,100c-0.4-0.4-0.4-0.9,0-1.3c0.4-0.4,0.9-0.4,1.3,0c0.4,0.4,0.4,0.9,0,1.3
	C110,100.3,109.5,100.3,109.1,100C108.8,99.6,109.5,100.3,109.1,100z M110.2,98.8c-0.3-0.3-0.7-0.3-1,0c-0.3,0.3-0.3,0.7,0,1
	c0.3,0.3,0.7,0.3,1,0C110.5,99.6,110.5,99.1,110.2,98.8C110,98.6,110.5,99.1,110.2,98.8z"/>
<polyline class="st4" points="274.5,53.2 197.5,53.2 192.9,57.8 156.4,57.8 "/>
<circle class="st4" cx="156.4" cy="57.8" r="0.8"/>
<path class="st4" d="M156.4,56.9c0.5,0,0.9,0.4,0.9,0.9s-0.4,0.9-0.9,0.9s-0.9-0.4-0.9-0.9C155.5,57.3,155.9,56.9,156.4,56.9
	S155.9,56.9,156.4,56.9z M156.4,58.5c0.4,0,0.7-0.3,0.7-0.7s-0.3-0.7-0.7-0.7c-0.4,0-0.7,0.3-0.7,0.7S156.1,58.5,156.4,58.5
	C156.8,58.5,156.1,58.5,156.4,58.5z"/>
<polyline class="st4" points="274.5,55.3 198.4,55.3 187,66.6 187,91.4 184.4,94 184.4,99 "/>
<circle class="st4" cx="184.4" cy="98.9" r="0.8"/>
<path class="st4" d="M183.5,98.9c0-0.5,0.4-0.9,0.9-0.9s0.9,0.4,0.9,0.9c0,0.5-0.4,0.9-0.9,0.9S183.5,99.4,183.5,98.9
	C183.5,98.4,183.5,99.4,183.5,98.9z M185.1,98.9c0-0.4-0.3-0.7-0.7-0.7c-0.4,0-0.7,0.3-0.7,0.7c0,0.4,0.3,0.7,0.7,0.7
	C184.7,99.6,185.1,99.3,185.1,98.9C185.1,98.5,185.1,99.3,185.1,98.9z"/>
</svg>
