<svg version="1.1" id="circuits" xmlns="http://www.w3.org/2000/svg" xmlns:xlink="http://www.w3.org/1999/xlink" x="0px" y="0px"
	 viewBox="0 0 3000 887.9" style="enable-background:new 0 0 3000 887.9;" xml:space="preserve">
<style type="text/css">
	.st0{fill:none;stroke:#BE202E;stroke-width:3;stroke-miterlimit:10;}
	.st1{fill:#BE202E;stroke:#BE202E;stroke-width:6;stroke-miterlimit:10;}
	.st2{enable-background:new;}
</style>
<g id="circut">
	<polyline class="st0" points="-1429.6,430.1 829.4,430.1 868.2,468.9 992.6,468.9 	"/>
	<circle class="st1" cx="992.2" cy="468.9" r="7.6"/>
	<polyline class="st0" points="-1429.6,447.3 820.8,447.3 859.6,486.1 1033,486.1 	"/>
	<circle class="st1" cx="1032.6" cy="486.1" r="7.6"/>
	<polyline class="st0" points="-1429.6,487.7 800.6,487.7 839.4,526.5 1033,526.5 	"/>
	<circle class="st1" cx="1032.6" cy="526.5" r="7.6"/>
	<polyline class="st0" points="-1429.6,608.5 790.6,608.5 829.4,569.7 1071.4,569.7 1092.2,548.9 1394,548.9 1504.4,659.3
		1504.4,800.1 1519,814.7 	"/>

		<ellipse transform="matrix(0.7071 -0.7071 0.7071 0.7071 -131.0723 1312.4855)" class="st1" cx="1518.8" cy="814.5" rx="7.6" ry="7.6"/>
	<polyline class="st0" points="-1429.6,627.9 799.2,627.9 838,589.1 1080.6,589.1 1101.6,568.3 1384,568.3 1474.6,658.9
		1474.6,691.3 	"/>
	<circle class="st1" cx="1474.6" cy="690.7" r="7.6"/>
	<polyline class="st0" points="-1429.6,507.7 790.6,507.7 829.4,546.5 1061.2,546.5 1080.6,527.1 1404,527.1 1525.4,648.5
		1525.4,781.9 	"/>
	<circle class="st1" cx="1525.4" cy="781.5" r="7.6"/>
	<polyline class="st0" points="-1429.6,467.5 810.6,467.5 849.6,506.3 1414,506.3 1545.8,638.1 1545.8,842.5 	"/>
	<circle class="st1" cx="1545.8" cy="842.1" r="7.6"/>
	<polyline class="st0" points="-1429.6,648.9 829.4,648.9 868.2,687.7 992.6,687.7 	"/>
	<circle class="st1" cx="992.2" cy="687.7" r="7.6"/>
	<polyline class="st0" points="-1429.6,689.3 810.6,689.3 849.6,728.1 1063.2,728.1 	"/>
	<circle class="st1" cx="1062.8" cy="728.1" r="7.6"/>
	<polyline class="st0" points="-1429.6,709.3 800.6,709.3 839.4,748.3 940.2,748.3 965.6,773.5 	"/>

		<ellipse transform="matrix(0.7071 -0.7071 0.7071 0.7071 -264.0302 908.8842)" class="st1" cx="965.1" cy="773.2" rx="7.6" ry="7.6"/>
	<polyline class="st0" points="-1429.6,729.5 790.6,729.5 829.4,768.3 920,768.3 945.4,793.7 	"/>

		<ellipse transform="matrix(0.7071 -0.7071 0.7071 0.7071 -284.2299 900.548)" class="st1" cx="944.9" cy="793.4" rx="7.6" ry="7.6"/>
	<polyline class="st0" points="-1429.6,749.7 780.4,749.7 819.2,788.5 900,788.5 925.2,813.9 	"/>

		<ellipse transform="matrix(0.7071 -0.7071 0.7071 0.7071 -304.4296 892.2111)" class="st1" cx="924.8" cy="813.6" rx="7.6" ry="7.6"/>
	<polyline class="st0" points="-1429.6,669.1 820.8,669.1 859.6,707.9 1031,707.9 1121,617.9 1363.6,617.9 1475,729.1 1475,820.3
		1519.4,864.7 	"/>

		<ellipse transform="matrix(0.7071 -0.7071 0.7071 0.7071 -166.3161 1327.3937)" class="st1" cx="1519.1" cy="864.5" rx="7.6" ry="7.6"/>
	<polyline class="st0" points="4570.4,430.1 2345.4,430.1 2301.8,473.7 1958.2,473.7 	"/>
	<circle class="st1" cx="1958.6" cy="473.7" r="7.6"/>
	<polyline class="st0" points="4570.4,449.5 2353.4,449.5 2246.6,556.3 2246.6,789.7 2221.4,814.7 2221.4,860.9 	"/>
	<circle class="st1" cx="2221.4" cy="860.5" r="7.6"/>
</g>
<g id="intro-logo">
	<g id="frame">
		<g id="top" transform="matrix(1,0,0,1,0,0)">
			<path d="M1340.8,19.1h-95.3h-61.4v122.6h61.4V80.6h95.3V19.1z"/>
		</g>
		<g id="bottom" transform="matrix(1,0,0,1,0,0)">
			<path d="M1659.2,428.7h156.7v-61.4V306h-61.4v61.2h-95.3V428.7z"/>
		</g>
	</g>
	<g class="st2" id="make">
		<path d="M1315.2,117.5c1.9,3.4,4,7.6,6.3,12.6c2.4,5,5,10.3,7.6,16.2c2.6,5.8,5.2,11.7,7.8,17.8s5,11.7,7.2,17
			c2.2-5.3,4.7-11.1,7.2-17c2.6-6.1,5.1-11.9,7.8-17.8c2.6-5.8,5.1-11.2,7.6-16.2c2.4-5,4.6-9.2,6.3-12.6h21.8
			c1,7.1,2,14.9,2.9,23.8c0.9,8.7,1.6,17.9,2.4,27.4c0.6,9.5,1.2,19,1.9,28.5c0.6,9.6,1,18.5,1.5,26.9h-23.4
			c-0.2-10.3-0.7-21.6-1.2-33.8s-1.2-24.5-2.4-36.9c-1.9,4.4-3.9,9.1-6.2,14.3c-2.2,5.2-4.5,10.4-6.7,15.7
			c-2.2,5.2-4.4,10.2-6.3,14.9c-2,4.7-3.9,8.8-5.2,12.2h-16.8c-1.5-3.4-3.2-7.5-5.2-12.2c-2-4.7-4.2-9.7-6.3-14.9
			c-2.2-5.2-4.5-10.4-6.7-15.7c-2.2-5.2-4.4-9.9-6.2-14.3c-1,12.4-1.7,24.7-2.4,36.9c-0.5,12.2-0.9,23.5-1.2,33.8h-23.3
			c0.4-8.5,0.9-17.4,1.5-26.9c0.6-9.6,1.1-19,1.9-28.5c0.6-9.5,1.5-18.7,2.4-27.4c0.9-8.7,1.9-16.7,2.9-23.8
			C1292.4,117.5,1315.2,117.5,1315.2,117.5z"/>
		<path d="M1496.3,224.1c-1.2-3.7-2.5-7.5-3.9-11.4c-1.4-3.9-2.7-7.8-4.1-11.7h-41.5c-1.4,3.9-2.7,7.8-4.1,11.7
			c-1.4,3.9-2.6,7.7-3.7,11.3h-24.9c4-11.4,7.8-22.1,11.4-31.8c3.6-9.7,7.1-18.9,10.6-27.5c3.5-8.6,6.8-16.8,10.2-24.5
			c3.4-7.7,6.8-15.3,10.4-22.6h22.8c3.5,7.3,7,14.9,10.3,22.6c3.4,7.7,6.8,15.9,10.3,24.5c3.5,8.6,7,17.8,10.6,27.5
			c3.6,9.7,7.5,20.4,11.4,31.8h-25.9V224.1z M1467.4,141.6c-0.5,1.5-1.4,3.6-2.4,6.3c-1,2.6-2.2,5.7-3.5,9.2
			c-1.4,3.5-2.7,7.3-4.4,11.6c-1.6,4.2-3.2,8.6-5,13.2h30.3c-1.6-4.6-3.2-9.1-4.7-13.2c-1.5-4.2-3-8.1-4.4-11.6
			c-1.4-3.5-2.6-6.6-3.6-9.2C1468.9,145.2,1468,143.1,1467.4,141.6z"/>
		<path d="M1598.4,224.1c-2.1-3.5-4.7-7.2-7.6-11.2c-3-4-6.1-8.1-9.5-12.2c-3.4-4.1-7-8-10.6-11.8c-3.7-3.7-7.3-7.1-11.1-9.9v45.1
			h-24V117.5h24v40c6.2-6.5,12.4-13.2,18.8-20.3c6.3-7.1,12.2-13.7,17.7-19.6h28.2c-7.2,8.6-14.6,16.9-21.9,24.9
			c-7.3,8-15,16-23.1,24c8.5,7.1,16.8,15.5,24.6,25.2c8,9.7,15.5,20.5,22.9,32.2h-28.5V224.1z"/>
		<path d="M1640.7,224.1V117.5h72v20.1h-48v20.9h42.5v19.6h-42.5v25.6h51.5V224h-75.5V224.1z"/>
	</g>
	<g class="st2" id="santafe">
		<path d="M1345.8,325.2c3.6,0,6.3-0.5,8.1-1.5c1.7-1,2.6-2.5,2.6-4.6s-0.9-3.9-2.6-5.2c-1.7-1.2-4.6-2.7-8.5-4.4
			c-1.9-0.7-3.7-1.5-5.5-2.4c-1.7-0.7-3.2-1.7-4.6-2.9c-1.2-1.1-2.2-2.4-3.1-4c-0.7-1.5-1.1-3.4-1.1-5.6c0-4.4,1.6-7.8,4.8-10.4
			c3.2-2.6,7.7-3.9,13.3-3.9c1.4,0,2.9,0.1,4.2,0.2c1.4,0.1,2.7,0.4,4,0.6c1.2,0.2,2.2,0.5,3.2,0.7c0.9,0.2,1.6,0.5,2.1,0.6
			l-1.6,7.7c-1-0.5-2.5-1-4.5-1.6c-2-0.5-4.5-0.9-7.3-0.9c-2.5,0-4.6,0.5-6.5,1.5c-1.9,1-2.7,2.5-2.7,4.6c0,1.1,0.2,2,0.6,2.9
			c0.4,0.9,1,1.6,1.9,2.2s1.9,1.2,3.2,1.9c1.2,0.6,2.9,1.1,4.6,1.9c2.4,0.9,4.5,1.7,6.3,2.6c1.9,0.9,3.5,1.9,4.7,3
			c1.4,1.1,2.4,2.5,3,4.1c0.7,1.6,1,3.6,1,6c0,4.6-1.7,8.1-5.1,10.4c-3.4,2.4-8.3,3.5-14.5,3.5c-4.4,0-7.8-0.4-10.3-1.1
			c-2.5-0.7-4.2-1.2-5.1-1.6l1.6-7.7c1,0.4,2.6,1,4.8,1.7C1339.1,324.8,1342.1,325.2,1345.8,325.2z"/>
		<path d="M1392.9,280.7c3.6,0,6.6,0.5,9.1,1.4c2.5,0.9,4.5,2.2,6,4s2.6,3.7,3.2,6c0.6,2.4,1,4.9,1,7.7v31.1
			c-0.7,0.1-1.9,0.2-3.2,0.5c-1.4,0.2-2.9,0.4-4.6,0.6c-1.7,0.2-3.6,0.4-5.6,0.5c-2,0.1-4,0.2-6,0.2c-2.9,0-5.3-0.2-7.7-0.9
			c-2.4-0.6-4.4-1.5-6.1-2.7c-1.7-1.2-3.1-2.9-4-5c-1-2-1.5-4.5-1.5-7.3c0-2.7,0.5-5.1,1.6-7.1c1.1-2,2.6-3.6,4.6-4.7
			c1.9-1.2,4.1-2.1,6.7-2.7c2.5-0.6,5.2-0.9,8.1-0.9c0.9,0,1.9,0,2.7,0.1c1,0.1,1.9,0.2,2.7,0.4c0.9,0.1,1.6,0.2,2.2,0.4
			c0.6,0.1,1.1,0.2,1.4,0.2V300c0-1.5-0.1-2.9-0.5-4.4c-0.4-1.5-0.9-2.7-1.7-3.9s-2-2-3.4-2.7c-1.5-0.6-3.4-1-5.6-1
			c-3,0-5.5,0.2-7.7,0.6c-2.2,0.4-3.9,0.9-5,1.2l-1-7.3c1.1-0.5,3.1-1,5.7-1.5S1389.8,280.7,1392.9,280.7z M1393.7,325.2
			c2.1,0,4,0,5.6-0.1s3-0.2,4.1-0.5v-14.8c-0.6-0.4-1.6-0.6-3.1-0.9s-3.2-0.4-5.2-0.4c-1.4,0-2.7,0.1-4.2,0.2
			c-1.5,0.2-2.9,0.6-4.1,1.2c-1.2,0.6-2.2,1.5-3.1,2.5c-0.9,1-1.2,2.5-1.2,4.1c0,3.2,1,5.3,3.1,6.6
			C1387.5,324.6,1390.2,325.2,1393.7,325.2z"/>
		<path d="M1426.8,283.3c2-0.5,4.7-1,8.1-1.6s7.2-0.9,11.7-0.9c4,0,7.2,0.5,9.8,1.6s4.7,2.7,6.2,4.7c1.6,2,2.6,4.5,3.4,7.2
			c0.6,2.9,1,5.8,1,9.3v28h-9v-26c0-3.1-0.2-5.7-0.6-7.8s-1.1-4-2.1-5.2c-1-1.4-2.2-2.4-3.9-2.9c-1.6-0.6-3.6-0.9-6-0.9
			c-1,0-2,0-3,0.1c-1,0.1-2,0.1-2.9,0.2c-0.9,0.1-1.7,0.2-2.5,0.4c-0.7,0.1-1.2,0.2-1.6,0.2v42h-9v-48.6H1426.8z"/>
		<path d="M1489.9,281.9h18.8v7.5h-18.8v23c0,2.5,0.2,4.6,0.6,6.2s1,2.9,1.7,3.9c0.7,0.9,1.7,1.6,2.9,2c1.1,0.4,2.5,0.6,4,0.6
			c2.7,0,4.8-0.2,6.5-0.9c1.6-0.6,2.7-1,3.4-1.2l1.7,7.3c-0.9,0.5-2.5,1-4.7,1.6c-2.2,0.6-4.7,1-7.7,1c-3.4,0-6.2-0.4-8.3-1.2
			c-2.2-0.9-4-2.1-5.3-3.9c-1.4-1.7-2.2-3.9-2.9-6.3c-0.5-2.5-0.9-5.5-0.9-8.7v-44.4l9-1.5v15H1489.9z"/>
		<path d="M1536.2,280.7c3.6,0,6.6,0.5,9.1,1.4c2.5,0.9,4.5,2.2,6,4s2.6,3.7,3.2,6c0.6,2.4,1,4.9,1,7.7v31.1
			c-0.7,0.1-1.9,0.2-3.2,0.5c-1.4,0.2-2.9,0.4-4.6,0.6c-1.7,0.2-3.6,0.4-5.6,0.5c-2,0.1-4,0.2-6,0.2c-2.9,0-5.3-0.2-7.7-0.9
			c-2.4-0.6-4.4-1.5-6.1-2.7c-1.7-1.2-3.1-2.9-4-5c-1-2-1.5-4.5-1.5-7.3c0-2.7,0.5-5.1,1.6-7.1c1.1-2,2.6-3.6,4.6-4.7
			c1.9-1.2,4.1-2.1,6.7-2.7c2.5-0.6,5.2-0.9,8.1-0.9c0.9,0,1.9,0,2.7,0.1c1,0.1,1.9,0.2,2.7,0.4c0.9,0.1,1.6,0.2,2.2,0.4
			c0.6,0.1,1.1,0.2,1.4,0.2V300c0-1.5-0.1-2.9-0.5-4.4s-0.9-2.7-1.7-3.9c-0.9-1.1-2-2-3.4-2.7c-1.5-0.6-3.4-1-5.6-1
			c-3,0-5.5,0.2-7.7,0.6c-2.2,0.4-3.9,0.9-5,1.2l-1-7.3c1.1-0.5,3.1-1,5.7-1.5C1530.1,280.9,1533.1,280.7,1536.2,280.7z
			 M1536.9,325.2c2.1,0,4,0,5.6-0.1c1.6-0.1,3-0.2,4.1-0.5v-14.8c-0.6-0.4-1.6-0.6-3.1-0.9s-3.1-0.4-5.2-0.4c-1.4,0-2.7,0.1-4.2,0.2
			c-1.5,0.2-2.9,0.6-4.1,1.2c-1.2,0.6-2.2,1.5-3.1,2.5c-0.9,1-1.2,2.5-1.2,4.1c0,3.2,1,5.3,3.1,6.6
			C1530.6,324.6,1533.5,325.2,1536.9,325.2z"/>
		<path d="M1611.4,257.4c2.6,0,4.8,0.2,6.7,0.6c1.9,0.4,3.2,0.7,4,1l-1.5,7.6c-0.7-0.4-1.9-0.7-3.2-1.1c-1.4-0.4-3.1-0.5-5.2-0.5
			c-4.1,0-7.1,1.1-8.7,3.4c-1.6,2.2-2.5,5.3-2.5,9.1v4.4h19.2v7.5H1601v42.3h-9v-54.2c0-6.3,1.6-11.3,4.7-14.8
			C1599.9,259.2,1604.8,257.4,1611.4,257.4z"/>
		<path d="M1626.2,306.8c0-4.4,0.6-8.2,1.9-11.6c1.2-3.2,3-6,5.1-8.2c2.1-2.1,4.5-3.7,7.2-4.9c2.7-1.1,5.6-1.6,8.5-1.6
			c6.7,0,11.8,2.1,15.4,6.2c3.6,4.2,5.3,10.6,5.3,19c0,0.4,0,0.9,0,1.5s0,1.1-0.1,1.6h-34.1c0.4,5.2,1.9,9.1,4.5,11.8
			c2.6,2.7,6.7,4,12.2,4c3.1,0,5.7-0.2,7.8-0.9c2.1-0.5,3.7-1.1,4.9-1.6l1.2,7.5c-1.1,0.6-3,1.1-5.7,1.9c-2.7,0.6-5.8,1-9.2,1
			c-4.4,0-8.1-0.6-11.2-2s-5.7-3.1-7.8-5.3c-2.1-2.2-3.6-5-4.6-8.2C1626.7,314,1626.2,310.6,1626.2,306.8z M1660.3,301.9
			c0-4-1-7.3-3-9.9c-2.1-2.6-5-3.9-8.6-3.9c-2,0-3.9,0.4-5.3,1.2c-1.6,0.7-2.9,1.9-4,3.1c-1.1,1.2-2,2.7-2.5,4.4
			c-0.6,1.6-1,3.4-1.2,5.1H1660.3z"/>
	</g>
</g>
</svg>
