<?xml version="1.0" encoding="utf-8"?>
<!-- Generator: Adobe Illustrator 27.0.1, SVG Export Plug-In . SVG Version: 6.00 Build 0)  -->
<svg version="1.1" id="circuits" xmlns="http://www.w3.org/2000/svg" xmlns:xlink="http://www.w3.org/1999/xlink" x="0px" y="0px"
	 viewBox="0 0 1164.8 1085.6" style="enable-background:new 0 0 1164.8 1085.6;" xml:space="preserve">
<style type="text/css">
	.st0{opacity:9.000000e-02;enable-background:new    ;}
	.st1{fill:none;stroke:#B1B1B1;stroke-width:3;}
	.st2{fill:none;stroke:#BE202E;stroke-width:3;stroke-miterlimit:10;}
	.st3{fill:#BE202E;stroke:#BE202E;stroke-width:6;stroke-miterlimit:10;}
	.st4{enable-background:new    ;}
</style>
<g id="objects">
	<g>
		<path class="st0" d="M134.7,365.9c-2-4.1-2-6.1-2-9.2s0-13.2,0-16.3c0-4.1,0-5.1,5.1-7.2c4.1-2,4.1-3.1,4.1-5.1s0-4.1-4.1-4.1
			s-17.3,0-17.3,0s-14.2,0-17.3,0c-4.1,0-4.1,3.1-4.1,4.1c0,2,0,3.1,4.1,5.1s5.1,3.1,5.1,7.2s0,13.2,0,16.3s0,5.1-2,9.2
			s-56,75.5-61.1,83.6c-6.1,8.2-8.2,18.3-4.1,23.5c4.1,6.1,9.2,9.2,14.2,9.2c5.1,0,66.3,0,66.3,0s60.1,0,66.3,0
			c5.1,0,11.2-4.1,14.2-9.2c4.1-6.1,2-15.3-4.1-23.5C190.7,441.4,137.7,370,134.7,365.9z"/>
		<circle class="st1" cx="107.1" cy="303.7" r="7.2"/>
		<circle class="st1" cx="125.4" cy="314" r="5.1"/>
		<circle class="st1" cx="126.5" cy="290.5" r="10.2"/>
		<path class="st1" d="M182.6,463.8c-6.1-8.2-59.1-79.5-61.1-83.6s-2-6.1-2-9.2s0-13.2,0-16.3c0-4.1,0-5.1,5.1-7.2
			c4.1-2,4.1-3.1,4.1-5.1s0-4.1-4.1-4.1c-4.1,0-17.3,0-17.3,0s-14.2,0-17.3,0c-4.1,0-4.1,3.1-4.1,4.1s0,3.1,4.1,5.1s5.1,3.1,5.1,7.2
			c0,4.1,0,13.2,0,16.3s0,5.1-2,9.2s-56,75.5-61.1,83.6c-6.1,8.2-8.2,18.3-4.1,23.5c4.1,6.1,9.2,9.2,14.2,9.2s66.3,0,66.3,0
			s60.1,0,66.3,0c5.1,0,11.2-4.1,14.2-9.2C190.7,482.1,188.6,472.9,182.6,463.8z"/>
		<circle class="st1" cx="92.9" cy="318" r="7.2"/>
		<circle class="st1" cx="111.2" cy="328.2" r="5.1"/>
		<circle class="st1" cx="113.3" cy="304.8" r="10.2"/>
	</g>
	<g>
		<path class="st0" d="M403.8,482.6c-7.1-7.1-67.9-22.1-78.9-8.7c-4.7,5.5-41,38.7-57.6,43.4c-15.8,4.7-75,8.7-84.5,19
			c-8.7,11-1.5,18.2,11,28.4c12.6,10.3,95.5,12.6,105.7,8.7c10.3-3.2,28.4-8.7,48.2-8.7c19.7,0,4.7,10.3,20.5,10.3
			c15,0,42.6,3.9,44.2-10.3C414,550.4,410.9,489.7,403.8,482.6z M365.9,511c-6.3,0-11-4.7-11-11s4.7-11,11-11s11,4.7,11,11
			C377,506.3,371.4,511,365.9,511z"/>
		<path class="st1" d="M392.8,493.6c-7.1-7.1-67.9-22.1-78.9-8.7c-4.7,5.5-41,38.7-57.6,43.4c-15.8,4.7-75,8.7-84.5,19
			c-8.7,11-1.5,18.2,11,28.4c12.6,10.3,95.5,12.6,105.7,8.7c10.3-3.2,28.4-8.7,48.2-8.7s4.7,10.3,20.5,10.3c15,0,42.6,3.9,44.2-10.3
			C403,561.5,399.9,500.7,392.8,493.6z M354.8,522.1c-6.3,0-11-4.7-11-11c0-6.3,4.7-11,11-11s11,4.7,11,11
			C365.9,517.3,361.2,522.1,354.8,522.1z"/>
	</g>
	<g>
		<path class="st0" d="M755.3,746.5c1-1-2-4.1-3.1-6.1c-1-1-8.2-7.2-9.2-8.2s-3.1-3.1-4.1,0c-1,2-3.1,4.1-2,7.2c1,3.1,2,3.1,2,3.1
			s1-1,2-2c0-1,2-2,2,0c1,1,2,5.1,1,6.1c-2,1-5.1,2-6.1,2c-1-1-4.1-7.2-3.1-8.2s4.1-9.2,4.1-10.2c0-2,1-8.2,3.1-11.2
			c2-3.1,8.2-13.2,8.2-17.3s-1-12.2,1-14.2c1-2,9.2-13.2,10.2-14.2s7.2-7.2,8.2-7.2s7.2-8.2,8.2-10.2c1-1,4.1-4.1,7.2-7.2
			c0-1,0-5.1,0-5.1s-3.1,0-5.1-1s-13.2-10.2-17.3-13.2c-3.1-3.1-11.2-12.2-12.2-14.2s-5.1-1-5.1-1c-2,2-16.3,19.4-17.3,20.4
			s-6.1,11.2-7.2,13.2c0,2-6.1,21.4-7.2,24.5c-1,4.1,0,11.2-3.1,14.2s-11.2,14.2-14.2,18.3c-4.1,4.1-5.1,6.1-6.1,8.2
			c-1,2-3.1,5.1-2,9.2c1,4.1,6.1,6.1,6.1,6.1c2,1,13.2,9.2,16.3,12.2c3.1,2,13.2,12.2,16.3,14.2s7.2,6.1,11.2,5.1
			c4.1-1,9.2-2,10.2-1s7.2-2,7.2-4.1C754.3,751.6,754.3,747.5,755.3,746.5z"/>
		<path class="st0" d="M763.5,627.2c2,2,13.2,11.2,15.3,12.2c2,1,4.1,1,4.1,1l1,1c-1-7.2-3.1-14.2-4.1-16.3c0-1-2-3.1-3.1-3.1l0,0
			l0,0c1,0,3.1,1,4.1,1c0,0,4.1-5.1,4.1-6.1c0,0,0-2-1-2c0,0,5.1,4.1,6.1,5.1s3.1-1,4.1-2s1-3.1,0-5.1s-19.4-15.3-22.4-16.3
			c-3.1-1-4.1,0-4.1,1s-1,2-1,2c0,1,0,2,2,3.1c2,1,5.1,4.1,6.1,4.1c-1-1-3.1-2-4.1-2s-2,0-4.1,2c-2,2-3.1,2-3.1,3.1c0,1,1,2,1,2
			s0-1-1-1s-2,0-3.1,0s-6.1,0-9.2,0l1,1C752.2,614,761.4,624.1,763.5,627.2z"/>
		<path class="st1" d="M765.5,654.7c-3.1,3.1-6.1,6.1-7.2,7.2c-1,1-7.2,9.2-8.2,10.2c-1,0-7.2,7.2-8.2,7.2s-8.2,11.2-10.2,14.2
			s-2,10.2-1,14.2c1,4.1-6.1,14.2-8.2,17.3c-2,3.1-2,9.2-3.1,11.2c0,2-3.1,9.2-4.1,10.2s2,7.2,3.1,8.2c1,1,4.1-1,6.1-2s0-5.1-1-6.1
			s-2-1-2,0s-2,2-2,2s-2,0-2-3.1c0-2,2-5.1,2-7.2c1-2,3.1-1,4.1,0s8.2,7.2,9.2,8.2s4.1,5.1,3.1,6.1s-1,4.1-2,6.1s-6.1,4.1-7.2,4.1
			c-1,0-6.1,0-10.2,1c-4.1,1-8.2-3.1-11.2-5.1c-3.1-2-13.2-12.2-16.3-14.2c-3.1-3.1-14.2-11.2-16.3-12.2c0,0-4.1-3.1-6.1-6.1
			c-2-3.1,1-6.1,2-9.2c1-3.1,3.1-4.1,6.1-8.2c4.1-4.1,11.2-15.3,14.2-18.3c3.1-3.1,3.1-10.2,3.1-14.2c1-4.1,6.1-22.4,7.2-24.5
			c1.1-2.1,5.1-11.2,7.2-13.2c2-2,15.3-18.3,17.3-20.4c0,0,4.1-2,5.1,1c1,2,9.2,11.2,12.2,14.2c3.1,3.1,15.3,13.2,17.3,13.2
			c2,1,4.1,1,5.1,1C765.5,649.6,765.5,654.7,765.5,654.7z"/>
		<path class="st1" d="M758.4,629.2c-1,0-7.2-4.1-9.2-6.1c-2-1-3.1-2-4.1-4.1c0,0,0-1-1-1s-2,0-3.1,0s-6.1,0-9.2,0l1,1
			c0,1,9.2,11.2,11.2,14.2c2,2,13.2,11.2,15.3,12.2c2,1,4.1,1,4.1,1l1,1c-1-7.2-3.1-14.2-4.1-16.3
			C761.4,631.3,759.4,629.2,758.4,629.2z"/>
		<path class="st1" d="M749.1,602.7c0,1-1,2-1,2c0,1,0,2,2,3.1c2,1,5.1,4.1,6.1,4.1c1,1,9.2,7.2,9.2,7.2s5.1,4.1,6.1,5.1
			s3.1-1,4.1-2s1-3.1,0-5.1s-19.4-15.3-22.4-16.3C750.2,600.7,749.1,602.7,749.1,602.7z"/>
		<path class="st1" d="M746.1,619.1c1,1,2,2,4.1,4.1c2,2,8.2,5.1,9.2,6.1c1,0,3.1,1,4.1,1c0,0,4.1-5.1,4.1-6.1c0,0,0-2-1-2
			c0,0-8.2-7.2-9.2-7.2c-1-1-3.1-2-4.1-2s-2,0-4.1,2c-2,2-3.1,2-3.1,3.1C745.1,618.1,746.1,619.1,746.1,619.1z"/>
	</g>
	<g>
		<path class="st0" d="M1964.8,580.2h-251.3c-7.1,0-13.5,5.6-13.5,13.5v148.7c0,7.1,5.6,13.5,13.5,13.5h93c0,0-4,20.7-6.4,31
			s1.6,12,6.4,12c4,0,60.4,0,64.4,0c4.7,0,8.8-2.4,6.4-12c-2.4-10.3-6.4-31-6.4-31h93c7.1,0,13.5-5.6,13.5-13.5V593.7
			C1977.5,586.6,1971.9,580.2,1964.8,580.2z"/>
		<path class="st1" d="M1952.1,767.1h-251.3c-7.1,0-12.7-5.6-12.7-12.7V605.6c0-7.1,5.6-12.7,12.7-12.7h251.3
			c7.1,0,12.7,5.6,12.7,12.7v148.7C1964.8,761.5,1959.2,767.1,1952.1,767.1z"/>
		<rect x="1702.4" y="606.5" class="st1" width="248.9" height="146.3"/>
		<path class="st1" d="M1865.4,798c-2.4-10.3-6.4-31-6.4-31h-31h-2.4h-31.1c0,0-4,20.7-6.4,31s1.6,12,6.4,12c4,0,60.4,0,64.4,0
			C1863.8,810,1867.8,807.6,1865.4,798z"/>
	</g>
	<g>
		<path class="st0" d="M1914.7,829.1h-150.3c-0.8,0-1.6,0.8-1.6,1.6v62.8c0,0.8,0.8,1.6,1.6,1.6h150.3c0.8,0,1.6-0.8,1.6-1.6v-62.8
			C1915.5,829.9,1914.7,829.1,1914.7,829.1z"/>
		<path class="st1" d="M1902,907h-150.3c-0.8,0-1.6-0.8-1.6-1.6v-62.8c0-0.8,0.8-1.6,1.6-1.6H1902c0.8,0,1.6,0.8,1.6,1.6v62.8
			C1903.5,906.2,1902.8,907,1902,907z"/>
		<path class="st1" d="M1859.8,902.2h-62c-0.8,0-1.6-0.8-1.6-1.6v-6.4c0-0.8,0.8-1.6,1.6-1.6h62c0.8,0,1.6,0.8,1.6,1.6v6.4
			C1860.6,901.5,1860.6,902.2,1859.8,902.2z"/>
		<path class="st1" d="M1793,902.2h-9.5c-0.8,0-1.6-0.8-1.6-1.6v-6.4c0-0.8,0.8-1.6,1.6-1.6h9.5c0.8,0,1.6,0.8,1.6,1.6v6.4
			C1794.6,901.5,1793.8,902.2,1793,902.2z"/>
		<path class="st1" d="M1847.9,902.2h-13.5c-0.8,0-1.6-0.8-1.6-1.6v-6.4c0-0.8,0.8-1.6,1.6-1.6h13.5c0.8,0,1.6,0.8,1.6,1.6v6.4
			C1849.5,901.5,1848.7,902.2,1847.9,902.2z"/>
		<path class="st1" d="M1854.2,891.9h-19.1c-0.8,0-1.6-0.8-1.6-1.6v-6.4c0-0.8,0.8-1.6,1.6-1.6h19.1c0.8,0,1.6,0.8,1.6,1.6v6.4
			C1855.9,891.1,1855.1,891.9,1854.2,891.9z"/>
		<path class="st1" d="M1898,891.9h-15.9c-0.8,0-1.6-0.8-1.6-1.6v-6.4c0-0.8,0.8-1.6,1.6-1.6h15.9c0.8,0,1.6,0.8,1.6,1.6v6.4
			C1899.6,891.1,1898.8,891.9,1898,891.9z"/>
		<path class="st1" d="M1858.3,902.2h-5.6c-0.8,0-1.6-0.8-1.6-1.6v-6.4c0-0.8,0.8-1.6,1.6-1.6h5.6c0.8,0,1.6,0.8,1.6,1.6v6.4
			C1859.8,901.5,1859,902.2,1858.3,902.2z"/>
		<path class="st1" d="M1785.1,891.9h-6.4c-0.8,0-1.6-0.8-1.6-1.6v-6.4c0-0.8,0.8-1.6,1.6-1.6h5.6c0.8,0,1.6,0.8,1.6,1.6v6.4
			C1785.9,891.1,1785.9,891.9,1785.1,891.9z"/>
		<path class="st1" d="M1795.5,891.9h-5.6c-0.8,0-1.6-0.8-1.6-1.6v-6.4c0-0.8,0.8-1.6,1.6-1.6h5.6c0.8,0,1.6,0.8,1.6,1.6v6.4
			C1796.2,891.1,1795.5,891.9,1795.5,891.9z"/>
		<path class="st1" d="M1804.9,891.9h-5.6c-0.8,0-1.6-0.8-1.6-1.6v-6.4c0-0.8,0.8-1.6,1.6-1.6h5.6c0.8,0,1.6,0.8,1.6,1.6v6.4
			C1806.6,891.1,1805.8,891.9,1804.9,891.9z"/>
		<path class="st1" d="M1815.3,891.9h-5.6c-0.8,0-1.6-0.8-1.6-1.6v-6.4c0-0.8,0.8-1.6,1.6-1.6h5.6c0.8,0,1.6,0.8,1.6,1.6v6.4
			C1816.9,891.1,1816.1,891.9,1815.3,891.9z"/>
		<path class="st1" d="M1825.7,891.9h-5.6c-0.8,0-1.6-0.8-1.6-1.6v-6.4c0-0.8,0.8-1.6,1.6-1.6h5.6c0.8,0,1.6,0.8,1.6,1.6v6.4
			C1827.2,891.1,1826.4,891.9,1825.7,891.9z"/>
		<path class="st1" d="M1836,891.9h-5.6c-0.8,0-1.6-0.8-1.6-1.6v-6.4c0-0.8,0.8-1.6,1.6-1.6h5.6c0.8,0,1.6,0.8,1.6,1.6v6.4
			C1837.5,891.1,1836.8,891.9,1836,891.9z"/>
		<path class="st1" d="M1846.3,891.9h-5.6c-0.8,0-1.6-0.8-1.6-1.6v-6.4c0-0.8,0.8-1.6,1.6-1.6h5.6c0.8,0,1.6,0.8,1.6,1.6v6.4
			C1847.9,891.1,1847.1,891.9,1846.3,891.9z"/>
		<path class="st1" d="M1856.6,891.9h-5.6c-0.8,0-1.6-0.8-1.6-1.6v-6.4c0-0.8,0.8-1.6,1.6-1.6h5.6c0.8,0,1.6,0.8,1.6,1.6v6.4
			C1858.3,891.1,1857.4,891.9,1856.6,891.9z"/>
		<path class="st1" d="M1867,891.9h-5.6c-0.8,0-1.6-0.8-1.6-1.6v-6.4c0-0.8,0.8-1.6,1.6-1.6h5.6c0.8,0,1.6,0.8,1.6,1.6v6.4
			C1868.6,891.1,1867.8,891.9,1867,891.9z"/>
		<path class="st1" d="M1877.3,891.9h-5.6c-0.8,0-1.6-0.8-1.6-1.6v-6.4c0-0.8,0.8-1.6,1.6-1.6h5.6c0.8,0,1.6,0.8,1.6,1.6v6.4
			C1878.9,891.1,1878.1,891.9,1877.3,891.9z"/>
		<path class="st1" d="M1859,880.7h-5.6c-0.8,0-1.6-0.8-1.6-1.6v-6.3c0-0.8,0.8-1.6,1.6-1.6h5.6c0.8,0,1.6,0.8,1.6,1.6v6.4
			C1859.8,880.7,1859.8,880.7,1859,880.7z"/>
		<path class="st1" d="M1848.7,880.7h-13.5c-0.8,0-1.6-0.8-1.6-1.6v-6.3c0-0.8,0.8-1.6,1.6-1.6h13.5c0.8,0,1.6,0.8,1.6,1.6v6.4
			C1849.5,880.7,1849.5,880.7,1848.7,880.7z"/>
		<path class="st1" d="M1789.9,880.7h-5.6c-0.8,0-1.6-0.8-1.6-1.6v-6.3c0-0.8,0.8-1.6,1.6-1.6h5.6c0.8,0,1.6,0.8,1.6,1.6v6.4
			C1790.6,880.7,1789.9,880.7,1789.9,880.7z"/>
		<path class="st1" d="M1799.4,880.7h-5.6c-0.8,0-1.6-0.8-1.6-1.6v-6.3c0-0.8,0.8-1.6,1.6-1.6h5.6c0.8,0,1.6,0.8,1.6,1.6v6.4
			C1801,880.7,1800.2,880.7,1799.4,880.7z"/>
		<path class="st1" d="M1809.7,880.7h-5.6c-0.8,0-1.6-0.8-1.6-1.6v-6.3c0-0.8,0.8-1.6,1.6-1.6h5.6c0.8,0,1.6,0.8,1.6,1.6v6.4
			C1811.3,880.7,1810.5,880.7,1809.7,880.7z"/>
		<path class="st1" d="M1820.1,880.7h-5.6c-0.8,0-1.6-0.8-1.6-1.6v-6.3c0-0.8,0.8-1.6,1.6-1.6h5.6c0.8,0,1.6,0.8,1.6,1.6v6.4
			C1821.6,880.7,1820.8,880.7,1820.1,880.7z"/>
		<path class="st1" d="M1830.4,880.7h-5.6c-0.8,0-1.6-0.8-1.6-1.6v-6.3c0-0.8,0.8-1.6,1.6-1.6h5.6c0.8,0,1.6,0.8,1.6,1.6v6.4
			C1832,880.7,1831.2,880.7,1830.4,880.7z"/>
		<path class="st1" d="M1840.7,880.7h-5.6c-0.8,0-1.6-0.8-1.6-1.6v-6.3c0-0.8,0.8-1.6,1.6-1.6h5.6c0.8,0,1.6,0.8,1.6,1.6v6.4
			C1842.4,880.7,1841.5,880.7,1840.7,880.7z"/>
		<path class="st1" d="M1851.1,880.7h-5.6c-0.8,0-1.6-0.8-1.6-1.6v-6.3c0-0.8,0.8-1.6,1.6-1.6h5.6c0.8,0,1.6,0.8,1.6,1.6v6.4
			C1852.7,880.7,1851.9,880.7,1851.1,880.7z"/>
		<path class="st1" d="M1861.4,880.7h-5.6c-0.8,0-1.6-0.8-1.6-1.6v-6.3c0-0.8,0.8-1.6,1.6-1.6h5.6c0.8,0,1.6,0.8,1.6,1.6v6.4
			C1863,880.7,1862.2,880.7,1861.4,880.7z"/>
		<path class="st1" d="M1871.8,880.7h-5.6c-0.8,0-1.6-0.8-1.6-1.6v-6.3c0-0.8,0.8-1.6,1.6-1.6h5.6c0.8,0,1.6,0.8,1.6,1.6v6.4
			C1873.3,880.7,1872.6,880.7,1871.8,880.7z"/>
		<path class="st1" d="M1882.1,880.7h-5.6c-0.8,0-1.6-0.8-1.6-1.6v-6.3c0-0.8,0.8-1.6,1.6-1.6h5.6c0.8,0,1.6,0.8,1.6,1.6v6.4
			C1883.7,880.7,1882.9,880.7,1882.1,880.7z"/>
		<path class="st1" d="M1853.5,870.4h-5.6c-0.8,0-1.6-0.8-1.6-1.6v-6.4c0-0.8,0.8-1.6,1.6-1.6h5.6c0.8,0,1.6,0.8,1.6,1.6v6.4
			C1854.2,870.4,1854.2,870.4,1853.5,870.4z"/>
		<path class="st1" d="M1843.1,870.4h-8.8c-0.8,0-1.6-0.8-1.6-1.6v-6.4c0-0.8,0.8-1.6,1.6-1.6h8.8c0.8,0,1.6,0.8,1.6,1.6v6.4
			C1843.9,870.4,1843.9,870.4,1843.1,870.4z"/>
		<path class="st1" d="M1784.3,870.4h-5.6c-0.8,0-1.6-0.8-1.6-1.6v-6.4c0-0.8,0.8-1.6,1.6-1.6h5.6c0.8,0,1.6,0.8,1.6,1.6v6.4
			C1785.1,870.4,1785.1,870.4,1784.3,870.4z"/>
		<path class="st1" d="M1794.6,870.4h-5.6c-0.8,0-1.6-0.8-1.6-1.6v-6.4c0-0.8,0.8-1.6,1.6-1.6h5.6c0.8,0,1.6,0.8,1.6,1.6v6.4
			C1795.5,870.4,1795.5,870.4,1794.6,870.4z"/>
		<path class="st1" d="M1804.9,870.4h-5.6c-0.8,0-1.6-0.8-1.6-1.6v-6.4c0-0.8,0.8-1.6,1.6-1.6h5.6c0.8,0,1.6,0.8,1.6,1.6v6.4
			C1805.8,870.4,1805.8,870.4,1804.9,870.4z"/>
		<path class="st1" d="M1815.3,870.4h-5.6c-0.8,0-1.6-0.8-1.6-1.6v-6.4c0-0.8,0.8-1.6,1.6-1.6h5.6c0.8,0,1.6,0.8,1.6,1.6v6.4
			C1816.1,870.4,1816.1,870.4,1815.3,870.4z"/>
		<path class="st1" d="M1825.7,870.4h-5.6c-0.8,0-1.6-0.8-1.6-1.6v-6.4c0-0.8,0.8-1.6,1.6-1.6h5.6c0.8,0,1.6,0.8,1.6,1.6v6.4
			C1826.4,870.4,1826.4,870.4,1825.7,870.4z"/>
		<path class="st1" d="M1836,870.4h-5.6c-0.8,0-1.6-0.8-1.6-1.6v-6.4c0-0.8,0.8-1.6,1.6-1.6h5.6c0.8,0,1.6,0.8,1.6,1.6v6.4
			C1836.8,870.4,1836.8,870.4,1836,870.4z"/>
		<path class="st1" d="M1846.3,870.4h-5.6c-0.8,0-1.6-0.8-1.6-1.6v-6.4c0-0.8,0.8-1.6,1.6-1.6h5.6c0.8,0,1.6,0.8,1.6,1.6v6.4
			C1847.1,870.4,1847.1,870.4,1846.3,870.4z"/>
		<path class="st1" d="M1856.6,870.4h-6.4c-0.8,0-1.6-0.8-1.6-1.6v-6.4c0-0.8,0.8-1.6,1.6-1.6h5.6c0.8,0,1.6,0.8,1.6,1.6v6.4
			C1857.4,870.4,1857.4,870.4,1856.6,870.4z"/>
		<path class="st1" d="M1867,870.4h-5.6c-0.8,0-1.6-0.8-1.6-1.6v-6.4c0-0.8,0.8-1.6,1.6-1.6h5.6c0.8,0,1.6,0.8,1.6,1.6v6.4
			C1867.8,870.4,1867,870.4,1867,870.4z"/>
		<path class="st1" d="M1876.5,870.4h-5.6c-0.8,0-1.6-0.8-1.6-1.6v-6.4c0-0.8,0.8-1.6,1.6-1.6h5.6c0.8,0,1.6,0.8,1.6,1.6v6.4
			C1878.1,870.4,1877.3,870.4,1876.5,870.4z"/>
		<path class="st1" d="M1886.8,870.4h-5.6c-0.8,0-1.6-0.8-1.6-1.6v-6.4c0-0.8,0.8-1.6,1.6-1.6h5.6c0.8,0,1.6,0.8,1.6,1.6v6.4
			C1888.5,870.4,1887.6,870.4,1886.8,870.4z"/>
		<path class="st1" d="M1897.2,870.4h-5.6c-0.8,0-1.6-0.8-1.6-1.6v-6.4c0-0.8,0.8-1.6,1.6-1.6h5.6c0.8,0,1.6,0.8,1.6,1.6v6.4
			C1898.8,870.4,1898,870.4,1897.2,870.4z"/>
		<path class="st1" d="M1840.7,860.1h-5.6c-0.8,0-1.6-0.8-1.6-1.6v-6.4c0-0.8,0.8-1.6,1.6-1.6h5.6c0.8,0,1.6,0.8,1.6,1.6v6.4
			C1842.4,860.1,1841.5,860.1,1840.7,860.1z"/>
		<path class="st1" d="M1851.1,860.1h-5.6c-0.8,0-1.6-0.8-1.6-1.6v-6.4c0-0.8,0.8-1.6,1.6-1.6h5.6c0.8,0,1.6,0.8,1.6,1.6v6.4
			C1852.7,860.1,1851.9,860.1,1851.1,860.1z"/>
		<path class="st1" d="M1861.4,860.1h-5.6c-0.8,0-1.6-0.8-1.6-1.6v-6.4c0-0.8,0.8-1.6,1.6-1.6h5.6c0.8,0,1.6,0.8,1.6,1.6v6.4
			C1862.2,860.1,1862.2,860.1,1861.4,860.1z"/>
		<path class="st1" d="M1792.3,860.1h-5.6c-0.8,0-1.6-0.8-1.6-1.6v-6.4c0-0.8,0.8-1.6,1.6-1.6h5.6c0.8,0,1.6,0.8,1.6,1.6v6.4
			C1793,860.1,1793,860.1,1792.3,860.1z"/>
		<path class="st1" d="M1802.6,860.1h-5.6c-0.8,0-1.6-0.8-1.6-1.6v-6.4c0-0.8,0.8-1.6,1.6-1.6h5.6c0.8,0,1.6,0.8,1.6,1.6v6.4
			C1803.4,860.1,1803.4,860.1,1802.6,860.1z"/>
		<path class="st1" d="M1812.9,860.1h-5.6c-0.8,0-1.6-0.8-1.6-1.6v-6.4c0-0.8,0.8-1.6,1.6-1.6h5.6c0.8,0,1.6,0.8,1.6,1.6v6.4
			C1813.7,860.1,1812.9,860.1,1812.9,860.1z"/>
		<path class="st1" d="M1823.3,860.1h-5.6c-0.8,0-1.6-0.8-1.6-1.6v-6.4c0-0.8,0.8-1.6,1.6-1.6h5.6c0.8,0,1.6,0.8,1.6,1.6v6.4
			C1824,860.1,1823.3,860.1,1823.3,860.1z"/>
		<path class="st1" d="M1833.6,860.1h-5.6c-0.8,0-1.6-0.8-1.6-1.6v-6.4c0-0.8,0.8-1.6,1.6-1.6h5.6c0.8,0,1.6,0.8,1.6,1.6v6.4
			C1834.4,860.1,1833.6,860.1,1833.6,860.1z"/>
		<path class="st1" d="M1843.9,860.1h-5.6c-0.8,0-1.6-0.8-1.6-1.6v-6.4c0-0.8,0.8-1.6,1.6-1.6h5.6c0.8,0,1.6,0.8,1.6,1.6v6.4
			C1844.7,860.1,1843.9,860.1,1843.9,860.1z"/>
		<path class="st1" d="M1853.5,860.1h-5.6c-0.8,0-1.6-0.8-1.6-1.6v-6.4c0-0.8,0.8-1.6,1.6-1.6h5.6c0.8,0,1.6,0.8,1.6,1.6v6.4
			C1855.1,860.1,1854.2,860.1,1853.5,860.1z"/>
		<path class="st1" d="M1863.8,860.1h-5.6c-0.8,0-1.6-0.8-1.6-1.6v-6.4c0-0.8,0.8-1.6,1.6-1.6h5.6c0.8,0,1.6,0.8,1.6,1.6v6.4
			C1865.4,860.1,1864.6,860.1,1863.8,860.1z"/>
		<path class="st1" d="M1874.1,860.1h-5.6c-0.8,0-1.6-0.8-1.6-1.6v-6.4c0-0.8,0.8-1.6,1.6-1.6h5.6c0.8,0,1.6,0.8,1.6,1.6v6.4
			C1875.7,860.1,1875,860.1,1874.1,860.1z"/>
		<path class="st1" d="M1884.4,860.1h-5.6c-0.8,0-1.6-0.8-1.6-1.6v-6.4c0-0.8,0.8-1.6,1.6-1.6h5.6c0.8,0,1.6,0.8,1.6,1.6v6.4
			C1886.1,860.1,1885.3,860.1,1884.4,860.1z"/>
		<path class="st1" d="M1840.7,850.5h-6.4c-0.8,0-1.6-0.8-1.6-1.6v-1.6c0-0.8,0.8-1.6,1.6-1.6h6.4c0.8,0,1.6,0.8,1.6,1.6v1.6
			C1842.4,849.7,1841.5,850.5,1840.7,850.5z"/>
		<path class="st1" d="M1851.1,850.5h-6.4c-0.8,0-1.6-0.8-1.6-1.6v-1.6c0-0.8,0.8-1.6,1.6-1.6h6.4c0.8,0,1.6,0.8,1.6,1.6v1.6
			C1852.7,849.7,1851.9,850.5,1851.1,850.5z"/>
		<path class="st1" d="M1862.2,850.5h-6.4c-0.8,0-1.6-0.8-1.6-1.6v-1.6c0-0.8,0.8-1.6,1.6-1.6h6.4c0.8,0,1.6,0.8,1.6,1.6v1.6
			C1863,849.7,1862.2,850.5,1862.2,850.5z"/>
		<path class="st1" d="M1793,850.5h-6.4c-0.8,0-1.6-0.8-1.6-1.6v-1.6c0-0.8,0.8-1.6,1.6-1.6h6.4c0.8,0,1.6,0.8,1.6,1.6v1.6
			C1793.8,849.7,1793.8,850.5,1793,850.5z"/>
		<path class="st1" d="M1803.4,850.5h-6.4c-0.8,0-1.6-0.8-1.6-1.6v-1.6c0-0.8,0.8-1.6,1.6-1.6h6.4c0.8,0,1.6,0.8,1.6,1.6v1.6
			C1804.9,849.7,1804.2,850.5,1803.4,850.5z"/>
		<path class="st1" d="M1813.7,850.5h-6.4c-0.8,0-1.6-0.8-1.6-1.6v-1.6c0-0.8,0.8-1.6,1.6-1.6h6.4c0.8,0,1.6,0.8,1.6,1.6v1.6
			C1815.3,849.7,1814.5,850.5,1813.7,850.5z"/>
		<path class="st1" d="M1824,850.5h-5.6c-0.8,0-1.6-0.8-1.6-1.6v-1.6c0-0.8,0.8-1.6,1.6-1.6h6.4c0.8,0,1.6,0.8,1.6,1.6v1.6
			C1825.7,849.7,1824.8,850.5,1824,850.5z"/>
		<path class="st1" d="M1835.2,850.5h-6.4c-0.8,0-1.6-0.8-1.6-1.6v-1.6c0-0.8,0.8-1.6,1.6-1.6h6.4c0.8,0,1.6,0.8,1.6,1.6v1.6
			C1836,849.7,1836,850.5,1835.2,850.5z"/>
		<path class="st1" d="M1845.5,850.5h-6.4c-0.8,0-1.6-0.8-1.6-1.6v-1.6c0-0.8,0.8-1.6,1.6-1.6h6.4c0.8,0,1.6,0.8,1.6,1.6v1.6
			C1847.1,849.7,1846.3,850.5,1845.5,850.5z"/>
		<path class="st1" d="M1855.9,850.5h-5.6c-0.8,0-1.6-0.8-1.6-1.6v-1.6c0-0.8,0.8-1.6,1.6-1.6h6.4c0.8,0,1.6,0.8,1.6,1.6v1.6
			C1857.4,849.7,1856.6,850.5,1855.9,850.5z"/>
		<path class="st1" d="M1866.2,850.5h-6.4c-0.8,0-1.6-0.8-1.6-1.6v-1.6c0-0.8,0.8-1.6,1.6-1.6h6.4c0.8,0,1.6,0.8,1.6,1.6v1.6
			C1867.8,849.7,1867,850.5,1866.2,850.5z"/>
		<path class="st1" d="M1877.3,850.5h-6.4c-0.8,0-1.6-0.8-1.6-1.6v-1.6c0-0.8,0.8-1.6,1.6-1.6h6.4c0.8,0,1.6,0.8,1.6,1.6v1.6
			C1878.1,849.7,1877.3,850.5,1877.3,850.5z"/>
		<path class="st1" d="M1887.6,850.5h-6.4c-0.8,0-1.6-0.8-1.6-1.6v-1.6c0-0.8,0.8-1.6,1.6-1.6h6.4c0.8,0,1.6,0.8,1.6,1.6v1.6
			C1889.3,849.7,1888.5,850.5,1887.6,850.5z"/>
		<path class="st1" d="M1898,850.5h-6.4c-0.8,0-1.6-0.8-1.6-1.6v-1.6c0-0.8,0.8-1.6,1.6-1.6h6.4c0.8,0,1.6,0.8,1.6,1.6v1.6
			C1899.6,849.7,1898.8,850.5,1898,850.5z"/>
		<path class="st1" d="M1898,860.1h-8.8c-0.8,0-1.6-0.8-1.6-1.6v-6.4c0-0.8,0.8-1.6,1.6-1.6h8.8c0.8,0,1.6,0.8,1.6,1.6v6.4
			C1899.6,860.1,1898.8,860.1,1898,860.1z"/>
		<path class="st1" d="M1898,880.7h-11.2c-0.8,0-1.6-0.8-1.6-1.6v-6.3c0-0.8,0.8-1.6,1.6-1.6h11.1c0.8,0,1.6,0.8,1.6,1.6v6.4
			C1899.6,880.7,1898.8,880.7,1898,880.7z"/>
		<path class="st1" d="M1898,902.2h-9.5c-0.8,0-1.6-0.8-1.6-1.6v-6.4c0-0.8,0.8-1.6,1.6-1.6h9.5c0.8,0,1.6,0.8,1.6,1.6v6.4
			C1899.6,901.5,1898.8,902.2,1898,902.2z"/>
		<path class="st1" d="M1874.1,902.2h-9.5c-0.8,0-1.6-0.8-1.6-1.6v-6.4c0-0.8,0.8-1.6,1.6-1.6h9.5c0.8,0,1.6,0.8,1.6,1.6v6.4
			C1875,901.5,1874.1,902.2,1874.1,902.2z"/>
		<path class="st1" d="M1883.7,902.2h-5.6c-0.8,0-1.6-0.8-1.6-1.6v-6.4c0-0.8,0.8-1.6,1.6-1.6h5.6c0.8,0,1.6,0.8,1.6,1.6v6.4
			C1885.3,901.5,1884.4,902.2,1883.7,902.2z"/>
	</g>
	<g>
		<path class="st1" d="M831,338.9c0,2,2,8.2,4.1,8.2c3.1,0,3.1,0,3.1-4.1s-1-25.5-1-25.5l-4.1-4.1c0,0-1,1-2,4.1
			C829.9,319.5,831,338.9,831,338.9z"/>
		<path class="st1" d="M846.2,302.2c-1,2,0,21.4,0,21.4c0,2,2,8.2,4.1,8.2c3.1,0,3.1,0,3.1-4.1s-1-25.5-1-25.5l-4.1-4.1
			C848.3,298.1,847.2,299.1,846.2,302.2z"/>
		<path class="st1" d="M855.4,313.5c-1,2,2,21.4,2,21.4c0,2,2,8.2,5.1,8.2s3.1,0,3.1-4.1s-4.1-25.5-4.1-25.5l-4.1-3.1
			C857.5,309.4,856.5,310.4,855.4,313.5z"/>
		<path class="st1" d="M873.8,325.7c0,2,6.1,20.4,6.1,20.4c1,2,4.1,8.2,6.1,7.2c3.1-1,3.1-1,2-5.1c-1-4.1-8.2-24.5-8.2-24.5
			l-5.1-3.1C874.8,321.6,873.8,323.6,873.8,325.7z"/>
		<path class="st1" d="M857.5,294.1L833,313.5c0,0,3.1,2,4.1,4.1c1,2,25.5-16.3,25.5-16.3L857.5,294.1z"/>
		<path class="st1" d="M864.6,302.2l-22.4,21.4c0,0,3.1,2,4.1,3.1c2,2,23.5-19.4,23.5-19.4L864.6,302.2z"/>
		<path class="st1" d="M842.2,350.1c0,2,2,8.2,5.1,8.2s3.1,0,3.1-4.1s-4.1-25.5-4.1-25.5l-4.1-3.1c0,0-1,2-2,4.1
			C839.1,331.8,842.2,350.1,842.2,350.1z"/>
		<path class="st1" d="M875.8,313.5L859.5,337c0,0,3.1,1,5.1,3.1c2,1,20.4-23.5,20.4-23.5L875.8,313.5z"/>
		<path class="st1" d="M864.6,361.3c1,2,4.1,8.2,6.1,7.2s3.1-1,2-5.1s-8.2-24.5-8.2-24.5l-5.1-3.1c0,0-1,2-1,4.1
			C858.5,343,864.6,361.3,864.6,361.3z"/>
		<circle class="st1" cx="1201" cy="406.2" r="16.3"/>
		<path class="st1" d="M1108.2,232.9c0,1-1,2-1,4.1c0,4.1,4.1,8.2,8.2,8.2c3.1,0,5.1-1,6.1-3.1
			C1117.4,239,1112.3,235.9,1108.2,232.9z"/>
		<path class="st1" d="M1116.4,218.6c-6.1,0-11.2,3.1-14.2,7.2c7.2,10.2,18.3,17.3,30.6,19.4c1-2,2-5.1,2-8.2
			C1133.7,226.8,1125.6,218.6,1116.4,218.6z"/>
		<path class="st1" d="M954.3,245.2c-1-3.1-2-4.1-2-4.1S953.3,243.1,954.3,245.2L954.3,245.2z"/>
		<g>
			<path class="st1" d="M926.8,302.2c0,0-4.1-8.2-6.1-12.2c-2-4.1-7.2-11.2-12.2-13.2c-5.1-3.1-30.6-7.2-30.6-7.2
				c-3.1,0-3.1,4.1-5.1,6.1c-1,1,0,3.1,1,5.1l-1-2l-24.5,19.4c0,0,3.1,2,4.1,4.1c1,2,25.5-16.3,25.5-16.3c1,2,3.1,4.1,5.1,6.1
				l-4.1-4.1l-22.4,21.4c0,0,3.1,2,4.1,3.1c2,1,23.5-18.3,23.5-19.4l1,1c2,2,14.2,6.1,17.3,7.2c4.1,0,7.2,0,7.2,0l10.2,60.1H934
				L926.8,302.2z"/>
			<path class="st1" d="M900.3,301.2l-8.2-3.1l-16.3,23.5c0,0,3.1,1,5.1,3.1C880.9,325.7,900.3,301.2,900.3,301.2z"/>
			<path class="st0" d="M1217.3,368.5L1217.3,368.5l-21.4-8.2l0,0c-2,0-4.1-1-6.1-1c-1,0-3.1,0-4.1,0h-22.4
				c-2-9.2-12.2-16.3-23.5-16.3c-1,0-2,0-4.1,0c0-27.5,0-89.7,0-106c5.1-1,9.2-5.1,11.2-9.2c1-2,2-5.1,2-8.2c0,0,0,0,0-1
				c0,1,0,1,0,1h1c3.1,0,10.2-1,16.3-6.1c5.1-5.1,6.1-12.2,6.1-14.2h-2c0,2-1,8.2-5.1,13.2c-6.1,6.1-14.2,6.1-15.3,6.1l0,0
				c0-1,0-1,0-2l0,0c2,0,9.2-1,14.2-8.2c4.1-5.1,3.1-11.2,3.1-13.2h-2c0,2,0,7.2-3.1,12.2c-4.1,6.1-11.2,7.2-12.2,7.2c0,0,0,1,0,2
				c0-2-1-3.1-2-4.1v1c1,0,7.2-3.1,9.2-9.2c2-5.1,0-10.2-1-12.2l-2,1c1,2,2,6.1,1,10.2c-2,6.1-7.2,8.2-8.2,8.2l0,0l0,0
				c-3.1-5.1-9.2-9.2-16.3-9.2c-6.1,0-11.2,3.1-14.2,7.2c-2,3.1-4.1,7.2-4.1,11.2c0,8.2,6.1,15.3,13.2,17.3v98.9l-4.1-1l0,0
				c-2,0-4.1-1-6.1-1c-1,0-3.1,0-4.1,0h-69.3c-8.2-21.4-50-125.4-50-125.4l-25.5,14.2c0,0,0,2,1,5.1l-32.6,131.5l10.2,4.1
				l31.6-103.9c7.2,25.5,15.3,57,20.4,75.5c-13.2,4.1-23.5,15.3-23.5,28.6c0,14.2,11.2,25.5,25.5,29.6l15.3,6.1l0,0
				c5.1,2,10.2,4.1,16.3,4.1c4.1,0,8.2-1,12.2-2h2c4.1,9.2,13.2,17.3,24.5,19.4l16.3,6.1l0,0c5.1,2,10.2,4.1,16.3,4.1
				c4.1,0,8.2-1,12.2-2l96.9-15.3c13.2,0,24.5-10.2,24.5-21.4C1238.7,379.7,1229.5,370.5,1217.3,368.5z"/>
			<path class="st1" d="M896.2,316.5h15.3l9.2,60.1h-14.2L896.2,316.5z"/>
			<path class="st1" d="M863.6,283.9c0,0,25.5,4.1,30.6,7.2s9.2,9.2,12.2,13.2c2,4.1,6.1,12.2,6.1,12.2h-15.3c0,0-3.1,0-7.2,0
				s-16.3-5.1-17.3-7.2c-2-2-6.1-6.1-8.2-9.2c-2-3.1-7.2-7.2-5.1-10.2C860.5,288,860.5,283.9,863.6,283.9z"/>
			<circle class="st1" cx="1086.8" cy="415.4" r="22.4"/>
			<path class="st1" d="M1111.3,373.6h-83.6"/>
			<path class="st1" d="M1198.9,383.7c-1,0-3.1,0-4.1,0h-99.9c-2,0-3.1,0-5.1,0s-3.1,0-5.1,0c-17.3,2-29.6,15.3-29.6,30.6
				c0,17.3,15.3,30.6,34.6,30.6c4.1,0,8.2-1,12.2-2l96.9-15.3c13.2,0,24.5-10.2,24.5-21.4C1224.4,394,1213.3,383.7,1198.9,383.7z"/>
			<path class="st1" d="M1120.5,359.3c0,7.2,0,12.2,0,13.2s-1,2-2,3.1h28.6c-2-9.2-12.2-16.3-23.5-16.3
				C1123.5,359.3,1122.5,359.3,1120.5,359.3z"/>
			<path class="st1" d="M1111.3,254.3v118.3c0,1,0,2,1,3.1h7.2c1-1,2-2,2-3.1c0-4.1,0-98.9,0-119.3c5.1-1,9.2-5.1,11.2-9.2
				c-12.2-2-23.5-9.2-30.6-19.4c-2,3.1-4.1,7.2-4.1,11.2C1098,245.2,1103.2,252.2,1111.3,254.3z"/>
			<path class="st1" d="M1055.2,414.3c0-15.3,13.2-28.6,29.6-30.6c2,0,3.1,0,5.1,0s3.1,0,5.1,0h99.9c1,0,3.1,0,4.1,0s2,0,3.1,0
				l-21.4-8.2l0,0c-2,0-4.1-1-6.1-1c-1,0-3.1,0-4.1,0h-99.9c-2,0-3.1,0-5.1,0s-3.1,0-5.1,0c-17.3,2-29.6,15.3-29.6,30.6
				c0,14.2,11.2,26.5,26.5,29.6l16.3,6.1l0,0C1062.4,436.8,1055.2,426.5,1055.2,414.3z"/>
			<path class="st1" d="M1107.2,352.2c-2,0-4.1-1-6.1-1c-1,0-3.1,0-4.1,0h-69.3c1,2,1,3.1,1,3.1c1,2,1,3.1,1,4.1h80.5v-6.1
				L1107.2,352.2z"/>
			<path class="st1" d="M1137.8,373.6h-17.3c0,1-1,2-1,2h24.5L1137.8,373.6z"/>
			<path class="st1" d="M1005.3,384.8L1005.3,384.8L1005.3,384.8z"/>
			<path class="st1" d="M1006.3,387.8L1006.3,387.8L1006.3,387.8z"/>
			<path class="st1" d="M1006.3,386.8L1006.3,386.8L1006.3,386.8z"/>
			<path class="st1" d="M1006.3,386.8L1006.3,386.8L1006.3,386.8z"/>
			<path class="st1" d="M1005.3,384.8C1005.3,385.8,1005.3,385.8,1005.3,384.8C1005.3,385.8,1005.3,385.8,1005.3,384.8z"/>
			<path class="st1" d="M1005.3,385.8L1005.3,385.8L1005.3,385.8z"/>
			<path class="st1" d="M1009.4,391.9L1009.4,391.9L1009.4,391.9z"/>
			<path class="st1" d="M1006.3,388.8L1006.3,388.8L1006.3,388.8z"/>
			<path class="st1" d="M998.1,366.4v-1V366.4z"/>
			<path class="st1" d="M1006.3,387.8C1006.3,387.8,1006.3,388.8,1006.3,387.8C1006.3,388.8,1006.3,387.8,1006.3,387.8z"/>
			<path class="st1" d="M1009.4,391.9C1009.4,391.9,1010.4,391.9,1009.4,391.9C1010.4,391.9,1009.4,391.9,1009.4,391.9z"/>
			<path class="st1" d="M1002.2,377.7L1002.2,377.7L1002.2,377.7z"/>
			<path class="st1" d="M1002.2,375.6C1002.2,375.6,1002.2,376.7,1002.2,375.6C1002.2,376.7,1002.2,375.6,1002.2,375.6z"/>
			<path class="st1" d="M1001.2,374.6L1001.2,374.6C1001.2,375.6,1001.2,374.6,1001.2,374.6z"/>
			<path class="st1" d="M1002.2,376.7L1002.2,376.7C1002.2,377.7,1002.2,376.7,1002.2,376.7z"/>
			<path class="st1" d="M1001.2,373.6C1001.2,373.6,1001.2,374.6,1001.2,373.6C1001.2,374.6,1001.2,373.6,1001.2,373.6z"/>
			<path class="st1" d="M1005.3,383.7C1005.3,384.8,1005.3,384.8,1005.3,383.7C1005.3,384.8,1005.3,383.7,1005.3,383.7z"/>
			<path class="st1" d="M998.1,366.4c1,2,1,3.1,2,4.1C999.1,369.5,999.1,368.5,998.1,366.4z"/>
			<path class="st1" d="M1000.1,371.5c0,1,0,1,1,2C1000.1,372.6,1000.1,371.5,1000.1,371.5z"/>
			<path class="st1" d="M1111.3,372.6v-13.2h-80.5c0,3.1,0,5.1-1,8.2c-1,5.1-7.2,13.2-12.2,20.4c-3.1,5.1-5.1,5.1-7.2,4.1
				c-2-1-13.2-8.2-16.3-11.2c-2-2-3.1-5.1-4.1-8.2c-3.1,4.1-5.1,10.2-5.1,15.3c0,16.3,15.3,30.6,33.6,30.6c4.1,0,8.2-1,12.2-2h2
				c-1-3.1-2-7.2-2-10.2c0-15.3,13.2-28.6,29.6-30.6c2,0,3.1,0,5.1,0s3.1,0,5.1,0h41.8C1111.3,375.6,1111.3,374.6,1111.3,372.6z"/>
			<path class="st1" d="M1004.2,381.7L1004.2,381.7C1004.2,382.7,1004.2,381.7,1004.2,381.7z"/>
			<path class="st1" d="M1004.2,382.7L1004.2,382.7L1004.2,382.7z"/>
			<path class="st1" d="M1004.2,383.7L1004.2,383.7L1004.2,383.7z"/>
			<path class="st1" d="M1004.2,380.7C1004.2,381.7,1004.2,381.7,1004.2,380.7C1004.2,381.7,1004.2,381.7,1004.2,380.7z"/>
			<path class="st1" d="M1003.2,379.7L1003.2,379.7L1003.2,379.7z"/>
			<path class="st1" d="M1003.2,380.7C1003.2,380.7,1004.2,380.7,1003.2,380.7L1003.2,380.7z"/>
			<path class="st1" d="M1003.2,378.7L1003.2,378.7L1003.2,378.7z"/>
			<path class="st1" d="M984.9,388.8c0-6.1,2-11.2,5.1-15.3c-1-2-1-4.1-2-6.1c0-1-2-6.1-4.1-15.3c-13.2,4.1-23.5,15.3-23.5,28.6
				c0,14.2,11.2,25.5,25.5,29.6l15.3,6.1l0,0C992,410.3,984.9,401.1,984.9,388.8z"/>
			<path class="st1" d="M998.1,365.4c-2-4.1-3.1-9.2-5.1-14.2C994.1,356.3,996.1,361.3,998.1,365.4z"/>
			<path class="st1" d="M1009.4,391.9C1009.4,391.9,1010.4,391.9,1009.4,391.9C1010.4,391.9,1009.4,391.9,1009.4,391.9z"/>
			<path class="st1" d="M1007.3,388.8L1007.3,388.8L1007.3,388.8z"/>
			<path class="st1" d="M1006.3,388.8L1006.3,388.8L1006.3,388.8z"/>
			<path class="st1" d="M1009.4,391.9L1009.4,391.9L1009.4,391.9z"/>
			<path class="st1" d="M1005.3,384.8c-1-2-2-4.1-3.1-7.2C1003.2,379.7,1004.2,382.7,1005.3,384.8z"/>
			<path class="st1" d="M1005.3,384.8L1005.3,384.8L1005.3,384.8z"/>
			<path class="st1" d="M1006.3,387.8C1006.3,387.8,1006.3,388.8,1006.3,387.8C1006.3,388.8,1006.3,387.8,1006.3,387.8z"/>
			<path class="st1" d="M1005.3,384.8v1C1006.3,385.8,1005.3,385.8,1005.3,384.8z"/>
			<path class="st1" d="M1022.6,380.7c-2,2-3.1,5.1-5.1,8.2c-3.1,5.1-5.1,5.1-7.2,4.1c-1-1-4.1-3.1-8.2-5.1v5.1l28.6,10.2
				c1-6.1,3.1-12.2,7.2-16.3L1022.6,380.7z"/>
			<path class="st1" d="M1006.3,387.8L1006.3,387.8L1006.3,387.8z"/>
			<path class="st1" d="M1006.3,386.8C1006.3,387.8,1006.3,387.8,1006.3,386.8C1006.3,387.8,1006.3,386.8,1006.3,386.8z"/>
			<path class="st1" d="M1006.3,386.8L1006.3,386.8L1006.3,386.8z"/>
			<path class="st1" d="M1007.3,388.8c-2-3.1-27.5-73.4-42.8-116.2l-1,4.1c10.2,36.7,23.5,86.6,25.5,90.7c2,6.1,3.1,10.2,6.1,13.2
				c3.1,3.1,14.2,10.2,16.3,11.2C1009.4,391.9,1008.3,390.9,1007.3,388.8z"/>
			<path class="st1" d="M954.3,245.2l-33.6,131.5l10.2,4.1l32.6-108C959.4,260.4,956.3,250.2,954.3,245.2z"/>
			<path class="st1" d="M952.3,241.1c0,0,52,143.7,54,147.8c3.1,4.1,6.1,8.2,10.2,0c5.1-8.2,10.2-15.3,12.2-20.4c1-5.1,2-7.2,0-13.2
				c-2-6.1-52-128.4-52-128.4L952.3,241.1z"/>
		</g>
		<path class="st1" d="M1135.7,237h-1v-2l0,0c2,0,9.2,0,15.3-6.1c5.1-5.1,5.1-10.2,5.1-13.2h2c0,2-1,9.2-6.1,14.2
			C1146,235.9,1138.8,237,1135.7,237z"/>
		<path class="st1" d="M1133.7,230.8c1,0,8.2-1,12.2-7.2c3.1-5.1,3.1-10.2,3.1-12.2h2c0,2,0,8.2-3.1,13.2
			c-4.1,6.1-11.2,8.2-14.2,8.2C1133.7,232.9,1133.7,230.8,1133.7,230.8z"/>
		<path class="st1" d="M1132.7,229.8l-1-2l0,0c1,0,6.1-2,8.2-8.2c1-4.1,0-9.2-1-10.2l2-1c1,2,2,7.2,1,12.2
			C1139.8,226.8,1133.7,228.8,1132.7,229.8z"/>
	</g>
	<g>
		<path class="st0" d="M656.9,974.1c-1.8,2.7-0.6,4.3,1.3,6.7c2.5,3.2,3.3,2.6,4.5,4.2c1.2,1.6,5.2,5.1,5,6.5s0.4,2.2,1.1,3.1
			c0.6,0.8,1.2,1.6,1.1,3.1c0.6,0.8,1.2,1.6,1.2,1.6c0.6,0.8,2.7,1.8,2.7,1.8s2.2-0.4,3.1-1.1c0.8-0.6-1,2-0.4,2.8
			c0,0,0.4,2.2,1.1,3.1c0.7,0.9,1.9,7.6,3.1,9.1c1.2,1.6,3.1,4,3.7,4.8c0,0,4.4,5.7,5.6,7.3s0.9,4.5,2.3,4.6
			c0.8-0.6,3.2-2.5,3.8-1.7c0.6,0.8-1,2-1.2,3.5c0.6,0.8,3.1,4,4.5,4.2c0.6,0.8,1.2,1.6,2.5,3.2c1.2,1.6,3.3,2.6,2.5,3.2
			c-0.2,1.4-0.4,2.8,0.3,3.7c0.6,0.8,1-2,3.2-2.5c2.2-0.4,6.6,5.3,7.8,6.8c1.2,1.6,1.1,3.1,2.9,5.4c2.5,3.2,3.7,4.8,6.1,2.9
			c3.1-1.1,59.5-54.7,59.5-54.7s0.6,0.8,1.4,0.2s3.2-2.5,4-3.1s1.2,1.6,3.7-0.3c1.6-1.2,0.4-2.8,1.2-3.5c0.8-0.6,16.2-12.4,17-13
			s2.8,0.4,4.5-0.9s0.4-2.8,1.2-3.5c0.9-0.7,4-3.1,3.4-3.9c-0.6-0.8,0.4-2.8,1.2-3.5c1.6-1.2,2-4.1,0.8-5.7
			c-1.2-1.6-2.5-3.2-2.9-5.4c-1.1-3.1-1.7-9-0.6-17.5c0.9-7.1,14.1-18.5,20.1-25.7c6.1-7.2,23.7-14.3,40.8-22.3
			c17-7.9,27.7-22.5,33.9-31.2c5.6-9.4,4.1-19.8,2.2-22.3l0,0c-1.9-2.4-11.5-6.6-22.1-3.6c-10.5,2.9-26.8,10.3-38.9,24.7
			c-12,14.4-22.7,29-32,33.6c-8.5,4-22.9,13.7-30,12.7c-7.9-0.3-14.1-3.3-16.7-5.1c-2.7-1.8-2.5-3.2-4.5-4.2c-1.2-1.6-4.1-2-5.7-0.8
			s-2.4,1.9-3.7,0.3c-0.6-0.8-3.8,1.7-4.6,2.3c-0.8,0.6-2.8-0.4-3.7,0.3c-0.9,0.7-0.4,2.8-2,4.1c-0.8,0.6-17,13-17,13
			c-0.8,0.6-2-1-3.7,0.3s-0.4,2.8-1.2,3.5c-0.9,0.7-3.2,2.5-4,3.1s-0.2,1.4-0.2,1.4S659.5,970.8,656.9,974.1z M896,853.6
			c2.4-1.9,6.7-1.3,8.5,1.1c1.9,2.4,1.3,6.7-1.1,8.5c-2.4,1.9-6.7,1.3-8.5-1.1C892.9,859.8,893.5,855.5,896,853.6z"/>
		<path class="st1" d="M801.2,1009.8c0.8-0.6,3.2-2.5,4-3.1s1.2,1.6,3.7-0.3c2.4-1.9,0.4-2.8,1.2-3.5c0.9-0.7,16.2-12.4,17-13
			s2.8,0.4,4.5-0.9c1.6-1.2,0.4-2.8,1.2-3.5c0.8-0.6,4-3.1,3.4-3.9c-0.6-0.8,0.4-2.8,1.2-3.5c0.8-0.6,2-4.1,0.8-5.7
			c-1.2-1.6-2.5-3.2-2.9-5.4c-1.1-3.1-1.7-9-0.6-17.5c0.9-7.1,14.1-18.5,20.1-25.7c6.8-7.8,23.7-14.3,40.8-22.3
			c17-7.9,27.7-22.5,33.9-31.2c6.2-8.6,4.1-19.8,2.2-22.3l0,0c-1.9-2.4-11.5-6.6-22.1-3.6c-10.5,2.9-26.8,10.3-38.9,24.7
			c-12,14.4-22.7,29-32,33.6c-8.5,4-22.9,13.7-30,12.7c-7.1-0.9-14.1-3.3-16.7-5.1c-2.7-1.8-2.5-3.2-4.5-4.2c-1.2-1.6-4.1-2-5.7-0.8
			s-2.4,1.9-3.7,0.3c-1.2-1.6-3.8,1.7-4.6,2.3c-0.8,0.6-2.8-0.4-3.7,0.3c-0.8,0.6-0.4,2.8-2,4.1c-0.8,0.6-17,13-17,13
			c-0.8,0.6-2-1-3.7,0.3s-0.4,2.8-1.2,3.5c-0.8,0.6-3.2,2.5-4,3.1s-0.2,1.4-0.2,1.4s-66.4,40.7-68.2,43.3c-1.8,2.7-0.6,4.3,1.3,6.7
			c2.5,3.2,3.3,2.6,4.5,4.2s5.2,5.1,5,6.5s0.4,2.2,1.1,3.1c0.6,0.8,1.2,1.6,1.1,3.1c0.6,0.8,1.2,1.6,1.2,1.6
			c0.6,0.8,2.7,1.8,2.7,1.8s2.2-0.4,3.1-1.1c0.9-0.7-1,2-0.4,2.8c0,0,0.4,2.2,1.1,3.1c0.7,0.9,1.9,7.6,3.1,9.1
			c0.6,0.8,3.1,4,3.7,4.8c0,0,4.4,5.7,5.6,7.3c1.1,3.1,0.9,4.5,2.3,4.6c0.8-0.6,3.2-2.5,3.8-1.7c0.6,0.8-1,2-1.2,3.5
			c0.6,0.8,3.1,4,4.5,4.2c0.6,0.8,1.2,1.6,2.5,3.2c1.2,1.6,3.3,2.6,2.5,3.2c-0.2,1.4-0.4,2.8,0.3,3.7c0.6,0.8,1-2,3.2-2.5
			c2.2-0.4,6.6,5.3,7.8,6.8s1.1,3.1,2.9,5.4c2.5,3.2,3.7,4.8,6.1,2.9c3.1-1.1,59.5-54.7,59.5-54.7S799.6,1011.1,801.2,1009.8z
			 M909.1,864.1c-1.9-2.4-1.3-6.7,1.1-8.5c2.4-1.9,6.7-1.3,8.5,1.1c1.9,2.4,1.3,6.7-1.1,8.5C915.2,867.1,911,866.5,909.1,864.1z"/>
	</g>
	<g>
		<path class="st0" d="M440.6,789.8v106h39.7v-6h-2v-2h2v-6.2h-5.1v-2h5.1v-5.1h-2v-2.1h2v-6.1h-7.2v-2h7.2v-7.2h-2v-2h2v-5.2h-5.1
			v-2h5.1v-6.1h-2v-2h2v-5h-12.2v-2h12.2v-6.1h-2v-2h2v-5.1h-5.1v-3.1h5.1v-5.1h-2v-2h2v-5.3h-7.2v-2h7.2V797h-2v-2h2v-3.1v-3.1
			h-5.1v-2h5.1v-5.2h-2v-2h2v-26.5h-25.5v2h-2v-2h-5.1v2h-3.1V750h-4.1h-2v2h-2v-2h-5.1v7.2h-2V750h-6.1v2h-2v-2h-5.1v5.1h-2V750
			h-5.1v2h-2v-2H402v12.2h-2V750h-5.1v2h-2v-2h-6.1v5.1h-2V750h-5.1v2h-2v-2h-5.1v7.2h-2V750h-5.1v2h-2v-2h-10.2v5.1h-2V750h-6.1v2
			h-2v-2h-5.1v20.4h-2V750H330v2h-2v-2h-5.1v5.1h-2V750h-5.1v2h-3.1v-2h-6.1v7.2h-2V750h-5.1v2h-2v-2h-6.1v5.1h-2V750h-5.1v2h-2v-2
			h-5.1v12.2h-2V750h-6.1v2h-2v-2H262v5.1h-2V750h-8.2v2h-2v-2h-5.1v7.2h-3.1V750h-5.1v2h-2v-2h-7.7v5.1h-2V750h-5.1v2h-2v-2h-7.2
			v39.8H440.6L440.6,789.8z"/>
		<path class="st1" d="M195.9,805.1v-39.7h6.1v2h2v-2h6.1v5.1h2v-5.1h6.1v2h2v-2h5.1v7.2h2v-7.2h6.1v2h2v-2h5.1v5.1h2v-5.1h5.1v2
			h3.1v-2h6.1v12.2h2v-12.2h5.1v2h2v-2h6.1v5.1h2v-5.1h5.1v2h2v-2h5.1v7.2h2v-7.2h6.1v2h2v-2h5.1v5.1h2v-5.1h8.2v2h2v-2h5.1v20.4
			h3.1v-20.4h5.1v2h2v-2h6.1v5.1h2v-5.1h5.1v2h2v-2h6.1v7.2h2v-7.2h5.1v2h2v-2h5.1v5.1h2v-5.1h6.1v2h2v-2h5.1v12.2h2v-12.2h6.1v2h2
			v-2h5.1v5.1h2v-5.1h5.1v2h2v-2h9.2v7.2h2v-7.2h5.1v2h3.1v-2h6.1v5.1h2v-5.1h5.1v2h2v-2H464v26.5h-2v2h2v5.1h-5.1v2h5.1v6.1h-2v2h2
			v7.2h-7.2v2h7.2v5.1h-2v2h2v6.1h-5.1v2h5.1v5.1h-2v2h2v6.1h-12.2v2H464v5.1h-2v2h2v5.1h-5.1v2h5.1v6.1h-2v2h2v5.1h-7.2v2h7.2v6.1
			h-2v2h2v5.1h-5.1v2h5.1v5.1h-2v2h2v7.2h-39.7V805.1H195.9z"/>
	</g>
	<g>
		<path class="st1" d="M1902.1,429.6c4.1,1,7.2,3.1,11.2,4.1c4.1,2,7.2,3.1,10.2,5.1"/>
		<path class="st1" d="M1887.9,430.7c4.1,0,14.2,1,23.5,7.2c4.1,3.1,8.2,6.1,10.2,9.2"/>
		<path class="st1" d="M1867.5,428.6c8.2,3.1,17.3,7.2,27.5,13.2c8.2,5.1,15.3,11.2,21.4,16.3"/>
		<path class="st1" d="M1838.9,429.6c5.1,3.1,12.2,8.2,20.4,14.2c6.1,5.1,9.2,8.2,18.3,16.3c6.1,5.1,14.2,12.2,24.5,21.4"/>
		<path class="st1" d="M1829.7,458.2c0-2,3.1-10.2,10.2-14.2c5.1-3.1,9.2-4.1,12.2-4.1"/>
		<path class="st1" d="M1821.6,447c2-2,5.1-5.1,9.2-8.2c5.1-3.1,9.2-5.1,13.2-5.1"/>
		<path class="st1" d="M1836.9,463.3c1-3.1,4.1-8.2,10.2-13.2c4.1-3.1,8.2-5.1,11.2-6.1"/>
		<path class="st1" d="M1847.1,469.4c0-2,2-8.2,7.2-12.2c5.1-5.1,11.2-6.1,13.2-6.1"/>
		<path class="st1" d="M1856.2,474.5c1-2,2-6.1,6.1-9.2c5.1-5.1,11.2-6.1,13.2-6.1"/>
		<path class="st1" d="M1868.5,478.6c0-1,1-6.1,4.1-9.2s7.2-4.1,8.2-4.1"/>
		<path class="st1" d="M1877.6,482.7c3.1-4.1,7.2-8.2,10.2-11.2"/>
		<path class="st1" d="M1888.9,482.7c2-2,4.1-4.1,5.1-7.2"/>
		<g>
			<path class="st0" d="M2054,275.7c-3.1-1-6.1,4.1-3.1,8.2l-62.2,38.7c-4.1-4.1-7.2-8.2-12.2-11.2l37.7-23.5c0,0,0,1,3.1,3.1
				c2,2,8.2,0,6.1-3.1c-2.1-3.1-8.2-13.2-11.2-13.2c-3.1-1-6.1,4.1-3.1,8.2l-38.7,24.5c-5.1-3.1-11.2-6.1-17.3-9.2
				c-2-1-3.1-2-5.1-3.1v1c-10.2-3.1-20.4-5.1-31.6-6.1c-1,0-2,0-2-1v1c-1,0-2,0-4.1,0c-3.1,0-5.1,0-8.2,0c0,0-1,0-1-1v1h-1
				c0,0,0,0-1-1v1c-49,6.1-86.6,43.8-85.6,89.7c0,7.2,1,14.2,3.1,20.4l-26.5,16.3c0,0-9.2,6.1-10.2,9.2s0,3.1,2,2
				c2-1,11.2-5.1,11.2-5.1l26.5-16.3c1,2,2,4.1,2,6.1l0,0l0,0c2,3.1,3.1,6.1,5.1,9.2c-2,2-5.1,4.1-6.1,5.1c-2,2,0,3.1,2,2
				c1,0,4.1-2,6.1-3.1c17.3,24.5,49,40.8,83.6,40.8c54-1,96.9-41.8,96.9-90.7c0-4.1,0-9.2-1-13.2c-1-4.1-2-8.2-3.1-11.2
				c-3.1-8.2-7.2-16.3-13.2-23.5l62.2-38.7c0,0,0,1,3.1,3.1c2,2,8.2,0,6.1-3.1C2064.2,285.9,2057.1,276.7,2054,275.7z"/>
			<path class="st1" d="M1875.6,399.1c-8.2,0-13.2-1-18.3,0c-4.1,0-8.2,1-13.2,2"/>
			<path class="st1" d="M1928.6,398.1c-6.1,0-18.3,2-29.6,1c-4.1,0-8.2,0-11.2,0"/>
			<path class="st1" d="M1871.5,409.2c3.1,0,6.1,0,10.2,0c10.2,0,28.6,0,46.9-2"/>
			<path class="st1" d="M1808.3,429.6c5.1-6.1,14.2-14.2,27.5-18.3c8.2-3.1,16.3-3.1,25.5-2"/>
			<path class="st1" d="M1861.4,416.4c6.1,1,12.2,2,20.4,2c11.2,1,26.5,1,46.9-3.1"/>
			<path class="st1" d="M1811.4,433.7c4.1-5.1,12.2-11.2,22.4-15.3c6.1-2,11.2-3.1,16.3-3.1"/>
			<path class="st1" d="M1847.1,425.5c11.2,0,21.4,3.1,34.6,4.1c10.2,1,25.5,0,44.9-6.1"/>
			<path class="st1" d="M1836.9,325.7c9.2-4.1,22.4-7.2,37.7-8.2c7.2,0,14.2,0,20.4,0"/>
			<path class="st1" d="M1828.7,333.9c9.2-3.1,22.4-7.2,38.7-8.2c13.2-1,23.5,0,32.6,1"/>
			<path class="st1" d="M1820.6,340.9c12.2-3.1,27.5-7.2,45.9-8.2c15.3-1,28.6,0,39.7,2"/>
			<path class="st1" d="M1816.5,348.1c13.2-3.1,29.6-6.1,47.9-7.2c17.3-1,32.6,0,45.9,1"/>
			<path class="st1" d="M1810.4,355.3c15.3-3.1,32.6-5.1,51-7.2c18.3-1,35.6-1,51,0"/>
			<path class="st1" d="M1805.2,370.5c3.1,1,8.2,2,12.2,5.1c6.1,4.1,10.2,8.2,13.2,11.2"/>
			<path class="st1" d="M1808.3,360.3c2,0,11.2,0,19.4,7.2c7.2,6.1,9.2,13.2,9.2,16.3"/>
			<path class="st1" d="M1823.7,354.3c2,0,8.2,1,13.2,6.1c8.2,7.2,7.2,22.4,8.2,19.4"/>
			<path class="st1" d="M1841,351.2c2,2,5.1,4.1,8.2,8.2c4.1,7.2,5.1,17.3,5.1,21.4"/>
			<path class="st1" d="M1857.3,350.2c2,2,4.1,5.1,5.1,9.2c3.1,8.2,1,14.2,0,17.3"/>
			<path class="st1" d="M1882.8,307.3v10.2"/>
			<path class="st1" d="M1873.6,308.4l1,9.2"/>
			<path class="st1" d="M1866.5,311.4v5.1"/>
			<path class="st1" d="M1856.2,314.5l5.1,4.1"/>
			<path class="st1" d="M1915.3,427.6c1,0,4.1,0,6.1,2c2,1,3.1,3.1,4.1,4.1"/>
			<path class="st1" d="M1852.1,426.6c9.2,4.1,20.4,11.2,31.6,19.4c11.2,8.2,19.4,16.3,25.5,23.5"/>
			<path class="st1" d="M1914.3,348.1l10.2-6.1c-2-4.1-4.1-7.2-7.2-11.2c-9.2-13.2-20.4-20.4-28.6-24.5c-1,0-2,0-2,0
				c4.1,5.1,10.2,12.2,15.3,21.4C1906.2,333.9,1910.3,339.9,1914.3,348.1z"/>
			<path class="st1" d="M1917.4,319.5c2,2,7.2,7.2,13.2,19.4l8.2-5.1c-3.1-5.1-8.2-11.2-15.3-16.3c-8.2-6.1-15.3-9.2-21.4-11.2
				c-2,0-3.1,0-5.1,0l0,0C1903.1,308.4,1910.3,312.5,1917.4,319.5z"/>
			<path class="st1" d="M1942.9,330.8l5.1-3.1c-14.2-13.2-30.6-18.3-39.7-20.4C1917.4,310.4,1931.7,317.5,1942.9,330.8z"/>
			<path class="st1" d="M1956.1,322.6c-5.1-3.1-11.2-6.1-17.3-9.2c4.1,3.1,9.2,6.1,14.2,10.2L1956.1,322.6z"/>
			<path class="st1" d="M1931.7,364.4c-1-2-1-4.1-2-7.2s-2-5.1-3.1-8.2l-9.2,6.1c2,4.1,4.1,9.2,5.1,15.3L1931.7,364.4z"/>
			<path class="st1" d="M1938.8,360.3l10.2-6.1c-1-3.1-3.1-7.2-4.1-10.2c-1-1-1-3.1-2-4.1l-9.2,6.1c1,2,2,5.1,3.1,8.2
				C1936.7,355.3,1937.8,357.3,1938.8,360.3z"/>
			<path class="st1" d="M1955.1,350.2l7.2-4.1c-2-3.1-4.1-6.1-7.2-10.2c-1-1-1-2-2-2l-6.1,4.1c1,2,2,3.1,4.1,5.1
				C1953.1,344,1954.1,347.1,1955.1,350.2z"/>
			<path class="st1" d="M1969.4,340.9l5.1-3.1c-4.1-4.1-7.2-8.2-12.2-11.2l-3.1,2c1,1,2,2,4.1,4.1
				C1964.3,334.9,1967.4,337.9,1969.4,340.9z"/>
			<path class="st1" d="M1867.5,377.7l88.7-55c-16.3-11.2-36.7-17.3-59.1-16.3c-54,1-96.9,41.8-96.9,90.7c0,2,0,4.1,0,7.2
				C1826.6,385.8,1850.1,379.7,1867.5,377.7z"/>
			<path class="st1" d="M1802.2,409.2c0,2,1,5.1,2,7.2l47.9-29.6C1836.9,390.9,1820.6,397.1,1802.2,409.2z"/>
			<path class="st1" d="M1911.3,376.7l63.2-38.7c-4.1-4.1-7.2-8.2-12.2-11.2l-80.5,49C1891.9,375.7,1901.1,376.7,1911.3,376.7z"/>
			<path class="st1" d="M1881.7,383.7c-4.1,0-8.2,0-12.2,0l-64.2,39.7c2,5.1,4.1,10.2,7.2,15.3c2-2,5.1-4.1,5.1-4.1l80.5-50
				C1892.9,383.7,1887.9,383.7,1881.7,383.7z"/>
			<path class="st1" d="M1851.1,386.8l-74.5,45.9c0,0-9.2,6.1-10.2,9.2c-2,2,0,3.1,2,2c2-1,11.2-5.1,11.2-5.1l90.7-55
				C1864.4,384.8,1858.3,385.8,1851.1,386.8z"/>
			<path class="st1" d="M2009.1,303.3c-2-3.1-8.2-13.2-11.2-13.2s-6.1,4.1-3.1,8.2l-127.4,79.4c2,0,3.1,0,5.1-1c4.1,0,7.2,0,10.2-1
				l118.3-72.4c0,0,0,1,3.1,3.1C2006.1,309.4,2011.2,307.3,2009.1,303.3z"/>
			<path class="st1" d="M1899.1,384.8l-80.5,50c0,0-9.2,6.1-10.2,9.2c-2,2,0,3.1,2,2c2-1,11.2-5.1,11.2-5.1l88.7-55
				C1906.2,385.8,1902.1,384.8,1899.1,384.8z"/>
			<path class="st1" d="M2050.9,305.3c-2-3.1-8.2-13.2-11.2-13.2c-3.1-1-6.1,4.1-3.1,8.2l-125.4,77.4c4.1,0,8.2,0,13.2,0l117.3-72.4
				c0,0,0,1,3.1,3.1C2046.8,310.4,2052,308.4,2050.9,305.3z"/>
			<path class="st1" d="M1979.5,344l-55,33.6c11.2,0,23.5-1,37.7-3.1c11.2-2,19.4-3.1,25.5-5.1l3.1-2l3.1,11.2l-6.1,2
				c-5.1,1-13.2,3.1-22.4,5.1c-23.5,3.1-40.8,2-56,0l-88.7,55c0,0-2,1-4.1,2c17.3,24.5,49,40.8,83.6,40.8c54-1,96.9-41.8,96.9-90.7
				C1995.9,374.6,1989.8,357.3,1979.5,344z"/>
			<path class="st1" d="M1934.7,376.7c0-2-1-4.1-1-5.1l-9.2,6.1l0,0C1928.6,377.7,1931.7,377.7,1934.7,376.7z"/>
			<path class="st1" d="M1926.6,387.8c2,13.2,5.1,39.7-8.2,68.3c-5.1,12.2-12.2,21.4-17.3,26.5v1c3.1,0,6.1,0,9.2-1v-1
				c4.1-4.1,8.2-10.2,13.2-18.3c12.2-21.4,13.2-40.8,13.2-53c0-5.1,0-12.2-1-22.4C1933.7,387.8,1930.7,387.8,1926.6,387.8z"/>
			<path class="st1" d="M1801.2,409.2c33.6-22.4,62.2-26.5,80.5-26.5c23.5,0,45.9,8.2,83.6,3.1c10.2-2,17.3-3.1,22.4-5.1l6.1-2
				l-3.1-11.2l-3.1,2c-6.1,1-15.3,3.1-25.5,5.1c-42.8,6.1-63.2,0-90.7,2c-17.3,2-42.8,7.2-71.4,26.5L1801.2,409.2z"/>
			<path class="st1" d="M1801.2,409.2c33.6-22.4,62.2-26.5,80.5-26.5c23.5,0,45.9,8.2,83.6,3.1c10.2-2,17.3-3.1,22.4-5.1l6.1-2
				l-3.1-11.2l-3.1,2c-6.1,1-15.3,3.1-25.5,5.1c-42.8,6.1-63.2,0-90.7,2c-17.3,2-42.8,7.2-71.4,26.5L1801.2,409.2z"/>
			<path class="st1" d="M1955.1,375.7c-1-4.1-2-9.2-3.1-14.2l-10.2,6.1c1,3.1,2,6.1,2,9.2C1947,376.7,1951.1,375.7,1955.1,375.7z"/>
			<path class="st1" d="M1956.1,387.8c-4.1,0-7.2,1-11.2,1c1,7.2,1,16.3,1,25.5c-1,12.2-2,26.5-9.2,41.8
				c-6.1,12.2-15.3,21.4-20.4,26.5l0,0c3.1,0,7.2-1,10.2-2c4.1-3.1,11.2-9.2,17.3-17.3c15.3-22.4,14.2-47.9,13.2-67.3
				C1956.1,393,1956.1,389.9,1956.1,387.8z"/>
			<path class="st1" d="M1963.3,374.6c4.1,0,7.2-1,10.2-2c-1-4.1-2-7.2-4.1-10.2c-1-3.1-2-7.2-4.1-10.2l-8.2,5.1
				c1,3.1,2,6.1,3.1,8.2C1961.2,367.5,1962.2,370.5,1963.3,374.6z"/>
			<path class="st1" d="M1966.3,385.8L1966.3,385.8c2,14.2,3.1,33.6-5.1,54c-3.1,8.2-9.2,22.4-22.4,34.6l0,0
				c5.1-2,10.2-4.1,14.2-7.2l0,0c11.2-10.2,16.3-19.4,19.4-25.5c9.2-20.4,8.2-41.8,4.1-58.1C1973.5,384.8,1970.4,385.8,1966.3,385.8
				z"/>
			<path class="st1" d="M1979.5,344l-5.1,3.1c2,3.1,4.1,6.1,6.1,10.2c2,3.1,4.1,7.2,6.1,13.2c1,0,2,0,2-1l3.1-2l3.1,11.2l-5.1,2
				c1,3.1,1,6.1,2,9.2c3.1,25.5-8.2,46.9-13.2,55l1,1c12.2-15.3,19.4-33.6,18.3-54C1995.9,374.6,1989.8,357.3,1979.5,344z"/>
		</g>
	</g>
	<g>
		<path class="st0" d="M1141.9,749.5v-3.3h-10.7v-1.1h-1.1v-10.7h-3.3v10.7h-7.6v-10.7h-3.3v10.7h-7.6v-10.7h-3.3v10.7h-6.4v-10.7
			h-3.3v10.7h-7.6v-10.7h-3.3v10.7h-7.6v-10.7h-3.3v10.7h-7.6v-10.7h-3.3v10.7h-6.4v-10.7h-3.3v10.7h-6.4v-10.7h-3.3v10.7h-7.6
			v-10.7h-3.3v10.7h-7.6v-10.7h-3.3v10.7h-1.1v1.1h-10.5v3.3h10.7v7.6h-10.7v3.3h10.7v7.6h-10.7v3.3h10.7v7.6h-10.7v3.3h10.7v6.4
			h-10.7v3.3h10.7v7.6h-10.7v3.3h10.7v7.6h-10.7v3.3h10.7v7.6h-10.7v3.3h10.7v7.6h-10.7v3.3h10.7v6.4h-10.7v3.3h10.7v7.6h-10.7v3.3
			h10.7v1.1h1.1v10.4h3.3v-10.7h7.6v10.7h3.3v-10.7h7.6v10.7h3.3v-10.7h6.4v10.7h3.3v-10.7h6.4v10.7h3.3v-10.7h7.6v10.7h3.3v-10.7
			h7.6v10.7h3.3v-10.7h7.6v10.7h3.3v-10.7h6.4v10.7h3.3v-10.7h7.6v10.7h3.3v-10.7h7.6v10.7h3.3v-10.7h1.1v-1.1h10.7v-3.3h-10.7v-7.6
			h10.7v-3.3h-10.7v-6.4h10.7v-3.3h-10.7v-8.1h10.7v-3.3h-10.7v-7.6h10.7v-3.3h-10.7V802h10.7v-3.3h-10.7v-7.6h10.7v-3.3h-10.7v-6.4
			h10.7v-3.3h-10.7v-7.3h10.7v-3.3h-10.7v-7.6h10.7v-3.3h-10.7V749h10.5V749.5z"/>
		<path class="st1" d="M1125.7,766.7v-3.3H1115v-1.1h-1.1v-10.7h-3.3v10.7h-7.6v-10.7h-3.3v10.7h-7.6v-10.7h-3.3v10.7h-6.4v-10.7
			h-3.3v10.7h-7.6v-10.7h-3.3v10.7h-6.4v-10.7h-3.3v10.7h-7.6v-10.7h-3.3v10.7h-6.4v-10.7h-3.3v10.7h-6.4v-10.7h-3.3v10.7h-7.6
			v-10.7h-2.1v10.7h-7.6v-10.7h-3.3v10.7h-1.1v1.1h-10.7v3.3h10.7v7.6h-10.7v3.3h10.7v7.6h-10.7v3.3h10.7v7.6h-10.7v3.3h10.7v6.4
			h-10.7v3.3h10.7v5.4h-10.7v3.3h10.7v7.6h-10.7v3.3h10.7v7.6h-10.7v3.3h10.7v7.6h-10.7v3.3h10.7v6.4h-10.7v3.3h10.7v7.6h-10.7v1.1
			h10.7v1.1h1.1v10.7h3.3V870h7.6v10.7h3.3V870h7.6v10.7h3.3V870h6.4v10.7h3.3V870h6.4v10.7h3.3V870h7.6v10.7h3.3V870h7.6v10.7h3.3
			V870h7.6v10.7h3.3V870h6.4v10.7h3.3V870h7.6v10.7h3.3V870h7.6v10.7h3.3V870h1.1v-1.1h10.7v-3.3h-10.7v-7.8h10.7v-3.3h-10.7v-6.4
			h10.7v-3.3h-10.7v-8h10.7v-3.3h-10.7v-7.6h10.7v-1.1h-10.7v-7.6h10.7V814h-10.7v-7.6h10.7v-3.3h-10.7v-6.4h10.7v-3.3h-10.7v-7.6
			h10.7v-3h-10.7v-7.4h10.7v-3.3h-10.7v-7.6h8.6v2.2H1125.7z"/>
	</g>
</g>
<g id="circut">
	<polyline class="st2" points="-2347.2,528.9 -88.2,528.9 -49.4,567.7 75,567.7 	"/>
	<circle class="st3" cx="74.6" cy="567.7" r="7.6"/>
	<polyline class="st2" points="-2347.2,546.1 -96.8,546.1 -58,584.9 115.4,584.9 	"/>
	<circle class="st3" cx="115" cy="584.9" r="7.6"/>
	<polyline class="st2" points="-2347.2,586.5 -117,586.5 -78.2,625.3 115.4,625.3 	"/>
	<circle class="st3" cx="115" cy="625.3" r="7.6"/>
	<polyline class="st2" points="-2347.2,707.3 -127,707.3 -88.2,668.5 153.8,668.5 174.6,647.7 476.4,647.7 586.8,758.1 586.8,898.9 
		601.4,913.5 	"/>
	<polyline class="st2" points="-2347.2,726.7 -118.4,726.7 -79.6,687.9 163,687.9 184,667.1 466.4,667.1 557,757.7 557,790.1 	"/>
	<circle class="st3" cx="557" cy="789.5" r="7.6"/>
	<polyline class="st2" points="-2347.2,606.5 -127,606.5 -88.2,645.3 143.6,645.3 163,625.9 486.4,625.9 607.8,747.3 607.8,880.7 	
		"/>
	<circle class="st3" cx="607.8" cy="880.3" r="7.6"/>
	<polyline class="st2" points="-2347.2,566.3 -107,566.3 -68,605.1 496.4,605.1 628.2,736.9 628.2,941.3 	"/>
	<circle class="st3" cx="628.2" cy="940.9" r="7.6"/>
	<polyline class="st2" points="-2347.2,747.7 -88.2,747.7 -49.4,786.5 75,786.5 	"/>
	<circle class="st3" cx="74.6" cy="786.5" r="7.6"/>
	<polyline class="st2" points="-2347.2,788.1 -107,788.1 -68,826.9 145.6,826.9 	"/>
	<circle class="st3" cx="145.2" cy="826.9" r="7.6"/>
	<circle class="st3" cx="48" cy="872.3" r="7.6"/>
	<circle class="st3" cx="27.8" cy="892.5" r="7.6"/>
	<circle class="st3" cx="7.6" cy="912.7" r="7.6"/>
	<circle class="st3" cx="601.4" cy="913.5" r="7.6"/>
	<circle class="st3" cx="601.8" cy="963.5" r="7.6"/>
	<polyline class="st2" points="-2347.2,808.1 -117,808.1 -78.2,847.1 22.6,847.1 48,872.3 	"/>
	<polyline class="st2" points="-2347.2,828.3 -127,828.3 -88.2,867.1 2.4,867.1 27.8,892.5 	"/>
	<polyline class="st2" points="-2347.2,848.5 -137.2,848.5 -98.4,887.3 -17.6,887.3 7.6,912.7 	"/>
	<polyline class="st2" points="-2347.2,767.9 -96.8,767.9 -58,806.7 113.4,806.7 203.4,716.7 446,716.7 557.4,827.9 557.4,919.1 
		601.8,963.5 	"/>
	<polyline class="st2" points="3276.6,528.9 1051.6,528.9 1008,572.5 664.4,572.5 	"/>
	<circle class="st3" cx="664.8" cy="572.5" r="7.6"/>
	<polyline class="st2" points="3276.6,548.3 1059.6,548.3 952.8,655.1 952.8,888.5 927.5,913.5 927.5,959.7 	"/>
	<circle class="st3" cx="927.5" cy="959.3" r="7.6"/>
</g>
<g id="make-logo">
	<g>
		<g id="top" transform="matrix(1,0,0,1,0,0)">
			<path d="M423.2,117.9h-95.3h-61.4v122.6h61.4v-61.1h95.3V117.9z"/>
		</g>
		<g id="bottom" transform="matrix(1,0,0,1,0,0)">
			<path d="M741.6,527.5h156.7v-61.4v-61.3h-61.4V466h-95.3L741.6,527.5L741.6,527.5z"/>
		</g>
	</g>
	<g id="make" class="st4">
		<path d="M397.6,216.3c1.9,3.4,4,7.6,6.3,12.6c2.4,5,5,10.3,7.6,16.2c2.6,5.8,5.2,11.7,7.8,17.8s5,11.7,7.2,17
			c2.2-5.3,4.7-11.1,7.2-17c2.6-6.1,5.1-11.9,7.8-17.8c2.6-5.8,5.1-11.2,7.6-16.2c2.4-5,4.6-9.2,6.3-12.6h21.8
			c1,7.1,2,14.9,2.9,23.8c0.9,8.7,1.6,17.9,2.4,27.4c0.6,9.5,1.2,19,1.9,28.5c0.6,9.6,1,18.5,1.5,26.9h-23.4
			c-0.2-10.3-0.7-21.6-1.2-33.8c-0.5-12.2-1.2-24.5-2.4-36.9c-1.9,4.4-3.9,9.1-6.2,14.3c-2.2,5.2-4.5,10.4-6.7,15.7
			c-2.2,5.2-4.4,10.2-6.3,14.9c-2,4.7-3.9,8.8-5.2,12.2h-16.8c-1.5-3.4-3.2-7.5-5.2-12.2c-2-4.7-4.2-9.7-6.3-14.9
			c-2.2-5.2-4.5-10.4-6.7-15.7c-2.2-5.2-4.4-9.9-6.2-14.3c-1,12.4-1.7,24.7-2.4,36.9c-0.5,12.2-0.9,23.5-1.2,33.8h-23.3
			c0.4-8.5,0.9-17.4,1.5-26.9c0.6-9.6,1.1-19,1.9-28.5c0.6-9.5,1.5-18.7,2.4-27.4s1.9-16.7,2.9-23.8
			C374.8,216.3,397.6,216.3,397.6,216.3z"/>
		<path d="M578.7,322.9c-1.2-3.7-2.5-7.5-3.9-11.4s-2.7-7.8-4.1-11.7h-41.5c-1.4,3.9-2.7,7.8-4.1,11.7s-2.6,7.7-3.7,11.3h-24.9
			c4-11.4,7.8-22.1,11.4-31.8c3.6-9.7,7.1-18.9,10.6-27.5s6.8-16.8,10.2-24.5c3.4-7.7,6.8-15.3,10.4-22.6h22.8
			c3.5,7.3,7,14.9,10.3,22.6c3.4,7.7,6.8,15.9,10.3,24.5s7,17.8,10.6,27.5c3.6,9.7,7.5,20.4,11.4,31.8L578.7,322.9L578.7,322.9
			L578.7,322.9z M549.8,240.4c-0.5,1.5-1.4,3.6-2.4,6.3c-1,2.6-2.2,5.7-3.5,9.2c-1.4,3.5-2.7,7.3-4.4,11.6c-1.6,4.2-3.2,8.6-5,13.2
			h30.3c-1.6-4.6-3.2-9.1-4.7-13.2c-1.5-4.2-3-8.1-4.4-11.6s-2.6-6.6-3.6-9.2C551.3,244,550.4,241.9,549.8,240.4z"/>
		<path d="M680.8,322.9c-2.1-3.5-4.7-7.2-7.6-11.2c-3-4-6.1-8.1-9.5-12.2s-7-8-10.6-11.8c-3.7-3.7-7.3-7.1-11.1-9.9v45.1h-24V216.3
			h24v40c6.2-6.5,12.4-13.2,18.8-20.3c6.3-7.1,12.2-13.7,17.7-19.6h28.2c-7.2,8.6-14.6,16.9-21.9,24.9s-15,16-23.1,24
			c8.5,7.1,16.8,15.5,24.6,25.2c8,9.7,15.5,20.5,22.9,32.2h-28.5L680.8,322.9L680.8,322.9z"/>
		<path d="M723.1,322.9V216.3h72v20.1h-48v20.9h42.5v19.6h-42.5v25.6h51.5v20.3h-75.5V322.9z"/>
	</g>
	<g id="santafe" class="st4">
		<path d="M428.2,424c3.6,0,6.3-0.5,8.1-1.5c1.7-1,2.6-2.5,2.6-4.6s-0.9-3.9-2.6-5.2c-1.7-1.2-4.6-2.7-8.5-4.4
			c-1.9-0.7-3.7-1.5-5.5-2.4c-1.7-0.7-3.2-1.7-4.6-2.9c-1.2-1.1-2.2-2.4-3.1-4c-0.7-1.5-1.1-3.4-1.1-5.6c0-4.4,1.6-7.8,4.8-10.4
			c3.2-2.6,7.7-3.9,13.3-3.9c1.4,0,2.9,0.1,4.2,0.2c1.4,0.1,2.7,0.4,4,0.6c1.2,0.2,2.2,0.5,3.2,0.7c0.9,0.2,1.6,0.5,2.1,0.6
			l-1.6,7.7c-1-0.5-2.5-1-4.5-1.6c-2-0.5-4.5-0.9-7.3-0.9c-2.5,0-4.6,0.5-6.5,1.5s-2.7,2.5-2.7,4.6c0,1.1,0.2,2,0.6,2.9
			s1,1.6,1.9,2.2s1.9,1.2,3.2,1.9c1.2,0.6,2.9,1.1,4.6,1.9c2.4,0.9,4.5,1.7,6.3,2.6c1.9,0.9,3.5,1.9,4.7,3c1.4,1.1,2.4,2.5,3,4.1
			c0.7,1.6,1,3.6,1,6c0,4.6-1.7,8.1-5.1,10.4c-3.4,2.4-8.3,3.5-14.5,3.5c-4.4,0-7.8-0.4-10.3-1.1s-4.2-1.2-5.1-1.6l1.6-7.7
			c1,0.4,2.6,1,4.8,1.7C421.5,423.6,424.5,424,428.2,424z"/>
		<path d="M475.3,379.5c3.6,0,6.6,0.5,9.1,1.4s4.5,2.2,6,4s2.6,3.7,3.2,6c0.6,2.4,1,4.9,1,7.7v31.1c-0.7,0.1-1.9,0.2-3.2,0.5
			c-1.4,0.2-2.9,0.4-4.6,0.6s-3.6,0.4-5.6,0.5s-4,0.2-6,0.2c-2.9,0-5.3-0.2-7.7-0.9c-2.4-0.6-4.4-1.5-6.1-2.7s-3.1-2.9-4-5
			c-1-2-1.5-4.5-1.5-7.3c0-2.7,0.5-5.1,1.6-7.1s2.6-3.6,4.6-4.7c1.9-1.2,4.1-2.1,6.7-2.7c2.5-0.6,5.2-0.9,8.1-0.9
			c0.9,0,1.9,0,2.7,0.1c1,0.1,1.9,0.2,2.7,0.4c0.9,0.1,1.6,0.2,2.2,0.4c0.6,0.1,1.1,0.2,1.4,0.2v-2.5c0-1.5-0.1-2.9-0.5-4.4
			s-0.9-2.7-1.7-3.9s-2-2-3.4-2.7c-1.5-0.6-3.4-1-5.6-1c-3,0-5.5,0.2-7.7,0.6s-3.9,0.9-5,1.2l-1-7.3c1.1-0.5,3.1-1,5.7-1.5
			S472.2,379.5,475.3,379.5z M476.1,424c2.1,0,4,0,5.6-0.1s3-0.2,4.1-0.5v-14.8c-0.6-0.4-1.6-0.6-3.1-0.9s-3.2-0.4-5.2-0.4
			c-1.4,0-2.7,0.1-4.2,0.2c-1.5,0.2-2.9,0.6-4.1,1.2s-2.2,1.5-3.1,2.5s-1.2,2.5-1.2,4.1c0,3.2,1,5.3,3.1,6.6
			C469.9,423.4,472.6,424,476.1,424z"/>
		<path d="M509.2,382.1c2-0.5,4.7-1,8.1-1.6s7.2-0.9,11.7-0.9c4,0,7.2,0.5,9.8,1.6s4.7,2.7,6.2,4.7c1.6,2,2.6,4.5,3.4,7.2
			c0.6,2.9,1,5.8,1,9.3v28h-9v-26c0-3.1-0.2-5.7-0.6-7.8s-1.1-4-2.1-5.2c-1-1.4-2.2-2.4-3.9-2.9c-1.6-0.6-3.6-0.9-6-0.9
			c-1,0-2,0-3,0.1s-2,0.1-2.9,0.2s-1.7,0.2-2.5,0.4c-0.7,0.1-1.2,0.2-1.6,0.2v42h-9v-48.6h0.4V382.1z"/>
		<path d="M572.3,380.7h18.8v7.5h-18.8v23c0,2.5,0.2,4.6,0.6,6.2s1,2.9,1.7,3.9c0.7,0.9,1.7,1.6,2.9,2c1.1,0.4,2.5,0.6,4,0.6
			c2.7,0,4.8-0.2,6.5-0.9c1.6-0.6,2.7-1,3.4-1.2l1.7,7.3c-0.9,0.5-2.5,1-4.7,1.6s-4.7,1-7.7,1c-3.4,0-6.2-0.4-8.3-1.2
			c-2.2-0.9-4-2.1-5.3-3.9c-1.4-1.7-2.2-3.9-2.9-6.3c-0.5-2.5-0.9-5.5-0.9-8.7v-44.4l9-1.5L572.3,380.7L572.3,380.7z"/>
		<path d="M618.6,379.5c3.6,0,6.6,0.5,9.1,1.4s4.5,2.2,6,4s2.6,3.7,3.2,6c0.6,2.4,1,4.9,1,7.7v31.1c-0.7,0.1-1.9,0.2-3.2,0.5
			c-1.4,0.2-2.9,0.4-4.6,0.6s-3.6,0.4-5.6,0.5s-4,0.2-6,0.2c-2.9,0-5.3-0.2-7.7-0.9c-2.4-0.6-4.4-1.5-6.1-2.7s-3.1-2.9-4-5
			c-1-2-1.5-4.5-1.5-7.3c0-2.7,0.5-5.1,1.6-7.1s2.6-3.6,4.6-4.7c1.9-1.2,4.1-2.1,6.7-2.7c2.5-0.6,5.2-0.9,8.1-0.9
			c0.9,0,1.9,0,2.7,0.1c1,0.1,1.9,0.2,2.7,0.4c0.9,0.1,1.6,0.2,2.2,0.4c0.6,0.1,1.1,0.2,1.4,0.2v-2.5c0-1.5-0.1-2.9-0.5-4.4
			s-0.9-2.7-1.7-3.9c-0.9-1.1-2-2-3.4-2.7c-1.5-0.6-3.4-1-5.6-1c-3,0-5.5,0.2-7.7,0.6s-3.9,0.9-5,1.2l-1-7.3c1.1-0.5,3.1-1,5.7-1.5
			C612.5,379.7,615.5,379.5,618.6,379.5z M619.3,424c2.1,0,4,0,5.6-0.1s3-0.2,4.1-0.5v-14.8c-0.6-0.4-1.6-0.6-3.1-0.9
			s-3.1-0.4-5.2-0.4c-1.4,0-2.7,0.1-4.2,0.2c-1.5,0.2-2.9,0.6-4.1,1.2s-2.2,1.5-3.1,2.5s-1.2,2.5-1.2,4.1c0,3.2,1,5.3,3.1,6.6
			C613,423.4,615.9,424,619.3,424z"/>
		<path d="M693.8,356.2c2.6,0,4.8,0.2,6.7,0.6c1.9,0.4,3.2,0.7,4,1l-1.5,7.6c-0.7-0.4-1.9-0.7-3.2-1.1c-1.4-0.4-3.1-0.5-5.2-0.5
			c-4.1,0-7.1,1.1-8.7,3.4c-1.6,2.2-2.5,5.3-2.5,9.1v4.4h19.2v7.5h-19.2v42.3h-9v-54.2c0-6.3,1.6-11.3,4.7-14.8
			C682.3,358,687.2,356.2,693.8,356.2z"/>
		<path d="M708.6,405.6c0-4.4,0.6-8.2,1.9-11.6c1.2-3.2,3-6,5.1-8.2c2.1-2.1,4.5-3.7,7.2-4.9c2.7-1.1,5.6-1.6,8.5-1.6
			c6.7,0,11.8,2.1,15.4,6.2c3.6,4.2,5.3,10.6,5.3,19c0,0.4,0,0.9,0,1.5s0,1.1-0.1,1.6h-34.1c0.4,5.2,1.9,9.1,4.5,11.8
			c2.6,2.7,6.7,4,12.2,4c3.1,0,5.7-0.2,7.8-0.9c2.1-0.5,3.7-1.1,4.9-1.6l1.2,7.5c-1.1,0.6-3,1.1-5.7,1.9c-2.7,0.6-5.8,1-9.2,1
			c-4.4,0-8.1-0.6-11.2-2s-5.7-3.1-7.8-5.3c-2.1-2.2-3.6-5-4.6-8.2C709.1,412.8,708.6,409.4,708.6,405.6z M742.7,400.7
			c0-4-1-7.3-3-9.9c-2.1-2.6-5-3.9-8.6-3.9c-2,0-3.9,0.4-5.3,1.2c-1.6,0.7-2.9,1.9-4,3.1s-2,2.7-2.5,4.4c-0.6,1.6-1,3.4-1.2,5.1
			L742.7,400.7L742.7,400.7z"/>
	</g>
</g>
</svg>
