<svg id="circuits" xmlns="http://www.w3.org/2000/svg" version="1.1" viewBox="0 0 3594.4 1014.2">
  <defs>
    <style>
      .st0, .st1, .st2, .st3, .st4, .st5, .st6, .st7, .st8, .st9, .st10, .st11, .st12, .st13, .st14, .st15, .st16, .st17, .st18, .st19, .st20, .st21 {
        fill: none;
      }

      .st0, .st1, .st2, .st3, .st4, .st5, .st7, .st8, .st9, .st10, .st11, .st12, .st13, .st14, .st15, .st16, .st17, .st18, .st19, .st20, .st21 {
        stroke: #dcdcdc;
        stroke-linecap: round;
        stroke-linejoin: round;
      }

      .st0, .st1, .st2, .st17, .st18, .st19, .st20 {
        fill-rule: evenodd;
      }

      .st0, .st21 {
        stroke-width: 1.7px;
      }

      .st1, .st15 {
        stroke-width: 2px;
      }

      .st2, .st16 {
        stroke-width: 2px;
      }

      .st22 {
        isolation: isolate;
      }

      .st23 {
        fill: #fff;
      }

      .st3 {
        stroke-dasharray: 0 0 8 12;
      }

      .st3, .st12 {
        stroke-width: 4px;
      }

      .st4 {
        stroke-width: 2.5px;
      }

      .st5, .st17 {
        stroke-width: 2.7px;
      }

      .st6 {
        stroke: #fff;
        stroke-miterlimit: 1.3;
        stroke-width: 6px;
      }

      .st7 {
        stroke-width: 4.6px;
      }

      .st8 {
        stroke-width: 3.8px;
      }

      .st9, .st20 {
        stroke-width: 3.8px;
      }

      .st10, .st19 {
        stroke-width: 2.9px;
      }

      .st11 {
        stroke-width: 2.8px;
      }

      .st13 {
        stroke-width: 4.7px;
      }

      .st14, .st18 {
        stroke-width: 4.6px;
      }

      .st24 {
        opacity: .8;
      }

      .st25 {
        opacity: .4;
      }

      .st26 {
        opacity: .6;
      }

      .st27 {
        opacity: .2;
      }
    </style>
  </defs>
  <g id="circut">
    <polyline class="st6" points="105.2 4142.8 105.2 1043.3 158.4 990.1 158.4 606.9"/>
    <circle class="st23" cx="158.4" cy="609.1" r="14.6" transform="translate(-459.3 729.9) rotate(-86.5)"/>
    <polyline class="st6" points="128.8 4142.8 128.8 1055.1 182 1001.9 182 764"/>
    <circle class="st23" cx="182" cy="764.5" r="14.6" transform="translate(-592.2 899.3) rotate(-86.5)"/>
    <polyline class="st6" points="184.2 4142.8 184.2 1082.8 237.4 1029.6 237.4 764"/>
    <circle class="st23" cx="237.4" cy="764.5" r="14.6" transform="translate(-218.2 106.3) rotate(-17.4)"/>
    <polyline class="st6" points="349.9 4142.8 349.9 1096.6 296.7 1043.3 296.7 711.3 268.2 682.7 268.2 268.6 419.6 117.2 612.8 117.2 632.9 97.1"/>
    <polyline class="st6" points="376.6 4142.8 376.6 1084.8 323.3 1031.5 323.3 698.7 294.8 669.8 294.8 282.4 419.1 158.1 463.6 158.1"/>
    <circle class="st23" cx="462.7" cy="158.1" r="14.6" transform="translate(-26.1 146) rotate(-17.4)"/>
    <polyline class="st6" points="211.6 4142.8 211.6 1096.6 264.9 1043.3 264.9 725.3 238.3 698.7 238.3 254.9 404.8 88.4 587.9 88.4"/>
    <circle class="st23" cx="587.3" cy="88.4" r="14.6" transform="translate(.5 180.1) rotate(-17.4)"/>
    <polyline class="st6" points="156.5 4142.8 156.5 1069.1 209.7 1015.6 209.7 241.2 390.6 60.4 671 60.4"/>
    <circle class="st23" cx="670.5" cy="60.4" r="14.6" transform="translate(12.7 203.7) rotate(-17.4)"/>
    <polyline class="st6" points="405.4 4142.8 405.4 1043.3 458.6 990.1 458.6 819.4"/>
    <circle class="st23" cx="458.6" cy="819.9" r="14.6" transform="translate(-224.7 175.2) rotate(-17.4)"/>
    <polyline class="st6" points="460.8 4142.8 460.8 1069.1 514 1015.6 514 722.5"/>
    <circle class="st23" cx="514" cy="723.1" r="14.6" transform="translate(-193.1 187.3) rotate(-17.4)"/>
    <circle class="st23" cx="576.3" cy="856.4" r="14.6" transform="translate(-230.2 212.1) rotate(-17.4)"/>
    <circle class="st23" cx="604.1" cy="884.2" r="14.6" transform="translate(-237.2 221.7) rotate(-17.4)"/>
    <circle class="st23" cx="631.8" cy="911.9" r="14.6" transform="translate(-244.3 231.3) rotate(-17.4)"/>
    <circle class="st23" cx="632.9" cy="97.1" r="14.6" transform="translate(0 194.2) rotate(-17.4)"/>
    <circle class="st23" cx="701.5" cy="96.6" r="14.6" transform="translate(3.3 214.7) rotate(-17.4)"/>
    <polyline class="st6" points="488.3 4142.8 488.3 1082.8 541.8 1029.6 541.8 891.3 576.3 856.4"/>
    <polyline class="st6" points="516 4142.8 516 1096.6 569.2 1043.3 569.2 919 604.1 884.2"/>
    <polyline class="st6" points="543.7 4142.8 543.7 1110.5 596.9 1057.3 596.9 946.4 631.8 911.9"/>
    <circle class="st23" cx="3130" cy="552.8" r="14.6" transform="translate(-21.8 963.6) rotate(-17.4)"/>
    <circle class="st23" cx="3157.7" cy="580.5" r="14.6" transform="translate(-28.8 973.2) rotate(-17.4)"/>
    <circle class="st23" cx="3185.4" cy="608.2" r="14.6" transform="translate(-35.8 982.8) rotate(-17.4)"/>
    <polyline class="st6" points="3041.9 3839.1 3041.9 779.2 3095.4 725.9 3095.4 587.6 3130 552.8"/>
    <polyline class="st6" points="3069.6 3839.1 3069.6 792.9 3122.8 739.6 3122.8 615.3 3157.7 580.5"/>
    <polyline class="st6" points="3097.3 3839.1 3097.3 806.9 3150.6 753.6 3150.6 642.8 3185.4 608.2"/>
    <polyline class="st6" points="433.1 4142.8 433.1 1055.1 486.3 1001.9 486.3 766.7 362.8 643.2 362.8 310.4 515.4 157.5 640.6 157.5 701.5 96.6"/>
    <polyline class="st6" points="3464.8 3658.5 3464.8 605.7 3405 545.9 3405 74.4"/>
    <circle class="st23" cx="3405" cy="75" r="14.6" transform="translate(3285.1 3478.6) rotate(-89.2)"/>
    <polyline class="st6" points="3438.2 3658.5 3438.2 616.7 3291.6 470.1 2971.4 470.1 2937.1 435.5 2873.7 435.5"/>
    <circle class="st23" cx="2874.2" cy="435.5" r="14.6" transform="translate(-1.1 7.5) rotate(-.1)"/>
  </g>
  <g id="make-logo">
    <g>
      <g id="top">
        <path class="st23" d="M1565.1,104.1h-228.5v178.7h89.5v-89.1h138.9v-89.7Z"/>
      </g>
      <g id="bottom">
        <path class="st23" d="M2029.3,701.2h228.5v-178.9h-89.5v89.2h-138.9v89.7h0Z"/>
      </g>
    </g>
    <g id="make" class="st22">
      <path class="st23" d="M1527.8,247.5c2.8,5,5.8,11.1,9.2,18.4,3.5,7.3,7.3,15,11.1,23.6,3.8,8.5,7.6,17.1,11.4,26s7.3,17.1,10.5,24.8c3.2-7.7,6.9-16.2,10.5-24.8,3.8-8.9,7.4-17.3,11.4-26,3.8-8.5,7.4-16.3,11.1-23.6,3.5-7.3,6.7-13.4,9.2-18.4h31.8c1.5,10.4,2.9,21.7,4.2,34.7,1.3,12.7,2.3,26.1,3.5,39.9.9,13.9,1.7,27.7,2.8,41.6.9,14,1.5,27,2.2,39.2h-34.1c-.3-15-1-31.5-1.7-49.3-.7-17.8-1.7-35.7-3.5-53.8-2.8,6.4-5.7,13.3-9,20.8-3.2,7.6-6.6,15.2-9.8,22.9-3.2,7.6-6.4,14.9-9.2,21.7-2.9,6.9-5.7,12.8-7.6,17.8h-24.5c-2.2-5-4.7-10.9-7.6-17.8s-6.1-14.1-9.2-21.7c-3.2-7.6-6.6-15.2-9.8-22.9-3.2-7.6-6.4-14.4-9-20.8-1.5,18.1-2.5,36-3.5,53.8-.7,17.8-1.3,34.3-1.7,49.3h-34c.6-12.4,1.3-25.4,2.2-39.2.9-14,1.6-27.7,2.8-41.6.9-13.9,2.2-27.3,3.5-39.9,1.3-12.7,2.8-24.3,4.2-34.7-.4,0,32.8,0,32.8,0Z"/>
      <path class="st23" d="M1791.8,402.9c-1.7-5.4-3.6-10.9-5.7-16.6s-3.9-11.4-6-17.1h-60.5c-2,5.7-3.9,11.4-6,17.1s-3.8,11.2-5.4,16.5h-36.3c5.8-16.6,11.4-32.2,16.6-46.4,5.2-14.1,10.4-27.6,15.5-40.1,5.1-12.5,9.9-24.5,14.9-35.7,5-11.2,9.9-22.3,15.2-33h33.2c5.1,10.6,10.2,21.7,15,33,5,11.2,9.9,23.2,15,35.7,5.1,12.5,10.2,26,15.5,40.1,5.2,14.1,10.9,29.7,16.6,46.4h-37.6ZM1749.7,282.7c-.7,2.2-2,5.2-3.5,9.2-1.5,3.8-3.2,8.3-5.1,13.4-2,5.1-3.9,10.6-6.4,16.9-2.3,6.1-4.7,12.5-7.3,19.2h44.2c-2.3-6.7-4.7-13.3-6.9-19.2-2.2-6.1-4.4-11.8-6.4-16.9s-3.8-9.6-5.2-13.4c-1.2-3.9-2.5-7-3.4-9.2Z"/>
      <path class="st23" d="M1940.7,402.9c-3.1-5.1-6.9-10.5-11.1-16.3-4.4-5.8-8.9-11.8-13.9-17.8-5-6-10.2-11.7-15.5-17.2-5.4-5.4-10.6-10.4-16.2-14.4v65.8h-35v-155.4h35v58.3c9-9.5,18.1-19.2,27.4-29.6,9.2-10.4,17.8-20,25.8-28.6h41.1c-10.5,12.5-21.3,24.6-31.9,36.3s-21.9,23.3-33.7,35c12.4,10.4,24.5,22.6,35.9,36.7,11.7,14.1,22.6,29.9,33.4,46.9h-41.6v.3h.1Z"/>
      <path class="st23" d="M2002.4,402.9v-155.4h105v29.3h-70v30.5h62v28.6h-62v37.3h75.1v29.6h-110.1Z"/>
    </g>
    <g id="santafe" class="st22">
      <path class="st23" d="M1572.4,550.3c5.2,0,9.2-.7,11.8-2.2,2.5-1.5,3.8-3.6,3.8-6.7s-1.3-5.7-3.8-7.6c-2.5-1.7-6.7-3.9-12.4-6.4-2.8-1-5.4-2.2-8-3.5-2.5-1-4.7-2.5-6.7-4.2-1.7-1.6-3.2-3.5-4.5-5.8-1-2.2-1.6-5-1.6-8.2,0-6.4,2.3-11.4,7-15.2,4.7-3.8,11.2-5.7,19.4-5.7s4.2.1,6.1.3c2,.1,3.9.6,5.8.9,1.7.3,3.2.7,4.7,1,1.3.3,2.3.7,3.1.9l-2.3,11.2c-1.5-.7-3.6-1.5-6.6-2.3-2.9-.7-6.6-1.3-10.6-1.3s-6.7.7-9.5,2.2-3.9,3.6-3.9,6.7.3,2.9.9,4.2,1.5,2.3,2.8,3.2,2.8,1.7,4.7,2.8c1.7.9,4.2,1.6,6.7,2.8,3.5,1.3,6.6,2.5,9.2,3.8,2.8,1.3,5.1,2.8,6.9,4.4,2,1.6,3.5,3.6,4.4,6,1,2.3,1.5,5.2,1.5,8.7,0,6.7-2.5,11.8-7.4,15.2-5,3.5-12.1,5.1-21.1,5.1s-11.4-.6-15-1.6-6.1-1.7-7.4-2.3l2.3-11.2c1.5.6,3.8,1.5,7,2.5,3.4,1.9,7.7,2.5,13.1,2.5Z"/>
      <path class="st23" d="M1641.1,485.5c5.2,0,9.6.7,13.3,2s6.6,3.2,8.7,5.8,3.8,5.4,4.7,8.7c.9,3.5,1.5,7.1,1.5,11.2v45.3c-1,.1-2.8.3-4.7.7-2,.3-4.2.6-6.7.9s-5.2.6-8.2.7-5.8.3-8.7.3c-4.2,0-7.7-.3-11.2-1.3-3.5-.9-6.4-2.2-8.9-3.9s-4.5-4.2-5.8-7.3c-1.5-2.9-2.2-6.6-2.2-10.6s.7-7.4,2.3-10.4,3.8-5.2,6.7-6.9c2.8-1.7,6-3.1,9.8-3.9,3.6-.9,7.6-1.3,11.8-1.3s2.8,0,3.9.1c1.5.1,2.8.3,3.9.6,1.3.1,2.3.3,3.2.6.9.1,1.6.3,2,.3v-3.6c0-2.2-.1-4.2-.7-6.4s-1.3-3.9-2.5-5.7-2.9-2.9-5-3.9c-2.2-.9-5-1.5-8.2-1.5s-8,.3-11.2.9-5.7,1.3-7.3,1.7l-1.5-10.6c1.6-.7,4.5-1.5,8.3-2.2s8-.4,12.5-.4ZM1642.2,550.3c3.1,0,5.8,0,8.2-.1s4.4-.3,6-.7v-21.6c-.9-.6-2.3-.9-4.5-1.3s-4.7-.6-7.6-.6-3.9.1-6.1.3c-2.2.3-4.2.9-6,1.7s-3.2,2.2-4.5,3.6-1.7,3.6-1.7,6c0,4.7,1.5,7.7,4.5,9.6,2.8,2.2,6.7,3.1,11.8,3.1Z"/>
      <path class="st23" d="M1690.5,489.3c2.9-.7,6.9-1.5,11.8-2.3s10.5-1.3,17.1-1.3,10.5.7,14.3,2.3,6.9,3.9,9,6.9c2.3,2.9,3.8,6.6,5,10.5.9,4.2,1.5,8.5,1.5,13.6v40.8h-13.1v-37.9c0-4.5-.3-8.3-.9-11.4s-1.6-5.8-3.1-7.6c-1.5-2-3.2-3.5-5.7-4.2-2.3-.9-5.2-1.3-8.7-1.3s-2.9,0-4.4.1-2.9.1-4.2.3-2.5.3-3.6.6c-1,.1-1.7.3-2.3.3v61.2h-13.1v-70.9h.6v.3Z"/>
      <path class="st23" d="M1782.5,487.2h27.4v10.9h-27.4v33.5c0,3.6.3,6.7.9,9s1.5,4.2,2.5,5.7c1,1.3,2.5,2.3,4.2,2.9,1.6.6,3.6.9,5.8.9,3.9,0,7-.3,9.5-1.3,2.3-.9,3.9-1.5,5-1.7l2.5,10.6c-1.3.7-3.6,1.5-6.9,2.3s-6.9,1.5-11.2,1.5-9-.6-12.1-1.7c-3.2-1.3-5.8-3.1-7.7-5.7-2-2.5-3.2-5.7-4.2-9.2-.7-3.6-1.3-8-1.3-12.7v-64.7l13.1-2.2v21.9h0Z"/>
      <path class="st23" d="M1850,485.5c5.2,0,9.6.7,13.3,2s6.6,3.2,8.7,5.8,3.8,5.4,4.7,8.7c.9,3.5,1.5,7.1,1.5,11.2v45.3c-1,.1-2.8.3-4.7.7-2,.3-4.2.6-6.7.9s-5.2.6-8.2.7-5.8.3-8.7.3c-4.2,0-7.7-.3-11.2-1.3-3.5-.9-6.4-2.2-8.9-3.9s-4.5-4.2-5.8-7.3c-1.5-2.9-2.2-6.6-2.2-10.6s.7-7.4,2.3-10.4,3.8-5.2,6.7-6.9c2.8-1.7,6-3.1,9.8-3.9,3.6-.9,7.6-1.3,11.8-1.3s2.8,0,3.9.1c1.5.1,2.8.3,3.9.6,1.3.1,2.3.3,3.2.6.9.1,1.6.3,2,.3v-3.6c0-2.2-.1-4.2-.7-6.4s-1.3-3.9-2.5-5.7c-1.3-1.6-2.9-2.9-5-3.9-2.2-.9-5-1.5-8.2-1.5s-8,.3-11.2.9-5.7,1.3-7.3,1.7l-1.5-10.6c1.6-.7,4.5-1.5,8.3-2.2,3.6-.1,8-.4,12.5-.4ZM1851,550.3c3.1,0,5.8,0,8.2-.1s4.4-.3,6-.7v-21.6c-.9-.6-2.3-.9-4.5-1.3s-4.5-.6-7.6-.6-3.9.1-6.1.3c-2.2.3-4.2.9-6,1.7s-3.2,2.2-4.5,3.6-1.7,3.6-1.7,6c0,4.7,1.5,7.7,4.5,9.6,2.6,2.2,6.9,3.1,11.8,3.1Z"/>
      <path class="st23" d="M1959.6,451.5c3.8,0,7,.3,9.8.9,2.8.6,4.7,1,5.8,1.5l-2.2,11.1c-1-.6-2.8-1-4.7-1.6-2-.6-4.5-.7-7.6-.7-6,0-10.4,1.6-12.7,5-2.3,3.2-3.6,7.7-3.6,13.3v6.4h28v10.9h-28v61.7h-13.1v-79c0-9.2,2.3-16.5,6.9-21.6,4.7-5.1,11.8-7.7,21.4-7.7Z"/>
      <path class="st23" d="M1981.2,523.5c0-6.4.9-12,2.8-16.9,1.7-4.7,4.4-8.7,7.4-12,3.1-3.1,6.6-5.4,10.5-7.1,3.9-1.6,8.2-2.3,12.4-2.3,9.8,0,17.2,3.1,22.5,9,5.2,6.1,7.7,15.5,7.7,27.7v2.2c0,.9,0,1.6-.1,2.3h-49.7c.6,7.6,2.8,13.3,6.6,17.2,3.8,3.9,9.8,5.8,17.8,5.8s8.3-.3,11.4-1.3c3.1-.7,5.4-1.6,7.1-2.3l1.7,10.9c-1.6.9-4.4,1.6-8.3,2.8-3.9.9-8.5,1.5-13.4,1.5s-11.8-.9-16.3-2.9-8.3-4.5-11.4-7.7c-3.1-3.2-5.2-7.3-6.7-12-1.2-4.4-1.9-9.3-1.9-14.9ZM2030.9,516.4c0-5.8-1.5-10.6-4.4-14.4-3.1-3.8-7.3-5.7-12.5-5.7s-5.7.6-7.7,1.7c-2.3,1-4.2,2.8-5.8,4.5s-2.9,3.9-3.6,6.4c-.9,2.3-1.5,5-1.7,7.4h35.9Z"/>
    </g>
  </g>
  <g id="lbt">
    <g>
      <path class="st23" d="M1364.2,851.6v8.1h-32.5v-51.5h9.4v43.3h23.1Z"/>
      <path class="st23" d="M1375.1,859.7v-51.5h33v7.9h-23.7v12.7h21.1v7.8h-21.1v15.1h25.5v7.9h-34.8Z"/>
      <path class="st23" d="M1456.5,859.7c-.7-2-1.4-4-2.2-6-.7-2-1.5-4-2.2-6.1h-21.7c-.7,2.1-1.4,4.1-2.1,6.1s-1.4,4-2.1,6h-9.7c1.9-5.5,3.8-10.6,5.5-15.2,1.7-4.6,3.4-9.1,5.1-13.2,1.7-4.2,3.3-8.1,4.9-11.9s3.3-7.5,5-11.1h8.9c1.7,3.7,3.4,7.4,5,11.1,1.6,3.8,3.3,7.7,4.9,11.9,1.7,4.1,3.4,8.6,5.1,13.2,1.8,4.6,3.6,9.7,5.5,15.2h-9.9ZM1441.3,818.2c-1.1,2.6-2.4,5.8-3.9,9.6s-3,7.8-4.6,12.2h16.9c-1.6-4.4-3.1-8.5-4.6-12.3-1.4-3.8-2.7-7-3.8-9.5Z"/>
      <path class="st23" d="M1490.9,807.7c7.4,0,13.1,1.4,17,4.1,3.9,2.7,5.9,6.9,5.9,12.5s-3.4,11.7-10.3,14.2c.9,1.1,2,2.5,3.2,4.2,1.2,1.6,2.4,3.4,3.6,5.3,1.2,1.9,2.4,3.9,3.6,5.9,1.1,2,2.2,4,3,5.9h-10.5c-.9-1.8-2-3.6-3-5.4-1.1-1.8-2.2-3.6-3.3-5.3-1.1-1.7-2.2-3.3-3.3-4.8s-2.1-2.9-3-4c-.7,0-1.3,0-1.8,0h-5.9v19.4h-9.4v-50.8c2.3-.5,4.7-.8,7.3-1,2.6-.2,4.9-.3,6.9-.3ZM1491.6,815.8c-2,0-3.8,0-5.5.2v16.6h4.1c2.3,0,4.3,0,6-.4,1.7-.2,3.2-.7,4.3-1.3,1.2-.6,2-1.5,2.6-2.6s.9-2.5.9-4.2-.3-2.9-.9-4-1.4-2-2.6-2.6c-1.1-.6-2.4-1.1-4-1.4-1.4-.2-3.1-.3-4.9-.3Z"/>
      <path class="st23" d="M1562.6,859.7c-1.7-2.8-3.6-5.9-5.6-9.1-2.1-3.2-4.2-6.5-6.5-9.8s-4.5-6.5-6.8-9.6-4.5-5.9-6.6-8.4v36.8h-9.2v-51.4h7.6c2,2.1,4.1,4.5,6.4,7.4s4.6,5.8,6.9,8.9c2.3,3.1,4.5,6.1,6.7,9.2,2.2,3.1,4.1,6,5.8,8.7v-34.2h9.3v51.4h-8q0,0,0,0Z"/>
      <path class="st23" d="M1596.2,854.7c0,1.7-.6,3.1-1.8,4.2-1.2,1.1-2.6,1.6-4.2,1.6s-3.1-.5-4.2-1.6-1.7-2.5-1.7-4.2.6-3.1,1.7-4.3c1.1-1.1,2.5-1.7,4.2-1.7s3,.6,4.2,1.7c1.3,1.2,1.8,2.6,1.8,4.3Z"/>
    </g>
    <g>
      <path class="st23" d="M1682.5,860.2c-2.7,0-5.5,0-8.2-.3-2.8-.2-5.2-.5-7.3-1.1v-50c1.1-.2,2.3-.4,3.5-.6,1.2-.2,2.5-.3,3.8-.4,1.3,0,2.6-.2,3.8-.2,1.3,0,2.5,0,3.6,0,3.1,0,6,.2,8.7.7s5,1.2,6.9,2.3c2,1.1,3.5,2.5,4.6,4.3s1.6,4,1.6,6.6-.6,4.5-1.7,6.2c-1.2,1.7-2.8,3.1-4.9,4.2,3.1,1,5.4,2.6,6.9,4.6s2.2,4.6,2.2,7.7c0,5.3-1.9,9.3-5.8,11.9-3.8,2.8-9.7,4.2-17.7,4.2ZM1676.2,829.1h6.6c3.6,0,6.4-.5,8.4-1.5s3-2.8,3-5.5-1-4.2-3.2-5.3c-2.1-1-4.8-1.5-8.2-1.5s-2.7,0-3.8,0c-1.1,0-2.1,0-2.9.2v13.5h0ZM1676.2,836.4v15.7c1,0,2.2.2,3.3.2s2.3,0,3.3,0c1.9,0,3.7,0,5.4-.4,1.7-.2,3.1-.7,4.3-1.3,1.2-.6,2.2-1.4,2.9-2.5.7-1,1.1-2.4,1.1-4,0-2.9-1.1-4.9-3.2-6.1-2.1-1.1-5.1-1.7-8.8-1.7h-8.3Z"/>
      <path class="st23" d="M1739.3,860.7c-3.5,0-6.5-.5-9.1-1.5-2.5-1-4.6-2.4-6.3-4.3-1.7-1.9-2.9-4-3.7-6.5s-1.2-5.2-1.2-8.2v-32h9.4v31.2c0,2.3.3,4.3.8,6s1.3,3,2.2,4c1,1,2.1,1.8,3.4,2.3s2.8.7,4.4.7,3.1-.2,4.5-.7c1.3-.5,2.5-1.3,3.4-2.3,1-1,1.7-2.4,2.2-4,.5-1.7.8-3.7.8-6v-31.2h9.4v32.1c0,3-.4,5.7-1.2,8.2-.8,2.5-2.1,4.6-3.7,6.5-1.7,1.8-3.8,3.3-6.3,4.3-2.4.9-5.5,1.4-9,1.4Z"/>
      <path class="st23" d="M1775.4,808.2h9.4v51.4h-9.4v-51.4Z"/>
      <path class="st23" d="M1833.3,851.5v8.1h-32.5v-51.4h9.4v43.3h23.1Z"/>
      <path class="st23" d="M1887.7,833.8c0,4.4-.7,8.3-2.1,11.6s-3.4,6-5.9,8.2c-2.6,2.2-5.6,3.8-9.2,4.9-3.6,1.1-7.6,1.6-11.9,1.6s-4.4,0-7-.3-5.1-.5-7.5-1.1v-50c2.4-.5,4.9-.9,7.6-1s5.1-.2,7.1-.2c4.3,0,8.2.5,11.8,1.5s6.6,2.6,9.2,4.7c2.5,2.2,4.5,4.9,5.9,8.2s2,7.4,2,11.9ZM1853.4,851.9c.5,0,1.3,0,2.2,0h3.6c6.3,0,11-1.6,14.1-4.8s4.6-7.7,4.6-13.4-1.5-10.3-4.5-13.4c-3-3.1-7.7-4.7-14-4.7s-4.7,0-5.9.2v36h0Z"/>
      <path class="st23" d="M1911.3,854.7c0,1.7-.6,3.1-1.8,4.2-1.2,1.1-2.6,1.6-4.2,1.6s-3.1-.5-4.2-1.6-1.7-2.5-1.7-4.2.6-3.2,1.7-4.3,2.5-1.7,4.2-1.7,3,.6,4.2,1.7c1.2,1.1,1.8,2.6,1.8,4.3Z"/>
    </g>
    <g>
      <path class="st23" d="M2007,808.2v8.1h-15.8v43.3h-9.4v-43.3h-15.8v-8.1h41Z"/>
      <path class="st23" d="M2049.5,808.2h9.3v51.4h-9.3v-22.7h-22.3v22.8h-9.4v-51.5h9.4v20.6h22.3v-20.6Z"/>
      <path class="st23" d="M2089.1,807.7c7.4,0,13.1,1.4,17,4.1s5.9,6.9,5.9,12.5-3.4,11.7-10.3,14.2c.9,1.1,2,2.5,3.2,4.2,1.2,1.6,2.4,3.4,3.6,5.3s2.4,3.9,3.6,5.9c1.1,2,2.2,4,3,5.9h-10.5c-.9-1.8-2-3.6-3-5.4-1.1-1.8-2.2-3.6-3.3-5.3-1.1-1.7-2.2-3.3-3.3-4.8s-2.1-2.9-3-4c-.7,0-1.3,0-1.8,0h-5.9v19.4h-9.4v-50.8c2.3-.5,4.7-.8,7.3-1s4.9-.3,6.9-.3ZM2089.8,815.8c-2,0-3.8,0-5.5.2v16.6h4.1c2.3,0,4.3,0,6-.4,1.7-.2,3.2-.7,4.3-1.3,1.2-.6,2-1.5,2.6-2.6s.9-2.5.9-4.2-.3-2.9-.9-4-1.4-2-2.6-2.6c-1.1-.6-2.4-1.1-4-1.4-1.4-.2-3.1-.3-4.9-.3Z"/>
      <path class="st23" d="M2126.1,808.2h9.4v51.4h-9.4v-51.4Z"/>
      <path class="st23" d="M2166.2,859.7c-3.7-8-7.3-16.4-10.7-25.2s-6.6-17.5-9.6-26.3h10.3c1.2,3.5,2.4,7,3.6,10.6s2.5,7.2,3.7,10.6c1.2,3.5,2.5,6.9,3.7,10.1,1.2,3.3,2.5,6.3,3.6,9,1.1-2.7,2.3-5.7,3.6-8.9,1.2-3.2,2.5-6.6,3.8-10.1s2.5-7.1,3.8-10.7c1.3-3.6,2.4-7.1,3.6-10.6h10c-3,8.8-6.3,17.5-9.7,26.3s-7,17.1-10.7,25.2c0,0-9,0-9,0Z"/>
      <path class="st23" d="M2205.9,859.7v-51.5h33v7.9h-23.7v12.7h21.1v7.8h-21.1v15.1h25.5v7.9h-34.8Z"/>
      <path class="st23" d="M2262.7,854.7c0,1.7-.6,3.1-1.8,4.2-1.2,1.1-2.6,1.6-4.2,1.6s-3.1-.5-4.2-1.6-1.7-2.5-1.7-4.2.6-3.1,1.7-4.3,2.5-1.7,4.2-1.7,3,.6,4.2,1.7c1.3,1.2,1.8,2.6,1.8,4.3Z"/>
    </g>
  </g>
  <g id="objects">
    <g class="st26">
      <polygon class="st5" points="2454.6 623.5 2479.8 570.1 2479.8 452.8 2454.6 494.7 2454.6 623.5"/>
      <polygon class="st5" points="2641 623.5 2615.7 570.1 2615.7 452.8 2641 494.7 2641 623.5"/>
      <path class="st5" d="M2555.6,452.8h60.2l25.2,41.9h-186.3l25.2-41.9h28.4M2515.3,452.8h8.1M2540.7,452.8h14.9"/>
      <line class="st5" x1="2467.2" y1="473.8" x2="2628.4" y2="473.8"/>
      <polyline class="st5" points="2516 570.1 2479.8 570.1 2454.6 623.5 2641 623.5 2615.7 570.1 2579.5 570.1"/>
      <rect class="st5" x="2526.9" y="473.7" width="41.9" height="15"/>
      <path class="st17" d="M2537.6,488.7h20.3v18.3c0,5.6-4.6,10.1-10.1,10.1h0c-5.6,0-10.1-4.6-10.1-10.1v-18.3h0Z"/>
      <polygon class="st17" points="2547.8 606.5 2516.1 592.6 2516.1 556.1 2547.8 570.1 2547.8 606.5"/>
      <polygon class="st17" points="2547.8 606.5 2579.5 592.6 2579.5 556.1 2547.8 570.1 2547.8 606.5"/>
      <polygon class="st17" points="2516.1 556.1 2547.8 570.1 2579.5 556.1 2547.8 542.2 2516.1 556.1"/>
      <line class="st5" x1="2547.8" y1="529.7" x2="2547.8" y2="517.1"/>
      <line class="st5" x1="2547.8" y1="536" x2="2547.8" y2="537.5"/>
    </g>
    <g class="st24">
      <path class="st14" d="M666.2,565.6c-25.5-90.8,121.8-91.7,121.8-91.7v-22h-232.6v61.2s30.2,20.6,9.5,52.5"/>
      <line class="st14" x1="681.7" y1="565.6" x2="539" y2="565.6"/>
      <rect class="st14" x="539" y="565.6" width="142.7" height="36.2"/>
      <rect class="st14" x="536.8" y="457.3" width="18.5" height="55.9"/>
      <path class="st18" d="M425.9,461h110.9v48.3c-46.5,0-81.9-12.9-110.9-48.3Z"/>
      <path class="st14" d="M580.3,337.8l62.9,25-7.8,15.9-5.1,16.7-151.7-60.4c-9-3.6-13.4-13.8-9.8-22.7h0c3.6-9,13.8-13.4,22.7-9.8l50.6,20.1M550.4,325.9l9.6,3.8M679.1,377.1l5.2,2.1c2.7,1.1,3.9,4.1,2.9,6.7l-9.1,22.9c-1.1,2.7-4.1,3.9-6.7,2.9l-5.2-2,7.7-15.6,5.2-16.9h0Z"/>
      <polygon class="st18" points="673.2 340 657.6 333.8 635.4 378.7 620.6 426.7 636.2 432.8 651.7 439 673.9 394 688.7 346.1 673.2 340"/>
      <line class="st14" x1="743.1" y1="393.8" x2="706.1" y2="423"/>
      <line class="st14" x1="757" y1="435.7" x2="714.3" y2="435.7"/>
      <line class="st14" x1="587.2" y1="474.3" x2="666.2" y2="474.3"/>
      <line class="st14" x1="679.8" y1="474.3" x2="688.7" y2="474.3"/>
    </g>
    <g class="st25">
      <path class="st0" d="M2237,319.8c-2.2,0-4-1.8-4-4v-4.4c0-2.2,1.8-4,4-4h65.8c2.2,0,4,1.8,4,4v4.4c0,2.2-1.8,4-4,4h-37.2"/>
      <g>
        <g>
          <g>
            <path class="st21" d="M2247.3,420.1l-.3,1.2c-.6,2.7-3.9,4.7-7.6,4.7h-41.4c-3.8,0-7-2-7.6-4.7l-.3-1.2c1.3.5,2.9.9,4.4.9h48.3c1.6,0,3.1-.3,4.4-.9h0Z"/>
            <path class="st21" d="M2257.1,392l-5.4,23.5c-.5,2-2.2,3.7-4.5,4.7-1.3.5-2.9.9-4.4.9h-48.3c-1.6,0-3.1-.3-4.4-.9-2.3-1-4-2.7-4.5-4.7l-15.3-67"/>
            <line class="st21" x1="2267.1" y1="348.4" x2="2258.2" y2="390.5"/>
          </g>
          <g>
            <path class="st21" d="M2265.8,354.9h10.1c3.1,0,5.4,2.3,4.7,4.7l-3.6,12.4c-.5,1.7-2.5,3-4.7,3h-10.5"/>
            <path class="st21" d="M2171.6,354.9h-10.1c-3.1,0-5.4,2.3-4.7,4.7l3.6,12.4c.5,1.7,2.5,3,4.7,3h10.5"/>
          </g>
        </g>
        <path class="st21" d="M2225.1,339.8c23.1.6,42,4.3,42,8.5s-21.7,8.4-48.4,8.4-48.4-3.8-48.4-8.4,19.5-7.9,43.5-8.4"/>
      </g>
      <path class="st0" d="M2191.8,321c-3.4-2.4-5.4-5.2-5.4-8.3,0-8.3,14.4-15,32.3-15s32.3,6.7,32.3,15h0c0,3.1-2,5.9-5.4,8.3"/>
      <g>
        <path class="st21" d="M2226.2,325.9s-.3.5-.6,1.5c8.3-.8,15.5-3.2,20-6.4-5.8-4-15.7-6.7-26.9-6.7s-21.1,2.7-26.9,6.7c4.8,3.4,12.6,5.8,21.6,6.5-.4-1-.7-1.6-.7-1.6h13.5Z"/>
        <path class="st21" d="M2218.7,333.7c-1.4,0-2.8,0-4.1-.1.2,3.2-.4,7.1-2.9,10.7-9.9.5-17.2,2.1-17.2,4s10.8,4.2,24.2,4.2,24.2-1.9,24.2-4.2-6.5-3.3-15.7-3.9c-2.6-3.7-3.2-7.6-3-10.9-1.8.1-3.7.2-5.6.2Z"/>
        <path class="st21" d="M2213.3,327.5c.5,1.4,1.1,3.6,1.3,6.2,1.4,0,2.7.1,4.1.1s3.7,0,5.6-.2c.2-2.6.8-4.8,1.3-6.2"/>
        <path class="st21" d="M2225.5,327.4c.3-.9.6-1.5.6-1.5h-13.5s.3.6.7,1.6"/>
      </g>
    </g>
    <g class="st25">
      <path class="st11" d="M2632.8,139.7c9.8,1.6,21.4,2.4,36.7,2.4,29.6,0,53.5-3.7,53.5-8.2l-3.1,44"/>
      <path class="st11" d="M2621,205.3l-3.8-52.4"/>
      <path class="st11" d="M2622.4,223.1l-.9-12.4"/>
      <path class="st11" d="M2719.2,189.2l-5.2,73.1c-.8,11-9.9,19.5-20.9,19.5h-47c-11,0-20.1-8.5-20.9-19.5l-1.7-23.4"/>
      <path class="st11" d="M2697,214.4s44.9,3.8,54.2-1.3c10.9-6-9.7-13.8-20-12.8"/>
      <path class="st11" d="M2700.8,234.8s32.8,2.8,39.6-.9c8-4.4-7.1-10.1-14.6-9.3"/>
      <path class="st11" d="M2710.7,128.8c8.6,1.5,12.4,3.1,12.4,5.2,0,4.5-24,8.2-53.5,8.2-14.3,0-27.3-.9-36.9-2.3"/>
      <line class="st11" x1="2650.7" y1="155.1" x2="2652.1" y2="202.8"/>
      <g>
        <path class="st11" d="M2589.5,288.6v13.5c0,3.7,35.9,6.7,80.1,6.7,44.2,0,80.1-3,80.1-6.7v-13.5"/>
        <ellipse class="st11" cx="2669.5" cy="288.6" rx="80.1" ry="6.7"/>
      </g>
      <path class="st11" d="M2543.7,267.4s2.1-.2,15.7,6.5c13.6,6.7,24.9,3.5,36.3-5.7,11.4-9.2,23.4-18.5,22.4-29,0-.4,28.1,0,29.3-6.7,1.2-6.6-5.3-7.9-15.2-8.5-9.9-.6-48.1-3.6-48.1-3.6,0,0,33.5-1.2,36.4-7.6.8-1.8,1.2-3.2,1.4-4.3.3-1.6-1-3.1-2.7-3.1h-44.4c-2,0-4,.5-5.7,1.5l-24.6,13.6"/>
      <path class="st11" d="M2589.7,240.5s30.8-1.5,31.3-1.5"/>
      <path class="st11" d="M2581.4,254.4s19.3.4,32.4-2.9"/>
      <path class="st11" d="M2571.3,265.4s18,.7,31.1-2.6"/>
      <path class="st11" d="M2632.8,101.6c8.7,1,64.2,20.4,76.3,25.9,4.1,1.8,2,10.1-.6,10.7-2.7.6-35-4.3-35-3.9,2.8,2.3,4.4,4.9,5.4,7.7h-19.8c-6.1-6.7-15.9-10.8-20.5-9.8-6.3,1.4-8.4,10.4-1.6,18.9,6.9,8.4,8.9,17,8.2,20.4-.6,3.3-5.8,8-15.1.4-6.6-5.4-11.6-20.2-18-25.1-14.1-10.6-14-29.2-14-29.2"/>
      <path class="st11" d="M2659.1,125.6s11.7,4.9,16.7,11.2"/>
    </g>
    <g class="st24">
      <g>
        <path class="st7" d="M3062.3,341h242.5v41.8h-242.5v-41.8Z"/>
        <g>
          <rect class="st7" x="3159" y="236.8" width="49" height="79.9"/>
          <polygon class="st7" points="3159 316.8 3107.9 316.8 3122.9 236.8 3159 236.8 3159 316.8"/>
          <polygon class="st7" points="3208 316.8 3259.1 316.8 3244.1 236.8 3208 236.8 3208 316.8"/>
        </g>
        <path class="st7" d="M3256,125.4h15.5v133.1h-15.5v-87.2h-58.7v-18.6h58.7v-27.3h0ZM3164.8,171.3h-53.7v87.2h-15.5V125.4h15.5v27.3h53.7v18.6Z"/>
        <rect class="st7" x="3164.8" y="121" width="32.5" height="74.3" rx="8.8" ry="8.8"/>
        <line class="st7" x1="3181" y1="222.3" x2="3181" y2="195.3"/>
        <path class="st7" d="M3062.3,341h242.5l-27.3-104.2h-5.9v21.7h-15.5v-21.7h-145v21.7h-15.5v-21.7h-5.9l-27.3,104.2h0Z"/>
      </g>
      <path class="st7" d="M3181.6,121v-.6c0-17.7,14.4-32.1,32.1-32.1h44.7c31,0,56.6,24.4,57.7,55.4,1.3,35.6-3.8,81.3-31.4,114.8"/>
      <line class="st7" x1="3238.6" y1="365.3" x2="3285.8" y2="365.3"/>
      <line class="st7" x1="3227.2" y1="365.3" x2="3216.7" y2="365.3"/>
    </g>
    <g class="st25">
      <polygon class="st15" points="2795.1 593 2802.5 588.5 2802.5 677.7 2795.1 673.1 2795.1 621.4 2795.1 593"/>
      <path class="st15" d="M2872.2,583.7h25.5M2916,583.7h27.1v13.5h-18.5v22.2h18.5v6.8h-30.6v23.6h30.6v32.1h-140.6v-98.2h69.7"/>
      <rect class="st15" x="2808.1" y="598.6" width="71.4" height="13"/>
      <path class="st15" d="M2879.4,611.5v6.7h-7.3v-6.7h7.3ZM2867.1,618.2h-7.9v-6.7h7.9v6.7h0ZM2854.2,618.2h-7.9v-6.7h7.9v6.7h0ZM2841.3,618.2h-7.9v-6.7h7.9v6.7h0ZM2828.3,618.2h-7.9v-6.7h7.9v6.7h0ZM2815.4,618.2h-7.3v-6.7h7.3v6.7Z"/>
      <rect class="st15" x="2815.3" y="611.5" width="5.1" height="11.8"/>
      <rect class="st15" x="2828.3" y="611.5" width="5.1" height="11.8"/>
      <rect class="st15" x="2841.2" y="611.5" width="5.1" height="11.8"/>
      <rect class="st15" x="2854.2" y="611.5" width="5.1" height="11.8"/>
      <rect class="st15" x="2867.1" y="611.5" width="5.1" height="11.8"/>
      <rect class="st15" x="2815.3" y="591.6" width="5.1" height="6.9"/>
      <rect class="st15" x="2828.3" y="591.6" width="5.1" height="6.9"/>
      <rect class="st15" x="2841.2" y="591.6" width="5.1" height="6.9"/>
      <rect class="st15" x="2854.2" y="591.6" width="5.1" height="6.9"/>
      <rect class="st15" x="2867.1" y="591.6" width="5.1" height="6.9"/>
      <rect class="st15" x="2809.4" y="655.3" width="89.9" height="8.3"/>
      <rect class="st15" x="2809.4" y="663.6" width="89.9" height="11.9"/>
      <path class="st1" d="M2924.6,660.3c3.4,0,6.2-1.6,6.2-3.6s-2.8-3.6-6.2-3.6-6.2,1.6-6.2,3.6,2.8,3.6,6.2,3.6Z"/>
      <path class="st15" d="M2930.8,656.7v10.5h0c0,2-2.8,3.6-6.2,3.6s-6.2-1.6-6.2-3.6h0v-10.5c0,2,2.8,3.6,6.2,3.6s6.2-1.6,6.2-3.6Z"/>
      <path class="st15" d="M2912.6,658.3h5.8v8.9h0c0,2,2.8,3.6,6.2,3.6s6.2-1.6,6.2-3.6h0v-8.9h5.8v17.9h-23.9s0-17.9,0-17.9Z"/>
      <g>
        <rect class="st15" x="2912.5" y="639.9" width="39.8" height="9.9"/>
        <line class="st15" x1="2912.5" y1="649.8" x2="2952.3" y2="649.8"/>
        <rect class="st15" x="2912.5" y="626.2" width="39.8" height="13.7"/>
      </g>
      <g>
        <rect class="st15" x="2924.5" y="609.8" width="27.8" height="9.6"/>
        <rect class="st15" x="2924.5" y="597.2" width="27.8" height="12.6"/>
      </g>
      <rect class="st15" x="2816.1" y="632.8" width="81.2" height="13.2"/>
      <line class="st15" x1="2898.1" y1="607.9" x2="2913.4" y2="607.9"/>
      <line class="st15" x1="2878.3" y1="641.1" x2="2886.2" y2="641.1"/>
      <path class="st15" d="M2906.1,565.2h0c4.8,0,8.7,3.9,8.7,8.7v12.9h-17.4v-12.9c0-4.8,3.9-8.7,8.7-8.7Z"/>
      <line class="st15" x1="2902.1" y1="586.7" x2="2902.1" y2="607.9"/>
      <line class="st15" x1="2910" y1="586.7" x2="2910" y2="607.9"/>
      <path class="st15" d="M2910,573.8v6.3"/>
      <g>
        <line class="st15" x1="2923.7" y1="578.2" x2="2933.2" y2="578.2"/>
        <line class="st15" x1="2921.8" y1="572.8" x2="2928.5" y2="566.1"/>
      </g>
      <g>
        <line class="st15" x1="2889.6" y1="578.2" x2="2880.1" y2="578.2"/>
        <line class="st15" x1="2891.6" y1="572.8" x2="2884.9" y2="566.1"/>
      </g>
      <line class="st15" x1="2902.5" y1="613.9" x2="2909.8" y2="613.9"/>
    </g>
    <g class="st26">
      <path class="st13" d="M2684.1,1177.6c-13.3,4.9-27.6,7.5-42.6,7.5-68.6,0-124.2-55.6-124.2-124.2s7.6-48.9,20.6-68.5M2641.4,936.7c68.6,0,124.2,55.6,124.2,124.2s-20.1,77.7-51,100.3M2544.9,982.7c2.8-3.5,5.9-6.9,9.2-10.1M2577,954.7c18.8-11.4,40.9-18,64.5-18"/>
      <path class="st13" d="M2641.4,959.3c-56,0-101.6,45.7-101.6,101.6s45.7,101.6,101.6,101.6,101.6-45.7,101.6-101.6-24.2-76-59-92.2"/>
      <path class="st13" d="M2604.3,1130.7c11.1,5.9,23.7,9.3,37.1,9.3,43.6,0,79.1-35.5,79.1-79.1s-35.5-79.1-79.1-79.1-79.1,35.5-79.1,79.1,8.6,40.9,22.5,55.2"/>
      <path class="st13" d="M2677.6,1017.6c-9.8-8.2-22.5-13.2-36.2-13.2-31.1,0-56.5,25.4-56.5,56.5s25.4,56.5,56.5,56.5,56.5-25.4,56.5-56.5"/>
      <path class="st13" d="M2641.4,1094.9c18.7,0,34-15.2,34-34s-15.2-34-34-34-34,15.2-34,34,15.2,34,34,34Z"/>
      <path class="st13" d="M2641.4,1072.3c6.3,0,11.4-5.1,11.4-11.4s-5.1-11.4-11.4-11.4-11.4,5.1-11.4,11.4,5.1,11.4,11.4,11.4Z"/>
      <path class="st13" d="M2593.8,916.9s12.9-10.5,25.2-10.8"/>
      <path class="st13" d="M2622.3,892.6s24-6,39.3,5.1"/>
      <line class="st13" x1="2567.7" y1="900.4" x2="2582.7" y2="895"/>
      <path class="st13" d="M2571.6,882.4s.9-12.3,14.7-11.4c13.8.9,30.9,11.4,41.1.6"/>
      <polyline class="st13" points="2407.2 906.1 2469.6 906.1 2569.5 937.9 2407.2 937.9"/>
      <path class="st13" d="M2733.3,942l9.5,24.6"/>
    </g>
    <g class="st25">
      <polygon class="st12" points="899.5 825.2 931.7 842.6 931.7 877.7 931.7 877.7 961.9 893.9 961.9 931.6 899.5 897.9 899.5 825.2"/>
      <polygon class="st12" points="1024.3 825.2 992.1 842.6 992.1 877.7 992.1 877.7 961.9 893.9 961.9 931.6 1024.3 897.9 1024.3 825.2"/>
      <polygon class="st12" points="899.5 825.2 931.7 842.6 961.9 826.3 992.1 842.6 1024.3 825.2 961.9 791.5 899.5 825.2"/>
      <polygon class="st12" points="992.1 877.7 961.9 861.5 931.8 877.7 961.9 893.9 992.1 877.7"/>
      <line class="st12" x1="961.9" y1="826.3" x2="961.9" y2="861.5"/>
      <polygon class="st12" points="849.6 798.3 899.5 825.2 899.5 897.9 961.9 931.6 961.9 989.7 849.6 929.1 849.6 798.3"/>
      <polygon class="st12" points="1074.2 798.3 1024.3 825.2 1024.3 897.9 961.9 931.6 961.9 989.7 1074.2 929.1 1074.2 798.3"/>
      <path class="st12" d="M961.9,737.9l-38,20.5M903.6,769.3l-9.5,5.1M885.9,778.8l-36.3,19.6,49.9,26.9h0l62.4-33.6,62.4,33.6h0l49.9-26.9-112.3-60.5"/>
      <line class="st3" x1="961.9" y1="791.5" x2="961.9" y2="694.6"/>
      <line class="st3" x1="1106.3" y1="949" x2="1024.3" y2="897.9"/>
      <line class="st3" x1="817.5" y1="949" x2="899.5" y2="897.9"/>
    </g>
    <g class="st26">
      <g>
        <path class="st10" d="M3185.1,945.2h9.2M3237,945.2h29.2v12.1h-81.2M3200.9,945.2h7.7M3225,945.2h12M3357.9,957.3h-81.2v-12.1h81.2"/>
        <path class="st10" d="M3249.8,826.4v-21.3h43.5v70.8h-43.5v-17M3249.8,852.3v-7.7M3249.8,828.2v-1.8"/>
        <polygon class="st10" points="3249.8 875.9 3271.5 875.9 3293.3 875.9 3281.1 893.5 3271.5 893.5 3261.9 893.5 3249.8 875.9"/>
        <polygon class="st19" points="3261.9 893.5 3270.1 893.5 3272.8 893.5 3281.1 893.5 3281.1 907 3272.8 907 3270.1 907 3261.9 907 3261.9 893.5"/>
        <line class="st10" x1="3271.5" y1="935.7" x2="3271.5" y2="907"/>
        <g>
          <line class="st10" x1="3249.8" y1="924.8" x2="3260.5" y2="935.4"/>
          <line class="st10" x1="3293.2" y1="924.8" x2="3282.5" y2="935.4"/>
        </g>
        <g>
          <polyline class="st10" points="3200 786.6 3179 786.6 3179 772"/>
          <line class="st10" x1="3221.7" y1="786.6" x2="3200" y2="786.6"/>
          <line class="st10" x1="3243.3" y1="786.6" x2="3221.7" y2="786.6"/>
          <line class="st10" x1="3265" y1="786.6" x2="3243.3" y2="786.6"/>
          <line class="st10" x1="3286.6" y1="786.6" x2="3265" y2="786.6"/>
          <line class="st10" x1="3308.3" y1="786.6" x2="3286.6" y2="786.6"/>
          <line class="st10" x1="3330" y1="786.6" x2="3308.3" y2="786.6"/>
          <line class="st10" x1="3351.7" y1="786.6" x2="3330" y2="786.6"/>
          <polyline class="st10" points="3364 772 3364 786.6 3351.7 786.6"/>
        </g>
      </g>
      <rect class="st10" x="3228.6" y="786.6" width="90.6" height="18.6"/>
    </g>
    <g class="st27">
      <g>
        <path class="st16" d="M939.1,477.7h5.3M989.5,542.3h-34.7v-35.7c0-1.6-1.3-2.9-2.9-2.9h-37.3c-1.6,0-2.9,1.3-2.9,2.9v12h-24.6l-6.1-36.2c-.4-2.5,2.1-4.7,4.7-4.7h48.8M955.7,477.7h40.2c2.6,0,4.7,2.1,4.7,4.7v86.3c0,2.6-2.1,4.7-4.7,4.7h-114.7c-2.6,0-4.7-2.1-4.7-4.7v-3.3h113"/>
        <polyline class="st16" points="1000.6 542.3 922.8 542.3 922.8 565.4 1000.6 565.4"/>
        <rect class="st16" x="876.5" y="542.3" width="46.3" height="23.1"/>
        <path class="st2" d="M981.5,505.7c3.9,0,7.1-3.2,7.1-7.1s-3.2-7.1-7.1-7.1-7.1,3.2-7.1,7.1,3.2,7.1,7.1,7.1Z"/>
        <path class="st2" d="M981.5,534.7c5.8,0,10.6-4.7,10.6-10.6s-4.7-10.6-10.6-10.6-10.6,4.7-10.6,10.6,4.7,10.6,10.6,10.6Z"/>
        <rect class="st16" x="1000.6" y="484.5" width="8.7" height="21.7"/>
        <line class="st16" x1="899.7" y1="542.3" x2="899.7" y2="518.6"/>
        <g>
          <g>
            <rect class="st16" x="973.9" y="449.4" width="15.3" height="23.1"/>
            <g>
              <line class="st16" x1="980.1" y1="449.4" x2="989.1" y2="454.6"/>
              <line class="st16" x1="973.9" y1="453.3" x2="989.1" y2="462.1"/>
              <line class="st16" x1="973.9" y1="460.7" x2="989.1" y2="469.5"/>
              <line class="st16" x1="973.9" y1="468.2" x2="981.3" y2="472.5"/>
            </g>
          </g>
          <rect class="st16" x="976.9" y="444.2" width="9.3" height="5.2"/>
          <rect class="st16" x="976.9" y="472.5" width="9.3" height="5.2"/>
        </g>
        <path class="st16" d="M910.8,477.7v-4.3s23.4-5.1,63.1-13.4"/>
      </g>
      <line class="st16" x1="976.8" y1="524.3" x2="986.3" y2="524.3"/>
      <line class="st16" x1="978.8" y1="497.9" x2="984.3" y2="497.9"/>
    </g>
    <g class="st26">
      <path class="st9" d="M929.5,209.2h-26.1l-13.2-13.2V47.6l13.2-13.2h26.1M938.7,34.4h10.7M972.2,34.4h10.9M983.1,34.4h35.5l13.2,13.2v108.2"/>
      <rect class="st9" x="912.1" y="72" width="97.7" height="51.9"/>
      <g>
        <path class="st9" d="M908.1,49.7c2.7,0,4.8,2.2,4.8,4.8s-2.2,4.8-4.8,4.8-4.8-2.2-4.8-4.8,2.2-4.8,4.8-4.8Z"/>
        <path class="st9" d="M1013.8,49.7c2.7,0,4.8,2.2,4.8,4.8s-2.2,4.8-4.8,4.8-4.8-2.2-4.8-4.8,2.2-4.8,4.8-4.8Z"/>
        <path class="st9" d="M908.1,184.2c2.7,0,4.8,2.2,4.8,4.8s-2.2,4.8-4.8,4.8-4.8-2.2-4.8-4.8,2.2-4.8,4.8-4.8Z"/>
      </g>
      <g>
        <line class="st9" x1="946.1" y1="107.8" x2="968" y2="85.7"/>
        <line class="st9" x1="962.8" y1="115" x2="975.7" y2="101.9"/>
      </g>
      <g>
        <rect class="st8" x="951.1" y="206.3" width="261.8" height="21.2" rx="10.6" ry="10.6" transform="translate(163.6 828.6) rotate(-45)"/>
        <path class="st20" d="M1050.4,203.5l15,15-36.8,36.8-7.3-7.3c-4.2-4.3-4.2-11.2,0-15.5l29.1-29Z"/>
        <path class="st20" d="M1120.5,163.4l-36.9,37-15-15,29.2-29.2c4.2-4.2,11.2-4.2,15.5,0,0,0,7.3,7.3,7.3,7.3Z"/>
        <path class="st20" d="M1044.7,183.2c4.7.2,8.6-3.4,8.8-8.1.2-4.7-3.4-8.6-8.1-8.8l-32.2-1.3c-2.5,0-4.7.8-6.3,2.5h0l-15,15,12,12,12.4-12.4,28.4,1.1h0Z"/>
        <rect class="st8" x="981.5" y="181.3" width="19.1" height="27.9" transform="translate(152.2 758) rotate(-45)"/>
        <polyline class="st9" points="874.6 280.1 960.9 193.8 974.5 192.1 994.2 211.8 901.8 304.2"/>
        <line class="st9" x1="1105.4" y1="127.3" x2="1071.3" y2="161.5"/>
      </g>
      <line class="st9" x1="1056.2" y1="153" x2="1056.2" y2="123.9"/>
    </g>
    <g class="st25">
      <path class="st4" d="M1338.1,550.9v34.2s-35.6,0-35.6,0c-2.5,0-4.5,2-4.5,4.5v55.4c0,2.5,2,4.5,4.5,4.5h35.6s0,33,0,33h-88.8s0-70.1,0-70.1c0-11.5,4.4-22.5,12.2-30.9l12.6-13.5v-31.1c0-6.2,5-11.2,11.2-11.2h52.8v7.1"/>
      <line class="st4" x1="1338.1" y1="540.6" x2="1338.1" y2="544.8"/>
      <path class="st4" d="M1258.4,656.2v-43.9c0-9.2,3.5-18,9.7-24.7"/>
      <line class="st4" x1="1258.4" y1="673.3" x2="1258.4" y2="667.5"/>
      <rect class="st4" x="1272.9" y="638.1" width="17.2" height="25.9" rx="3.8" ry="3.8"/>
      <path class="st4" d="M1307.9,638.1h21.8c.7,0,1.3.6,1.3,1.3v10.1h-24.4v-10.1c0-.7.6-1.3,1.3-1.3Z"/>
      <rect class="st4" x="1312.4" y="628.4" width="12.7" height="9.7"/>
      <path class="st4" d="M1307.9,585.1h21.8c.7,0,1.3.6,1.3,1.3v10.1h-24.4v-10.1c0-.7.6-1.3,1.3-1.3Z" transform="translate(2637.6 1181.7) rotate(-180)"/>
      <rect class="st4" x="1312.4" y="596.5" width="12.7" height="9.7" transform="translate(2637.6 1202.7) rotate(-180)"/>
      <circle class="st4" cx="1304.6" cy="540.6" r="7.9"/>
      <line class="st4" x1="1308.7" y1="540.6" x2="1307.9" y2="540.6"/>
      <line class="st4" x1="1301.2" y1="540.6" x2="1300.4" y2="540.6"/>
      <circle class="st4" cx="1304.6" cy="566.8" r="7.9"/>
      <line class="st4" x1="1308.7" y1="566.8" x2="1307.9" y2="566.8"/>
      <line class="st4" x1="1301.2" y1="566.8" x2="1300.4" y2="566.8"/>
      <polygon class="st4" points="1237.5 682.4 1237.5 734.4 1262.2 734.4 1262.2 721.8 1325.2 721.8 1325.2 734.4 1349.9 734.4 1349.9 682.4 1237.5 682.4"/>
      <line class="st4" x1="1349.9" y1="690.5" x2="1237.5" y2="690.5"/>
      <path class="st4" d="M1356,612.8h-12.1c-1.4,0-2.7-.8-3.4-2l-1.4-2.6c-.7-1.3-2-2-3.4-2h-25c-2.3,0-4.1,1.9-4.1,4.1v13.8c0,2.3,1.9,4.1,4.1,4.1h25c1.4,0,2.7-.8,3.4-2l1.4-2.6c.7-1.3,2-2,3.4-2h12.1s0-8.8,0-8.8Z"/>
      <path class="st4" d="M1434.2,631.6h-43.9c-3.1,0-6-1.5-7.8-4.1l-11.8-16.9c-.6-.8-1.6-1.3-2.6-1.3h-8.1c-1.1,0-2.1.6-2.7,1.5l-1.3,2h-8.5s5.4-7.5,5.4-7.5c1.1-1.5,2.7-2.3,4.6-2.3h14.6c1.8,0,3.5.9,4.6,2.4l10.8,15.8c.9,1.3,2.3,2,3.8,2h42.9v8.4Z"/>
      <path class="st4" d="M1434.2,602.9h-43.9c-3.1,0-6,1.5-7.8,4.1l-11.8,16.9c-.6.8-1.6,1.3-2.6,1.3h-8.1c-1.1,0-2.1-.6-2.7-1.5l-1.3-2h-8.5s5.4,7.5,5.4,7.5c1.1,1.5,2.7,2.3,4.6,2.3h14.6c1.8,0,3.5-.9,4.6-2.4l10.8-15.8c.9-1.3,2.3-2,3.8-2h42.9s0-8.4,0-8.4Z"/>
      <line class="st4" x1="1345.9" y1="592.7" x2="1345.9" y2="582.8"/>
      <line class="st4" x1="1353.3" y1="596" x2="1363.2" y2="586"/>
      <line class="st4" x1="1345.9" y1="642" x2="1345.9" y2="651.9"/>
      <line class="st4" x1="1353.3" y1="638.7" x2="1363.2" y2="648.6"/>
    </g>
  </g>
</svg>