<svg version="1.1" id="Layer_1" xmlns="http://www.w3.org/2000/svg" xmlns:xlink="http://www.w3.org/1999/xlink" x="0px" y="0px"
	 viewBox="0 0 159.35 159.35" style="enable-background:new 0 0 159.35 159.35;" xml:space="preserve">
<style type="text/css">
	.st0{fill:#F1F2F2;}
	.st1{fill:#BE222E;}
	.st1{
		transform-origin: 50% 50%;
		display: inline-block;
	}
	
</style>
<circle class="st0" cx="79.68" cy="79.68" r="65.46"/>
<g>
	<polygon class="st1" points="79.68,79.68 79.68,79.68 79.68,79.68 79.68,79.68 79.68,79.68 79.68,79.68 	"/>
	<path class="st1" d="M126.01,94.73c1.54-4.74,2.38-9.8,2.38-15.05h-5.71c0-4.64-0.74-9.1-2.1-13.29l5.43-1.76
		c-1.6-4.91-3.95-9.48-6.93-13.57l-4.62,3.36c-2.65-3.65-5.87-6.86-9.51-9.51l3.36-4.62c-4.09-2.98-8.66-5.33-13.57-6.93l-1.76,5.43
		c-4.19-1.36-8.65-2.1-13.29-2.1v-5.71c-5.26,0-10.31,0.84-15.05,2.38l1.76,5.43c-4.34,1.41-8.37,3.49-11.98,6.12l-3.36-4.62
		c-4.13,3.01-7.77,6.64-10.78,10.78l4.62,3.36c-2.63,3.61-4.71,7.65-6.12,11.98l-5.43-1.76c-1.54,4.74-2.38,9.8-2.38,15.05h5.71
		c0,4.64,0.74,9.1,2.1,13.29l-5.43,1.76c1.6,4.91,3.95,9.48,6.93,13.57l4.62-3.36c2.65,3.65,5.87,6.86,9.51,9.51l-3.36,4.62
		c4.09,2.98,8.66,5.33,13.57,6.93l1.76-5.43c4.19,1.36,8.65,2.1,13.29,2.1v5.71c5.26,0,10.31-0.84,15.05-2.38l-1.76-5.43
		c4.34-1.41,8.37-3.49,11.98-6.12l3.36,4.62c4.13-3.01,7.77-6.64,10.78-10.78l-4.62-3.36c2.63-3.61,4.71-7.65,6.12-11.98
		L126.01,94.73z M79.68,95.3c-8.63,0-15.62-6.99-15.62-15.62c0-8.63,6.99-15.62,15.62-15.62S95.3,71.05,95.3,79.68
		C95.3,88.3,88.3,95.3,79.68,95.3z"/>
</g>
</svg>
