<?xml version="1.0" encoding="utf-8"?>
<!-- Generator: Adobe Illustrator 22.1.0, SVG Export Plug-In . SVG Version: 6.00 Build 0)  -->
<svg version="1.1" id="Layer_1" xmlns="http://www.w3.org/2000/svg" xmlns:xlink="http://www.w3.org/1999/xlink" x="0px" y="0px"
	 viewBox="0 0 300 300" style="enable-background:new 0 0 300 300;" xml:space="preserve">
<style type="text/css">
	.st0{fill:#E6E7E8;}
	.st1{fill:#BCBEC0;} 
	.st2{fill:#B3B3B3;}
</style>
<path class="st0" d="M150,300L150,300C67.2,300,0,232.8,0,150v0C0,67.2,67.2,0,150,0h0c82.8,0,150,67.2,150,150v0
	C300,232.8,232.8,300,150,300z"/>
<circle class="st1" cx="150" cy="84.8" r="51.4"/>
<path class="st2" d="M150,141L150,141c-55.4,0-100.3,44.9-100.3,100.3v20.2C76.2,285.4,111.4,300,150,300h0
	c38.6,0,73.8-14.6,100.3-38.5v-20.2C250.3,185.9,205.4,141,150,141z"/>
</svg>
