<?xml version="1.0" encoding="UTF-8"?>
<svg xmlns="http://www.w3.org/2000/svg" version="1.1" viewBox="0 0 2200 2200">
  <!-- Generator: Adobe Illustrator 30.1.0, SVG Export Plug-In . SVG Version: 2.1.1 Build 136)  -->
  <defs>
    <style>
      .st0 {
        fill: #be202e;
      }

      .st1 {
        fill: #fff;
      }

      .st2 {
        fill: #aa0515;
      }
    </style>
  </defs>
  <g id="Background">
    <rect class="st1" width="2200" height="2200"/>
  </g>
  <g id="Objects">
    <path class="st0" d="M1940,1100c0,49.8-4.3,98.7-12.7,146.1-69.2,394.3-413.3,693.9-827.3,693.9s-25.4-.3-38-.8c-446.3-19.8-802-388-802-839.2s376.1-840,840-840,840,376.1,840,840Z"/>
    <path class="st2" d="M1927.3,1246.1c-69.2,394.3-413.3,693.9-827.3,693.9s-25.4-.3-38-.8c-187.1-187.1-341.8-342-343.1-343.4-24.4-21.1-37.6-53.2-33.9-86.6,8.2-74.2,31.7-148.1,85.4-181.5,99.1-61.7,197.4-87.9,197.4-87.9,3.5-10.8,7.4-46.5,9.4-83-12.5-13-25-26.6-38.1-39.5-21.2-20.8-26.4-49.2-33-85-4.7-2.1-7.3-6.1-9.8-9.8,0,0,0,0,0-.1-4.8-2.1-7.4-6.1-9.9-9.8,0,0,0,0,0-.1-4.8-2.1-7.4-6.1-9.9-9.8-3-4.5-4.1-10-5.2-15.3-4-19.1-8-38.1-12-57.2-3-14.3-6-29-4-43.5,1-6.9,3.4-14,9-18.1,5.6-4,15-3.1,17.8,3.3,0,0-9.1-89.7-9.1-82.2-7.6-8.5-13.7-26.9-11.1-41.1,2.5-14.2,7-28.1,9.3-42.3,2.5-15.7,2.2-31.9,6.7-47.1,6.3-21.5,21.5-39,36.9-55.2,10.9-11.5,22.2-22.6,34.6-32.5,24.7-19.9,54.2-34.8,85.7-38.3,10.1-1.1,20.3-1.1,30.5-1,11.4,0,22.8.1,34.2.2,11.4,0,22.8-.1,34.2-.2,10.2,0,20.4-.1,30.5,1,31.5,3.5,61,18.5,85.7,38.3,10.8,8.7,20.8,18.3,30.4,28.2,2,1.9,358.2,358.1,646.6,646.5Z"/>
    <path class="st1" d="M1453.5,1612.7c-62.2,25.4-173.5,55.3-353.5,55.3s-291.3-29.9-353.5-55.3c-41.3-16.9-66.4-59.1-61.5-103.5,8.2-74.2,31.7-148.1,85.4-181.5,99.1-61.7,197.4-87.9,197.4-87.9,3.5-10.8,7.4-46.5,9.4-83-12.5-13-25-26.6-38.1-39.5-25-24.5-27.8-59.6-36.7-104.8-16.4,4.7-21.6-3.1-25.9-9.8-3-4.5-4.1-10-5.2-15.3-4-19.1-8-38.1-12-57.2-3-14.3-6-29-4-43.5,1-6.8,3.4-14,9-18.1,5.6-4,15-3.1,17.8,3.3,0,0-9.1-89.7-9.1-82.2-7.6-8.5-13.6-26.9-11.1-41.1,2.5-14.2,7-28.1,9.3-42.4,2.5-15.7,2.2-31.8,6.7-47.1,6.3-21.5,21.5-39,37-55.2,10.9-11.5,22.2-22.6,34.6-32.5,24.7-19.9,54.2-34.8,85.7-38.3,10.1-1.1,20.3-1.1,30.5-1,11.4,0,22.8.1,34.2.2,11.4,0,22.8-.1,34.2-.2,10.2,0,20.4,0,30.5,1,31.5,3.5,61,18.5,85.7,38.3,12.3,9.9,23.6,21.1,34.6,32.5,15.4,16.2,30.6,33.8,37,55.2,4.5,15.2,4.2,31.4,6.7,47.1,2.3,14.3,6.8,28.1,9.3,42.4,2.5,14.2-3.5,32.7-11.1,41.1,0-7.6-9.1,82.2-9.1,82.2,2.8-6.3,12.2-7.3,17.8-3.3,5.6,4,8.1,11.2,9,18.1,2,14.5-1,29.2-4,43.5-4,19.1-8,38.1-12,57.2-1.1,5.3-2.3,10.7-5.2,15.3-4.3,6.6-9.5,14.4-25.9,9.8-8.9,45.2-11.7,80.3-36.7,104.8-13.1,12.9-25.5,26.5-38.1,39.5,2,36.5,5.9,72.2,9.4,83,0,0,98.3,26.3,197.4,87.9,53.8,33.5,77.3,107.3,85.4,181.5,4.9,44.4-20.2,86.6-61.5,103.5Z"/>
  </g>
</svg>