<?xml version="1.0" encoding="utf-8"?>
<!-- Generator: Adobe Illustrator 19.2.0, SVG Export Plug-In . SVG Version: 6.00 Build 0)  -->
<svg version="1.1" id="Layer_1" xmlns="http://www.w3.org/2000/svg" xmlns:xlink="http://www.w3.org/1999/xlink" x="0px" y="0px"
	 viewBox="0 0 1208.4 396.9" style="enable-background:new 0 0 1208.4 396.9;" xml:space="preserve">
<style type="text/css">
	.st0{fill:none;stroke:#E7E7E7;stroke-width:2;stroke-miterlimit:10;}
	.st1{fill:#FFFFFF;}
	.st2{fill:#E7E7E7;}
	.st3{fill:#A8AAAD;}
	.st4{fill:none;stroke:#2D2727;stroke-miterlimit:10;}
</style>
<g id="lines">
	<g id="left">
		<g>
			<g>
				<polyline class="st0" points="-0.4,134.6 233.6,134.6 253,154 315.2,154 				"/>
				<g>
					<g>
						<circle class="st1" cx="315" cy="154" r="3.8"/>
						<path class="st2" d="M315,158.2c-2.3,0-4.3-1.9-4.3-4.3s1.9-4.3,4.3-4.3s4.3,1.9,4.3,4.3S317.4,158.2,315,158.2
							S317.4,158.2,315,158.2z M315,150.7c-1.8,0-3.3,1.5-3.3,3.3s1.5,3.3,3.3,3.3s3.3-1.5,3.3-3.3S316.8,150.7,315,150.7
							S316.8,150.7,315,150.7z"/>
					</g>
				</g>
			</g>
		</g>
		<g>
			<g>
				<polyline class="st0" points="-0.4,143.1 229.3,143.1 248.7,162.6 335.4,162.6 				"/>
				<g>
					<g>
						<circle class="st1" cx="335.2" cy="162.6" r="3.8"/>
						<path class="st2" d="M335.2,166.8c-2.3,0-4.3-1.9-4.3-4.3s1.9-4.3,4.3-4.3s4.3,1.9,4.3,4.3S337.5,166.8,335.2,166.8
							S337.5,166.8,335.2,166.8z M335.2,159.3c-1.8,0-3.3,1.5-3.3,3.3s1.5,3.3,3.3,3.3s3.3-1.5,3.3-3.3S337,159.3,335.2,159.3
							S337,159.3,335.2,159.3z"/>
					</g>
				</g>
			</g>
		</g>
		<g>
			<g>
				<polyline class="st0" points="-0.4,163.3 219.2,163.3 238.6,182.7 335.4,182.7 				"/>
				<g>
					<g>
						<circle class="st1" cx="335.2" cy="182.7" r="3.8"/>
						<path class="st2" d="M335.2,187c-2.3,0-4.3-1.9-4.3-4.3s1.9-4.3,4.3-4.3s4.3,1.9,4.3,4.3S337.5,187,335.2,187
							S337.5,187,335.2,187z M335.2,179.5c-1.8,0-3.3,1.5-3.3,3.3s1.5,3.3,3.3,3.3s3.3-1.5,3.3-3.3S337,179.5,335.2,179.5
							S337,179.5,335.2,179.5z"/>
					</g>
				</g>
			</g>
		</g>
		<g>
			<g>
				<polyline class="st0" points="-0.4,223.8 214.2,223.8 233.6,204.4 354.6,204.4 365,193.9 515.9,193.9 571.1,249.2 571.1,319.6 
					578.4,326.9 				"/>
				<g>
					<g>
						
							<ellipse transform="matrix(0.7071 -0.7071 0.7071 0.7071 -61.6601 504.6003)" class="st1" cx="578.3" cy="326.7" rx="3.8" ry="3.8"/>
						<path class="st2" d="M575.3,329.7c-1.7-1.7-1.7-4.4,0-6c1.7-1.7,4.4-1.7,6,0c1.7,1.7,1.7,4.4,0,6
							C579.6,331.4,576.9,331.4,575.3,329.7C573.6,328.1,576.9,331.4,575.3,329.7z M580.6,324.4c-1.3-1.3-3.3-1.3-4.6,0
							s-1.3,3.3,0,4.6c1.3,1.3,3.3,1.3,4.6,0S581.9,325.7,580.6,324.4C579.3,323.2,581.9,325.7,580.6,324.4z"/>
					</g>
				</g>
			</g>
		</g>
		<g>
			<g>
				<polyline class="st0" points="-0.4,233.5 218.5,233.5 237.9,214.1 359.2,214.1 369.7,203.6 510.9,203.6 556.2,249 556.2,265.1 
									"/>
				<g>
					<g>
						<circle class="st1" cx="556.2" cy="264.9" r="3.8"/>
						<path class="st2" d="M552,264.9c0-2.3,1.9-4.3,4.3-4.3s4.3,1.9,4.3,4.3c0,2.3-1.9,4.3-4.3,4.3S552,267.3,552,264.9
							C552,262.6,552,267.3,552,264.9z M559.5,264.9c0-1.8-1.5-3.3-3.3-3.3s-3.3,1.5-3.3,3.3c0,1.8,1.5,3.3,3.3,3.3
							S559.5,266.7,559.5,264.9C559.5,263.1,559.5,266.7,559.5,264.9z"/>
					</g>
				</g>
			</g>
		</g>
		<g>
			<g>
				<polyline class="st0" points="-0.4,173.4 214.2,173.4 233.6,192.8 349.5,192.8 359.2,183.1 520.9,183.1 581.6,243.8 
					581.6,310.5 				"/>
				<g>
					<g>
						<circle class="st1" cx="581.6" cy="310.3" r="3.8"/>
						<path class="st2" d="M577.3,310.3c0-2.3,1.9-4.3,4.3-4.3s4.3,1.9,4.3,4.3c0,2.3-1.9,4.3-4.3,4.3S577.3,312.6,577.3,310.3
							C577.3,307.9,577.3,312.6,577.3,310.3z M584.8,310.3c0-1.8-1.5-3.3-3.3-3.3s-3.3,1.5-3.3,3.3c0,1.8,1.5,3.3,3.3,3.3
							S584.8,312.1,584.8,310.3C584.8,308.5,584.8,312.1,584.8,310.3z"/>
					</g>
				</g>
			</g>
		</g>
		<g>
			<g>
				<polyline class="st0" points="-0.4,153.2 224.2,153.2 243.7,172.6 525.9,172.6 591.8,238.5 591.8,340.7 				"/>
				<g>
					<g>
						<circle class="st1" cx="591.8" cy="340.5" r="3.8"/>
						<path class="st2" d="M587.6,340.5c0-2.3,1.9-4.3,4.3-4.3s4.3,1.9,4.3,4.3c0,2.3-1.9,4.3-4.3,4.3S587.6,342.9,587.6,340.5
							C587.6,338.2,587.6,342.9,587.6,340.5z M595.1,340.5c0-1.8-1.5-3.3-3.3-3.3s-3.3,1.5-3.3,3.3c0,1.8,1.5,3.3,3.3,3.3
							S595.1,342.3,595.1,340.5C595.1,338.7,595.1,342.3,595.1,340.5z"/>
					</g>
				</g>
			</g>
		</g>
		<g>
			<g>
				<polyline class="st0" points="-0.4,244 233.6,244 253,263.4 315.2,263.4 				"/>
				<g>
					<g>
						<circle class="st1" cx="315" cy="263.4" r="3.8"/>
						<path class="st2" d="M315,267.6c-2.3,0-4.3-1.9-4.3-4.3s1.9-4.3,4.3-4.3s4.3,1.9,4.3,4.3S317.4,267.6,315,267.6
							S317.4,267.6,315,267.6z M315,260.1c-1.8,0-3.3,1.5-3.3,3.3s1.5,3.3,3.3,3.3s3.3-1.5,3.3-3.3S316.8,260.1,315,260.1
							S316.8,260.1,315,260.1z"/>
					</g>
				</g>
			</g>
		</g>
		<g>
			<g>
				<polyline class="st0" points="-0.4,264.1 224.2,264.1 243.7,283.5 350.5,283.5 				"/>
				<g>
					<g>
						<circle class="st1" cx="350.3" cy="283.5" r="3.8"/>
						<path class="st2" d="M350.3,287.8c-2.3,0-4.3-1.9-4.3-4.3s1.9-4.3,4.3-4.3s4.3,1.9,4.3,4.3S352.6,287.8,350.3,287.8
							S352.6,287.8,350.3,287.8z M350.3,280.3c-1.8,0-3.3,1.5-3.3,3.3s1.5,3.3,3.3,3.3s3.3-1.5,3.3-3.3S352.1,280.3,350.3,280.3
							S352.1,280.3,350.3,280.3z"/>
					</g>
				</g>
			</g>
		</g>
		<g>
			<g>
				<polyline class="st0" points="-0.4,274.2 219.2,274.2 238.6,293.6 289,293.6 301.7,306.3 				"/>
				<g>
					<g>
						
							<ellipse transform="matrix(0.7071 -0.7071 0.7071 0.7071 -128.136 302.8541)" class="st1" cx="301.5" cy="306.1" rx="3.8" ry="3.8"/>
						<path class="st2" d="M298.5,309.1c-1.7-1.7-1.7-4.4,0-6s4.4-1.7,6,0c1.7,1.7,1.7,4.4,0,6S300.2,310.8,298.5,309.1
							C296.8,307.5,300.2,310.8,298.5,309.1z M303.8,303.8c-1.3-1.3-3.3-1.3-4.6,0s-1.3,3.3,0,4.6c1.3,1.3,3.3,1.3,4.6,0
							S305.1,305.1,303.8,303.8C302.5,302.5,305.1,305.1,303.8,303.8z"/>
					</g>
				</g>
			</g>
		</g>
		<g>
			<g>
				<polyline class="st0" points="-0.4,284.3 214.2,284.3 233.6,303.7 278.9,303.7 291.6,316.3 				"/>
				<g>
					<g>
						
							<ellipse transform="matrix(0.7071 -0.7071 0.7071 0.7071 -138.2172 298.6782)" class="st1" cx="291.4" cy="316.2" rx="3.8" ry="3.8"/>
						<path class="st2" d="M288.4,319.2c-1.7-1.7-1.7-4.4,0-6s4.4-1.7,6,0c1.7,1.7,1.7,4.4,0,6C292.8,320.9,290.1,320.9,288.4,319.2
							C286.8,317.5,290.1,320.9,288.4,319.2z M293.7,313.9c-1.3-1.3-3.3-1.3-4.6,0c-1.3,1.3-1.3,3.3,0,4.6c1.3,1.3,3.3,1.3,4.6,0
							S295,315.1,293.7,313.9C292.5,312.6,295,315.1,293.7,313.9z"/>
					</g>
				</g>
			</g>
		</g>
		<g>
			<g>
				<polyline class="st0" points="-0.4,294.4 209.1,294.4 228.5,313.8 268.9,313.8 281.5,326.4 				"/>
				<g>
					<g>
						
							<ellipse transform="matrix(0.7071 -0.7071 0.7071 0.7071 -148.2985 294.5036)" class="st1" cx="281.3" cy="326.3" rx="3.8" ry="3.8"/>
						<path class="st2" d="M278.3,329.3c-1.7-1.7-1.7-4.4,0-6c1.7-1.7,4.4-1.7,6,0c1.7,1.7,1.7,4.4,0,6
							C282.7,330.9,280,330.9,278.3,329.3C276.7,327.6,280,330.9,278.3,329.3z M283.7,324c-1.3-1.3-3.3-1.3-4.6,0
							c-1.3,1.3-1.3,3.3,0,4.6c1.3,1.3,3.3,1.3,4.6,0S284.9,325.2,283.7,324C282.4,322.7,284.9,325.2,283.7,324z"/>
					</g>
				</g>
			</g>
		</g>
		<g>
			<g>
				<polyline class="st0" points="-0.4,254 229.3,254 248.7,273.5 334.4,273.5 379.4,228.5 500.7,228.5 556.4,284.1 556.4,329.6 
					578.6,351.9 				"/>
				<g>
					<g>
						
							<ellipse transform="matrix(0.7071 -0.7071 0.7071 0.7071 -79.2942 512.0613)" class="st1" cx="578.5" cy="351.7" rx="3.8" ry="3.8"/>
						<path class="st2" d="M575.5,354.8c-1.7-1.7-1.7-4.4,0-6s4.4-1.7,6,0c1.7,1.7,1.7,4.4,0,6C579.8,356.4,577.1,356.4,575.5,354.8
							C573.8,353.1,577.1,356.4,575.5,354.8z M580.8,349.4c-1.3-1.3-3.3-1.3-4.6,0c-1.3,1.3-1.3,3.3,0,4.6c1.3,1.3,3.3,1.3,4.6,0
							S582,350.7,580.8,349.4C579.5,348.2,582,350.7,580.8,349.4z"/>
					</g>
				</g>
			</g>
		</g>
	</g>
	<g id="right">
		<g>
			<g>
				<polyline class="st0" points="1208.6,134.6 991.6,134.6 969.8,156.4 798,156.4 				"/>
				<g>
					<g>
						<circle class="st1" cx="798.2" cy="156.4" r="3.8"/>
						<path class="st2" d="M798.2,152.1c2.3,0,4.3,1.9,4.3,4.3c0,2.3-1.9,4.3-4.3,4.3s-4.3-1.9-4.3-4.3
							C793.9,154.1,795.8,152.1,798.2,152.1S795.8,152.1,798.2,152.1z M798.2,159.7c1.8,0,3.3-1.5,3.3-3.3s-1.5-3.3-3.3-3.3
							s-3.3,1.5-3.3,3.3S796.4,159.7,798.2,159.7S796.4,159.7,798.2,159.7z"/>
					</g>
				</g>
			</g>
		</g>
		<g>
			<g>
				<polyline class="st0" points="1208.6,144.2 995.6,144.2 942.2,197.7 942.2,314.3 929.6,326.9 929.6,350 				"/>
				<g>
					<g>
						<circle class="st1" cx="929.6" cy="349.8" r="3.8"/>
						<path class="st2" d="M925.4,349.8c0-2.3,1.9-4.3,4.3-4.3s4.3,1.9,4.3,4.3c0,2.3-1.9,4.3-4.3,4.3S925.4,352.1,925.4,349.8
							C925.4,347.4,925.4,352.1,925.4,349.8z M932.9,349.8c0-1.8-1.5-3.3-3.3-3.3s-3.3,1.5-3.3,3.3c0,1.8,1.5,3.3,3.3,3.3
							S932.9,351.6,932.9,349.8C932.9,348,932.9,351.6,932.9,349.8z"/>
					</g>
				</g>
			</g>
		</g>
	</g>
</g>
<g id="beaker">
	<g>
		<path class="st3" d="M650.7,324c-1.1-1.7-1-2.7-1-4c0-1.3,0-5.6,0-7.2c0-1.6,0.2-2.2,2.1-3c1.8-0.8,1.8-1.3,1.8-2.2s-0.1-2-1.7-2
			c-1.6,0-7.8,0-7.8,0s-6.2,0-7.8,0c-1.6,0-1.7,1.2-1.7,2s0,1.3,1.8,2.2c1.8,0.8,2.1,1.5,2.1,3c0,1.6,0,5.8,0,7.2c0,1.3,0.1,2.3-1,4
			c-1.1,1.7-24.4,33.1-27,36.7c-2.7,3.6-3.4,7.9-1.7,10.4c1.7,2.5,4,4.1,6.4,4.2c2.4,0.1,28.9,0,28.9,0s26.5,0.1,28.9,0
			c2.4-0.1,4.7-1.7,6.4-4.2s1-6.8-1.7-10.4C675,357.1,651.8,325.7,650.7,324z"/>
		<circle class="st3" cx="638.4" cy="296.5" r="3.2"/>
		<circle class="st3" cx="646.5" cy="301.2" r="2.1"/>
		<circle class="st3" cx="647.1" cy="290.7" r="4.5"/>
	</g>
	<g>
		<path class="st4" d="M671.5,367c-2.7-3.6-26-35-27-36.7c-1.1-1.7-1-2.7-1-4s0-5.6,0-7.2c0-1.6,0.2-2.2,2.1-3
			c1.8-0.8,1.8-1.3,1.8-2.2c0-0.8-0.1-2-1.7-2c-1.6,0-7.8,0-7.8,0s-6.2,0-7.8,0c-1.6,0-1.7,1.2-1.7,2c0,0.8,0,1.3,1.8,2.2
			c1.8,0.8,2.1,1.5,2.1,3c0,1.6,0,5.8,0,7.2s0.1,2.3-1,4c-1.1,1.7-24.4,33.1-27,36.7c-2.7,3.6-3.4,7.9-1.7,10.4
			c1.7,2.5,4,4.1,6.4,4.2c2.4,0.1,28.9,0,28.9,0s26.5,0.1,28.9,0c2.4-0.1,4.7-1.7,6.4-4.2C674.9,374.9,674.1,370.6,671.5,367z"/>
		<circle class="st4" cx="632.2" cy="302.8" r="3.2"/>
		<circle class="st4" cx="640.2" cy="307.5" r="2.1"/>
		<circle class="st4" cx="640.9" cy="296.9" r="4.5"/>
	</g>
</g>
<g id="shoe">
	<path class="st3" d="M191.6,322.4c-4.1-4.1-38.6-12.3-44.6-5.1c-2.6,3.1-23.3,21.8-32.5,24.6c-9.1,2.8-42.6,4.8-47.7,10.9
		c-5.1,6.1-1,10.2,6.1,16.3c7.1,6,53.9,7.1,59.9,5c6-2,16.2-5,27.3-5c11.2,0,2.8,5.9,11.5,6s24,2.2,25-6
		C197.6,360.9,195.6,326.4,191.6,322.4z M170.2,338.8c-3.4,0-6.1-2.7-6.1-6.1c0-3.4,2.7-6.1,6.1-6.1c3.4,0,6.1,2.7,6.1,6.1
		C176.3,336,173.6,338.8,170.2,338.8z"/>
	<path class="st4" d="M185.3,328.6c-4.1-4.1-38.6-12.3-44.6-5.1c-2.6,3.1-23.3,21.8-32.5,24.6c-9.1,2.8-42.6,4.8-47.7,10.9
		c-5.1,6.1-1,10.2,6.1,16.3c7.1,6,53.9,7.1,59.9,5c6-2,16.2-5,27.3-5c11.2,0,2.8,5.9,11.5,6s24,2.2,25-6
		C191.4,367.1,189.4,332.6,185.3,328.6z M164,345c-3.4,0-6.1-2.7-6.1-6.1c0-3.4,2.7-6.1,6.1-6.1c3.4,0,6.1,2.7,6.1,6.1
		C170.1,342.3,167.4,345,164,345z"/>
</g>
<g id="paint">
	<g>
		<path class="st3" d="M906.2,312.4c0.3-0.5-0.9-2-1.4-2.6c-0.5-0.6-3.4-3.1-4-3.6c-0.6-0.5-1.4-1.2-1.8-0.2c-0.4,0.9-1.3,1.9-1.1,3
			c0.2,1.1,0.9,1.3,0.9,1.3s0.6-0.3,0.7-0.8c0.1-0.4,0.7-0.7,0.9-0.2c0.3,0.5,1.1,2.2,0.4,2.6c-0.7,0.4-2.3,1.1-2.5,0.7
			c-0.3-0.5-1.6-3.1-1.3-3.5c0.3-0.4,1.6-3.9,1.7-4.5c0.1-0.7,0.4-3.7,1.2-4.9c0.8-1.2,3.8-5.8,3.5-7.5c-0.3-1.7-0.3-5.2,0.4-6.3
			c0.6-1.1,3.9-5.8,4.5-6.1c0.6-0.3,3.2-3.1,3.6-3.3c0.4-0.2,3.3-3.8,3.7-4.3c0.5-0.5,1.9-1.8,3.1-3.2c0.2-0.3,0.2-2.2,0-2.3
			c-0.2-0.1-1.3-0.2-2.2-0.5c-0.9-0.3-6-4.5-7.4-5.9c-1.4-1.4-4.9-5.2-5.4-6.3c-0.6-1.1-2.4-0.3-2.4-0.3c-1.1,0.8-7.2,8.3-7.8,9
			c-0.6,0.7-2.8,4.8-3,5.7c-0.1,0.9-2.7,9.3-3,10.9c-0.3,1.6-0.1,4.9-1.4,6.2c-1.3,1.3-4.8,6.3-6.4,8c-1.6,1.7-2.4,2.6-2.9,3.6
			c-0.4,1.1-1.5,2.4-0.8,3.9c0.7,1.5,2.5,2.7,2.5,2.7c0.9,0.5,5.9,4.1,7.2,5.2s5.8,5.5,7.1,6.3c1.3,0.8,3.2,2.8,4.9,2.3
			c1.7-0.5,3.9-0.8,4.4-0.6c0.5,0.2,3-0.9,3.3-1.8C905.8,314.4,906,312.9,906.2,312.4z"/>
		<path class="st3" d="M909.9,259.7c1.1,1,6,5,6.5,5.4c0.5,0.4,1.9,0.4,2,0.5c0.2,0.2,0.6,0.4,0.6,0.4c-0.4-3-1.4-6.4-1.6-7.1
			c-0.1-0.6-1.1-1.2-1.5-1.4c0,0-0.1,0-0.1-0.1c0,0,0.1,0,0.1,0.1c0.5,0.2,1.5,0.5,1.7,0.3c0.2-0.2,1.7-2.4,1.8-2.6
			c0.1-0.2-0.2-0.9-0.4-1.1c0.2,0.2,2.3,2,2.8,2.2c0.5,0.3,1.5-0.6,1.8-1.1c0.3-0.5,0.5-1.4-0.1-2.2c-0.5-0.8-8.4-6.9-9.7-7.3
			c-1.3-0.4-1.7,0.2-2,0.6c-0.2,0.3-0.3,0.7-0.5,1.1c-0.2,0.4,0.2,0.9,0.7,1.4c0.5,0.5,2.3,1.7,2.9,2c-0.6-0.3-1.4-0.9-1.8-0.8
			c-0.4,0-0.7-0.1-1.6,1c-0.9,1.1-1.2,1.1-1.2,1.5c0,0.5,0.3,1,0.3,1s-0.2-0.5-0.6-0.6c-0.4-0.1-1,0.1-1.5,0.1c-0.5,0-2.5,0-4.2,0.1
			c0,0,0.4,0.3,0.6,0.6C905,253.9,908.8,258.6,909.9,259.7z"/>
	</g>
	<g>
		<path class="st4" d="M910.6,272.1c-1.2,1.4-2.6,2.8-3.1,3.2c-0.5,0.5-3.3,4.1-3.7,4.3c-0.4,0.2-3.1,3-3.6,3.3s-3.8,5.1-4.5,6.1
			s-0.7,4.6-0.4,6.3c0.3,1.7-2.7,6.3-3.5,7.5c-0.8,1.2-1.1,4.2-1.2,4.9c-0.1,0.7-1.4,4.2-1.7,4.5c-0.3,0.4,1,3,1.3,3.5
			c0.3,0.5,1.8-0.3,2.5-0.7s-0.1-2.1-0.4-2.6c-0.3-0.5-0.9-0.3-0.9,0.2c-0.1,0.4-0.7,0.8-0.7,0.8s-0.7-0.2-0.9-1.3
			c-0.2-1.1,0.7-2.1,1.1-3c0.4-0.9,1.2-0.3,1.8,0.2c0.6,0.5,3.5,3,4,3.6c0.5,0.6,1.7,2.2,1.4,2.6s-0.5,2-0.7,2.9
			c-0.3,0.9-2.7,2-3.3,1.8s-2.7,0.1-4.4,0.6c-1.7,0.5-3.6-1.4-4.9-2.3c-1.3-0.8-5.8-5.2-7.1-6.3c-1.3-1.2-6.3-4.8-7.2-5.2
			c0,0-1.8-1.3-2.5-2.7c-0.7-1.5,0.3-2.8,0.8-3.9s1.2-1.9,2.9-3.6c1.6-1.7,5.1-6.7,6.4-8c1.3-1.3,1.2-4.6,1.4-6.2
			c0.3-1.6,2.9-10,3-10.9s2.3-5,3-5.7s6.7-8.2,7.8-9c0,0,1.8-0.8,2.4,0.3c0.6,1.1,4,5,5.4,6.3s6.5,5.6,7.4,5.9
			c0.9,0.3,2,0.4,2.2,0.5C910.9,269.9,910.9,271.8,910.6,272.1z"/>
		<g>
			<path class="st4" d="M907.7,260.7c-0.5-0.2-3-1.9-3.9-2.5c-0.9-0.6-1.2-1.1-1.6-1.6c0,0-0.2-0.5-0.6-0.6c-0.4-0.1-1,0.1-1.5,0.1
				c-0.5,0-2.5,0-4.2,0.1c0,0,0.4,0.3,0.6,0.6c0.2,0.3,4,5.1,5.1,6.1c1.1,1,6,5,6.5,5.4c0.5,0.4,1.9,0.4,2,0.5
				c0.2,0.2,0.6,0.4,0.6,0.4c-0.4-3-1.4-6.4-1.6-7.1C909.1,261.5,908.2,260.9,907.7,260.7z"/>
			<path class="st4" d="M903.5,249.3c-0.2,0.3-0.3,0.7-0.5,1.1c-0.2,0.4,0.2,0.9,0.7,1.4c0.5,0.5,2.3,1.7,2.9,2
				c0.6,0.3,4,3.1,4.2,3.3c0.2,0.2,2.3,2,2.8,2.2c0.5,0.3,1.5-0.6,1.8-1.1c0.3-0.5,0.5-1.4-0.1-2.2c-0.5-0.8-8.4-6.9-9.7-7.3
				C904.1,248.4,903.7,249,903.5,249.3z"/>
		</g>
		<path class="st4" d="M902.2,256.5c0.4,0.5,0.8,0.9,1.6,1.6s3.4,2.3,3.9,2.5c0.5,0.2,1.5,0.5,1.7,0.3c0.2-0.2,1.7-2.4,1.8-2.6
			c0.1-0.2-0.2-0.9-0.4-1.1s-3.7-3-4.2-3.3s-1.4-0.9-1.8-0.8c-0.4,0-0.7-0.1-1.6,1c-0.9,1.1-1.2,1.1-1.2,1.5
			C901.9,256,902.2,256.5,902.2,256.5z"/>
	</g>
</g>
<g id="Computer">
	<g>
		<path class="st3" d="M1149.8,163h-141.1c-4.1,0-7.4,3.3-7.4,7.4v83.4c0,4.1,3.3,7.4,7.4,7.4h52.4c0,0-2.2,11.7-3.7,17.3
			c-1.5,5.6,1,6.8,3.7,6.8c2.2,0,34.1,0,36.3,0c2.7,0,5.1-1.2,3.7-6.8c-1.5-5.6-3.7-17.3-3.7-17.3h52.4c4.1,0,7.4-3.3,7.4-7.4v-83.4
			C1157.2,166.3,1153.9,163,1149.8,163z"/>
		<path class="st3" d="M1121.6,302.8h-84.7c-0.4,0-0.7,0.3-0.7,0.7v35.3c0,0.4,0.3,0.7,0.7,0.7h84.7c0.4,0,0.7-0.3,0.7-0.7v-35.3
			C1122.3,303.1,1122,302.8,1121.6,302.8z"/>
	</g>
	<g>
		<path class="st4" d="M1143,268h-141.5c-4,0-7.2-3.2-7.2-7.2v-83.7c0-4,3.2-7.2,7.2-7.2H1143c4,0,7.2,3.2,7.2,7.2v83.7
			C1150.2,264.8,1147,268,1143,268z"/>
		<rect x="1002.3" y="177.8" class="st4" width="140" height="82.3"/>
		<path class="st4" d="M1094.1,285.3c-1.5-5.6-3.7-17.3-3.7-17.3h-17.5h-1.2h-17.5c0,0-2.2,11.7-3.7,17.3c-1.5,5.6,1,6.8,3.7,6.8
			c2.2,0,34.1,0,36.3,0C1093.1,292.1,1095.6,290.9,1094.1,285.3z"/>
		<g>
			<path class="st4" d="M1114.7,346.5H1030c-0.4,0-0.7-0.3-0.7-0.7v-35.3c0-0.4,0.3-0.7,0.7-0.7h84.7c0.4,0,0.7,0.3,0.7,0.7v35.3
				C1115.4,346.2,1115.1,346.5,1114.7,346.5z"/>
			<path class="st4" d="M1090.8,344.1h-35c-0.4,0-0.7-0.3-0.7-0.7v-3.4c0-0.4,0.3-0.7,0.7-0.7h35c0.4,0,0.7,0.3,0.7,0.7v3.4
				C1091.5,343.7,1091.2,344.1,1090.8,344.1z"/>
			<path class="st4" d="M1053.4,344.1h-5.5c-0.4,0-0.7-0.3-0.7-0.7v-3.4c0-0.4,0.3-0.7,0.7-0.7h5.5c0.4,0,0.7,0.3,0.7,0.7v3.4
				C1054.1,343.7,1053.8,344.1,1053.4,344.1z"/>
			<path class="st4" d="M1039.7,344.1h-7.5c-0.4,0-0.7-0.3-0.7-0.7v-3.4c0-0.4,0.3-0.7,0.7-0.7h7.5c0.4,0,0.7,0.3,0.7,0.7v3.4
				C1040.4,343.7,1040.1,344.1,1039.7,344.1z"/>
			<path class="st4" d="M1043.1,338.1h-10.9c-0.4,0-0.7-0.3-0.7-0.7v-3.4c0-0.4,0.3-0.7,0.7-0.7h10.9c0.4,0,0.7,0.3,0.7,0.7v3.4
				C1043.8,337.7,1043.5,338.1,1043.1,338.1z"/>
			<path class="st4" d="M1112.5,338.1h-8.9c-0.4,0-0.7-0.3-0.7-0.7v-3.4c0-0.4,0.3-0.7,0.7-0.7h8.9c0.4,0,0.7,0.3,0.7,0.7v3.4
				C1113.2,337.8,1112.8,338.1,1112.5,338.1z"/>
			<path class="st4" d="M1045.4,344.1h-3.3c-0.4,0-0.7-0.3-0.7-0.7v-3.4c0-0.4,0.3-0.7,0.7-0.7h3.3c0.4,0,0.7,0.3,0.7,0.7v3.4
				C1046.1,343.7,1045.8,344.1,1045.4,344.1z"/>
			<path class="st4" d="M1048.8,338.1h-3.3c-0.4,0-0.7-0.3-0.7-0.7v-3.4c0-0.4,0.3-0.7,0.7-0.7h3.3c0.4,0,0.7,0.3,0.7,0.7v3.4
				C1049.5,337.7,1049.2,338.1,1048.8,338.1z"/>
			<path class="st4" d="M1054.6,338.1h-3.3c-0.4,0-0.7-0.3-0.7-0.7v-3.4c0-0.4,0.3-0.7,0.7-0.7h3.3c0.4,0,0.7,0.3,0.7,0.7v3.4
				C1055.3,337.7,1054.9,338.1,1054.6,338.1z"/>
			<path class="st4" d="M1060.3,338.1h-3.3c-0.4,0-0.7-0.3-0.7-0.7v-3.4c0-0.4,0.3-0.7,0.7-0.7h3.3c0.4,0,0.7,0.3,0.7,0.7v3.4
				C1061.1,337.7,1060.7,338.1,1060.3,338.1z"/>
			<path class="st4" d="M1066.1,338.1h-3.3c-0.4,0-0.7-0.3-0.7-0.7v-3.4c0-0.4,0.3-0.7,0.7-0.7h3.3c0.4,0,0.7,0.3,0.7,0.7v3.4
				C1066.9,337.7,1066.5,338.1,1066.1,338.1z"/>
			<path class="st4" d="M1071.9,338.1h-3.3c-0.4,0-0.7-0.3-0.7-0.7v-3.4c0-0.4,0.3-0.7,0.7-0.7h3.3c0.4,0,0.7,0.3,0.7,0.7v3.4
				C1072.7,337.7,1072.3,338.1,1071.9,338.1z"/>
			<path class="st4" d="M1077.7,338.1h-3.3c-0.4,0-0.7-0.3-0.7-0.7v-3.4c0-0.4,0.3-0.7,0.7-0.7h3.3c0.4,0,0.7,0.3,0.7,0.7v3.4
				C1078.4,337.7,1078.1,338.1,1077.7,338.1z"/>
			<path class="st4" d="M1083.5,338.1h-3.3c-0.4,0-0.7-0.3-0.7-0.7v-3.4c0-0.4,0.3-0.7,0.7-0.7h3.3c0.4,0,0.7,0.3,0.7,0.7v3.4
				C1084.2,337.7,1083.9,338.1,1083.5,338.1z"/>
			<path class="st4" d="M1089.3,338.1h-3.3c-0.4,0-0.7-0.3-0.7-0.7v-3.4c0-0.4,0.3-0.7,0.7-0.7h3.3c0.4,0,0.7,0.3,0.7,0.7v3.4
				C1090,337.7,1089.7,338.1,1089.3,338.1z"/>
			<path class="st4" d="M1095.1,338.1h-3.3c-0.4,0-0.7-0.3-0.7-0.7v-3.4c0-0.4,0.3-0.7,0.7-0.7h3.3c0.4,0,0.7,0.3,0.7,0.7v3.4
				C1095.8,337.7,1095.5,338.1,1095.1,338.1z"/>
			<path class="st4" d="M1100.9,338.1h-3.3c-0.4,0-0.7-0.3-0.7-0.7v-3.4c0-0.4,0.3-0.7,0.7-0.7h3.3c0.4,0,0.7,0.3,0.7,0.7v3.4
				C1101.6,337.7,1101.3,338.1,1100.9,338.1z"/>
			<path class="st4" d="M1045.7,332.1h-3.3c-0.4,0-0.7-0.3-0.7-0.7v-3.4c0-0.4,0.3-0.7,0.7-0.7h3.3c0.4,0,0.7,0.3,0.7,0.7v3.4
				C1046.4,331.7,1046.1,332.1,1045.7,332.1z"/>
			<path class="st4" d="M1039.9,332.1h-7.7c-0.4,0-0.7-0.3-0.7-0.7v-3.4c0-0.4,0.3-0.7,0.7-0.7h7.7c0.4,0,0.7,0.3,0.7,0.7v3.4
				C1040.6,331.7,1040.3,332.1,1039.9,332.1z"/>
			<path class="st4" d="M1051.5,332.1h-3.3c-0.4,0-0.7-0.3-0.7-0.7v-3.4c0-0.4,0.3-0.7,0.7-0.7h3.3c0.4,0,0.7,0.3,0.7,0.7v3.4
				C1052.2,331.7,1051.8,332.1,1051.5,332.1z"/>
			<path class="st4" d="M1057.2,332.1h-3.3c-0.4,0-0.7-0.3-0.7-0.7v-3.4c0-0.4,0.3-0.7,0.7-0.7h3.3c0.4,0,0.7,0.3,0.7,0.7v3.4
				C1058,331.7,1057.6,332.1,1057.2,332.1z"/>
			<path class="st4" d="M1063,332.1h-3.3c-0.4,0-0.7-0.3-0.7-0.7v-3.4c0-0.4,0.3-0.7,0.7-0.7h3.3c0.4,0,0.7,0.3,0.7,0.7v3.4
				C1063.8,331.7,1063.4,332.1,1063,332.1z"/>
			<path class="st4" d="M1068.8,332.1h-3.3c-0.4,0-0.7-0.3-0.7-0.7v-3.4c0-0.4,0.3-0.7,0.7-0.7h3.3c0.4,0,0.7,0.3,0.7,0.7v3.4
				C1069.6,331.7,1069.2,332.1,1068.8,332.1z"/>
			<path class="st4" d="M1074.6,332.1h-3.3c-0.4,0-0.7-0.3-0.7-0.7v-3.4c0-0.4,0.3-0.7,0.7-0.7h3.3c0.4,0,0.7,0.3,0.7,0.7v3.4
				C1075.3,331.7,1075,332.1,1074.6,332.1z"/>
			<path class="st4" d="M1080.4,332.1h-3.3c-0.4,0-0.7-0.3-0.7-0.7v-3.4c0-0.4,0.3-0.7,0.7-0.7h3.3c0.4,0,0.7,0.3,0.7,0.7v3.4
				C1081.1,331.7,1080.8,332.1,1080.4,332.1z"/>
			<path class="st4" d="M1086.2,332.1h-3.3c-0.4,0-0.7-0.3-0.7-0.7v-3.4c0-0.4,0.3-0.7,0.7-0.7h3.3c0.4,0,0.7,0.3,0.7,0.7v3.4
				C1086.9,331.7,1086.6,332.1,1086.2,332.1z"/>
			<path class="st4" d="M1092,332.1h-3.3c-0.4,0-0.7-0.3-0.7-0.7v-3.4c0-0.4,0.3-0.7,0.7-0.7h3.3c0.4,0,0.7,0.3,0.7,0.7v3.4
				C1092.7,331.7,1092.4,332.1,1092,332.1z"/>
			<path class="st4" d="M1097.8,332.1h-3.3c-0.4,0-0.7-0.3-0.7-0.7v-3.4c0-0.4,0.3-0.7,0.7-0.7h3.3c0.4,0,0.7,0.3,0.7,0.7v3.4
				C1098.5,331.7,1098.2,332.1,1097.8,332.1z"/>
			<path class="st4" d="M1103.6,332.1h-3.3c-0.4,0-0.7-0.3-0.7-0.7v-3.4c0-0.4,0.3-0.7,0.7-0.7h3.3c0.4,0,0.7,0.3,0.7,0.7v3.4
				C1104.3,331.7,1104,332.1,1103.6,332.1z"/>
			<path class="st4" d="M1042.6,326.3h-3.3c-0.4,0-0.7-0.3-0.7-0.7v-3.4c0-0.4,0.3-0.7,0.7-0.7h3.3c0.4,0,0.7,0.3,0.7,0.7v3.4
				C1043.3,325.9,1043,326.3,1042.6,326.3z"/>
			<path class="st4" d="M1036.8,326.3h-4.8c-0.4,0-0.7-0.3-0.7-0.7v-3.4c0-0.4,0.3-0.7,0.7-0.7h4.8c0.4,0,0.7,0.3,0.7,0.7v3.4
				C1037.5,325.9,1037.2,326.3,1036.8,326.3z"/>
			<path class="st4" d="M1048.4,326.3h-3.3c-0.4,0-0.7-0.3-0.7-0.7v-3.4c0-0.4,0.3-0.7,0.7-0.7h3.3c0.4,0,0.7,0.3,0.7,0.7v3.4
				C1049.1,325.9,1048.8,326.3,1048.4,326.3z"/>
			<path class="st4" d="M1054.2,326.3h-3.3c-0.4,0-0.7-0.3-0.7-0.7v-3.4c0-0.4,0.3-0.7,0.7-0.7h3.3c0.4,0,0.7,0.3,0.7,0.7v3.4
				C1054.9,325.9,1054.6,326.3,1054.2,326.3z"/>
			<path class="st4" d="M1060,326.3h-3.3c-0.4,0-0.7-0.3-0.7-0.7v-3.4c0-0.4,0.3-0.7,0.7-0.7h3.3c0.4,0,0.7,0.3,0.7,0.7v3.4
				C1060.7,325.9,1060.4,326.3,1060,326.3z"/>
			<path class="st4" d="M1065.8,326.3h-3.3c-0.4,0-0.7-0.3-0.7-0.7v-3.4c0-0.4,0.3-0.7,0.7-0.7h3.3c0.4,0,0.7,0.3,0.7,0.7v3.4
				C1066.5,325.9,1066.2,326.3,1065.8,326.3z"/>
			<path class="st4" d="M1071.6,326.3h-3.3c-0.4,0-0.7-0.3-0.7-0.7v-3.4c0-0.4,0.3-0.7,0.7-0.7h3.3c0.4,0,0.7,0.3,0.7,0.7v3.4
				C1072.3,325.9,1072,326.3,1071.6,326.3z"/>
			<path class="st4" d="M1077.4,326.3h-3.3c-0.4,0-0.7-0.3-0.7-0.7v-3.4c0-0.4,0.3-0.7,0.7-0.7h3.3c0.4,0,0.7,0.3,0.7,0.7v3.4
				C1078.1,325.9,1077.8,326.3,1077.4,326.3z"/>
			<path class="st4" d="M1083.2,326.3h-3.3c-0.4,0-0.7-0.3-0.7-0.7v-3.4c0-0.4,0.3-0.7,0.7-0.7h3.3c0.4,0,0.7,0.3,0.7,0.7v3.4
				C1083.9,325.9,1083.6,326.3,1083.2,326.3z"/>
			<path class="st4" d="M1089,326.3h-3.3c-0.4,0-0.7-0.3-0.7-0.7v-3.4c0-0.4,0.3-0.7,0.7-0.7h3.3c0.4,0,0.7,0.3,0.7,0.7v3.4
				C1089.7,325.9,1089.4,326.3,1089,326.3z"/>
			<path class="st4" d="M1094.8,326.3h-3.3c-0.4,0-0.7-0.3-0.7-0.7v-3.4c0-0.4,0.3-0.7,0.7-0.7h3.3c0.4,0,0.7,0.3,0.7,0.7v3.4
				C1095.5,325.9,1095.2,326.3,1094.8,326.3z"/>
			<path class="st4" d="M1100.5,326.3h-3.3c-0.4,0-0.7-0.3-0.7-0.7v-3.4c0-0.4,0.3-0.7,0.7-0.7h3.3c0.4,0,0.7,0.3,0.7,0.7v3.4
				C1101.3,325.9,1100.9,326.3,1100.5,326.3z"/>
			<path class="st4" d="M1106.3,326.3h-3.3c-0.4,0-0.7-0.3-0.7-0.7v-3.4c0-0.4,0.3-0.7,0.7-0.7h3.3c0.4,0,0.7,0.3,0.7,0.7v3.4
				C1107.1,325.9,1106.7,326.3,1106.3,326.3z"/>
			<path class="st4" d="M1112.1,326.3h-3.3c-0.4,0-0.7-0.3-0.7-0.7v-3.4c0-0.4,0.3-0.7,0.7-0.7h3.3c0.4,0,0.7,0.3,0.7,0.7v3.4
				C1112.9,325.9,1112.5,326.3,1112.1,326.3z"/>
			<path class="st4" d="M1035.5,320.5h-3.3c-0.4,0-0.7-0.3-0.7-0.7v-3.4c0-0.4,0.3-0.7,0.7-0.7h3.3c0.4,0,0.7,0.3,0.7,0.7v3.4
				C1036.2,320.1,1035.9,320.5,1035.5,320.5z"/>
			<path class="st4" d="M1041.2,320.5h-3.3c-0.4,0-0.7-0.3-0.7-0.7v-3.4c0-0.4,0.3-0.7,0.7-0.7h3.3c0.4,0,0.7,0.3,0.7,0.7v3.4
				C1042,320.1,1041.6,320.5,1041.2,320.5z"/>
			<path class="st4" d="M1047,320.5h-3.3c-0.4,0-0.7-0.3-0.7-0.7v-3.4c0-0.4,0.3-0.7,0.7-0.7h3.3c0.4,0,0.7,0.3,0.7,0.7v3.4
				C1047.8,320.1,1047.4,320.5,1047,320.5z"/>
			<path class="st4" d="M1052.8,320.5h-3.3c-0.4,0-0.7-0.3-0.7-0.7v-3.4c0-0.4,0.3-0.7,0.7-0.7h3.3c0.4,0,0.7,0.3,0.7,0.7v3.4
				C1053.6,320.1,1053.2,320.5,1052.8,320.5z"/>
			<path class="st4" d="M1058.6,320.5h-3.3c-0.4,0-0.7-0.3-0.7-0.7v-3.4c0-0.4,0.3-0.7,0.7-0.7h3.3c0.4,0,0.7,0.3,0.7,0.7v3.4
				C1059.4,320.1,1059,320.5,1058.6,320.5z"/>
			<path class="st4" d="M1064.4,320.5h-3.3c-0.4,0-0.7-0.3-0.7-0.7v-3.4c0-0.4,0.3-0.7,0.7-0.7h3.3c0.4,0,0.7,0.3,0.7,0.7v3.4
				C1065.1,320.1,1064.8,320.5,1064.4,320.5z"/>
			<path class="st4" d="M1070.2,320.5h-3.3c-0.4,0-0.7-0.3-0.7-0.7v-3.4c0-0.4,0.3-0.7,0.7-0.7h3.3c0.4,0,0.7,0.3,0.7,0.7v3.4
				C1070.9,320.1,1070.6,320.5,1070.2,320.5z"/>
			<path class="st4" d="M1076,320.5h-3.3c-0.4,0-0.7-0.3-0.7-0.7v-3.4c0-0.4,0.3-0.7,0.7-0.7h3.3c0.4,0,0.7,0.3,0.7,0.7v3.4
				C1076.7,320.1,1076.4,320.5,1076,320.5z"/>
			<path class="st4" d="M1081.8,320.5h-3.3c-0.4,0-0.7-0.3-0.7-0.7v-3.4c0-0.4,0.3-0.7,0.7-0.7h3.3c0.4,0,0.7,0.3,0.7,0.7v3.4
				C1082.5,320.1,1082.2,320.5,1081.8,320.5z"/>
			<path class="st4" d="M1087.6,320.5h-3.3c-0.4,0-0.7-0.3-0.7-0.7v-3.4c0-0.4,0.3-0.7,0.7-0.7h3.3c0.4,0,0.7,0.3,0.7,0.7v3.4
				C1088.3,320.1,1088,320.5,1087.6,320.5z"/>
			<path class="st4" d="M1093.4,320.5h-3.3c-0.4,0-0.7-0.3-0.7-0.7v-3.4c0-0.4,0.3-0.7,0.7-0.7h3.3c0.4,0,0.7,0.3,0.7,0.7v3.4
				C1094.1,320.1,1093.8,320.5,1093.4,320.5z"/>
			<path class="st4" d="M1099.2,320.5h-3.3c-0.4,0-0.7-0.3-0.7-0.7v-3.4c0-0.4,0.3-0.7,0.7-0.7h3.3c0.4,0,0.7,0.3,0.7,0.7v3.4
				C1099.9,320.1,1099.6,320.5,1099.2,320.5z"/>
			<path class="st4" d="M1105,320.5h-3.3c-0.4,0-0.7-0.3-0.7-0.7v-3.4c0-0.4,0.3-0.7,0.7-0.7h3.3c0.4,0,0.7,0.3,0.7,0.7v3.4
				C1105.7,320.1,1105.4,320.5,1105,320.5z"/>
			<path class="st4" d="M1035.6,314.7h-3.4c-0.4,0-0.7-0.3-0.7-0.7v-1c0-0.4,0.3-0.7,0.7-0.7h3.4c0.4,0,0.7,0.3,0.7,0.7v1
				C1036.3,314.4,1036,314.7,1035.6,314.7z"/>
			<path class="st4" d="M1041.5,314.7h-3.4c-0.4,0-0.7-0.3-0.7-0.7v-1c0-0.4,0.3-0.7,0.7-0.7h3.4c0.4,0,0.7,0.3,0.7,0.7v1
				C1042.2,314.4,1041.9,314.7,1041.5,314.7z"/>
			<path class="st4" d="M1047.4,314.7h-3.4c-0.4,0-0.7-0.3-0.7-0.7v-1c0-0.4,0.3-0.7,0.7-0.7h3.4c0.4,0,0.7,0.3,0.7,0.7v1
				C1048.1,314.4,1047.8,314.7,1047.4,314.7z"/>
			<path class="st4" d="M1053.3,314.7h-3.4c-0.4,0-0.7-0.3-0.7-0.7v-1c0-0.4,0.3-0.7,0.7-0.7h3.4c0.4,0,0.7,0.3,0.7,0.7v1
				C1054,314.4,1053.7,314.7,1053.3,314.7z"/>
			<path class="st4" d="M1059.2,314.7h-3.4c-0.4,0-0.7-0.3-0.7-0.7v-1c0-0.4,0.3-0.7,0.7-0.7h3.4c0.4,0,0.7,0.3,0.7,0.7v1
				C1059.9,314.4,1059.6,314.7,1059.2,314.7z"/>
			<path class="st4" d="M1065.1,314.7h-3.4c-0.4,0-0.7-0.3-0.7-0.7v-1c0-0.4,0.3-0.7,0.7-0.7h3.4c0.4,0,0.7,0.3,0.7,0.7v1
				C1065.9,314.4,1065.5,314.7,1065.1,314.7z"/>
			<path class="st4" d="M1071,314.7h-3.4c-0.4,0-0.7-0.3-0.7-0.7v-1c0-0.4,0.3-0.7,0.7-0.7h3.4c0.4,0,0.7,0.3,0.7,0.7v1
				C1071.8,314.4,1071.4,314.7,1071,314.7z"/>
			<path class="st4" d="M1077,314.7h-3.4c-0.4,0-0.7-0.3-0.7-0.7v-1c0-0.4,0.3-0.7,0.7-0.7h3.4c0.4,0,0.7,0.3,0.7,0.7v1
				C1077.7,314.4,1077.4,314.7,1077,314.7z"/>
			<path class="st4" d="M1082.9,314.7h-3.4c-0.4,0-0.7-0.3-0.7-0.7v-1c0-0.4,0.3-0.7,0.7-0.7h3.4c0.4,0,0.7,0.3,0.7,0.7v1
				C1083.6,314.4,1083.3,314.7,1082.9,314.7z"/>
			<path class="st4" d="M1088.8,314.7h-3.4c-0.4,0-0.7-0.3-0.7-0.7v-1c0-0.4,0.3-0.7,0.7-0.7h3.4c0.4,0,0.7,0.3,0.7,0.7v1
				C1089.5,314.4,1089.2,314.7,1088.8,314.7z"/>
			<path class="st4" d="M1094.7,314.7h-3.4c-0.4,0-0.7-0.3-0.7-0.7v-1c0-0.4,0.3-0.7,0.7-0.7h3.4c0.4,0,0.7,0.3,0.7,0.7v1
				C1095.4,314.4,1095.1,314.7,1094.7,314.7z"/>
			<path class="st4" d="M1100.6,314.7h-3.4c-0.4,0-0.7-0.3-0.7-0.7v-1c0-0.4,0.3-0.7,0.7-0.7h3.4c0.4,0,0.7,0.3,0.7,0.7v1
				C1101.3,314.4,1101,314.7,1100.6,314.7z"/>
			<path class="st4" d="M1106.5,314.7h-3.4c-0.4,0-0.7-0.3-0.7-0.7v-1c0-0.4,0.3-0.7,0.7-0.7h3.4c0.4,0,0.7,0.3,0.7,0.7v1
				C1107.3,314.4,1106.9,314.7,1106.5,314.7z"/>
			<path class="st4" d="M1112.5,314.7h-3.4c-0.4,0-0.7-0.3-0.7-0.7v-1c0-0.4,0.3-0.7,0.7-0.7h3.4c0.4,0,0.7,0.3,0.7,0.7v1
				C1113.2,314.4,1112.9,314.7,1112.5,314.7z"/>
			<path class="st4" d="M1112.5,320.5h-4.9c-0.4,0-0.7-0.3-0.7-0.7v-3.4c0-0.4,0.3-0.7,0.7-0.7h4.9c0.4,0,0.7,0.3,0.7,0.7v3.4
				C1113.2,320.1,1112.8,320.5,1112.5,320.5z"/>
			<path class="st4" d="M1112.5,332.1h-6.3c-0.4,0-0.7-0.3-0.7-0.7v-3.4c0-0.4,0.3-0.7,0.7-0.7h6.3c0.4,0,0.7,0.3,0.7,0.7v3.4
				C1113.2,331.7,1112.8,332.1,1112.5,332.1z"/>
			<path class="st4" d="M1112.5,344.1h-5.5c-0.4,0-0.7-0.3-0.7-0.7v-3.4c0-0.4,0.3-0.7,0.7-0.7h5.5c0.4,0,0.7,0.3,0.7,0.7v3.4
				C1113.2,343.7,1112.9,344.1,1112.5,344.1z"/>
			<path class="st4" d="M1098.8,344.1h-5.5c-0.4,0-0.7-0.3-0.7-0.7v-3.4c0-0.4,0.3-0.7,0.7-0.7h5.5c0.4,0,0.7,0.3,0.7,0.7v3.4
				C1099.5,343.7,1099.2,344.1,1098.8,344.1z"/>
			<path class="st4" d="M1104.5,344.1h-3.3c-0.4,0-0.7-0.3-0.7-0.7v-3.4c0-0.4,0.3-0.7,0.7-0.7h3.3c0.4,0,0.7,0.3,0.7,0.7v3.4
				C1105.2,343.7,1104.9,344.1,1104.5,344.1z"/>
		</g>
	</g>
</g>
<g id="sally">
	<g>
		<path class="st3" d="M742.7,321.9c0,0-1.6-3.4-2.6-5.2c-1-1.8-3-4.8-5.2-6c-2.2-1.2-13.5-3.2-13.5-3.2c-1.3-0.2-1.4,1.6-2.2,2.8
			c-0.4,0.6-0.1,1.3,0.3,2.1l-0.5-0.7l-10.7,8.6c0,0,1.2,1,1.8,1.7c0.6,0.7,11.2-7.3,11.2-7.3c0.6,0.8,1.5,1.8,2.3,2.7l-1.8-1.9
			l-9.8,9.6c0,0,1.3,0.9,2,1.5c0.7,0.6,10.2-8.1,10.5-8.3c0.2,0.2,0.3,0.3,0.4,0.4c0.8,0.7,6.2,2.9,7.8,3.1c1.6,0.2,3,0,3,0
			l4.6,26.3h6.2L742.7,321.9z"/>
		<path class="st3" d="M707.4,321.9c-0.4,1,0,9.4,0,9.4c0,1,0.8,3.7,2,3.7c1.2,0,1.4,0,1.4-1.9c0-1.9-0.6-11.2-0.6-11.2l-1.8-1.7
			C708.4,320.2,707.8,320.9,707.4,321.9z"/>
		<path class="st3" d="M711.3,326.8c-0.3,1,0.9,9.4,0.9,9.4c0.1,1,1.1,3.6,2.3,3.5c1.2-0.1,1.4-0.1,1.2-2
			c-0.2-1.8-1.7-11.1-1.7-11.1l-2-1.5C712.1,325.1,711.6,325.8,711.3,326.8z"/>
		<path class="st3" d="M730.8,321.6l-3.8-1.4l-7.3,10.3c0,0,1.4,0.6,2.2,1.2C722.7,332.2,730.8,321.6,730.8,321.6z"/>
		<path class="st3" d="M719.2,332.4c-0.1,1.1,2.6,9.1,2.6,9.1c0.3,1,1.8,3.4,2.9,3c1.2-0.3,1.4-0.4,0.8-2.2
			c-0.5-1.8-3.6-10.6-3.6-10.6l-2.2-1.2C719.7,330.6,719.3,331.3,719.2,332.4z"/>
		<path class="st3" d="M870.2,351.3c0,0,0.1,0,0.1,0l-9.4-3.4v0.1c-0.9-0.2-1.9-0.4-2.9-0.4c-0.6,0-1.2,0.1-1.8,0.1l-9.8,0
			c-1-4.2-5.3-7.3-10.3-7.3c-0.6,0-1.1,0.1-1.7,0.1c0-12.1,0-39.3,0-46.3c2.2-0.6,4-2.2,5-4.2c0.5-1.1,0.8-2.2,0.8-3.5
			c0-0.1,0-0.2,0-0.3c0,0.3,0.1,0.6,0.1,0.6c0.1,0,0.3,0,0.5,0c1.4,0,4.6-0.3,7-2.8c2.3-2.3,2.7-5.2,2.7-6.3l-1.1-0.1
			c0,1-0.4,3.5-2.4,5.6c-2.6,2.7-6.1,2.5-6.8,2.5c0,0-0.1-0.1-0.1,0c0,0,0,0,0,0c0-0.3-0.1-0.6-0.1-0.8c0,0,0,0.1,0,0.1
			c1-0.1,4.1-0.6,6.1-3.5c1.6-2.4,1.5-5,1.4-6l-1.1,0.1c0.1,0.9,0.2,3.2-1.2,5.3c-1.8,2.7-4.8,3-5.4,3.1c0,0,0.1,0.6,0.1,0.9
			c-0.1-0.7-0.4-1.3-0.7-1.9l0.2,0.4c0.5-0.2,3.2-1.2,4.1-4.2c0.7-2.3,0-4.5-0.3-5.3l-1,0.4c0.3,0.7,0.9,2.6,0.3,4.6
			c-0.8,2.5-3,3.4-3.5,3.5l-0.1,0.1l0.1,0.1c-1.4-2.4-4-4.1-7-4.1c-2.5,0-4.8,1.2-6.3,3c-1.1,1.4-1.8,3.1-1.8,5
			c0,3.7,2.5,6.8,5.8,7.7v43.5l-1.6-0.6v0.1c-0.9-0.2-1.9-0.3-2.8-0.3c-0.6,0-1.2,0.1-1.8,0.1h-30.2c-3.7-9.3-22.1-55-22.1-55
			l-11,6.4c0,0,0.2,0.8,0.6,2.1l-14.5,57.5l4.4,1.9l13.9-45.6c3,11,6.9,25,9.1,33.1c-5.9,1.8-10.1,6.7-10.1,12.4
			c0,6.2,4.8,11.4,11.3,12.8l6.9,2.5c0-0.1,0-0.1,0.1-0.2c0,0,0,0,0,0c2.1,1,4.5,1.6,7.1,1.6c1.8,0,3.6-0.3,5.2-0.9l1.1-0.2
			c0,0,0,0,0,0c1.7,4.2,5.7,7.4,10.7,8.5l7.1,2.6c0-0.1,0-0.1,0.1-0.2l0,0c2.2,1,4.6,1.6,7.3,1.6c1.9,0,3.7-0.3,5.4-0.9l42.5-6.9
			c6,0,10.8-4.3,10.8-9.6C879.6,355.9,875.5,351.9,870.2,351.3z"/>
	</g>
	<g>
		<polygon class="st4" points="729.2,328.5 736,328.5 740.1,354.8 733.8,354.8 		"/>
		<path class="st4" d="M714.8,314.1c0,0,11.2,2,13.5,3.2c2.2,1.2,4.2,4.2,5.2,6c1,1.8,2.6,5.2,2.6,5.2h-6.8c0,0-1.4,0.2-3,0
			c-1.6-0.2-7-2.4-7.8-3.1s-2.6-2.8-3.6-4.1c-1-1.2-3-3.3-2.2-4.5C713.4,315.7,713.4,313.8,714.8,314.1z"/>
		<path class="st4" d="M712.4,318.3l-10.7,8.6c0,0,1.2,1,1.8,1.7s11.2-7.3,11.2-7.3L712.4,318.3z"/>
		<path class="st4" d="M700.7,338c0,1,0.8,3.7,2,3.7s1.4,0,1.4-1.9c0-1.9-0.6-11.2-0.6-11.2l-1.8-1.7c0,0-0.6,0.6-1,1.6
			C700.3,329.5,700.7,338,700.7,338z"/>
		<path class="st4" d="M715.3,322.2l-9.8,9.6c0,0,1.3,0.9,2,1.5c0.7,0.7,10.5-8.3,10.5-8.3L715.3,322.2z"/>
		<path class="st4" d="M705.5,342.9c0.1,1,1.1,3.6,2.3,3.5c1.2-0.1,1.4-0.1,1.2-2s-1.7-11.1-1.7-11.1l-2-1.5c0,0-0.5,0.7-0.8,1.7
			S705.5,342.9,705.5,342.9z"/>
		<path class="st4" d="M720.4,326.9l-7.3,10.3c0,0,1.4,0.6,2.2,1.2s8.8-10.1,8.8-10.1L720.4,326.9z"/>
		<path class="st4" d="M715.2,348.1c0.3,1,1.8,3.4,2.9,3s1.4-0.4,0.8-2.2c-0.5-1.8-3.6-10.6-3.6-10.6l-2.2-1.2c0,0-0.4,0.8-0.5,1.8
			S715.2,348.1,715.2,348.1z"/>
		<circle class="st4" cx="812.9" cy="371.9" r="9.9"/>
		<circle class="st4" cx="862.8" cy="367.7" r="7.1"/>
		<line class="st4" x1="823.4" y1="353.4" x2="786.6" y2="353.3"/>
		<path class="st4" d="M822.4,291.6c-0.2,0.5-0.4,1-0.4,1.6c0,2,1.6,3.6,3.6,3.6c1.2,0,2.2-0.6,2.9-1.4
			C826.2,294.5,824.1,293.2,822.4,291.6z"/>
		<path class="st4" d="M825.6,285.2c-2.5,0-4.8,1.2-6.3,3c3.2,4.4,8,7.5,13.5,8.5c0.5-1.1,0.8-2.2,0.8-3.5
			C833.6,288.8,830,285.2,825.6,285.2z"/>
		<path class="st4" d="M862.2,357.9c-0.6,0-1.2,0.1-1.8,0.1h-44c-0.7-0.1-1.4-0.1-2.1-0.1s-1.4,0.1-2.1,0.1h0l0,0
			c-7.4,0.9-13.1,6.5-13.1,13.3c0,7.4,6.8,13.5,15.2,13.5c1.9,0,3.7-0.3,5.4-0.9l42.5-6.9c6,0,10.8-4.3,10.8-9.6
			C873,362.2,868.1,357.9,862.2,357.9z"/>
		<path class="st4" d="M827.8,347.2c0,3.3,0,5.4,0,5.9c0,0.5-0.3,1-0.7,1.3h12.7c-1-4.2-5.3-7.3-10.3-7.3
			C828.9,347.1,828.3,347.2,827.8,347.2z"/>
		<path class="st4" d="M823.4,300.9v52.2c0,0.6,0.2,1,0.4,1.3h3.3c0.4-0.3,0.7-0.8,0.7-1.3c0-2,0-43.3,0-52.2c2.2-0.6,4-2.2,5-4.2
			c-5.5-1-10.3-4.1-13.5-8.5c-1.1,1.4-1.8,3.1-1.8,5C817.6,296.9,820,300,823.4,300.9z"/>
		<path class="st4" d="M799.1,371.4c0-6.8,5.7-12.4,13.1-13.3l0,0h0c0.7-0.1,1.4-0.1,2.1-0.1s1.4,0.1,2.1,0.1h44
			c0.6-0.1,1.2-0.1,1.8-0.1c0.5,0,1,0,1.5,0.1l-9.4-3.4v0.1c-0.9-0.2-1.9-0.4-2.9-0.4c-0.6,0-1.2,0.1-1.8,0.1h-44
			c-0.7-0.1-1.4-0.1-2.1-0.1s-1.4,0.1-2.1,0.1h0l0,0c-7.4,0.9-13.1,6.5-13.1,13.3c0,6.3,5,11.7,11.6,13.1l7.1,2.6
			c0-0.1,0-0.1,0.1-0.2C802.3,380.9,799.1,376.5,799.1,371.4z"/>
		<path class="st4" d="M821.8,344c-0.9-0.2-1.9-0.3-2.8-0.3c-0.6,0-1.2,0.1-1.8,0.1H787c0.3,0.8,0.5,1.3,0.6,1.5
			c0.3,0.8,0.5,1.4,0.6,1.9h35.2v-2.8L821.8,344L821.8,344z"/>
		<path class="st4" d="M835.1,353.4h-7.4c-0.1,0.4-0.3,0.7-0.6,1h10.8L835.1,353.4z"/>
		<g>
			<path class="st4" d="M777,358.3c0,0.1,0,0.1,0.1,0.2C777.1,358.4,777,358.3,777,358.3z"/>
			<path class="st4" d="M777.5,359.5C777.5,359.6,777.6,359.6,777.5,359.5C777.6,359.6,777.5,359.6,777.5,359.5z"/>
			<path class="st4" d="M777.4,359.2c0,0,0,0.1,0,0.1C777.4,359.3,777.4,359.2,777.4,359.2z"/>
			<path class="st4" d="M777.3,359c0,0,0,0.1,0,0.1C777.3,359.1,777.3,359,777.3,359z"/>
			<path class="st4" d="M777.1,358.5c0,0.1,0,0.1,0.1,0.2C777.2,358.6,777.1,358.6,777.1,358.5z"/>
			<path class="st4" d="M777.6,359.7C777.6,359.7,777.6,359.7,777.6,359.7C777.6,359.7,777.6,359.7,777.6,359.7z"/>
			<path class="st4" d="M777.2,358.8c0,0,0,0.1,0.1,0.1C777.2,358.8,777.2,358.8,777.2,358.8z"/>
			<path class="st4" d="M777.8,360C777.8,360,777.8,360,777.8,360C777.8,360,777.8,360,777.8,360z"/>
			<path class="st4" d="M778.3,360.8C778.3,360.8,778.3,360.8,778.3,360.8C778.3,360.8,778.3,360.8,778.3,360.8z"/>
			<path class="st4" d="M778,360.3C778,360.3,778,360.3,778,360.3C778,360.3,778,360.3,778,360.3z"/>
			<path class="st4" d="M778.7,361.2C778.7,361.3,778.7,361.3,778.7,361.2C778.7,361.3,778.7,361.3,778.7,361.2z"/>
			<path class="st4" d="M777.7,359.9C777.7,359.9,777.7,360,777.7,359.9C777.7,360,777.7,359.9,777.7,359.9z"/>
			<path class="st4" d="M774,350.4c-0.1-0.2-0.1-0.4-0.2-0.5l0,0C773.9,350,773.9,350.2,774,350.4z"/>
			<path class="st4" d="M777.7,359.8C777.7,359.8,777.7,359.9,777.7,359.8C777.7,359.9,777.7,359.8,777.7,359.8z"/>
			<path class="st4" d="M779,361.6C779,361.6,779.1,361.6,779,361.6C779.1,361.6,779,361.6,779,361.6z"/>
			<path class="st4" d="M777.5,359.4C777.5,359.4,777.5,359.4,777.5,359.4C777.5,359.4,777.5,359.4,777.5,359.4z"/>
			<path class="st4" d="M775.8,355.1c0,0.1,0.1,0.2,0.1,0.3C775.9,355.3,775.8,355.2,775.8,355.1z"/>
			<path class="st4" d="M775.5,354.3c0,0.1,0.1,0.2,0.1,0.3C775.6,354.5,775.5,354.4,775.5,354.3z"/>
			<path class="st4" d="M775.3,353.8c0,0.1,0.1,0.2,0.1,0.3C775.4,354.1,775.3,354,775.3,353.8z"/>
			<path class="st4" d="M775.6,354.7c0,0.1,0.1,0.2,0.1,0.3C775.7,355,775.7,354.8,775.6,354.7z"/>
			<path class="st4" d="M775.1,353.4c0,0.1,0.1,0.3,0.1,0.4C775.2,353.6,775.2,353.5,775.1,353.4z"/>
			<path class="st4" d="M776.9,358c0,0.1,0,0.1,0.1,0.2C776.9,358.1,776.9,358,776.9,358z"/>
			<path class="st4" d="M774,350.4c0.3,0.7,0.5,1.3,0.7,2C774.5,351.8,774.3,351.1,774,350.4z"/>
			<path class="st4" d="M774.8,352.4c0.1,0.3,0.2,0.6,0.3,0.9C775,353,774.9,352.7,774.8,352.4z"/>
			<path class="st4" d="M823.4,353.1v-5.8h-35.2c0.2,1.3-0.1,2.2-0.6,3.8c-0.6,2.2-3.1,5.6-5.2,9.1c-1.3,2.2-2.3,2.3-3.2,1.7
				c-0.8-0.5-5.6-3.5-7.1-5c-1-1-1.5-2.1-2-3.4c-1.4,2-2.2,4.4-2.2,6.9c0,7.3,6.7,13.2,14.9,13.2c1.8,0,3.6-0.3,5.2-0.9l1.1-0.2
				c-0.6-1.4-0.9-3-0.9-4.6c0-6.8,5.7-12.4,13.1-13.3l0,0h0c0.7-0.1,1.4-0.1,2.1-0.1c0.7,0,1.4,0.1,2.1,0.1h18.2
				C823.5,354.1,823.4,353.7,823.4,353.1z"/>
			<path class="st4" d="M776.5,357c0,0.1,0.1,0.1,0.1,0.2C776.6,357.2,776.6,357.1,776.5,357z"/>
			<path class="st4" d="M776.7,357.4c0,0.1,0.1,0.1,0.1,0.2C776.7,357.5,776.7,357.4,776.7,357.4z"/>
			<path class="st4" d="M776.8,357.7c0,0.1,0,0.1,0.1,0.2C776.8,357.8,776.8,357.7,776.8,357.7z"/>
			<path class="st4" d="M776.4,356.7c0,0.1,0.1,0.2,0.1,0.2C776.5,356.8,776.4,356.8,776.4,356.7z"/>
			<path class="st4" d="M776.1,356c0,0.1,0.1,0.1,0.1,0.2C776.2,356.1,776.1,356,776.1,356z"/>
			<path class="st4" d="M776.3,356.3c0,0.1,0.1,0.2,0.1,0.2C776.3,356.5,776.3,356.4,776.3,356.3z"/>
			<path class="st4" d="M776,355.6c0,0.1,0.1,0.2,0.1,0.3C776,355.7,776,355.7,776,355.6z"/>
		</g>
		<g>
			<path class="st4" d="M768,360.3c0-2.5,0.8-4.9,2.2-6.9c-0.3-0.8-0.5-1.6-0.8-2.5c-0.2-0.5-0.8-2.9-1.8-6.5
				c-5.9,1.8-10.1,6.7-10.1,12.4c0,6.2,4.8,11.4,11.3,12.8l6.9,2.5c0-0.1,0-0.1,0.1-0.2C771.1,369.6,768,365.3,768,360.3z"/>
			<path class="st4" d="M773.8,349.8L773.8,349.8c-0.7-1.9-1.5-4-2.3-6.2l0,0C772.3,345.9,773.1,347.9,773.8,349.8z"/>
		</g>
		<g>
			<path class="st4" d="M779,361.6C779,361.6,779.1,361.6,779,361.6C779.1,361.6,779,361.6,779,361.6z"/>
			<path class="st4" d="M777.8,360C777.8,360.1,777.8,360.1,777.8,360C777.8,360.1,777.8,360.1,777.8,360z"/>
			<path class="st4" d="M778,360.3C778,360.3,778,360.3,778,360.3C778,360.3,778,360.3,778,360.3z"/>
			<path class="st4" d="M777.7,359.9C777.7,360,777.7,360,777.7,359.9C777.7,360,777.7,360,777.7,359.9z"/>
			<path class="st4" d="M778.3,360.8C778.3,360.8,778.3,360.8,778.3,360.8C778.3,360.8,778.3,360.8,778.3,360.8z"/>
			<path class="st4" d="M778.7,361.2C778.7,361.3,778.7,361.3,778.7,361.2C778.7,361.3,778.7,361.3,778.7,361.2z"/>
			<path class="st4" d="M777,358.2c-0.3-0.8-0.8-2-1.3-3.3v0C776.2,356.2,776.6,357.3,777,358.2z"/>
			<path class="st4" d="M777,358.2c0,0.1,0.1,0.2,0.1,0.3C777.1,358.4,777,358.3,777,358.2z"/>
			<path class="st4" d="M777.6,359.8c0,0,0,0.1,0.1,0.1C777.7,359.9,777.7,359.8,777.6,359.8z"/>
			<path class="st4" d="M777.1,358.5c0.1,0.2,0.2,0.4,0.2,0.6C777.3,358.9,777.2,358.7,777.1,358.5z"/>
			<path class="st4" d="M784.6,356.7c-0.7,1.1-1.5,2.2-2.2,3.4c-1.3,2.2-2.3,2.3-3.2,1.7c-0.4-0.3-2-1.2-3.5-2.3v2.4l12.6,4.6
				c0.3-2.7,1.5-5.2,3.3-7.2L784.6,356.7z"/>
			<path class="st4" d="M777.6,359.6c0,0.1,0.1,0.1,0.1,0.2C777.6,359.7,777.6,359.7,777.6,359.6z"/>
			<path class="st4" d="M777.5,359.4c0,0.1,0,0.1,0.1,0.2C777.5,359.5,777.5,359.4,777.5,359.4z"/>
			<path class="st4" d="M777.4,359.1c0,0.1,0.1,0.1,0.1,0.2C777.4,359.3,777.4,359.2,777.4,359.1z"/>
		</g>
		<g>
			<path class="st4" d="M754.6,297L754.6,297c-0.4-1.2-0.7-1.8-0.7-1.8s0.2,0.8,0.6,2.1L754.6,297z"/>
			<path class="st4" d="M777.8,360.1c-0.8-1.2-12.1-32.2-18.8-50.9l-0.6,2c4.4,15.9,10.5,38,11,39.6c0.8,2.5,1.2,4.3,2.8,6
				c1.5,1.5,6.3,4.5,7.1,5C778.7,361.4,778.3,360.8,777.8,360.1z"/>
		</g>
		<path class="st4" d="M754.6,297l-14.6,57.8l4.4,1.9l14.5-47.6C757.1,303.7,755.5,299.3,754.6,297z"/>
		<path class="st4" d="M754,295.2c0,0,22.6,63.1,23.8,64.9s2.5,3.5,4.6,0c2.1-3.5,4.6-6.9,5.2-9.1c0.6-2.2,1-3.2,0-5.7
			c-1-2.5-22.7-56.5-22.7-56.5L754,295.2z"/>
		<path class="st4" d="M834.2,293.4c-0.2,0-0.4,0-0.5,0c0,0-0.1-0.7-0.1-1c0-0.1,0.1,0,0.1,0c0.7,0.1,4.2,0.2,6.8-2.5
			c2.1-2.1,2.4-4.6,2.4-5.6l1.1,0.1c-0.1,1.1-0.4,4-2.7,6.3C838.8,293.1,835.6,293.4,834.2,293.4z"/>
		<path class="st4" d="M833.3,290.6c0.6,0,3.5-0.4,5.4-3.1c1.4-2.1,1.4-4.4,1.2-5.3l1.1-0.1c0.1,1,0.2,3.6-1.4,6
			c-2,2.9-5,3.4-6.1,3.5C833.4,291.5,833.3,290.6,833.3,290.6z"/>
		<path class="st4" d="M833,290.1l-0.5-0.9l0.1-0.1c0.4-0.1,2.7-1,3.5-3.5c0.6-2,0-3.9-0.3-4.6l1-0.4c0.3,0.8,1,3,0.3,5.3
			C836.2,288.9,833.5,289.9,833,290.1z"/>
	</g>
</g>
<g id="brush">
	<path class="st3" d="M367,376.6c0.6,0,2,0,2.4,0c0.4,0,0.2,1.1,1.2,1.1s0.9-0.7,1.3-0.7c0.4,0,8.9,0,9.6,0c0.6,0,1.1,0.7,1.6,0.7
		s0.9-0.8,1.3-0.8c0.4,0,2.3,0.1,2.4-0.5c0.1-0.6,0.7-0.8,1.5-0.8c0.8,0,1.6-1,1.8-2c0.2-0.9,0.2-1.6,0.5-2.9c0.3-1.3,2-3.8,4.5-6.2
		c2.4-2.3,9.7-2.9,14-3.8s12.1,1.4,20,3.1c7.9,1.7,15.6-0.4,19.9-2c4.3-1.6,6.5-5.7,6.5-7.1v-0.1c0-1.3-2.2-5.5-6.5-7.1
		c-4.3-1.6-12-3.7-19.9-2c-7.9,1.7-15.8,4-20,3.1c-4.2-0.9-11.5-1.4-14-3.8c-2.4-2.3-4.2-4.9-4.5-6.2c-0.3-1.3-0.2-2-0.5-2.9
		c-0.2-0.9-1.1-2-1.8-2c-0.8,0-1.4-0.2-1.5-0.8c-0.1-0.6-2-0.5-2.4-0.5c-0.4,0-0.9-0.8-1.3-0.8s-0.9,0.7-1.6,0.7c-0.6,0-9.2,0-9.6,0
		c-0.4,0-0.4-0.7-1.3-0.7s-0.8,1.1-1.2,1.1c-0.4,0-1.7,0-2.4,0c-0.6,0-0.5,0.6-0.5,0.6s-33.9-3.6-35.3-3.3c-1.4,0.3-1.5,1.3-1.4,2.8
		c0.1,1.6,0.4,2,0.5,2.9c0.1,0.9,0.4,3.1-0.2,3.5c-0.5,0.5-0.4,0.7-0.3,1.3c0.1,0.6-0.2,0.8-0.5,1.3c-0.2,0.5-0.2,0.8,0,1.1
		c0.2,0.3,0.3,1.2,0.4,1.4c0.1,0.2,1,0.4,1.3,0.6c0.3,0.2-0.9,0.6-1.1,0.7s-0.4,0.8-0.4,1.3c0,0.5-1.2,3.3-1.2,3.9
		c0,0.6-0.1,2.3,0,2.5c0.1,0.2,0.2,3,0,4.1c-0.3,1.2-0.7,2-0.4,2.2c0.3,0.2,1.7,0.1,1.7,0.5c0,0.4-0.9,0.5-1.2,0.9
		c-0.2,0.4,0.2,2.4,0.4,2.8c0.2,0.5-0.2,0.9,0,1.6s0.3,1.6,0,2c-0.4,0.5-0.8,1-0.8,1.4c0,0.4,0.9-0.5,1.6,0c0.7,0.5,0.7,3.4,0.7,4.4
		c-0.1,0.9-0.4,1.3-0.5,2.9c-0.1,1.6,0,2.5,1.4,2.8c1.4,0.3,35.3-3.3,35.3-3.3S366.3,376.6,367,376.6z M443.6,354.8
		c0-1.5,1.2-2.6,2.6-2.6c1.5,0,2.6,1.2,2.6,2.6c0,1.5-1.2,2.6-2.6,2.6C444.8,357.4,443.6,356.2,443.6,354.8z"/>
	<path class="st4" d="M326.5,325.7c-1.4,0.3-1.5,1.3-1.4,2.8c0.1,1.6,0.4,2,0.5,2.9c0.1,0.9,0.4,3.1-0.2,3.5s-0.4,0.7-0.3,1.3
		c0.1,0.6-0.2,0.8-0.5,1.3c-0.2,0.5-0.2,0.8,0,1.1c0.2,0.3,0.3,1.2,0.4,1.4c0.1,0.2,1,0.4,1.3,0.6c0.3,0.2-0.9,0.6-1.1,0.7
		c-0.2,0.1-0.4,0.8-0.4,1.3c0,0.5-1.2,3.3-1.2,3.9c0,0.6-0.1,2.3,0,2.5c0.1,0.2,0.2,3,0,4.1s-0.7,2-0.4,2.2c0.3,0.2,1.7,0.1,1.7,0.5
		s-0.9,0.5-1.2,0.9c-0.2,0.4,0.2,2.4,0.4,2.8c0.2,0.5-0.2,0.9,0,1.6c0.1,0.7,0.3,1.6,0,2c-0.4,0.5-0.8,1-0.8,1.4s0.9-0.5,1.6,0
		c0.7,0.5,0.7,3.4,0.7,4.4c-0.1,0.9-0.4,1.3-0.5,2.9c-0.1,1.6,0,2.5,1.4,2.8c1.4,0.3,35.3-3.3,35.3-3.3s-0.1,0.6,0.5,0.6
		c0.6,0,2,0,2.4,0c0.4,0,0.2,1.1,1.2,1.1c0.9,0,0.9-0.7,1.3-0.7c0.4,0,8.9,0,9.6,0c0.6,0,1.1,0.7,1.6,0.7c0.5,0,0.9-0.8,1.3-0.8
		c0.4,0,2.3,0.1,2.4-0.5c0.1-0.6,0.7-0.8,1.5-0.8c0.8,0,1.6-1,1.8-2c0.2-0.9,0.2-1.6,0.5-2.9c0.3-1.3,2-3.8,4.5-6.2
		c2.4-2.3,9.7-2.9,14-3.8c4.2-0.9,12.1,1.4,20,3.1c7.9,1.7,15.6-0.4,19.9-2c4.3-1.6,6.5-5.7,6.5-7.1v-0.1c0-1.3-2.2-5.5-6.5-7.1
		c-4.3-1.6-12-3.7-19.9-2c-7.9,1.7-15.8,4-20,3.1c-4.2-0.9-11.5-1.4-14-3.8s-4.2-4.9-4.5-6.2c-0.3-1.3-0.2-2-0.5-2.9
		c-0.2-0.9-1.1-2-1.8-2c-0.8,0-1.4-0.2-1.5-0.8c-0.1-0.6-2-0.5-2.4-0.5c-0.4,0-0.9-0.8-1.3-0.8c-0.5,0-0.9,0.7-1.6,0.7
		c-0.6,0-9.2,0-9.6,0c-0.4,0-0.4-0.7-1.3-0.7c-0.9,0-0.8,1.1-1.2,1.1c-0.4,0-1.7,0-2.4,0c-0.6,0-0.5,0.6-0.5,0.6
		S327.9,325.4,326.5,325.7z M441.6,347.5c1.5,0,2.6,1.2,2.6,2.6s-1.2,2.6-2.6,2.6c-1.5,0-2.6-1.2-2.6-2.6S440.2,347.5,441.6,347.5z"
		/>
</g>
<g id="square">
	<polygon class="st3" points="390.5,289.9 390.5,272.5 393.4,272.5 393.4,273.6 394.4,273.6 394.4,272.5 396.8,272.5 396.8,274.7 
		397.8,274.7 397.8,272.5 400.3,272.5 400.3,273.6 401.3,273.6 401.3,272.5 403.7,272.5 403.7,275.8 404.7,275.8 404.7,272.5 
		407.2,272.5 407.2,273.6 408.2,273.6 408.2,272.5 410.6,272.5 410.6,274.7 411.6,274.7 411.6,272.5 414,272.5 414,273.6 415,273.6 
		415,272.5 417.5,272.5 417.5,278 418.5,278 418.5,272.5 420.9,272.5 420.9,273.6 421.9,273.6 421.9,272.5 424.4,272.5 424.4,274.7 
		425.4,274.7 425.4,272.5 427.8,272.5 427.8,273.6 428.8,273.6 428.8,272.5 431.2,272.5 431.2,275.8 432.2,275.8 432.2,272.5 
		434.7,272.5 434.7,273.6 435.7,273.6 435.7,272.5 438.1,272.5 438.1,274.7 439.1,274.7 439.1,272.5 441.6,272.5 441.6,273.6 
		442.6,273.6 442.6,272.5 445,272.5 445,281.3 446,281.3 446,272.5 448.4,272.5 448.4,273.6 449.4,273.6 449.4,272.5 451.9,272.5 
		451.9,274.7 452.9,274.7 452.9,272.5 455.3,272.5 455.3,273.6 456.3,273.6 456.3,272.5 458.8,272.5 458.8,275.8 459.8,275.8 
		459.8,272.5 462.2,272.5 462.2,273.6 463.2,273.6 463.2,272.5 465.6,272.5 465.6,274.7 466.6,274.7 466.6,272.5 469.1,272.5 
		469.1,273.6 470.1,273.6 470.1,272.5 472.5,272.5 472.5,278 473.5,278 473.5,272.5 476,272.5 476,273.6 477,273.6 477,272.5 
		479.4,272.5 479.4,274.7 480.4,274.7 480.4,272.5 482.8,272.5 482.8,273.6 483.8,273.6 483.8,272.5 486.3,272.5 486.3,275.8 
		487.3,275.8 487.3,272.5 489.7,272.5 489.7,273.6 490.7,273.6 490.7,272.5 491.4,272.5 493.2,272.5 493.2,274.7 494.2,274.7 
		494.2,272.5 496.6,272.5 496.6,273.6 497.6,273.6 497.6,272.5 508.8,272.5 508.8,284.3 507.7,284.3 507.7,285.3 508.8,285.3 
		508.8,287.7 506.6,287.7 506.6,288.7 508.8,288.7 508.8,289.9 508.8,291.2 507.7,291.2 507.7,292.2 508.8,292.2 508.8,294.6 
		505.5,294.6 505.5,295.6 508.8,295.6 508.8,298 507.7,298 507.7,299 508.8,299 508.8,301.5 506.6,301.5 506.6,302.5 508.8,302.5 
		508.8,304.9 507.7,304.9 507.7,305.9 508.8,305.9 508.8,308.4 503.3,308.4 503.3,309.4 508.8,309.4 508.8,311.8 507.7,311.8 
		507.7,312.8 508.8,312.8 508.8,315.2 506.6,315.2 506.6,316.2 508.8,316.2 508.8,318.7 507.7,318.7 507.7,319.7 508.8,319.7 
		508.8,322.1 505.5,322.1 505.5,323.1 508.8,323.1 508.8,325.6 507.7,325.6 507.7,326.6 508.8,326.6 508.8,329 506.6,329 506.6,330 
		508.8,330 508.8,332.4 507.7,332.4 507.7,333.4 508.8,333.4 508.8,336.4 491.4,336.4 491.4,289.9 	"/>
	<polygon class="st4" points="498.2,283.2 498.2,329.6 515.6,329.6 515.6,326.7 514.5,326.7 514.5,325.7 515.6,325.7 515.6,323.2 
		513.4,323.2 513.4,322.2 515.6,322.2 515.6,319.8 514.5,319.8 514.5,318.8 515.6,318.8 515.6,316.3 512.3,316.3 512.3,315.3 
		515.6,315.3 515.6,312.9 514.5,312.9 514.5,311.9 515.6,311.9 515.6,309.5 513.4,309.5 513.4,308.5 515.6,308.5 515.6,306 
		514.5,306 514.5,305 515.6,305 515.6,302.6 510.1,302.6 510.1,301.6 515.6,301.6 515.6,299.1 514.5,299.1 514.5,298.1 515.6,298.1 
		515.6,295.7 513.4,295.7 513.4,294.7 515.6,294.7 515.6,292.3 514.5,292.3 514.5,291.2 515.6,291.2 515.6,288.8 512.3,288.8 
		512.3,287.8 515.6,287.8 515.6,285.4 514.5,285.4 514.5,284.4 515.6,284.4 515.6,283.2 515.6,281.9 513.4,281.9 513.4,280.9 
		515.6,280.9 515.6,278.5 514.5,278.5 514.5,277.5 515.6,277.5 515.6,265.7 504.4,265.7 504.4,266.8 503.4,266.8 503.4,265.7 
		501,265.7 501,267.9 500,267.9 500,265.7 498.2,265.7 497.5,265.7 497.5,266.8 496.5,266.8 496.5,265.7 494.1,265.7 494.1,269 
		493.1,269 493.1,265.7 490.6,265.7 490.6,266.8 489.6,266.8 489.6,265.7 487.2,265.7 487.2,267.9 486.2,267.9 486.2,265.7 
		483.8,265.7 483.8,266.8 482.7,266.8 482.7,265.7 480.3,265.7 480.3,271.2 479.3,271.2 479.3,265.7 476.9,265.7 476.9,266.8 
		475.9,266.8 475.9,265.7 473.4,265.7 473.4,267.9 472.4,267.9 472.4,265.7 470,265.7 470,266.8 469,266.8 469,265.7 466.6,265.7 
		466.6,269 465.5,269 465.5,265.7 463.1,265.7 463.1,266.8 462.1,266.8 462.1,265.7 459.7,265.7 459.7,267.9 458.7,267.9 
		458.7,265.7 456.2,265.7 456.2,266.8 455.2,266.8 455.2,265.7 452.8,265.7 452.8,274.5 451.8,274.5 451.8,265.7 449.3,265.7 
		449.3,266.8 448.3,266.8 448.3,265.7 445.9,265.7 445.9,267.9 444.9,267.9 444.9,265.7 442.5,265.7 442.5,266.8 441.5,266.8 
		441.5,265.7 439,265.7 439,269 438,269 438,265.7 435.6,265.7 435.6,266.8 434.6,266.8 434.6,265.7 432.1,265.7 432.1,267.9 
		431.1,267.9 431.1,265.7 428.7,265.7 428.7,266.8 427.7,266.8 427.7,265.7 425.3,265.7 425.3,271.2 424.3,271.2 424.3,265.7 
		421.8,265.7 421.8,266.8 420.8,266.8 420.8,265.7 418.4,265.7 418.4,267.9 417.4,267.9 417.4,265.7 414.9,265.7 414.9,266.8 
		413.9,266.8 413.9,265.7 411.5,265.7 411.5,269 410.5,269 410.5,265.7 408.1,265.7 408.1,266.8 407.1,266.8 407.1,265.7 
		404.6,265.7 404.6,267.9 403.6,267.9 403.6,265.7 401.2,265.7 401.2,266.8 400.2,266.8 400.2,265.7 397.2,265.7 397.2,283.2 	"/>
</g>
<g id="yarn">
	<path class="st3" d="M757.3,178.6c-1.3-0.3-2.5,1.8-1.2,3.6L729,199c-1.6-1.7-3.3-3.4-5.2-4.8l16.6-10.2c0,0,0.2,0.5,1.3,1.4
		c1.1,0.9,3.4-0.1,2.7-1.5c-0.7-1.4-3.8-5.7-5.1-6c-1.3-0.3-2.5,1.8-1.2,3.6l-17.1,10.6c-2.3-1.5-4.8-2.8-7.4-3.9
		c-0.8-0.5-1.5-0.9-2.2-1.3l0.2,0.5c-4.3-1.5-9-2.4-13.8-2.6c-0.4-0.1-0.7-0.2-1-0.3l0,0.3c-0.5,0-1.1,0-1.6,0
		c-1.2,0-2.4,0.1-3.6,0.2c-0.2-0.1-0.3-0.2-0.5-0.3l0,0.3c-0.2,0-0.4,0-0.5,0.1c-0.1-0.1-0.2-0.2-0.3-0.4l0,0.4
		c-21.4,2.5-37.9,19.3-37.5,39.4c0.1,3.1,0.5,6.2,1.3,9.1l-11.8,7.3c0,0-3.9,2.9-4.6,4s0.2,1.4,0.9,1.1c0.7-0.4,5-2.4,5-2.4l11.5-7
		c0.3,0.8,0.7,1.7,1.1,2.5c0,0,0,0.1-0.1,0.1l0.1,0c0.7,1.4,1.4,2.8,2.2,4.1c-1,0.9-2.1,1.8-2.5,2.4c-0.7,1.1,0.2,1.4,0.9,1.1
		c0.4-0.2,1.7-0.8,2.9-1.4c7.8,10.8,21.4,17.9,36.7,17.7c23.8-0.4,42.7-18.2,42.4-39.7c0-2-0.2-4-0.6-6l0,0l0,0
		c-0.3-1.7-0.8-3.4-1.3-5l0,0l0,0c-1.3-3.8-3.2-7.3-5.7-10.5l27.4-16.9c0,0,0.2,0.5,1.3,1.4c1.1,0.9,3.4-0.1,2.7-1.5
		C761.7,183.2,758.6,179,757.3,178.6z"/>
	<g>
		<path class="st4" d="M679.2,232.7c-3.6-0.2-5.7-0.4-8.2-0.2c-1.8,0.1-3.8,0.3-6,0.9"/>
		<path class="st4" d="M702.3,232.4c-2.7,0-7.9,0.7-13,0.6c-1.8,0-3.4-0.1-4.9-0.1"/>
		<path class="st4" d="M677.4,237.2c1.4,0.1,2.8,0.2,4.5,0.2c4.6,0.2,12.5,0.2,20.7-0.8"/>
		<path class="st4" d="M649.4,245.9c2.4-2.6,6.4-6.2,12.1-8.1c3.8-1.2,7-1.3,11-1"/>
		<path class="st4" d="M672.7,240.2c2.6,0.3,5.4,0.7,8.8,0.9c4.7,0.3,11.7,0.3,20.5-1.4"/>
		<path class="st4" d="M650.9,247.9c1.9-2.1,5.2-5.1,9.9-6.8c2.5-0.9,4.8-1.2,7.2-1.2"/>
		<path class="st4" d="M666.5,244.2c4.8-0.2,9.2,1.3,15.4,1.7c4.5,0.3,11.1,0.1,19.5-2.6"/>
		<path class="st4" d="M662.3,200.4c4.1-1.6,9.7-3.2,16.5-3.6c3.3-0.2,6.3-0.1,8.9,0.2"/>
		<path class="st4" d="M658.5,204c4.2-1.5,10-3.1,16.9-3.6c5.6-0.4,10.4-0.1,14.3,0.4"/>
		<path class="st4" d="M655.1,207.3c5.3-1.5,12.2-3,20.3-3.4c6.8-0.3,12.7,0.1,17.5,0.8"/>
		<path class="st4" d="M653.3,210.1c5.9-1.4,13-2.5,21.1-3c7.5-0.4,14.2-0.2,19.9,0.4"/>
		<path class="st4" d="M650.7,213.5c6.6-1.3,14.2-2.4,22.5-3c8.2-0.6,15.7-0.5,22.3-0.2"/>
		<path class="st4" d="M648.2,219.9c1.4,0.3,3.4,1,5.4,2.2c2.8,1.7,4.6,3.7,5.6,5"/>
		<path class="st4" d="M649.8,215.7c1,0,4.8,0.1,8.3,3c3.1,2.6,4,6,4.2,7"/>
		<path class="st4" d="M656.5,213.1c1,0.1,3.6,0.6,5.8,2.6c3.6,3.2,3.2,9.7,3.4,8.5"/>
		<path class="st4" d="M664.1,211.5c1,0.8,2.3,2,3.4,3.8c2,3.2,2.4,7.7,2.4,9.3"/>
		<path class="st4" d="M671.2,211.1c0.7,0.9,1.8,2.3,2.4,4.2c1.2,3.4,0.5,6.4,0.2,7.6"/>
		<line class="st4" x1="682.2" y1="192.2" x2="682.2" y2="196.7"/>
		<line class="st4" x1="678.4" y1="192.9" x2="678.8" y2="196.8"/>
		<line class="st4" x1="675.3" y1="194.4" x2="675.3" y2="196.7"/>
		<line class="st4" x1="670.5" y1="195.6" x2="672.7" y2="197.5"/>
		<path class="st4" d="M696.7,245.1c0.5,0,1.6,0.1,2.8,0.8c0.9,0.5,1.4,1.2,1.6,1.6"/>
		<path class="st4" d="M690.7,245.9c1.6,0.6,3.3,1.2,5,2c1.6,0.7,3.1,1.5,4.4,2.2"/>
		<path class="st4" d="M684.5,246.3c2,0.1,6.1,0.6,10.1,3.2c2,1.3,3.5,2.8,4.4,4"/>
		<path class="st4" d="M675.6,245.5c3.4,1.3,7.5,3.2,11.9,6c3.8,2.4,6.8,5,9.3,7.2"/>
		<path class="st4" d="M669,244.7c4,1.9,8.9,4.7,13.9,8.5c4.7,3.5,8.4,7.1,11.3,10.3"/>
		<path class="st4" d="M662.9,246.2c2.4,1.4,5.4,3.5,8.8,6.2c2.7,2.2,4.2,3.6,8.1,7c2.5,2.2,6.1,5.4,10.7,9.3"/>
		<path class="st4" d="M659.1,258.6c0.2-0.9,1.2-4.3,4.6-6.4c2.1-1.3,4.2-1.6,5.2-1.6"/>
		<path class="st4" d="M655.3,253.8c0.9-1,2.2-2.3,4-3.4c2.2-1.4,4.2-2.1,5.6-2.4"/>
		<path class="st4" d="M662.1,260.8c0.6-1.3,1.9-3.6,4.4-5.6c1.9-1.5,3.8-2.2,5-2.6"/>
		<path class="st4" d="M666.6,263.6c0.2-1,1-3.4,3.2-5.4c2.2-2.1,4.7-2.6,5.6-2.8"/>
		<path class="st4" d="M670.8,265.6c0.3-0.9,1-2.7,2.6-4.2c2.2-2.1,4.7-2.7,5.6-2.8"/>
		<path class="st4" d="M675.8,267.6c0-0.5,0.3-2.6,2-4.2c1.5-1.5,3.2-1.7,3.8-1.8"/>
		<path class="st4" d="M680.2,269.1c1.5-1.7,3-3.4,4.4-5"/>
		<path class="st4" d="M685.1,269.1c0.8-1,1.6-2,2.4-3"/>
		<path class="st4" d="M696.1,210.4l4.3-2.7c-0.8-1.6-1.8-3.3-3-5.1c-4.1-5.7-9.1-9-12.4-10.8c-0.3,0-0.7,0.1-1,0.1
			c1.9,2.3,4.4,5.5,6.9,9.5C692.5,203.9,694.3,206.9,696.1,210.4z"/>
		<path class="st4" d="M697.6,197.6c0.7,0.7,3,3.1,5.6,8.4l3.7-2.3c-1.5-2.4-3.5-4.9-6.5-7.3c-3.4-2.6-6.7-4-9.2-4.7
			c-0.7,0-1.4,0-2.2,0l0.1,0.1C691.3,192.8,694.5,194.6,697.6,197.6z"/>
		<path class="st4" d="M708.7,202.6l2.3-1.4c-6.1-5.7-13.2-8.1-17.3-9.1C697.5,193.6,703.6,196.8,708.7,202.6z"/>
		<path class="st4" d="M714.5,199c-2.3-1.5-4.8-2.8-7.4-3.9c2,1.2,4.1,2.7,6.3,4.6L714.5,199z"/>
		<path class="st4" d="M703.9,217.4c-0.3-1-0.6-2-0.9-3.1c-0.4-1.2-0.8-2.4-1.3-3.6l-4.2,2.6c0.9,2,1.7,4.2,2.4,6.6L703.9,217.4z"/>
		<path class="st4" d="M706.9,215.5l4.5-2.8c-0.5-1.5-1.2-3-1.9-4.5c-0.3-0.6-0.6-1.2-0.9-1.8l-4,2.5c0.4,1,0.9,2.2,1.3,3.4
			C706.1,213.2,706.5,214.3,706.9,215.5z"/>
		<path class="st4" d="M714.1,211.1l3.2-2c-0.8-1.5-1.8-2.9-3-4.5c-0.3-0.4-0.6-0.8-1-1.1l-2.6,1.6c0.5,0.7,1.1,1.5,1.6,2.3
			C713,208.7,713.6,209.9,714.1,211.1z"/>
		<path class="st4" d="M720.4,207.2l2.1-1.3c-1.6-1.7-3.3-3.4-5.2-4.8l-1.5,0.9c0.5,0.5,1.1,1.1,1.6,1.7
			C718.2,204.4,719.2,205.6,720.4,207.2z"/>
		<g>
			<path class="st4" d="M675.4,223.1l39.1-24.2c-7.3-4.8-16.2-7.5-25.9-7.3c-23.8,0.4-42.7,18.2-42.4,39.7c0,1,0.1,2,0.2,3
				C657.6,226.9,668,224.1,675.4,223.1z"/>
			<path class="st4" d="M646.8,237.2c0.2,1.1,0.4,2.2,0.7,3.2l21-13C662.2,229,654.8,231.9,646.8,237.2z"/>
		</g>
		<g>
			<path class="st4" d="M694.9,223l27.6-17.1c-1.6-1.7-3.3-3.4-5.2-4.8l-35.2,21.6C686.4,222.5,690.4,222.8,694.9,223z"/>
			<path class="st4" d="M681.9,225.9c-1.6,0-3.4,0-5.3,0.2l-28.1,17.3c0.9,2.3,2,4.6,3.3,6.7c1.1-0.9,2.1-1.6,2.1-1.6l35.4-21.9
				C686.8,226.1,684.4,225.9,681.9,225.9z"/>
		</g>
		<g>
			<path class="st4" d="M668.5,227.4l-32.8,20.3c0,0-3.9,2.9-4.6,4s0.2,1.4,0.9,1.1c0.7-0.4,5-2.4,5-2.4l39.6-24.3
				C674.1,226.3,671.4,226.7,668.5,227.4z"/>
			<path class="st4" d="M737.8,190.8c-0.7-1.4-3.8-5.7-5.1-6c-1.3-0.3-2.5,1.8-1.2,3.6l-56.1,34.7c0.8-0.1,1.5-0.2,2.2-0.3
				c1.6-0.2,3.1-0.2,4.6-0.3l51.7-31.8c0,0,0.2,0.5,1.3,1.4C736.3,193.2,738.6,192.2,737.8,190.8z"/>
		</g>
		<g>
			<path class="st4" d="M689.3,226.4l-35.4,21.9c0,0-3.9,2.9-4.6,4c-0.7,1.1,0.2,1.4,0.9,1.1s5-2.4,5-2.4l39.1-24
				C692.5,226.8,690.9,226.6,689.3,226.4z"/>
			<path class="st4" d="M756,191.5c-0.7-1.4-3.8-5.7-5.1-6c-1.3-0.3-2.5,1.8-1.2,3.6L694.9,223c1.8,0.1,3.7,0.1,5.8,0.1l51.4-31.6
				c0,0,0.2,0.5,1.3,1.4C754.4,193.8,756.7,192.9,756,191.5z"/>
		</g>
		<path class="st4" d="M724.6,208.4l-24,14.7c4.7,0,10.1-0.3,16.6-1.2c4.8-0.7,8.6-1.5,11.2-2.2l1.4-0.9l1.4,5.1l-2.5,1
			c-2.2,0.6-5.7,1.5-10,2.1c-10.1,1.5-17.8,0.8-24.5,0l-39.1,24c0,0-1,0.5-2,1c7.8,10.8,21.4,17.9,36.7,17.7
			c23.8-0.4,42.7-18.2,42.4-39.7C732.1,221.9,729.3,214.5,724.6,208.4z"/>
		<g>
			<path class="st4" d="M705.2,223c-0.1-0.8-0.3-1.6-0.5-2.4l-4,2.5c0,0,0,0,0,0.1C702.2,223.1,703.7,223.1,705.2,223z"/>
			<path class="st4" d="M701.7,227.8c1,5.8,2.1,17.5-3.6,29.8c-2.4,5.3-5.4,9.2-7.6,11.7l-0.1,0.4c1.3,0,2.6-0.1,3.9-0.3l0-0.3
				c1.6-1.8,3.8-4.5,5.8-8.1c5.2-9.2,5.7-17.7,6-23.3c0.1-2.1,0.2-5.5-0.3-9.7C704.5,227.9,703.1,227.9,701.7,227.8z"/>
		</g>
		<path class="st4" d="M646.6,237.3c14.8-9.8,27.3-11.6,35.4-11.5c10.3,0.2,20.2,3.7,36.8,1.2c4.3-0.7,7.8-1.5,10-2.1l2.5-1
			l-1.4-5.1l-1.4,0.9c-2.6,0.6-6.5,1.5-11.2,2.2c-18.6,2.7-27.8-0.1-39.6,1c-7.6,0.7-19,3.3-31.4,11.6L646.6,237.3z"/>
		<path class="st4" d="M646.6,237.3c14.8-9.8,27.3-11.6,35.4-11.5c10.3,0.2,20.2,3.7,36.8,1.2c4.3-0.7,7.8-1.5,10-2.1l2.5-1
			l-1.4-5.1l-1.4,0.9c-2.6,0.6-6.5,1.5-11.2,2.2c-18.6,2.7-27.8-0.1-39.6,1c-7.6,0.7-19,3.3-31.4,11.6L646.6,237.3z"/>
		<g>
			<path class="st4" d="M713.9,222.3c-0.3-2-0.8-4.2-1.5-6.4l-4.6,2.8c0.3,1.3,0.7,2.6,1,4.1C710.4,222.7,712.1,222.5,713.9,222.3z"
				/>
			<path class="st4" d="M714.5,227.6c-1.7,0.2-3.3,0.3-4.8,0.3c0.4,3.3,0.6,7,0.4,11c-0.3,5.4-0.7,11.5-4.2,18.5
				c-2.8,5.5-6.5,9.3-9.1,11.5l0,0.2c1.5-0.2,3-0.6,4.4-0.9l0,0c2-1.5,4.8-3.9,7.4-7.6c6.9-9.8,6.4-20.8,6-29.4
				C714.6,230,714.6,228.8,714.5,227.6z"/>
		</g>
		<g>
			<path class="st4" d="M717.5,221.8c1.6-0.2,3.1-0.5,4.5-0.8c-0.6-1.8-1.1-3.3-1.6-4.5c-0.6-1.5-1.1-3-1.8-4.5l-3.4,2.1
				c0.4,1.3,0.8,2.5,1.2,3.8C716.8,219,717.2,220.3,717.5,221.8z"/>
			<path class="st4" d="M718.8,227c0,0-0.1,0-0.1,0c1.1,6.4,1.3,14.7-2,23.5c-1.3,3.5-4.2,9.7-9.8,15.4c0,0,0,0.1,0,0.2
				c2.2-0.9,4.3-2,6.2-3.2c-0.1-0.1-0.1-0.1-0.1-0.1c4.7-4.3,7.2-8.5,8.5-11.3c4.2-9.1,3.6-18.3,2-25.4
				C722.1,226.5,720.5,226.8,718.8,227z"/>
		</g>
		<path class="st4" d="M724.6,208.4l-2.4,1.5c0.8,1.3,1.7,2.7,2.5,4.3c0.7,1.3,1.7,3.3,2.6,5.9c0.4-0.1,0.8-0.2,1.1-0.3l1.4-0.9
			l1.4,5.1l-2.4,0.9c0.3,1.3,0.6,2.7,0.7,4.2c1.2,11.3-3.7,20.4-6,24.2l0.5,0.3c5.3-6.6,8.3-14.8,8.2-23.5
			C732.1,221.9,729.3,214.5,724.6,208.4z"/>
	</g>
</g>
<g id="chhip">
	<polygon class="st3" points="850.5,201 850.5,199.7 845.9,199.7 845.9,199.2 845.3,199.2 845.3,194.6 844.1,194.6 844.1,199.2 
		841.1,199.2 841.1,194.6 839.9,194.6 839.9,199.2 836.9,199.2 836.9,194.6 835.6,194.6 835.6,199.2 832.7,199.2 832.7,194.6 
		831.4,194.6 831.4,199.2 828.4,199.2 828.4,194.6 827.2,194.6 827.2,199.2 824.2,199.2 824.2,194.6 823,194.6 823,199.2 820,199.2 
		820,194.6 818.7,194.6 818.7,199.2 815.8,199.2 815.8,194.6 814.5,194.6 814.5,199.2 811.6,199.2 811.6,194.6 810.3,194.6 
		810.3,199.2 807.3,199.2 807.3,194.6 806.1,194.6 806.1,199.2 803.1,199.2 803.1,194.6 801.9,194.6 801.9,199.2 801.3,199.2 
		801.3,199.7 796.7,199.7 796.7,201 801.3,201 801.3,204 796.7,204 796.7,205.2 801.3,205.2 801.3,208.2 796.7,208.2 796.7,209.4 
		801.3,209.4 801.3,212.4 796.7,212.4 796.7,213.7 801.3,213.7 801.3,216.6 796.7,216.6 796.7,217.9 801.3,217.9 801.3,220.9 
		796.7,220.9 796.7,222.1 801.3,222.1 801.3,225.1 796.7,225.1 796.7,226.3 801.3,226.3 801.3,229.3 796.7,229.3 796.7,230.5 
		801.3,230.5 801.3,233.5 796.7,233.5 796.7,234.8 801.3,234.8 801.3,237.7 796.7,237.7 796.7,239 801.3,239 801.3,242 796.7,242 
		796.7,243.2 801.3,243.2 801.3,243.8 801.9,243.8 801.9,248.4 803.1,248.4 803.1,243.8 806.1,243.8 806.1,248.4 807.3,248.4 
		807.3,243.8 810.3,243.8 810.3,248.4 811.6,248.4 811.6,243.8 814.5,243.8 814.5,248.4 815.8,248.4 815.8,243.8 818.7,243.8 
		818.7,248.4 820,248.4 820,243.8 823,243.8 823,248.4 824.2,248.4 824.2,243.8 827.2,243.8 827.2,248.4 828.4,248.4 828.4,243.8 
		831.4,243.8 831.4,248.4 832.7,248.4 832.7,243.8 835.6,243.8 835.6,248.4 836.9,248.4 836.9,243.8 839.9,243.8 839.9,248.4 
		841.1,248.4 841.1,243.8 844.1,243.8 844.1,248.4 845.3,248.4 845.3,243.8 845.9,243.8 845.9,243.2 850.5,243.2 850.5,242 
		845.9,242 845.9,239 850.5,239 850.5,237.7 845.9,237.7 845.9,234.8 850.5,234.8 850.5,233.5 845.9,233.5 845.9,230.5 850.5,230.5 
		850.5,229.3 845.9,229.3 845.9,226.3 850.5,226.3 850.5,225.1 845.9,225.1 845.9,222.1 850.5,222.1 850.5,220.9 845.9,220.9 
		845.9,217.9 850.5,217.9 850.5,216.6 845.9,216.6 845.9,213.7 850.5,213.7 850.5,212.4 845.9,212.4 845.9,209.4 850.5,209.4 
		850.5,208.2 845.9,208.2 845.9,205.2 850.5,205.2 850.5,204 845.9,204 845.9,201 	"/>
	<polygon class="st4" points="843.6,207.9 843.6,206.6 839,206.6 839,206.1 838.4,206.1 838.4,201.5 837.2,201.5 837.2,206.1 
		834.2,206.1 834.2,201.5 833,201.5 833,206.1 830,206.1 830,201.5 828.7,201.5 828.7,206.1 825.8,206.1 825.8,201.5 824.5,201.5 
		824.5,206.1 821.5,206.1 821.5,201.5 820.3,201.5 820.3,206.1 817.3,206.1 817.3,201.5 816.1,201.5 816.1,206.1 813.1,206.1 
		813.1,201.5 811.8,201.5 811.8,206.1 808.9,206.1 808.9,201.5 807.6,201.5 807.6,206.1 804.7,206.1 804.7,201.5 803.4,201.5 
		803.4,206.1 800.4,206.1 800.4,201.5 799.2,201.5 799.2,206.1 796.2,206.1 796.2,201.5 795,201.5 795,206.1 794.4,206.1 
		794.4,206.6 789.8,206.6 789.8,207.9 794.4,207.9 794.4,210.9 789.8,210.9 789.8,212.1 794.4,212.1 794.4,215.1 789.8,215.1 
		789.8,216.3 794.4,216.3 794.4,219.3 789.8,219.3 789.8,220.6 794.4,220.6 794.4,223.5 789.8,223.5 789.8,224.8 794.4,224.8 
		794.4,227.8 789.8,227.8 789.8,229 794.4,229 794.4,232 789.8,232 789.8,233.2 794.4,233.2 794.4,236.2 789.8,236.2 789.8,237.4 
		794.4,237.4 794.4,240.4 789.8,240.4 789.8,241.7 794.4,241.7 794.4,244.6 789.8,244.6 789.8,245.9 794.4,245.9 794.4,248.9 
		789.8,248.9 789.8,250.1 794.4,250.1 794.4,250.7 795,250.7 795,255.3 796.2,255.3 796.2,250.7 799.2,250.7 799.2,255.3 
		800.4,255.3 800.4,250.7 803.4,250.7 803.4,255.3 804.7,255.3 804.7,250.7 807.6,250.7 807.6,255.3 808.9,255.3 808.9,250.7 
		811.8,250.7 811.8,255.3 813.1,255.3 813.1,250.7 816.1,250.7 816.1,255.3 817.3,255.3 817.3,250.7 820.3,250.7 820.3,255.3 
		821.5,255.3 821.5,250.7 824.5,250.7 824.5,255.3 825.8,255.3 825.8,250.7 828.7,250.7 828.7,255.3 830,255.3 830,250.7 833,250.7 
		833,255.3 834.2,255.3 834.2,250.7 837.2,250.7 837.2,255.3 838.4,255.3 838.4,250.7 839,250.7 839,250.1 843.6,250.1 843.6,248.9 
		839,248.9 839,245.9 843.6,245.9 843.6,244.6 839,244.6 839,241.7 843.6,241.7 843.6,240.4 839,240.4 839,237.4 843.6,237.4 
		843.6,236.2 839,236.2 839,233.2 843.6,233.2 843.6,232 839,232 839,229 843.6,229 843.6,227.8 839,227.8 839,224.8 843.6,224.8 
		843.6,223.5 839,223.5 839,220.6 843.6,220.6 843.6,219.3 839,219.3 839,216.3 843.6,216.3 843.6,215.1 839,215.1 839,212.1 
		843.6,212.1 843.6,210.9 839,210.9 839,207.9 	"/>
</g>
</svg>
