<svg id="banner" width="100%" height="100%" viewBox="0 0 1140 270" version="1.1" xmlns="http://www.w3.org/2000/svg" xmlns:xlink="http://www.w3.org/1999/xlink" xml:space="preserve" style="fill-rule:evenodd;clip-rule:evenodd;stroke-miterlimit:1.41421;">
   <g  transform="matrix(.8,0,0,.8,80,-50)">
    <g id="beaker">
        <g>
            <path d="M650.7,324C649.6,322.3 649.7,321.3 649.7,320C649.7,318.7 649.7,314.4 649.7,312.8C649.7,311.2 649.9,310.6 651.8,309.8C653.6,309 653.6,308.5 653.6,307.6C653.6,306.7 653.5,305.6 651.9,305.6C650.3,305.6 644.1,305.6 644.1,305.6C644.1,305.6 637.9,305.6 636.3,305.6C634.7,305.6 634.6,306.8 634.6,307.6C634.6,308.4 634.6,308.9 636.4,309.8C638.2,310.6 638.5,311.3 638.5,312.8C638.5,314.4 638.5,318.6 638.5,320C638.5,321.3 638.6,322.3 637.5,324C636.4,325.7 613.1,357.1 610.5,360.7C607.8,364.3 607.1,368.6 608.8,371.1C610.5,373.6 612.8,375.2 615.2,375.3C617.6,375.4 644.1,375.3 644.1,375.3C644.1,375.3 670.6,375.4 673,375.3C675.4,375.2 677.7,373.6 679.4,371.1C681.1,368.6 680.4,364.3 677.7,360.7C675,357.1 651.8,325.7 650.7,324Z" class="fills"/>
            <circle cx="638.4" cy="296.5" r="3.2" class="fills"/>
            <circle cx="646.5" cy="301.2" r="2.1" class="fills"/>
            <circle cx="647.1" cy="290.7" r="4.5" class="fills"/>
        </g>
        <g>
            <path d="M671.5,367C668.8,363.4 645.5,332 644.5,330.3C643.4,328.6 643.5,327.6 643.5,326.3C643.5,325 643.5,320.7 643.5,319.1C643.5,317.5 643.7,316.9 645.6,316.1C647.4,315.3 647.4,314.8 647.4,313.9C647.4,313.1 647.3,311.9 645.7,311.9C644.1,311.9 637.9,311.9 637.9,311.9C637.9,311.9 631.7,311.9 630.1,311.9C628.5,311.9 628.4,313.1 628.4,313.9C628.4,314.7 628.4,315.2 630.2,316.1C632,316.9 632.3,317.6 632.3,319.1C632.3,320.7 632.3,324.9 632.3,326.3C632.3,327.7 632.4,328.6 631.3,330.3C630.2,332 606.9,363.4 604.3,367C601.6,370.6 600.9,374.9 602.6,377.4C604.3,379.9 606.6,381.5 609,381.6C611.4,381.7 637.9,381.6 637.9,381.6C637.9,381.6 664.4,381.7 666.8,381.6C669.2,381.5 671.5,379.9 673.2,377.4C674.9,374.9 674.1,370.6 671.5,367Z" class="lines"/>
            <circle cx="632.2" cy="302.8" r="3.2" class="lines"/>
            <circle cx="640.2" cy="307.5" r="2.1" class="lines"/>
            <circle cx="640.9" cy="296.9" r="4.5" class="lines"/>
        </g>
    </g>
    <g id="shoe">
        <path d="M191.6,322.4C187.5,318.3 153,310.1 147,317.3C144.4,320.4 123.7,339.1 114.5,341.9C105.4,344.7 71.9,346.7 66.8,352.8C61.7,358.9 65.8,363 72.9,369.1C80,375.1 126.8,376.2 132.8,374.1C138.8,372.1 149,369.1 160.1,369.1C171.3,369.1 162.9,375 171.6,375.1C180.3,375.2 195.6,377.3 196.6,369.1C197.6,360.9 195.6,326.4 191.6,322.4ZM170.2,338.8C166.8,338.8 164.1,336.1 164.1,332.7C164.1,329.3 166.8,326.6 170.2,326.6C173.6,326.6 176.3,329.3 176.3,332.7C176.3,336 173.6,338.8 170.2,338.8Z" class="fills"/>
        <path d="M185.3,328.6C181.2,324.5 146.7,316.3 140.7,323.5C138.1,326.6 117.4,345.3 108.2,348.1C99.1,350.9 65.6,352.9 60.5,359C55.4,365.1 59.5,369.2 66.6,375.3C73.7,381.3 120.5,382.4 126.5,380.3C132.5,378.3 142.7,375.3 153.8,375.3C165,375.3 156.6,381.2 165.3,381.3C174,381.4 189.3,383.5 190.3,375.3C191.4,367.1 189.4,332.6 185.3,328.6ZM164,345C160.6,345 157.9,342.3 157.9,338.9C157.9,335.5 160.6,332.8 164,332.8C167.4,332.8 170.1,335.5 170.1,338.9C170.1,342.3 167.4,345 164,345Z" class="lines"/>
    </g>
    <g id="paint">
        <g>
            <path d="M906.2,312.4C906.5,311.9 905.3,310.4 904.8,309.8C904.3,309.2 901.4,306.7 900.8,306.2C900.2,305.7 899.4,305 899,306C898.6,306.9 897.7,307.9 897.9,309C898.1,310.1 898.8,310.3 898.8,310.3C898.8,310.3 899.4,310 899.5,309.5C899.6,309.1 900.2,308.8 900.4,309.3C900.7,309.8 901.5,311.5 900.8,311.9C900.1,312.3 898.5,313 898.3,312.6C898,312.1 896.7,309.5 897,309.1C897.3,308.7 898.6,305.2 898.7,304.6C898.8,303.9 899.1,300.9 899.9,299.7C900.7,298.5 903.7,293.9 903.4,292.2C903.1,290.5 903.1,287 903.8,285.9C904.4,284.8 907.7,280.1 908.3,279.8C908.9,279.5 911.5,276.7 911.9,276.5C912.3,276.3 915.2,272.7 915.6,272.2C916.1,271.7 917.5,270.4 918.7,269C918.9,268.7 918.9,266.8 918.7,266.7C918.5,266.6 917.4,266.5 916.5,266.2C915.6,265.9 910.5,261.7 909.1,260.3C907.7,258.9 904.2,255.1 903.7,254C903.1,252.9 901.3,253.7 901.3,253.7C900.2,254.5 894.1,262 893.5,262.7C892.9,263.4 890.7,267.5 890.5,268.4C890.4,269.3 887.8,277.7 887.5,279.3C887.2,280.9 887.4,284.2 886.1,285.5C884.8,286.8 881.3,291.8 879.7,293.5C878.1,295.2 877.3,296.1 876.8,297.1C876.4,298.2 875.3,299.5 876,301C876.7,302.5 878.5,303.7 878.5,303.7C879.4,304.2 884.4,307.8 885.7,308.9C887,310 891.5,314.4 892.8,315.2C894.1,316 896,318 897.7,317.5C899.4,317 901.6,316.7 902.1,316.9C902.6,317.1 905.1,316 905.4,315.1C905.8,314.4 906,312.9 906.2,312.4Z" class="fills"/>
            <path d="M909.9,259.7C911,260.7 915.9,264.7 916.4,265.1C916.9,265.5 918.3,265.5 918.4,265.6C918.6,265.8 919,266 919,266C918.6,263 917.6,259.6 917.4,258.9C917.3,258.3 916.3,257.7 915.9,257.5C915.9,257.5 915.8,257.5 915.8,257.4C915.8,257.4 915.9,257.4 915.9,257.5C916.4,257.7 917.4,258 917.6,257.8C917.8,257.6 919.3,255.4 919.4,255.2C919.5,255 919.2,254.3 919,254.1C919.2,254.3 921.3,256.1 921.8,256.3C922.3,256.6 923.3,255.7 923.6,255.2C923.9,254.7 924.1,253.8 923.5,253C923,252.2 915.1,246.1 913.8,245.7C912.5,245.3 912.1,245.9 911.8,246.3C911.6,246.6 911.5,247 911.3,247.4C911.1,247.8 911.5,248.3 912,248.8C912.5,249.3 914.3,250.5 914.9,250.8C914.3,250.5 913.5,249.9 913.1,250C912.7,250 912.4,249.9 911.5,251C910.6,252.1 910.3,252.1 910.3,252.5C910.3,253 910.6,253.5 910.6,253.5C910.6,253.5 910.4,253 910,252.9C909.6,252.8 909,253 908.5,253C908,253 906,253 904.3,253.1C904.3,253.1 904.7,253.4 904.9,253.7C905,253.9 908.8,258.6 909.9,259.7Z" class="fills"/>
        </g>
        <g>
            <path d="M910.6,272.1C909.4,273.5 908,274.9 907.5,275.3C907,275.8 904.2,279.4 903.8,279.6C903.4,279.8 900.7,282.6 900.2,282.9C899.7,283.2 896.4,288 895.7,289C895,290 895,293.6 895.3,295.3C895.6,297 892.6,301.6 891.8,302.8C891,304 890.7,307 890.6,307.7C890.5,308.4 889.2,311.9 888.9,312.2C888.6,312.6 889.9,315.2 890.2,315.7C890.5,316.2 892,315.4 892.7,315C893.4,314.6 892.6,312.9 892.3,312.4C892,311.9 891.4,312.1 891.4,312.6C891.3,313 890.7,313.4 890.7,313.4C890.7,313.4 890,313.2 889.8,312.1C889.6,311 890.5,310 890.9,309.1C891.3,308.2 892.1,308.8 892.7,309.3C893.3,309.8 896.2,312.3 896.7,312.9C897.2,313.5 898.4,315.1 898.1,315.5C897.8,315.9 897.6,317.5 897.4,318.4C897.1,319.3 894.7,320.4 894.1,320.2C893.5,320 891.4,320.3 889.7,320.8C888,321.3 886.1,319.4 884.8,318.5C883.5,317.7 879,313.3 877.7,312.2C876.4,311 871.4,307.4 870.5,307C870.5,307 868.7,305.7 868,304.3C867.3,302.8 868.3,301.5 868.8,300.4C869.3,299.3 870,298.5 871.7,296.8C873.3,295.1 876.8,290.1 878.1,288.8C879.4,287.5 879.3,284.2 879.5,282.6C879.8,281 882.4,272.6 882.5,271.7C882.6,270.8 884.8,266.7 885.5,266C886.2,265.3 892.2,257.8 893.3,257C893.3,257 895.1,256.2 895.7,257.3C896.3,258.4 899.7,262.3 901.1,263.6C902.5,264.9 907.6,269.2 908.5,269.5C909.4,269.8 910.5,269.9 910.7,270C910.9,269.9 910.9,271.8 910.6,272.1Z" class="lines"/>
            <g>
                <path d="M907.7,260.7C907.2,260.5 904.7,258.8 903.8,258.2C902.9,257.6 902.6,257.1 902.2,256.6C902.2,256.6 902,256.1 901.6,256C901.2,255.9 900.6,256.1 900.1,256.1C899.6,256.1 897.6,256.1 895.9,256.2C895.9,256.2 896.3,256.5 896.5,256.8C896.7,257.1 900.5,261.9 901.6,262.9C902.7,263.9 907.6,267.9 908.1,268.3C908.6,268.7 910,268.7 910.1,268.8C910.3,269 910.7,269.2 910.7,269.2C910.3,266.2 909.3,262.8 909.1,262.1C909.1,261.5 908.2,260.9 907.7,260.7Z" class="lines"/>
                <path d="M903.5,249.3C903.3,249.6 903.2,250 903,250.4C902.8,250.8 903.2,251.3 903.7,251.8C904.2,252.3 906,253.5 906.6,253.8C907.2,254.1 910.6,256.9 910.8,257.1C911,257.3 913.1,259.1 913.6,259.3C914.1,259.6 915.1,258.7 915.4,258.2C915.7,257.7 915.9,256.8 915.3,256C914.8,255.2 906.9,249.1 905.6,248.7C904.1,248.4 903.7,249 903.5,249.3Z" class="lines"/>
            </g>
            <path d="M902.2,256.5C902.6,257 903,257.4 903.8,258.1C904.6,258.8 907.2,260.4 907.7,260.6C908.2,260.8 909.2,261.1 909.4,260.9C909.6,260.7 911.1,258.5 911.2,258.3C911.3,258.1 911,257.4 910.8,257.2C910.6,257 907.1,254.2 906.6,253.9C906.1,253.6 905.2,253 904.8,253.1C904.4,253.1 904.1,253 903.2,254.1C902.3,255.2 902,255.2 902,255.6C901.9,256 902.2,256.5 902.2,256.5Z" class="lines"/>
        </g>
    </g>
    <g id="Computer">
        <g>
            <path d="M1149.8,163L1008.7,163C1004.6,163 1001.3,166.3 1001.3,170.4L1001.3,253.8C1001.3,257.9 1004.6,261.2 1008.7,261.2L1061.1,261.2C1061.1,261.2 1058.9,272.9 1057.4,278.5C1055.9,284.1 1058.4,285.3 1061.1,285.3C1063.3,285.3 1095.2,285.3 1097.4,285.3C1100.1,285.3 1102.5,284.1 1101.1,278.5C1099.6,272.9 1097.4,261.2 1097.4,261.2L1149.8,261.2C1153.9,261.2 1157.2,257.9 1157.2,253.8L1157.2,170.4C1157.2,166.3 1153.9,163 1149.8,163Z" class="fills"/>
            <path d="M1121.6,302.8L1036.9,302.8C1036.5,302.8 1036.2,303.1 1036.2,303.5L1036.2,338.8C1036.2,339.2 1036.5,339.5 1036.9,339.5L1121.6,339.5C1122,339.5 1122.3,339.2 1122.3,338.8L1122.3,303.5C1122.3,303.1 1122,302.8 1121.6,302.8Z" class="fills"/>
        </g>
        <g>
            <path d="M1143,268L1001.5,268C997.5,268 994.3,264.8 994.3,260.8L994.3,177.1C994.3,173.1 997.5,169.9 1001.5,169.9L1143,169.9C1147,169.9 1150.2,173.1 1150.2,177.1L1150.2,260.8C1150.2,264.8 1147,268 1143,268Z" class="lines"/>
            <rect x="1002.3" y="177.8" width="140" height="82.3" class="lines"/>
            <path d="M1094.1,285.3C1092.6,279.7 1090.4,268 1090.4,268L1072.9,268L1071.7,268L1054.2,268C1054.2,268 1052,279.7 1050.5,285.3C1049,290.9 1051.5,292.1 1054.2,292.1C1056.4,292.1 1088.3,292.1 1090.5,292.1C1093.1,292.1 1095.6,290.9 1094.1,285.3Z" class="lines"/>
            <g>
                <path d="M1114.7,346.5L1030,346.5C1029.6,346.5 1029.3,346.2 1029.3,345.8L1029.3,310.5C1029.3,310.1 1029.6,309.8 1030,309.8L1114.7,309.8C1115.1,309.8 1115.4,310.1 1115.4,310.5L1115.4,345.8C1115.4,346.2 1115.1,346.5 1114.7,346.5Z" class="lines"/>
                <path d="M1090.8,344.1L1055.8,344.1C1055.4,344.1 1055.1,343.8 1055.1,343.4L1055.1,340C1055.1,339.6 1055.4,339.3 1055.8,339.3L1090.8,339.3C1091.2,339.3 1091.5,339.6 1091.5,340L1091.5,343.4C1091.5,343.7 1091.2,344.1 1090.8,344.1Z" class="lines"/>
                <path d="M1053.4,344.1L1047.9,344.1C1047.5,344.1 1047.2,343.8 1047.2,343.4L1047.2,340C1047.2,339.6 1047.5,339.3 1047.9,339.3L1053.4,339.3C1053.8,339.3 1054.1,339.6 1054.1,340L1054.1,343.4C1054.1,343.7 1053.8,344.1 1053.4,344.1Z" class="lines"/>
                <path d="M1039.7,344.1L1032.2,344.1C1031.8,344.1 1031.5,343.8 1031.5,343.4L1031.5,340C1031.5,339.6 1031.8,339.3 1032.2,339.3L1039.7,339.3C1040.1,339.3 1040.4,339.6 1040.4,340L1040.4,343.4C1040.4,343.7 1040.1,344.1 1039.7,344.1Z" class="lines"/>
                <path d="M1043.1,338.1L1032.2,338.1C1031.8,338.1 1031.5,337.8 1031.5,337.4L1031.5,334C1031.5,333.6 1031.8,333.3 1032.2,333.3L1043.1,333.3C1043.5,333.3 1043.8,333.6 1043.8,334L1043.8,337.4C1043.8,337.7 1043.5,338.1 1043.1,338.1Z" class="lines"/>
                <path d="M1112.5,338.1L1103.6,338.1C1103.2,338.1 1102.9,337.8 1102.9,337.4L1102.9,334C1102.9,333.6 1103.2,333.3 1103.6,333.3L1112.5,333.3C1112.9,333.3 1113.2,333.6 1113.2,334L1113.2,337.4C1113.2,337.8 1112.8,338.1 1112.5,338.1Z" class="lines"/>
                <path d="M1045.4,344.1L1042.1,344.1C1041.7,344.1 1041.4,343.8 1041.4,343.4L1041.4,340C1041.4,339.6 1041.7,339.3 1042.1,339.3L1045.4,339.3C1045.8,339.3 1046.1,339.6 1046.1,340L1046.1,343.4C1046.1,343.7 1045.8,344.1 1045.4,344.1Z" class="lines"/>
                <path d="M1048.8,338.1L1045.5,338.1C1045.1,338.1 1044.8,337.8 1044.8,337.4L1044.8,334C1044.8,333.6 1045.1,333.3 1045.5,333.3L1048.8,333.3C1049.2,333.3 1049.5,333.6 1049.5,334L1049.5,337.4C1049.5,337.7 1049.2,338.1 1048.8,338.1Z" class="lines"/>
                <path d="M1054.6,338.1L1051.3,338.1C1050.9,338.1 1050.6,337.8 1050.6,337.4L1050.6,334C1050.6,333.6 1050.9,333.3 1051.3,333.3L1054.6,333.3C1055,333.3 1055.3,333.6 1055.3,334L1055.3,337.4C1055.3,337.7 1054.9,338.1 1054.6,338.1Z" class="lines"/>
                <path d="M1060.3,338.1L1057,338.1C1056.6,338.1 1056.3,337.8 1056.3,337.4L1056.3,334C1056.3,333.6 1056.6,333.3 1057,333.3L1060.3,333.3C1060.7,333.3 1061,333.6 1061,334L1061,337.4C1061.1,337.7 1060.7,338.1 1060.3,338.1Z" class="lines"/>
                <path d="M1066.1,338.1L1062.8,338.1C1062.4,338.1 1062.1,337.8 1062.1,337.4L1062.1,334C1062.1,333.6 1062.4,333.3 1062.8,333.3L1066.1,333.3C1066.5,333.3 1066.8,333.6 1066.8,334L1066.8,337.4C1066.9,337.7 1066.5,338.1 1066.1,338.1Z" class="lines"/>
                <path d="M1071.9,338.1L1068.6,338.1C1068.2,338.1 1067.9,337.8 1067.9,337.4L1067.9,334C1067.9,333.6 1068.2,333.3 1068.6,333.3L1071.9,333.3C1072.3,333.3 1072.6,333.6 1072.6,334L1072.6,337.4C1072.7,337.7 1072.3,338.1 1071.9,338.1Z" class="lines"/>
                <path d="M1077.7,338.1L1074.4,338.1C1074,338.1 1073.7,337.8 1073.7,337.4L1073.7,334C1073.7,333.6 1074,333.3 1074.4,333.3L1077.7,333.3C1078.1,333.3 1078.4,333.6 1078.4,334L1078.4,337.4C1078.4,337.7 1078.1,338.1 1077.7,338.1Z" class="lines"/>
                <path d="M1083.5,338.1L1080.2,338.1C1079.8,338.1 1079.5,337.8 1079.5,337.4L1079.5,334C1079.5,333.6 1079.8,333.3 1080.2,333.3L1083.5,333.3C1083.9,333.3 1084.2,333.6 1084.2,334L1084.2,337.4C1084.2,337.7 1083.9,338.1 1083.5,338.1Z" class="lines"/>
                <path d="M1089.3,338.1L1086,338.1C1085.6,338.1 1085.3,337.8 1085.3,337.4L1085.3,334C1085.3,333.6 1085.6,333.3 1086,333.3L1089.3,333.3C1089.7,333.3 1090,333.6 1090,334L1090,337.4C1090,337.7 1089.7,338.1 1089.3,338.1Z" class="lines"/>
                <path d="M1095.1,338.1L1091.8,338.1C1091.4,338.1 1091.1,337.8 1091.1,337.4L1091.1,334C1091.1,333.6 1091.4,333.3 1091.8,333.3L1095.1,333.3C1095.5,333.3 1095.8,333.6 1095.8,334L1095.8,337.4C1095.8,337.7 1095.5,338.1 1095.1,338.1Z" class="lines"/>
                <path d="M1100.9,338.1L1097.6,338.1C1097.2,338.1 1096.9,337.8 1096.9,337.4L1096.9,334C1096.9,333.6 1097.2,333.3 1097.6,333.3L1100.9,333.3C1101.3,333.3 1101.6,333.6 1101.6,334L1101.6,337.4C1101.6,337.7 1101.3,338.1 1100.9,338.1Z" class="lines"/>
                <path d="M1045.7,332.1L1042.4,332.1C1042,332.1 1041.7,331.8 1041.7,331.4L1041.7,328C1041.7,327.6 1042,327.3 1042.4,327.3L1045.7,327.3C1046.1,327.3 1046.4,327.6 1046.4,328L1046.4,331.4C1046.4,331.7 1046.1,332.1 1045.7,332.1Z" class="lines"/>
                <path d="M1039.9,332.1L1032.2,332.1C1031.8,332.1 1031.5,331.8 1031.5,331.4L1031.5,328C1031.5,327.6 1031.8,327.3 1032.2,327.3L1039.9,327.3C1040.3,327.3 1040.6,327.6 1040.6,328L1040.6,331.4C1040.6,331.7 1040.3,332.1 1039.9,332.1Z" class="lines"/>
                <path d="M1051.5,332.1L1048.2,332.1C1047.8,332.1 1047.5,331.8 1047.5,331.4L1047.5,328C1047.5,327.6 1047.8,327.3 1048.2,327.3L1051.5,327.3C1051.9,327.3 1052.2,327.6 1052.2,328L1052.2,331.4C1052.2,331.7 1051.8,332.1 1051.5,332.1Z" class="lines"/>
                <path d="M1057.2,332.1L1053.9,332.1C1053.5,332.1 1053.2,331.8 1053.2,331.4L1053.2,328C1053.2,327.6 1053.5,327.3 1053.9,327.3L1057.2,327.3C1057.6,327.3 1057.9,327.6 1057.9,328L1057.9,331.4C1058,331.7 1057.6,332.1 1057.2,332.1Z" class="lines"/>
                <path d="M1063,332.1L1059.7,332.1C1059.3,332.1 1059,331.8 1059,331.4L1059,328C1059,327.6 1059.3,327.3 1059.7,327.3L1063,327.3C1063.4,327.3 1063.7,327.6 1063.7,328L1063.7,331.4C1063.8,331.7 1063.4,332.1 1063,332.1Z" class="lines"/>
                <path d="M1068.8,332.1L1065.5,332.1C1065.1,332.1 1064.8,331.8 1064.8,331.4L1064.8,328C1064.8,327.6 1065.1,327.3 1065.5,327.3L1068.8,327.3C1069.2,327.3 1069.5,327.6 1069.5,328L1069.5,331.4C1069.6,331.7 1069.2,332.1 1068.8,332.1Z" class="lines"/>
                <path d="M1074.6,332.1L1071.3,332.1C1070.9,332.1 1070.6,331.8 1070.6,331.4L1070.6,328C1070.6,327.6 1070.9,327.3 1071.3,327.3L1074.6,327.3C1075,327.3 1075.3,327.6 1075.3,328L1075.3,331.4C1075.3,331.7 1075,332.1 1074.6,332.1Z" class="lines"/>
                <path d="M1080.4,332.1L1077.1,332.1C1076.7,332.1 1076.4,331.8 1076.4,331.4L1076.4,328C1076.4,327.6 1076.7,327.3 1077.1,327.3L1080.4,327.3C1080.8,327.3 1081.1,327.6 1081.1,328L1081.1,331.4C1081.1,331.7 1080.8,332.1 1080.4,332.1Z" class="lines"/>
                <path d="M1086.2,332.1L1082.9,332.1C1082.5,332.1 1082.2,331.8 1082.2,331.4L1082.2,328C1082.2,327.6 1082.5,327.3 1082.9,327.3L1086.2,327.3C1086.6,327.3 1086.9,327.6 1086.9,328L1086.9,331.4C1086.9,331.7 1086.6,332.1 1086.2,332.1Z" class="lines"/>
                <path d="M1092,332.1L1088.7,332.1C1088.3,332.1 1088,331.8 1088,331.4L1088,328C1088,327.6 1088.3,327.3 1088.7,327.3L1092,327.3C1092.4,327.3 1092.7,327.6 1092.7,328L1092.7,331.4C1092.7,331.7 1092.4,332.1 1092,332.1Z" class="lines"/>
                <path d="M1097.8,332.1L1094.5,332.1C1094.1,332.1 1093.8,331.8 1093.8,331.4L1093.8,328C1093.8,327.6 1094.1,327.3 1094.5,327.3L1097.8,327.3C1098.2,327.3 1098.5,327.6 1098.5,328L1098.5,331.4C1098.5,331.7 1098.2,332.1 1097.8,332.1Z" class="lines"/>
                <path d="M1103.6,332.1L1100.3,332.1C1099.9,332.1 1099.6,331.8 1099.6,331.4L1099.6,328C1099.6,327.6 1099.9,327.3 1100.3,327.3L1103.6,327.3C1104,327.3 1104.3,327.6 1104.3,328L1104.3,331.4C1104.3,331.7 1104,332.1 1103.6,332.1Z" class="lines"/>
                <path d="M1042.6,326.3L1039.3,326.3C1038.9,326.3 1038.6,326 1038.6,325.6L1038.6,322.2C1038.6,321.8 1038.9,321.5 1039.3,321.5L1042.6,321.5C1043,321.5 1043.3,321.8 1043.3,322.2L1043.3,325.6C1043.3,325.9 1043,326.3 1042.6,326.3Z" class="lines"/>
                <path d="M1036.8,326.3L1032,326.3C1031.6,326.3 1031.3,326 1031.3,325.6L1031.3,322.2C1031.3,321.8 1031.6,321.5 1032,321.5L1036.8,321.5C1037.2,321.5 1037.5,321.8 1037.5,322.2L1037.5,325.6C1037.5,325.9 1037.2,326.3 1036.8,326.3Z" class="lines"/>
                <path d="M1048.4,326.3L1045.1,326.3C1044.7,326.3 1044.4,326 1044.4,325.6L1044.4,322.2C1044.4,321.8 1044.7,321.5 1045.1,321.5L1048.4,321.5C1048.8,321.5 1049.1,321.8 1049.1,322.2L1049.1,325.6C1049.1,325.9 1048.8,326.3 1048.4,326.3Z" class="lines"/>
                <path d="M1054.2,326.3L1050.9,326.3C1050.5,326.3 1050.2,326 1050.2,325.6L1050.2,322.2C1050.2,321.8 1050.5,321.5 1050.9,321.5L1054.2,321.5C1054.6,321.5 1054.9,321.8 1054.9,322.2L1054.9,325.6C1054.9,325.9 1054.6,326.3 1054.2,326.3Z" class="lines"/>
                <path d="M1060,326.3L1056.7,326.3C1056.3,326.3 1056,326 1056,325.6L1056,322.2C1056,321.8 1056.3,321.5 1056.7,321.5L1060,321.5C1060.4,321.5 1060.7,321.8 1060.7,322.2L1060.7,325.6C1060.7,325.9 1060.4,326.3 1060,326.3Z" class="lines"/>
                <path d="M1065.8,326.3L1062.5,326.3C1062.1,326.3 1061.8,326 1061.8,325.6L1061.8,322.2C1061.8,321.8 1062.1,321.5 1062.5,321.5L1065.8,321.5C1066.2,321.5 1066.5,321.8 1066.5,322.2L1066.5,325.6C1066.5,325.9 1066.2,326.3 1065.8,326.3Z" class="lines"/>
                <path d="M1071.6,326.3L1068.3,326.3C1067.9,326.3 1067.6,326 1067.6,325.6L1067.6,322.2C1067.6,321.8 1067.9,321.5 1068.3,321.5L1071.6,321.5C1072,321.5 1072.3,321.8 1072.3,322.2L1072.3,325.6C1072.3,325.9 1072,326.3 1071.6,326.3Z" class="lines"/>
                <path d="M1077.4,326.3L1074.1,326.3C1073.7,326.3 1073.4,326 1073.4,325.6L1073.4,322.2C1073.4,321.8 1073.7,321.5 1074.1,321.5L1077.4,321.5C1077.8,321.5 1078.1,321.8 1078.1,322.2L1078.1,325.6C1078.1,325.9 1077.8,326.3 1077.4,326.3Z" class="lines"/>
                <path d="M1083.2,326.3L1079.9,326.3C1079.5,326.3 1079.2,326 1079.2,325.6L1079.2,322.2C1079.2,321.8 1079.5,321.5 1079.9,321.5L1083.2,321.5C1083.6,321.5 1083.9,321.8 1083.9,322.2L1083.9,325.6C1083.9,325.9 1083.6,326.3 1083.2,326.3Z" class="lines"/>
                <path d="M1089,326.3L1085.7,326.3C1085.3,326.3 1085,326 1085,325.6L1085,322.2C1085,321.8 1085.3,321.5 1085.7,321.5L1089,321.5C1089.4,321.5 1089.7,321.8 1089.7,322.2L1089.7,325.6C1089.7,325.9 1089.4,326.3 1089,326.3Z" class="lines"/>
                <path d="M1094.8,326.3L1091.5,326.3C1091.1,326.3 1090.8,326 1090.8,325.6L1090.8,322.2C1090.8,321.8 1091.1,321.5 1091.5,321.5L1094.8,321.5C1095.2,321.5 1095.5,321.8 1095.5,322.2L1095.5,325.6C1095.5,325.9 1095.2,326.3 1094.8,326.3Z" class="lines"/>
                <path d="M1100.5,326.3L1097.2,326.3C1096.8,326.3 1096.5,326 1096.5,325.6L1096.5,322.2C1096.5,321.8 1096.8,321.5 1097.2,321.5L1100.5,321.5C1100.9,321.5 1101.2,321.8 1101.2,322.2L1101.2,325.6C1101.3,325.9 1100.9,326.3 1100.5,326.3Z" class="lines"/>
                <path d="M1106.3,326.3L1103,326.3C1102.6,326.3 1102.3,326 1102.3,325.6L1102.3,322.2C1102.3,321.8 1102.6,321.5 1103,321.5L1106.3,321.5C1106.7,321.5 1107,321.8 1107,322.2L1107,325.6C1107.1,325.9 1106.7,326.3 1106.3,326.3Z" class="lines"/>
                <path d="M1112.1,326.3L1108.8,326.3C1108.4,326.3 1108.1,326 1108.1,325.6L1108.1,322.2C1108.1,321.8 1108.4,321.5 1108.8,321.5L1112.1,321.5C1112.5,321.5 1112.8,321.8 1112.8,322.2L1112.8,325.6C1112.9,325.9 1112.5,326.3 1112.1,326.3Z" class="lines"/>
                <path d="M1035.5,320.5L1032.2,320.5C1031.8,320.5 1031.5,320.2 1031.5,319.8L1031.5,316.4C1031.5,316 1031.8,315.7 1032.2,315.7L1035.5,315.7C1035.9,315.7 1036.2,316 1036.2,316.4L1036.2,319.8C1036.2,320.1 1035.9,320.5 1035.5,320.5Z" class="lines"/>
                <path d="M1041.2,320.5L1037.9,320.5C1037.5,320.5 1037.2,320.2 1037.2,319.8L1037.2,316.4C1037.2,316 1037.5,315.7 1037.9,315.7L1041.2,315.7C1041.6,315.7 1041.9,316 1041.9,316.4L1041.9,319.8C1042,320.1 1041.6,320.5 1041.2,320.5Z" class="lines"/>
                <path d="M1047,320.5L1043.7,320.5C1043.3,320.5 1043,320.2 1043,319.8L1043,316.4C1043,316 1043.3,315.7 1043.7,315.7L1047,315.7C1047.4,315.7 1047.7,316 1047.7,316.4L1047.7,319.8C1047.8,320.1 1047.4,320.5 1047,320.5Z" class="lines"/>
                <path d="M1052.8,320.5L1049.5,320.5C1049.1,320.5 1048.8,320.2 1048.8,319.8L1048.8,316.4C1048.8,316 1049.1,315.7 1049.5,315.7L1052.8,315.7C1053.2,315.7 1053.5,316 1053.5,316.4L1053.5,319.8C1053.6,320.1 1053.2,320.5 1052.8,320.5Z" class="lines"/>
                <path d="M1058.6,320.5L1055.3,320.5C1054.9,320.5 1054.6,320.2 1054.6,319.8L1054.6,316.4C1054.6,316 1054.9,315.7 1055.3,315.7L1058.6,315.7C1059,315.7 1059.3,316 1059.3,316.4L1059.3,319.8C1059.4,320.1 1059,320.5 1058.6,320.5Z" class="lines"/>
                <path d="M1064.4,320.5L1061.1,320.5C1060.7,320.5 1060.4,320.2 1060.4,319.8L1060.4,316.4C1060.4,316 1060.7,315.7 1061.1,315.7L1064.4,315.7C1064.8,315.7 1065.1,316 1065.1,316.4L1065.1,319.8C1065.1,320.1 1064.8,320.5 1064.4,320.5Z" class="lines"/>
                <path d="M1070.2,320.5L1066.9,320.5C1066.5,320.5 1066.2,320.2 1066.2,319.8L1066.2,316.4C1066.2,316 1066.5,315.7 1066.9,315.7L1070.2,315.7C1070.6,315.7 1070.9,316 1070.9,316.4L1070.9,319.8C1070.9,320.1 1070.6,320.5 1070.2,320.5Z" class="lines"/>
                <path d="M1076,320.5L1072.7,320.5C1072.3,320.5 1072,320.2 1072,319.8L1072,316.4C1072,316 1072.3,315.7 1072.7,315.7L1076,315.7C1076.4,315.7 1076.7,316 1076.7,316.4L1076.7,319.8C1076.7,320.1 1076.4,320.5 1076,320.5Z" class="lines"/>
                <path d="M1081.8,320.5L1078.5,320.5C1078.1,320.5 1077.8,320.2 1077.8,319.8L1077.8,316.4C1077.8,316 1078.1,315.7 1078.5,315.7L1081.8,315.7C1082.2,315.7 1082.5,316 1082.5,316.4L1082.5,319.8C1082.5,320.1 1082.2,320.5 1081.8,320.5Z" class="lines"/>
                <path d="M1087.6,320.5L1084.3,320.5C1083.9,320.5 1083.6,320.2 1083.6,319.8L1083.6,316.4C1083.6,316 1083.9,315.7 1084.3,315.7L1087.6,315.7C1088,315.7 1088.3,316 1088.3,316.4L1088.3,319.8C1088.3,320.1 1088,320.5 1087.6,320.5Z" class="lines"/>
                <path d="M1093.4,320.5L1090.1,320.5C1089.7,320.5 1089.4,320.2 1089.4,319.8L1089.4,316.4C1089.4,316 1089.7,315.7 1090.1,315.7L1093.4,315.7C1093.8,315.7 1094.1,316 1094.1,316.4L1094.1,319.8C1094.1,320.1 1093.8,320.5 1093.4,320.5Z" class="lines"/>
                <path d="M1099.2,320.5L1095.9,320.5C1095.5,320.5 1095.2,320.2 1095.2,319.8L1095.2,316.4C1095.2,316 1095.5,315.7 1095.9,315.7L1099.2,315.7C1099.6,315.7 1099.9,316 1099.9,316.4L1099.9,319.8C1099.9,320.1 1099.6,320.5 1099.2,320.5Z" class="lines"/>
                <path d="M1105,320.5L1101.7,320.5C1101.3,320.5 1101,320.2 1101,319.8L1101,316.4C1101,316 1101.3,315.7 1101.7,315.7L1105,315.7C1105.4,315.7 1105.7,316 1105.7,316.4L1105.7,319.8C1105.7,320.1 1105.4,320.5 1105,320.5Z" class="lines"/>
                <path d="M1035.6,314.7L1032.2,314.7C1031.8,314.7 1031.5,314.4 1031.5,314L1031.5,313C1031.5,312.6 1031.8,312.3 1032.2,312.3L1035.6,312.3C1036,312.3 1036.3,312.6 1036.3,313L1036.3,314C1036.3,314.4 1036,314.7 1035.6,314.7Z" class="lines"/>
                <path d="M1041.5,314.7L1038.1,314.7C1037.7,314.7 1037.4,314.4 1037.4,314L1037.4,313C1037.4,312.6 1037.7,312.3 1038.1,312.3L1041.5,312.3C1041.9,312.3 1042.2,312.6 1042.2,313L1042.2,314C1042.2,314.4 1041.9,314.7 1041.5,314.7Z" class="lines"/>
                <path d="M1047.4,314.7L1044,314.7C1043.6,314.7 1043.3,314.4 1043.3,314L1043.3,313C1043.3,312.6 1043.6,312.3 1044,312.3L1047.4,312.3C1047.8,312.3 1048.1,312.6 1048.1,313L1048.1,314C1048.1,314.4 1047.8,314.7 1047.4,314.7Z" class="lines"/>
                <path d="M1053.3,314.7L1049.9,314.7C1049.5,314.7 1049.2,314.4 1049.2,314L1049.2,313C1049.2,312.6 1049.5,312.3 1049.9,312.3L1053.3,312.3C1053.7,312.3 1054,312.6 1054,313L1054,314C1054,314.4 1053.7,314.7 1053.3,314.7Z" class="lines"/>
                <path d="M1059.2,314.7L1055.8,314.7C1055.4,314.7 1055.1,314.4 1055.1,314L1055.1,313C1055.1,312.6 1055.4,312.3 1055.8,312.3L1059.2,312.3C1059.6,312.3 1059.9,312.6 1059.9,313L1059.9,314C1059.9,314.4 1059.6,314.7 1059.2,314.7Z" class="lines"/>
                <path d="M1065.1,314.7L1061.7,314.7C1061.3,314.7 1061,314.4 1061,314L1061,313C1061,312.6 1061.3,312.3 1061.7,312.3L1065.1,312.3C1065.5,312.3 1065.8,312.6 1065.8,313L1065.8,314C1065.9,314.4 1065.5,314.7 1065.1,314.7Z" class="lines"/>
                <path d="M1071,314.7L1067.6,314.7C1067.2,314.7 1066.9,314.4 1066.9,314L1066.9,313C1066.9,312.6 1067.2,312.3 1067.6,312.3L1071,312.3C1071.4,312.3 1071.7,312.6 1071.7,313L1071.7,314C1071.8,314.4 1071.4,314.7 1071,314.7Z" class="lines"/>
                <path d="M1077,314.7L1073.6,314.7C1073.2,314.7 1072.9,314.4 1072.9,314L1072.9,313C1072.9,312.6 1073.2,312.3 1073.6,312.3L1077,312.3C1077.4,312.3 1077.7,312.6 1077.7,313L1077.7,314C1077.7,314.4 1077.4,314.7 1077,314.7Z" class="lines"/>
                <path d="M1082.9,314.7L1079.5,314.7C1079.1,314.7 1078.8,314.4 1078.8,314L1078.8,313C1078.8,312.6 1079.1,312.3 1079.5,312.3L1082.9,312.3C1083.3,312.3 1083.6,312.6 1083.6,313L1083.6,314C1083.6,314.4 1083.3,314.7 1082.9,314.7Z" class="lines"/>
                <path d="M1088.8,314.7L1085.4,314.7C1085,314.7 1084.7,314.4 1084.7,314L1084.7,313C1084.7,312.6 1085,312.3 1085.4,312.3L1088.8,312.3C1089.2,312.3 1089.5,312.6 1089.5,313L1089.5,314C1089.5,314.4 1089.2,314.7 1088.8,314.7Z" class="lines"/>
                <path d="M1094.7,314.7L1091.3,314.7C1090.9,314.7 1090.6,314.4 1090.6,314L1090.6,313C1090.6,312.6 1090.9,312.3 1091.3,312.3L1094.7,312.3C1095.1,312.3 1095.4,312.6 1095.4,313L1095.4,314C1095.4,314.4 1095.1,314.7 1094.7,314.7Z" class="lines"/>
                <path d="M1100.6,314.7L1097.2,314.7C1096.8,314.7 1096.5,314.4 1096.5,314L1096.5,313C1096.5,312.6 1096.8,312.3 1097.2,312.3L1100.6,312.3C1101,312.3 1101.3,312.6 1101.3,313L1101.3,314C1101.3,314.4 1101,314.7 1100.6,314.7Z" class="lines"/>
                <path d="M1106.5,314.7L1103.1,314.7C1102.7,314.7 1102.4,314.4 1102.4,314L1102.4,313C1102.4,312.6 1102.7,312.3 1103.1,312.3L1106.5,312.3C1106.9,312.3 1107.2,312.6 1107.2,313L1107.2,314C1107.3,314.4 1106.9,314.7 1106.5,314.7Z" class="lines"/>
                <path d="M1112.5,314.7L1109.1,314.7C1108.7,314.7 1108.4,314.4 1108.4,314L1108.4,313C1108.4,312.6 1108.7,312.3 1109.1,312.3L1112.5,312.3C1112.9,312.3 1113.2,312.6 1113.2,313L1113.2,314C1113.2,314.4 1112.9,314.7 1112.5,314.7Z" class="lines"/>
                <path d="M1112.5,320.5L1107.6,320.5C1107.2,320.5 1106.9,320.2 1106.9,319.8L1106.9,316.4C1106.9,316 1107.2,315.7 1107.6,315.7L1112.5,315.7C1112.9,315.7 1113.2,316 1113.2,316.4L1113.2,319.8C1113.2,320.1 1112.8,320.5 1112.5,320.5Z" class="lines"/>
                <path d="M1112.5,332.1L1106.2,332.1C1105.8,332.1 1105.5,331.8 1105.5,331.4L1105.5,328C1105.5,327.6 1105.8,327.3 1106.2,327.3L1112.5,327.3C1112.9,327.3 1113.2,327.6 1113.2,328L1113.2,331.4C1113.2,331.7 1112.8,332.1 1112.5,332.1Z" class="lines"/>
                <path d="M1112.5,344.1L1107,344.1C1106.6,344.1 1106.3,343.8 1106.3,343.4L1106.3,340C1106.3,339.6 1106.6,339.3 1107,339.3L1112.5,339.3C1112.9,339.3 1113.2,339.6 1113.2,340L1113.2,343.4C1113.2,343.7 1112.9,344.1 1112.5,344.1Z" class="lines"/>
                <path d="M1098.8,344.1L1093.3,344.1C1092.9,344.1 1092.6,343.8 1092.6,343.4L1092.6,340C1092.6,339.6 1092.9,339.3 1093.3,339.3L1098.8,339.3C1099.2,339.3 1099.5,339.6 1099.5,340L1099.5,343.4C1099.5,343.7 1099.2,344.1 1098.8,344.1Z" class="lines"/>
                <path d="M1104.5,344.1L1101.2,344.1C1100.8,344.1 1100.5,343.8 1100.5,343.4L1100.5,340C1100.5,339.6 1100.8,339.3 1101.2,339.3L1104.5,339.3C1104.9,339.3 1105.2,339.6 1105.2,340L1105.2,343.4C1105.2,343.7 1104.9,344.1 1104.5,344.1Z" class="lines"/>
            </g>
        </g>
    </g>
    <g id="sally">
        <g>
            <path d="M742.7,321.9C742.7,321.9 741.1,318.5 740.1,316.7C739.1,314.9 737.1,311.9 734.9,310.7C732.7,309.5 721.4,307.5 721.4,307.5C720.1,307.3 720,309.1 719.2,310.3C718.8,310.9 719.1,311.6 719.5,312.4L719,311.7L708.3,320.3C708.3,320.3 709.5,321.3 710.1,322C710.7,322.7 721.3,314.7 721.3,314.7C721.9,315.5 722.8,316.5 723.6,317.4L721.8,315.5L712,325.1C712,325.1 713.3,326 714,326.6C714.7,327.2 724.2,318.5 724.5,318.3C724.7,318.5 724.8,318.6 724.9,318.7C725.7,319.4 731.1,321.6 732.7,321.8C734.3,322 735.7,321.8 735.7,321.8L740.3,348.1L746.5,348.1L742.7,321.9Z" class="fills"/>
            <path d="M707.4,321.9C707,322.9 707.4,331.3 707.4,331.3C707.4,332.3 708.2,335 709.4,335C710.6,335 710.8,335 710.8,333.1C710.8,331.2 710.2,321.9 710.2,321.9L708.4,320.2C708.4,320.2 707.8,320.9 707.4,321.9Z" class="fills"/>
            <path d="M711.3,326.8C711,327.8 712.2,336.2 712.2,336.2C712.3,337.2 713.3,339.8 714.5,339.7C715.7,339.6 715.9,339.6 715.7,337.7C715.5,335.9 714,326.6 714,326.6L712,325.1C712.1,325.1 711.6,325.8 711.3,326.8Z" class="fills"/>
            <path d="M730.8,321.6L727,320.2L719.7,330.5C719.7,330.5 721.1,331.1 721.9,331.7C722.7,332.2 730.8,321.6 730.8,321.6Z" class="fills"/>
            <path d="M719.2,332.4C719.1,333.5 721.8,341.5 721.8,341.5C722.1,342.5 723.6,344.9 724.7,344.5C725.9,344.2 726.1,344.1 725.5,342.3C725,340.5 721.9,331.7 721.9,331.7L719.7,330.5C719.7,330.6 719.3,331.3 719.2,332.4Z" class="fills"/>
            <path d="M870.2,351.3L870.3,351.3L860.9,347.9L860.9,348C860,347.8 859,347.6 858,347.6C857.4,347.6 856.8,347.7 856.2,347.7L846.4,347.7C845.4,343.5 841.1,340.4 836.1,340.4C835.5,340.4 835,340.5 834.4,340.5C834.4,328.4 834.4,301.2 834.4,294.2C836.6,293.6 838.4,292 839.4,290C839.9,288.9 840.2,287.8 840.2,286.5C840.2,286.4 840.2,286.3 840.2,286.2C840.2,286.5 840.3,286.8 840.3,286.8C840.4,286.8 840.6,286.8 840.8,286.8C842.2,286.8 845.4,286.5 847.8,284C850.1,281.7 850.5,278.8 850.5,277.7L849.4,277.6C849.4,278.6 849,281.1 847,283.2C844.4,285.9 840.9,285.7 840.2,285.7C840.2,285.7 840.1,285.6 840.1,285.7C840.1,285.4 840,285.1 840,284.9L840,285C841,284.9 844.1,284.4 846.1,281.5C847.7,279.1 847.6,276.5 847.5,275.5L846.4,275.6C846.5,276.5 846.6,278.8 845.2,280.9C843.4,283.6 840.4,283.9 839.8,284C839.8,284 839.9,284.6 839.9,284.9C839.8,284.2 839.5,283.6 839.2,283L839.4,283.4C839.9,283.2 842.6,282.2 843.5,279.2C844.2,276.9 843.5,274.7 843.2,273.9L842.2,274.3C842.5,275 843.1,276.9 842.5,278.9C841.7,281.4 839.5,282.3 839,282.4L838.9,282.5L839,282.6C837.6,280.2 835,278.5 832,278.5C829.5,278.5 827.2,279.7 825.7,281.5C824.6,282.9 823.9,284.6 823.9,286.5C823.9,290.2 826.4,293.3 829.7,294.2L829.7,337.7L828.1,337.1L828.1,337.2C827.2,337 826.2,336.9 825.3,336.9C824.7,336.9 824.1,337 823.5,337L793.3,337C789.6,327.7 771.2,282 771.2,282L760.2,288.4C760.2,288.4 760.4,289.2 760.8,290.5L746.3,348L750.7,349.9L764.6,304.3C767.6,315.3 771.5,329.3 773.7,337.4C767.8,339.2 763.6,344.1 763.6,349.8C763.6,356 768.4,361.2 774.9,362.6L781.8,365.1C781.8,365 781.8,365 781.9,364.9C784,365.9 786.4,366.5 789,366.5C790.8,366.5 792.6,366.2 794.2,365.6L795.3,365.4C797,369.6 801,372.8 806,373.9L813.1,376.5C813.1,376.4 813.1,376.4 813.2,376.3C815.4,377.3 817.8,377.9 820.5,377.9C822.4,377.9 824.2,377.6 825.9,377L868.4,370.1C874.4,370.1 879.2,365.8 879.2,360.5C879.6,355.9 875.5,351.9 870.2,351.3Z" class="fills"/>
        </g>
        <g>
            <path d="M729.2,328.5L736,328.5L740.1,354.8L733.8,354.8L729.2,328.5Z" class="lines"/>
            <path d="M714.8,314.1C714.8,314.1 726,316.1 728.3,317.3C730.5,318.5 732.5,321.5 733.5,323.3C734.5,325.1 736.1,328.5 736.1,328.5L729.3,328.5C729.3,328.5 727.9,328.7 726.3,328.5C724.7,328.3 719.3,326.1 718.5,325.4C717.7,324.7 715.9,322.6 714.9,321.3C713.9,320.1 711.9,318 712.7,316.8C713.4,315.7 713.4,313.8 714.8,314.1Z" class="lines"/>
            <path d="M712.4,318.3L701.7,326.9C701.7,326.9 702.9,327.9 703.5,328.6C704.1,329.3 714.7,321.3 714.7,321.3L712.4,318.3Z" class="lines"/>
            <path d="M700.7,338C700.7,339 701.5,341.7 702.7,341.7C703.9,341.7 704.1,341.7 704.1,339.8C704.1,337.9 703.5,328.6 703.5,328.6L701.7,326.9C701.7,326.9 701.1,327.5 700.7,328.5C700.3,329.5 700.7,338 700.7,338Z" class="lines"/>
            <path d="M715.3,322.2L705.5,331.8C705.5,331.8 706.8,332.7 707.5,333.3C708.2,334 718,325 718,325L715.3,322.2Z" class="lines"/>
            <path d="M705.5,342.9C705.6,343.9 706.6,346.5 707.8,346.4C709,346.3 709.2,346.3 709,344.4C708.8,342.5 707.3,333.3 707.3,333.3L705.3,331.8C705.3,331.8 704.8,332.5 704.5,333.5C704.2,334.5 705.5,342.9 705.5,342.9Z" class="lines"/>
            <path d="M720.4,326.9L713.1,337.2C713.1,337.2 714.5,337.8 715.3,338.4C716.1,339 724.1,328.3 724.1,328.3L720.4,326.9Z" class="lines"/>
            <path d="M715.2,348.1C715.5,349.1 717,351.5 718.1,351.1C719.2,350.7 719.5,350.7 718.9,348.9C718.4,347.1 715.3,338.3 715.3,338.3L713.1,337.1C713.1,337.1 712.7,337.9 712.6,338.9C712.5,339.9 715.2,348.1 715.2,348.1Z" class="lines"/>
            <circle cx="812.9" cy="371.9" r="9.9" class="lines"/>
            <circle cx="862.8" cy="367.7" r="7.1" class="lines"/>
            <path d="M823.4,353.4L786.6,353.3" class="lines"/>
            <path d="M822.4,291.6C822.2,292.1 822,292.6 822,293.2C822,295.2 823.6,296.8 825.6,296.8C826.8,296.8 827.8,296.2 828.5,295.4C826.2,294.5 824.1,293.2 822.4,291.6Z" class="lines"/>
            <path d="M825.6,285.2C823.1,285.2 820.8,286.4 819.3,288.2C822.5,292.6 827.3,295.7 832.8,296.7C833.3,295.6 833.6,294.5 833.6,293.2C833.6,288.8 830,285.2 825.6,285.2Z" class="lines"/>
            <path d="M862.2,357.9C861.6,357.9 861,358 860.4,358L816.4,358C815.7,357.9 815,357.9 814.3,357.9C813.6,357.9 812.9,358 812.2,358C804.8,358.9 799.1,364.5 799.1,371.3C799.1,378.7 805.9,384.8 814.3,384.8C816.2,384.8 818,384.5 819.7,383.9L862.2,377C868.2,377 873,372.7 873,367.4C873,362.2 868.1,357.9 862.2,357.9Z" class="lines"/>
            <path d="M827.8,347.2C827.8,350.5 827.8,352.6 827.8,353.1C827.8,353.6 827.5,354.1 827.1,354.4L839.8,354.4C838.8,350.2 834.5,347.1 829.5,347.1C828.9,347.1 828.3,347.2 827.8,347.2Z" class="lines"/>
            <path d="M823.4,300.9L823.4,353.1C823.4,353.7 823.6,354.1 823.8,354.4L827.1,354.4C827.5,354.1 827.8,353.6 827.8,353.1C827.8,351.1 827.8,309.8 827.8,300.9C830,300.3 831.8,298.7 832.8,296.7C827.3,295.7 822.5,292.6 819.3,288.2C818.2,289.6 817.5,291.3 817.5,293.2C817.6,296.9 820,300 823.4,300.9Z" class="lines"/>
            <path d="M799.1,371.4C799.1,364.6 804.8,359 812.2,358.1C812.9,358 813.6,358 814.3,358C815,358 815.7,358.1 816.4,358.1L860.4,358.1C861,358 861.6,358 862.2,358C862.7,358 863.2,358 863.7,358.1L854.3,354.7L854.3,354.8C853.4,354.6 852.4,354.4 851.4,354.4C850.8,354.4 850.2,354.5 849.6,354.5L805.6,354.5C804.9,354.4 804.2,354.4 803.5,354.4C802.8,354.4 802.1,354.5 801.4,354.5C794,355.4 788.3,361 788.3,367.8C788.3,374.1 793.3,379.5 799.9,380.9L807,383.5C807,383.4 807,383.4 807.1,383.3C802.3,380.9 799.1,376.5 799.1,371.4Z" class="lines"/>
            <path d="M821.8,344C820.9,343.8 819.9,343.7 819,343.7C818.4,343.7 817.8,343.8 817.2,343.8L787,343.8C787.3,344.6 787.5,345.1 787.6,345.3C787.9,346.1 788.1,346.7 788.2,347.2L823.4,347.2L823.4,344.4L821.8,344Z" class="lines"/>
            <path d="M835.1,353.4L827.7,353.4C827.6,353.8 827.4,354.1 827.1,354.4L837.9,354.4L835.1,353.4Z" class="lines"/>
            <g>
                <path d="M777,358.3C777,358.4 777,358.4 777.1,358.5C777.1,358.4 777,358.3 777,358.3Z" class="lines"/>
                <path d="M777.5,359.5C777.5,359.6 777.6,359.6 777.5,359.5C777.6,359.6 777.5,359.6 777.5,359.5Z" class="lines"/>
                <path d="M777.4,359.2L777.4,359.3L777.4,359.2Z" class="lines"/>
                <path d="M777.3,359L777.3,359.1L777.3,359Z" class="lines"/>
                <path d="M777.1,358.5C777.1,358.6 777.1,358.6 777.2,358.7C777.2,358.6 777.1,358.6 777.1,358.5Z" class="lines"/>
                <path d="M777.2,358.8C777.2,358.8 777.2,358.9 777.3,358.9L777.2,358.8Z" class="lines"/>
                <path d="M778.7,361.2C778.7,361.3 778.7,361.3 778.7,361.2C778.7,361.3 778.7,361.3 778.7,361.2Z" class="lines"/>
                <path d="M777.7,359.9C777.7,359.9 777.7,360 777.7,359.9C777.7,360 777.7,359.9 777.7,359.9Z" class="lines"/>
                <path d="M774,350.4C773.9,350.2 773.9,350 773.8,349.9C773.9,350 773.9,350.2 774,350.4Z" class="lines"/>
                <path d="M777.7,359.8C777.7,359.8 777.7,359.9 777.7,359.8C777.7,359.9 777.7,359.8 777.7,359.8Z" class="lines"/>
                <path d="M779,361.6C779,361.6 779.1,361.6 779,361.6C779.1,361.6 779,361.6 779,361.6Z" class="lines"/>
                <path d="M775.8,355.1C775.8,355.2 775.9,355.3 775.9,355.4C775.9,355.3 775.8,355.2 775.8,355.1Z" class="lines"/>
                <path d="M775.5,354.3C775.5,354.4 775.6,354.5 775.6,354.6C775.6,354.5 775.5,354.4 775.5,354.3Z" class="lines"/>
                <path d="M775.3,353.8C775.3,353.9 775.4,354 775.4,354.1C775.4,354.1 775.3,354 775.3,353.8Z" class="lines"/>
                <path d="M775.6,354.7C775.6,354.8 775.7,354.9 775.7,355C775.7,355 775.7,354.8 775.6,354.7Z" class="lines"/>
                <path d="M775.1,353.4C775.1,353.5 775.2,353.7 775.2,353.8C775.2,353.6 775.2,353.5 775.1,353.4Z" class="lines"/>
                <path d="M776.9,358C776.9,358.1 776.9,358.1 777,358.2C776.9,358.1 776.9,358 776.9,358Z" class="lines"/>
                <path d="M774,350.4C774.3,351.1 774.5,351.7 774.7,352.4C774.5,351.8 774.3,351.1 774,350.4Z" class="lines"/>
                <path d="M774.8,352.4C774.9,352.7 775,353 775.1,353.3C775,353 774.9,352.7 774.8,352.4Z" class="lines"/>
                <path d="M823.4,353.1L823.4,347.3L788.2,347.3C788.4,348.6 788.1,349.5 787.6,351.1C787,353.3 784.5,356.7 782.4,360.2C781.1,362.4 780.1,362.5 779.2,361.9C778.4,361.4 773.6,358.4 772.1,356.9C771.1,355.9 770.6,354.8 770.1,353.5C768.7,355.5 767.9,357.9 767.9,360.4C767.9,367.7 774.6,373.6 782.8,373.6C784.6,373.6 786.4,373.3 788,372.7L789.1,372.5C788.5,371.1 788.2,369.5 788.2,367.9C788.2,361.1 793.9,355.5 801.3,354.6C802,354.5 802.7,354.5 803.4,354.5C804.1,354.5 804.8,354.6 805.5,354.6L823.7,354.6C823.5,354.1 823.4,353.7 823.4,353.1Z" class="lines"/>
                <path d="M776.5,357C776.5,357.1 776.6,357.1 776.6,357.2C776.6,357.2 776.6,357.1 776.5,357Z" class="lines"/>
                <path d="M776.7,357.4C776.7,357.5 776.8,357.5 776.8,357.6C776.7,357.5 776.7,357.4 776.7,357.4Z" class="lines"/>
                <path d="M776.8,357.7C776.8,357.8 776.8,357.8 776.9,357.9C776.8,357.8 776.8,357.7 776.8,357.7Z" class="lines"/>
                <path d="M776.4,356.7C776.4,356.8 776.5,356.9 776.5,356.9C776.5,356.8 776.4,356.8 776.4,356.7Z" class="lines"/>
                <path d="M776.1,356C776.1,356.1 776.2,356.1 776.2,356.2C776.2,356.1 776.1,356 776.1,356Z" class="lines"/>
                <path d="M776.3,356.3C776.3,356.4 776.4,356.5 776.4,356.5C776.3,356.5 776.3,356.4 776.3,356.3Z" class="lines"/>
                <path d="M776,355.6C776,355.7 776.1,355.8 776.1,355.9C776,355.7 776,355.7 776,355.6Z" class="lines"/>
            </g>
            <g>
                <path d="M768,360.3C768,357.8 768.8,355.4 770.2,353.4C769.9,352.6 769.7,351.8 769.4,350.9C769.2,350.4 768.6,348 767.6,344.4C761.7,346.2 757.5,351.1 757.5,356.8C757.5,363 762.3,368.2 768.8,369.6L775.7,372.1C775.7,372 775.7,372 775.8,371.9C771.1,369.6 768,365.3 768,360.3Z" class="lines"/>
                <path d="M773.8,349.8C773.1,347.9 772.3,345.8 771.5,343.6C772.3,345.9 773.1,347.9 773.8,349.8Z" class="lines"/>
            </g>
            <g>
                <path d="M779,361.6C779,361.6 779.1,361.6 779,361.6C779.1,361.6 779,361.6 779,361.6Z" class="lines"/>
                <path d="M777.8,360C777.8,360.1 777.8,360.1 777.8,360C777.8,360.1 777.8,360.1 777.8,360Z" class="lines"/>
                <path d="M777.7,359.9C777.7,360 777.7,360 777.7,359.9C777.7,360 777.7,360 777.7,359.9Z" class="lines"/>
                <path d="M778.7,361.2C778.7,361.3 778.7,361.3 778.7,361.2C778.7,361.3 778.7,361.3 778.7,361.2Z" class="lines"/>
                <path d="M777,358.2C776.7,357.4 776.2,356.2 775.7,354.9C776.2,356.2 776.6,357.3 777,358.2Z" class="lines"/>
                <path d="M777,358.2C777,358.3 777.1,358.4 777.1,358.5C777.1,358.4 777,358.3 777,358.2Z" class="lines"/>
                <path d="M777.6,359.8C777.6,359.8 777.6,359.9 777.7,359.9C777.7,359.9 777.7,359.8 777.6,359.8Z" class="lines"/>
                <path d="M777.1,358.5C777.2,358.7 777.3,358.9 777.3,359.1C777.3,358.9 777.2,358.7 777.1,358.5Z" class="lines"/>
                <path d="M784.6,356.7C783.9,357.8 783.1,358.9 782.4,360.1C781.1,362.3 780.1,362.4 779.2,361.8C778.8,361.5 777.2,360.6 775.7,359.5L775.7,361.9L788.3,366.5C788.6,363.8 789.8,361.3 791.6,359.3L784.6,356.7Z" class="lines"/>
                <path d="M777.6,359.6C777.6,359.7 777.7,359.7 777.7,359.8C777.6,359.7 777.6,359.7 777.6,359.6Z" class="lines"/>
                <path d="M777.5,359.4C777.5,359.5 777.5,359.5 777.6,359.6C777.5,359.5 777.5,359.4 777.5,359.4Z" class="lines"/>
                <path d="M777.4,359.1C777.4,359.2 777.5,359.2 777.5,359.3C777.4,359.3 777.4,359.2 777.4,359.1Z" class="lines"/>
            </g>
            <g>
                <path d="M754.6,297C754.2,295.8 753.9,295.2 753.9,295.2C753.9,295.2 754.1,296 754.5,297.3L754.6,297Z" class="lines"/>
                <path d="M777.8,360.1C777,358.9 765.7,327.9 759,309.2L758.4,311.2C762.8,327.1 768.9,349.2 769.4,350.8C770.2,353.3 770.6,355.1 772.2,356.8C773.7,358.3 778.5,361.3 779.3,361.8C778.7,361.4 778.3,360.8 777.8,360.1Z" class="lines"/>
            </g>
            <path d="M754.6,297L740,354.8L744.4,356.7L758.9,309.1C757.1,303.7 755.5,299.3 754.6,297Z" class="lines"/>
            <path d="M754,295.2C754,295.2 776.6,358.3 777.8,360.1C779,361.9 780.3,363.6 782.4,360.1C784.5,356.6 787,353.2 787.6,351C788.2,348.8 788.6,347.8 787.6,345.3C786.6,342.8 764.9,288.8 764.9,288.8L754,295.2Z" class="lines"/>
            <path d="M834.2,293.4C834,293.4 833.8,293.4 833.7,293.4C833.7,293.4 833.6,292.7 833.6,292.4C833.6,292.3 833.7,292.4 833.7,292.4C834.4,292.5 837.9,292.6 840.5,289.9C842.6,287.8 842.9,285.3 842.9,284.3L844,284.4C843.9,285.5 843.6,288.4 841.3,290.7C838.8,293.1 835.6,293.4 834.2,293.4Z" class="lines"/>
            <path d="M833.3,290.6C833.9,290.6 836.8,290.2 838.7,287.5C840.1,285.4 840.1,283.1 839.9,282.2L841,282.1C841.1,283.1 841.2,285.7 839.6,288.1C837.6,291 834.6,291.5 833.5,291.6C833.4,291.5 833.3,290.6 833.3,290.6Z" class="lines"/>
            <path d="M833,290.1L832.5,289.2L832.6,289.1C833,289 835.3,288.1 836.1,285.6C836.7,283.6 836.1,281.7 835.8,281L836.8,280.6C837.1,281.4 837.8,283.6 837.1,285.9C836.2,288.9 833.5,289.9 833,290.1Z" class="lines"/>
        </g>
    </g>
    <g id="brush">
        <path d="M367,376.6C367.6,376.6 369,376.6 369.4,376.6C369.8,376.6 369.6,377.7 370.6,377.7C371.6,377.7 371.5,377 371.9,377C372.3,377 380.8,377 381.5,377C382.1,377 382.6,377.7 383.1,377.7C383.6,377.7 384,376.9 384.4,376.9C384.8,376.9 386.7,377 386.8,376.4C386.9,375.8 387.5,375.6 388.3,375.6C389.1,375.6 389.9,374.6 390.1,373.6C390.3,372.7 390.3,372 390.6,370.7C390.9,369.4 392.6,366.9 395.1,364.5C397.5,362.2 404.8,361.6 409.1,360.7C413.4,359.8 421.2,362.1 429.1,363.8C437,365.5 444.7,363.4 449,361.8C453.3,360.2 455.5,356.1 455.5,354.7L455.5,354.6C455.5,353.3 453.3,349.1 449,347.5C444.7,345.9 437,343.8 429.1,345.5C421.2,347.2 413.3,349.5 409.1,348.6C404.9,347.7 397.6,347.2 395.1,344.8C392.7,342.5 390.9,339.9 390.6,338.6C390.3,337.3 390.4,336.6 390.1,335.7C389.9,334.8 389,333.7 388.3,333.7C387.5,333.7 386.9,333.5 386.8,332.9C386.7,332.3 384.8,332.4 384.4,332.4C384,332.4 383.5,331.6 383.1,331.6C382.7,331.6 382.2,332.3 381.5,332.3C380.9,332.3 372.3,332.3 371.9,332.3C371.5,332.3 371.5,331.6 370.6,331.6C369.7,331.6 369.8,332.7 369.4,332.7C369,332.7 367.7,332.7 367,332.7C366.4,332.7 366.5,333.3 366.5,333.3C366.5,333.3 332.6,329.7 331.2,330C329.8,330.3 329.7,331.3 329.8,332.8C329.9,334.4 330.2,334.8 330.3,335.7C330.4,336.6 330.7,338.8 330.1,339.2C329.6,339.7 329.7,339.9 329.8,340.5C329.9,341.1 329.6,341.3 329.3,341.8C329.1,342.3 329.1,342.6 329.3,342.9C329.5,343.2 329.6,344.1 329.7,344.3C329.8,344.5 330.7,344.7 331,344.9C331.3,345.1 330.1,345.5 329.9,345.6C329.7,345.7 329.5,346.4 329.5,346.9C329.5,347.4 328.3,350.2 328.3,350.8C328.3,351.4 328.2,353.1 328.3,353.3C328.4,353.5 328.5,356.3 328.3,357.4C328,358.6 327.6,359.4 327.9,359.6C328.2,359.8 329.6,359.7 329.6,360.1C329.6,360.5 328.7,360.6 328.4,361C328.2,361.4 328.6,363.4 328.8,363.8C329,364.3 328.6,364.7 328.8,365.4C329,366.1 329.1,367 328.8,367.4C328.4,367.9 328,368.4 328,368.8C328,369.2 328.9,368.3 329.6,368.8C330.3,369.3 330.3,372.2 330.3,373.2C330.2,374.1 329.9,374.5 329.8,376.1C329.7,377.7 329.8,378.6 331.2,378.9C332.6,379.2 366.5,375.6 366.5,375.6C366.5,375.6 366.3,376.6 367,376.6ZM443.6,354.8C443.6,353.3 444.8,352.2 446.2,352.2C447.7,352.2 448.8,353.4 448.8,354.8C448.8,356.3 447.6,357.4 446.2,357.4C444.8,357.4 443.6,356.2 443.6,354.8Z" class="fills"/>
        <path d="M326.5,325.7C325.1,326 325,327 325.1,328.5C325.2,330.1 325.5,330.5 325.6,331.4C325.7,332.3 326,334.5 325.4,334.9C324.8,335.3 325,335.6 325.1,336.2C325.2,336.8 324.9,337 324.6,337.5C324.4,338 324.4,338.3 324.6,338.6C324.8,338.9 324.9,339.8 325,340C325.1,340.2 326,340.4 326.3,340.6C326.6,340.8 325.4,341.2 325.2,341.3C325,341.4 324.8,342.1 324.8,342.6C324.8,343.1 323.6,345.9 323.6,346.5C323.6,347.1 323.5,348.8 323.6,349C323.7,349.2 323.8,352 323.6,353.1C323.4,354.2 322.9,355.1 323.2,355.3C323.5,355.5 324.9,355.4 324.9,355.8C324.9,356.2 324,356.3 323.7,356.7C323.5,357.1 323.9,359.1 324.1,359.5C324.3,360 323.9,360.4 324.1,361.1C324.2,361.8 324.4,362.7 324.1,363.1C323.7,363.6 323.3,364.1 323.3,364.5C323.3,364.9 324.2,364 324.9,364.5C325.6,365 325.6,367.9 325.6,368.9C325.5,369.8 325.2,370.2 325.1,371.8C325,373.4 325.1,374.3 326.5,374.6C327.9,374.9 361.8,371.3 361.8,371.3C361.8,371.3 361.7,371.9 362.3,371.9C362.9,371.9 364.3,371.9 364.7,371.9C365.1,371.9 364.9,373 365.9,373C366.8,373 366.8,372.3 367.2,372.3C367.6,372.3 376.1,372.3 376.8,372.3C377.4,372.3 377.9,373 378.4,373C378.9,373 379.3,372.2 379.7,372.2C380.1,372.2 382,372.3 382.1,371.7C382.2,371.1 382.8,370.9 383.6,370.9C384.4,370.9 385.2,369.9 385.4,368.9C385.6,368 385.6,367.3 385.9,366C386.2,364.7 387.9,362.2 390.4,359.8C392.8,357.5 400.1,356.9 404.4,356C408.6,355.1 416.5,357.4 424.4,359.1C432.3,360.8 440,358.7 444.3,357.1C448.6,355.5 450.8,351.4 450.8,350L450.8,349.9C450.8,348.6 448.6,344.4 444.3,342.8C440,341.2 432.3,339.1 424.4,340.8C416.5,342.5 408.6,344.8 404.4,343.9C400.2,343 392.9,342.5 390.4,340.1C387.9,337.7 386.2,335.2 385.9,333.9C385.6,332.6 385.7,331.9 385.4,331C385.2,330.1 384.3,329 383.6,329C382.8,329 382.2,328.8 382.1,328.2C382,327.6 380.1,327.7 379.7,327.7C379.3,327.7 378.8,326.9 378.4,326.9C377.9,326.9 377.5,327.6 376.8,327.6C376.2,327.6 367.6,327.6 367.2,327.6C366.8,327.6 366.8,326.9 365.9,326.9C365,326.9 365.1,328 364.7,328C364.3,328 363,328 362.3,328C361.7,328 361.8,328.6 361.8,328.6C361.8,328.6 327.9,325.4 326.5,325.7ZM441.6,347.5C443.1,347.5 444.2,348.7 444.2,350.1C444.2,351.5 443,352.7 441.6,352.7C440.1,352.7 439,351.5 439,350.1C439,348.7 440.2,347.5 441.6,347.5Z" class="lines"/>
    </g>
    <g id="square">
        <path d="M390.5,289.9L390.5,272.5L393.4,272.5L393.4,273.6L394.4,273.6L394.4,272.5L396.8,272.5L396.8,274.7L397.8,274.7L397.8,272.5L400.3,272.5L400.3,273.6L401.3,273.6L401.3,272.5L403.7,272.5L403.7,275.8L404.7,275.8L404.7,272.5L407.2,272.5L407.2,273.6L408.2,273.6L408.2,272.5L410.6,272.5L410.6,274.7L411.6,274.7L411.6,272.5L414,272.5L414,273.6L415,273.6L415,272.5L417.5,272.5L417.5,278L418.5,278L418.5,272.5L420.9,272.5L420.9,273.6L421.9,273.6L421.9,272.5L424.4,272.5L424.4,274.7L425.4,274.7L425.4,272.5L427.8,272.5L427.8,273.6L428.8,273.6L428.8,272.5L431.2,272.5L431.2,275.8L432.2,275.8L432.2,272.5L434.7,272.5L434.7,273.6L435.7,273.6L435.7,272.5L438.1,272.5L438.1,274.7L439.1,274.7L439.1,272.5L441.6,272.5L441.6,273.6L442.6,273.6L442.6,272.5L445,272.5L445,281.3L446,281.3L446,272.5L448.4,272.5L448.4,273.6L449.4,273.6L449.4,272.5L451.9,272.5L451.9,274.7L452.9,274.7L452.9,272.5L455.3,272.5L455.3,273.6L456.3,273.6L456.3,272.5L458.8,272.5L458.8,275.8L459.8,275.8L459.8,272.5L462.2,272.5L462.2,273.6L463.2,273.6L463.2,272.5L465.6,272.5L465.6,274.7L466.6,274.7L466.6,272.5L469.1,272.5L469.1,273.6L470.1,273.6L470.1,272.5L472.5,272.5L472.5,278L473.5,278L473.5,272.5L476,272.5L476,273.6L477,273.6L477,272.5L479.4,272.5L479.4,274.7L480.4,274.7L480.4,272.5L482.8,272.5L482.8,273.6L483.8,273.6L483.8,272.5L486.3,272.5L486.3,275.8L487.3,275.8L487.3,272.5L489.7,272.5L489.7,273.6L490.7,273.6L490.7,272.5L493.2,272.5L493.2,274.7L494.2,274.7L494.2,272.5L496.6,272.5L496.6,273.6L497.6,273.6L497.6,272.5L508.8,272.5L508.8,284.3L507.7,284.3L507.7,285.3L508.8,285.3L508.8,287.7L506.6,287.7L506.6,288.7L508.8,288.7L508.8,291.2L507.7,291.2L507.7,292.2L508.8,292.2L508.8,294.6L505.5,294.6L505.5,295.6L508.8,295.6L508.8,298L507.7,298L507.7,299L508.8,299L508.8,301.5L506.6,301.5L506.6,302.5L508.8,302.5L508.8,304.9L507.7,304.9L507.7,305.9L508.8,305.9L508.8,308.4L503.3,308.4L503.3,309.4L508.8,309.4L508.8,311.8L507.7,311.8L507.7,312.8L508.8,312.8L508.8,315.2L506.6,315.2L506.6,316.2L508.8,316.2L508.8,318.7L507.7,318.7L507.7,319.7L508.8,319.7L508.8,322.1L505.5,322.1L505.5,323.1L508.8,323.1L508.8,325.6L507.7,325.6L507.7,326.6L508.8,326.6L508.8,329L506.6,329L506.6,330L508.8,330L508.8,332.4L507.7,332.4L507.7,333.4L508.8,333.4L508.8,336.4L491.4,336.4L491.4,289.9L390.5,289.9Z" class="fills"/>
        <path d="M498.2,283.2L498.2,329.6L515.6,329.6L515.6,326.7L514.5,326.7L514.5,325.7L515.6,325.7L515.6,323.2L513.4,323.2L513.4,322.2L515.6,322.2L515.6,319.8L514.5,319.8L514.5,318.8L515.6,318.8L515.6,316.3L512.3,316.3L512.3,315.3L515.6,315.3L515.6,312.9L514.5,312.9L514.5,311.9L515.6,311.9L515.6,309.5L513.4,309.5L513.4,308.5L515.6,308.5L515.6,306L514.5,306L514.5,305L515.6,305L515.6,302.6L510.1,302.6L510.1,301.6L515.6,301.6L515.6,299.1L514.5,299.1L514.5,298.1L515.6,298.1L515.6,295.7L513.4,295.7L513.4,294.7L515.6,294.7L515.6,292.3L514.5,292.3L514.5,291.2L515.6,291.2L515.6,288.8L512.3,288.8L512.3,287.8L515.6,287.8L515.6,285.4L514.5,285.4L514.5,284.4L515.6,284.4L515.6,283.2L515.6,281.9L513.4,281.9L513.4,280.9L515.6,280.9L515.6,278.5L514.5,278.5L514.5,277.5L515.6,277.5L515.6,265.7L504.4,265.7L504.4,266.8L503.4,266.8L503.4,265.7L501,265.7L501,267.9L500,267.9L500,265.7L498.2,265.7L497.5,265.7L497.5,266.8L496.5,266.8L496.5,265.7L494.1,265.7L494.1,269L493.1,269L493.1,265.7L490.6,265.7L490.6,266.8L489.6,266.8L489.6,265.7L487.2,265.7L487.2,267.9L486.2,267.9L486.2,265.7L483.8,265.7L483.8,266.8L482.7,266.8L482.7,265.7L480.3,265.7L480.3,271.2L479.3,271.2L479.3,265.7L476.9,265.7L476.9,266.8L475.9,266.8L475.9,265.7L473.4,265.7L473.4,267.9L472.4,267.9L472.4,265.7L470,265.7L470,266.8L469,266.8L469,265.7L466.6,265.7L466.6,269L465.5,269L465.5,265.7L463.1,265.7L463.1,266.8L462.1,266.8L462.1,265.7L459.7,265.7L459.7,267.9L458.7,267.9L458.7,265.7L456.2,265.7L456.2,266.8L455.2,266.8L455.2,265.7L452.8,265.7L452.8,274.5L451.8,274.5L451.8,265.7L449.3,265.7L449.3,266.8L448.3,266.8L448.3,265.7L445.9,265.7L445.9,267.9L444.9,267.9L444.9,265.7L442.5,265.7L442.5,266.8L441.5,266.8L441.5,265.7L439,265.7L439,269L438,269L438,265.7L435.6,265.7L435.6,266.8L434.6,266.8L434.6,265.7L432.1,265.7L432.1,267.9L431.1,267.9L431.1,265.7L428.7,265.7L428.7,266.8L427.7,266.8L427.7,265.7L425.3,265.7L425.3,271.2L424.3,271.2L424.3,265.7L421.8,265.7L421.8,266.8L420.8,266.8L420.8,265.7L418.4,265.7L418.4,267.9L417.4,267.9L417.4,265.7L414.9,265.7L414.9,266.8L413.9,266.8L413.9,265.7L411.5,265.7L411.5,269L410.5,269L410.5,265.7L408.1,265.7L408.1,266.8L407.1,266.8L407.1,265.7L404.6,265.7L404.6,267.9L403.6,267.9L403.6,265.7L401.2,265.7L401.2,266.8L400.2,266.8L400.2,265.7L397.2,265.7L397.2,283.2L498.2,283.2Z" class="lines"/>
    </g>
    <g id="yarn">
        <path d="M757.3,178.6C756,178.3 754.8,180.4 756.1,182.2L729,199C727.4,197.3 725.7,195.6 723.8,194.2L740.4,184C740.4,184 740.6,184.5 741.7,185.4C742.8,186.3 745.1,185.3 744.4,183.9C743.7,182.5 740.6,178.2 739.3,177.9C738,177.6 736.8,179.7 738.1,181.5L721,192.1C718.7,190.6 716.2,189.3 713.6,188.2C712.8,187.7 712.1,187.3 711.4,186.9L711.6,187.4C707.3,185.9 702.6,185 697.8,184.8C697.4,184.7 697.1,184.6 696.8,184.5L696.8,184.8C696.3,184.8 695.7,184.8 695.2,184.8C694,184.8 692.8,184.9 691.6,185C691.4,184.9 691.3,184.8 691.1,184.7L691.1,185C690.9,185 690.7,185 690.6,185.1C690.5,185 690.4,184.9 690.3,184.7L690.3,185.1C668.9,187.6 652.4,204.4 652.8,224.5C652.9,227.6 653.3,230.7 654.1,233.6L642.3,240.9C642.3,240.9 638.4,243.8 637.7,244.9C637,246 637.9,246.3 638.6,246C639.3,245.6 643.6,243.6 643.6,243.6L655.1,236.6C655.4,237.4 655.8,238.3 656.2,239.1C656.2,239.1 656.2,239.2 656.1,239.2L656.2,239.2C656.9,240.6 657.6,242 658.4,243.3C657.4,244.2 656.3,245.1 655.9,245.7C655.2,246.8 656.1,247.1 656.8,246.8C657.2,246.6 658.5,246 659.7,245.4C667.5,256.2 681.1,263.3 696.4,263.1C720.2,262.7 739.1,244.9 738.8,223.4C738.8,221.4 738.6,219.4 738.2,217.4C737.9,215.7 737.4,214 736.9,212.4C735.6,208.6 733.7,205.1 731.2,201.9L758.6,185C758.6,185 758.8,185.5 759.9,186.4C761,187.3 763.3,186.3 762.6,184.9C761.7,183.2 758.6,179 757.3,178.6Z" class="fills"/>
        <g>
            <path d="M679.2,232.7C675.6,232.5 673.5,232.3 671,232.5C669.2,232.6 667.2,232.8 665,233.4" class="lines"/>
            <path d="M702.3,232.4C699.6,232.4 694.4,233.1 689.3,233C687.5,233 685.9,232.9 684.4,232.9" class="lines"/>
            <path d="M677.4,237.2C678.8,237.3 680.2,237.4 681.9,237.4C686.5,237.6 694.4,237.6 702.6,236.6" class="lines"/>
            <path d="M649.4,245.9C651.8,243.3 655.8,239.7 661.5,237.8C665.3,236.6 668.5,236.5 672.5,236.8" class="lines"/>
            <path d="M672.7,240.2C675.3,240.5 678.1,240.9 681.5,241.1C686.2,241.4 693.2,241.4 702,239.7" class="lines"/>
            <path d="M650.9,247.9C652.8,245.8 656.1,242.8 660.8,241.1C663.3,240.2 665.6,239.9 668,239.9" class="lines"/>
            <path d="M666.5,244.2C671.3,244 675.7,245.5 681.9,245.9C686.4,246.2 693,246 701.4,243.3" class="lines"/>
            <path d="M662.3,200.4C666.4,198.8 672,197.2 678.8,196.8C682.1,196.6 685.1,196.7 687.7,197" class="lines"/>
            <path d="M658.5,204C662.7,202.5 668.5,200.9 675.4,200.4C681,200 685.8,200.3 689.7,200.8" class="lines"/>
            <path d="M655.1,207.3C660.4,205.8 667.3,204.3 675.4,203.9C682.2,203.6 688.1,204 692.9,204.7" class="lines"/>
            <path d="M653.3,210.1C659.2,208.7 666.3,207.6 674.4,207.1C681.9,206.7 688.6,206.9 694.3,207.5" class="lines"/>
            <path d="M650.7,213.5C657.3,212.2 664.9,211.1 673.2,210.5C681.4,209.9 688.9,210 695.5,210.3" class="lines"/>
            <path d="M648.2,219.9C649.6,220.2 651.6,220.9 653.6,222.1C656.4,223.8 658.2,225.8 659.2,227.1" class="lines"/>
            <path d="M649.8,215.7C650.8,215.7 654.6,215.8 658.1,218.7C661.2,221.3 662.1,224.7 662.3,225.7" class="lines"/>
            <path d="M656.5,213.1C657.5,213.2 660.1,213.7 662.3,215.7C665.9,218.9 665.5,225.4 665.7,224.2" class="lines"/>
            <path d="M664.1,211.5C665.1,212.3 666.4,213.5 667.5,215.3C669.5,218.5 669.9,223 669.9,224.6" class="lines"/>
            <path d="M671.2,211.1C671.9,212 673,213.4 673.6,215.3C674.8,218.7 674.1,221.7 673.8,222.9" class="lines"/>
            <path d="M682.2,192.2L682.2,196.7" class="lines"/>
            <path d="M678.4,192.9L678.8,196.8" class="lines"/>
            <path d="M675.3,194.4L675.3,196.7" class="lines"/>
            <path d="M670.5,195.6L672.7,197.5" class="lines"/>
            <path d="M696.7,245.1C697.2,245.1 698.3,245.2 699.5,245.9C700.4,246.4 700.9,247.1 701.1,247.5" class="lines"/>
            <path d="M690.7,245.9C692.3,246.5 694,247.1 695.7,247.9C697.3,248.6 698.8,249.4 700.1,250.1" class="lines"/>
            <path d="M684.5,246.3C686.5,246.4 690.6,246.9 694.6,249.5C696.6,250.8 698.1,252.3 699,253.5" class="lines"/>
            <path d="M675.6,245.5C679,246.8 683.1,248.7 687.5,251.5C691.3,253.9 694.3,256.5 696.8,258.7" class="lines"/>
            <path d="M669,244.7C673,246.6 677.9,249.4 682.9,253.2C687.6,256.7 691.3,260.3 694.2,263.5" class="lines"/>
            <path d="M662.9,246.2C665.3,247.6 668.3,249.7 671.7,252.4C674.4,254.6 675.9,256 679.8,259.4C682.3,261.6 685.9,264.8 690.5,268.7" class="lines"/>
            <path d="M659.1,258.6C659.3,257.7 660.3,254.3 663.7,252.2C665.8,250.9 667.9,250.6 668.9,250.6" class="lines"/>
            <path d="M655.3,253.8C656.2,252.8 657.5,251.5 659.3,250.4C661.5,249 663.5,248.3 664.9,248" class="lines"/>
            <path d="M662.1,260.8C662.7,259.5 664,257.2 666.5,255.2C668.4,253.7 670.3,253 671.5,252.6" class="lines"/>
            <path d="M666.6,263.6C666.8,262.6 667.6,260.2 669.8,258.2C672,256.1 674.5,255.6 675.4,255.4" class="lines"/>
            <path d="M670.8,265.6C671.1,264.7 671.8,262.9 673.4,261.4C675.6,259.3 678.1,258.7 679,258.6" class="lines"/>
            <path d="M675.8,267.6C675.8,267.1 676.1,265 677.8,263.4C679.3,261.9 681,261.7 681.6,261.6" class="lines"/>
            <path d="M680.2,269.1C681.7,267.4 683.2,265.7 684.6,264.1" class="lines"/>
            <path d="M685.1,269.1C685.9,268.1 686.7,267.1 687.5,266.1" class="lines"/>
            <path d="M696.1,210.4L700.4,207.7C699.6,206.1 698.6,204.4 697.4,202.6C693.3,196.9 688.3,193.6 685,191.8C684.7,191.8 684.3,191.9 684,191.9C685.9,194.2 688.4,197.4 690.9,201.4C692.5,203.9 694.3,206.9 696.1,210.4Z" class="lines"/>
            <path d="M697.6,197.6C698.3,198.3 700.6,200.7 703.2,206L706.9,203.7C705.4,201.3 703.4,198.8 700.4,196.4C697,193.8 693.7,192.4 691.2,191.7C690.5,191.7 689.8,191.7 689,191.7L689.1,191.8C691.3,192.8 694.5,194.6 697.6,197.6Z" class="lines"/>
            <path d="M708.7,202.6L711,201.2C704.9,195.5 697.8,193.1 693.7,192.1C697.5,193.6 703.6,196.8 708.7,202.6Z" class="lines"/>
            <path d="M714.5,199C712.2,197.5 709.7,196.2 707.1,195.1C709.1,196.3 711.2,197.8 713.4,199.7L714.5,199Z" class="lines"/>
            <path d="M703.9,217.4C703.6,216.4 703.3,215.4 703,214.3C702.6,213.1 702.2,211.9 701.7,210.7L697.5,213.3C698.4,215.3 699.2,217.5 699.9,219.9L703.9,217.4Z" class="lines"/>
            <path d="M706.9,215.5L711.4,212.7C710.9,211.2 710.2,209.7 709.5,208.2C709.2,207.6 708.9,207 708.6,206.4L704.6,208.9C705,209.9 705.5,211.1 705.9,212.3C706.1,213.2 706.5,214.3 706.9,215.5Z" class="lines"/>
            <path d="M714.1,211.1L717.3,209.1C716.5,207.6 715.5,206.2 714.3,204.6C714,204.2 713.7,203.8 713.3,203.5L710.7,205.1C711.2,205.8 711.8,206.6 712.3,207.4C713,208.7 713.6,209.9 714.1,211.1Z" class="lines"/>
            <path d="M720.4,207.2L722.5,205.9C720.9,204.2 719.2,202.5 717.3,201.1L715.8,202C716.3,202.5 716.9,203.1 717.4,203.7C718.2,204.4 719.2,205.6 720.4,207.2Z" class="lines"/>
            <g>
                <path d="M675.4,223.1L714.5,198.9C707.2,194.1 698.3,191.4 688.6,191.6C664.8,192 645.9,209.8 646.2,231.3C646.2,232.3 646.3,233.3 646.4,234.3C657.6,226.9 668,224.1 675.4,223.1Z" class="lines"/>
                <path d="M646.8,237.2C647,238.3 647.2,239.4 647.5,240.4L668.5,227.4C662.2,229 654.8,231.9 646.8,237.2Z" class="lines"/>
            </g>
            <g>
                <path d="M694.9,223L722.5,205.9C720.9,204.2 719.2,202.5 717.3,201.1L682.1,222.7C686.4,222.5 690.4,222.8 694.9,223Z" class="lines"/>
                <path d="M681.9,225.9C680.3,225.9 678.5,225.9 676.6,226.1L648.5,243.4C649.4,245.7 650.5,248 651.8,250.1C652.9,249.2 653.9,248.5 653.9,248.5L689.3,226.6C686.8,226.1 684.4,225.9 681.9,225.9Z" class="lines"/>
            </g>
            <g>
                <path d="M668.5,227.4L635.7,247.7C635.7,247.7 631.8,250.6 631.1,251.7C630.4,252.8 631.3,253.1 632,252.8C632.7,252.4 637,250.4 637,250.4L676.6,226.1C674.1,226.3 671.4,226.7 668.5,227.4Z" class="lines"/>
                <path d="M737.8,190.8C737.1,189.4 734,185.1 732.7,184.8C731.4,184.5 730.2,186.6 731.5,188.4L675.4,223.1C676.2,223 676.9,222.9 677.6,222.8C679.2,222.6 680.7,222.6 682.2,222.5L733.9,190.7C733.9,190.7 734.1,191.2 735.2,192.1C736.3,193.2 738.6,192.2 737.8,190.8Z" class="lines"/>
            </g>
            <g>
                <path d="M689.3,226.4L653.9,248.3C653.9,248.3 650,251.2 649.3,252.3C648.6,253.4 649.5,253.7 650.2,253.4C650.9,253.1 655.2,251 655.2,251L694.3,227C692.5,226.8 690.9,226.6 689.3,226.4Z" class="lines"/>
                <path d="M756,191.5C755.3,190.1 752.2,185.8 750.9,185.5C749.6,185.2 748.4,187.3 749.7,189.1L694.9,223C696.7,223.1 698.6,223.1 700.7,223.1L752.1,191.5C752.1,191.5 752.3,192 753.4,192.9C754.4,193.8 756.7,192.9 756,191.5Z" class="lines"/>
            </g>
            <path d="M724.6,208.4L700.6,223.1C705.3,223.1 710.7,222.8 717.2,221.9C722,221.2 725.8,220.4 728.4,219.7L729.8,218.8L731.2,223.9L728.7,224.9C726.5,225.5 723,226.4 718.7,227C708.6,228.5 700.9,227.8 694.2,227L655.1,251C655.1,251 654.1,251.5 653.1,252C660.9,262.8 674.5,269.9 689.8,269.7C713.6,269.3 732.5,251.5 732.2,230C732.1,221.9 729.3,214.5 724.6,208.4Z" class="lines"/>
            <g>
                <path d="M705.2,223C705.1,222.2 704.9,221.4 704.7,220.6L700.7,223.1L700.7,223.2C702.2,223.1 703.7,223.1 705.2,223Z" class="lines"/>
                <path d="M701.7,227.8C702.7,233.6 703.8,245.3 698.1,257.6C695.7,262.9 692.7,266.8 690.5,269.3L690.4,269.7C691.7,269.7 693,269.6 694.3,269.4L694.3,269.1C695.9,267.3 698.1,264.6 700.1,261C705.3,251.8 705.8,243.3 706.1,237.7C706.2,235.6 706.3,232.2 705.8,228C704.5,227.9 703.1,227.9 701.7,227.8Z" class="lines"/>
            </g>
            <path d="M646.6,237.3C661.4,227.5 673.9,225.7 682,225.8C692.3,226 702.2,229.5 718.8,227C723.1,226.3 726.6,225.5 728.8,224.9L731.3,223.9L729.9,218.8L728.5,219.7C725.9,220.3 722,221.2 717.3,221.9C698.7,224.6 689.5,221.8 677.7,222.9C670.1,223.6 658.7,226.2 646.3,234.5L646.6,237.3Z" class="lines"/>
            <path d="M646.6,237.3C661.4,227.5 673.9,225.7 682,225.8C692.3,226 702.2,229.5 718.8,227C723.1,226.3 726.6,225.5 728.8,224.9L731.3,223.9L729.9,218.8L728.5,219.7C725.9,220.3 722,221.2 717.3,221.9C698.7,224.6 689.5,221.8 677.7,222.9C670.1,223.6 658.7,226.2 646.3,234.5L646.6,237.3Z" class="lines"/>
            <g>
                <path d="M713.9,222.3C713.6,220.3 713.1,218.1 712.4,215.9L707.8,218.7C708.1,220 708.5,221.3 708.8,222.8C710.4,222.7 712.1,222.5 713.9,222.3Z" class="lines"/>
                <path d="M714.5,227.6C712.8,227.8 711.2,227.9 709.7,227.9C710.1,231.2 710.3,234.9 710.1,238.9C709.8,244.3 709.4,250.4 705.9,257.4C703.1,262.9 699.4,266.7 696.8,268.9L696.8,269.1C698.3,268.9 699.8,268.5 701.2,268.2C703.2,266.7 706,264.3 708.6,260.6C715.5,250.8 715,239.8 714.6,231.2C714.6,230 714.6,228.8 714.5,227.6Z" class="lines"/>
            </g>
            <g>
                <path d="M717.5,221.8C719.1,221.6 720.6,221.3 722,221C721.4,219.2 720.9,217.7 720.4,216.5C719.8,215 719.3,213.5 718.6,212L715.2,214.1C715.6,215.4 716,216.6 716.4,217.9C716.8,219 717.2,220.3 717.5,221.8Z" class="lines"/>
                <path d="M718.8,227L718.7,227C719.8,233.4 720,241.7 716.7,250.5C715.4,254 712.5,260.2 706.9,265.9C706.9,265.9 706.9,266 706.9,266.1C709.1,265.2 711.2,264.1 713.1,262.9L713,262.8C717.7,258.5 720.2,254.3 721.5,251.5C725.7,242.4 725.1,233.2 723.5,226.1C722.1,226.5 720.5,226.8 718.8,227Z" class="lines"/>
            </g>
            <path d="M724.6,208.4L722.2,209.9C723,211.2 723.9,212.6 724.7,214.2C725.4,215.5 726.4,217.5 727.3,220.1C727.7,220 728.1,219.9 728.4,219.8L729.8,218.9L731.2,224L728.8,224.9C729.1,226.2 729.4,227.6 729.5,229.1C730.7,240.4 725.8,249.5 723.5,253.3L724,253.6C729.3,247 732.3,238.8 732.2,230.1C732.1,221.9 729.3,214.5 724.6,208.4Z" class="lines"/>
        </g>
    </g>
    <g id="chhip">
        <path d="M850.5,201L850.5,199.7L845.9,199.7L845.9,199.2L845.3,199.2L845.3,194.6L844.1,194.6L844.1,199.2L841.1,199.2L841.1,194.6L839.9,194.6L839.9,199.2L836.9,199.2L836.9,194.6L835.6,194.6L835.6,199.2L832.7,199.2L832.7,194.6L831.4,194.6L831.4,199.2L828.4,199.2L828.4,194.6L827.2,194.6L827.2,199.2L824.2,199.2L824.2,194.6L823,194.6L823,199.2L820,199.2L820,194.6L818.7,194.6L818.7,199.2L815.8,199.2L815.8,194.6L814.5,194.6L814.5,199.2L811.6,199.2L811.6,194.6L810.3,194.6L810.3,199.2L807.3,199.2L807.3,194.6L806.1,194.6L806.1,199.2L803.1,199.2L803.1,194.6L801.9,194.6L801.9,199.2L801.3,199.2L801.3,199.7L796.7,199.7L796.7,201L801.3,201L801.3,204L796.7,204L796.7,205.2L801.3,205.2L801.3,208.2L796.7,208.2L796.7,209.4L801.3,209.4L801.3,212.4L796.7,212.4L796.7,213.7L801.3,213.7L801.3,216.6L796.7,216.6L796.7,217.9L801.3,217.9L801.3,220.9L796.7,220.9L796.7,222.1L801.3,222.1L801.3,225.1L796.7,225.1L796.7,226.3L801.3,226.3L801.3,229.3L796.7,229.3L796.7,230.5L801.3,230.5L801.3,233.5L796.7,233.5L796.7,234.8L801.3,234.8L801.3,237.7L796.7,237.7L796.7,239L801.3,239L801.3,242L796.7,242L796.7,243.2L801.3,243.2L801.3,243.8L801.9,243.8L801.9,248.4L803.1,248.4L803.1,243.8L806.1,243.8L806.1,248.4L807.3,248.4L807.3,243.8L810.3,243.8L810.3,248.4L811.6,248.4L811.6,243.8L814.5,243.8L814.5,248.4L815.8,248.4L815.8,243.8L818.7,243.8L818.7,248.4L820,248.4L820,243.8L823,243.8L823,248.4L824.2,248.4L824.2,243.8L827.2,243.8L827.2,248.4L828.4,248.4L828.4,243.8L831.4,243.8L831.4,248.4L832.7,248.4L832.7,243.8L835.6,243.8L835.6,248.4L836.9,248.4L836.9,243.8L839.9,243.8L839.9,248.4L841.1,248.4L841.1,243.8L844.1,243.8L844.1,248.4L845.3,248.4L845.3,243.8L845.9,243.8L845.9,243.2L850.5,243.2L850.5,242L845.9,242L845.9,239L850.5,239L850.5,237.7L845.9,237.7L845.9,234.8L850.5,234.8L850.5,233.5L845.9,233.5L845.9,230.5L850.5,230.5L850.5,229.3L845.9,229.3L845.9,226.3L850.5,226.3L850.5,225.1L845.9,225.1L845.9,222.1L850.5,222.1L850.5,220.9L845.9,220.9L845.9,217.9L850.5,217.9L850.5,216.6L845.9,216.6L845.9,213.7L850.5,213.7L850.5,212.4L845.9,212.4L845.9,209.4L850.5,209.4L850.5,208.2L845.9,208.2L845.9,205.2L850.5,205.2L850.5,204L845.9,204L845.9,201L850.5,201Z" class="fills"/>
        <path d="M843.6,207.9L843.6,206.6L839,206.6L839,206.1L838.4,206.1L838.4,201.5L837.2,201.5L837.2,206.1L834.2,206.1L834.2,201.5L833,201.5L833,206.1L830,206.1L830,201.5L828.7,201.5L828.7,206.1L825.8,206.1L825.8,201.5L824.5,201.5L824.5,206.1L821.5,206.1L821.5,201.5L820.3,201.5L820.3,206.1L817.3,206.1L817.3,201.5L816.1,201.5L816.1,206.1L813.1,206.1L813.1,201.5L811.8,201.5L811.8,206.1L808.9,206.1L808.9,201.5L807.6,201.5L807.6,206.1L804.7,206.1L804.7,201.5L803.4,201.5L803.4,206.1L800.4,206.1L800.4,201.5L799.2,201.5L799.2,206.1L796.2,206.1L796.2,201.5L795,201.5L795,206.1L794.4,206.1L794.4,206.6L789.8,206.6L789.8,207.9L794.4,207.9L794.4,210.9L789.8,210.9L789.8,212.1L794.4,212.1L794.4,215.1L789.8,215.1L789.8,216.3L794.4,216.3L794.4,219.3L789.8,219.3L789.8,220.6L794.4,220.6L794.4,223.5L789.8,223.5L789.8,224.8L794.4,224.8L794.4,227.8L789.8,227.8L789.8,229L794.4,229L794.4,232L789.8,232L789.8,233.2L794.4,233.2L794.4,236.2L789.8,236.2L789.8,237.4L794.4,237.4L794.4,240.4L789.8,240.4L789.8,241.7L794.4,241.7L794.4,244.6L789.8,244.6L789.8,245.9L794.4,245.9L794.4,248.9L789.8,248.9L789.8,250.1L794.4,250.1L794.4,250.7L795,250.7L795,255.3L796.2,255.3L796.2,250.7L799.2,250.7L799.2,255.3L800.4,255.3L800.4,250.7L803.4,250.7L803.4,255.3L804.7,255.3L804.7,250.7L807.6,250.7L807.6,255.3L808.9,255.3L808.9,250.7L811.8,250.7L811.8,255.3L813.1,255.3L813.1,250.7L816.1,250.7L816.1,255.3L817.3,255.3L817.3,250.7L820.3,250.7L820.3,255.3L821.5,255.3L821.5,250.7L824.5,250.7L824.5,255.3L825.8,255.3L825.8,250.7L828.7,250.7L828.7,255.3L830,255.3L830,250.7L833,250.7L833,255.3L834.2,255.3L834.2,250.7L837.2,250.7L837.2,255.3L838.4,255.3L838.4,250.7L839,250.7L839,250.1L843.6,250.1L843.6,248.9L839,248.9L839,245.9L843.6,245.9L843.6,244.6L839,244.6L839,241.7L843.6,241.7L843.6,240.4L839,240.4L839,237.4L843.6,237.4L843.6,236.2L839,236.2L839,233.2L843.6,233.2L843.6,232L839,232L839,229L843.6,229L843.6,227.8L839,227.8L839,224.8L843.6,224.8L843.6,223.5L839,223.5L839,220.6L843.6,220.6L843.6,219.3L839,219.3L839,216.3L843.6,216.3L843.6,215.1L839,215.1L839,212.1L843.6,212.1L843.6,210.9L839,210.9L839,207.9L843.6,207.9Z" class="lines"/>
    </g>
   </g>
</svg>
