<?xml version="1.0" encoding="utf-8"?>
<!-- Generator: Adobe Illustrator 22.1.0, SVG Export Plug-In . SVG Version: 6.00 Build 0)  -->
<svg version="1.1" id="header-flare" xmlns="http://www.w3.org/2000/svg" xmlns:xlink="http://www.w3.org/1999/xlink" x="0px"
	 y="0px" viewBox="0 0 683 35" style="enable-background:new 0 0 683 35;" xml:space="preserve">
<style type="text/css">
	.st0{fill:none;stroke:#E42637;}
</style>
<path class="st0" d="M5.3,14h649.4l7.6-7.6h10.1"/>
<path class="st0" d="M5.3,21h649.4l7.6,7.6h5.4"/>
<path class="st0" d="M5.3,17.4h658.8"/>
<path class="st0" d="M674.9,9c1.4,0,2.6-1.1,2.6-2.6s-1.1-2.6-2.6-2.6c-1.4,0-2.6,1.1-2.6,2.6S673.5,9,674.9,9"/>
<path class="st0" d="M670.2,31.1c1.4,0,2.6-1.1,2.6-2.6s-1.1-2.6-2.6-2.6c-1.4,0-2.6,1.1-2.6,2.6S668.8,31.1,670.2,31.1"/>
<path class="st0" d="M666.7,20c1.4,0,2.6-1.1,2.6-2.6c0-1.4-1.1-2.6-2.6-2.6c-1.4,0-2.6,1.1-2.6,2.6C664.1,18.9,665.3,20,666.7,20"
	/>
</svg>
