<svg width="100%" height="100%" viewBox="0 0 100 100" version="1.1" xmlns="http://www.w3.org/2000/svg" xmlns:xlink="http://www.w3.org/1999/xlink" xml:space="preserve" style="fill-rule:evenodd;clip-rule:evenodd;stroke-miterlimit:1.41421;">
    <g id="circuit_board" transform="matrix(6.12323e-17,1,-1,6.12323e-17,58.2,0.3)">
	    <g transform="matrix(1,0,0,1,2.85,-24.05)">

            <path d="M51.7,39.4L51.7,33.7C51.7,33.3 52,33 52.4,33L74.2,33C74.6,33 74.9,33.3 74.9,33.7L74.9,39.4C74.9,39.8 74.6,40.1 74.2,40.1L52.5,40.1C52.1,40.1 51.7,39.8 51.7,39.4Z"/>

            <path d="M51.7,48L51.7,42.3C51.7,41.9 52,41.6 52.4,41.6L74.2,41.6C74.6,41.6 74.9,41.9 74.9,42.3L74.9,48C74.9,48.4 74.6,48.7 74.2,48.7L52.5,48.7C52.1,48.7 51.7,48.4 51.7,48Z"/>

            <circle cx="55.8" cy="17.2" r="6.2"/>
            <circle cx="70.9" cy="17.2" r="6.2"/>

            <circle cx="81.1" cy="52.4" r="2.4"/>

            <circle cx="81.1" cy="11" r="2.4"/>

            <circle cx="6.3" cy="52.4" r="2.4"/>

            <circle cx="6.3" cy="11" r="2.4"/>

            <path d="M8.5,15.9L0.7,15.9C0.6,15.9 0.5,16 0.5,16.1L0.5,46.2C0.5,46.3 0.6,46.4 0.7,46.4L8.6,46.4C8.7,46.4 8.8,46.3 8.8,46.2L8.8,16.1C8.7,16 8.6,15.9 8.5,15.9ZM4.6,44.8C3.7,44.8 2.9,44.1 2.9,43.1C2.9,42.2 3.6,41.4 4.6,41.4C5.6,41.4 6.3,42.1 6.3,43.1C6.3,44.1 5.5,44.8 4.6,44.8ZM4.6,40.8C3.7,40.8 2.9,40.1 2.9,39.1C2.9,38.2 3.6,37.4 4.6,37.4C5.6,37.4 6.3,38.1 6.3,39.1C6.3,40 5.5,40.8 4.6,40.8ZM4.6,36.8C3.7,36.8 2.9,36.1 2.9,35.1C2.9,34.2 3.6,33.4 4.6,33.4C5.6,33.4 6.3,34.1 6.3,35.1C6.3,36 5.5,36.8 4.6,36.8ZM4.6,32.8C3.7,32.8 2.9,32.1 2.9,31.1C2.9,30.2 3.6,29.4 4.6,29.4C5.6,29.4 6.3,30.1 6.3,31.1C6.3,32 5.5,32.8 4.6,32.8ZM4.6,28.8C3.7,28.8 2.9,28.1 2.9,27.1C2.9,26.1 3.6,25.4 4.6,25.4C5.6,25.4 6.3,26.1 6.3,27.1C6.3,28.1 5.5,28.8 4.6,28.8ZM4.6,24.7C3.7,24.7 2.9,24 2.9,23C2.9,22.1 3.6,21.3 4.6,21.3C5.6,21.3 6.3,22 6.3,23C6.3,24 5.5,24.7 4.6,24.7ZM4.6,20.7C3.7,20.7 2.9,20 2.9,19C2.9,18 3.6,17.3 4.6,17.3C5.6,17.3 6.3,18 6.3,19C6.3,20 5.5,20.7 4.6,20.7Z"/>

            <path d="M88.2,18.3L86.4,18.3C86,18.3 85.7,18 85.7,17.6L85.7,11.2C85.7,10.8 86,10.5 86.4,10.5L88.2,10.5C88.6,10.5 88.9,10.8 88.9,11.2L88.9,17.6C89,18 88.6,18.3 88.2,18.3Z"/>
            <path d="M92.8,12.8L91,12.8L91,10.6C91,10.5 90.9,10.4 90.8,10.4L89,10.4C88.9,10.4 88.8,10.5 88.8,10.6L88.8,18.1C88.8,18.2 88.9,18.3 89,18.3L90.8,18.3C90.9,18.3 91,18.2 91,18.1L91,15.9L92.8,15.9C92.9,15.9 93,15.8 93,15.7L93,13C93,12.9 92.9,12.8 92.8,12.8Z"/>
            <circle cx="90.3" cy="14.4" r="0.8"/>
            <path d="M88.2,28.7L86.4,28.7C86,28.7 85.7,28.4 85.7,28L85.7,21.6C85.7,21.2 86,20.9 86.4,20.9L88.2,20.9C88.6,20.9 88.9,21.2 88.9,21.6L88.9,28C89,28.4 88.6,28.7 88.2,28.7Z"/>
            <path d="M92.8,23.2L91,23.2L91,21C91,20.9 90.9,20.8 90.8,20.8L89,20.8L89,28.5C89,28.6 89.1,28.7 89.2,28.7L91,28.7C91.1,28.7 91.2,28.6 91.2,28.5L91.2,26.3L93,26.3C93.1,26.3 93.2,26.2 93.2,26.1L93.2,23.3C93,23.3 92.9,23.2 92.8,23.2Z"/>
            <circle cx="90.3" cy="24.8" r="0.8"/>

            <path d="M88.2,42.8L86.4,42.8C86,42.8 85.7,42.5 85.7,42.1L85.7,35.7C85.7,35.3 86,35 86.4,35L88.2,35C88.6,35 88.9,35.3 88.9,35.7L88.9,42.1C89,42.5 88.6,42.8 88.2,42.8Z"/>
            <path d="M92.8,37.4L91,37.4L91,35.2C91,35.1 90.9,35 90.8,35L89,35L89,42.6C89,42.7 89.1,42.8 89.2,42.8L91,42.8C91.1,42.8 91.2,42.7 91.2,42.6L91.2,40.4L93,40.4C93.1,40.4 93.2,40.3 93.2,40.2L93.2,37.4C93,37.4 92.9,37.4 92.8,37.4Z"/>
            <circle cx="90.3" cy="38.9" r="0.8"/>
            <path d="M88.2,53.2L86.4,53.2C86,53.2 85.7,52.9 85.7,52.5L85.7,46.1C85.7,45.7 86,45.4 86.4,45.4L88.2,45.4C88.6,45.4 88.9,45.7 88.9,46.1L88.9,52.5C89,52.9 88.6,53.2 88.2,53.2Z"/>
            <path d="M92.8,47.7L91,47.7L91,45.5C91,45.4 90.9,45.3 90.8,45.3L89,45.3C88.9,45.3 88.8,45.4 88.8,45.5L88.8,53C88.8,53.1 88.9,53.2 89,53.2L90.8,53.2C90.9,53.2 91,53.1 91,53L91,50.8L92.8,50.8C92.9,50.8 93,50.7 93,50.6L93,47.8C93,47.8 92.9,47.7 92.8,47.7Z"/>
            <circle cx="90.3" cy="49.3" r="0.8"/>

            <circle cx="77.6" cy="28" r="1.9"/>
            <circle cx="77.6" cy="28" r="1.1"/>

            <circle cx="63.3" cy="26.3" r="2.5"/>

            <circle cx="48.7" cy="28" r="1.9"/>
            <circle cx="48.7" cy="28" r="1.1"/>

            <circle cx="30.4" cy="12.3" r="1.9"/>

            <circle cx="28.1" cy="50" r="0.7"/>
            <circle cx="28.1" cy="52.7" r="1.3"/>
            <circle cx="32.6" cy="52.7" r="1.3"/>
            <circle cx="32.6" cy="50" r="0.7"/>

            <circle cx="18" cy="36.1" r="1.9"/>
            <path d="M22.8,38.7L22,38.7C21.6,38.7 21.3,38.4 21.3,38L21.3,34.3C21.3,33.9 21.6,33.6 22,33.6L22.8,33.6C23.2,33.6 23.5,33.9 23.5,34.3L23.5,38C23.6,38.4 23.2,38.7 22.8,38.7Z"/>

            <circle cx="18" cy="43.2" r="1.9"/>
            <path d="M22.8,45.8L22,45.8C21.6,45.8 21.3,45.5 21.3,45.1L21.3,41.4C21.3,41 21.6,40.7 22,40.7L22.8,40.7C23.2,40.7 23.5,41 23.5,41.4L23.5,45.1C23.6,45.5 23.2,45.8 22.8,45.8Z"/>

            <circle cx="18" cy="50.2" r="1.9"/>
            <path d="M22.8,52.8L22,52.8C21.6,52.8 21.3,52.5 21.3,52.1L21.3,48.4C21.3,48 21.6,47.7 22,47.7L22.8,47.7C23.2,47.7 23.5,48 23.5,48.4L23.5,52.1C23.6,52.5 23.2,52.8 22.8,52.8Z"/>

            <path d="M27.8,28.1L27.8,27.3C27.8,26.9 28.1,26.6 28.5,26.6L32.2,26.6C32.6,26.6 32.9,26.9 32.9,27.3L32.9,28.1C32.9,28.5 32.6,28.8 32.2,28.8L28.5,28.8C28.1,28.8 27.8,28.5 27.8,28.1Z"/>

            <path d="M28.8,23.8L28.8,18.2C28.8,17.3 29.5,16.6 30.4,16.6C31.3,16.6 32,17.3 32,18.2L32,23.8C32,24.7 31.3,25.4 30.4,25.4C29.5,25.4 28.8,24.6 28.8,23.8Z"/>

            <path d="M22.8,20.5L18.9,20.5C18.5,20.5 18.2,20.2 18.2,19.8L18.2,9.4C18.2,9 18.5,8.7 18.9,8.7L22.8,8.7C23.2,8.7 23.5,9 23.5,9.4L23.5,19.7C23.6,20.1 23.2,20.5 22.8,20.5Z"/>
            <path d="M16.7,9.8C17,9.8 17.3,9.5 17.3,9.2C17.3,8.9 17,8.6 16.7,8.6C16.4,8.6 16.1,8.9 16.1,9.2C16.1,9.6 16.4,9.8 16.7,9.8Z"/>
            <path d="M16.7,11.3C17,11.3 17.3,11 17.3,10.7C17.3,10.4 17,10.1 16.7,10.1C16.4,10.1 16.1,10.4 16.1,10.7C16.1,11.1 16.4,11.3 16.7,11.3Z"/>
            <path d="M16.7,12.9C17,12.9 17.3,12.6 17.3,12.3C17.3,12 17,11.7 16.7,11.7C16.4,11.7 16.1,12 16.1,12.3C16.1,12.6 16.4,12.9 16.7,12.9Z"/>
            <path d="M16.7,14.4C17,14.4 17.3,14.1 17.3,13.8C17.3,13.5 17,13.2 16.7,13.2C16.4,13.2 16.1,13.5 16.1,13.8C16.1,14.1 16.4,14.4 16.7,14.4Z"/>
            <path d="M16.7,15.9C17,15.9 17.3,15.6 17.3,15.3C17.3,15 17,14.7 16.7,14.7C16.4,14.7 16.1,15 16.1,15.3C16.1,15.6 16.4,15.9 16.7,15.9Z"/>
            <path d="M16.7,17.4C17,17.4 17.3,17.1 17.3,16.8C17.3,16.5 17,16.2 16.7,16.2C16.4,16.2 16.1,16.5 16.1,16.8C16.1,17.2 16.4,17.4 16.7,17.4Z"/>
            <path d="M16.7,18.9C17,18.9 17.3,18.6 17.3,18.3C17.3,18 17,17.7 16.7,17.7C16.4,17.7 16.1,18 16.1,18.3C16.1,18.7 16.4,18.9 16.7,18.9Z"/>
            <path d="M16.7,20.5C17,20.5 17.3,20.2 17.3,19.9C17.3,19.6 17,19.3 16.7,19.3C16.4,19.3 16.1,19.6 16.1,19.9C16.1,20.2 16.4,20.5 16.7,20.5Z"/>
            <path d="M24.8,9.8C25.1,9.8 25.4,9.5 25.4,9.2C25.4,8.9 25.1,8.6 24.8,8.6C24.5,8.6 24.2,8.9 24.2,9.2C24.2,9.6 24.5,9.8 24.8,9.8Z"/>
            <path d="M24.8,11.3C25.1,11.3 25.4,11 25.4,10.7C25.4,10.4 25.1,10.1 24.8,10.1C24.5,10.1 24.2,10.4 24.2,10.7C24.2,11.1 24.5,11.3 24.8,11.3Z"/>
            <path d="M24.8,12.9C25.1,12.9 25.4,12.6 25.4,12.3C25.4,12 25.1,11.7 24.8,11.7C24.5,11.7 24.2,12 24.2,12.3C24.2,12.6 24.5,12.9 24.8,12.9Z"/>
            <path d="M24.8,14.4C25.1,14.4 25.4,14.1 25.4,13.8C25.4,13.5 25.1,13.2 24.8,13.2C24.5,13.2 24.2,13.5 24.2,13.8C24.2,14.1 24.5,14.4 24.8,14.4Z"/>
            <path d="M24.8,15.9C25.1,15.9 25.4,15.6 25.4,15.3C25.4,15 25.1,14.7 24.8,14.7C24.5,14.7 24.2,15 24.2,15.3C24.2,15.6 24.5,15.9 24.8,15.9Z"/>
            <path d="M24.8,17.4C25.1,17.4 25.4,17.1 25.4,16.8C25.4,16.5 25.1,16.2 24.8,16.2C24.5,16.2 24.2,16.5 24.2,16.8C24.2,17.2 24.5,17.4 24.8,17.4Z"/>
            <path d="M24.8,18.9C25.1,18.9 25.4,18.6 25.4,18.3C25.4,18 25.1,17.7 24.8,17.7C24.5,17.7 24.2,18 24.2,18.3C24.2,18.7 24.5,18.9 24.8,18.9Z"/>
            <path d="M24.8,20.5C25.1,20.5 25.4,20.2 25.4,19.9C25.4,19.6 25.1,19.3 24.8,19.3C24.5,19.3 24.2,19.6 24.2,19.9C24.2,20.2 24.5,20.5 24.8,20.5Z"/>

            <path d="M22.8,29.8L18.9,29.8C18.5,29.8 18.2,29.5 18.2,29.1L18.2,23.3C18.2,22.9 18.5,22.6 18.9,22.6L22.8,22.6C23.2,22.6 23.5,22.9 23.5,23.3L23.5,29C23.6,29.4 23.2,29.8 22.8,29.8Z"/>
            <path d="M16.7,23.7C17,23.7 17.3,23.4 17.3,23.1C17.3,22.8 17,22.5 16.7,22.5C16.4,22.5 16.1,22.8 16.1,23.1C16.1,23.4 16.4,23.7 16.7,23.7Z"/>
            <path d="M16.7,25.2C17,25.2 17.3,24.9 17.3,24.6C17.3,24.3 17,24 16.7,24C16.4,24 16.1,24.3 16.1,24.6C16.1,24.9 16.4,25.2 16.7,25.2Z"/>
            <path d="M16.7,26.7C17,26.7 17.3,26.4 17.3,26.1C17.3,25.8 17,25.5 16.7,25.5C16.4,25.5 16.1,25.8 16.1,26.1C16.1,26.5 16.4,26.7 16.7,26.7Z"/>
            <path d="M16.7,28.2C17,28.2 17.3,27.9 17.3,27.6C17.3,27.3 17,27 16.7,27C16.4,27 16.1,27.3 16.1,27.6C16.1,28 16.4,28.2 16.7,28.2Z"/>
            <path d="M16.7,29.8C17,29.8 17.3,29.5 17.3,29.2C17.3,28.9 17,28.6 16.7,28.6C16.4,28.6 16.1,28.9 16.1,29.2C16.1,29.5 16.4,29.8 16.7,29.8Z"/>
            <path d="M24.8,23.7C25.1,23.7 25.4,23.4 25.4,23.1C25.4,22.8 25.1,22.5 24.8,22.5C24.5,22.5 24.2,22.8 24.2,23.1C24.2,23.4 24.5,23.7 24.8,23.7Z"/>
            <path d="M24.8,25.2C25.1,25.2 25.4,24.9 25.4,24.6C25.4,24.3 25.1,24 24.8,24C24.5,24 24.2,24.3 24.2,24.6C24.2,24.9 24.5,25.2 24.8,25.2Z"/>
            <path d="M24.8,26.7C25.1,26.7 25.4,26.4 25.4,26.1C25.4,25.8 25.1,25.5 24.8,25.5C24.5,25.5 24.2,25.8 24.2,26.1C24.2,26.5 24.5,26.7 24.8,26.7Z"/>
            <path d="M24.8,28.2C25.1,28.2 25.4,27.9 25.4,27.6C25.4,27.3 25.1,27 24.8,27C24.5,27 24.2,27.3 24.2,27.6C24.2,28 24.5,28.2 24.8,28.2Z"/>
            <path d="M24.8,29.8C25.1,29.8 25.4,29.5 25.4,29.2C25.4,28.9 25.1,28.6 24.8,28.6C24.5,28.6 24.2,28.9 24.2,29.2C24.2,29.5 24.5,29.8 24.8,29.8Z"/>

            <path d="M43.6,29.7L39.7,29.7C39.3,29.7 39,29.4 39,29L39,9.6C39,9.2 39.3,8.9 39.7,8.9L43.6,8.9C44,8.9 44.3,9.2 44.3,9.6L44.3,29C44.4,29.4 44,29.7 43.6,29.7Z"/>
            <path d="M37.5,23.7C37.8,23.7 38.1,23.4 38.1,23.1C38.1,22.8 37.8,22.5 37.5,22.5C37.2,22.5 36.9,22.8 36.9,23.1C37,23.4 37.2,23.7 37.5,23.7Z"/>
            <path d="M37.5,25.2C37.8,25.2 38.1,24.9 38.1,24.6C38.1,24.3 37.8,24 37.5,24C37.2,24 36.9,24.3 36.9,24.6C37,24.9 37.2,25.2 37.5,25.2Z"/>
            <path d="M37.5,26.7C37.8,26.7 38.1,26.4 38.1,26.1C38.1,25.8 37.8,25.5 37.5,25.5C37.2,25.5 36.9,25.8 36.9,26.1C37,26.5 37.2,26.7 37.5,26.7Z"/>
            <path d="M37.5,28.2C37.8,28.2 38.1,27.9 38.1,27.6C38.1,27.3 37.8,27 37.5,27C37.2,27 36.9,27.3 36.9,27.6C37,28 37.2,28.2 37.5,28.2Z"/>
            <path d="M37.5,29.8C37.8,29.8 38.1,29.5 38.1,29.2C38.1,28.9 37.8,28.6 37.5,28.6C37.2,28.6 36.9,28.9 36.9,29.2C37,29.5 37.2,29.8 37.5,29.8Z"/>
            <path d="M45.6,23.7C45.9,23.7 46.2,23.4 46.2,23.1C46.2,22.8 45.9,22.5 45.6,22.5C45.3,22.5 45,22.8 45,23.1C45,23.4 45.3,23.7 45.6,23.7Z"/>
            <path d="M37.5,22.2C37.8,22.2 38.1,21.9 38.1,21.6C38.1,21.3 37.8,21 37.5,21C37.2,21 36.9,21.3 36.9,21.6C37,21.9 37.2,22.2 37.5,22.2Z"/>
            <path d="M45.6,22.2C45.9,22.2 46.2,21.9 46.2,21.6C46.2,21.3 45.9,21 45.6,21C45.3,21 45,21.3 45,21.6C45,21.9 45.3,22.2 45.6,22.2Z"/>
            <path d="M37.5,20.6C37.8,20.6 38.1,20.3 38.1,20C38.1,19.7 37.8,19.4 37.5,19.4C37.2,19.4 36.9,19.7 36.9,20C37,20.4 37.2,20.6 37.5,20.6Z"/>
            <path d="M45.6,20.6C45.9,20.6 46.2,20.3 46.2,20C46.2,19.7 45.9,19.4 45.6,19.4C45.3,19.4 45,19.7 45,20C45,20.4 45.3,20.6 45.6,20.6Z"/>
            <path d="M37.5,19.1C37.8,19.1 38.1,18.8 38.1,18.5C38.1,18.2 37.8,17.9 37.5,17.9C37.2,17.9 36.9,18.2 36.9,18.5C37,18.9 37.2,19.1 37.5,19.1Z"/>
            <path d="M45.6,19.1C45.9,19.1 46.2,18.8 46.2,18.5C46.2,18.2 45.9,17.9 45.6,17.9C45.3,17.9 45,18.2 45,18.5C45,18.9 45.3,19.1 45.6,19.1Z"/>
            <path d="M37.5,17.6C37.8,17.6 38.1,17.3 38.1,17C38.1,16.7 37.8,16.4 37.5,16.4C37.2,16.4 36.9,16.7 36.9,17C37,17.3 37.2,17.6 37.5,17.6Z"/>
            <path d="M45.6,17.6C45.9,17.6 46.2,17.3 46.2,17C46.2,16.7 45.9,16.4 45.6,16.4C45.3,16.4 45,16.7 45,17C45,17.3 45.3,17.6 45.6,17.6Z"/>
            <path d="M37.5,16.1C37.8,16.1 38.1,15.8 38.1,15.5C38.1,15.2 37.8,14.9 37.5,14.9C37.2,14.9 36.9,15.2 36.9,15.5C37,15.8 37.2,16.1 37.5,16.1Z"/>
            <path d="M45.6,16.1C45.9,16.1 46.2,15.8 46.2,15.5C46.2,15.2 45.9,14.9 45.6,14.9C45.3,14.9 45,15.2 45,15.5C45,15.8 45.3,16.1 45.6,16.1Z"/>
            <path d="M37.5,14.6C37.8,14.6 38.1,14.3 38.1,14C38.1,13.7 37.8,13.4 37.5,13.4C37.2,13.4 36.9,13.7 36.9,14C37,14.3 37.2,14.6 37.5,14.6Z"/>
            <path d="M45.6,14.6C45.9,14.6 46.2,14.3 46.2,14C46.2,13.7 45.9,13.4 45.6,13.4C45.3,13.4 45,13.7 45,14C45,14.3 45.3,14.6 45.6,14.6Z"/>
            <path d="M37.5,13C37.8,13 38.1,12.7 38.1,12.4C38.1,12.1 37.8,11.8 37.5,11.8C37.2,11.8 36.9,12.1 36.9,12.4C37,12.8 37.2,13 37.5,13Z"/>
            <path d="M45.6,13C45.9,13 46.2,12.7 46.2,12.4C46.2,12.1 45.9,11.8 45.6,11.8C45.3,11.8 45,12.1 45,12.4C45,12.8 45.3,13 45.6,13Z"/>
            <path d="M37.5,11.5C37.8,11.5 38.1,11.2 38.1,10.9C38.1,10.6 37.8,10.3 37.5,10.3C37.2,10.3 36.9,10.6 36.9,10.9C37,11.3 37.2,11.5 37.5,11.5Z"/>
            <path d="M45.6,11.5C45.9,11.5 46.2,11.2 46.2,10.9C46.2,10.6 45.9,10.3 45.6,10.3C45.3,10.3 45,10.6 45,10.9C45,11.3 45.3,11.5 45.6,11.5Z"/>
            <path d="M37.5,10C37.8,10 38.1,9.7 38.1,9.4C38.1,9.1 37.8,8.8 37.5,8.8C37.2,8.8 36.9,9.1 36.9,9.4C37,9.7 37.2,10 37.5,10Z"/>
            <path d="M45.6,10C45.9,10 46.2,9.7 46.2,9.4C46.2,9.1 45.9,8.8 45.6,8.8C45.3,8.8 45,9.1 45,9.4C45,9.7 45.3,10 45.6,10Z"/>
            <path d="M45.6,25.2C45.9,25.2 46.2,24.9 46.2,24.6C46.2,24.3 45.9,24 45.6,24C45.3,24 45,24.3 45,24.6C45,24.9 45.3,25.2 45.6,25.2Z"/>
            <path d="M45.6,26.7C45.9,26.7 46.2,26.4 46.2,26.1C46.2,25.8 45.9,25.5 45.6,25.5C45.3,25.5 45,25.8 45,26.1C45,26.5 45.3,26.7 45.6,26.7Z"/>
            <path d="M45.6,28.2C45.9,28.2 46.2,27.9 46.2,27.6C46.2,27.3 45.9,27 45.6,27C45.3,27 45,27.3 45,27.6C45,28 45.3,28.2 45.6,28.2Z"/>
            <path d="M45.6,29.8C45.9,29.8 46.2,29.5 46.2,29.2C46.2,28.9 45.9,28.6 45.6,28.6C45.3,28.6 45,28.9 45,29.2C45,29.5 45.3,29.8 45.6,29.8Z"/>

            <path d="M32.4,38.1L28.5,38.1C28.1,38.1 27.8,37.8 27.8,37.4L27.8,31.6C27.8,31.2 28.1,30.9 28.5,30.9L32.4,30.9C32.8,30.9 33.1,31.2 33.1,31.6L33.1,37.4C33.2,37.8 32.8,38.1 32.4,38.1Z"/>
            <path d="M26.3,32.1C26.6,32.1 26.9,31.8 26.9,31.5C26.9,31.2 26.6,30.9 26.3,30.9C26,30.9 25.7,31.2 25.7,31.5C25.8,31.8 26,32.1 26.3,32.1Z"/>
            <path d="M26.3,33.6C26.6,33.6 26.9,33.3 26.9,33C26.9,32.7 26.6,32.4 26.3,32.4C26,32.4 25.7,32.7 25.7,33C25.8,33.3 26,33.6 26.3,33.6Z"/>
            <path d="M26.3,35.1C26.6,35.1 26.9,34.8 26.9,34.5C26.9,34.2 26.6,33.9 26.3,33.9C26,33.9 25.7,34.2 25.7,34.5C25.8,34.8 26,35.1 26.3,35.1Z"/>
            <path d="M26.3,36.6C26.6,36.6 26.9,36.3 26.9,36C26.9,35.7 26.6,35.4 26.3,35.4C26,35.4 25.7,35.7 25.7,36C25.8,36.4 26,36.6 26.3,36.6Z"/>
            <path d="M26.3,38.1C26.6,38.1 26.9,37.8 26.9,37.5C26.9,37.2 26.6,36.9 26.3,36.9C26,36.9 25.7,37.2 25.7,37.5C25.8,37.9 26,38.1 26.3,38.1Z"/>
            <path d="M34.4,32.1C34.7,32.1 35,31.8 35,31.5C35,31.2 34.7,30.9 34.4,30.9C34.1,30.9 33.8,31.2 33.8,31.5C33.8,31.8 34.1,32.1 34.4,32.1Z"/>
            <path d="M34.4,33.6C34.7,33.6 35,33.3 35,33C35,32.7 34.7,32.4 34.4,32.4C34.1,32.4 33.8,32.7 33.8,33C33.8,33.3 34.1,33.6 34.4,33.6Z"/>
            <path d="M34.4,35.1C34.7,35.1 35,34.8 35,34.5C35,34.2 34.7,33.9 34.4,33.9C34.1,33.9 33.8,34.2 33.8,34.5C33.8,34.8 34.1,35.1 34.4,35.1Z"/>
            <path d="M34.4,36.6C34.7,36.6 35,36.3 35,36C35,35.7 34.7,35.4 34.4,35.4C34.1,35.4 33.8,35.7 33.8,36C33.8,36.4 34.1,36.6 34.4,36.6Z"/>
            <path d="M34.4,38.1C34.7,38.1 35,37.8 35,37.5C35,37.2 34.7,36.9 34.4,36.9C34.1,36.9 33.8,37.2 33.8,37.5C33.8,37.9 34.1,38.1 34.4,38.1Z"/>

            <path d="M43.6,54.8L39.7,54.8C39.3,54.8 39,54.5 39,54.1L39,45.3C39,44.9 39.3,44.6 39.7,44.6L43.6,44.6C44,44.6 44.3,44.9 44.3,45.3L44.3,54.1C44.4,54.5 44,54.8 43.6,54.8Z"/>
            <path d="M37.5,45.7C37.8,45.7 38.1,45.4 38.1,45.1C38.1,44.8 37.8,44.5 37.5,44.5C37.2,44.5 36.9,44.8 36.9,45.1C37,45.5 37.2,45.7 37.5,45.7Z"/>
            <path d="M37.5,47.2C37.8,47.2 38.1,46.9 38.1,46.6C38.1,46.3 37.8,46 37.5,46C37.2,46 36.9,46.3 36.9,46.6C37,47 37.2,47.2 37.5,47.2Z"/>
            <path d="M37.5,48.8C37.8,48.8 38.1,48.5 38.1,48.2C38.1,47.9 37.8,47.6 37.5,47.6C37.2,47.6 36.9,47.9 36.9,48.2C37,48.5 37.2,48.8 37.5,48.8Z"/>
            <path d="M37.5,50.3C37.8,50.3 38.1,50 38.1,49.7C38.1,49.4 37.8,49.1 37.5,49.1C37.2,49.1 36.9,49.4 36.9,49.7C37,50 37.2,50.3 37.5,50.3Z"/>
            <path d="M37.5,51.8C37.8,51.8 38.1,51.5 38.1,51.2C38.1,50.9 37.8,50.6 37.5,50.6C37.2,50.6 36.9,50.9 36.9,51.2C37,51.5 37.2,51.8 37.5,51.8Z"/>
            <path d="M45.6,45.7C45.9,45.7 46.2,45.4 46.2,45.1C46.2,44.8 45.9,44.5 45.6,44.5C45.3,44.5 45,44.8 45,45.1C45,45.5 45.3,45.7 45.6,45.7Z"/>
            <path d="M45.6,47.2C45.9,47.2 46.2,46.9 46.2,46.6C46.2,46.3 45.9,46 45.6,46C45.3,46 45,46.3 45,46.6C45,47 45.3,47.2 45.6,47.2Z"/>
            <path d="M45.6,48.8C45.9,48.8 46.2,48.5 46.2,48.2C46.2,47.9 45.9,47.6 45.6,47.6C45.3,47.6 45,47.9 45,48.2C45,48.5 45.3,48.8 45.6,48.8Z"/>
            <path d="M45.6,50.3C45.9,50.3 46.2,50 46.2,49.7C46.2,49.4 45.9,49.1 45.6,49.1C45.3,49.1 45,49.4 45,49.7C45,50 45.3,50.3 45.6,50.3Z"/>
            <path d="M45.6,51.8C45.9,51.8 46.2,51.5 46.2,51.2C46.2,50.9 45.9,50.6 45.6,50.6C45.3,50.6 45,50.9 45,51.2C45,51.5 45.3,51.8 45.6,51.8Z"/>
            <path d="M37.5,53.3C37.8,53.3 38.1,53 38.1,52.7C38.1,52.4 37.8,52.1 37.5,52.1C37.2,52.1 36.9,52.4 36.9,52.7C37,53.1 37.2,53.3 37.5,53.3Z"/>
            <path d="M45.6,53.3C45.9,53.3 46.2,53 46.2,52.7C46.2,52.4 45.9,52.1 45.6,52.1C45.3,52.1 45,52.4 45,52.7C45,53.1 45.3,53.3 45.6,53.3Z"/>
            <path d="M37.5,54.8C37.8,54.8 38.1,54.5 38.1,54.2C38.1,53.9 37.8,53.6 37.5,53.6C37.2,53.6 36.9,53.9 36.9,54.2C37,54.6 37.2,54.8 37.5,54.8Z"/>
            <path d="M45.6,54.8C45.9,54.8 46.2,54.5 46.2,54.2C46.2,53.9 45.9,53.6 45.6,53.6C45.3,53.6 45,53.9 45,54.2C45,54.6 45.3,54.8 45.6,54.8Z"/>

            <path d="M32.4,46.2L28.5,46.2C28.1,46.2 27.8,45.9 27.8,45.5L27.8,39.7C27.8,39.3 28.1,39 28.5,39L32.4,39C32.8,39 33.1,39.3 33.1,39.7L33.1,45.5C33.2,45.9 32.8,46.2 32.4,46.2Z"/>
            <path d="M26.3,40.2C26.6,40.2 26.9,39.9 26.9,39.6C26.9,39.3 26.6,39 26.3,39C26,39 25.7,39.3 25.7,39.6C25.8,39.9 26,40.2 26.3,40.2Z"/>
            <path d="M26.3,41.7C26.6,41.7 26.9,41.4 26.9,41.1C26.9,40.8 26.6,40.5 26.3,40.5C26,40.5 25.7,40.8 25.7,41.1C25.8,41.4 26,41.7 26.3,41.7Z"/>
            <path d="M26.3,43.2C26.6,43.2 26.9,42.9 26.9,42.6C26.9,42.3 26.6,42 26.3,42C26,42 25.7,42.3 25.7,42.6C25.8,42.9 26,43.2 26.3,43.2Z"/>
            <path d="M26.3,44.7C26.6,44.7 26.9,44.4 26.9,44.1C26.9,43.8 26.6,43.5 26.3,43.5C26,43.5 25.7,43.8 25.7,44.1C25.8,44.5 26,44.7 26.3,44.7Z"/>
            <path d="M26.3,46.2C26.6,46.2 26.9,45.9 26.9,45.6C26.9,45.3 26.6,45 26.3,45C26,45 25.7,45.3 25.7,45.6C25.8,46 26,46.2 26.3,46.2Z"/>
            <path d="M34.4,40.2C34.7,40.2 35,39.9 35,39.6C35,39.3 34.7,39 34.4,39C34.1,39 33.8,39.3 33.8,39.6C33.8,39.9 34.1,40.2 34.4,40.2Z"/>
            <path d="M34.4,41.7C34.7,41.7 35,41.4 35,41.1C35,40.8 34.7,40.5 34.4,40.5C34.1,40.5 33.8,40.8 33.8,41.1C33.8,41.4 34.1,41.7 34.4,41.7Z"/>
            <path d="M34.4,43.2C34.7,43.2 35,42.9 35,42.6C35,42.3 34.7,42 34.4,42C34.1,42 33.8,42.3 33.8,42.6C33.8,42.9 34.1,43.2 34.4,43.2Z"/>
            <path d="M34.4,44.7C34.7,44.7 35,44.4 35,44.1C35,43.8 34.7,43.5 34.4,43.5C34.1,43.5 33.8,43.8 33.8,44.1C33.8,44.5 34.1,44.7 34.4,44.7Z"/>
            <path d="M34.4,46.2C34.7,46.2 35,45.9 35,45.6C35,45.3 34.7,45 34.4,45C34.1,45 33.8,45.3 33.8,45.6C33.8,46 34.1,46.2 34.4,46.2Z"/>

            <path d="M64,28C64,29 63.5,29.8 63,29.8C62.4,29.8 62,29.7 62,29.5C62,29.3 62.3,29.2 62.7,29.2C63.1,29.2 63.4,28.7 63.4,28.1C63.4,27.5 63.3,27 63.2,27C63.1,27 63,26.7 63,26.6C63,26.5 63.2,26.3 63.5,26.3C63.8,26.2 64,27 64,28Z"/>

            <path d="M40.7,31.4L38,31.4C37.9,31.4 37.8,31.3 37.8,31.2C37.8,31.1 37.9,31 38,31L40.6,31C40.7,31 40.8,31.1 40.8,31.2C40.9,31.3 40.8,31.4 40.7,31.4Z"/>
            <path d="M40.7,32.9L38,32.9C37.9,32.9 37.8,32.8 37.8,32.7C37.8,32.6 37.9,32.5 38,32.5L40.6,32.5C40.7,32.5 40.8,32.6 40.8,32.7C40.9,32.8 40.8,32.9 40.7,32.9Z"/>
            <path d="M40.7,34.4L38,34.4C37.9,34.4 37.8,34.3 37.8,34.2C37.8,34.1 37.9,34 38,34L40.6,34C40.7,34 40.8,34.1 40.8,34.2C40.9,34.3 40.8,34.4 40.7,34.4Z"/>
            <path d="M40.7,35.9L38,35.9C37.9,35.9 37.8,35.8 37.8,35.7C37.8,35.6 37.9,35.5 38,35.5L40.6,35.5C40.7,35.5 40.8,35.6 40.8,35.7C40.9,35.8 40.8,35.9 40.7,35.9Z"/>
            <path d="M40.7,37.4L38,37.4C37.9,37.4 37.8,37.3 37.8,37.2C37.8,37.1 37.9,37 38,37L40.6,37C40.7,37 40.8,37.1 40.8,37.2C40.9,37.3 40.8,37.4 40.7,37.4Z"/>
            <path d="M40.7,39L38,39C37.9,39 37.8,38.9 37.8,38.8C37.8,38.7 37.9,38.6 38,38.6L40.6,38.6C40.7,38.6 40.8,38.7 40.8,38.8C40.9,38.9 40.8,39 40.7,39Z"/>
            <path d="M40.7,40.5L38,40.5C37.9,40.5 37.8,40.4 37.8,40.3C37.8,40.2 37.9,40.1 38,40.1L40.6,40.1C40.7,40.1 40.8,40.2 40.8,40.3C40.9,40.4 40.8,40.5 40.7,40.5Z"/>
            <path d="M40.7,42L38,42C37.9,42 37.8,41.9 37.8,41.8C37.8,41.7 37.9,41.6 38,41.6L40.6,41.6C40.7,41.6 40.8,41.7 40.8,41.8C40.9,41.9 40.8,42 40.7,42Z"/>
            <path d="M40.7,43.5L38,43.5C37.9,43.5 37.8,43.4 37.8,43.3C37.8,43.2 37.9,43.1 38,43.1L40.6,43.1C40.7,43.1 40.8,43.2 40.8,43.3C40.9,43.4 40.8,43.5 40.7,43.5Z"/>
            <path d="M45.1,31.4L42.5,31.4C42.4,31.4 42.3,31.3 42.3,31.2C42.3,31.1 42.4,31 42.5,31L45.1,31C45.2,31 45.3,31.1 45.3,31.2C45.3,31.3 45.2,31.4 45.1,31.4Z"/>
            <path d="M45.1,32.9L42.5,32.9C42.4,32.9 42.3,32.8 42.3,32.7C42.3,32.6 42.4,32.5 42.5,32.5L45.1,32.5C45.2,32.5 45.3,32.6 45.3,32.7C45.3,32.8 45.2,32.9 45.1,32.9Z"/>
            <path d="M45.1,34.4L42.5,34.4C42.4,34.4 42.3,34.3 42.3,34.2C42.3,34.1 42.4,34 42.5,34L45.1,34C45.2,34 45.3,34.1 45.3,34.2C45.3,34.3 45.2,34.4 45.1,34.4Z"/>
            <path d="M45.1,35.9L42.5,35.9C42.4,35.9 42.3,35.8 42.3,35.7C42.3,35.6 42.4,35.5 42.5,35.5L45.1,35.5C45.2,35.5 45.3,35.6 45.3,35.7C45.3,35.8 45.2,35.9 45.1,35.9Z"/>
            <path d="M45.1,37.4L42.5,37.4C42.4,37.4 42.3,37.3 42.3,37.2C42.3,37.1 42.4,37 42.5,37L45.1,37C45.2,37 45.3,37.1 45.3,37.2C45.3,37.3 45.2,37.4 45.1,37.4Z"/>
            <path d="M45.1,39L42.5,39C42.4,39 42.3,38.9 42.3,38.8C42.3,38.7 42.4,38.6 42.5,38.6L45.1,38.6C45.2,38.6 45.3,38.7 45.3,38.8C45.3,38.9 45.2,39 45.1,39Z"/>
            <path d="M45.1,40.5L42.5,40.5C42.4,40.5 42.3,40.4 42.3,40.3C42.3,40.2 42.4,40.1 42.5,40.1L45.1,40.1C45.2,40.1 45.3,40.2 45.3,40.3C45.3,40.4 45.2,40.5 45.1,40.5Z"/>
            <path d="M45.1,42L42.5,42C42.4,42 42.3,41.9 42.3,41.8C42.3,41.7 42.4,41.6 42.5,41.6L45.1,41.6C45.2,41.6 45.3,41.7 45.3,41.8C45.3,41.9 45.2,42 45.1,42Z"/>
            <path d="M45.1,43.5L42.5,43.5C42.4,43.5 42.3,43.4 42.3,43.3C42.3,43.2 42.4,43.1 42.5,43.1L45.1,43.1C45.2,43.1 45.3,43.2 45.3,43.3C45.3,43.4 45.2,43.5 45.1,43.5Z"/>

            <path d="M51.7,56.6L51.7,50.9C51.7,50.5 52,50.2 52.4,50.2L74.2,50.2C74.6,50.2 74.9,50.5 74.9,50.9L74.9,56.6C74.9,57 74.6,57.3 74.2,57.3L52.5,57.3C52.1,57.4 51.7,57 51.7,56.6Z"/>

            <path d="M85.5,6.8L2.5,6.8C2.4,6.8 2.3,6.9 2.3,7L2.3,16L8.5,16C8.6,16 8.7,16.1 8.7,16.2L8.7,46.3C8.7,46.4 8.6,46.5 8.5,46.5L2.4,46.5L2.4,56.9C2.4,57 2.5,57.1 2.6,57.1L27.8,57.1L27.8,55.4C27.8,55.3 27.9,55.2 28,55.2L33.1,55.2C33.2,55.2 33.3,55.3 33.3,55.4L33.3,57.1L52,57.1L52,50.6C52,50.5 52.1,50.4 52.2,50.4L75.1,50.4C75.2,50.4 75.3,50.5 75.3,50.6L75.3,57.1L85.9,57.1C86,57.1 86.1,57 86.1,56.9L86.1,6.9C85.7,6.8 85.6,6.8 85.5,6.8Z"/>

            <path d="M32.3,57.7L28.4,57.7C28,57.7 27.7,57.4 27.7,57L27.7,55.8C27.7,55.4 28,55.1 28.4,55.1L32.3,55.1C32.7,55.1 33,55.4 33,55.8L33,57C33.1,57.4 32.7,57.7 32.3,57.7Z"/>

    </g>
</svg>
