<svg width="100%" height="100%" viewBox="0 0 100 100" version="1.1" xmlns="http://www.w3.org/2000/svg" xmlns:xlink="http://www.w3.org/1999/xlink" xml:space="preserve">
   <g  id="yarn" transform="matrix(0.789154,-1.54074e-32,-1.54074e-32,0.789154,0.337866,-4.48907)">
	    <path d="M16.7,46.2C18,46.2 20.5,46.5 22.9,48.2C23.8,48.9 24.6,49.6 25.1,50.2"/>
<path d="M48.4,54.3C44.8,54.1 42.7,53.9 40.2,54.1C38.4,54.2 36.4,54.4 34.2,54.9"/>
<path d="M71.3,54C68.6,54 63.4,54.7 58.4,54.6C56.6,54.6 55,54.5 53.6,54.5"/>
<path d="M46.6,58.8C48,58.9 49.4,59 51,59C55.5,59.2 63.4,59.2 71.6,58.2"/>
<path d="M18.9,67.4C21.3,64.8 25.2,61.2 30.9,59.4C34.7,58.2 37.8,58.2 41.8,58.4"/>
<path d="M42,61.7C44.6,62 47.4,62.4 50.7,62.6C55.4,62.9 62.3,62.9 71.1,61.2"/>
<path d="M20.3,69.4C22.2,67.3 25.4,64.3 30.1,62.6C32.6,61.7 34.9,61.4 37.2,61.4"/>
<path d="M35.8,65.7C40.5,65.5 44.9,67 51,67.4C55.4,67.7 62,67.5 70.4,64.8"/>
<path d="M31.7,22.3C35.7,20.7 41.3,19.1 48.1,18.7C51.4,18.5 54.3,18.6 56.9,18.9"/>
<path d="M27.9,25.9C32.1,24.4 37.8,22.9 44.7,22.3C50.2,21.9 55,22.2 58.9,22.7"/>
<path d="M24.5,29.1C29.8,27.6 36.6,26.1 44.7,25.7C51.4,25.4 57.3,25.8 62.1,26.5"/>
<path d="M22.7,31.9C28.6,30.6 35.6,29.4 43.7,28.9C51.1,28.5 57.8,28.7 63.5,29.3"/>
<path d="M20.1,35.3C26.7,34 34.2,32.9 42.5,32.3C50.6,31.7 58.1,31.8 64.7,32.1"/>
<path d="M17.7,41.6C19.1,41.9 21,42.6 23.1,43.8C25.9,45.4 27.7,47.4 28.7,48.8"/>
<path d="M19.3,37.5C20.3,37.5 24.1,37.6 27.5,40.5C30.6,43.1 31.5,46.4 31.7,47.5"/>
<path d="M25.9,34.9C26.9,35 29.4,35.5 31.7,37.5C35.2,40.7 34.8,47.1 35.1,45.9"/>
<path d="M33.5,33.3C34.5,34.1 35.8,35.3 36.9,37.1C38.9,40.2 39.2,44.7 39.3,46.3"/>
<path d="M40.5,32.9C41.2,33.8 42.2,35.2 42.9,37.1C44,40.5 43.4,43.4 43.1,44.7"/>
<path d="M51.4,14.1L51.4,18.6"/>
<path d="M47.6,14.8L48.1,18.7"/>
<path d="M44.5,16.3L44.5,18.6"/>
<path d="M39.8,17.5L42,19.4"/>
<path d="M65.8,66.6C66.3,66.6 67.4,66.7 68.6,67.4C69.4,67.9 69.9,68.6 70.2,69"/>
<path d="M59.8,67.4C61.4,67.9 63,68.6 64.8,69.4C66.4,70.1 67.9,70.9 69.2,71.6"/>
<path d="M53.6,67.8C55.6,67.9 59.6,68.4 63.6,71C65.6,72.3 67,73.8 68,75"/>
<path d="M44.9,67C48.3,68.3 52.4,70.2 56.7,73C60.4,75.4 63.5,77.9 65.9,80.2"/>
<path d="M38.3,66.2C42.3,68.1 47.1,70.8 52.1,74.6C56.7,78.1 60.4,81.7 63.3,84.8"/>
<path d="M32.3,67.6C34.6,69 37.7,71.1 41.1,73.7C43.8,75.8 45.3,77.3 49.1,80.7C51.6,82.9 55.2,86.1 59.7,89.9"/>
<path d="M28.5,80C28.7,79.1 29.7,75.7 33.1,73.6C35.2,72.3 37.2,72 38.3,72"/>
<path d="M24.7,75.2C25.6,74.2 26.9,72.9 28.7,71.8C30.8,70.4 32.9,69.8 34.3,69.4"/>
<path d="M31.5,82.2C32.1,80.9 33.4,78.6 35.9,76.6C37.8,75.1 39.7,74.4 40.9,74"/>
<path d="M35.9,85C36.1,84 36.9,81.7 39.1,79.6C41.3,77.5 43.7,77 44.7,76.8"/>
<path d="M40.1,87C40.4,86.1 41.1,84.4 42.7,82.8C44.9,80.7 47.3,80.2 48.3,80"/>
<path d="M45.1,89C45.1,88.5 45.4,86.5 47.1,84.8C48.6,83.4 50.3,83.1 50.9,83"/>
<path d="M49.5,90.4C51,88.7 52.4,87.1 53.9,85.4"/>
<path d="M54.2,90.4C55,89.4 55.8,88.4 56.6,87.4"/>
<path d="M65.2,32.1L69.5,29.5C68.7,27.9 67.8,26.2 66.5,24.5C62.4,18.8 57.5,15.6 54.2,13.8C53.9,13.8 53.5,13.9 53.2,13.9C55.1,16.1 57.6,19.3 60.1,23.3C61.6,25.8 63.4,28.7 65.2,32.1Z"/>
<path d="M66.6,19.5C67.3,20.2 69.6,22.6 72.2,27.8L75.9,25.5C74.4,23.1 72.4,20.6 69.4,18.3C66.1,15.7 62.7,14.4 60.3,13.6C59.6,13.6 58.9,13.6 58.1,13.6L58.2,13.7C60.4,14.7 63.6,16.5 66.6,19.5Z"/>
<path d="M77.6,24.4L79.9,23C73.8,17.4 66.9,15 62.8,14C66.5,15.6 72.6,18.6 77.6,24.4Z"/>
<path d="M83.4,20.9C81.1,19.3 78.6,18 76,17C77.9,18.2 80.1,19.7 82.3,21.5L83.4,20.9Z"/>
<path d="M73,39.1C72.7,38.1 72.4,37.1 72.1,36.1C71.7,34.9 71.3,33.7 70.8,32.5L66.5,35C67.4,37 68.2,39.2 68.9,41.6L73,39.1Z"/>
<path d="M75.9,37.3L80.3,34.6C79.8,33.1 79.1,31.6 78.4,30.1C78.1,29.5 77.8,28.9 77.5,28.3L73.5,30.7C73.9,31.7 74.4,32.8 74.8,34C75.1,35 75.5,36.1 75.9,37.3Z"/>
<path d="M83.1,32.8L86.2,30.9C85.4,29.5 84.4,28 83.2,26.5C82.9,26.1 82.6,25.8 82.2,25.4L79.6,27C80.1,27.7 80.7,28.5 81.1,29.3C82,30.5 82.5,31.7 83.1,32.8Z"/>
<path d="M89.3,29L91.4,27.7C89.8,26 88.1,24.4 86.3,22.9L84.8,23.8C85.3,24.3 85.9,24.9 86.4,25.5C87.1,26.3 88.1,27.4 89.3,29Z"/>
<path d="M64,44.6L91.4,27.6C89.8,25.9 88.1,24.3 86.3,22.8L51.4,44.3C55.5,44.2 59.5,44.5 64,44.6Z"/>
<path d="M51.1,47.5C49.5,47.5 47.7,47.5 45.8,47.7L17.9,64.8C18.8,67.1 19.9,69.3 21.2,71.4C22.3,70.5 23.3,69.8 23.3,69.8L58.4,48.1C56,47.8 53.6,47.5 51.1,47.5Z"/>
<path d="M44.7,44.8L83.4,20.8C76.2,16.1 67.3,13.4 57.7,13.5C34.1,13.9 15.3,31.5 15.7,52.9C15.7,53.9 15.8,54.9 15.9,55.9C27,48.5 37.3,45.8 44.7,44.8Z"/>
<path d="M93.5,30.2L69.7,44.8C74.4,44.8 79.7,44.5 86.1,43.6C90.8,42.9 94.7,42.1 97.2,41.5L98.6,40.6L99.9,45.6L97.4,46.6C95.2,47.2 91.8,48.1 87.5,48.7C77.4,50.2 69.9,49.5 63.2,48.7L24.6,72.5C24.6,72.5 23.7,73 22.6,73.5C30.3,84.2 43.8,91.2 59,90.9C82.6,90.5 101.4,72.9 101,51.5C100.9,43.6 98.1,36.2 93.5,30.2Z"/>
<path d="M58.4,48.1L23.3,69.8C23.3,69.8 19.5,72.7 18.8,73.8C18.1,74.9 19,75.2 19.7,74.8C20.4,74.4 24.6,72.4 24.6,72.4L63.3,48.6C61.7,48.5 60,48.3 58.4,48.1Z"/>
<path d="M37.8,49.1L5.3,69.2C5.3,69.2 1.5,72.1 0.8,73.2C0.1,74.3 1,74.6 1.7,74.2C2.4,73.8 6.6,71.8 6.6,71.8L45.9,47.7C43.4,47.9 40.7,48.3 37.8,49.1Z"/>
<path d="M124.6,13.4C123.9,12 120.8,7.8 119.5,7.5C118.2,7.2 117,9.3 118.3,11.1L64,44.6C65.8,44.7 67.7,44.7 69.7,44.7L120.7,13.4C120.7,13.4 120.9,13.9 122,14.8C123,15.7 125.3,14.8 124.6,13.4Z"/>
<path d="M106.6,12.7C105.9,11.3 102.8,7.1 101.5,6.8C100.3,6.5 99,8.6 100.3,10.4L44.7,44.8C45.4,44.7 46.2,44.6 46.9,44.5C48.5,44.4 50,44.3 51.5,44.2L102.8,12.7C102.8,12.7 103,13.2 104.1,14.1C105,15.1 107.3,14.2 106.6,12.7Z"/>
<path d="M16.1,58.9C30.8,49.2 43.2,47.4 51.2,47.5C61.4,47.7 71.2,51.2 87.7,48.7C92,48 95.4,47.2 97.6,46.6L100.1,45.6L98.8,40.6L97.4,41.5C94.8,42.1 91,42.9 86.3,43.6C67.9,46.3 58.8,43.5 47,44.6C39.5,45.3 28.2,47.8 15.8,56.1L16.1,58.9Z"/>
<path d="M74.2,44.7C74.1,43.9 73.9,43.1 73.7,42.3L69.7,44.7L69.7,44.8C71.2,44.8 72.7,44.7 74.2,44.7Z"/>
<path d="M70.7,49.4C71.6,55.2 72.8,66.7 67.2,79C64.8,84.2 61.8,88.1 59.6,90.6L59.5,91C60.8,91 62.1,90.9 63.4,90.7L63.4,90.4C65,88.6 67.2,85.9 69.2,82.4C74.3,73.3 74.9,64.8 75.2,59.2C75.3,57.1 75.4,53.7 74.9,49.5C73.5,49.5 72.1,49.5 70.7,49.4Z"/>
<path d="M16.1,58.9C30.8,49.2 43.2,47.4 51.2,47.5C61.4,47.7 71.2,51.2 87.7,48.7C92,48 95.4,47.2 97.6,46.6L100.1,45.6L98.8,40.6L97.4,41.5C94.8,42.1 91,42.9 86.3,43.6C67.9,46.3 58.8,43.5 47,44.6C39.5,45.3 28.2,47.8 15.8,56.1L16.1,58.9Z"/>
<path d="M82.8,44C82.5,42 82,39.9 81.4,37.6L76.9,40.4C77.2,41.7 77.6,43 77.9,44.5C79.4,44.3 81,44.2 82.8,44Z"/>
<path d="M83.4,49.2C81.8,49.4 80.2,49.5 78.6,49.5C79,52.8 79.2,56.4 79,60.4C78.7,65.8 78.3,71.9 74.8,78.8C72,84.3 68.4,88 65.8,90.2L65.8,90.4C67.3,90.2 68.7,89.8 70.2,89.5C72.1,88 75,85.6 77.6,81.9C84.4,72.1 84,61.3 83.6,52.8C83.5,51.6 83.5,50.4 83.4,49.2Z"/>
<path d="M93.5,30.2L91.1,31.6C91.9,32.9 92.8,34.3 93.6,35.8C94.3,37.1 95.3,39.1 96.2,41.6C96.6,41.5 96.9,41.4 97.3,41.3L98.7,40.4L100,45.4L97.6,46.3C97.9,47.6 98.2,49 98.3,50.4C99.5,61.6 94.6,70.6 92.3,74.4L92.8,74.7C98,68.1 101.1,60.1 100.9,51.4C100.9,43.6 98.1,36.2 93.5,30.2Z"/>
<path d="M86.4,43.5C88,43.3 89.5,43 90.9,42.7C90.3,40.9 89.8,39.4 89.3,38.2C88.7,36.7 88.2,35.2 87.5,33.7L84.1,35.8C84.5,37.1 84.9,38.3 85.3,39.6C85.7,40.7 86.1,42 86.4,43.5Z"/>
<path d="M87.6,48.7L87.5,48.7C88.6,55.1 88.8,63.3 85.6,72C84.3,75.4 81.4,81.6 75.9,87.3C75.9,87.3 75.9,87.4 75.9,87.5C78.1,86.6 80.1,85.5 82.1,84.4L82,84.3C86.7,80.1 89.1,75.8 90.4,73.1C94.6,64.1 94,55 92.4,47.9C90.9,48.1 89.4,48.4 87.6,48.7Z"/>
<path d="M16.1,49.6C16.5,49.6 17.5,49.5 18.5,50C20,50.7 20.6,52.1 20.7,52.4"/>

    </g>
</svg>
