<svg id="intro-logo" width="100%" height="100%" viewBox="0 0 370 240" version="1.1" xmlns="http://www.w3.org/2000/svg" xmlns:xlink="http://www.w3.org/1999/xlink" xml:space="preserve" >
<!--
        <g id="text">
            <path d="M111.627,180.672C113.798,180.672 115.591,180.315 117.007,179.596C118.422,178.879 119.13,177.667 119.13,175.961C119.13,175.147 119.004,174.448 118.752,173.867C118.499,173.285 118.083,172.762 117.502,172.296C116.92,171.831 116.153,171.386 115.204,170.959C114.254,170.532 113.081,170.028 111.686,169.446C110.56,168.981 109.494,168.507 108.486,168.022C107.478,167.537 106.586,166.975 105.811,166.334C105.034,165.694 104.414,164.93 103.949,164.037C103.483,163.146 103.251,162.06 103.251,160.779C103.251,158.337 104.172,156.36 106.014,154.847C107.856,153.335 110.386,152.578 113.605,152.578C115.659,152.578 117.356,152.753 118.694,153.102C120.032,153.451 120.972,153.762 121.515,154.032L120.643,157.406C120.177,157.174 119.392,156.863 118.287,156.476C117.182,156.088 115.563,155.894 113.43,155.894C112.576,155.894 111.773,155.982 111.017,156.156C110.26,156.331 109.591,156.604 109.01,156.973C108.428,157.342 107.963,157.808 107.613,158.371C107.265,158.935 107.09,159.624 107.09,160.44C107.09,161.256 107.244,161.956 107.556,162.538C107.865,163.122 108.32,163.636 108.922,164.083C109.523,164.53 110.26,164.946 111.133,165.332C112.005,165.718 113.003,166.143 114.128,166.607C115.291,167.069 116.405,167.542 117.473,168.025C118.538,168.508 119.48,169.088 120.294,169.766C121.107,170.445 121.767,171.26 122.272,172.209C122.774,173.16 123.027,174.353 123.027,175.786C123.027,178.501 122.01,180.556 119.974,181.952C117.938,183.348 115.155,184.046 111.627,184.046C108.989,184.046 106.974,183.822 105.578,183.377C104.182,182.932 103.251,182.592 102.786,182.359L103.774,178.927C103.891,179.005 104.143,179.131 104.531,179.306C104.918,179.48 105.441,179.674 106.102,179.887C106.76,180.101 107.545,180.285 108.457,180.44C109.367,180.595 110.425,180.672 111.627,180.672" style="fill:black;fill-rule:nonzero;"/>
            <path d="M141.001,180.614C142.474,180.614 143.764,180.565 144.868,180.468C145.974,180.372 146.914,180.246 147.688,180.091L147.688,169.504C147.263,169.31 146.585,169.107 145.653,168.893C144.724,168.68 143.444,168.573 141.814,168.573C140.884,168.573 139.914,168.641 138.907,168.777C137.897,168.914 136.968,169.204 136.115,169.649C135.261,170.095 134.563,170.707 134.021,171.482C133.478,172.258 133.206,173.285 133.206,174.564C133.206,175.689 133.39,176.639 133.759,177.415C134.128,178.191 134.651,178.81 135.33,179.276C136.008,179.741 136.822,180.081 137.771,180.294C138.723,180.508 139.799,180.614 141.001,180.614M140.652,152.578C142.629,152.578 144.307,152.86 145.683,153.422C147.06,153.984 148.174,154.76 149.027,155.748C149.879,156.737 150.501,157.91 150.889,159.267C151.276,160.625 151.471,162.098 151.471,163.687L151.471,182.649C151.082,182.765 150.52,182.892 149.783,183.027C149.046,183.164 148.193,183.309 147.224,183.464C146.254,183.618 145.179,183.745 143.996,183.842C142.813,183.938 141.602,183.987 140.361,183.987C138.771,183.987 137.307,183.812 135.969,183.464C134.632,183.115 133.468,182.562 132.48,181.806C131.491,181.05 130.714,180.081 130.152,178.898C129.59,177.716 129.309,176.271 129.309,174.564C129.309,172.936 129.619,171.54 130.239,170.377C130.86,169.214 131.731,168.254 132.856,167.498C133.981,166.741 135.319,166.188 136.871,165.84C138.421,165.491 140.108,165.316 141.932,165.316C142.474,165.316 143.045,165.345 143.646,165.403C144.248,165.462 144.83,165.54 145.392,165.636C145.954,165.733 146.438,165.831 146.847,165.926C147.253,166.024 147.533,166.111 147.688,166.188L147.688,164.328C147.688,163.28 147.611,162.262 147.456,161.274C147.301,160.285 146.962,159.393 146.438,158.598C145.915,157.803 145.179,157.164 144.23,156.678C143.277,156.194 142.027,155.952 140.478,155.952C138.267,155.952 136.617,156.107 135.533,156.417C134.447,156.728 133.652,156.979 133.147,157.174L132.624,153.858C133.283,153.548 134.301,153.257 135.679,152.985C137.055,152.715 138.712,152.578 140.652,152.578" style="fill:black;fill-rule:nonzero;"/>
            <path d="M161.706,154.323C162.83,154.013 164.343,153.664 166.243,153.276C168.144,152.888 170.469,152.694 173.223,152.694C175.511,152.694 177.42,153.024 178.953,153.683C180.484,154.344 181.705,155.283 182.616,156.505C183.527,157.725 184.177,159.19 184.564,160.895C184.953,162.602 185.146,164.483 185.146,166.538L185.146,183.347L181.366,183.347L181.366,167.76C181.366,165.627 181.222,163.824 180.93,162.349C180.639,160.877 180.153,159.675 179.477,158.744C178.797,157.813 177.906,157.144 176.8,156.737C175.694,156.33 174.308,156.126 172.641,156.126C170.858,156.126 169.316,156.223 168.017,156.417C166.718,156.611 165.874,156.786 165.486,156.94L165.486,183.347L161.706,183.347L161.706,154.323Z" style="fill:black;fill-rule:nonzero;"/>
            <path d="M198.931,153.276L210.913,153.276L210.913,156.475L198.931,156.475L198.931,172.47C198.931,174.177 199.077,175.563 199.368,176.63C199.659,177.696 200.075,178.519 200.618,179.101C201.16,179.683 201.82,180.071 202.596,180.264C203.37,180.459 204.224,180.555 205.155,180.555C206.744,180.555 208.024,180.372 208.994,180.003C209.962,179.634 210.719,179.296 211.262,178.985L212.193,182.126C211.65,182.475 210.7,182.873 209.343,183.318C207.985,183.763 206.512,183.987 204.922,183.987C203.061,183.987 201.499,183.745 200.24,183.26C198.98,182.776 197.971,182.039 197.215,181.049C196.459,180.061 195.926,178.831 195.616,177.356C195.305,175.883 195.151,174.138 195.151,172.122L195.151,144.435L198.931,143.737L198.931,153.276Z" style="fill:black;fill-rule:nonzero;"/>
            <path d="M228.537,180.614C230.011,180.614 231.301,180.565 232.405,180.468C233.511,180.372 234.45,180.246 235.226,180.091L235.226,169.504C234.8,169.31 234.121,169.107 233.19,168.893C232.26,168.68 230.98,168.573 229.351,168.573C228.421,168.573 227.451,168.641 226.443,168.777C225.434,168.914 224.504,169.204 223.651,169.649C222.798,170.095 222.1,170.707 221.558,171.482C221.015,172.258 220.743,173.285 220.743,174.564C220.743,175.689 220.927,176.639 221.296,177.415C221.664,178.191 222.187,178.81 222.866,179.276C223.545,179.741 224.358,180.081 225.309,180.294C226.259,180.508 227.335,180.614 228.537,180.614M228.188,152.578C230.166,152.578 231.843,152.86 233.22,153.422C234.596,153.984 235.711,154.76 236.564,155.748C237.417,156.737 238.037,157.91 238.426,159.267C238.812,160.625 239.007,162.098 239.007,163.687L239.007,182.649C238.619,182.765 238.057,182.892 237.32,183.027C236.583,183.164 235.73,183.309 234.761,183.464C233.791,183.618 232.716,183.745 231.533,183.842C230.349,183.938 229.139,183.987 227.897,183.987C226.308,183.987 224.844,183.812 223.506,183.464C222.169,183.115 221.005,182.562 220.016,181.806C219.027,181.05 218.251,180.081 217.689,178.898C217.127,177.716 216.847,176.271 216.847,174.564C216.847,172.936 217.156,171.54 217.777,170.377C218.396,169.214 219.269,168.254 220.394,167.498C221.518,166.741 222.856,166.188 224.408,165.84C225.958,165.491 227.645,165.316 229.468,165.316C230.011,165.316 230.582,165.345 231.183,165.403C231.785,165.462 232.366,165.54 232.929,165.636C233.49,165.733 233.975,165.831 234.383,165.926C234.79,166.024 235.071,166.111 235.226,166.188L235.226,164.328C235.226,163.28 235.148,162.262 234.994,161.274C234.839,160.285 234.499,159.393 233.975,158.598C233.452,157.803 232.716,157.164 231.766,156.678C230.815,156.194 229.564,155.952 228.014,155.952C225.804,155.952 224.155,156.107 223.07,156.417C221.984,156.728 221.188,156.979 220.685,157.174L220.162,153.858C220.82,153.548 221.839,153.257 223.216,152.985C224.592,152.715 226.249,152.578 228.188,152.578" style="fill:black;fill-rule:nonzero;"/>
            <path d="M275.301,138.212C276.929,138.212 278.257,138.338 279.285,138.59C280.312,138.843 280.981,139.066 281.291,139.259L280.535,142.516C280.109,142.322 279.479,142.118 278.645,141.905C277.811,141.692 276.755,141.585 275.475,141.585C272.799,141.585 270.889,142.264 269.746,143.621C268.602,144.979 268.03,147.15 268.03,150.136L268.03,153.276L280.128,153.276L280.128,156.476L268.03,156.476L268.03,183.348L264.249,183.348L264.249,150.02C264.249,146.103 265.151,143.155 266.954,141.178C268.757,139.2 271.539,138.212 275.301,138.212" style="fill:black;fill-rule:nonzero;"/>
            <path d="M306.245,165.898C306.166,162.756 305.431,160.314 304.034,158.569C302.639,156.824 300.661,155.952 298.101,155.952C296.744,155.952 295.532,156.223 294.466,156.766C293.399,157.309 292.469,158.037 291.674,158.947C290.879,159.859 290.259,160.916 289.813,162.117C289.367,163.319 289.105,164.58 289.027,165.898L306.245,165.898ZM284.898,168.283C284.898,165.646 285.276,163.348 286.032,161.39C286.788,159.432 287.777,157.794 288.999,156.475C290.22,155.157 291.616,154.177 293.186,153.538C294.757,152.898 296.376,152.578 298.043,152.578C301.726,152.578 304.664,153.78 306.855,156.184C309.046,158.588 310.141,162.292 310.141,167.294C310.141,167.604 310.132,167.915 310.112,168.224C310.093,168.535 310.063,168.826 310.025,169.097L288.911,169.097C289.027,172.781 289.938,175.611 291.645,177.588C293.351,179.567 296.065,180.555 299.788,180.555C301.843,180.555 303.472,180.362 304.674,179.973C305.876,179.586 306.748,179.256 307.292,178.985L307.989,182.242C307.446,182.553 306.428,182.921 304.935,183.347C303.442,183.773 301.687,183.987 299.672,183.987C297.034,183.987 294.786,183.599 292.925,182.824C291.063,182.048 289.531,180.962 288.33,179.567C287.127,178.17 286.255,176.513 285.712,174.593C285.169,172.674 284.898,170.571 284.898,168.283" style="fill:black;fill-rule:nonzero;"/>
            <path d="M73.522,57.579C74.605,59.559 75.852,62.005 77.267,64.914C78.68,67.825 80.154,70.975 81.688,74.364C83.222,77.755 84.741,81.22 86.246,84.759C87.749,88.3 89.163,91.63 90.487,94.749C91.81,91.63 93.223,88.3 94.728,84.759C96.232,81.22 97.751,77.755 99.285,74.364C100.819,70.975 102.293,67.825 103.708,64.914C105.121,62.005 106.37,59.559 107.452,57.579L120.232,57.579C120.831,61.719 121.386,66.354 121.897,71.484C122.406,76.614 122.856,81.955 123.247,87.504C123.636,93.055 123.997,98.619 124.327,104.199C124.656,109.779 124.942,115.03 125.182,119.949L111.502,119.949C111.322,113.89 111.082,107.29 110.782,100.149C110.481,93.01 110.031,85.809 109.432,78.549C108.348,81.069 107.144,83.859 105.821,86.919C104.496,89.979 103.187,93.039 101.893,96.1C100.599,99.159 99.35,102.084 98.147,104.874C96.943,107.664 95.919,110.049 95.077,112.029L85.267,112.029C84.423,110.049 83.401,107.664 82.197,104.874C80.994,102.084 79.744,99.159 78.45,96.1C77.156,93.039 75.846,89.979 74.523,86.919C73.199,83.859 71.995,81.069 70.912,78.549C70.311,85.809 69.862,93.01 69.562,100.149C69.261,107.29 69.022,113.89 68.842,119.949L55.162,119.949C55.401,115.03 55.686,109.779 56.017,104.199C56.346,98.619 56.706,93.055 57.097,87.504C57.487,81.955 57.936,76.614 58.447,71.484C58.956,66.354 59.511,61.719 60.112,57.579L73.522,57.579Z" style="fill:black;fill-rule:nonzero;"/>
            <path d="M164.465,71.709C164.152,72.615 163.694,73.848 163.09,75.406C162.486,76.966 161.801,78.768 161.03,80.811C160.259,82.854 159.398,85.104 158.445,87.561C157.493,90.018 156.526,92.594 155.543,95.289L173.378,95.289C172.423,92.585 171.499,90 170.605,87.536C169.711,85.073 168.86,82.818 168.056,80.773C167.25,78.73 166.544,76.931 165.937,75.372C165.329,73.815 164.838,72.595 164.465,71.709M181.333,119.949C180.639,117.782 179.894,115.556 179.095,113.272C178.296,110.988 177.5,108.713 176.708,106.449L152.349,106.449C151.562,108.725 150.772,111.004 149.981,113.291C149.19,115.577 148.452,117.798 147.771,119.949L133.191,119.949C135.537,113.23 137.764,107.021 139.87,101.319C141.977,95.62 144.037,90.249 146.054,85.209C148.069,80.169 150.056,75.385 152.012,70.855C153.968,66.324 156,61.899 158.107,57.579L171.415,57.579C173.464,61.899 175.484,66.324 177.473,70.855C179.462,75.385 181.467,80.169 183.486,85.209C185.506,90.249 187.57,95.62 189.68,101.319C191.789,107.021 194.019,113.23 196.37,119.949L181.333,119.949Z" style="fill:black;fill-rule:nonzero;"/>
            <path d="M242.048,119.949C240.783,117.92 239.294,115.726 237.578,113.369C235.863,111.012 234.016,108.636 232.034,106.241C230.053,103.847 227.98,101.551 225.814,99.354C223.649,97.158 221.485,95.218 219.32,93.533L219.32,119.949L205.28,119.949L205.28,57.579L219.32,57.579L219.32,81.019C222.93,77.228 226.598,73.262 230.321,69.123C234.045,64.984 237.485,61.136 240.639,57.579L257.3,57.579C253.056,62.635 248.785,67.495 244.49,72.159C240.195,76.825 235.675,81.519 230.93,86.244C235.919,90.406 240.733,95.343 245.368,101.054C250.003,106.766 254.459,113.065 258.74,119.949L242.048,119.949Z" style="fill:black;fill-rule:nonzero;"/>
            <path d="M267.739,119.949L267.739,57.579L309.858,57.579L309.858,69.369L281.78,69.369L281.78,81.609L306.709,81.609L306.709,93.129L281.78,93.129L281.78,108.159L311.929,108.159L311.929,119.949L267.739,119.949Z" style="fill:black;fill-rule:nonzero;"/>
        </g>
-->
        <g id="top">
            <path d="M91.787,0.001L35.999,0.001L0,0.001L0,71.834L35.999,71.834L35.999,35.999L91.787,35.999L91.787,0.001Z" style="fill:black;fill-rule:nonzero;"/>
        </g>
        <g id="bottom">
            <path d="M278.213,239.848L370,239.848L370,203.85L370,168.015L334.001,168.015L334.001,203.85L278.213,203.85L278.213,239.848Z" style="fill:black;fill-rule:nonzero;"/>
        </g>
</svg>
