<?xml version="1.0" standalone="no"?>
<!DOCTYPE svg PUBLIC "-//W3C//DTD SVG 1.1//EN" "http://www.w3.org/Graphics/SVG/1.1/DTD/svg11.dtd">
<svg width="100%" height="100%" viewBox="0 0 100 100" version="1.1" xmlns="http://www.w3.org/2000/svg" xmlns:xlink="http://www.w3.org/1999/xlink" xml:space="preserve" style="fill-rule:evenodd;clip-rule:evenodd;stroke-miterlimit:1.41421;">
    <g transform="matrix(0.828463,0,0,0.828463,10.6629,-4.63355)">
        <path d="M74.5,11C81.9,13.4 95.1,17.6 94.5,33.3C93.9,49 90.2,86.7 87.3,96.9C84.3,107.1 76.9,122.2 65,124.3C53.1,126.4 44.8,124.1 39.9,120C35,116 24.2,106.8 22.5,104.5C20.8,102.2 20.8,97.3 21,94.1C21.2,90.9 21.4,85.4 17.2,78.6C12.8,71.8 2,44 1.1,38.7C0.2,33.4 -1.2,30.6 8,24.4C17.2,18.2 19.3,14.6 27.1,12.1C34.9,9.6 43.3,6.8 50.9,6.8C58.5,6.8 72.8,10.5 74.5,11Z" style="fill:none;stroke-width:1px;stroke:rgb(45,39,39);"/>
    </g>
    <g transform="matrix(0.828463,0,0,0.828463,10.6629,-4.63355)">
        <rect x="33.3" y="41.9" width="50.2" height="20.6" style="fill:none;stroke-width:1px;stroke:rgb(45,39,39);"/>
    </g>
    <g transform="matrix(0.828463,0,0,0.828463,10.6629,-4.63355)">
        <path d="M83.3,62.3L33.1,62.3L28.5,67.3L78.7,67.3L83.3,62.3Z" style="fill:none;stroke-width:1px;stroke:rgb(45,39,39);"/>
    </g>
    <g transform="matrix(0.828463,0,0,0.828463,10.6629,-4.63355)">
        <path d="M33.3,62.3L33.3,41.9L28.5,48.5L28.6,67.3L33.3,62.3Z" style="fill:none;stroke-width:1px;stroke:rgb(45,39,39);"/>
    </g>
    <g transform="matrix(0.828463,0,0,0.828463,10.6629,-4.63355)">
        <ellipse cx="11.9" cy="39.6" rx="3.3" ry="4.1" style="fill:none;stroke-width:1px;stroke:rgb(45,39,39);"/>
    </g>
</svg>
