<svg width="100%" height="100%" viewBox="0 0 188 95" version="1.1" xmlns="http://www.w3.org/2000/svg" xmlns:xlink="http://www.w3.org/1999/xlink" xml:space="preserve">
    <g  id="anvil" transform="matrix(1,0,0,1,-0.234123,-6.0453)">
            <path d="M16.4,18.6C22.6,17.8 107.6,8.6 109.3,8.5C110.4,8.5 113.2,8.1 113.5,8.2C113.5,8.5 113.5,9.7 113.5,10.5C113.5,12.5 114.3,13.9 116.3,13.6C118.3,13.3 123.1,12.5 124.5,12.5C126.4,12.4 126.4,12.4 126.7,15C126.8,16.1 128.4,16.1 130.3,16.1C132.2,16.1 176.7,7.4 182.9,6.9C189.1,6.4 186.5,11.9 184.3,14.2C182.1,16.5 160.5,35.7 146,40.2C131.5,44.7 124.7,46.1 122.8,47.5C120.9,48.9 120.4,52.3 124.5,53.1C128.6,53.9 137.3,55.7 137.3,55.7L137.3,70.5L124.5,99.6L107.4,99.6C107.4,99.6 108.4,93.3 102.8,90.8C97.2,88.3 65.2,88.4 58.7,92.6C52.3,96.8 53.1,99.6 53.1,99.6L26.5,99.6L26.5,90.4L49.7,63.8L54.2,63.8C54.2,63.8 53.1,58 49.4,55.7C45.8,53.4 35.4,47.5 20.6,48.4C5.8,49.2 0.5,48.4 0.5,48.4L0.5,36.5L16.4,18.6Z"/>
    </g>
</svg>
