<svg width="100px" height="100px" viewBox="0 0 124 117" version="1.1" xmlns="http://www.w3.org/2000/svg" xmlns:xlink="http://www.w3.org/1999/xlink" xml:space="preserve">

    <g transform="matrix(2,0,0,2,-110.598,-1652.16)">
        <path d="M109.568,834.073L112.142,833.986L112.142,875.934C112.142,875.934 110.909,881.692 109.264,877.579C107.619,873.467 109.675,831.107 109.675,831.107L60.324,832.341L60.324,879.087L110.322,879.065"/>

        <rect x="65.492" y="842.257"/>

        <path d="M86.233,842.257L104.328,842.257"/>

        <path d="M86.233,844.922L104.328,844.922"/>

        <path d="M86.233,847.587L104.328,847.587"/>

        <path d="M86.233,850.252L104.328,850.252"/>

        <path d="M86.233,852.917L104.328,852.917"/>

        <path d="M86.233,855.582L104.328,855.582"/>

        <path d="M86.233,858.247L104.328,858.247"/>

        <path d="M86.233,860.911L104.328,860.911"/>

        <path d="M65.657,860.911L83.752,860.911"/>

        <path d="M86.233,863.576L104.328,863.576"/>

        <path d="M65.657,863.576L83.752,863.576"/>

        <path d="M86.233,866.241L104.328,866.241"/>

        <path d="M65.657,866.241L83.752,866.241"/>

        <path d="M86.233,868.906L104.328,868.906"/>

        <path d="M65.657,868.906L83.752,868.906"/>

        <path d="M86.233,871.571L104.328,871.571"/>

        <path d="M65.657,871.571L83.752,871.571"/>

        <path d="M86.233,874.236L104.328,874.236"/>

        <path d="M65.657,874.236L83.752,874.236"/>
    </g>
</svg>
