<svg width="100%" height="100%" viewBox="0 0 83 309" version="1.1" xmlns="http://www.w3.org/2000/svg" xmlns:xlink="http://www.w3.org/1999/xlink" xml:space="preserve">
    <g  id="dress-form" transform="matrix(1,0,0,1,0.493347,-5.84991)">
            <path d="M72.7,199.9C81.8,194.6 81.5,185.2 81.5,178.7C81.5,172.2 81.5,144.5 81.5,140.1C81.5,135.7 80.3,114.2 76.2,109.7C72.1,105.3 70.6,100 70.6,92C70.6,84 74.1,77.8 78.6,68.7C83,59.6 77.1,49.5 75.9,47.5C74.7,45.4 76.5,40.9 76.9,37.8C77.5,33.1 72,29.5 68.7,27.7C65.5,25.9 57.6,22.5 54.9,21.3C52.2,20.1 51.4,18.1 51.4,16.3C51.4,14.5 51.4,14.8 51.4,11.3C51.4,7.8 48.5,7.2 46.1,6.9C43.8,6.5 35,8.6 32,9.5C32,9.5 27.9,11.3 27.9,12.4C27.9,13.6 27.9,13.9 27.9,17.7C27.9,21.5 26.4,22.4 24.1,23.9C21.7,25.4 10.5,33.3 7.9,34.2C5.2,35.1 2,37.6 2,41.6C2,44.1 2,49.8 2,53.1C2,56.3 2.6,63.1 4.9,65.5C7.3,67.9 9,73.8 10.5,77.9C12,82 17.3,92.1 18.5,95.3C19.7,98.5 20.6,103.3 19.7,108.6C18.8,113.9 8.3,122.4 7.2,136.3C6.8,141.5 1.7,185.8 0.8,190.8C-0.1,195.8 1.1,201.1 4,203.8C6.9,206.5 12.5,211.2 15.2,213.2C17.9,215.3 27.6,217.3 34.1,215.6C34.8,215.4 35.7,215.1 36.8,214.8L36.8,287C18.7,287.4 4.4,293.2 4.4,300.3C4.4,307.7 19.8,313.6 38.8,313.6C57.8,313.6 73.2,307.6 73.2,300.3C73.2,293.2 58.9,287.4 40.8,287L40.8,213.5C50.4,210 65.7,204 72.7,199.9Z"/>
    </g>
</svg>
