<svg id="side-flare" width="300px" height="100%" viewBox="0 0 300 42" version="1.1" xmlns="http://www.w3.org/2000/svg" xmlns:xlink="http://www.w3.org/1999/xlink" xml:space="preserve" style="fill-rule:evenodd;clip-rule:evenodd;stroke-miterlimit:1.41421;">
 <g transform="matrix(1.02404,0,0,1.02404,-62.1767,-645.971)">
	    <g class="lines">
	        <path d="M405.741,646.233L94.686,646.233L83.519,635.066L64.765,635.066"/>
			<path d="M405.741,656.393L94.686,656.393L83.519,667.56L71.657,667.56"/>
	        <path d="M405.741,651.223L76.905,651.223"/>
	    </g>

		<g class="circles">
			     <path d="M64.977,631.306C62.901,631.306 61.217,632.99 61.217,635.066C61.217,637.142 62.901,638.826 64.977,638.826C67.053,638.826 68.737,637.142 68.737,635.066C68.737,632.99 67.053,631.306 64.977,631.306"/>
		        <path d="M71.87,663.801C69.794,663.801 68.11,665.485 68.11,667.561C68.11,669.637 69.794,671.321 71.87,671.321C73.946,671.321 75.63,669.637 75.63,667.561C75.63,665.485 73.946,663.801 71.87,663.801"/>
				<path d="M77.118,647.463C75.042,647.463 73.358,649.147 73.358,651.223C73.358,653.299 75.042,654.983 77.118,654.983C79.194,654.983 80.878,653.299 80.878,651.223C80.878,649.147 79.194,647.463 77.118,647.463"/>
		</g>

    </g>
</svg>
